M48
INCH
T1C0.0118
T2C0.0157
T3C0.0236
T4C0.0315
T5C0.0374
T6C0.0394
T7C0.0748
T8C0.1260
%
G90
G05
T1
X0.3228Y0.2953
X0.5388Y0.8356
X0.5512Y0.6378
X0.5797Y0.6181
X0.6057Y0.8356
X0.6372Y0.8356
X0.6671Y0.8257
X0.685Y0.6181
X0.6929Y0.7953
X0.7533Y0.6942
X0.9121Y0.6225
X0.937Y0.6417
X0.9449Y0.6979
X1.0315Y0.7057
X1.0551Y0.4446
X1.3406Y0.4724
X1.372Y0.4724
X1.4035Y0.4736
X1.4862Y0.8337
X1.9803Y1.0472
X1.9803Y1.0236
X1.9803Y1.0
X1.9803Y0.9764
X1.9803Y0.9528
X1.9803Y0.9291
X1.9803Y0.9055
X1.9803Y0.8819
X1.9803Y0.6811
X1.9803Y0.6575
X1.9803Y0.6339
X1.9803Y0.6102
X1.9803Y0.5866
X1.9803Y0.563
X1.9803Y0.5394
X1.9803Y0.5157
X1.9803Y0.2638
X1.9803Y0.2402
X1.9803Y0.2165
X1.9803Y0.1929
X1.9803Y0.1693
X1.9803Y0.1457
X1.9803Y0.122
X1.9803Y0.0984
X2.0039Y1.0472
X2.0039Y1.0236
X2.0039Y1.0
X2.0039Y0.9764
X2.0039Y0.9528
X2.0039Y0.9291
X2.0039Y0.9055
X2.0039Y0.8819
X2.0039Y0.6811
X2.0039Y0.6575
X2.0039Y0.6339
X2.0039Y0.6102
X2.0039Y0.5866
X2.0039Y0.563
X2.0039Y0.5394
X2.0039Y0.5157
X2.0039Y0.2638
X2.0039Y0.2402
X2.0039Y0.2165
X2.0039Y0.1929
X2.0039Y0.1693
X2.0039Y0.1457
X2.0039Y0.122
X2.0039Y0.0984
X2.0276Y1.0472
X2.0276Y1.0236
X2.0276Y1.0
X2.0276Y0.9764
X2.0276Y0.9528
X2.0276Y0.9291
X2.0276Y0.9055
X2.0276Y0.8819
X2.0276Y0.6811
X2.0276Y0.6575
X2.0276Y0.6339
X2.0276Y0.6102
X2.0276Y0.5866
X2.0276Y0.563
X2.0276Y0.5394
X2.0276Y0.5157
X2.0276Y0.2638
X2.0276Y0.2402
X2.0276Y0.2165
X2.0276Y0.1929
X2.0276Y0.1693
X2.0276Y0.1457
X2.0276Y0.122
X2.0276Y0.0984
X2.0512Y1.0472
X2.0512Y1.0236
X2.0512Y1.0
X2.0512Y0.9764
X2.0512Y0.9528
X2.0512Y0.9291
X2.0512Y0.9055
X2.0512Y0.8819
X2.0512Y0.6811
X2.0512Y0.6575
X2.0512Y0.6339
X2.0512Y0.6102
X2.0512Y0.5866
X2.0512Y0.563
X2.0512Y0.5394
X2.0512Y0.5157
X2.0512Y0.2638
X2.0512Y0.2402
X2.0512Y0.2165
X2.0512Y0.1929
X2.0512Y0.1693
X2.0512Y0.1457
X2.0512Y0.122
X2.0512Y0.0984
X2.0748Y1.0472
X2.0748Y1.0236
X2.0748Y1.0
X2.0748Y0.9764
X2.0748Y0.9528
X2.0748Y0.9291
X2.0748Y0.9055
X2.0748Y0.8819
X2.0748Y0.6811
X2.0748Y0.6575
X2.0748Y0.6339
X2.0748Y0.6102
X2.0748Y0.5866
X2.0748Y0.563
X2.0748Y0.5394
X2.0748Y0.5157
X2.0748Y0.2638
X2.0748Y0.2402
X2.0748Y0.2165
X2.0748Y0.1929
X2.0748Y0.1693
X2.0748Y0.1457
X2.0748Y0.122
X2.0748Y0.0984
X2.0984Y1.0472
X2.0984Y1.0236
X2.0984Y1.0
X2.0984Y0.9764
X2.0984Y0.9528
X2.0984Y0.9291
X2.0984Y0.9055
X2.0984Y0.8819
X2.0984Y0.6811
X2.0984Y0.6575
X2.0984Y0.6339
X2.0984Y0.6102
X2.0984Y0.5866
X2.0984Y0.563
X2.0984Y0.5394
X2.0984Y0.5157
X2.0984Y0.2638
X2.0984Y0.2402
X2.0984Y0.2165
X2.0984Y0.1929
X2.0984Y0.1693
X2.0984Y0.1457
X2.0984Y0.122
X2.0984Y0.0984
X2.122Y1.0472
X2.122Y1.0236
X2.122Y1.0
X2.122Y0.9764
X2.122Y0.9528
X2.122Y0.9291
X2.122Y0.9055
X2.122Y0.8819
X2.122Y0.6811
X2.122Y0.6575
X2.122Y0.6339
X2.122Y0.6102
X2.122Y0.5866
X2.122Y0.563
X2.122Y0.5394
X2.122Y0.5157
X2.122Y0.2638
X2.122Y0.2402
X2.122Y0.2165
X2.122Y0.1929
X2.122Y0.1693
X2.122Y0.1457
X2.122Y0.122
X2.122Y0.0984
X2.1457Y1.0472
X2.1457Y1.0236
X2.1457Y1.0
X2.1457Y0.9764
X2.1457Y0.9528
X2.1457Y0.9291
X2.1457Y0.9055
X2.1457Y0.8819
X2.1457Y0.6811
X2.1457Y0.6575
X2.1457Y0.6339
X2.1457Y0.6102
X2.1457Y0.5866
X2.1457Y0.563
X2.1457Y0.5394
X2.1457Y0.5157
X2.1457Y0.2638
X2.1457Y0.2402
X2.1457Y0.2165
X2.1457Y0.1929
X2.1457Y0.1693
X2.1457Y0.1457
X2.1457Y0.122
X2.1457Y0.0984
X2.2638Y1.0472
X2.2638Y1.0236
X2.2638Y1.0
X2.2638Y0.9764
X2.2638Y0.9528
X2.2638Y0.9291
X2.2638Y0.9055
X2.2638Y0.8819
X2.2638Y0.6811
X2.2638Y0.6575
X2.2638Y0.6339
X2.2638Y0.6102
X2.2638Y0.5866
X2.2638Y0.563
X2.2638Y0.5394
X2.2638Y0.5157
X2.2638Y0.2638
X2.2638Y0.2402
X2.2638Y0.2165
X2.2638Y0.1929
X2.2638Y0.1693
X2.2638Y0.1457
X2.2638Y0.122
X2.2638Y0.0984
X2.2874Y1.0472
X2.2874Y1.0236
X2.2874Y1.0
X2.2874Y0.9764
X2.2874Y0.9528
X2.2874Y0.9291
X2.2874Y0.9055
X2.2874Y0.8819
X2.2874Y0.6811
X2.2874Y0.6575
X2.2874Y0.6339
X2.2874Y0.6102
X2.2874Y0.5866
X2.2874Y0.563
X2.2874Y0.5394
X2.2874Y0.5157
X2.2874Y0.2638
X2.2874Y0.2402
X2.2874Y0.2165
X2.2874Y0.1929
X2.2874Y0.1693
X2.2874Y0.1457
X2.2874Y0.122
X2.2874Y0.0984
X2.311Y1.0472
X2.311Y1.0236
X2.311Y1.0
X2.311Y0.9764
X2.311Y0.9528
X2.311Y0.9291
X2.311Y0.9055
X2.311Y0.8819
X2.311Y0.6811
X2.311Y0.6575
X2.311Y0.6339
X2.311Y0.6102
X2.311Y0.5866
X2.311Y0.563
X2.311Y0.5394
X2.311Y0.5157
X2.311Y0.2638
X2.311Y0.2402
X2.311Y0.2165
X2.311Y0.1929
X2.311Y0.1693
X2.311Y0.1457
X2.311Y0.122
X2.311Y0.0984
X2.3346Y1.0472
X2.3346Y1.0236
X2.3346Y1.0
X2.3346Y0.9764
X2.3346Y0.9528
X2.3346Y0.9291
X2.3346Y0.9055
X2.3346Y0.8819
X2.3346Y0.6811
X2.3346Y0.6575
X2.3346Y0.6339
X2.3346Y0.6102
X2.3346Y0.5866
X2.3346Y0.563
X2.3346Y0.5394
X2.3346Y0.5157
X2.3348Y0.264
X2.3348Y0.2404
X2.3348Y0.2167
X2.3348Y0.1931
X2.3348Y0.1695
X2.3348Y0.1459
X2.3348Y0.1222
X2.3348Y0.0986
X2.3583Y1.0472
X2.3583Y1.0236
X2.3583Y1.0
X2.3583Y0.9764
X2.3583Y0.9528
X2.3583Y0.9291
X2.3583Y0.9055
X2.3583Y0.8819
X2.3583Y0.6811
X2.3583Y0.6575
X2.3583Y0.6339
X2.3583Y0.6102
X2.3583Y0.5866
X2.3583Y0.563
X2.3583Y0.5394
X2.3583Y0.5157
X2.3583Y0.2638
X2.3583Y0.2402
X2.3583Y0.2165
X2.3583Y0.1929
X2.3583Y0.1693
X2.3583Y0.1457
X2.3583Y0.122
X2.3583Y0.0984
X2.3819Y1.0472
X2.3819Y1.0236
X2.3819Y1.0
X2.3819Y0.9764
X2.3819Y0.9528
X2.3819Y0.9291
X2.3819Y0.9055
X2.3819Y0.8819
X2.3819Y0.6811
X2.3819Y0.6575
X2.3819Y0.6339
X2.3819Y0.6102
X2.3819Y0.5866
X2.3819Y0.563
X2.3819Y0.5394
X2.3819Y0.5157
X2.3819Y0.2638
X2.3819Y0.2402
X2.3819Y0.2165
X2.3819Y0.1929
X2.3819Y0.1693
X2.3819Y0.1457
X2.3819Y0.122
X2.3819Y0.0984
X2.4055Y1.0472
X2.4055Y1.0236
X2.4055Y1.0
X2.4055Y0.9764
X2.4055Y0.9528
X2.4055Y0.9291
X2.4055Y0.9055
X2.4055Y0.8819
X2.4055Y0.6811
X2.4055Y0.6575
X2.4055Y0.6339
X2.4055Y0.6102
X2.4055Y0.5866
X2.4055Y0.563
X2.4055Y0.5394
X2.4055Y0.5157
X2.4055Y0.2638
X2.4055Y0.2402
X2.4055Y0.2165
X2.4055Y0.1929
X2.4055Y0.1693
X2.4055Y0.1457
X2.4055Y0.122
X2.4055Y0.0984
X2.4291Y1.0472
X2.4291Y1.0236
X2.4291Y1.0
X2.4291Y0.9764
X2.4291Y0.9528
X2.4291Y0.9291
X2.4291Y0.9055
X2.4291Y0.8819
X2.4291Y0.6811
X2.4291Y0.6575
X2.4291Y0.6339
X2.4291Y0.6102
X2.4291Y0.5866
X2.4291Y0.563
X2.4291Y0.5394
X2.4291Y0.5157
X2.4293Y0.264
X2.4293Y0.2404
X2.4293Y0.2167
X2.4293Y0.1931
X2.4293Y0.1695
X2.4293Y0.1459
X2.4293Y0.1222
X2.4293Y0.0986
T2
X0.1575Y0.4823
X0.187Y0.3445
X0.4232Y0.7972
X0.6103Y0.6003
X0.6614Y0.185
X1.0039Y1.1417
X1.0138Y0.0394
X1.0551Y1.1063
X1.0925Y0.2756
X1.1882Y0.6228
X1.2205Y0.128
X1.3228Y1.0984
X1.3622Y1.0984
X1.4094Y1.0984
X1.4272Y0.1969
X1.437Y0.7972
X1.5157Y0.374
X1.5433Y0.7722
X1.5551Y0.3248
X1.5827Y0.8465
X1.624Y0.6693
X1.6242Y0.1189
X1.6535Y1.1142
X1.6732Y0.3937
X1.6831Y0.2756
X1.689Y0.4528
X1.8189Y1.1044
X2.4472Y0.3717
X2.4716Y0.7697
X2.4813Y1.1044
X2.4921Y0.3701
X2.5118Y0.7717
X2.515Y1.1319
X2.5512Y0.7717
X2.5512Y0.3701
X2.5591Y1.1457
T4
X0.3238Y0.7217
X0.4026Y0.7217
T5
X0.9454Y0.8031
X1.0438Y0.8031
X1.1422Y0.8031
X1.2406Y0.8031
X1.3391Y0.8031
T6
X3.0069Y0.8366
X3.0069Y0.3248
T7
X0.4518Y0.5701
X0.4518Y0.3733
X2.81Y0.7185
X2.81Y0.5807
X2.81Y0.4429
T8
X0.1171Y1.062
X0.1171Y0.1171
X2.9331Y1.062
X2.9331Y0.1171
T3
G00X0.4321Y1.0907
M15
G01X0.4321Y1.0671
M16
G05
G00X0.4321Y0.936
M15
G01X0.4321Y0.8927
M16
G05
G00X0.7722Y1.0907
M15
G01X0.7722Y1.0671
M16
G05
G00X0.7722Y0.936
M15
G01X0.7722Y0.8927
M16
G05
T0
M30
