%TF.GenerationSoftware,KiCad,Pcbnew,(7.0.0)*%
%TF.CreationDate,2023-06-11T18:09:49+09:00*%
%TF.ProjectId,rMDU,724d4455-2e6b-4696-9361-645f70636258,rev?*%
%TF.SameCoordinates,Original*%
%TF.FileFunction,Copper,L4,Bot*%
%TF.FilePolarity,Positive*%
%FSLAX46Y46*%
G04 Gerber Fmt 4.6, Leading zero omitted, Abs format (unit mm)*
G04 Created by KiCad (PCBNEW (7.0.0)) date 2023-06-11 18:09:49*
%MOMM*%
%LPD*%
G01*
G04 APERTURE LIST*
G04 Aperture macros list*
%AMRoundRect*
0 Rectangle with rounded corners*
0 $1 Rounding radius*
0 $2 $3 $4 $5 $6 $7 $8 $9 X,Y pos of 4 corners*
0 Add a 4 corners polygon primitive as box body*
4,1,4,$2,$3,$4,$5,$6,$7,$8,$9,$2,$3,0*
0 Add four circle primitives for the rounded corners*
1,1,$1+$1,$2,$3*
1,1,$1+$1,$4,$5*
1,1,$1+$1,$6,$7*
1,1,$1+$1,$8,$9*
0 Add four rect primitives between the rounded corners*
20,1,$1+$1,$2,$3,$4,$5,0*
20,1,$1+$1,$4,$5,$6,$7,0*
20,1,$1+$1,$6,$7,$8,$9,0*
20,1,$1+$1,$8,$9,$2,$3,0*%
G04 Aperture macros list end*
%TA.AperFunction,ComponentPad*%
%ADD10C,5.500000*%
%TD*%
%TA.AperFunction,SMDPad,CuDef*%
%ADD11RoundRect,0.250000X-0.350000X0.850000X-0.350000X-0.850000X0.350000X-0.850000X0.350000X0.850000X0*%
%TD*%
%TA.AperFunction,SMDPad,CuDef*%
%ADD12RoundRect,0.250000X-1.125000X1.275000X-1.125000X-1.275000X1.125000X-1.275000X1.125000X1.275000X0*%
%TD*%
%TA.AperFunction,SMDPad,CuDef*%
%ADD13RoundRect,0.249997X-2.650003X2.950003X-2.650003X-2.950003X2.650003X-2.950003X2.650003X2.950003X0*%
%TD*%
%TA.AperFunction,ComponentPad*%
%ADD14RoundRect,0.250000X-0.600000X-0.725000X0.600000X-0.725000X0.600000X0.725000X-0.600000X0.725000X0*%
%TD*%
%TA.AperFunction,ComponentPad*%
%ADD15O,1.700000X1.950000*%
%TD*%
%TA.AperFunction,SMDPad,CuDef*%
%ADD16RoundRect,0.150000X-0.150000X-0.625000X0.150000X-0.625000X0.150000X0.625000X-0.150000X0.625000X0*%
%TD*%
%TA.AperFunction,SMDPad,CuDef*%
%ADD17RoundRect,0.250000X-0.350000X-0.650000X0.350000X-0.650000X0.350000X0.650000X-0.350000X0.650000X0*%
%TD*%
%TA.AperFunction,ComponentPad*%
%ADD18C,1.400000*%
%TD*%
%TA.AperFunction,ComponentPad*%
%ADD19R,3.000000X3.000000*%
%TD*%
%TA.AperFunction,ComponentPad*%
%ADD20C,3.000000*%
%TD*%
%TA.AperFunction,SMDPad,CuDef*%
%ADD21R,0.300000X1.150000*%
%TD*%
%TA.AperFunction,ComponentPad*%
%ADD22O,1.000000X1.600000*%
%TD*%
%TA.AperFunction,ComponentPad*%
%ADD23O,1.000000X2.100000*%
%TD*%
%TA.AperFunction,SMDPad,CuDef*%
%ADD24RoundRect,0.250000X-1.000000X1.750000X-1.000000X-1.750000X1.000000X-1.750000X1.000000X1.750000X0*%
%TD*%
%TA.AperFunction,SMDPad,CuDef*%
%ADD25R,5.580000X7.620000*%
%TD*%
%TA.AperFunction,ComponentPad*%
%ADD26C,2.400000*%
%TD*%
%TA.AperFunction,ComponentPad*%
%ADD27C,1.200000*%
%TD*%
%TA.AperFunction,ViaPad*%
%ADD28C,0.800000*%
%TD*%
%TA.AperFunction,ViaPad*%
%ADD29C,0.600000*%
%TD*%
%TA.AperFunction,Conductor*%
%ADD30C,0.500000*%
%TD*%
%TA.AperFunction,Conductor*%
%ADD31C,1.000000*%
%TD*%
%TA.AperFunction,Conductor*%
%ADD32C,0.250000*%
%TD*%
G04 APERTURE END LIST*
D10*
%TO.P,H2,1,1*%
%TO.N,GND*%
X2974874Y26974874D03*
%TD*%
%TO.P,H1,1,1*%
%TO.N,GND*%
X74500000Y2974874D03*
%TD*%
%TO.P,H4,1,1*%
%TO.N,GND*%
X74500000Y26974874D03*
%TD*%
%TO.P,H3,1,1*%
%TO.N,GND*%
X2974874Y2974874D03*
%TD*%
D11*
%TO.P,U1,1,IN*%
%TO.N,+BATT*%
X36250000Y9750000D03*
D12*
%TO.P,U1,2,GND*%
%TO.N,GND*%
X40055000Y5125000D03*
X37005000Y5125000D03*
D13*
X38530000Y3450000D03*
D12*
X40055000Y1775000D03*
X37005000Y1775000D03*
D11*
%TO.P,U1,3,OUT*%
%TO.N,+9V*%
X40810000Y9750000D03*
%TD*%
D14*
%TO.P,ENC1,1,Pin_1*%
%TO.N,/MCU/PB5*%
X24012374Y20399874D03*
D15*
%TO.P,ENC1,2,Pin_2*%
%TO.N,Net-(ENC1-Pin_2)*%
X26512373Y20399873D03*
%TO.P,ENC1,3,Pin_3*%
%TO.N,/MCU/PB4*%
X29012373Y20399873D03*
%TO.P,ENC1,4,Pin_4*%
%TO.N,/MCU/PB3*%
X31512373Y20399873D03*
%TO.P,ENC1,5,Pin_5*%
%TO.N,GND*%
X34012373Y20399873D03*
%TD*%
D16*
%TO.P,J1,1,Pin_1*%
%TO.N,/MCU/SWCLK*%
X39700000Y24725000D03*
%TO.P,J1,2,Pin_2*%
%TO.N,GND*%
X40700000Y24725000D03*
%TO.P,J1,3,Pin_3*%
%TO.N,/MCU/SWDIO*%
X41700000Y24725000D03*
%TO.P,J1,4,Pin_4*%
%TO.N,/MCU/NRST*%
X42700000Y24725000D03*
D17*
%TO.P,J1,MP*%
%TO.N,N/C*%
X38400000Y28600000D03*
X44000000Y28600000D03*
%TD*%
D18*
%TO.P,OUT1,*%
%TO.N,*%
X76375000Y8250000D03*
X76375000Y21250000D03*
D19*
%TO.P,OUT1,1,Pin_1*%
%TO.N,/BRIDGE/OUT*%
X71374999Y18249999D03*
D20*
%TO.P,OUT1,2,Pin_2*%
%TO.N,/BRIDGE1/OUT*%
X71375000Y14750000D03*
%TO.P,OUT1,3,Pin_3*%
%TO.N,/BRIDGE2/OUT*%
X71375000Y11250000D03*
%TD*%
D21*
%TO.P,J2,A1,GND*%
%TO.N,GND*%
X11944873Y22659873D03*
%TO.P,J2,A4,VBUS*%
%TO.N,Net-(D3-A)*%
X12744873Y22659873D03*
%TO.P,J2,A5,CC1*%
%TO.N,Net-(J2-CC1)*%
X14044873Y22659873D03*
%TO.P,J2,A6,D+*%
%TO.N,Net-(U12-UD+)*%
X15044873Y22659873D03*
%TO.P,J2,A7,D-*%
%TO.N,Net-(U12-UD-)*%
X15544873Y22659873D03*
%TO.P,J2,A8,SBU1*%
%TO.N,unconnected-(J2-SBU1-PadA8)*%
X16544873Y22659873D03*
%TO.P,J2,A9,VBUS*%
%TO.N,Net-(D3-A)*%
X17844873Y22659873D03*
%TO.P,J2,A12,GND*%
%TO.N,GND*%
X18644873Y22659873D03*
%TO.P,J2,B1,GND*%
X18344873Y22659873D03*
%TO.P,J2,B4,VBUS*%
%TO.N,Net-(D3-A)*%
X17544873Y22659873D03*
%TO.P,J2,B5,CC2*%
%TO.N,Net-(J2-CC2)*%
X17044873Y22659873D03*
%TO.P,J2,B6,D+*%
%TO.N,Net-(U12-UD+)*%
X16044873Y22659873D03*
%TO.P,J2,B7,D-*%
%TO.N,Net-(U12-UD-)*%
X14544873Y22659873D03*
%TO.P,J2,B8,SBU2*%
%TO.N,unconnected-(J2-SBU2-PadB8)*%
X13544873Y22659873D03*
%TO.P,J2,B9,VBUS*%
%TO.N,Net-(D3-A)*%
X13044873Y22659873D03*
%TO.P,J2,B12,GND*%
%TO.N,GND*%
X12244873Y22659873D03*
D22*
%TO.P,J2,S1,SHIELD*%
X10974873Y27404873D03*
D23*
X10974873Y23224873D03*
D22*
X19614873Y27404873D03*
D23*
X19614873Y23224873D03*
%TD*%
D24*
%TO.P,C9,1*%
%TO.N,+BATT*%
X18500000Y10500000D03*
%TO.P,C9,2*%
%TO.N,GND*%
X18500000Y2500000D03*
%TD*%
D25*
%TO.P,TP1,1,1*%
%TO.N,+BATT*%
X46744499Y20799999D03*
%TD*%
D26*
%TO.P,IN1,1,+*%
%TO.N,+BATT*%
X11474874Y9481124D03*
%TO.P,IN1,2,-*%
%TO.N,GND*%
X11474874Y14481124D03*
D27*
%TO.P,IN1,3,S1*%
%TO.N,/CAN/CAN-H*%
X8224874Y18331124D03*
%TO.P,IN1,4,S2*%
%TO.N,/CAN/CAN-L*%
X10224874Y18331124D03*
%TD*%
D24*
%TO.P,C8,1*%
%TO.N,+BATT*%
X29500000Y10500000D03*
%TO.P,C8,2*%
%TO.N,GND*%
X29500000Y2500000D03*
%TD*%
D28*
%TO.N,GND*%
X36250000Y5000000D03*
D29*
X17400000Y15700000D03*
D28*
X25750000Y1000000D03*
X4750000Y8750000D03*
X16800000Y4700000D03*
X4000000Y12250000D03*
X34600000Y27900000D03*
X42500000Y10000000D03*
X35800000Y27900000D03*
X42900000Y11500000D03*
X31000000Y3250000D03*
X39200000Y19612962D03*
X41255923Y3019533D03*
X33600000Y27900000D03*
X26800000Y28100000D03*
X40200000Y21500000D03*
%TO.N,+3.3V*%
X15502507Y15248546D03*
X64800000Y19600000D03*
X64800000Y9400000D03*
X30181538Y15818462D03*
X65000000Y29100000D03*
X25500000Y29000000D03*
X36500000Y20249874D03*
X10750000Y20250000D03*
D29*
%TO.N,/BRIDGE/OUT*%
X61100000Y26000000D03*
X58700000Y25400000D03*
X58700000Y26000000D03*
X61700000Y26000000D03*
X60500000Y26600000D03*
X59900000Y26600000D03*
X58100000Y25400000D03*
X58700000Y26600000D03*
X61700000Y23600000D03*
X57500000Y26000000D03*
X59300000Y23600000D03*
X61700000Y22400000D03*
X61700000Y25400000D03*
X61700000Y23000000D03*
X57500000Y25400000D03*
X59300000Y24200000D03*
X58100000Y26600000D03*
X58100000Y23000000D03*
X59300000Y22400000D03*
X61700000Y24800000D03*
X61100000Y24800000D03*
X58100000Y23600000D03*
X60500000Y24200000D03*
X60500000Y23000000D03*
X60500000Y22400000D03*
X58100000Y24800000D03*
X57500000Y24200000D03*
X61100000Y24200000D03*
X59300000Y26600000D03*
X61100000Y22400000D03*
X59300000Y26000000D03*
X61100000Y23000000D03*
X61700000Y26600000D03*
X57500000Y23600000D03*
X58700000Y24200000D03*
X61100000Y23600000D03*
X58100000Y22400000D03*
X59900000Y24200000D03*
X59900000Y25400000D03*
X61700000Y24200000D03*
X57500000Y22400000D03*
X60500000Y25400000D03*
X59300000Y25400000D03*
X59900000Y22400000D03*
X58700000Y22400000D03*
X60500000Y26000000D03*
X59300000Y23000000D03*
X58700000Y24800000D03*
X60500000Y23600000D03*
X57500000Y24800000D03*
X58100000Y26000000D03*
X59900000Y26000000D03*
X61100000Y25400000D03*
X58100000Y24200000D03*
X58700000Y23000000D03*
X59900000Y24800000D03*
X59900000Y23600000D03*
X60500000Y24800000D03*
X58700000Y23600000D03*
X57500000Y23000000D03*
X59300000Y24800000D03*
X59900000Y23000000D03*
X57500000Y26600000D03*
X61100000Y26600000D03*
D28*
%TO.N,+9V*%
X39500000Y8250000D03*
D29*
%TO.N,+BATT*%
X51500000Y4300000D03*
X50900000Y17300000D03*
X52700000Y24800000D03*
X50300000Y24200000D03*
X52100000Y24800000D03*
X53900000Y13100000D03*
X50300000Y26000000D03*
X53300000Y26600000D03*
X53300000Y23600000D03*
X53900000Y16700000D03*
X52100000Y23600000D03*
X53900000Y14900000D03*
X53900000Y16100000D03*
X53300000Y16700000D03*
X53900000Y23000000D03*
X54500000Y23600000D03*
X50900000Y23000000D03*
X53900000Y15500000D03*
X52700000Y13700000D03*
X51500000Y24800000D03*
X50900000Y4900000D03*
X50300000Y13100000D03*
X53300000Y14300000D03*
X51500000Y6100000D03*
X51500000Y26600000D03*
X52100000Y14300000D03*
D28*
X38500000Y9500000D03*
D29*
X52700000Y17300000D03*
X52700000Y6100000D03*
X52700000Y5500000D03*
X54500000Y6700000D03*
X51500000Y22400000D03*
X53900000Y26000000D03*
X53900000Y5500000D03*
X54500000Y23000000D03*
X53300000Y25400000D03*
X52700000Y26000000D03*
X52100000Y13100000D03*
X54500000Y15500000D03*
X53900000Y13700000D03*
X53900000Y24800000D03*
X50900000Y24200000D03*
X50300000Y24800000D03*
X52100000Y16700000D03*
X53300000Y5500000D03*
X54500000Y14900000D03*
X53300000Y4900000D03*
X52700000Y14300000D03*
X51500000Y14900000D03*
X54500000Y13100000D03*
X51500000Y24200000D03*
X50300000Y15500000D03*
X50900000Y4300000D03*
X52700000Y14900000D03*
X53900000Y6100000D03*
X51500000Y16700000D03*
X53900000Y26600000D03*
X51500000Y17300000D03*
X53300000Y6100000D03*
X53300000Y23000000D03*
X52700000Y3100000D03*
X52100000Y3700000D03*
X50300000Y17300000D03*
X54500000Y4900000D03*
X51500000Y13700000D03*
X53300000Y22400000D03*
X54500000Y24800000D03*
X50900000Y6700000D03*
X50900000Y16100000D03*
X50300000Y5500000D03*
X50300000Y6100000D03*
X52100000Y26600000D03*
X53300000Y24800000D03*
X53900000Y24200000D03*
X50300000Y14900000D03*
X51500000Y23000000D03*
X52100000Y16100000D03*
X50900000Y3100000D03*
X54500000Y24200000D03*
X53900000Y2500000D03*
X51500000Y5500000D03*
X51500000Y16100000D03*
X53900000Y17300000D03*
X52100000Y23000000D03*
X54500000Y16700000D03*
X52700000Y16700000D03*
X50900000Y25400000D03*
X52100000Y5500000D03*
X50900000Y24800000D03*
X54500000Y5500000D03*
X50300000Y3100000D03*
X52100000Y26000000D03*
X50900000Y5500000D03*
X52700000Y13100000D03*
X52100000Y3100000D03*
X53300000Y17300000D03*
X50300000Y22400000D03*
X52100000Y22400000D03*
X52700000Y23000000D03*
X53900000Y4900000D03*
X53300000Y15500000D03*
X52100000Y14900000D03*
X52100000Y15500000D03*
X51500000Y4900000D03*
X51500000Y3700000D03*
X50900000Y6100000D03*
X54500000Y22400000D03*
X50300000Y23600000D03*
X50900000Y14900000D03*
X50900000Y13700000D03*
X51500000Y13100000D03*
X51500000Y3100000D03*
X53900000Y14300000D03*
X52100000Y6100000D03*
X53900000Y23600000D03*
X54500000Y26000000D03*
X53300000Y24200000D03*
X50300000Y3700000D03*
X54500000Y2500000D03*
X53300000Y13700000D03*
X51500000Y2500000D03*
X52700000Y16100000D03*
X50300000Y6700000D03*
X50900000Y23600000D03*
X50900000Y2500000D03*
X53900000Y25400000D03*
X50300000Y26600000D03*
X52100000Y4300000D03*
X51500000Y14300000D03*
X52700000Y4900000D03*
X52100000Y13700000D03*
X54500000Y14300000D03*
X53300000Y2500000D03*
X51500000Y6700000D03*
X50900000Y22400000D03*
X50300000Y16100000D03*
X50300000Y23000000D03*
X52700000Y24200000D03*
X52700000Y4300000D03*
X54500000Y3100000D03*
X52100000Y24200000D03*
X50300000Y2500000D03*
X53300000Y3100000D03*
X52700000Y22400000D03*
X54500000Y26600000D03*
X54500000Y4300000D03*
X52100000Y4900000D03*
X51500000Y25400000D03*
X52700000Y6700000D03*
D28*
X27750000Y7000000D03*
D29*
X53900000Y3100000D03*
X53900000Y6700000D03*
X54500000Y25400000D03*
X52100000Y17300000D03*
X53300000Y4300000D03*
X54500000Y6100000D03*
X51500000Y26000000D03*
X52700000Y26600000D03*
X53300000Y6700000D03*
X52700000Y15500000D03*
X50900000Y26000000D03*
X53300000Y14900000D03*
X50900000Y3700000D03*
X51500000Y23600000D03*
X50300000Y4900000D03*
X50900000Y13100000D03*
X53900000Y3700000D03*
X50300000Y13700000D03*
X50900000Y16700000D03*
X50300000Y25400000D03*
X53900000Y22400000D03*
X54500000Y17300000D03*
X54500000Y3700000D03*
X53300000Y3700000D03*
X50900000Y14300000D03*
X51500000Y15500000D03*
X53300000Y26000000D03*
X50300000Y4300000D03*
X52100000Y6700000D03*
X50300000Y14300000D03*
X54500000Y16100000D03*
X52700000Y2500000D03*
X52700000Y23600000D03*
X52100000Y25400000D03*
X52700000Y3700000D03*
X52700000Y25400000D03*
X50300000Y16700000D03*
X53300000Y13100000D03*
X50900000Y26600000D03*
X54500000Y13700000D03*
X52100000Y2500000D03*
X50900000Y15500000D03*
X53300000Y16100000D03*
X53900000Y4300000D03*
%TO.N,/BRIDGE1/OUT*%
X58700000Y16100000D03*
X58700000Y17300000D03*
X58700000Y14300000D03*
X58100000Y17300000D03*
X61700000Y17300000D03*
X59900000Y17300000D03*
X57500000Y17300000D03*
X61700000Y13700000D03*
X57500000Y14300000D03*
X61100000Y13100000D03*
X60500000Y17300000D03*
X61100000Y14300000D03*
X58100000Y13100000D03*
X59300000Y15500000D03*
X61700000Y16100000D03*
X57500000Y15500000D03*
X57500000Y14900000D03*
X61100000Y15500000D03*
X57500000Y16100000D03*
X60500000Y13700000D03*
X61700000Y16700000D03*
X58700000Y16700000D03*
X59300000Y13100000D03*
X59900000Y13700000D03*
X61700000Y14300000D03*
X61700000Y13100000D03*
X58700000Y14900000D03*
X58100000Y14300000D03*
X61100000Y16100000D03*
X59300000Y16100000D03*
X59900000Y16100000D03*
X61100000Y17300000D03*
X59900000Y15500000D03*
X59900000Y14300000D03*
X61100000Y13700000D03*
X58700000Y13700000D03*
X61100000Y14900000D03*
X58100000Y16100000D03*
X58100000Y16700000D03*
X59900000Y14900000D03*
X57500000Y13700000D03*
X60500000Y16100000D03*
X59300000Y13700000D03*
X60500000Y16700000D03*
X61100000Y16700000D03*
X57500000Y13100000D03*
X58700000Y15500000D03*
X61700000Y14900000D03*
X61700000Y15500000D03*
X58700000Y13100000D03*
X59300000Y14900000D03*
X59300000Y16700000D03*
X58100000Y15500000D03*
X59300000Y17300000D03*
X60500000Y15500000D03*
X59900000Y16700000D03*
X59900000Y13100000D03*
X58100000Y14900000D03*
X60500000Y13100000D03*
X59300000Y14300000D03*
X60500000Y14900000D03*
X60500000Y14300000D03*
X57500000Y16700000D03*
X58100000Y13700000D03*
%TO.N,/BRIDGE2/OUT*%
X59900000Y2500000D03*
X58700000Y4300000D03*
X61100000Y6700000D03*
X59304328Y3704932D03*
X57500000Y6100000D03*
X58100000Y6700000D03*
X57500000Y5500000D03*
X57500000Y2500000D03*
X58100000Y3100000D03*
X58700000Y2500000D03*
X60500000Y4900000D03*
X59304328Y6704932D03*
X60500000Y5500000D03*
X59900000Y3700000D03*
X58700000Y3100000D03*
X58100000Y2500000D03*
X61704328Y6104932D03*
X61704328Y2504932D03*
X60500000Y6100000D03*
X58700000Y3700000D03*
X61100000Y2500000D03*
X59304328Y4904932D03*
X60500000Y6700000D03*
X59900000Y4900000D03*
X61100000Y5500000D03*
X59900000Y4300000D03*
X60500000Y4300000D03*
X61704328Y6704932D03*
X61704328Y4904932D03*
X58100000Y4300000D03*
X58100000Y4900000D03*
X58700000Y5500000D03*
X60500000Y3700000D03*
X61100000Y3100000D03*
X57500000Y4300000D03*
X57500000Y3700000D03*
X61100000Y4300000D03*
X61100000Y6100000D03*
X57500000Y6700000D03*
X58700000Y4900000D03*
X61704328Y4304932D03*
X61704328Y3704932D03*
X61704328Y5504932D03*
X61704328Y3104932D03*
X61100000Y4900000D03*
X58100000Y6100000D03*
X60500000Y2500000D03*
X59304328Y2504932D03*
X59900000Y5500000D03*
X58100000Y5500000D03*
X61100000Y3700000D03*
X58100000Y3700000D03*
X60500000Y3100000D03*
X59900000Y6100000D03*
X57500000Y3100000D03*
X59304328Y5504932D03*
X59900000Y6700000D03*
X58700000Y6100000D03*
X59304328Y3104932D03*
X57500000Y4900000D03*
X58700000Y6700000D03*
X59304328Y6104932D03*
X59304328Y4304932D03*
X59900000Y3100000D03*
%TO.N,+5V*%
X8200000Y7500000D03*
X19133620Y17633620D03*
%TO.N,/MCU/NRST*%
X26800000Y11292747D03*
X37749502Y21175500D03*
D28*
%TO.N,Net-(Q2-G)*%
X46200000Y28051000D03*
X42000000Y28300000D03*
X63025613Y28050500D03*
%TO.N,Net-(Q4-G)*%
X62778530Y19550500D03*
X41250000Y17000000D03*
%TO.N,Net-(Q6-G)*%
X42750969Y7000000D03*
X62159500Y9440312D03*
D29*
%TO.N,Net-(D3-A)*%
X17600000Y20200000D03*
%TO.N,Net-(J2-CC1)*%
X13684874Y21224874D03*
%TO.N,Net-(J2-CC2)*%
X16943349Y20972049D03*
%TO.N,Net-(U12-UD+)*%
X16184874Y21224874D03*
%TO.N,Net-(U12-UD-)*%
X15385371Y21224874D03*
%TO.N,/MCU/SWCLK*%
X24000000Y17725500D03*
%TO.N,/MCU/SWDIO*%
X26200000Y17925500D03*
%TO.N,/CAN/CAN_RX*%
X14724500Y15700000D03*
X23166472Y15812305D03*
%TO.N,/CAN/CAN_TX*%
X14000000Y16200000D03*
X23800000Y16300000D03*
%TO.N,Net-(R7-Pad1)*%
X34050500Y12000000D03*
D28*
X63881728Y28750500D03*
%TO.N,Net-(R12-Pad1)*%
X63800497Y19600000D03*
D29*
X34850003Y12000000D03*
D28*
%TO.N,Net-(R17-Pad1)*%
X63300000Y9400000D03*
D29*
X35649007Y12028225D03*
%TD*%
D30*
%TO.N,GND*%
X18644874Y22659874D02*
X19049874Y22659874D01*
X19049874Y22659874D02*
X19614874Y23224874D01*
X11944874Y22659874D02*
X11539874Y22659874D01*
X11539874Y22659874D02*
X10974874Y23224874D01*
D31*
%TO.N,+9V*%
X39500000Y8250000D02*
X39500000Y8440000D01*
X39500000Y8440000D02*
X40810000Y9750000D01*
D32*
%TO.N,/MCU/NRST*%
X37948292Y21175500D02*
X39947792Y23175000D01*
X41596751Y23175000D02*
X42700000Y24278249D01*
X42700000Y24278249D02*
X42700000Y24725000D01*
X39947792Y23175000D02*
X41596751Y23175000D01*
X37749502Y21175500D02*
X37948292Y21175500D01*
%TO.N,Net-(D3-A)*%
X13044874Y22959874D02*
X12744874Y22659874D01*
X17600000Y20200000D02*
X17600000Y22604748D01*
X17844874Y22659874D02*
X17844874Y23074925D01*
X17844874Y23074925D02*
X16909925Y24009874D01*
X13634874Y24009874D02*
X13044874Y23419874D01*
X13044874Y23419874D02*
X13044874Y22959874D01*
X16909925Y24009874D02*
X13634874Y24009874D01*
X17600000Y22604748D02*
X17544874Y22659874D01*
%TO.N,Net-(J2-CC1)*%
X13684874Y21224874D02*
X14044874Y21584874D01*
X14044874Y21584874D02*
X14044874Y22659874D01*
%TO.N,Net-(J2-CC2)*%
X17044874Y21073574D02*
X17044874Y22659874D01*
X16943349Y20972049D02*
X17044874Y21073574D01*
%TO.N,Net-(U12-UD+)*%
X16044874Y22659874D02*
X16044874Y23534874D01*
X15069874Y23559874D02*
X15044874Y23534874D01*
X15044874Y23534874D02*
X15044874Y22659874D01*
X16044874Y23534874D02*
X16019874Y23559874D01*
X16044874Y22659874D02*
X16044874Y21364874D01*
X16019874Y23559874D02*
X15069874Y23559874D01*
X16044874Y21364874D02*
X16184874Y21224874D01*
%TO.N,Net-(U12-UD-)*%
X15385371Y21625371D02*
X15519874Y21759874D01*
X14569874Y21759874D02*
X14544874Y21784874D01*
X15519874Y21759874D02*
X14569874Y21759874D01*
X15544874Y21784874D02*
X15519874Y21759874D01*
X14544874Y21784874D02*
X14544874Y22659874D01*
X15544874Y22659874D02*
X15544874Y21784874D01*
X15385371Y21224874D02*
X15385371Y21625371D01*
%TO.N,/MCU/SWCLK*%
X23912179Y17725500D02*
X22387374Y19250305D01*
X39700000Y24200000D02*
X39700000Y24725000D01*
X22387374Y21549443D02*
X23087931Y22250000D01*
X24000000Y17725500D02*
X23912179Y17725500D01*
X37750000Y22250000D02*
X39700000Y24200000D01*
X23087931Y22250000D02*
X37750000Y22250000D01*
X22387374Y19250305D02*
X22387374Y21549443D01*
%TO.N,/MCU/SWDIO*%
X39761396Y23625000D02*
X41046751Y23625000D01*
X22837374Y21363047D02*
X23274327Y21800000D01*
X41046751Y23625000D02*
X41700000Y24278249D01*
X25775500Y18350000D02*
X23924075Y18350000D01*
X23274327Y21800000D02*
X37936396Y21800000D01*
X41700000Y24278249D02*
X41700000Y24725000D01*
X23924075Y18350000D02*
X22837374Y19436701D01*
X26200000Y17925500D02*
X25775500Y18350000D01*
X37936396Y21800000D02*
X39761396Y23625000D01*
X22837374Y19436701D02*
X22837374Y21363047D01*
%TO.N,/CAN/CAN_RX*%
X23166472Y15833528D02*
X22650000Y16350000D01*
X23166472Y15812305D02*
X23166472Y15833528D01*
X22650000Y16350000D02*
X15374500Y16350000D01*
X15374500Y16350000D02*
X14724500Y15700000D01*
%TO.N,/CAN/CAN_TX*%
X23800000Y16300000D02*
X23300000Y16800000D01*
X23300000Y16800000D02*
X14600000Y16800000D01*
X14600000Y16800000D02*
X14000000Y16200000D01*
%TD*%
%TA.AperFunction,Conductor*%
%TO.N,GND*%
G36*
X74496781Y29999501D02*
G01*
X74503224Y29999332D01*
X74633379Y29992510D01*
X74813908Y29982372D01*
X74826309Y29981045D01*
X74974990Y29957496D01*
X74976245Y29957291D01*
X75135324Y29930262D01*
X75146606Y29927798D01*
X75295635Y29887866D01*
X75297761Y29887275D01*
X75449174Y29843653D01*
X75459260Y29840271D01*
X75604710Y29784438D01*
X75607599Y29783286D01*
X75751768Y29723570D01*
X75760594Y29719500D01*
X75900064Y29648435D01*
X75903748Y29646479D01*
X75993848Y29596684D01*
X76039548Y29571426D01*
X76047061Y29566919D01*
X76178754Y29481396D01*
X76182947Y29478548D01*
X76309147Y29389004D01*
X76315426Y29384243D01*
X76423333Y29296861D01*
X76437567Y29285335D01*
X76442154Y29281433D01*
X76539503Y29194436D01*
X76557424Y29178421D01*
X76562478Y29173642D01*
X76673640Y29062480D01*
X76678419Y29057426D01*
X76781427Y28942160D01*
X76785333Y28937569D01*
X76884239Y28815430D01*
X76889002Y28809149D01*
X76978546Y28682949D01*
X76981409Y28678734D01*
X77066907Y28547079D01*
X77071430Y28539540D01*
X77146477Y28403750D01*
X77148433Y28400066D01*
X77219498Y28260596D01*
X77223575Y28251753D01*
X77283259Y28107663D01*
X77284462Y28104647D01*
X77340265Y27959273D01*
X77343655Y27949164D01*
X77387258Y27797815D01*
X77387879Y27795581D01*
X77427791Y27646630D01*
X77430264Y27635306D01*
X77457282Y27476285D01*
X77457507Y27474913D01*
X77481040Y27326334D01*
X77482372Y27313889D01*
X77492498Y27133579D01*
X77492523Y27133116D01*
X77499333Y27003171D01*
X77499503Y26996811D01*
X77500000Y26522791D01*
X77500000Y22122311D01*
X77484882Y22062976D01*
X77443215Y22018109D01*
X77385159Y21998650D01*
X77324869Y22009344D01*
X77277047Y22047583D01*
X77269440Y22057656D01*
X77269437Y22057659D01*
X77265981Y22062236D01*
X77261744Y22066099D01*
X77261740Y22066103D01*
X77105796Y22208264D01*
X77105797Y22208264D01*
X77101562Y22212124D01*
X77096692Y22215139D01*
X77096690Y22215141D01*
X76917275Y22326229D01*
X76917276Y22326229D01*
X76912401Y22329247D01*
X76704940Y22409618D01*
X76699302Y22410672D01*
X76491872Y22449448D01*
X76491869Y22449449D01*
X76486243Y22450500D01*
X76263757Y22450500D01*
X76258131Y22449449D01*
X76258127Y22449448D01*
X76050697Y22410672D01*
X76050694Y22410672D01*
X76045060Y22409618D01*
X76039717Y22407549D01*
X76039713Y22407547D01*
X75842941Y22331317D01*
X75842936Y22331315D01*
X75837599Y22329247D01*
X75832727Y22326231D01*
X75832724Y22326229D01*
X75653309Y22215141D01*
X75653301Y22215136D01*
X75648438Y22212124D01*
X75644207Y22208268D01*
X75644203Y22208264D01*
X75488259Y22066103D01*
X75488249Y22066093D01*
X75484019Y22062236D01*
X75480570Y22057670D01*
X75480561Y22057659D01*
X75353394Y21889262D01*
X75353387Y21889252D01*
X75349942Y21884689D01*
X75347392Y21879569D01*
X75347387Y21879560D01*
X75253325Y21690659D01*
X75253321Y21690651D01*
X75250771Y21685528D01*
X75249205Y21680025D01*
X75249201Y21680014D01*
X75207126Y21532132D01*
X75189885Y21471536D01*
X75169357Y21250000D01*
X75189885Y21028464D01*
X75191454Y21022950D01*
X75249201Y20819987D01*
X75249204Y20819979D01*
X75250771Y20814472D01*
X75253323Y20809347D01*
X75253325Y20809342D01*
X75347387Y20620441D01*
X75347389Y20620437D01*
X75349942Y20615311D01*
X75353391Y20610744D01*
X75353394Y20610739D01*
X75480561Y20442342D01*
X75480566Y20442337D01*
X75484019Y20437764D01*
X75488255Y20433903D01*
X75488259Y20433898D01*
X75540993Y20385825D01*
X75648438Y20287876D01*
X75837599Y20170753D01*
X76045060Y20090382D01*
X76263757Y20049500D01*
X76480514Y20049500D01*
X76486243Y20049500D01*
X76704940Y20090382D01*
X76912401Y20170753D01*
X77101562Y20287876D01*
X77265981Y20437764D01*
X77273107Y20447200D01*
X77277047Y20452417D01*
X77324869Y20490656D01*
X77385159Y20501350D01*
X77443215Y20481891D01*
X77484882Y20437024D01*
X77500000Y20377689D01*
X77500000Y9122311D01*
X77484882Y9062976D01*
X77443215Y9018109D01*
X77385159Y8998650D01*
X77324869Y9009344D01*
X77277047Y9047583D01*
X77269440Y9057656D01*
X77269437Y9057659D01*
X77265981Y9062236D01*
X77261744Y9066099D01*
X77261740Y9066103D01*
X77105796Y9208264D01*
X77105797Y9208264D01*
X77101562Y9212124D01*
X77096692Y9215139D01*
X77096690Y9215141D01*
X76917275Y9326229D01*
X76917276Y9326229D01*
X76912401Y9329247D01*
X76704940Y9409618D01*
X76699302Y9410672D01*
X76491872Y9449448D01*
X76491869Y9449449D01*
X76486243Y9450500D01*
X76263757Y9450500D01*
X76258131Y9449449D01*
X76258127Y9449448D01*
X76050697Y9410672D01*
X76050694Y9410672D01*
X76045060Y9409618D01*
X76039717Y9407549D01*
X76039713Y9407547D01*
X75842941Y9331317D01*
X75842936Y9331315D01*
X75837599Y9329247D01*
X75832727Y9326231D01*
X75832724Y9326229D01*
X75653309Y9215141D01*
X75653301Y9215136D01*
X75648438Y9212124D01*
X75644207Y9208268D01*
X75644203Y9208264D01*
X75488259Y9066103D01*
X75488249Y9066093D01*
X75484019Y9062236D01*
X75480570Y9057670D01*
X75480561Y9057659D01*
X75353394Y8889262D01*
X75353387Y8889252D01*
X75349942Y8884689D01*
X75347392Y8879569D01*
X75347387Y8879560D01*
X75253325Y8690659D01*
X75253321Y8690651D01*
X75250771Y8685528D01*
X75249205Y8680025D01*
X75249201Y8680014D01*
X75191454Y8477051D01*
X75189885Y8471536D01*
X75169357Y8250000D01*
X75169886Y8244291D01*
X75180493Y8129816D01*
X75189885Y8028464D01*
X75195938Y8007191D01*
X75249201Y7819987D01*
X75249204Y7819979D01*
X75250771Y7814472D01*
X75253323Y7809347D01*
X75253325Y7809342D01*
X75347387Y7620441D01*
X75347389Y7620437D01*
X75349942Y7615311D01*
X75353391Y7610744D01*
X75353394Y7610739D01*
X75480561Y7442342D01*
X75480566Y7442337D01*
X75484019Y7437764D01*
X75488255Y7433903D01*
X75488259Y7433898D01*
X75523476Y7401794D01*
X75648438Y7287876D01*
X75837599Y7170753D01*
X76045060Y7090382D01*
X76263757Y7049500D01*
X76480514Y7049500D01*
X76486243Y7049500D01*
X76704940Y7090382D01*
X76912401Y7170753D01*
X77101562Y7287876D01*
X77265981Y7437764D01*
X77272528Y7446435D01*
X77277047Y7452417D01*
X77324869Y7490656D01*
X77385159Y7501350D01*
X77443215Y7481891D01*
X77484882Y7437024D01*
X77500000Y7377689D01*
X77500000Y2642728D01*
X77498473Y2623328D01*
X77482342Y2521491D01*
X77482117Y2520121D01*
X77454790Y2359282D01*
X77452317Y2347958D01*
X77412121Y2197947D01*
X77411500Y2195714D01*
X77367449Y2042809D01*
X77364059Y2032698D01*
X77307821Y1886196D01*
X77306618Y1883182D01*
X77246353Y1737687D01*
X77242277Y1728844D01*
X77170673Y1588314D01*
X77168716Y1584628D01*
X77092913Y1447472D01*
X77088380Y1439918D01*
X77002255Y1307297D01*
X76999390Y1303077D01*
X76908952Y1175615D01*
X76904187Y1169333D01*
X76804510Y1046245D01*
X76800605Y1041656D01*
X76696599Y925272D01*
X76691820Y920217D01*
X76579783Y808180D01*
X76574728Y803401D01*
X76458344Y699395D01*
X76453755Y695490D01*
X76330667Y595813D01*
X76324385Y591048D01*
X76196923Y500610D01*
X76192703Y497745D01*
X76060082Y411620D01*
X76052528Y407087D01*
X75915372Y331284D01*
X75911686Y329327D01*
X75771156Y257723D01*
X75762313Y253647D01*
X75616818Y193382D01*
X75613804Y192179D01*
X75467302Y135941D01*
X75457191Y132551D01*
X75304286Y88500D01*
X75302053Y87879D01*
X75152042Y47683D01*
X75140718Y45210D01*
X74979879Y17883D01*
X74978509Y17658D01*
X74886462Y3078D01*
X74876670Y1527D01*
X74857272Y0D01*
X67923382Y0D01*
X67866912Y13605D01*
X67822833Y51433D01*
X67800818Y105186D01*
X67805697Y163066D01*
X67836399Y212374D01*
X68862350Y1222169D01*
X72223242Y4530135D01*
X72257029Y4566845D01*
X72272677Y4585628D01*
X72302684Y4625494D01*
X72307732Y4632940D01*
X72315853Y4643626D01*
X72499872Y4860269D01*
X72509101Y4870011D01*
X72553483Y4912052D01*
X72715434Y5065461D01*
X72725645Y5074135D01*
X72914611Y5217783D01*
X72939633Y5238095D01*
X72951573Y5248436D01*
X72975228Y5270280D01*
X73567576Y5853298D01*
X73631606Y5930221D01*
X73658996Y5970688D01*
X73706620Y6058732D01*
X73735963Y6154433D01*
X73745591Y6202340D01*
X73755500Y6301940D01*
X73755500Y12626000D01*
X73738275Y12756834D01*
X73721662Y12818834D01*
X73671163Y12940750D01*
X73590829Y13045442D01*
X73545442Y13090829D01*
X73521971Y13108839D01*
X73480937Y13164802D01*
X73476398Y13234052D01*
X73509777Y13294894D01*
X73571123Y13356239D01*
X73633986Y13432837D01*
X73660866Y13473065D01*
X73707581Y13560460D01*
X73736348Y13655291D01*
X73745787Y13702744D01*
X73755500Y13801362D01*
X73755500Y15698638D01*
X73745787Y15797256D01*
X73736348Y15844709D01*
X73707581Y15939540D01*
X73660866Y16026935D01*
X73633986Y16067163D01*
X73632060Y16069509D01*
X73632054Y16069518D01*
X73573052Y16141411D01*
X73573047Y16141416D01*
X73571123Y16143761D01*
X73344094Y16370791D01*
X73315592Y16415140D01*
X73308091Y16467322D01*
X73319827Y16507285D01*
X73318796Y16507669D01*
X73318795Y16507669D01*
X73369091Y16642517D01*
X73375500Y16702127D01*
X73375499Y16720796D01*
X73392111Y16782798D01*
X73436313Y16827000D01*
X73440750Y16828837D01*
X73545442Y16909171D01*
X73590829Y16954558D01*
X73671163Y17059250D01*
X73721662Y17181166D01*
X73738275Y17243166D01*
X73755500Y17374000D01*
X73755500Y23698638D01*
X73745787Y23797256D01*
X73736348Y23844709D01*
X73707581Y23939540D01*
X73671202Y24007598D01*
X73662295Y24024262D01*
X73662293Y24024266D01*
X73660866Y24026935D01*
X73633986Y24067163D01*
X73632060Y24069509D01*
X73632054Y24069518D01*
X73573052Y24141411D01*
X73573047Y24141416D01*
X73571123Y24143761D01*
X73157596Y24557288D01*
X73156191Y24558531D01*
X73156183Y24558539D01*
X73129006Y24582591D01*
X73111487Y24598095D01*
X73110007Y24599252D01*
X73109989Y24599267D01*
X73089463Y24615312D01*
X73087734Y24616664D01*
X73037014Y24651556D01*
X73035416Y24652518D01*
X73035409Y24652522D01*
X72963032Y24696069D01*
X72951918Y24703605D01*
X72725664Y24875600D01*
X72715431Y24884292D01*
X72509101Y25079739D01*
X72499868Y25089486D01*
X72315868Y25306106D01*
X72307742Y25316795D01*
X72151896Y25546651D01*
X72151080Y25547855D01*
X72122354Y25586180D01*
X72121426Y25587303D01*
X72121415Y25587317D01*
X72108338Y25603141D01*
X72107402Y25604274D01*
X72075173Y25639711D01*
X67926565Y29788319D01*
X67896315Y29837682D01*
X67891773Y29895398D01*
X67913928Y29948885D01*
X67957951Y29986485D01*
X68014246Y30000000D01*
X73077350Y30000000D01*
X74496781Y29999501D01*
G37*
%TD.AperFunction*%
%TA.AperFunction,Conductor*%
G36*
X25022465Y29984662D02*
G01*
X25067425Y29942442D01*
X25086483Y29883786D01*
X25074927Y29823203D01*
X25035613Y29775682D01*
X24899388Y29676710D01*
X24899381Y29676705D01*
X24894129Y29672888D01*
X24889784Y29668063D01*
X24889779Y29668058D01*
X24771813Y29537044D01*
X24771808Y29537038D01*
X24767467Y29532216D01*
X24764222Y29526596D01*
X24764218Y29526590D01*
X24676069Y29373911D01*
X24676066Y29373906D01*
X24672821Y29368284D01*
X24670815Y29362112D01*
X24670813Y29362106D01*
X24616333Y29194436D01*
X24616331Y29194427D01*
X24614326Y29188256D01*
X24613648Y29181806D01*
X24613646Y29181796D01*
X24597049Y29023870D01*
X24594540Y29000000D01*
X24595219Y28993540D01*
X24613646Y28818205D01*
X24613647Y28818197D01*
X24614326Y28811744D01*
X24616331Y28805572D01*
X24616333Y28805565D01*
X24666836Y28650135D01*
X24672821Y28631716D01*
X24676068Y28626092D01*
X24676069Y28626090D01*
X24755647Y28488256D01*
X24767467Y28467784D01*
X24771811Y28462959D01*
X24771813Y28462957D01*
X24867487Y28356701D01*
X24894129Y28327112D01*
X25047270Y28215849D01*
X25220197Y28138856D01*
X25405354Y28099500D01*
X25588143Y28099500D01*
X25594646Y28099500D01*
X25779803Y28138856D01*
X25952730Y28215849D01*
X26105871Y28327112D01*
X26232533Y28467784D01*
X26327179Y28631716D01*
X26385674Y28811744D01*
X26405460Y29000000D01*
X26385674Y29188256D01*
X26327179Y29368284D01*
X26232533Y29532216D01*
X26224636Y29540986D01*
X26110220Y29668058D01*
X26110219Y29668059D01*
X26105871Y29672888D01*
X26100613Y29676708D01*
X26100611Y29676710D01*
X25964387Y29775682D01*
X25925073Y29823203D01*
X25913517Y29883786D01*
X25932575Y29942442D01*
X25977535Y29984662D01*
X26037272Y30000000D01*
X37439270Y30000000D01*
X37495565Y29986485D01*
X37539588Y29948885D01*
X37561743Y29895398D01*
X37557201Y29837682D01*
X37526951Y29788319D01*
X37462393Y29723762D01*
X37462389Y29723758D01*
X37457288Y29718656D01*
X37453503Y29712520D01*
X37453497Y29712512D01*
X37368977Y29575481D01*
X37365186Y29569334D01*
X37362915Y29562483D01*
X37362914Y29562479D01*
X37312131Y29409226D01*
X37310001Y29402797D01*
X37309313Y29396067D01*
X37309312Y29396060D01*
X37299819Y29303141D01*
X37299818Y29303123D01*
X37299500Y29300009D01*
X37299500Y29296862D01*
X37299500Y29296861D01*
X37299500Y27903141D01*
X37299500Y27903122D01*
X37299501Y27899992D01*
X37299820Y27896860D01*
X37299821Y27896859D01*
X37309312Y27803939D01*
X37309313Y27803931D01*
X37310001Y27797203D01*
X37312129Y27790781D01*
X37312130Y27790777D01*
X37321349Y27762957D01*
X37365186Y27630666D01*
X37368977Y27624520D01*
X37453497Y27487489D01*
X37453500Y27487485D01*
X37457288Y27481344D01*
X37581344Y27357288D01*
X37587485Y27353500D01*
X37587488Y27353498D01*
X37606595Y27341713D01*
X37730666Y27265186D01*
X37897203Y27210001D01*
X37999991Y27199500D01*
X38800008Y27199501D01*
X38902797Y27210001D01*
X39069334Y27265186D01*
X39218656Y27357288D01*
X39342712Y27481344D01*
X39434814Y27630666D01*
X39489999Y27797203D01*
X39500500Y27899991D01*
X39500499Y29300008D01*
X39489999Y29402797D01*
X39434814Y29569334D01*
X39368323Y29677134D01*
X39346502Y29712512D01*
X39346500Y29712515D01*
X39342712Y29718656D01*
X39273049Y29788319D01*
X39242799Y29837682D01*
X39238257Y29895398D01*
X39260412Y29948885D01*
X39304435Y29986485D01*
X39360730Y30000000D01*
X43039270Y30000000D01*
X43095565Y29986485D01*
X43139588Y29948885D01*
X43161743Y29895398D01*
X43157201Y29837682D01*
X43126951Y29788319D01*
X43062393Y29723762D01*
X43062389Y29723758D01*
X43057288Y29718656D01*
X43053503Y29712520D01*
X43053497Y29712512D01*
X42968977Y29575481D01*
X42965186Y29569334D01*
X42962915Y29562483D01*
X42962914Y29562479D01*
X42912131Y29409226D01*
X42910001Y29402797D01*
X42909313Y29396067D01*
X42909312Y29396060D01*
X42899819Y29303141D01*
X42899818Y29303123D01*
X42899500Y29300009D01*
X42899500Y29296861D01*
X42899500Y29296860D01*
X42899500Y28969811D01*
X42885389Y28912362D01*
X42846269Y28867989D01*
X42791041Y28846789D01*
X42732277Y28853588D01*
X42683350Y28886839D01*
X42610220Y28968058D01*
X42610219Y28968059D01*
X42605871Y28972888D01*
X42600613Y28976708D01*
X42600611Y28976710D01*
X42457988Y29080331D01*
X42457987Y29080332D01*
X42452730Y29084151D01*
X42446792Y29086795D01*
X42285745Y29158499D01*
X42285740Y29158501D01*
X42279803Y29161144D01*
X42273444Y29162496D01*
X42273440Y29162497D01*
X42101008Y29199148D01*
X42101005Y29199149D01*
X42094646Y29200500D01*
X41905354Y29200500D01*
X41898995Y29199149D01*
X41898991Y29199148D01*
X41726559Y29162497D01*
X41726552Y29162495D01*
X41720197Y29161144D01*
X41714262Y29158502D01*
X41714254Y29158499D01*
X41553207Y29086795D01*
X41553202Y29086793D01*
X41547270Y29084151D01*
X41542016Y29080335D01*
X41542011Y29080331D01*
X41399388Y28976710D01*
X41399381Y28976705D01*
X41394129Y28972888D01*
X41389784Y28968063D01*
X41389779Y28968058D01*
X41271813Y28837044D01*
X41271808Y28837038D01*
X41267467Y28832216D01*
X41264222Y28826596D01*
X41264218Y28826590D01*
X41176069Y28673911D01*
X41176066Y28673906D01*
X41172821Y28668284D01*
X41170815Y28662112D01*
X41170813Y28662106D01*
X41116333Y28494436D01*
X41116331Y28494427D01*
X41114326Y28488256D01*
X41113648Y28481806D01*
X41113646Y28481796D01*
X41096988Y28323291D01*
X41094540Y28300000D01*
X41095219Y28293540D01*
X41113646Y28118205D01*
X41113647Y28118197D01*
X41114326Y28111744D01*
X41116331Y28105572D01*
X41116333Y28105565D01*
X41170813Y27937895D01*
X41172821Y27931716D01*
X41176068Y27926092D01*
X41176069Y27926090D01*
X41261769Y27777652D01*
X41267467Y27767784D01*
X41271811Y27762959D01*
X41271813Y27762957D01*
X41340451Y27686727D01*
X41394129Y27627112D01*
X41547270Y27515849D01*
X41720197Y27438856D01*
X41905354Y27399500D01*
X42088143Y27399500D01*
X42094646Y27399500D01*
X42279803Y27438856D01*
X42452730Y27515849D01*
X42605871Y27627112D01*
X42726635Y27761234D01*
X42780294Y27796136D01*
X42844212Y27799626D01*
X42901353Y27770772D01*
X42936490Y27717265D01*
X42961845Y27640746D01*
X42965186Y27630666D01*
X42968977Y27624520D01*
X43053497Y27487489D01*
X43053500Y27487485D01*
X43057288Y27481344D01*
X43181344Y27357288D01*
X43187498Y27353493D01*
X43187497Y27353493D01*
X43206595Y27341713D01*
X43242901Y27307546D01*
X43262815Y27261842D01*
X43263120Y27211988D01*
X43262774Y27210250D01*
X43261725Y27206334D01*
X43261196Y27202320D01*
X43261194Y27202307D01*
X43252146Y27133579D01*
X43244500Y27075500D01*
X43244500Y27071447D01*
X43244500Y26077936D01*
X43231424Y26022511D01*
X43194952Y25978775D01*
X43142778Y25955954D01*
X43085905Y25958860D01*
X42958657Y25995830D01*
X42958650Y25995832D01*
X42952569Y25997598D01*
X42946258Y25998095D01*
X42946251Y25998096D01*
X42918128Y26000309D01*
X42918114Y26000310D01*
X42915694Y26000500D01*
X42484306Y26000500D01*
X42481886Y26000310D01*
X42481871Y26000309D01*
X42453748Y25998096D01*
X42453739Y25998095D01*
X42447431Y25997598D01*
X42441351Y25995832D01*
X42441342Y25995830D01*
X42297094Y25953921D01*
X42297091Y25953920D01*
X42289602Y25951744D01*
X42282890Y25947775D01*
X42282884Y25947772D01*
X42263119Y25936083D01*
X42200000Y25918816D01*
X42136881Y25936083D01*
X42117115Y25947772D01*
X42117112Y25947774D01*
X42110398Y25951744D01*
X42102905Y25953921D01*
X41958657Y25995830D01*
X41958650Y25995832D01*
X41952569Y25997598D01*
X41946258Y25998095D01*
X41946251Y25998096D01*
X41918128Y26000309D01*
X41918114Y26000310D01*
X41915694Y26000500D01*
X41484306Y26000500D01*
X41481886Y26000310D01*
X41481871Y26000309D01*
X41453748Y25998096D01*
X41453739Y25998095D01*
X41447431Y25997598D01*
X41441351Y25995832D01*
X41441342Y25995830D01*
X41297094Y25953921D01*
X41297091Y25953920D01*
X41289602Y25951744D01*
X41282891Y25947776D01*
X41282886Y25947773D01*
X41154851Y25872054D01*
X41154844Y25872050D01*
X41148135Y25868081D01*
X41142620Y25862567D01*
X41142616Y25862563D01*
X41037437Y25757384D01*
X41037433Y25757380D01*
X41031919Y25751865D01*
X41027950Y25745156D01*
X41027946Y25745149D01*
X40952227Y25617114D01*
X40952224Y25617109D01*
X40948256Y25610398D01*
X40946080Y25602909D01*
X40946079Y25602906D01*
X40904170Y25458658D01*
X40904168Y25458649D01*
X40902402Y25452569D01*
X40901905Y25446261D01*
X40901904Y25446252D01*
X40899691Y25418129D01*
X40899690Y25418114D01*
X40899500Y25415694D01*
X40899500Y25413249D01*
X40899500Y24413702D01*
X40890061Y24366249D01*
X40863181Y24326021D01*
X40823979Y24286819D01*
X40783751Y24259939D01*
X40736298Y24250500D01*
X40624500Y24250500D01*
X40562500Y24267113D01*
X40517113Y24312500D01*
X40500500Y24374500D01*
X40500500Y25413249D01*
X40500500Y25415694D01*
X40497598Y25452569D01*
X40451744Y25610398D01*
X40368081Y25751865D01*
X40251865Y25868081D01*
X40245151Y25872052D01*
X40245148Y25872054D01*
X40117113Y25947773D01*
X40117111Y25947774D01*
X40110398Y25951744D01*
X40102905Y25953921D01*
X39958657Y25995830D01*
X39958650Y25995832D01*
X39952569Y25997598D01*
X39946258Y25998095D01*
X39946251Y25998096D01*
X39918128Y26000309D01*
X39918114Y26000310D01*
X39915694Y26000500D01*
X39484306Y26000500D01*
X39481886Y26000310D01*
X39481871Y26000309D01*
X39453748Y25998096D01*
X39453739Y25998095D01*
X39447431Y25997598D01*
X39441351Y25995832D01*
X39441342Y25995830D01*
X39297094Y25953921D01*
X39297091Y25953920D01*
X39289602Y25951744D01*
X39282891Y25947776D01*
X39282886Y25947773D01*
X39154851Y25872054D01*
X39154844Y25872050D01*
X39148135Y25868081D01*
X39142620Y25862567D01*
X39142616Y25862563D01*
X39037437Y25757384D01*
X39037433Y25757380D01*
X39031919Y25751865D01*
X39027950Y25745156D01*
X39027946Y25745149D01*
X38952227Y25617114D01*
X38952224Y25617109D01*
X38948256Y25610398D01*
X38946080Y25602909D01*
X38946079Y25602906D01*
X38904170Y25458658D01*
X38904168Y25458649D01*
X38902402Y25452569D01*
X38901905Y25446261D01*
X38901904Y25446252D01*
X38899691Y25418129D01*
X38899690Y25418114D01*
X38899500Y25415694D01*
X38899500Y25413249D01*
X38899500Y24335453D01*
X38890061Y24288000D01*
X38863181Y24247772D01*
X37527228Y22911819D01*
X37487000Y22884939D01*
X37439547Y22875500D01*
X23165702Y22875500D01*
X23154649Y22876021D01*
X23147263Y22877672D01*
X23139465Y22877427D01*
X23080075Y22875561D01*
X23076181Y22875500D01*
X23048581Y22875500D01*
X23044730Y22875014D01*
X23044699Y22875012D01*
X23044571Y22874995D01*
X23032960Y22874082D01*
X22997103Y22872955D01*
X22997096Y22872954D01*
X22989304Y22872709D01*
X22981819Y22870535D01*
X22981803Y22870532D01*
X22970057Y22867119D01*
X22951014Y22863175D01*
X22938880Y22861642D01*
X22938879Y22861642D01*
X22931139Y22860664D01*
X22923889Y22857795D01*
X22923882Y22857792D01*
X22890529Y22844587D01*
X22879485Y22840806D01*
X22845036Y22830797D01*
X22845026Y22830793D01*
X22837541Y22828618D01*
X22830831Y22824651D01*
X22830829Y22824649D01*
X22827436Y22822643D01*
X22820291Y22818417D01*
X22802831Y22809864D01*
X22784199Y22802486D01*
X22777896Y22797908D01*
X22777889Y22797903D01*
X22748870Y22776819D01*
X22739110Y22770408D01*
X22708225Y22752143D01*
X22708215Y22752136D01*
X22701510Y22748170D01*
X22695994Y22742655D01*
X22695991Y22742652D01*
X22687338Y22734000D01*
X22672555Y22721374D01*
X22662658Y22714183D01*
X22662651Y22714177D01*
X22656344Y22709594D01*
X22651377Y22703592D01*
X22651366Y22703580D01*
X22628501Y22675941D01*
X22620641Y22667303D01*
X22000070Y22046732D01*
X21991885Y22039284D01*
X21985497Y22035229D01*
X21980162Y22029549D01*
X21980157Y22029544D01*
X21939470Y21986218D01*
X21936766Y21983427D01*
X21920002Y21966663D01*
X21919995Y21966656D01*
X21917254Y21963914D01*
X21914874Y21960847D01*
X21914863Y21960834D01*
X21914774Y21960718D01*
X21907216Y21951873D01*
X21882654Y21925716D01*
X21882647Y21925707D01*
X21877312Y21920025D01*
X21873556Y21913194D01*
X21873553Y21913189D01*
X21867659Y21902468D01*
X21856983Y21886216D01*
X21849483Y21876547D01*
X21849475Y21876536D01*
X21844701Y21870379D01*
X21841608Y21863235D01*
X21841603Y21863224D01*
X21827348Y21830283D01*
X21822212Y21819800D01*
X21801177Y21781535D01*
X21799238Y21773987D01*
X21799237Y21773982D01*
X21796196Y21762136D01*
X21789895Y21743732D01*
X21785032Y21732495D01*
X21785030Y21732491D01*
X21781936Y21725339D01*
X21780716Y21717640D01*
X21780716Y21717638D01*
X21775103Y21682202D01*
X21772735Y21670767D01*
X21763812Y21636015D01*
X21763810Y21636007D01*
X21761874Y21628462D01*
X21761874Y21620666D01*
X21761874Y21608426D01*
X21760348Y21589041D01*
X21757214Y21569247D01*
X21757948Y21561482D01*
X21757948Y21561479D01*
X21761324Y21525767D01*
X21761874Y21514098D01*
X21761874Y19328080D01*
X21761352Y19317025D01*
X21759701Y19309638D01*
X21759945Y19301852D01*
X21759945Y19301844D01*
X21761813Y19242432D01*
X21761874Y19238537D01*
X21761874Y19210955D01*
X21762362Y19207086D01*
X21762363Y19207080D01*
X21762378Y19206962D01*
X21763292Y19195339D01*
X21764419Y19159475D01*
X21764420Y19159468D01*
X21764665Y19151678D01*
X21766841Y19144186D01*
X21766842Y19144184D01*
X21770253Y19132443D01*
X21774199Y19113390D01*
X21776710Y19093513D01*
X21779580Y19086263D01*
X21779582Y19086257D01*
X21792788Y19052901D01*
X21796571Y19041854D01*
X21808756Y18999915D01*
X21812727Y18993200D01*
X21812728Y18993198D01*
X21818955Y18982668D01*
X21827510Y18965206D01*
X21832016Y18953825D01*
X21832017Y18953822D01*
X21834888Y18946573D01*
X21842427Y18936197D01*
X21860555Y18911245D01*
X21866967Y18901483D01*
X21885230Y18870603D01*
X21885233Y18870598D01*
X21889204Y18863885D01*
X21894719Y18858370D01*
X21903364Y18849725D01*
X21916000Y18834931D01*
X21923193Y18825030D01*
X21923197Y18825026D01*
X21927780Y18818718D01*
X21933789Y18813747D01*
X21933790Y18813746D01*
X21961432Y18790879D01*
X21970073Y18783016D01*
X23115907Y17637181D01*
X23146157Y17587818D01*
X23150699Y17530102D01*
X23128544Y17476615D01*
X23084521Y17439015D01*
X23028226Y17425500D01*
X20054491Y17425500D01*
X19988519Y17444506D01*
X19942771Y17495699D01*
X19931271Y17563384D01*
X19932027Y17570088D01*
X19939185Y17633620D01*
X19918988Y17812875D01*
X19859409Y17983142D01*
X19763436Y18135882D01*
X19635882Y18263436D01*
X19483142Y18359409D01*
X19476579Y18361706D01*
X19476576Y18361707D01*
X19319444Y18416690D01*
X19319439Y18416692D01*
X19312875Y18418988D01*
X19305955Y18419768D01*
X19305954Y18419768D01*
X19140543Y18438405D01*
X19133620Y18439185D01*
X19126697Y18438405D01*
X18961285Y18419768D01*
X18961282Y18419768D01*
X18954365Y18418988D01*
X18947802Y18416692D01*
X18947795Y18416690D01*
X18790663Y18361707D01*
X18790656Y18361705D01*
X18784098Y18359409D01*
X18778210Y18355710D01*
X18778207Y18355708D01*
X18637258Y18267144D01*
X18637253Y18267141D01*
X18631358Y18263436D01*
X18626433Y18258512D01*
X18626429Y18258508D01*
X18508732Y18140811D01*
X18508728Y18140807D01*
X18503804Y18135882D01*
X18500099Y18129987D01*
X18500096Y18129982D01*
X18411532Y17989033D01*
X18411530Y17989030D01*
X18407831Y17983142D01*
X18405535Y17976584D01*
X18405533Y17976577D01*
X18350550Y17819445D01*
X18350548Y17819438D01*
X18348252Y17812875D01*
X18347472Y17805958D01*
X18347472Y17805955D01*
X18328938Y17641454D01*
X18328055Y17633620D01*
X18335213Y17570088D01*
X18335969Y17563384D01*
X18324469Y17495699D01*
X18278721Y17444506D01*
X18212749Y17425500D01*
X14677772Y17425500D01*
X14666719Y17426021D01*
X14659333Y17427672D01*
X14651535Y17427427D01*
X14592145Y17425561D01*
X14588251Y17425500D01*
X14560650Y17425500D01*
X14556799Y17425014D01*
X14556768Y17425012D01*
X14556640Y17424995D01*
X14545029Y17424082D01*
X14509172Y17422955D01*
X14509165Y17422954D01*
X14501373Y17422709D01*
X14493888Y17420535D01*
X14493872Y17420532D01*
X14482126Y17417119D01*
X14463083Y17413175D01*
X14450949Y17411642D01*
X14450948Y17411642D01*
X14443208Y17410664D01*
X14435958Y17407795D01*
X14435951Y17407792D01*
X14402598Y17394587D01*
X14391554Y17390806D01*
X14357105Y17380797D01*
X14357095Y17380793D01*
X14349610Y17378618D01*
X14342900Y17374651D01*
X14342898Y17374649D01*
X14341801Y17374000D01*
X14332360Y17368417D01*
X14314900Y17359864D01*
X14296268Y17352486D01*
X14289965Y17347908D01*
X14289958Y17347903D01*
X14260939Y17326819D01*
X14251179Y17320408D01*
X14220294Y17302143D01*
X14220284Y17302136D01*
X14213579Y17298170D01*
X14208063Y17292655D01*
X14208060Y17292652D01*
X14199407Y17284000D01*
X14184624Y17271374D01*
X14174727Y17264183D01*
X14174720Y17264177D01*
X14168413Y17259594D01*
X14163446Y17253592D01*
X14163435Y17253580D01*
X14140570Y17225941D01*
X14132710Y17217303D01*
X13941619Y17026212D01*
X13907740Y17002173D01*
X13867823Y16990673D01*
X13827666Y16986148D01*
X13827664Y16986148D01*
X13820745Y16985368D01*
X13814176Y16983070D01*
X13814174Y16983069D01*
X13657043Y16928087D01*
X13657036Y16928085D01*
X13650478Y16925789D01*
X13644590Y16922090D01*
X13644587Y16922088D01*
X13503638Y16833524D01*
X13503633Y16833521D01*
X13497738Y16829816D01*
X13492813Y16824892D01*
X13492809Y16824888D01*
X13375112Y16707191D01*
X13375108Y16707187D01*
X13370184Y16702262D01*
X13366479Y16696367D01*
X13366476Y16696362D01*
X13277912Y16555413D01*
X13277910Y16555410D01*
X13274211Y16549522D01*
X13271915Y16542964D01*
X13271913Y16542957D01*
X13216930Y16385825D01*
X13216928Y16385818D01*
X13214632Y16379255D01*
X13213852Y16372338D01*
X13213852Y16372335D01*
X13208449Y16324381D01*
X13194435Y16200000D01*
X13195215Y16193077D01*
X13209136Y16069518D01*
X13214632Y16020745D01*
X13216928Y16014181D01*
X13216930Y16014176D01*
X13245088Y15933706D01*
X13274211Y15850478D01*
X13370184Y15697738D01*
X13497738Y15570184D01*
X13650478Y15474211D01*
X13820745Y15414632D01*
X13909547Y15404627D01*
X13961636Y15386401D01*
X14000658Y15347379D01*
X14094684Y15197738D01*
X14222238Y15070184D01*
X14374978Y14974211D01*
X14545245Y14914632D01*
X14600949Y14908356D01*
X14654989Y14888878D01*
X14694453Y14847136D01*
X14769974Y14716330D01*
X14896636Y14575658D01*
X14901890Y14571841D01*
X14901891Y14571840D01*
X14903201Y14570888D01*
X14904214Y14569748D01*
X14906725Y14567487D01*
X14906472Y14567207D01*
X14938507Y14531159D01*
X14953936Y14480298D01*
X14946654Y14427650D01*
X14917999Y14382887D01*
X13076934Y12541819D01*
X13036706Y12514939D01*
X12989253Y12505500D01*
X10801362Y12505500D01*
X10798345Y12505203D01*
X10798327Y12505202D01*
X10705769Y12496085D01*
X10705767Y12496085D01*
X10702744Y12495787D01*
X10699760Y12495194D01*
X10699757Y12495193D01*
X10658289Y12486945D01*
X10658276Y12486942D01*
X10655291Y12486348D01*
X10652376Y12485464D01*
X10652365Y12485461D01*
X10566294Y12459351D01*
X10566291Y12459351D01*
X10560460Y12457581D01*
X10555095Y12454714D01*
X10555087Y12454710D01*
X10475738Y12412296D01*
X10475719Y12412285D01*
X10473065Y12410866D01*
X10470560Y12409193D01*
X10470543Y12409182D01*
X10435364Y12385675D01*
X10435357Y12385671D01*
X10432837Y12383986D01*
X10430503Y12382072D01*
X10430482Y12382055D01*
X10358589Y12323053D01*
X10358572Y12323039D01*
X10356239Y12321123D01*
X10354097Y12318982D01*
X10354087Y12318972D01*
X9181029Y11145914D01*
X9181019Y11145904D01*
X9178877Y11143761D01*
X9176961Y11141428D01*
X9176947Y11141411D01*
X9117945Y11069518D01*
X9117928Y11069497D01*
X9116014Y11067163D01*
X9114329Y11064643D01*
X9114325Y11064636D01*
X9090818Y11029457D01*
X9090807Y11029440D01*
X9089134Y11026935D01*
X9087715Y11024281D01*
X9087704Y11024262D01*
X9045290Y10944913D01*
X9045286Y10944905D01*
X9042419Y10939540D01*
X9040649Y10933709D01*
X9040649Y10933706D01*
X9014539Y10847635D01*
X9014536Y10847624D01*
X9013652Y10844709D01*
X9013058Y10841724D01*
X9013055Y10841711D01*
X9005555Y10804005D01*
X9004213Y10797256D01*
X9003915Y10794233D01*
X9003915Y10794231D01*
X8994798Y10701673D01*
X8994797Y10701655D01*
X8994500Y10698638D01*
X8994500Y10695588D01*
X8994500Y8136940D01*
X8980985Y8080645D01*
X8943385Y8036622D01*
X8889898Y8014467D01*
X8832182Y8019009D01*
X8782819Y8049259D01*
X8707190Y8124888D01*
X8707189Y8124889D01*
X8702262Y8129816D01*
X8549522Y8225789D01*
X8542959Y8228086D01*
X8542956Y8228087D01*
X8385824Y8283070D01*
X8385819Y8283072D01*
X8379255Y8285368D01*
X8372335Y8286148D01*
X8372334Y8286148D01*
X8206923Y8304785D01*
X8200000Y8305565D01*
X8193077Y8304785D01*
X8027665Y8286148D01*
X8027662Y8286148D01*
X8020745Y8285368D01*
X8014182Y8283072D01*
X8014175Y8283070D01*
X7857043Y8228087D01*
X7857036Y8228085D01*
X7850478Y8225789D01*
X7844590Y8222090D01*
X7844587Y8222088D01*
X7703638Y8133524D01*
X7703633Y8133521D01*
X7697738Y8129816D01*
X7692813Y8124892D01*
X7692809Y8124888D01*
X7575112Y8007191D01*
X7575108Y8007187D01*
X7570184Y8002262D01*
X7566479Y7996367D01*
X7566476Y7996362D01*
X7477912Y7855413D01*
X7477910Y7855410D01*
X7474211Y7849522D01*
X7471915Y7842964D01*
X7471913Y7842957D01*
X7416930Y7685825D01*
X7416928Y7685818D01*
X7414632Y7679255D01*
X7394435Y7500000D01*
X7414632Y7320745D01*
X7416928Y7314181D01*
X7416930Y7314176D01*
X7467840Y7168684D01*
X7474211Y7150478D01*
X7477912Y7144588D01*
X7548177Y7032761D01*
X7570184Y6997738D01*
X7697738Y6870184D01*
X7850478Y6774211D01*
X8020745Y6714632D01*
X8200000Y6694435D01*
X8379255Y6714632D01*
X8549522Y6774211D01*
X8702262Y6870184D01*
X8782818Y6950741D01*
X8832182Y6980991D01*
X8889898Y6985533D01*
X8943385Y6963378D01*
X8980985Y6919355D01*
X8994500Y6863060D01*
X8994500Y6551362D01*
X8994797Y6548345D01*
X8994798Y6548328D01*
X9002177Y6473411D01*
X9004213Y6452744D01*
X9013652Y6405291D01*
X9042419Y6310460D01*
X9045288Y6305092D01*
X9045290Y6305088D01*
X9087704Y6225739D01*
X9087710Y6225729D01*
X9089134Y6223065D01*
X9090813Y6220552D01*
X9090818Y6220544D01*
X9102982Y6202340D01*
X9116014Y6182837D01*
X9117936Y6180495D01*
X9117945Y6180483D01*
X9176947Y6108590D01*
X9176952Y6108584D01*
X9178877Y6106239D01*
X10356239Y4928877D01*
X10358584Y4926953D01*
X10358589Y4926948D01*
X10430482Y4867946D01*
X10430491Y4867940D01*
X10432837Y4866014D01*
X10473065Y4839134D01*
X10475734Y4837707D01*
X10475738Y4837705D01*
X10498147Y4825727D01*
X10560460Y4792419D01*
X10655291Y4763652D01*
X10702744Y4754213D01*
X10801362Y4744500D01*
X16025030Y4744500D01*
X16028272Y4744500D01*
X16133369Y4755546D01*
X16183804Y4766266D01*
X16284312Y4798923D01*
X16375834Y4851763D01*
X16417549Y4882071D01*
X16496082Y4952783D01*
X16525516Y4985474D01*
X16544772Y5002814D01*
X16590877Y5036311D01*
X16613322Y5049268D01*
X16665362Y5072437D01*
X16690014Y5080447D01*
X16745735Y5092291D01*
X16771515Y5095000D01*
X16828484Y5095000D01*
X16854264Y5092290D01*
X16909983Y5080447D01*
X16934638Y5072437D01*
X16986677Y5049268D01*
X17009129Y5036305D01*
X17055220Y5002817D01*
X17074482Y4985473D01*
X17101746Y4955194D01*
X17101757Y4955183D01*
X17103918Y4952783D01*
X17182451Y4882071D01*
X17224166Y4851763D01*
X17315688Y4798923D01*
X17416196Y4766266D01*
X17466631Y4755546D01*
X17571728Y4744500D01*
X34371947Y4744500D01*
X34376000Y4744500D01*
X34506834Y4761725D01*
X34568834Y4778338D01*
X34690750Y4828837D01*
X34795442Y4909171D01*
X34840829Y4954558D01*
X34921163Y5059250D01*
X34971662Y5181166D01*
X34988275Y5243166D01*
X35005500Y5374000D01*
X35005500Y6870500D01*
X35022113Y6932500D01*
X35067500Y6977887D01*
X35129500Y6994500D01*
X38557323Y6994500D01*
X38561355Y6994500D01*
X38691157Y7011449D01*
X38752703Y7027801D01*
X38873799Y7077512D01*
X38978070Y7156650D01*
X39023384Y7201393D01*
X39063137Y7252416D01*
X39099178Y7283721D01*
X39144377Y7299091D01*
X39192031Y7296247D01*
X39347715Y7255937D01*
X39550936Y7245631D01*
X39752071Y7276444D01*
X39792918Y7291573D01*
X39846050Y7298883D01*
X39897301Y7283070D01*
X39937081Y7247094D01*
X39937893Y7245950D01*
X39955868Y7220642D01*
X39958756Y7217565D01*
X39958761Y7217559D01*
X39970948Y7204575D01*
X40001524Y7171999D01*
X40004803Y7169343D01*
X40004808Y7169338D01*
X40056584Y7127393D01*
X40108168Y7085604D01*
X40234121Y7031080D01*
X40298374Y7013134D01*
X40434357Y6994500D01*
X41734436Y6994500D01*
X41792650Y6979986D01*
X41837237Y6939840D01*
X41857757Y6883462D01*
X41863431Y6829477D01*
X41865295Y6811744D01*
X41867300Y6805572D01*
X41867302Y6805565D01*
X41903411Y6694435D01*
X41923790Y6631716D01*
X42018436Y6467784D01*
X42022780Y6462959D01*
X42022782Y6462957D01*
X42072005Y6408290D01*
X42145098Y6327112D01*
X42150356Y6323292D01*
X42150357Y6323291D01*
X42175505Y6305020D01*
X42298239Y6215849D01*
X42471166Y6138856D01*
X42656323Y6099500D01*
X42839112Y6099500D01*
X42845615Y6099500D01*
X43030772Y6138856D01*
X43203699Y6215849D01*
X43356840Y6327112D01*
X43483502Y6467784D01*
X43578148Y6631716D01*
X43636643Y6811744D01*
X43644181Y6883462D01*
X43664701Y6939840D01*
X43709288Y6979986D01*
X43767502Y6994500D01*
X44120500Y6994500D01*
X44182500Y6977887D01*
X44227887Y6932500D01*
X44244500Y6870500D01*
X44244500Y124000D01*
X44227887Y62000D01*
X44182500Y16613D01*
X44120500Y0D01*
X2642728Y0D01*
X2623329Y1527D01*
X2521490Y17658D01*
X2520119Y17883D01*
X2359280Y45210D01*
X2347956Y47683D01*
X2197945Y87879D01*
X2195712Y88500D01*
X2042807Y132551D01*
X2032696Y135941D01*
X1886194Y192179D01*
X1883180Y193382D01*
X1737685Y253647D01*
X1728842Y257723D01*
X1588312Y329327D01*
X1584626Y331284D01*
X1447470Y407087D01*
X1439916Y411620D01*
X1307295Y497745D01*
X1303075Y500610D01*
X1261233Y530299D01*
X1175601Y591057D01*
X1169340Y595806D01*
X1139853Y619684D01*
X1046243Y695490D01*
X1041654Y699395D01*
X925270Y803401D01*
X920215Y808180D01*
X808178Y920217D01*
X803399Y925272D01*
X699393Y1041656D01*
X695488Y1046245D01*
X638364Y1116785D01*
X595798Y1169350D01*
X591063Y1175592D01*
X500601Y1303087D01*
X497743Y1307297D01*
X411618Y1439918D01*
X407092Y1447461D01*
X331279Y1584632D01*
X329325Y1588314D01*
X310882Y1624510D01*
X257713Y1728861D01*
X253653Y1737669D01*
X193380Y1883182D01*
X192177Y1886196D01*
X175509Y1929616D01*
X135933Y2032714D01*
X132554Y2042792D01*
X88482Y2195771D01*
X87892Y2197892D01*
X47676Y2347978D01*
X45212Y2359264D01*
X17879Y2520134D01*
X17658Y2521477D01*
X1527Y2623329D01*
X0Y2642727D01*
X0Y18331124D01*
X7119659Y18331124D01*
X7120188Y18325415D01*
X7137293Y18140811D01*
X7138477Y18128041D01*
X7140045Y18122530D01*
X7140047Y18122520D01*
X7192721Y17937393D01*
X7192723Y17937387D01*
X7194292Y17931874D01*
X7285201Y17749303D01*
X7288653Y17744732D01*
X7404652Y17591123D01*
X7404657Y17591118D01*
X7408110Y17586545D01*
X7412346Y17582684D01*
X7412350Y17582679D01*
X7470025Y17530102D01*
X7558833Y17449143D01*
X7732237Y17341776D01*
X7922418Y17268100D01*
X8122898Y17230624D01*
X8321121Y17230624D01*
X8326850Y17230624D01*
X8527330Y17268100D01*
X8717511Y17341776D01*
X8890915Y17449143D01*
X9041638Y17586545D01*
X9071960Y17626698D01*
X9125920Y17698152D01*
X9169602Y17734426D01*
X9224874Y17747426D01*
X9280146Y17734426D01*
X9323828Y17698152D01*
X9404648Y17591128D01*
X9404653Y17591123D01*
X9408110Y17586545D01*
X9412346Y17582684D01*
X9412350Y17582679D01*
X9470025Y17530102D01*
X9558833Y17449143D01*
X9732237Y17341776D01*
X9922418Y17268100D01*
X10122898Y17230624D01*
X10321121Y17230624D01*
X10326850Y17230624D01*
X10527330Y17268100D01*
X10717511Y17341776D01*
X10890915Y17449143D01*
X11041638Y17586545D01*
X11164547Y17749303D01*
X11255456Y17931874D01*
X11311271Y18128041D01*
X11330089Y18331124D01*
X11311271Y18534207D01*
X11255456Y18730374D01*
X11164547Y18912945D01*
X11099132Y18999569D01*
X11045095Y19071126D01*
X11045091Y19071130D01*
X11041638Y19075703D01*
X10939323Y19168975D01*
X10903807Y19225943D01*
X10903187Y19293074D01*
X10937645Y19350689D01*
X10997078Y19381901D01*
X11029803Y19388856D01*
X11202730Y19465849D01*
X11355871Y19577112D01*
X11482533Y19717784D01*
X11577179Y19881716D01*
X11635674Y20061744D01*
X11655460Y20250000D01*
X11635674Y20438256D01*
X11577179Y20618284D01*
X11482533Y20782216D01*
X11473886Y20791819D01*
X11360220Y20918058D01*
X11360219Y20918059D01*
X11355871Y20922888D01*
X11350613Y20926708D01*
X11350611Y20926710D01*
X11207988Y21030331D01*
X11207987Y21030332D01*
X11202730Y21034151D01*
X11191727Y21039050D01*
X11035745Y21108499D01*
X11035740Y21108501D01*
X11029803Y21111144D01*
X11023444Y21112496D01*
X11023440Y21112497D01*
X10851008Y21149148D01*
X10851005Y21149149D01*
X10844646Y21150500D01*
X10655354Y21150500D01*
X10648995Y21149149D01*
X10648991Y21149148D01*
X10476559Y21112497D01*
X10476552Y21112495D01*
X10470197Y21111144D01*
X10464262Y21108502D01*
X10464254Y21108499D01*
X10303207Y21036795D01*
X10303202Y21036793D01*
X10297270Y21034151D01*
X10292016Y21030335D01*
X10292011Y21030331D01*
X10149388Y20926710D01*
X10149381Y20926705D01*
X10144129Y20922888D01*
X10139784Y20918063D01*
X10139779Y20918058D01*
X10021813Y20787044D01*
X10021808Y20787038D01*
X10017467Y20782216D01*
X10014222Y20776596D01*
X10014218Y20776590D01*
X9926069Y20623911D01*
X9926066Y20623906D01*
X9922821Y20618284D01*
X9920815Y20612112D01*
X9920813Y20612106D01*
X9866333Y20444436D01*
X9866331Y20444427D01*
X9864326Y20438256D01*
X9863648Y20431806D01*
X9863646Y20431796D01*
X9848521Y20287876D01*
X9844540Y20250000D01*
X9845219Y20243540D01*
X9863646Y20068205D01*
X9863647Y20068197D01*
X9864326Y20061744D01*
X9866331Y20055572D01*
X9866333Y20055565D01*
X9920813Y19887895D01*
X9922821Y19881716D01*
X9926068Y19876092D01*
X9926069Y19876090D01*
X9991873Y19762113D01*
X10017467Y19717784D01*
X10035517Y19697738D01*
X10105305Y19620230D01*
X10134602Y19562291D01*
X10130605Y19497490D01*
X10094410Y19443591D01*
X10035940Y19415369D01*
X9928055Y19395202D01*
X9928052Y19395202D01*
X9922418Y19394148D01*
X9917077Y19392080D01*
X9917070Y19392077D01*
X9737579Y19322542D01*
X9737574Y19322540D01*
X9732237Y19320472D01*
X9727365Y19317456D01*
X9727362Y19317454D01*
X9563704Y19216122D01*
X9563696Y19216117D01*
X9558833Y19213105D01*
X9554602Y19209249D01*
X9554598Y19209245D01*
X9412350Y19079570D01*
X9412340Y19079560D01*
X9408110Y19075703D01*
X9404661Y19071137D01*
X9404652Y19071126D01*
X9323828Y18964096D01*
X9280145Y18927823D01*
X9224874Y18914823D01*
X9169603Y18927823D01*
X9125920Y18964096D01*
X9045095Y19071126D01*
X9045091Y19071130D01*
X9041638Y19075703D01*
X9037401Y19079566D01*
X9037397Y19079570D01*
X8904111Y19201075D01*
X8890915Y19213105D01*
X8886045Y19216120D01*
X8886043Y19216122D01*
X8747596Y19301844D01*
X8717511Y19320472D01*
X8699385Y19327494D01*
X8532677Y19392077D01*
X8532672Y19392079D01*
X8527330Y19394148D01*
X8497929Y19399644D01*
X8332479Y19430572D01*
X8332476Y19430573D01*
X8326850Y19431624D01*
X8122898Y19431624D01*
X8117272Y19430573D01*
X8117268Y19430572D01*
X7928055Y19395202D01*
X7928052Y19395202D01*
X7922418Y19394148D01*
X7917077Y19392080D01*
X7917070Y19392077D01*
X7737579Y19322542D01*
X7737574Y19322540D01*
X7732237Y19320472D01*
X7727365Y19317456D01*
X7727362Y19317454D01*
X7563704Y19216122D01*
X7563696Y19216117D01*
X7558833Y19213105D01*
X7554602Y19209249D01*
X7554598Y19209245D01*
X7412350Y19079570D01*
X7412340Y19079560D01*
X7408110Y19075703D01*
X7404661Y19071137D01*
X7404652Y19071126D01*
X7288653Y18917517D01*
X7288650Y18917513D01*
X7285201Y18912945D01*
X7282648Y18907820D01*
X7282646Y18907815D01*
X7222564Y18787153D01*
X7194292Y18730374D01*
X7192724Y18724866D01*
X7192721Y18724856D01*
X7140047Y18539729D01*
X7140044Y18539718D01*
X7138477Y18534207D01*
X7137947Y18528497D01*
X7137947Y18528492D01*
X7122493Y18361707D01*
X7119659Y18331124D01*
X0Y18331124D01*
X0Y23724874D01*
X11824408Y23724874D01*
X11825469Y23716815D01*
X11843125Y23582698D01*
X11843126Y23582692D01*
X11844187Y23574638D01*
X11847296Y23567132D01*
X11847297Y23567129D01*
X11896021Y23449500D01*
X11902176Y23434641D01*
X11907119Y23428200D01*
X11907122Y23428194D01*
X11950193Y23372064D01*
X11994423Y23314423D01*
X12045861Y23274953D01*
X12081586Y23231424D01*
X12094374Y23176579D01*
X12094374Y22040314D01*
X12094374Y22040296D01*
X12094375Y22037002D01*
X12094727Y22033724D01*
X12094728Y22033713D01*
X12099953Y21985106D01*
X12099954Y21985101D01*
X12100783Y21977391D01*
X12103493Y21970125D01*
X12103494Y21970121D01*
X12122179Y21920025D01*
X12151078Y21842543D01*
X12156392Y21835444D01*
X12156393Y21835443D01*
X12196748Y21781535D01*
X12237328Y21727328D01*
X12352543Y21641078D01*
X12487391Y21590783D01*
X12547001Y21584374D01*
X12787813Y21584375D01*
X12844727Y21570543D01*
X12888942Y21532132D01*
X12910596Y21477712D01*
X12904857Y21419424D01*
X12901805Y21410704D01*
X12901801Y21410691D01*
X12899506Y21404129D01*
X12879309Y21224874D01*
X12899506Y21045619D01*
X12901802Y21039055D01*
X12901804Y21039050D01*
X12956785Y20881925D01*
X12959085Y20875352D01*
X12962786Y20869462D01*
X13044882Y20738806D01*
X13055058Y20722612D01*
X13182612Y20595058D01*
X13335352Y20499085D01*
X13505619Y20439506D01*
X13684874Y20419309D01*
X13864129Y20439506D01*
X14034396Y20499085D01*
X14187136Y20595058D01*
X14314690Y20722612D01*
X14410663Y20875352D01*
X14412963Y20881925D01*
X14418080Y20896547D01*
X14451461Y20947120D01*
X14504821Y20975836D01*
X14565418Y20975837D01*
X14618779Y20947124D01*
X14652163Y20896552D01*
X14657282Y20881925D01*
X14659582Y20875352D01*
X14663283Y20869462D01*
X14745379Y20738806D01*
X14755555Y20722612D01*
X14883109Y20595058D01*
X15035849Y20499085D01*
X15206116Y20439506D01*
X15385371Y20419309D01*
X15564626Y20439506D01*
X15734893Y20499085D01*
X15734906Y20499047D01*
X15785119Y20510510D01*
X15835338Y20499048D01*
X15835352Y20499085D01*
X16005619Y20439506D01*
X16184874Y20419309D01*
X16286531Y20430763D01*
X16341370Y20424585D01*
X16388095Y20395225D01*
X16441087Y20342233D01*
X16593827Y20246260D01*
X16723701Y20200815D01*
X16779693Y20161087D01*
X16805966Y20097658D01*
X16812522Y20039466D01*
X16814632Y20020745D01*
X16816928Y20014181D01*
X16816930Y20014176D01*
X16870672Y19860591D01*
X16874211Y19850478D01*
X16877912Y19844588D01*
X16963775Y19707937D01*
X16970184Y19697738D01*
X17097738Y19570184D01*
X17250478Y19474211D01*
X17420745Y19414632D01*
X17600000Y19394435D01*
X17779255Y19414632D01*
X17949522Y19474211D01*
X18102262Y19570184D01*
X18229816Y19697738D01*
X18325789Y19850478D01*
X18385368Y20020745D01*
X18405565Y20200000D01*
X18385368Y20379255D01*
X18325789Y20549522D01*
X18244505Y20678884D01*
X18225500Y20744855D01*
X18225500Y21570246D01*
X18238616Y21625750D01*
X18275189Y21669513D01*
X18284422Y21676425D01*
X18352420Y21727328D01*
X18438670Y21842543D01*
X18488965Y21977391D01*
X18495374Y22037001D01*
X18495373Y23176579D01*
X18508161Y23231422D01*
X18543885Y23274953D01*
X18595325Y23314423D01*
X18687572Y23434641D01*
X18745561Y23574638D01*
X18765340Y23724874D01*
X18745561Y23875110D01*
X18687572Y24015107D01*
X18682627Y24021552D01*
X18682625Y24021555D01*
X18600268Y24128883D01*
X18595325Y24135325D01*
X18574171Y24151557D01*
X18481554Y24222626D01*
X18481548Y24222629D01*
X18475107Y24227572D01*
X18467598Y24230683D01*
X18467597Y24230683D01*
X18342619Y24282451D01*
X18342616Y24282452D01*
X18335110Y24285561D01*
X18327056Y24286622D01*
X18327050Y24286623D01*
X18226613Y24299845D01*
X18226611Y24299846D01*
X18222594Y24300374D01*
X18147154Y24300374D01*
X18143137Y24299846D01*
X18143134Y24299845D01*
X18042697Y24286623D01*
X18042689Y24286622D01*
X18034638Y24285561D01*
X18027133Y24282453D01*
X18027128Y24282451D01*
X17902150Y24230683D01*
X17902146Y24230681D01*
X17894641Y24227572D01*
X17888198Y24222629D01*
X17888189Y24222623D01*
X17801080Y24155782D01*
X17747126Y24132042D01*
X17688306Y24135897D01*
X17637913Y24166477D01*
X17407211Y24397179D01*
X17399767Y24405360D01*
X17395711Y24411751D01*
X17346700Y24457776D01*
X17343903Y24460487D01*
X17327152Y24477238D01*
X17327151Y24477239D01*
X17324396Y24479994D01*
X17321215Y24482462D01*
X17312339Y24490044D01*
X17286194Y24514596D01*
X17286192Y24514598D01*
X17280507Y24519936D01*
X17273674Y24523692D01*
X17273668Y24523697D01*
X17262950Y24529589D01*
X17246691Y24540268D01*
X17237020Y24547770D01*
X17237017Y24547772D01*
X17230861Y24552547D01*
X17223704Y24555645D01*
X17223701Y24555646D01*
X17190774Y24569896D01*
X17180288Y24575033D01*
X17148857Y24592312D01*
X17148848Y24592316D01*
X17142017Y24596071D01*
X17134460Y24598012D01*
X17134456Y24598013D01*
X17122613Y24601054D01*
X17104209Y24607355D01*
X17092982Y24612214D01*
X17092975Y24612216D01*
X17085821Y24615312D01*
X17078117Y24616533D01*
X17078115Y24616533D01*
X17042684Y24622145D01*
X17031249Y24624513D01*
X16996496Y24633436D01*
X16996488Y24633437D01*
X16988944Y24635374D01*
X16981148Y24635374D01*
X16968908Y24635374D01*
X16949522Y24636900D01*
X16929729Y24640034D01*
X16921963Y24639300D01*
X16921960Y24639300D01*
X16886249Y24635924D01*
X16874580Y24635374D01*
X13712649Y24635374D01*
X13701593Y24635896D01*
X13694207Y24637547D01*
X13686419Y24637303D01*
X13686412Y24637303D01*
X13627001Y24635435D01*
X13623106Y24635374D01*
X13595524Y24635374D01*
X13591679Y24634889D01*
X13591654Y24634887D01*
X13591527Y24634870D01*
X13579908Y24633956D01*
X13544046Y24632829D01*
X13544039Y24632828D01*
X13536247Y24632583D01*
X13528762Y24630409D01*
X13528746Y24630406D01*
X13517000Y24626993D01*
X13497957Y24623049D01*
X13485823Y24621516D01*
X13485822Y24621516D01*
X13478082Y24620538D01*
X13470832Y24617669D01*
X13470825Y24617666D01*
X13437472Y24604461D01*
X13426428Y24600680D01*
X13391975Y24590670D01*
X13391964Y24590666D01*
X13384484Y24588492D01*
X13377772Y24584523D01*
X13377770Y24584522D01*
X13367238Y24578294D01*
X13349778Y24569740D01*
X13338393Y24565232D01*
X13338387Y24565230D01*
X13331142Y24562360D01*
X13324837Y24557780D01*
X13324829Y24557775D01*
X13295806Y24536689D01*
X13286048Y24530279D01*
X13255170Y24512017D01*
X13255164Y24512013D01*
X13248454Y24508044D01*
X13242941Y24502533D01*
X13242934Y24502526D01*
X13234284Y24493876D01*
X13219501Y24481250D01*
X13209600Y24474057D01*
X13209590Y24474048D01*
X13203287Y24469468D01*
X13198318Y24463463D01*
X13198315Y24463459D01*
X13175446Y24435815D01*
X13167585Y24427177D01*
X12926400Y24185992D01*
X12876006Y24155412D01*
X12817186Y24151557D01*
X12763232Y24175298D01*
X12701558Y24222623D01*
X12701552Y24222627D01*
X12695107Y24227572D01*
X12687598Y24230683D01*
X12687597Y24230683D01*
X12562619Y24282451D01*
X12562616Y24282452D01*
X12555110Y24285561D01*
X12547056Y24286622D01*
X12547050Y24286623D01*
X12446613Y24299845D01*
X12446611Y24299846D01*
X12442594Y24300374D01*
X12367154Y24300374D01*
X12363137Y24299846D01*
X12363134Y24299845D01*
X12262697Y24286623D01*
X12262689Y24286622D01*
X12254638Y24285561D01*
X12247133Y24282453D01*
X12247128Y24282451D01*
X12122150Y24230683D01*
X12122146Y24230681D01*
X12114641Y24227572D01*
X12108202Y24222632D01*
X12108193Y24222626D01*
X12000865Y24140269D01*
X12000861Y24140266D01*
X11994423Y24135325D01*
X11989482Y24128887D01*
X11989479Y24128883D01*
X11907122Y24021555D01*
X11907116Y24021546D01*
X11902176Y24015107D01*
X11899067Y24007602D01*
X11899065Y24007598D01*
X11847297Y23882620D01*
X11847295Y23882615D01*
X11844187Y23875110D01*
X11843126Y23867059D01*
X11843125Y23867051D01*
X11833937Y23797256D01*
X11824408Y23724874D01*
X0Y23724874D01*
X0Y26843544D01*
X27358084Y26843544D01*
X27358829Y26838041D01*
X27358830Y26838030D01*
X27372529Y26736905D01*
X27388299Y26620487D01*
X27390018Y26615194D01*
X27390020Y26615189D01*
X27456135Y26411707D01*
X27456138Y26411699D01*
X27457857Y26406410D01*
X27460495Y26401508D01*
X27561886Y26213090D01*
X27561890Y26213084D01*
X27564522Y26208193D01*
X27567986Y26203849D01*
X27567989Y26203845D01*
X27668399Y26077936D01*
X27704866Y26032208D01*
X27874378Y25884109D01*
X27879157Y25881254D01*
X27879158Y25881253D01*
X27910440Y25862563D01*
X28067610Y25768659D01*
X28278350Y25689567D01*
X28499827Y25649374D01*
X29465752Y25649374D01*
X29468529Y25649374D01*
X29636562Y25664497D01*
X29853544Y25724381D01*
X30056347Y25822045D01*
X30238452Y25954352D01*
X30394006Y26117049D01*
X30518009Y26304906D01*
X30606477Y26511886D01*
X30656565Y26731337D01*
X30666664Y26956204D01*
X30636449Y27179261D01*
X30583665Y27341713D01*
X30568612Y27388042D01*
X30568611Y27388045D01*
X30566891Y27393338D01*
X30460226Y27591555D01*
X30428017Y27631943D01*
X30323351Y27763190D01*
X30319882Y27767540D01*
X30300854Y27784164D01*
X30230769Y27845396D01*
X30150370Y27915639D01*
X30145592Y27918494D01*
X30145589Y27918496D01*
X29961919Y28028233D01*
X29961914Y28028236D01*
X29957138Y28031089D01*
X29951921Y28033047D01*
X29751613Y28108224D01*
X29751610Y28108225D01*
X29746398Y28110181D01*
X29740920Y28111176D01*
X29740917Y28111176D01*
X29530404Y28149379D01*
X29530403Y28149380D01*
X29524921Y28150374D01*
X28556219Y28150374D01*
X28553471Y28150127D01*
X28553455Y28150126D01*
X28393734Y28135751D01*
X28393726Y28135750D01*
X28388186Y28135251D01*
X28382822Y28133771D01*
X28382813Y28133769D01*
X28176575Y28076850D01*
X28176568Y28076848D01*
X28171204Y28075367D01*
X28166186Y28072951D01*
X28166182Y28072949D01*
X27973422Y27980122D01*
X27973413Y27980117D01*
X27968401Y27977703D01*
X27963899Y27974433D01*
X27963892Y27974428D01*
X27790803Y27848671D01*
X27790799Y27848669D01*
X27786296Y27845396D01*
X27782457Y27841382D01*
X27782448Y27841373D01*
X27634592Y27686727D01*
X27634586Y27686720D01*
X27630742Y27682699D01*
X27627673Y27678051D01*
X27627670Y27678046D01*
X27509809Y27499494D01*
X27509805Y27499488D01*
X27506739Y27494842D01*
X27504552Y27489726D01*
X27504547Y27489716D01*
X27420462Y27292990D01*
X27420459Y27292982D01*
X27418271Y27287862D01*
X27417031Y27282433D01*
X27417030Y27282427D01*
X27369801Y27075500D01*
X27368183Y27068411D01*
X27367933Y27062855D01*
X27367932Y27062844D01*
X27362894Y26950644D01*
X27358084Y26843544D01*
X0Y26843544D01*
X0Y27357273D01*
X1527Y27376670D01*
X17654Y27478495D01*
X17879Y27479868D01*
X19174Y27487489D01*
X45213Y27640746D01*
X47674Y27652014D01*
X87907Y27802167D01*
X88466Y27804175D01*
X132558Y27957223D01*
X135928Y27967274D01*
X192189Y28113837D01*
X193380Y28116820D01*
X193954Y28118205D01*
X253661Y28262351D01*
X257703Y28271121D01*
X329354Y28411745D01*
X331252Y28415320D01*
X407106Y28552566D01*
X411596Y28560048D01*
X497781Y28692762D01*
X500569Y28696869D01*
X591085Y28824440D01*
X595774Y28830621D01*
X695497Y28953769D01*
X699393Y28958346D01*
X742390Y29006460D01*
X803417Y29074750D01*
X808143Y29079749D01*
X920251Y29191857D01*
X925250Y29196583D01*
X1041654Y29300607D01*
X1046231Y29304503D01*
X1169379Y29404226D01*
X1175560Y29408915D01*
X1303131Y29499431D01*
X1307238Y29502219D01*
X1439952Y29588404D01*
X1447434Y29592894D01*
X1584680Y29668748D01*
X1588255Y29670646D01*
X1728879Y29742297D01*
X1737649Y29746339D01*
X1883211Y29806633D01*
X1886163Y29807811D01*
X2032726Y29864072D01*
X2042777Y29867442D01*
X2195825Y29911534D01*
X2197833Y29912093D01*
X2347986Y29952326D01*
X2359254Y29954787D01*
X2520186Y29982130D01*
X2521444Y29982337D01*
X2589571Y29993127D01*
X2623330Y29998473D01*
X2642727Y30000000D01*
X24962728Y30000000D01*
X25022465Y29984662D01*
G37*
%TD.AperFunction*%
%TA.AperFunction,Conductor*%
G36*
X42702026Y10517965D02*
G01*
X42734661Y10460281D01*
X42751141Y10394179D01*
X42803853Y10263711D01*
X42806014Y10259968D01*
X42806018Y10259960D01*
X42856320Y10172836D01*
X42866864Y10149154D01*
X42884468Y10094975D01*
X42889858Y10069617D01*
X42895812Y10012961D01*
X42895812Y9987041D01*
X42889858Y9930387D01*
X42884468Y9905029D01*
X42866864Y9850849D01*
X42856320Y9827167D01*
X42827836Y9777831D01*
X42812599Y9756859D01*
X42774488Y9714532D01*
X42755221Y9697184D01*
X42709124Y9663694D01*
X42686677Y9650735D01*
X42634639Y9627566D01*
X42609986Y9619555D01*
X42572790Y9611648D01*
X42554263Y9607710D01*
X42528482Y9605000D01*
X42471518Y9605000D01*
X42445736Y9607710D01*
X42431568Y9610722D01*
X42390014Y9619555D01*
X42365362Y9627565D01*
X42313320Y9650735D01*
X42290541Y9660877D01*
X42170542Y9697279D01*
X42166746Y9697932D01*
X42166739Y9697933D01*
X42114186Y9706964D01*
X42114172Y9706966D01*
X42110381Y9707617D01*
X42106524Y9707794D01*
X42106523Y9707794D01*
X42028819Y9711357D01*
X41969248Y9729784D01*
X41926177Y9774874D01*
X41910499Y9835227D01*
X41910499Y10139399D01*
X41925497Y10198514D01*
X41966864Y10243329D01*
X42024592Y10263003D01*
X42028381Y10263307D01*
X42035265Y10263094D01*
X42145130Y10284324D01*
X42195441Y10299986D01*
X42252581Y10323032D01*
X42253612Y10320475D01*
X42253703Y10320511D01*
X42252882Y10322357D01*
X42307032Y10346467D01*
X42426352Y10421028D01*
X42478717Y10464968D01*
X42522194Y10513256D01*
X42578088Y10548865D01*
X42644342Y10550601D01*
X42702026Y10517965D01*
G37*
%TD.AperFunction*%
%TA.AperFunction,Conductor*%
G36*
X42954264Y11892290D02*
G01*
X43009983Y11880447D01*
X43034639Y11872436D01*
X43086677Y11849267D01*
X43109124Y11836308D01*
X43136180Y11816652D01*
X43155223Y11802816D01*
X43174483Y11785474D01*
X43212599Y11743143D01*
X43227836Y11722171D01*
X43256320Y11672835D01*
X43266864Y11649153D01*
X43284468Y11594973D01*
X43289858Y11569615D01*
X43295812Y11512961D01*
X43295812Y11487041D01*
X43289858Y11430387D01*
X43284468Y11405029D01*
X43266864Y11350849D01*
X43256320Y11327167D01*
X43227836Y11277831D01*
X43212598Y11256858D01*
X43174487Y11214532D01*
X43155222Y11197186D01*
X43106326Y11161662D01*
X43094195Y11154081D01*
X43092973Y11153536D01*
X43089318Y11151253D01*
X43089312Y11151249D01*
X42977321Y11081270D01*
X42977312Y11081264D01*
X42973648Y11078974D01*
X42970335Y11076195D01*
X42970328Y11076189D01*
X42924605Y11037823D01*
X42924595Y11037815D01*
X42921285Y11035036D01*
X42918391Y11031823D01*
X42918390Y11031821D01*
X42877803Y10986745D01*
X42821906Y10951137D01*
X42755654Y10949403D01*
X42697972Y10982039D01*
X42665337Y11039722D01*
X42648855Y11105830D01*
X42632660Y11145914D01*
X42597768Y11232275D01*
X42597766Y11232278D01*
X42596146Y11236289D01*
X42543674Y11327173D01*
X42533136Y11350842D01*
X42515528Y11405033D01*
X42510141Y11430379D01*
X42504186Y11487041D01*
X42504186Y11512961D01*
X42510141Y11569621D01*
X42515530Y11594973D01*
X42533137Y11649161D01*
X42543674Y11672828D01*
X42572165Y11722176D01*
X42587393Y11743136D01*
X42625519Y11785479D01*
X42644770Y11802813D01*
X42690874Y11836309D01*
X42713322Y11849268D01*
X42765361Y11872437D01*
X42790014Y11880447D01*
X42845735Y11892291D01*
X42871515Y11895000D01*
X42928484Y11895000D01*
X42954264Y11892290D01*
G37*
%TD.AperFunction*%
%TA.AperFunction,Conductor*%
G36*
X17693671Y15710667D02*
G01*
X17737887Y15672255D01*
X17759540Y15617833D01*
X17753798Y15559544D01*
X17721943Y15510393D01*
X17671083Y15481346D01*
X17646316Y15474211D01*
X17620385Y15466741D01*
X17616424Y15464969D01*
X17616409Y15464963D01*
X17595066Y15455412D01*
X17582274Y15452175D01*
X17582565Y15451344D01*
X17479244Y15415192D01*
X17452173Y15409014D01*
X17413881Y15404700D01*
X17386117Y15404700D01*
X17347825Y15409014D01*
X17320753Y15415192D01*
X17217434Y15451344D01*
X17217724Y15452175D01*
X17204935Y15455412D01*
X17183593Y15464962D01*
X17183585Y15464965D01*
X17179616Y15466741D01*
X17175435Y15467946D01*
X17175431Y15467947D01*
X17128918Y15481346D01*
X17078058Y15510393D01*
X17046203Y15559544D01*
X17040461Y15617833D01*
X17062114Y15672255D01*
X17106330Y15710667D01*
X17163244Y15724500D01*
X17636757Y15724500D01*
X17693671Y15710667D01*
G37*
%TD.AperFunction*%
%TA.AperFunction,Conductor*%
G36*
X35918723Y21159162D02*
G01*
X35963682Y21116942D01*
X35982740Y21058285D01*
X35971183Y20997703D01*
X35931872Y20950185D01*
X35894129Y20922762D01*
X35889784Y20917937D01*
X35889779Y20917932D01*
X35771813Y20786918D01*
X35771808Y20786912D01*
X35767467Y20782090D01*
X35764222Y20776470D01*
X35764218Y20776464D01*
X35676070Y20623787D01*
X35676066Y20623781D01*
X35672821Y20618158D01*
X35670813Y20611981D01*
X35670814Y20611981D01*
X35661036Y20581888D01*
X35635796Y20537841D01*
X35595020Y20507599D01*
X35545542Y20496232D01*
X35506374Y20495462D01*
X35506372Y20495462D01*
X35502410Y20495384D01*
X35498498Y20494804D01*
X35498489Y20494803D01*
X35382956Y20477665D01*
X35382953Y20477665D01*
X35375125Y20476503D01*
X35367844Y20473404D01*
X35367840Y20473402D01*
X35260369Y20427645D01*
X35260362Y20427642D01*
X35256732Y20426096D01*
X35253323Y20424099D01*
X35253317Y20424095D01*
X35206138Y20396443D01*
X35202714Y20394436D01*
X35199582Y20392017D01*
X35199574Y20392011D01*
X35104007Y20318182D01*
X35103993Y20318170D01*
X35100879Y20315764D01*
X35098090Y20312976D01*
X35098082Y20312968D01*
X34924424Y20139310D01*
X34924413Y20139299D01*
X34922503Y20137388D01*
X34920774Y20135329D01*
X34920757Y20135309D01*
X34867612Y20071973D01*
X34867606Y20071966D01*
X34865863Y20069888D01*
X34864304Y20067663D01*
X34864302Y20067659D01*
X34842717Y20036833D01*
X34842709Y20036822D01*
X34841171Y20034624D01*
X34839831Y20032304D01*
X34839822Y20032289D01*
X34798470Y19960665D01*
X34798462Y19960652D01*
X34797114Y19958315D01*
X34795972Y19955867D01*
X34795972Y19955866D01*
X34751544Y19860591D01*
X34740737Y19841874D01*
X34668373Y19738527D01*
X34654479Y19721969D01*
X34565279Y19632769D01*
X34548721Y19618875D01*
X34445374Y19546511D01*
X34426657Y19535704D01*
X34388672Y19517991D01*
X34328933Y19490134D01*
X34326596Y19488786D01*
X34326583Y19488778D01*
X34254959Y19447426D01*
X34254944Y19447417D01*
X34252624Y19446077D01*
X34250426Y19444539D01*
X34250415Y19444531D01*
X34230480Y19430572D01*
X34217360Y19421385D01*
X34215282Y19419642D01*
X34215275Y19419636D01*
X34151939Y19366491D01*
X34151919Y19366474D01*
X34149860Y19364745D01*
X34147949Y19362835D01*
X34147938Y19362824D01*
X31785115Y17000000D01*
X31109494Y16324381D01*
X31061648Y16294635D01*
X31005579Y16289129D01*
X30952861Y16309001D01*
X30922879Y16341057D01*
X30921140Y16339793D01*
X30917319Y16345053D01*
X30914071Y16350678D01*
X30882424Y16385825D01*
X30791758Y16486520D01*
X30791757Y16486521D01*
X30787409Y16491350D01*
X30782151Y16495170D01*
X30782149Y16495172D01*
X30639526Y16598793D01*
X30639525Y16598794D01*
X30634268Y16602613D01*
X30628330Y16605257D01*
X30467283Y16676961D01*
X30467278Y16676963D01*
X30461341Y16679606D01*
X30454982Y16680958D01*
X30454978Y16680959D01*
X30282546Y16717610D01*
X30282543Y16717611D01*
X30276184Y16718962D01*
X30086892Y16718962D01*
X30080533Y16717611D01*
X30080529Y16717610D01*
X29908097Y16680959D01*
X29908090Y16680957D01*
X29901735Y16679606D01*
X29895800Y16676964D01*
X29895792Y16676961D01*
X29734745Y16605257D01*
X29734740Y16605255D01*
X29728808Y16602613D01*
X29723554Y16598797D01*
X29723549Y16598793D01*
X29580926Y16495172D01*
X29580919Y16495167D01*
X29575667Y16491350D01*
X29571322Y16486525D01*
X29571317Y16486520D01*
X29453351Y16355506D01*
X29453346Y16355500D01*
X29449005Y16350678D01*
X29445760Y16345058D01*
X29445756Y16345052D01*
X29357607Y16192373D01*
X29357604Y16192368D01*
X29354359Y16186746D01*
X29352353Y16180574D01*
X29352351Y16180568D01*
X29297871Y16012898D01*
X29297869Y16012889D01*
X29295864Y16006718D01*
X29295186Y16000268D01*
X29295184Y16000258D01*
X29277500Y15831998D01*
X29276078Y15818462D01*
X29276757Y15812002D01*
X29294576Y15642461D01*
X29282705Y15575142D01*
X29236965Y15524342D01*
X29171255Y15505500D01*
X24436940Y15505500D01*
X24380645Y15519015D01*
X24336622Y15556615D01*
X24314467Y15610102D01*
X24319009Y15667818D01*
X24349259Y15717181D01*
X24356578Y15724500D01*
X24429816Y15797738D01*
X24525789Y15950478D01*
X24585368Y16120745D01*
X24605565Y16300000D01*
X24585368Y16479255D01*
X24525789Y16649522D01*
X24429816Y16802262D01*
X24387523Y16844555D01*
X24358162Y16891282D01*
X24351984Y16946120D01*
X24370210Y16998208D01*
X24409233Y17037230D01*
X24496358Y17091974D01*
X24496359Y17091976D01*
X24502262Y17095684D01*
X24629816Y17223238D01*
X24725789Y17375978D01*
X24785368Y17546245D01*
X24793045Y17614384D01*
X24813811Y17670351D01*
X24858324Y17710130D01*
X24916265Y17724500D01*
X25334258Y17724500D01*
X25383845Y17714154D01*
X25425157Y17684841D01*
X25451300Y17641454D01*
X25471912Y17582546D01*
X25471913Y17582544D01*
X25474211Y17575978D01*
X25477912Y17570088D01*
X25550625Y17454365D01*
X25570184Y17423238D01*
X25697738Y17295684D01*
X25850478Y17199711D01*
X26020745Y17140132D01*
X26200000Y17119935D01*
X26379255Y17140132D01*
X26549522Y17199711D01*
X26702262Y17295684D01*
X26829816Y17423238D01*
X26925789Y17575978D01*
X26985368Y17746245D01*
X27005565Y17925500D01*
X26985368Y18104755D01*
X26925789Y18275022D01*
X26829816Y18427762D01*
X26702262Y18555316D01*
X26549522Y18651289D01*
X26542959Y18653586D01*
X26542956Y18653587D01*
X26471343Y18678645D01*
X26415351Y18718374D01*
X26389078Y18781803D01*
X26400578Y18849489D01*
X26446326Y18900681D01*
X26511058Y18919331D01*
X26512374Y18919215D01*
X26747782Y18939811D01*
X26976037Y19000971D01*
X27190203Y19100839D01*
X27383775Y19236379D01*
X27550869Y19403473D01*
X27660799Y19560471D01*
X27705117Y19599336D01*
X27762374Y19613347D01*
X27819631Y19599336D01*
X27863948Y19560471D01*
X27973879Y19403473D01*
X28140973Y19236379D01*
X28145405Y19233276D01*
X28145407Y19233274D01*
X28184047Y19206218D01*
X28334544Y19100839D01*
X28339444Y19098554D01*
X28339446Y19098553D01*
X28388448Y19075703D01*
X28548711Y19000971D01*
X28553941Y18999570D01*
X28553943Y18999569D01*
X28585748Y18991047D01*
X28776966Y18939811D01*
X29012374Y18919215D01*
X29247782Y18939811D01*
X29476037Y19000971D01*
X29690203Y19100839D01*
X29883775Y19236379D01*
X30050869Y19403473D01*
X30160799Y19560471D01*
X30205117Y19599336D01*
X30262374Y19613347D01*
X30319631Y19599336D01*
X30363948Y19560471D01*
X30473879Y19403473D01*
X30640973Y19236379D01*
X30645405Y19233276D01*
X30645407Y19233274D01*
X30684047Y19206218D01*
X30834544Y19100839D01*
X30839444Y19098554D01*
X30839446Y19098553D01*
X30888448Y19075703D01*
X31048711Y19000971D01*
X31053941Y18999570D01*
X31053943Y18999569D01*
X31085748Y18991047D01*
X31276966Y18939811D01*
X31512374Y18919215D01*
X31747782Y18939811D01*
X31976037Y19000971D01*
X32190203Y19100839D01*
X32383775Y19236379D01*
X32550869Y19403473D01*
X32686409Y19597045D01*
X32786277Y19811211D01*
X32847437Y20039466D01*
X32862874Y20215908D01*
X32862874Y20583840D01*
X32847437Y20760282D01*
X32786277Y20988537D01*
X32781820Y20998095D01*
X32770467Y21058610D01*
X32789621Y21117125D01*
X32834559Y21159214D01*
X32894202Y21174500D01*
X35858985Y21174500D01*
X35918723Y21159162D01*
G37*
%TD.AperFunction*%
%TA.AperFunction,Conductor*%
G36*
X43194952Y23471225D02*
G01*
X43231424Y23427489D01*
X43244500Y23372064D01*
X43244500Y22760746D01*
X43235061Y22713293D01*
X43208181Y22673065D01*
X41326935Y20791819D01*
X41286707Y20764939D01*
X41239254Y20755500D01*
X40086788Y20755500D01*
X40082771Y20754972D01*
X40082768Y20754971D01*
X39959980Y20738806D01*
X39959965Y20738804D01*
X39955954Y20738275D01*
X39952042Y20737227D01*
X39952033Y20737225D01*
X39897878Y20722714D01*
X39897870Y20722712D01*
X39893954Y20721662D01*
X39890208Y20720111D01*
X39890198Y20720107D01*
X39779547Y20674274D01*
X39779542Y20674272D01*
X39772038Y20671163D01*
X39765594Y20666220D01*
X39765588Y20666215D01*
X39670577Y20593309D01*
X39670570Y20593304D01*
X39667346Y20590829D01*
X39664473Y20587957D01*
X39664465Y20587949D01*
X39624839Y20548323D01*
X39624831Y20548315D01*
X39621959Y20545442D01*
X39619484Y20542218D01*
X39619479Y20542211D01*
X39546573Y20447200D01*
X39546568Y20447194D01*
X39541625Y20440750D01*
X39538516Y20433246D01*
X39538514Y20433241D01*
X39492681Y20322590D01*
X39492677Y20322580D01*
X39491126Y20318834D01*
X39490076Y20314918D01*
X39490074Y20314910D01*
X39475563Y20260755D01*
X39475561Y20260746D01*
X39474513Y20256834D01*
X39473984Y20252823D01*
X39473982Y20252808D01*
X39462907Y20168684D01*
X39457288Y20126003D01*
X39458349Y20117943D01*
X39473980Y19999200D01*
X39473981Y19999191D01*
X39474511Y19995171D01*
X39475559Y19991259D01*
X39475561Y19991250D01*
X39484386Y19958315D01*
X39491123Y19933172D01*
X39492671Y19929435D01*
X39492673Y19929429D01*
X39540069Y19815004D01*
X39540071Y19815000D01*
X39541625Y19811249D01*
X39543655Y19807733D01*
X39543657Y19807729D01*
X39556321Y19785795D01*
X39566865Y19762113D01*
X39584468Y19707937D01*
X39589858Y19682579D01*
X39595812Y19625923D01*
X39595812Y19600003D01*
X39589858Y19543349D01*
X39584468Y19517991D01*
X39566864Y19463811D01*
X39556320Y19440129D01*
X39527836Y19390793D01*
X39512599Y19369821D01*
X39474488Y19327494D01*
X39455221Y19310146D01*
X39409124Y19276656D01*
X39386677Y19263697D01*
X39334639Y19240528D01*
X39309986Y19232517D01*
X39279061Y19225943D01*
X39254263Y19220672D01*
X39228482Y19217962D01*
X39171518Y19217962D01*
X39145736Y19220672D01*
X39090012Y19232517D01*
X39065358Y19240528D01*
X39013321Y19263697D01*
X38990874Y19276656D01*
X38944777Y19310146D01*
X38925514Y19327490D01*
X38887397Y19369823D01*
X38872162Y19390793D01*
X38870059Y19394435D01*
X38843676Y19440133D01*
X38833136Y19463807D01*
X38815529Y19517993D01*
X38810140Y19543349D01*
X38808149Y19562291D01*
X38804186Y19600004D01*
X38804186Y19625923D01*
X38810141Y19682583D01*
X38815528Y19707930D01*
X38833138Y19762126D01*
X38843673Y19785787D01*
X38858375Y19811250D01*
X38908874Y19933166D01*
X38925487Y19995166D01*
X38942712Y20126000D01*
X38925487Y20256834D01*
X38908874Y20318834D01*
X38858375Y20440750D01*
X38849422Y20452417D01*
X38789394Y20530647D01*
X38778041Y20545442D01*
X38732654Y20590829D01*
X38697039Y20618158D01*
X38634411Y20666215D01*
X38634408Y20666217D01*
X38627962Y20671163D01*
X38620454Y20674273D01*
X38587693Y20687843D01*
X38539293Y20723740D01*
X38513530Y20778213D01*
X38516487Y20838400D01*
X38547464Y20890083D01*
X40170563Y22513181D01*
X40210792Y22540061D01*
X40258245Y22549500D01*
X41518976Y22549500D01*
X41530031Y22548979D01*
X41537418Y22547327D01*
X41604623Y22549439D01*
X41608519Y22549500D01*
X41632199Y22549500D01*
X41636101Y22549500D01*
X41640064Y22550001D01*
X41651714Y22550920D01*
X41695378Y22552291D01*
X41714612Y22557881D01*
X41733668Y22561826D01*
X41753543Y22564336D01*
X41794146Y22580413D01*
X41805201Y22584198D01*
X41847141Y22596382D01*
X41864380Y22606578D01*
X41881854Y22615138D01*
X41893225Y22619640D01*
X41893227Y22619642D01*
X41900483Y22622514D01*
X41935820Y22648189D01*
X41945575Y22654597D01*
X41983171Y22676830D01*
X41997335Y22690995D01*
X42012130Y22703632D01*
X42028338Y22715406D01*
X42056179Y22749062D01*
X42064030Y22757691D01*
X42719521Y23413181D01*
X42759750Y23440061D01*
X42807203Y23449500D01*
X42913249Y23449500D01*
X42915694Y23449500D01*
X42952569Y23452402D01*
X43085904Y23491140D01*
X43142778Y23494046D01*
X43194952Y23471225D01*
G37*
%TD.AperFunction*%
%TD*%
%TA.AperFunction,Conductor*%
%TO.N,/BRIDGE/OUT*%
G36*
X64384829Y29984661D02*
G01*
X64429788Y29942441D01*
X64448846Y29883782D01*
X64437287Y29823199D01*
X64403279Y29782095D01*
X64404215Y29781055D01*
X64399386Y29776708D01*
X64394129Y29772888D01*
X64389784Y29768063D01*
X64389779Y29768058D01*
X64282544Y29648961D01*
X64244756Y29620485D01*
X64199053Y29608236D01*
X64161778Y29612809D01*
X64161531Y29611644D01*
X63982736Y29649648D01*
X63982733Y29649649D01*
X63976374Y29651000D01*
X63787082Y29651000D01*
X63780723Y29649649D01*
X63780719Y29649648D01*
X63608287Y29612997D01*
X63608280Y29612995D01*
X63601925Y29611644D01*
X63595990Y29609002D01*
X63595982Y29608999D01*
X63434935Y29537295D01*
X63434930Y29537293D01*
X63428998Y29534651D01*
X63423744Y29530835D01*
X63423739Y29530831D01*
X63281116Y29427210D01*
X63281109Y29427205D01*
X63275857Y29423388D01*
X63271512Y29418563D01*
X63271507Y29418558D01*
X63153541Y29287544D01*
X63153536Y29287538D01*
X63149195Y29282716D01*
X63145950Y29277096D01*
X63145946Y29277090D01*
X63057798Y29124413D01*
X63057794Y29124407D01*
X63054549Y29118784D01*
X63052542Y29112608D01*
X63052541Y29112605D01*
X63027128Y29034393D01*
X63004189Y28993009D01*
X62967419Y28963230D01*
X62930750Y28952017D01*
X62930967Y28951000D01*
X62752172Y28912997D01*
X62752165Y28912995D01*
X62745810Y28911644D01*
X62739875Y28909002D01*
X62739867Y28908999D01*
X62578820Y28837295D01*
X62578815Y28837293D01*
X62572883Y28834651D01*
X62567629Y28830835D01*
X62567624Y28830831D01*
X62425001Y28727210D01*
X62424994Y28727205D01*
X62419742Y28723388D01*
X62415397Y28718563D01*
X62415392Y28718558D01*
X62297426Y28587544D01*
X62297421Y28587538D01*
X62293080Y28582716D01*
X62289835Y28577096D01*
X62289831Y28577090D01*
X62201682Y28424411D01*
X62201679Y28424406D01*
X62198434Y28418784D01*
X62196428Y28412612D01*
X62196426Y28412606D01*
X62141946Y28244936D01*
X62141944Y28244927D01*
X62139939Y28238756D01*
X62139261Y28232306D01*
X62139259Y28232296D01*
X62122601Y28073791D01*
X62120153Y28050500D01*
X62120832Y28044040D01*
X62139259Y27868705D01*
X62139260Y27868697D01*
X62139939Y27862244D01*
X62141944Y27856072D01*
X62141946Y27856065D01*
X62196424Y27688401D01*
X62198434Y27682216D01*
X62293080Y27518284D01*
X62419742Y27377612D01*
X62572883Y27266349D01*
X62745810Y27189356D01*
X62930967Y27150000D01*
X63113756Y27150000D01*
X63120259Y27150000D01*
X63305416Y27189356D01*
X63478343Y27266349D01*
X63631484Y27377612D01*
X63758146Y27518284D01*
X63852792Y27682216D01*
X63880212Y27766608D01*
X63903158Y27808000D01*
X63939940Y27837781D01*
X63976590Y27848981D01*
X63976374Y27850000D01*
X64161531Y27889356D01*
X64334458Y27966349D01*
X64487599Y28077612D01*
X64599185Y28201542D01*
X64636982Y28230022D01*
X64682699Y28242267D01*
X64719948Y28237688D01*
X64720197Y28238856D01*
X64905354Y28199500D01*
X65088143Y28199500D01*
X65094646Y28199500D01*
X65279803Y28238856D01*
X65452730Y28315849D01*
X65605871Y28427112D01*
X65732533Y28567784D01*
X65827179Y28731716D01*
X65885674Y28911744D01*
X65905460Y29100000D01*
X65885674Y29288256D01*
X65827179Y29468284D01*
X65732533Y29632216D01*
X65605871Y29772888D01*
X65600611Y29776709D01*
X65595785Y29781055D01*
X65596720Y29782095D01*
X65562713Y29823199D01*
X65551154Y29883782D01*
X65570212Y29942441D01*
X65615171Y29984661D01*
X65674910Y30000000D01*
X66948638Y30000000D01*
X66996091Y29990561D01*
X67036319Y29963681D01*
X71717731Y25282269D01*
X71732683Y25264175D01*
X71908499Y25004866D01*
X72136686Y24736224D01*
X72139117Y24733921D01*
X72139123Y24733915D01*
X72315614Y24566735D01*
X72392580Y24493828D01*
X72673182Y24280520D01*
X72676056Y24278791D01*
X72676066Y24278784D01*
X72776401Y24218415D01*
X72800154Y24199846D01*
X73213681Y23786319D01*
X73240561Y23746091D01*
X73250000Y23698638D01*
X73250000Y17374000D01*
X73233387Y17312000D01*
X73188000Y17266613D01*
X73126000Y17250000D01*
X69550685Y17250000D01*
X69503768Y17259218D01*
X69463827Y17285503D01*
X66808610Y19891549D01*
X66808611Y19891549D01*
X66800000Y19900000D01*
X66787933Y19900000D01*
X65737364Y19900000D01*
X65690914Y19909029D01*
X65651228Y19934800D01*
X65627608Y19968532D01*
X65627179Y19968284D01*
X65532533Y20132216D01*
X65405871Y20272888D01*
X65400613Y20276708D01*
X65400611Y20276710D01*
X65257988Y20380331D01*
X65257987Y20380332D01*
X65252730Y20384151D01*
X65246792Y20386795D01*
X65085745Y20458499D01*
X65085740Y20458501D01*
X65079803Y20461144D01*
X65073444Y20462496D01*
X65073440Y20462497D01*
X64901008Y20499148D01*
X64901005Y20499149D01*
X64894646Y20500500D01*
X64705354Y20500500D01*
X64698995Y20499149D01*
X64698991Y20499148D01*
X64526559Y20462497D01*
X64526552Y20462495D01*
X64520197Y20461144D01*
X64494377Y20449648D01*
X64350683Y20385671D01*
X64300248Y20374951D01*
X64249814Y20385671D01*
X64080300Y20461144D01*
X64073941Y20462496D01*
X64073937Y20462497D01*
X63901505Y20499148D01*
X63901502Y20499149D01*
X63895143Y20500500D01*
X63705851Y20500500D01*
X63699492Y20499149D01*
X63699488Y20499148D01*
X63527056Y20462497D01*
X63527049Y20462495D01*
X63520694Y20461144D01*
X63514759Y20458502D01*
X63514751Y20458499D01*
X63353707Y20386796D01*
X63353704Y20386795D01*
X63347767Y20384151D01*
X63342513Y20380335D01*
X63342508Y20380331D01*
X63319170Y20363375D01*
X63259246Y20340374D01*
X63195852Y20350416D01*
X63140746Y20374951D01*
X63064275Y20408999D01*
X63064270Y20409001D01*
X63058333Y20411644D01*
X63051974Y20412996D01*
X63051970Y20412997D01*
X62879538Y20449648D01*
X62879535Y20449649D01*
X62873176Y20451000D01*
X62683884Y20451000D01*
X62677525Y20449649D01*
X62677521Y20449648D01*
X62505089Y20412997D01*
X62505082Y20412995D01*
X62498727Y20411644D01*
X62492792Y20409002D01*
X62492784Y20408999D01*
X62331737Y20337295D01*
X62331732Y20337293D01*
X62325800Y20334651D01*
X62320546Y20330835D01*
X62320541Y20330831D01*
X62177918Y20227210D01*
X62177911Y20227205D01*
X62172659Y20223388D01*
X62168314Y20218563D01*
X62168309Y20218558D01*
X62050343Y20087544D01*
X62050338Y20087538D01*
X62045997Y20082716D01*
X62042752Y20077096D01*
X62042748Y20077090D01*
X62012097Y20024000D01*
X61983178Y19973909D01*
X61976302Y19962000D01*
X61930915Y19916613D01*
X61868915Y19900000D01*
X55924000Y19900000D01*
X55862000Y19916613D01*
X55816613Y19962000D01*
X55800000Y20024000D01*
X55800000Y29876000D01*
X55816613Y29938000D01*
X55862000Y29983387D01*
X55924000Y30000000D01*
X64325090Y30000000D01*
X64384829Y29984661D01*
G37*
%TD.AperFunction*%
%TD*%
%TA.AperFunction,Conductor*%
%TO.N,/BRIDGE1/OUT*%
G36*
X61820352Y19313584D02*
G01*
X61870086Y19302389D01*
X61911115Y19272129D01*
X61936500Y19227918D01*
X61949341Y19188400D01*
X61949343Y19188395D01*
X61951351Y19182216D01*
X62045997Y19018284D01*
X62172659Y18877612D01*
X62325800Y18766349D01*
X62498727Y18689356D01*
X62683884Y18650000D01*
X62866673Y18650000D01*
X62873176Y18650000D01*
X63058333Y18689356D01*
X63231260Y18766349D01*
X63259851Y18787123D01*
X63319777Y18810127D01*
X63383172Y18800086D01*
X63520694Y18738856D01*
X63705851Y18699500D01*
X63888640Y18699500D01*
X63895143Y18699500D01*
X64080300Y18738856D01*
X64249814Y18814330D01*
X64300248Y18825050D01*
X64350683Y18814330D01*
X64520197Y18738856D01*
X64705354Y18699500D01*
X64888143Y18699500D01*
X64894646Y18699500D01*
X65079803Y18738856D01*
X65252730Y18815849D01*
X65405871Y18927112D01*
X65532533Y19067784D01*
X65606377Y19195687D01*
X65652535Y19241514D01*
X65715541Y19257672D01*
X66199685Y19250723D01*
X66246176Y19240954D01*
X66285583Y19214417D01*
X69250000Y16250000D01*
X69817804Y16250000D01*
X69824028Y16249834D01*
X69827127Y16249500D01*
X72699137Y16249501D01*
X72746590Y16240062D01*
X72786818Y16213182D01*
X73213681Y15786319D01*
X73240561Y15746091D01*
X73250000Y15698638D01*
X73250000Y13801362D01*
X73240561Y13753909D01*
X73213681Y13713681D01*
X72786319Y13286319D01*
X72746091Y13259439D01*
X72698638Y13250000D01*
X71457867Y13250000D01*
X71449021Y13250316D01*
X71379418Y13255294D01*
X71375000Y13255610D01*
X71370582Y13255294D01*
X71300979Y13250316D01*
X71292133Y13250000D01*
X69250000Y13250000D01*
X69241405Y13241648D01*
X69241403Y13241646D01*
X65755813Y9854242D01*
X65707991Y9825327D01*
X65652330Y9820347D01*
X65600134Y9840312D01*
X65562006Y9881167D01*
X65532533Y9932216D01*
X65501301Y9966902D01*
X65410220Y10068058D01*
X65410216Y10068062D01*
X65405871Y10072888D01*
X65400613Y10076708D01*
X65400611Y10076710D01*
X65257988Y10180331D01*
X65257987Y10180332D01*
X65252730Y10184151D01*
X65246792Y10186795D01*
X65085745Y10258499D01*
X65085740Y10258501D01*
X65079803Y10261144D01*
X65073444Y10262496D01*
X65073440Y10262497D01*
X64901008Y10299148D01*
X64901005Y10299149D01*
X64894646Y10300500D01*
X64705354Y10300500D01*
X64698995Y10299149D01*
X64698991Y10299148D01*
X64526559Y10262497D01*
X64526552Y10262495D01*
X64520197Y10261144D01*
X64514262Y10258502D01*
X64514254Y10258499D01*
X64353207Y10186795D01*
X64353202Y10186793D01*
X64347270Y10184151D01*
X64342016Y10180335D01*
X64342011Y10180331D01*
X64199388Y10076710D01*
X64199381Y10076705D01*
X64194129Y10072888D01*
X64142148Y10015159D01*
X64084179Y9978935D01*
X64015821Y9978935D01*
X63957851Y10015159D01*
X63905871Y10072888D01*
X63900613Y10076708D01*
X63900611Y10076710D01*
X63757988Y10180331D01*
X63757987Y10180332D01*
X63752730Y10184151D01*
X63746792Y10186795D01*
X63585745Y10258499D01*
X63585740Y10258501D01*
X63579803Y10261144D01*
X63573444Y10262496D01*
X63573440Y10262497D01*
X63401008Y10299148D01*
X63401005Y10299149D01*
X63394646Y10300500D01*
X63205354Y10300500D01*
X63198995Y10299149D01*
X63198991Y10299148D01*
X63026559Y10262497D01*
X63026552Y10262495D01*
X63020197Y10261144D01*
X63014262Y10258502D01*
X63014254Y10258499D01*
X62853210Y10186796D01*
X62853207Y10186795D01*
X62847270Y10184151D01*
X62842015Y10180334D01*
X62842013Y10180332D01*
X62830373Y10171875D01*
X62783270Y10150906D01*
X62731710Y10150907D01*
X62684608Y10171878D01*
X62617487Y10220644D01*
X62617484Y10220646D01*
X62612230Y10224463D01*
X62606292Y10227107D01*
X62445245Y10298811D01*
X62445240Y10298813D01*
X62439303Y10301456D01*
X62432944Y10302808D01*
X62432940Y10302809D01*
X62260508Y10339460D01*
X62260505Y10339461D01*
X62254146Y10340812D01*
X62064854Y10340812D01*
X62058495Y10339461D01*
X62058491Y10339460D01*
X61886059Y10302809D01*
X61886052Y10302807D01*
X61879697Y10301456D01*
X61873762Y10298814D01*
X61873754Y10298811D01*
X61712707Y10227107D01*
X61712702Y10227105D01*
X61706770Y10224463D01*
X61701516Y10220647D01*
X61701511Y10220643D01*
X61558888Y10117022D01*
X61558881Y10117017D01*
X61553629Y10113200D01*
X61549284Y10108375D01*
X61549279Y10108370D01*
X61431313Y9977356D01*
X61431308Y9977350D01*
X61426967Y9972528D01*
X61423722Y9966908D01*
X61423718Y9966902D01*
X61363154Y9862000D01*
X61317767Y9816613D01*
X61255767Y9800000D01*
X55924000Y9800000D01*
X55862000Y9816613D01*
X55816613Y9862000D01*
X55800000Y9924000D01*
X55800000Y19274208D01*
X55816911Y19336721D01*
X55863030Y19382183D01*
X55925778Y19398195D01*
X61820352Y19313584D01*
G37*
%TD.AperFunction*%
%TD*%
%TA.AperFunction,Conductor*%
%TO.N,/BRIDGE2/OUT*%
G36*
X71300979Y12749684D02*
G01*
X71375000Y12744390D01*
X71379418Y12744706D01*
X71449021Y12749684D01*
X71457867Y12750000D01*
X73126000Y12750000D01*
X73188000Y12733387D01*
X73233387Y12688000D01*
X73250000Y12626000D01*
X73250000Y6301940D01*
X73240372Y6254033D01*
X73212982Y6213566D01*
X72620634Y5630548D01*
X72608694Y5620207D01*
X72395256Y5457955D01*
X72395247Y5457948D01*
X72392580Y5455920D01*
X72390151Y5453620D01*
X72390139Y5453609D01*
X72139123Y5215834D01*
X72139108Y5215819D01*
X72136686Y5213524D01*
X72134523Y5210979D01*
X72134512Y5210966D01*
X71910673Y4947443D01*
X71910661Y4947429D01*
X71908499Y4944882D01*
X71906619Y4942110D01*
X71906615Y4942104D01*
X71884295Y4909186D01*
X71868647Y4890403D01*
X66936196Y35626D01*
X66896211Y9252D01*
X66849213Y0D01*
X55924000Y0D01*
X55862000Y16613D01*
X55816613Y62000D01*
X55800000Y124000D01*
X55800000Y8776000D01*
X55816613Y8838000D01*
X55862000Y8883387D01*
X55924000Y8900000D01*
X61379049Y8900000D01*
X61429484Y8889280D01*
X61471197Y8858973D01*
X61553629Y8767424D01*
X61706770Y8656161D01*
X61879697Y8579168D01*
X62064854Y8539812D01*
X62247643Y8539812D01*
X62254146Y8539812D01*
X62439303Y8579168D01*
X62612230Y8656161D01*
X62629118Y8668432D01*
X62676223Y8689406D01*
X62727786Y8689407D01*
X62774889Y8668437D01*
X62847270Y8615849D01*
X63020197Y8538856D01*
X63205354Y8499500D01*
X63388143Y8499500D01*
X63394646Y8499500D01*
X63579803Y8538856D01*
X63752730Y8615849D01*
X63905871Y8727112D01*
X63957851Y8784842D01*
X64015821Y8821065D01*
X64084179Y8821065D01*
X64142148Y8784842D01*
X64194129Y8727112D01*
X64347270Y8615849D01*
X64520197Y8538856D01*
X64705354Y8499500D01*
X64888143Y8499500D01*
X64894646Y8499500D01*
X65079803Y8538856D01*
X65252730Y8615849D01*
X65405871Y8727112D01*
X65524597Y8858972D01*
X65566314Y8889280D01*
X65616749Y8900000D01*
X65687682Y8900000D01*
X65700000Y8900000D01*
X69463585Y12713107D01*
X69504010Y12740405D01*
X69551837Y12750000D01*
X71292133Y12750000D01*
X71300979Y12749684D01*
G37*
%TD.AperFunction*%
%TD*%
%TA.AperFunction,Conductor*%
%TO.N,+BATT*%
G36*
X55188000Y29983387D02*
G01*
X55233387Y29938000D01*
X55250000Y29876000D01*
X55250000Y124000D01*
X55233387Y62000D01*
X55188000Y16613D01*
X55126000Y0D01*
X44874000Y0D01*
X44812000Y16613D01*
X44766613Y62000D01*
X44750000Y124000D01*
X44750000Y7483674D01*
X44750000Y7500000D01*
X44733674Y7500000D01*
X43567718Y7500000D01*
X43517283Y7510720D01*
X43475568Y7541028D01*
X43361189Y7668058D01*
X43361188Y7668059D01*
X43356840Y7672888D01*
X43351582Y7676708D01*
X43351580Y7676710D01*
X43208957Y7780331D01*
X43208956Y7780332D01*
X43203699Y7784151D01*
X43197761Y7786795D01*
X43036714Y7858499D01*
X43036709Y7858501D01*
X43030772Y7861144D01*
X43024413Y7862496D01*
X43024409Y7862497D01*
X42851977Y7899148D01*
X42851974Y7899149D01*
X42845615Y7900500D01*
X42656323Y7900500D01*
X42649964Y7899149D01*
X42649960Y7899148D01*
X42477528Y7862497D01*
X42477521Y7862495D01*
X42471166Y7861144D01*
X42465231Y7858502D01*
X42465223Y7858499D01*
X42304176Y7786795D01*
X42304171Y7786793D01*
X42298239Y7784151D01*
X42292985Y7780335D01*
X42292980Y7780331D01*
X42150357Y7676710D01*
X42150350Y7676705D01*
X42145098Y7672888D01*
X42140753Y7668063D01*
X42140748Y7668058D01*
X42026370Y7541028D01*
X41984655Y7510720D01*
X41934220Y7500000D01*
X40434357Y7500000D01*
X40370104Y7517946D01*
X40324448Y7566589D01*
X40310606Y7631849D01*
X40332583Y7694838D01*
X40379295Y7761951D01*
X40459540Y7948942D01*
X40461281Y7957416D01*
X40473569Y7991257D01*
X40495057Y8020138D01*
X40588105Y8113186D01*
X40628331Y8140062D01*
X40675783Y8149501D01*
X41206859Y8149501D01*
X41210008Y8149501D01*
X41312797Y8160001D01*
X41479334Y8215186D01*
X41628656Y8307288D01*
X41752712Y8431344D01*
X41844814Y8580666D01*
X41899999Y8747203D01*
X41910500Y8849991D01*
X41910499Y9085802D01*
X41925526Y9144969D01*
X41966964Y9189796D01*
X42024771Y9209419D01*
X42084932Y9199081D01*
X42220197Y9138856D01*
X42405354Y9099500D01*
X42588143Y9099500D01*
X42594646Y9099500D01*
X42779803Y9138856D01*
X42952730Y9215849D01*
X43105871Y9327112D01*
X43232533Y9467784D01*
X43327179Y9631716D01*
X43385674Y9811744D01*
X43405460Y10000000D01*
X43385674Y10188256D01*
X43327179Y10368284D01*
X43241628Y10516462D01*
X43225092Y10582789D01*
X43246215Y10647801D01*
X43298578Y10691739D01*
X43352730Y10715849D01*
X43505871Y10827112D01*
X43632533Y10967784D01*
X43727179Y11131716D01*
X43785674Y11311744D01*
X43805460Y11500000D01*
X43785674Y11688256D01*
X43727179Y11868284D01*
X43632533Y12032216D01*
X43505871Y12172888D01*
X43500613Y12176708D01*
X43500611Y12176710D01*
X43357988Y12280331D01*
X43357987Y12280332D01*
X43352730Y12284151D01*
X43346792Y12286795D01*
X43185745Y12358499D01*
X43185740Y12358501D01*
X43179803Y12361144D01*
X43173444Y12362496D01*
X43173440Y12362497D01*
X43001008Y12399148D01*
X43001005Y12399149D01*
X42994646Y12400500D01*
X42805354Y12400500D01*
X42798995Y12399149D01*
X42798991Y12399148D01*
X42626559Y12362497D01*
X42626552Y12362495D01*
X42620197Y12361144D01*
X42614262Y12358502D01*
X42614254Y12358499D01*
X42453207Y12286795D01*
X42453202Y12286793D01*
X42447270Y12284151D01*
X42442016Y12280335D01*
X42442011Y12280331D01*
X42299388Y12176710D01*
X42299381Y12176705D01*
X42294129Y12172888D01*
X42289784Y12168063D01*
X42289779Y12168058D01*
X42171813Y12037044D01*
X42171808Y12037038D01*
X42167467Y12032216D01*
X42164222Y12026596D01*
X42164218Y12026590D01*
X42076069Y11873911D01*
X42076066Y11873906D01*
X42072821Y11868284D01*
X42070815Y11862112D01*
X42070813Y11862106D01*
X42016333Y11694436D01*
X42016331Y11694427D01*
X42014326Y11688256D01*
X42013648Y11681806D01*
X42013646Y11681796D01*
X41997889Y11531864D01*
X41994540Y11500000D01*
X41995219Y11493540D01*
X42013646Y11318205D01*
X42013647Y11318197D01*
X42014326Y11311744D01*
X42016331Y11305572D01*
X42016333Y11305565D01*
X42070813Y11137895D01*
X42072821Y11131716D01*
X42076068Y11126092D01*
X42076069Y11126090D01*
X42158370Y10983540D01*
X42174907Y10917213D01*
X42153785Y10852201D01*
X42101420Y10808261D01*
X42047270Y10784151D01*
X42045189Y10782640D01*
X41994878Y10766978D01*
X41940869Y10774690D01*
X41895398Y10804835D01*
X41867266Y10851578D01*
X41861537Y10868868D01*
X41844814Y10919334D01*
X41752712Y11068656D01*
X41628656Y11192712D01*
X41622515Y11196500D01*
X41622511Y11196503D01*
X41485480Y11281023D01*
X41479334Y11284814D01*
X41448341Y11295084D01*
X41319225Y11337869D01*
X41319224Y11337870D01*
X41312797Y11339999D01*
X41306064Y11340687D01*
X41306059Y11340688D01*
X41213140Y11350181D01*
X41213123Y11350182D01*
X41210009Y11350500D01*
X41206860Y11350500D01*
X40413141Y11350500D01*
X40413121Y11350500D01*
X40409992Y11350499D01*
X40406860Y11350180D01*
X40406858Y11350179D01*
X40313938Y11340688D01*
X40313928Y11340687D01*
X40307203Y11339999D01*
X40300781Y11337872D01*
X40300776Y11337870D01*
X40147521Y11287086D01*
X40147517Y11287085D01*
X40140666Y11284814D01*
X40134522Y11281025D01*
X40134519Y11281023D01*
X39997488Y11196503D01*
X39997480Y11196497D01*
X39991344Y11192712D01*
X39986242Y11187611D01*
X39986238Y11187607D01*
X39872393Y11073762D01*
X39872389Y11073758D01*
X39867288Y11068656D01*
X39863503Y11062520D01*
X39863497Y11062512D01*
X39778977Y10925481D01*
X39775186Y10919334D01*
X39772915Y10912483D01*
X39772914Y10912479D01*
X39724700Y10766978D01*
X39720001Y10752797D01*
X39719313Y10746067D01*
X39719312Y10746060D01*
X39709819Y10653141D01*
X39709818Y10653123D01*
X39709500Y10650009D01*
X39709500Y10646860D01*
X39709500Y10115783D01*
X39700061Y10068330D01*
X39673181Y10028102D01*
X38802646Y9157568D01*
X38800398Y9155376D01*
X38736947Y9095059D01*
X38733359Y9089905D01*
X38733352Y9089896D01*
X38703244Y9046639D01*
X38697574Y9039119D01*
X38664274Y8998279D01*
X38664271Y8998276D01*
X38660302Y8993407D01*
X38657396Y8987845D01*
X38657388Y8987832D01*
X38646210Y8966434D01*
X38638082Y8953018D01*
X38624300Y8933216D01*
X38624295Y8933208D01*
X38620705Y8928049D01*
X38618228Y8922279D01*
X38618225Y8922272D01*
X38597439Y8873835D01*
X38593399Y8865329D01*
X38566091Y8813049D01*
X38564363Y8807011D01*
X38564360Y8807003D01*
X38557720Y8783799D01*
X38552459Y8769022D01*
X38542942Y8746843D01*
X38540460Y8741058D01*
X38539194Y8734903D01*
X38539192Y8734893D01*
X38528587Y8683288D01*
X38526342Y8674141D01*
X38511842Y8623466D01*
X38511839Y8623453D01*
X38510113Y8617418D01*
X38509636Y8611158D01*
X38509635Y8611151D01*
X38507801Y8587071D01*
X38505622Y8571537D01*
X38500766Y8547903D01*
X38499500Y8541741D01*
X38499500Y8535450D01*
X38499500Y8482759D01*
X38499142Y8473344D01*
X38495140Y8420795D01*
X38495140Y8420790D01*
X38494663Y8414524D01*
X38495456Y8408291D01*
X38495457Y8408285D01*
X38498506Y8384349D01*
X38499500Y8368683D01*
X38499500Y8199258D01*
X38499816Y8196147D01*
X38499817Y8196135D01*
X38508253Y8113183D01*
X38514926Y8047562D01*
X38516808Y8041564D01*
X38572990Y7862497D01*
X38575841Y7853412D01*
X38663856Y7694838D01*
X38669774Y7684177D01*
X38685345Y7622429D01*
X38668215Y7561095D01*
X38622901Y7516352D01*
X38561355Y7500000D01*
X34516326Y7500000D01*
X34500000Y7500000D01*
X34500000Y7483674D01*
X34500000Y5374000D01*
X34483387Y5312000D01*
X34438000Y5266613D01*
X34376000Y5250000D01*
X17571728Y5250000D01*
X17521293Y5260720D01*
X17479578Y5291028D01*
X17410220Y5368058D01*
X17410219Y5368059D01*
X17405871Y5372888D01*
X17400613Y5376708D01*
X17400611Y5376710D01*
X17257988Y5480331D01*
X17257987Y5480332D01*
X17252730Y5484151D01*
X17246792Y5486795D01*
X17085745Y5558499D01*
X17085740Y5558501D01*
X17079803Y5561144D01*
X17073444Y5562496D01*
X17073440Y5562497D01*
X16901008Y5599148D01*
X16901005Y5599149D01*
X16894646Y5600500D01*
X16705354Y5600500D01*
X16698995Y5599149D01*
X16698991Y5599148D01*
X16526559Y5562497D01*
X16526552Y5562495D01*
X16520197Y5561144D01*
X16514262Y5558502D01*
X16514254Y5558499D01*
X16353207Y5486795D01*
X16353202Y5486793D01*
X16347270Y5484151D01*
X16342016Y5480335D01*
X16342011Y5480331D01*
X16199388Y5376710D01*
X16199381Y5376705D01*
X16194129Y5372888D01*
X16189784Y5368063D01*
X16189779Y5368058D01*
X16120422Y5291028D01*
X16078707Y5260720D01*
X16028272Y5250000D01*
X10801362Y5250000D01*
X10753909Y5259439D01*
X10713681Y5286319D01*
X9536319Y6463681D01*
X9509439Y6503909D01*
X9500000Y6551362D01*
X9500000Y10698638D01*
X9509439Y10746091D01*
X9536319Y10786319D01*
X10042747Y11292747D01*
X25994435Y11292747D01*
X25995215Y11285824D01*
X26013212Y11126090D01*
X26014632Y11113492D01*
X26016928Y11106928D01*
X26016930Y11106923D01*
X26060104Y10983540D01*
X26074211Y10943225D01*
X26077912Y10937335D01*
X26159014Y10808261D01*
X26170184Y10790485D01*
X26297738Y10662931D01*
X26450478Y10566958D01*
X26620745Y10507379D01*
X26800000Y10487182D01*
X26979255Y10507379D01*
X27149522Y10566958D01*
X27302262Y10662931D01*
X27429816Y10790485D01*
X27525789Y10943225D01*
X27585368Y11113492D01*
X27605565Y11292747D01*
X27585368Y11472002D01*
X27525789Y11642269D01*
X27429816Y11795009D01*
X27302262Y11922563D01*
X27179022Y12000000D01*
X33244935Y12000000D01*
X33245715Y11993077D01*
X33245998Y11990561D01*
X33265132Y11820745D01*
X33267428Y11814181D01*
X33267430Y11814176D01*
X33322413Y11657044D01*
X33324711Y11650478D01*
X33328412Y11644588D01*
X33415203Y11506460D01*
X33420684Y11497738D01*
X33548238Y11370184D01*
X33700978Y11274211D01*
X33871245Y11214632D01*
X34050500Y11194435D01*
X34229755Y11214632D01*
X34400022Y11274211D01*
X34400035Y11274173D01*
X34450248Y11285636D01*
X34500467Y11274174D01*
X34500481Y11274211D01*
X34670748Y11214632D01*
X34850003Y11194435D01*
X35029258Y11214632D01*
X35199525Y11274211D01*
X35213564Y11283033D01*
X35265655Y11301262D01*
X35320495Y11295085D01*
X35469752Y11242857D01*
X35649007Y11222660D01*
X35828262Y11242857D01*
X35998529Y11302436D01*
X36151269Y11398409D01*
X36278823Y11525963D01*
X36374796Y11678703D01*
X36434375Y11848970D01*
X36454572Y12028225D01*
X36434375Y12207480D01*
X36374796Y12377747D01*
X36278823Y12530487D01*
X36151269Y12658041D01*
X35998529Y12754014D01*
X35991966Y12756311D01*
X35991963Y12756312D01*
X35834831Y12811295D01*
X35834826Y12811297D01*
X35828262Y12813593D01*
X35821342Y12814373D01*
X35821341Y12814373D01*
X35655930Y12833010D01*
X35649007Y12833790D01*
X35642084Y12833010D01*
X35476672Y12814373D01*
X35476669Y12814373D01*
X35469752Y12813593D01*
X35463189Y12811297D01*
X35463182Y12811295D01*
X35306050Y12756312D01*
X35306043Y12756310D01*
X35299485Y12754014D01*
X35293600Y12750317D01*
X35293585Y12750309D01*
X35285434Y12745187D01*
X35233348Y12726963D01*
X35178514Y12733142D01*
X35035830Y12783069D01*
X35035824Y12783071D01*
X35029258Y12785368D01*
X35022338Y12786148D01*
X35022337Y12786148D01*
X34856926Y12804785D01*
X34850003Y12805565D01*
X34843080Y12804785D01*
X34677668Y12786148D01*
X34677665Y12786148D01*
X34670748Y12785368D01*
X34664185Y12783072D01*
X34664178Y12783070D01*
X34507047Y12728087D01*
X34507043Y12728086D01*
X34500805Y12725903D01*
X34500803Y12725902D01*
X34500481Y12725789D01*
X34500468Y12725826D01*
X34450248Y12714365D01*
X34400034Y12725826D01*
X34400022Y12725789D01*
X34393456Y12728087D01*
X34393453Y12728088D01*
X34236324Y12783070D01*
X34236319Y12783072D01*
X34229755Y12785368D01*
X34222835Y12786148D01*
X34222834Y12786148D01*
X34057423Y12804785D01*
X34050500Y12805565D01*
X34043577Y12804785D01*
X33878165Y12786148D01*
X33878162Y12786148D01*
X33871245Y12785368D01*
X33864682Y12783072D01*
X33864675Y12783070D01*
X33707543Y12728087D01*
X33707536Y12728085D01*
X33700978Y12725789D01*
X33695090Y12722090D01*
X33695087Y12722088D01*
X33554138Y12633524D01*
X33554133Y12633521D01*
X33548238Y12629816D01*
X33543313Y12624892D01*
X33543309Y12624888D01*
X33425612Y12507191D01*
X33425608Y12507187D01*
X33420684Y12502262D01*
X33416979Y12496367D01*
X33416976Y12496362D01*
X33328412Y12355413D01*
X33328410Y12355410D01*
X33324711Y12349522D01*
X33322415Y12342964D01*
X33322413Y12342957D01*
X33267430Y12185825D01*
X33267428Y12185818D01*
X33265132Y12179255D01*
X33244935Y12000000D01*
X27179022Y12000000D01*
X27149522Y12018536D01*
X27142959Y12020833D01*
X27142956Y12020834D01*
X26985824Y12075817D01*
X26985819Y12075819D01*
X26979255Y12078115D01*
X26972335Y12078895D01*
X26972334Y12078895D01*
X26806923Y12097532D01*
X26800000Y12098312D01*
X26793077Y12097532D01*
X26627665Y12078895D01*
X26627662Y12078895D01*
X26620745Y12078115D01*
X26614182Y12075819D01*
X26614175Y12075817D01*
X26457043Y12020834D01*
X26457036Y12020832D01*
X26450478Y12018536D01*
X26444590Y12014837D01*
X26444587Y12014835D01*
X26303638Y11926271D01*
X26303633Y11926268D01*
X26297738Y11922563D01*
X26292813Y11917639D01*
X26292809Y11917635D01*
X26175112Y11799938D01*
X26175108Y11799934D01*
X26170184Y11795009D01*
X26166479Y11789114D01*
X26166476Y11789109D01*
X26077912Y11648160D01*
X26077910Y11648157D01*
X26074211Y11642269D01*
X26071915Y11635711D01*
X26071913Y11635704D01*
X26016930Y11478572D01*
X26016928Y11478565D01*
X26014632Y11472002D01*
X25994435Y11292747D01*
X10042747Y11292747D01*
X10713681Y11963681D01*
X10753909Y11990561D01*
X10801362Y12000000D01*
X13237789Y12000000D01*
X13250000Y12000000D01*
X15572321Y14322322D01*
X15600828Y14343609D01*
X15634200Y14355921D01*
X15782310Y14387402D01*
X15955237Y14464395D01*
X16108378Y14575658D01*
X16235040Y14716330D01*
X16329686Y14880262D01*
X16340751Y14914318D01*
X16366531Y14958971D01*
X16408246Y14989279D01*
X16458682Y15000000D01*
X16973711Y15000000D01*
X17039682Y14980995D01*
X17050478Y14974211D01*
X17220745Y14914632D01*
X17400000Y14894435D01*
X17579255Y14914632D01*
X17749522Y14974211D01*
X17760317Y14980995D01*
X17826289Y15000000D01*
X29779514Y15000000D01*
X29829950Y14989279D01*
X29901735Y14957318D01*
X30086892Y14917962D01*
X30269681Y14917962D01*
X30276184Y14917962D01*
X30461341Y14957318D01*
X30634268Y15034311D01*
X30787409Y15145574D01*
X30914071Y15286246D01*
X31008717Y15450178D01*
X31027693Y15508583D01*
X31057939Y15557940D01*
X32499999Y17000000D01*
X40344540Y17000000D01*
X40345219Y16993540D01*
X40363646Y16818205D01*
X40363647Y16818197D01*
X40364326Y16811744D01*
X40366331Y16805572D01*
X40366333Y16805565D01*
X40417035Y16649522D01*
X40422821Y16631716D01*
X40426068Y16626092D01*
X40426069Y16626090D01*
X40470275Y16549522D01*
X40517467Y16467784D01*
X40644129Y16327112D01*
X40797270Y16215849D01*
X40970197Y16138856D01*
X41155354Y16099500D01*
X41338143Y16099500D01*
X41344646Y16099500D01*
X41529803Y16138856D01*
X41702730Y16215849D01*
X41855871Y16327112D01*
X41982533Y16467784D01*
X42077179Y16631716D01*
X42135674Y16811744D01*
X42155460Y17000000D01*
X42135674Y17188256D01*
X42077179Y17368284D01*
X41982533Y17532216D01*
X41943129Y17575978D01*
X41860220Y17668058D01*
X41860219Y17668059D01*
X41855871Y17672888D01*
X41850613Y17676708D01*
X41850611Y17676710D01*
X41707988Y17780331D01*
X41707987Y17780332D01*
X41702730Y17784151D01*
X41638216Y17812875D01*
X41535745Y17858499D01*
X41535740Y17858501D01*
X41529803Y17861144D01*
X41523444Y17862496D01*
X41523440Y17862497D01*
X41351008Y17899148D01*
X41351005Y17899149D01*
X41344646Y17900500D01*
X41155354Y17900500D01*
X41148995Y17899149D01*
X41148991Y17899148D01*
X40976559Y17862497D01*
X40976552Y17862495D01*
X40970197Y17861144D01*
X40964262Y17858502D01*
X40964254Y17858499D01*
X40803207Y17786795D01*
X40803202Y17786793D01*
X40797270Y17784151D01*
X40792016Y17780335D01*
X40792011Y17780331D01*
X40649388Y17676710D01*
X40649381Y17676705D01*
X40644129Y17672888D01*
X40639784Y17668063D01*
X40639779Y17668058D01*
X40521813Y17537044D01*
X40521808Y17537038D01*
X40517467Y17532216D01*
X40514222Y17526596D01*
X40514218Y17526590D01*
X40426069Y17373911D01*
X40426066Y17373906D01*
X40422821Y17368284D01*
X40420815Y17362112D01*
X40420813Y17362106D01*
X40366333Y17194436D01*
X40366331Y17194427D01*
X40364326Y17188256D01*
X40363648Y17181806D01*
X40363646Y17181796D01*
X40345962Y17013536D01*
X40344540Y17000000D01*
X32499999Y17000000D01*
X34507302Y19007303D01*
X34542566Y19031995D01*
X34690203Y19100839D01*
X34883775Y19236379D01*
X35050869Y19403473D01*
X35186409Y19597045D01*
X35255253Y19744682D01*
X35279945Y19779946D01*
X35458321Y19958322D01*
X35512339Y19989982D01*
X35574945Y19991212D01*
X35630169Y19961695D01*
X35663928Y19908958D01*
X35672821Y19881590D01*
X35676068Y19875966D01*
X35676069Y19875964D01*
X35743048Y19759952D01*
X35767467Y19717658D01*
X35771811Y19712833D01*
X35771813Y19712831D01*
X35876068Y19597045D01*
X35894129Y19576986D01*
X36047270Y19465723D01*
X36139395Y19424706D01*
X36207383Y19394435D01*
X36220197Y19388730D01*
X36405354Y19349374D01*
X36588143Y19349374D01*
X36594646Y19349374D01*
X36779803Y19388730D01*
X36952730Y19465723D01*
X37105871Y19576986D01*
X37232533Y19717658D01*
X37327179Y19881590D01*
X37385674Y20061618D01*
X37393802Y20138961D01*
X37414323Y20195340D01*
X37458909Y20235485D01*
X37517124Y20250000D01*
X38313212Y20250000D01*
X38375212Y20233387D01*
X38420599Y20188000D01*
X38437212Y20126000D01*
X38420599Y20064000D01*
X38376069Y19986873D01*
X38376066Y19986868D01*
X38372821Y19981246D01*
X38370815Y19975074D01*
X38370813Y19975068D01*
X38316333Y19807398D01*
X38316331Y19807389D01*
X38314326Y19801218D01*
X38313648Y19794768D01*
X38313646Y19794758D01*
X38305036Y19712831D01*
X38294540Y19612962D01*
X38295219Y19606502D01*
X38313646Y19431167D01*
X38313647Y19431159D01*
X38314326Y19424706D01*
X38316331Y19418534D01*
X38316333Y19418527D01*
X38351714Y19309638D01*
X38372821Y19244678D01*
X38376068Y19239054D01*
X38376069Y19239052D01*
X38454073Y19103944D01*
X38467467Y19080746D01*
X38471811Y19075921D01*
X38471813Y19075919D01*
X38539297Y19000971D01*
X38594129Y18940074D01*
X38747270Y18828811D01*
X38920197Y18751818D01*
X39105354Y18712462D01*
X39288143Y18712462D01*
X39294646Y18712462D01*
X39479803Y18751818D01*
X39652730Y18828811D01*
X39805871Y18940074D01*
X39932533Y19080746D01*
X40027179Y19244678D01*
X40085674Y19424706D01*
X40105460Y19612962D01*
X40085674Y19801218D01*
X40027179Y19981246D01*
X39979400Y20064001D01*
X39962788Y20126000D01*
X39979401Y20188000D01*
X40024788Y20233387D01*
X40086788Y20250000D01*
X41487789Y20250000D01*
X41500000Y20250000D01*
X43750000Y22500000D01*
X43750000Y27075500D01*
X43766613Y27137500D01*
X43812000Y27182887D01*
X43874000Y27199500D01*
X44390915Y27199501D01*
X44400008Y27199501D01*
X44502797Y27210001D01*
X44669334Y27265186D01*
X44818656Y27357288D01*
X44942712Y27481344D01*
X45034814Y27630666D01*
X45089999Y27797203D01*
X45090624Y27803325D01*
X45119703Y27860216D01*
X45173541Y27895103D01*
X45237609Y27898415D01*
X45294757Y27869266D01*
X45329690Y27815458D01*
X45345180Y27767784D01*
X45372821Y27682716D01*
X45376068Y27677092D01*
X45376069Y27677090D01*
X45460000Y27531716D01*
X45467467Y27518784D01*
X45471811Y27513959D01*
X45471813Y27513957D01*
X45495645Y27487489D01*
X45594129Y27378112D01*
X45747270Y27266849D01*
X45920197Y27189856D01*
X46105354Y27150500D01*
X46288143Y27150500D01*
X46294646Y27150500D01*
X46479803Y27189856D01*
X46652730Y27266849D01*
X46805871Y27378112D01*
X46932533Y27518784D01*
X47027179Y27682716D01*
X47085674Y27862744D01*
X47105460Y28051000D01*
X47085674Y28239256D01*
X47027179Y28419284D01*
X46932533Y28583216D01*
X46910433Y28607760D01*
X46810220Y28719058D01*
X46810219Y28719059D01*
X46805871Y28723888D01*
X46800613Y28727708D01*
X46800611Y28727710D01*
X46657988Y28831331D01*
X46657987Y28831332D01*
X46652730Y28835151D01*
X46646792Y28837795D01*
X46485745Y28909499D01*
X46485740Y28909501D01*
X46479803Y28912144D01*
X46473444Y28913496D01*
X46473440Y28913497D01*
X46301008Y28950148D01*
X46301005Y28950149D01*
X46294646Y28951500D01*
X46105354Y28951500D01*
X46098995Y28950149D01*
X46098991Y28950148D01*
X45926559Y28913497D01*
X45926552Y28913495D01*
X45920197Y28912144D01*
X45914262Y28909502D01*
X45914254Y28909499D01*
X45753207Y28837795D01*
X45753202Y28837793D01*
X45747270Y28835151D01*
X45742016Y28831335D01*
X45742011Y28831331D01*
X45599388Y28727710D01*
X45599381Y28727705D01*
X45594129Y28723888D01*
X45589784Y28719063D01*
X45589779Y28719058D01*
X45471813Y28588044D01*
X45471808Y28588038D01*
X45467467Y28583216D01*
X45464222Y28577596D01*
X45464218Y28577590D01*
X45376069Y28424911D01*
X45376066Y28424906D01*
X45372821Y28419284D01*
X45370815Y28413111D01*
X45370814Y28413108D01*
X45342430Y28325752D01*
X45303539Y28268527D01*
X45240040Y28241049D01*
X45171702Y28251873D01*
X45119802Y28297629D01*
X45100499Y28364069D01*
X45100499Y29300008D01*
X45089999Y29402797D01*
X45034814Y29569334D01*
X44942712Y29718656D01*
X44873049Y29788319D01*
X44842799Y29837682D01*
X44838257Y29895398D01*
X44860412Y29948885D01*
X44904435Y29986485D01*
X44960730Y30000000D01*
X55126000Y30000000D01*
X55188000Y29983387D01*
G37*
%TD.AperFunction*%
%TD*%
M02*
