%TF.GenerationSoftware,KiCad,Pcbnew,(7.0.0)*%
%TF.CreationDate,2023-06-11T18:09:50+09:00*%
%TF.ProjectId,rMDU,724d4455-2e6b-4696-9361-645f70636258,rev?*%
%TF.SameCoordinates,Original*%
%TF.FileFunction,Legend,Top*%
%TF.FilePolarity,Positive*%
%FSLAX46Y46*%
G04 Gerber Fmt 4.6, Leading zero omitted, Abs format (unit mm)*
G04 Created by KiCad (PCBNEW (7.0.0)) date 2023-06-11 18:09:50*
%MOMM*%
%LPD*%
G01*
G04 APERTURE LIST*
G04 Aperture macros list*
%AMRoundRect*
0 Rectangle with rounded corners*
0 $1 Rounding radius*
0 $2 $3 $4 $5 $6 $7 $8 $9 X,Y pos of 4 corners*
0 Add a 4 corners polygon primitive as box body*
4,1,4,$2,$3,$4,$5,$6,$7,$8,$9,$2,$3,0*
0 Add four circle primitives for the rounded corners*
1,1,$1+$1,$2,$3*
1,1,$1+$1,$4,$5*
1,1,$1+$1,$6,$7*
1,1,$1+$1,$8,$9*
0 Add four rect primitives between the rounded corners*
20,1,$1+$1,$2,$3,$4,$5,0*
20,1,$1+$1,$4,$5,$6,$7,0*
20,1,$1+$1,$6,$7,$8,$9,0*
20,1,$1+$1,$8,$9,$2,$3,0*%
%AMRotRect*
0 Rectangle, with rotation*
0 The origin of the aperture is its center*
0 $1 length*
0 $2 width*
0 $3 Rotation angle, in degrees counterclockwise*
0 Add horizontal line*
21,1,$1,$2,0,0,$3*%
%AMFreePoly0*
4,1,17,2.675000,1.605000,1.875000,1.605000,1.875000,0.935000,2.675000,0.935000,2.675000,0.335000,1.875000,0.335000,1.875000,-0.335000,2.675000,-0.335000,2.675000,-0.935000,1.875000,-0.935000,1.875000,-1.605000,2.675000,-1.605000,2.675000,-2.205000,-1.875000,-2.205000,-1.875000,2.205000,2.675000,2.205000,2.675000,1.605000,2.675000,1.605000,$1*%
%AMFreePoly1*
4,1,9,3.862500,-0.866500,0.737500,-0.866500,0.737500,-0.450000,-0.737500,-0.450000,-0.737500,0.450000,0.737500,0.450000,0.737500,0.866500,3.862500,0.866500,3.862500,-0.866500,3.862500,-0.866500,$1*%
G04 Aperture macros list end*
%ADD10C,0.150000*%
%ADD11C,0.120000*%
%ADD12C,0.100000*%
%ADD13RoundRect,0.237500X-0.237500X0.250000X-0.237500X-0.250000X0.237500X-0.250000X0.237500X0.250000X0*%
%ADD14RoundRect,0.237500X-0.237500X0.300000X-0.237500X-0.300000X0.237500X-0.300000X0.237500X0.300000X0*%
%ADD15RoundRect,0.250000X0.337500X0.475000X-0.337500X0.475000X-0.337500X-0.475000X0.337500X-0.475000X0*%
%ADD16RoundRect,0.237500X0.300000X0.237500X-0.300000X0.237500X-0.300000X-0.237500X0.300000X-0.237500X0*%
%ADD17R,0.400000X0.650000*%
%ADD18RoundRect,0.125000X-0.353553X-0.530330X0.530330X0.353553X0.353553X0.530330X-0.530330X-0.353553X0*%
%ADD19RoundRect,0.125000X0.353553X-0.530330X0.530330X-0.353553X-0.353553X0.530330X-0.530330X0.353553X0*%
%ADD20FreePoly0,180.000000*%
%ADD21R,0.850000X0.500000*%
%ADD22RoundRect,0.150000X0.150000X-0.825000X0.150000X0.825000X-0.150000X0.825000X-0.150000X-0.825000X0*%
%ADD23RoundRect,0.237500X-0.300000X-0.237500X0.300000X-0.237500X0.300000X0.237500X-0.300000X0.237500X0*%
%ADD24RoundRect,0.237500X0.237500X-0.300000X0.237500X0.300000X-0.237500X0.300000X-0.237500X-0.300000X0*%
%ADD25RoundRect,0.237500X0.237500X-0.250000X0.237500X0.250000X-0.237500X0.250000X-0.237500X-0.250000X0*%
%ADD26RoundRect,0.250000X0.475000X-0.337500X0.475000X0.337500X-0.475000X0.337500X-0.475000X-0.337500X0*%
%ADD27R,1.500000X1.000000*%
%ADD28RoundRect,0.250000X-0.337500X-0.475000X0.337500X-0.475000X0.337500X0.475000X-0.337500X0.475000X0*%
%ADD29R,1.300000X0.900000*%
%ADD30FreePoly1,180.000000*%
%ADD31R,0.300000X1.400000*%
%ADD32C,5.500000*%
%ADD33RoundRect,0.112500X-0.187500X-0.112500X0.187500X-0.112500X0.187500X0.112500X-0.187500X0.112500X0*%
%ADD34R,0.800000X0.500000*%
%ADD35R,0.800000X0.400000*%
%ADD36RotRect,0.400000X3.200000X315.000000*%
%ADD37RoundRect,0.250000X-0.475000X0.337500X-0.475000X-0.337500X0.475000X-0.337500X0.475000X0.337500X0*%
%ADD38R,1.400000X0.300000*%
%ADD39RoundRect,0.150000X-0.512500X-0.150000X0.512500X-0.150000X0.512500X0.150000X-0.512500X0.150000X0*%
%ADD40RoundRect,0.250000X-0.097227X0.574524X-0.574524X0.097227X0.097227X-0.574524X0.574524X-0.097227X0*%
%ADD41RoundRect,0.225000X0.225000X-0.375000X0.225000X0.375000X-0.225000X0.375000X-0.225000X-0.375000X0*%
%ADD42RoundRect,0.237500X-0.035355X-0.371231X0.371231X0.035355X0.035355X0.371231X-0.371231X-0.035355X0*%
%ADD43RoundRect,0.250000X-0.400000X-0.625000X0.400000X-0.625000X0.400000X0.625000X-0.400000X0.625000X0*%
%ADD44RoundRect,0.112500X0.187500X0.112500X-0.187500X0.112500X-0.187500X-0.112500X0.187500X-0.112500X0*%
%ADD45O,2.800000X2.000000*%
%ADD46RoundRect,0.250000X-0.600000X-0.725000X0.600000X-0.725000X0.600000X0.725000X-0.600000X0.725000X0*%
%ADD47O,1.700000X1.950000*%
%ADD48C,1.400000*%
%ADD49R,3.000000X3.000000*%
%ADD50C,3.000000*%
%ADD51C,0.650000*%
%ADD52O,1.000000X1.600000*%
%ADD53O,1.000000X2.100000*%
%ADD54C,2.400000*%
%ADD55C,1.200000*%
G04 APERTURE END LIST*
D10*
X28228330Y17020209D02*
X27992627Y17255911D01*
X27622238Y16885522D02*
X28329345Y17592628D01*
X28329345Y17592628D02*
X28666062Y17255911D01*
X28868093Y17053880D02*
X29305826Y16616148D01*
X29305826Y16616148D02*
X28800750Y16582476D01*
X28800750Y16582476D02*
X28901765Y16481461D01*
X28901765Y16481461D02*
X28935437Y16380445D01*
X28935437Y16380445D02*
X28935437Y16313102D01*
X28935437Y16313102D02*
X28901765Y16212087D01*
X28901765Y16212087D02*
X28733406Y16043728D01*
X28733406Y16043728D02*
X28632391Y16010056D01*
X28632391Y16010056D02*
X28565047Y16010056D01*
X28565047Y16010056D02*
X28464032Y16043728D01*
X28464032Y16043728D02*
X28262002Y16245758D01*
X28262002Y16245758D02*
X28228330Y16346774D01*
X28228330Y16346774D02*
X28228330Y16414117D01*
X29743559Y16178415D02*
X29810902Y16111071D01*
X29810902Y16111071D02*
X29844574Y16010056D01*
X29844574Y16010056D02*
X29844574Y15942712D01*
X29844574Y15942712D02*
X29810902Y15841697D01*
X29810902Y15841697D02*
X29709887Y15673338D01*
X29709887Y15673338D02*
X29541528Y15504980D01*
X29541528Y15504980D02*
X29373169Y15403964D01*
X29373169Y15403964D02*
X29272154Y15370293D01*
X29272154Y15370293D02*
X29204811Y15370293D01*
X29204811Y15370293D02*
X29103795Y15403964D01*
X29103795Y15403964D02*
X29036452Y15471308D01*
X29036452Y15471308D02*
X29002780Y15572323D01*
X29002780Y15572323D02*
X29002780Y15639667D01*
X29002780Y15639667D02*
X29036452Y15740682D01*
X29036452Y15740682D02*
X29137467Y15909041D01*
X29137467Y15909041D02*
X29305826Y16077399D01*
X29305826Y16077399D02*
X29474185Y16178415D01*
X29474185Y16178415D02*
X29575200Y16212086D01*
X29575200Y16212086D02*
X29642543Y16212086D01*
X29642543Y16212086D02*
X29743559Y16178415D01*
X30214963Y15707010D02*
X30652696Y15269277D01*
X30652696Y15269277D02*
X30147620Y15235606D01*
X30147620Y15235606D02*
X30248635Y15134590D01*
X30248635Y15134590D02*
X30282307Y15033575D01*
X30282307Y15033575D02*
X30282307Y14966232D01*
X30282307Y14966232D02*
X30248635Y14865216D01*
X30248635Y14865216D02*
X30080276Y14696858D01*
X30080276Y14696858D02*
X29979261Y14663186D01*
X29979261Y14663186D02*
X29911917Y14663186D01*
X29911917Y14663186D02*
X29810902Y14696858D01*
X29810902Y14696858D02*
X29608872Y14898888D01*
X29608872Y14898888D02*
X29575200Y14999903D01*
X29575200Y14999903D02*
X29575200Y15067247D01*
X38142857Y20517620D02*
X38761904Y20517620D01*
X38761904Y20517620D02*
X38428571Y20136667D01*
X38428571Y20136667D02*
X38571428Y20136667D01*
X38571428Y20136667D02*
X38666666Y20089048D01*
X38666666Y20089048D02*
X38714285Y20041429D01*
X38714285Y20041429D02*
X38761904Y19946191D01*
X38761904Y19946191D02*
X38761904Y19708096D01*
X38761904Y19708096D02*
X38714285Y19612858D01*
X38714285Y19612858D02*
X38666666Y19565239D01*
X38666666Y19565239D02*
X38571428Y19517620D01*
X38571428Y19517620D02*
X38285714Y19517620D01*
X38285714Y19517620D02*
X38190476Y19565239D01*
X38190476Y19565239D02*
X38142857Y19612858D01*
X39047619Y20517620D02*
X39380952Y19517620D01*
X39380952Y19517620D02*
X39714285Y20517620D01*
X39952381Y20517620D02*
X40571428Y20517620D01*
X40571428Y20517620D02*
X40238095Y20136667D01*
X40238095Y20136667D02*
X40380952Y20136667D01*
X40380952Y20136667D02*
X40476190Y20089048D01*
X40476190Y20089048D02*
X40523809Y20041429D01*
X40523809Y20041429D02*
X40571428Y19946191D01*
X40571428Y19946191D02*
X40571428Y19708096D01*
X40571428Y19708096D02*
X40523809Y19612858D01*
X40523809Y19612858D02*
X40476190Y19565239D01*
X40476190Y19565239D02*
X40380952Y19517620D01*
X40380952Y19517620D02*
X40095238Y19517620D01*
X40095238Y19517620D02*
X40000000Y19565239D01*
X40000000Y19565239D02*
X39952381Y19612858D01*
X38714285Y23317620D02*
X38238095Y23317620D01*
X38238095Y23317620D02*
X38190476Y22841429D01*
X38190476Y22841429D02*
X38238095Y22889048D01*
X38238095Y22889048D02*
X38333333Y22936667D01*
X38333333Y22936667D02*
X38571428Y22936667D01*
X38571428Y22936667D02*
X38666666Y22889048D01*
X38666666Y22889048D02*
X38714285Y22841429D01*
X38714285Y22841429D02*
X38761904Y22746191D01*
X38761904Y22746191D02*
X38761904Y22508096D01*
X38761904Y22508096D02*
X38714285Y22412858D01*
X38714285Y22412858D02*
X38666666Y22365239D01*
X38666666Y22365239D02*
X38571428Y22317620D01*
X38571428Y22317620D02*
X38333333Y22317620D01*
X38333333Y22317620D02*
X38238095Y22365239D01*
X38238095Y22365239D02*
X38190476Y22412858D01*
X39047619Y23317620D02*
X39380952Y22317620D01*
X39380952Y22317620D02*
X39714285Y23317620D01*
X40238095Y23317620D02*
X40333333Y23317620D01*
X40333333Y23317620D02*
X40428571Y23270000D01*
X40428571Y23270000D02*
X40476190Y23222381D01*
X40476190Y23222381D02*
X40523809Y23127143D01*
X40523809Y23127143D02*
X40571428Y22936667D01*
X40571428Y22936667D02*
X40571428Y22698572D01*
X40571428Y22698572D02*
X40523809Y22508096D01*
X40523809Y22508096D02*
X40476190Y22412858D01*
X40476190Y22412858D02*
X40428571Y22365239D01*
X40428571Y22365239D02*
X40333333Y22317620D01*
X40333333Y22317620D02*
X40238095Y22317620D01*
X40238095Y22317620D02*
X40142857Y22365239D01*
X40142857Y22365239D02*
X40095238Y22412858D01*
X40095238Y22412858D02*
X40047619Y22508096D01*
X40047619Y22508096D02*
X40000000Y22698572D01*
X40000000Y22698572D02*
X40000000Y22936667D01*
X40000000Y22936667D02*
X40047619Y23127143D01*
X40047619Y23127143D02*
X40095238Y23222381D01*
X40095238Y23222381D02*
X40142857Y23270000D01*
X40142857Y23270000D02*
X40238095Y23317620D01*
D11*
%TO.C,R18*%
X3293904Y16885715D02*
X2912952Y16619048D01*
X3293904Y16428572D02*
X2493904Y16428572D01*
X2493904Y16428572D02*
X2493904Y16733334D01*
X2493904Y16733334D02*
X2532000Y16809524D01*
X2532000Y16809524D02*
X2570095Y16847619D01*
X2570095Y16847619D02*
X2646285Y16885715D01*
X2646285Y16885715D02*
X2760571Y16885715D01*
X2760571Y16885715D02*
X2836761Y16847619D01*
X2836761Y16847619D02*
X2874857Y16809524D01*
X2874857Y16809524D02*
X2912952Y16733334D01*
X2912952Y16733334D02*
X2912952Y16428572D01*
X3293904Y17647619D02*
X3293904Y17190476D01*
X3293904Y17419048D02*
X2493904Y17419048D01*
X2493904Y17419048D02*
X2608190Y17342857D01*
X2608190Y17342857D02*
X2684380Y17266667D01*
X2684380Y17266667D02*
X2722476Y17190476D01*
X2836761Y18104762D02*
X2798666Y18028572D01*
X2798666Y18028572D02*
X2760571Y17990477D01*
X2760571Y17990477D02*
X2684380Y17952381D01*
X2684380Y17952381D02*
X2646285Y17952381D01*
X2646285Y17952381D02*
X2570095Y17990477D01*
X2570095Y17990477D02*
X2532000Y18028572D01*
X2532000Y18028572D02*
X2493904Y18104762D01*
X2493904Y18104762D02*
X2493904Y18257143D01*
X2493904Y18257143D02*
X2532000Y18333334D01*
X2532000Y18333334D02*
X2570095Y18371429D01*
X2570095Y18371429D02*
X2646285Y18409524D01*
X2646285Y18409524D02*
X2684380Y18409524D01*
X2684380Y18409524D02*
X2760571Y18371429D01*
X2760571Y18371429D02*
X2798666Y18333334D01*
X2798666Y18333334D02*
X2836761Y18257143D01*
X2836761Y18257143D02*
X2836761Y18104762D01*
X2836761Y18104762D02*
X2874857Y18028572D01*
X2874857Y18028572D02*
X2912952Y17990477D01*
X2912952Y17990477D02*
X2989142Y17952381D01*
X2989142Y17952381D02*
X3141523Y17952381D01*
X3141523Y17952381D02*
X3217714Y17990477D01*
X3217714Y17990477D02*
X3255809Y18028572D01*
X3255809Y18028572D02*
X3293904Y18104762D01*
X3293904Y18104762D02*
X3293904Y18257143D01*
X3293904Y18257143D02*
X3255809Y18333334D01*
X3255809Y18333334D02*
X3217714Y18371429D01*
X3217714Y18371429D02*
X3141523Y18409524D01*
X3141523Y18409524D02*
X2989142Y18409524D01*
X2989142Y18409524D02*
X2912952Y18371429D01*
X2912952Y18371429D02*
X2874857Y18333334D01*
X2874857Y18333334D02*
X2836761Y18257143D01*
%TO.C,C16*%
X32817714Y13785715D02*
X32855809Y13747619D01*
X32855809Y13747619D02*
X32893904Y13633334D01*
X32893904Y13633334D02*
X32893904Y13557143D01*
X32893904Y13557143D02*
X32855809Y13442857D01*
X32855809Y13442857D02*
X32779619Y13366667D01*
X32779619Y13366667D02*
X32703428Y13328572D01*
X32703428Y13328572D02*
X32551047Y13290476D01*
X32551047Y13290476D02*
X32436761Y13290476D01*
X32436761Y13290476D02*
X32284380Y13328572D01*
X32284380Y13328572D02*
X32208190Y13366667D01*
X32208190Y13366667D02*
X32132000Y13442857D01*
X32132000Y13442857D02*
X32093904Y13557143D01*
X32093904Y13557143D02*
X32093904Y13633334D01*
X32093904Y13633334D02*
X32132000Y13747619D01*
X32132000Y13747619D02*
X32170095Y13785715D01*
X32893904Y14547619D02*
X32893904Y14090476D01*
X32893904Y14319048D02*
X32093904Y14319048D01*
X32093904Y14319048D02*
X32208190Y14242857D01*
X32208190Y14242857D02*
X32284380Y14166667D01*
X32284380Y14166667D02*
X32322476Y14090476D01*
X32093904Y15233334D02*
X32093904Y15080953D01*
X32093904Y15080953D02*
X32132000Y15004762D01*
X32132000Y15004762D02*
X32170095Y14966667D01*
X32170095Y14966667D02*
X32284380Y14890477D01*
X32284380Y14890477D02*
X32436761Y14852381D01*
X32436761Y14852381D02*
X32741523Y14852381D01*
X32741523Y14852381D02*
X32817714Y14890477D01*
X32817714Y14890477D02*
X32855809Y14928572D01*
X32855809Y14928572D02*
X32893904Y15004762D01*
X32893904Y15004762D02*
X32893904Y15157143D01*
X32893904Y15157143D02*
X32855809Y15233334D01*
X32855809Y15233334D02*
X32817714Y15271429D01*
X32817714Y15271429D02*
X32741523Y15309524D01*
X32741523Y15309524D02*
X32551047Y15309524D01*
X32551047Y15309524D02*
X32474857Y15271429D01*
X32474857Y15271429D02*
X32436761Y15233334D01*
X32436761Y15233334D02*
X32398666Y15157143D01*
X32398666Y15157143D02*
X32398666Y15004762D01*
X32398666Y15004762D02*
X32436761Y14928572D01*
X32436761Y14928572D02*
X32474857Y14890477D01*
X32474857Y14890477D02*
X32551047Y14852381D01*
%TO.C,C14*%
X32317714Y1785715D02*
X32355809Y1747619D01*
X32355809Y1747619D02*
X32393904Y1633334D01*
X32393904Y1633334D02*
X32393904Y1557143D01*
X32393904Y1557143D02*
X32355809Y1442857D01*
X32355809Y1442857D02*
X32279619Y1366667D01*
X32279619Y1366667D02*
X32203428Y1328572D01*
X32203428Y1328572D02*
X32051047Y1290476D01*
X32051047Y1290476D02*
X31936761Y1290476D01*
X31936761Y1290476D02*
X31784380Y1328572D01*
X31784380Y1328572D02*
X31708190Y1366667D01*
X31708190Y1366667D02*
X31632000Y1442857D01*
X31632000Y1442857D02*
X31593904Y1557143D01*
X31593904Y1557143D02*
X31593904Y1633334D01*
X31593904Y1633334D02*
X31632000Y1747619D01*
X31632000Y1747619D02*
X31670095Y1785715D01*
X32393904Y2547619D02*
X32393904Y2090476D01*
X32393904Y2319048D02*
X31593904Y2319048D01*
X31593904Y2319048D02*
X31708190Y2242857D01*
X31708190Y2242857D02*
X31784380Y2166667D01*
X31784380Y2166667D02*
X31822476Y2090476D01*
X31860571Y3233334D02*
X32393904Y3233334D01*
X31555809Y3042858D02*
X32127238Y2852381D01*
X32127238Y2852381D02*
X32127238Y3347620D01*
%TO.C,C6*%
X19766667Y28882286D02*
X19728571Y28844191D01*
X19728571Y28844191D02*
X19614286Y28806096D01*
X19614286Y28806096D02*
X19538095Y28806096D01*
X19538095Y28806096D02*
X19423809Y28844191D01*
X19423809Y28844191D02*
X19347619Y28920381D01*
X19347619Y28920381D02*
X19309524Y28996572D01*
X19309524Y28996572D02*
X19271428Y29148953D01*
X19271428Y29148953D02*
X19271428Y29263239D01*
X19271428Y29263239D02*
X19309524Y29415620D01*
X19309524Y29415620D02*
X19347619Y29491810D01*
X19347619Y29491810D02*
X19423809Y29568000D01*
X19423809Y29568000D02*
X19538095Y29606096D01*
X19538095Y29606096D02*
X19614286Y29606096D01*
X19614286Y29606096D02*
X19728571Y29568000D01*
X19728571Y29568000D02*
X19766667Y29529905D01*
X20452381Y29606096D02*
X20300000Y29606096D01*
X20300000Y29606096D02*
X20223809Y29568000D01*
X20223809Y29568000D02*
X20185714Y29529905D01*
X20185714Y29529905D02*
X20109524Y29415620D01*
X20109524Y29415620D02*
X20071428Y29263239D01*
X20071428Y29263239D02*
X20071428Y28958477D01*
X20071428Y28958477D02*
X20109524Y28882286D01*
X20109524Y28882286D02*
X20147619Y28844191D01*
X20147619Y28844191D02*
X20223809Y28806096D01*
X20223809Y28806096D02*
X20376190Y28806096D01*
X20376190Y28806096D02*
X20452381Y28844191D01*
X20452381Y28844191D02*
X20490476Y28882286D01*
X20490476Y28882286D02*
X20528571Y28958477D01*
X20528571Y28958477D02*
X20528571Y29148953D01*
X20528571Y29148953D02*
X20490476Y29225143D01*
X20490476Y29225143D02*
X20452381Y29263239D01*
X20452381Y29263239D02*
X20376190Y29301334D01*
X20376190Y29301334D02*
X20223809Y29301334D01*
X20223809Y29301334D02*
X20147619Y29263239D01*
X20147619Y29263239D02*
X20109524Y29225143D01*
X20109524Y29225143D02*
X20071428Y29148953D01*
%TO.C,C28*%
X6575588Y6852286D02*
X6537492Y6814191D01*
X6537492Y6814191D02*
X6423207Y6776096D01*
X6423207Y6776096D02*
X6347016Y6776096D01*
X6347016Y6776096D02*
X6232730Y6814191D01*
X6232730Y6814191D02*
X6156540Y6890381D01*
X6156540Y6890381D02*
X6118445Y6966572D01*
X6118445Y6966572D02*
X6080349Y7118953D01*
X6080349Y7118953D02*
X6080349Y7233239D01*
X6080349Y7233239D02*
X6118445Y7385620D01*
X6118445Y7385620D02*
X6156540Y7461810D01*
X6156540Y7461810D02*
X6232730Y7538000D01*
X6232730Y7538000D02*
X6347016Y7576096D01*
X6347016Y7576096D02*
X6423207Y7576096D01*
X6423207Y7576096D02*
X6537492Y7538000D01*
X6537492Y7538000D02*
X6575588Y7499905D01*
X6880349Y7499905D02*
X6918445Y7538000D01*
X6918445Y7538000D02*
X6994635Y7576096D01*
X6994635Y7576096D02*
X7185111Y7576096D01*
X7185111Y7576096D02*
X7261302Y7538000D01*
X7261302Y7538000D02*
X7299397Y7499905D01*
X7299397Y7499905D02*
X7337492Y7423715D01*
X7337492Y7423715D02*
X7337492Y7347524D01*
X7337492Y7347524D02*
X7299397Y7233239D01*
X7299397Y7233239D02*
X6842254Y6776096D01*
X6842254Y6776096D02*
X7337492Y6776096D01*
X7794635Y7233239D02*
X7718445Y7271334D01*
X7718445Y7271334D02*
X7680350Y7309429D01*
X7680350Y7309429D02*
X7642254Y7385620D01*
X7642254Y7385620D02*
X7642254Y7423715D01*
X7642254Y7423715D02*
X7680350Y7499905D01*
X7680350Y7499905D02*
X7718445Y7538000D01*
X7718445Y7538000D02*
X7794635Y7576096D01*
X7794635Y7576096D02*
X7947016Y7576096D01*
X7947016Y7576096D02*
X8023207Y7538000D01*
X8023207Y7538000D02*
X8061302Y7499905D01*
X8061302Y7499905D02*
X8099397Y7423715D01*
X8099397Y7423715D02*
X8099397Y7385620D01*
X8099397Y7385620D02*
X8061302Y7309429D01*
X8061302Y7309429D02*
X8023207Y7271334D01*
X8023207Y7271334D02*
X7947016Y7233239D01*
X7947016Y7233239D02*
X7794635Y7233239D01*
X7794635Y7233239D02*
X7718445Y7195143D01*
X7718445Y7195143D02*
X7680350Y7157048D01*
X7680350Y7157048D02*
X7642254Y7080858D01*
X7642254Y7080858D02*
X7642254Y6928477D01*
X7642254Y6928477D02*
X7680350Y6852286D01*
X7680350Y6852286D02*
X7718445Y6814191D01*
X7718445Y6814191D02*
X7794635Y6776096D01*
X7794635Y6776096D02*
X7947016Y6776096D01*
X7947016Y6776096D02*
X8023207Y6814191D01*
X8023207Y6814191D02*
X8061302Y6852286D01*
X8061302Y6852286D02*
X8099397Y6928477D01*
X8099397Y6928477D02*
X8099397Y7080858D01*
X8099397Y7080858D02*
X8061302Y7157048D01*
X8061302Y7157048D02*
X8023207Y7195143D01*
X8023207Y7195143D02*
X7947016Y7233239D01*
%TO.C,U10*%
X68243904Y5259525D02*
X68891523Y5259525D01*
X68891523Y5259525D02*
X68967714Y5297620D01*
X68967714Y5297620D02*
X69005809Y5335715D01*
X69005809Y5335715D02*
X69043904Y5411906D01*
X69043904Y5411906D02*
X69043904Y5564287D01*
X69043904Y5564287D02*
X69005809Y5640477D01*
X69005809Y5640477D02*
X68967714Y5678572D01*
X68967714Y5678572D02*
X68891523Y5716668D01*
X68891523Y5716668D02*
X68243904Y5716668D01*
X69043904Y6516667D02*
X69043904Y6059524D01*
X69043904Y6288096D02*
X68243904Y6288096D01*
X68243904Y6288096D02*
X68358190Y6211905D01*
X68358190Y6211905D02*
X68434380Y6135715D01*
X68434380Y6135715D02*
X68472476Y6059524D01*
X68243904Y7011906D02*
X68243904Y7088096D01*
X68243904Y7088096D02*
X68282000Y7164287D01*
X68282000Y7164287D02*
X68320095Y7202382D01*
X68320095Y7202382D02*
X68396285Y7240477D01*
X68396285Y7240477D02*
X68548666Y7278572D01*
X68548666Y7278572D02*
X68739142Y7278572D01*
X68739142Y7278572D02*
X68891523Y7240477D01*
X68891523Y7240477D02*
X68967714Y7202382D01*
X68967714Y7202382D02*
X69005809Y7164287D01*
X69005809Y7164287D02*
X69043904Y7088096D01*
X69043904Y7088096D02*
X69043904Y7011906D01*
X69043904Y7011906D02*
X69005809Y6935715D01*
X69005809Y6935715D02*
X68967714Y6897620D01*
X68967714Y6897620D02*
X68891523Y6859525D01*
X68891523Y6859525D02*
X68739142Y6821429D01*
X68739142Y6821429D02*
X68548666Y6821429D01*
X68548666Y6821429D02*
X68396285Y6859525D01*
X68396285Y6859525D02*
X68320095Y6897620D01*
X68320095Y6897620D02*
X68282000Y6935715D01*
X68282000Y6935715D02*
X68243904Y7011906D01*
%TO.C,U8*%
X68243904Y15640477D02*
X68891523Y15640477D01*
X68891523Y15640477D02*
X68967714Y15678572D01*
X68967714Y15678572D02*
X69005809Y15716667D01*
X69005809Y15716667D02*
X69043904Y15792858D01*
X69043904Y15792858D02*
X69043904Y15945239D01*
X69043904Y15945239D02*
X69005809Y16021429D01*
X69005809Y16021429D02*
X68967714Y16059524D01*
X68967714Y16059524D02*
X68891523Y16097620D01*
X68891523Y16097620D02*
X68243904Y16097620D01*
X68586761Y16592857D02*
X68548666Y16516667D01*
X68548666Y16516667D02*
X68510571Y16478572D01*
X68510571Y16478572D02*
X68434380Y16440476D01*
X68434380Y16440476D02*
X68396285Y16440476D01*
X68396285Y16440476D02*
X68320095Y16478572D01*
X68320095Y16478572D02*
X68282000Y16516667D01*
X68282000Y16516667D02*
X68243904Y16592857D01*
X68243904Y16592857D02*
X68243904Y16745238D01*
X68243904Y16745238D02*
X68282000Y16821429D01*
X68282000Y16821429D02*
X68320095Y16859524D01*
X68320095Y16859524D02*
X68396285Y16897619D01*
X68396285Y16897619D02*
X68434380Y16897619D01*
X68434380Y16897619D02*
X68510571Y16859524D01*
X68510571Y16859524D02*
X68548666Y16821429D01*
X68548666Y16821429D02*
X68586761Y16745238D01*
X68586761Y16745238D02*
X68586761Y16592857D01*
X68586761Y16592857D02*
X68624857Y16516667D01*
X68624857Y16516667D02*
X68662952Y16478572D01*
X68662952Y16478572D02*
X68739142Y16440476D01*
X68739142Y16440476D02*
X68891523Y16440476D01*
X68891523Y16440476D02*
X68967714Y16478572D01*
X68967714Y16478572D02*
X69005809Y16516667D01*
X69005809Y16516667D02*
X69043904Y16592857D01*
X69043904Y16592857D02*
X69043904Y16745238D01*
X69043904Y16745238D02*
X69005809Y16821429D01*
X69005809Y16821429D02*
X68967714Y16859524D01*
X68967714Y16859524D02*
X68891523Y16897619D01*
X68891523Y16897619D02*
X68739142Y16897619D01*
X68739142Y16897619D02*
X68662952Y16859524D01*
X68662952Y16859524D02*
X68624857Y16821429D01*
X68624857Y16821429D02*
X68586761Y16745238D01*
%TO.C,U6*%
X19028224Y16559527D02*
X19486160Y16101592D01*
X19486160Y16101592D02*
X19566972Y16074654D01*
X19566972Y16074654D02*
X19620847Y16074654D01*
X19620847Y16074654D02*
X19701659Y16101592D01*
X19701659Y16101592D02*
X19809408Y16209341D01*
X19809408Y16209341D02*
X19836346Y16290153D01*
X19836346Y16290153D02*
X19836346Y16344028D01*
X19836346Y16344028D02*
X19809408Y16424840D01*
X19809408Y16424840D02*
X19351473Y16882776D01*
X19863283Y17394587D02*
X19755533Y17286837D01*
X19755533Y17286837D02*
X19728596Y17206025D01*
X19728596Y17206025D02*
X19728596Y17152150D01*
X19728596Y17152150D02*
X19755533Y17017463D01*
X19755533Y17017463D02*
X19836346Y16882776D01*
X19836346Y16882776D02*
X20051845Y16667277D01*
X20051845Y16667277D02*
X20132657Y16640339D01*
X20132657Y16640339D02*
X20186532Y16640339D01*
X20186532Y16640339D02*
X20267344Y16667277D01*
X20267344Y16667277D02*
X20375094Y16775026D01*
X20375094Y16775026D02*
X20402031Y16855839D01*
X20402031Y16855839D02*
X20402031Y16909714D01*
X20402031Y16909714D02*
X20375094Y16990526D01*
X20375094Y16990526D02*
X20240407Y17125213D01*
X20240407Y17125213D02*
X20159594Y17152150D01*
X20159594Y17152150D02*
X20105720Y17152150D01*
X20105720Y17152150D02*
X20024907Y17125213D01*
X20024907Y17125213D02*
X19917158Y17017463D01*
X19917158Y17017463D02*
X19890220Y16936651D01*
X19890220Y16936651D02*
X19890220Y16882776D01*
X19890220Y16882776D02*
X19917158Y16801964D01*
%TO.C,Q4*%
X57823809Y18229905D02*
X57747619Y18268000D01*
X57747619Y18268000D02*
X57671428Y18344191D01*
X57671428Y18344191D02*
X57557142Y18458477D01*
X57557142Y18458477D02*
X57480952Y18496572D01*
X57480952Y18496572D02*
X57404761Y18496572D01*
X57442857Y18306096D02*
X57366666Y18344191D01*
X57366666Y18344191D02*
X57290476Y18420381D01*
X57290476Y18420381D02*
X57252380Y18572762D01*
X57252380Y18572762D02*
X57252380Y18839429D01*
X57252380Y18839429D02*
X57290476Y18991810D01*
X57290476Y18991810D02*
X57366666Y19068000D01*
X57366666Y19068000D02*
X57442857Y19106096D01*
X57442857Y19106096D02*
X57595238Y19106096D01*
X57595238Y19106096D02*
X57671428Y19068000D01*
X57671428Y19068000D02*
X57747619Y18991810D01*
X57747619Y18991810D02*
X57785714Y18839429D01*
X57785714Y18839429D02*
X57785714Y18572762D01*
X57785714Y18572762D02*
X57747619Y18420381D01*
X57747619Y18420381D02*
X57671428Y18344191D01*
X57671428Y18344191D02*
X57595238Y18306096D01*
X57595238Y18306096D02*
X57442857Y18306096D01*
X58471428Y18839429D02*
X58471428Y18306096D01*
X58280952Y19144191D02*
X58090475Y18572762D01*
X58090475Y18572762D02*
X58585714Y18572762D01*
%TO.C,U11*%
X4409524Y17906096D02*
X4409524Y17258477D01*
X4409524Y17258477D02*
X4447619Y17182286D01*
X4447619Y17182286D02*
X4485714Y17144191D01*
X4485714Y17144191D02*
X4561905Y17106096D01*
X4561905Y17106096D02*
X4714286Y17106096D01*
X4714286Y17106096D02*
X4790476Y17144191D01*
X4790476Y17144191D02*
X4828571Y17182286D01*
X4828571Y17182286D02*
X4866667Y17258477D01*
X4866667Y17258477D02*
X4866667Y17906096D01*
X5666666Y17106096D02*
X5209523Y17106096D01*
X5438095Y17106096D02*
X5438095Y17906096D01*
X5438095Y17906096D02*
X5361904Y17791810D01*
X5361904Y17791810D02*
X5285714Y17715620D01*
X5285714Y17715620D02*
X5209523Y17677524D01*
X6428571Y17106096D02*
X5971428Y17106096D01*
X6200000Y17106096D02*
X6200000Y17906096D01*
X6200000Y17906096D02*
X6123809Y17791810D01*
X6123809Y17791810D02*
X6047619Y17715620D01*
X6047619Y17715620D02*
X5971428Y17677524D01*
%TO.C,C21*%
X63485714Y18382286D02*
X63447618Y18344191D01*
X63447618Y18344191D02*
X63333333Y18306096D01*
X63333333Y18306096D02*
X63257142Y18306096D01*
X63257142Y18306096D02*
X63142856Y18344191D01*
X63142856Y18344191D02*
X63066666Y18420381D01*
X63066666Y18420381D02*
X63028571Y18496572D01*
X63028571Y18496572D02*
X62990475Y18648953D01*
X62990475Y18648953D02*
X62990475Y18763239D01*
X62990475Y18763239D02*
X63028571Y18915620D01*
X63028571Y18915620D02*
X63066666Y18991810D01*
X63066666Y18991810D02*
X63142856Y19068000D01*
X63142856Y19068000D02*
X63257142Y19106096D01*
X63257142Y19106096D02*
X63333333Y19106096D01*
X63333333Y19106096D02*
X63447618Y19068000D01*
X63447618Y19068000D02*
X63485714Y19029905D01*
X63790475Y19029905D02*
X63828571Y19068000D01*
X63828571Y19068000D02*
X63904761Y19106096D01*
X63904761Y19106096D02*
X64095237Y19106096D01*
X64095237Y19106096D02*
X64171428Y19068000D01*
X64171428Y19068000D02*
X64209523Y19029905D01*
X64209523Y19029905D02*
X64247618Y18953715D01*
X64247618Y18953715D02*
X64247618Y18877524D01*
X64247618Y18877524D02*
X64209523Y18763239D01*
X64209523Y18763239D02*
X63752380Y18306096D01*
X63752380Y18306096D02*
X64247618Y18306096D01*
X65009523Y18306096D02*
X64552380Y18306096D01*
X64780952Y18306096D02*
X64780952Y19106096D01*
X64780952Y19106096D02*
X64704761Y18991810D01*
X64704761Y18991810D02*
X64628571Y18915620D01*
X64628571Y18915620D02*
X64552380Y18877524D01*
%TO.C,C17*%
X15762588Y11710589D02*
X15800683Y11672493D01*
X15800683Y11672493D02*
X15838778Y11558208D01*
X15838778Y11558208D02*
X15838778Y11482017D01*
X15838778Y11482017D02*
X15800683Y11367731D01*
X15800683Y11367731D02*
X15724493Y11291541D01*
X15724493Y11291541D02*
X15648302Y11253446D01*
X15648302Y11253446D02*
X15495921Y11215350D01*
X15495921Y11215350D02*
X15381635Y11215350D01*
X15381635Y11215350D02*
X15229254Y11253446D01*
X15229254Y11253446D02*
X15153064Y11291541D01*
X15153064Y11291541D02*
X15076874Y11367731D01*
X15076874Y11367731D02*
X15038778Y11482017D01*
X15038778Y11482017D02*
X15038778Y11558208D01*
X15038778Y11558208D02*
X15076874Y11672493D01*
X15076874Y11672493D02*
X15114969Y11710589D01*
X15838778Y12472493D02*
X15838778Y12015350D01*
X15838778Y12243922D02*
X15038778Y12243922D01*
X15038778Y12243922D02*
X15153064Y12167731D01*
X15153064Y12167731D02*
X15229254Y12091541D01*
X15229254Y12091541D02*
X15267350Y12015350D01*
X15038778Y12739160D02*
X15038778Y13272494D01*
X15038778Y13272494D02*
X15838778Y12929636D01*
%TO.C,R19*%
X12978778Y26710589D02*
X12597826Y26443922D01*
X12978778Y26253446D02*
X12178778Y26253446D01*
X12178778Y26253446D02*
X12178778Y26558208D01*
X12178778Y26558208D02*
X12216874Y26634398D01*
X12216874Y26634398D02*
X12254969Y26672493D01*
X12254969Y26672493D02*
X12331159Y26710589D01*
X12331159Y26710589D02*
X12445445Y26710589D01*
X12445445Y26710589D02*
X12521635Y26672493D01*
X12521635Y26672493D02*
X12559731Y26634398D01*
X12559731Y26634398D02*
X12597826Y26558208D01*
X12597826Y26558208D02*
X12597826Y26253446D01*
X12978778Y27472493D02*
X12978778Y27015350D01*
X12978778Y27243922D02*
X12178778Y27243922D01*
X12178778Y27243922D02*
X12293064Y27167731D01*
X12293064Y27167731D02*
X12369254Y27091541D01*
X12369254Y27091541D02*
X12407350Y27015350D01*
X12978778Y27853446D02*
X12978778Y28005827D01*
X12978778Y28005827D02*
X12940683Y28082017D01*
X12940683Y28082017D02*
X12902588Y28120113D01*
X12902588Y28120113D02*
X12788302Y28196303D01*
X12788302Y28196303D02*
X12635921Y28234398D01*
X12635921Y28234398D02*
X12331159Y28234398D01*
X12331159Y28234398D02*
X12254969Y28196303D01*
X12254969Y28196303D02*
X12216874Y28158208D01*
X12216874Y28158208D02*
X12178778Y28082017D01*
X12178778Y28082017D02*
X12178778Y27929636D01*
X12178778Y27929636D02*
X12216874Y27853446D01*
X12216874Y27853446D02*
X12254969Y27815351D01*
X12254969Y27815351D02*
X12331159Y27777255D01*
X12331159Y27777255D02*
X12521635Y27777255D01*
X12521635Y27777255D02*
X12597826Y27815351D01*
X12597826Y27815351D02*
X12635921Y27853446D01*
X12635921Y27853446D02*
X12674016Y27929636D01*
X12674016Y27929636D02*
X12674016Y28082017D01*
X12674016Y28082017D02*
X12635921Y28158208D01*
X12635921Y28158208D02*
X12597826Y28196303D01*
X12597826Y28196303D02*
X12521635Y28234398D01*
%TO.C,C26*%
X63385714Y27882286D02*
X63347618Y27844191D01*
X63347618Y27844191D02*
X63233333Y27806096D01*
X63233333Y27806096D02*
X63157142Y27806096D01*
X63157142Y27806096D02*
X63042856Y27844191D01*
X63042856Y27844191D02*
X62966666Y27920381D01*
X62966666Y27920381D02*
X62928571Y27996572D01*
X62928571Y27996572D02*
X62890475Y28148953D01*
X62890475Y28148953D02*
X62890475Y28263239D01*
X62890475Y28263239D02*
X62928571Y28415620D01*
X62928571Y28415620D02*
X62966666Y28491810D01*
X62966666Y28491810D02*
X63042856Y28568000D01*
X63042856Y28568000D02*
X63157142Y28606096D01*
X63157142Y28606096D02*
X63233333Y28606096D01*
X63233333Y28606096D02*
X63347618Y28568000D01*
X63347618Y28568000D02*
X63385714Y28529905D01*
X63690475Y28529905D02*
X63728571Y28568000D01*
X63728571Y28568000D02*
X63804761Y28606096D01*
X63804761Y28606096D02*
X63995237Y28606096D01*
X63995237Y28606096D02*
X64071428Y28568000D01*
X64071428Y28568000D02*
X64109523Y28529905D01*
X64109523Y28529905D02*
X64147618Y28453715D01*
X64147618Y28453715D02*
X64147618Y28377524D01*
X64147618Y28377524D02*
X64109523Y28263239D01*
X64109523Y28263239D02*
X63652380Y27806096D01*
X63652380Y27806096D02*
X64147618Y27806096D01*
X64833333Y28606096D02*
X64680952Y28606096D01*
X64680952Y28606096D02*
X64604761Y28568000D01*
X64604761Y28568000D02*
X64566666Y28529905D01*
X64566666Y28529905D02*
X64490476Y28415620D01*
X64490476Y28415620D02*
X64452380Y28263239D01*
X64452380Y28263239D02*
X64452380Y27958477D01*
X64452380Y27958477D02*
X64490476Y27882286D01*
X64490476Y27882286D02*
X64528571Y27844191D01*
X64528571Y27844191D02*
X64604761Y27806096D01*
X64604761Y27806096D02*
X64757142Y27806096D01*
X64757142Y27806096D02*
X64833333Y27844191D01*
X64833333Y27844191D02*
X64871428Y27882286D01*
X64871428Y27882286D02*
X64909523Y27958477D01*
X64909523Y27958477D02*
X64909523Y28148953D01*
X64909523Y28148953D02*
X64871428Y28225143D01*
X64871428Y28225143D02*
X64833333Y28263239D01*
X64833333Y28263239D02*
X64757142Y28301334D01*
X64757142Y28301334D02*
X64604761Y28301334D01*
X64604761Y28301334D02*
X64528571Y28263239D01*
X64528571Y28263239D02*
X64490476Y28225143D01*
X64490476Y28225143D02*
X64452380Y28148953D01*
%TO.C,Q1*%
X50423809Y27529905D02*
X50347619Y27568000D01*
X50347619Y27568000D02*
X50271428Y27644191D01*
X50271428Y27644191D02*
X50157142Y27758477D01*
X50157142Y27758477D02*
X50080952Y27796572D01*
X50080952Y27796572D02*
X50004761Y27796572D01*
X50042857Y27606096D02*
X49966666Y27644191D01*
X49966666Y27644191D02*
X49890476Y27720381D01*
X49890476Y27720381D02*
X49852380Y27872762D01*
X49852380Y27872762D02*
X49852380Y28139429D01*
X49852380Y28139429D02*
X49890476Y28291810D01*
X49890476Y28291810D02*
X49966666Y28368000D01*
X49966666Y28368000D02*
X50042857Y28406096D01*
X50042857Y28406096D02*
X50195238Y28406096D01*
X50195238Y28406096D02*
X50271428Y28368000D01*
X50271428Y28368000D02*
X50347619Y28291810D01*
X50347619Y28291810D02*
X50385714Y28139429D01*
X50385714Y28139429D02*
X50385714Y27872762D01*
X50385714Y27872762D02*
X50347619Y27720381D01*
X50347619Y27720381D02*
X50271428Y27644191D01*
X50271428Y27644191D02*
X50195238Y27606096D01*
X50195238Y27606096D02*
X50042857Y27606096D01*
X51147618Y27606096D02*
X50690475Y27606096D01*
X50919047Y27606096D02*
X50919047Y28406096D01*
X50919047Y28406096D02*
X50842856Y28291810D01*
X50842856Y28291810D02*
X50766666Y28215620D01*
X50766666Y28215620D02*
X50690475Y28177524D01*
%TO.C,C3*%
X38116667Y4602286D02*
X38078571Y4564191D01*
X38078571Y4564191D02*
X37964286Y4526096D01*
X37964286Y4526096D02*
X37888095Y4526096D01*
X37888095Y4526096D02*
X37773809Y4564191D01*
X37773809Y4564191D02*
X37697619Y4640381D01*
X37697619Y4640381D02*
X37659524Y4716572D01*
X37659524Y4716572D02*
X37621428Y4868953D01*
X37621428Y4868953D02*
X37621428Y4983239D01*
X37621428Y4983239D02*
X37659524Y5135620D01*
X37659524Y5135620D02*
X37697619Y5211810D01*
X37697619Y5211810D02*
X37773809Y5288000D01*
X37773809Y5288000D02*
X37888095Y5326096D01*
X37888095Y5326096D02*
X37964286Y5326096D01*
X37964286Y5326096D02*
X38078571Y5288000D01*
X38078571Y5288000D02*
X38116667Y5249905D01*
X38383333Y5326096D02*
X38878571Y5326096D01*
X38878571Y5326096D02*
X38611905Y5021334D01*
X38611905Y5021334D02*
X38726190Y5021334D01*
X38726190Y5021334D02*
X38802381Y4983239D01*
X38802381Y4983239D02*
X38840476Y4945143D01*
X38840476Y4945143D02*
X38878571Y4868953D01*
X38878571Y4868953D02*
X38878571Y4678477D01*
X38878571Y4678477D02*
X38840476Y4602286D01*
X38840476Y4602286D02*
X38802381Y4564191D01*
X38802381Y4564191D02*
X38726190Y4526096D01*
X38726190Y4526096D02*
X38497619Y4526096D01*
X38497619Y4526096D02*
X38421428Y4564191D01*
X38421428Y4564191D02*
X38383333Y4602286D01*
%TO.C,R17*%
X35793904Y10985715D02*
X35412952Y10719048D01*
X35793904Y10528572D02*
X34993904Y10528572D01*
X34993904Y10528572D02*
X34993904Y10833334D01*
X34993904Y10833334D02*
X35032000Y10909524D01*
X35032000Y10909524D02*
X35070095Y10947619D01*
X35070095Y10947619D02*
X35146285Y10985715D01*
X35146285Y10985715D02*
X35260571Y10985715D01*
X35260571Y10985715D02*
X35336761Y10947619D01*
X35336761Y10947619D02*
X35374857Y10909524D01*
X35374857Y10909524D02*
X35412952Y10833334D01*
X35412952Y10833334D02*
X35412952Y10528572D01*
X35793904Y11747619D02*
X35793904Y11290476D01*
X35793904Y11519048D02*
X34993904Y11519048D01*
X34993904Y11519048D02*
X35108190Y11442857D01*
X35108190Y11442857D02*
X35184380Y11366667D01*
X35184380Y11366667D02*
X35222476Y11290476D01*
X34993904Y12014286D02*
X34993904Y12547620D01*
X34993904Y12547620D02*
X35793904Y12204762D01*
%TO.C,R5*%
X42393904Y28766668D02*
X42012952Y28500001D01*
X42393904Y28309525D02*
X41593904Y28309525D01*
X41593904Y28309525D02*
X41593904Y28614287D01*
X41593904Y28614287D02*
X41632000Y28690477D01*
X41632000Y28690477D02*
X41670095Y28728572D01*
X41670095Y28728572D02*
X41746285Y28766668D01*
X41746285Y28766668D02*
X41860571Y28766668D01*
X41860571Y28766668D02*
X41936761Y28728572D01*
X41936761Y28728572D02*
X41974857Y28690477D01*
X41974857Y28690477D02*
X42012952Y28614287D01*
X42012952Y28614287D02*
X42012952Y28309525D01*
X41593904Y29490477D02*
X41593904Y29109525D01*
X41593904Y29109525D02*
X41974857Y29071429D01*
X41974857Y29071429D02*
X41936761Y29109525D01*
X41936761Y29109525D02*
X41898666Y29185715D01*
X41898666Y29185715D02*
X41898666Y29376191D01*
X41898666Y29376191D02*
X41936761Y29452382D01*
X41936761Y29452382D02*
X41974857Y29490477D01*
X41974857Y29490477D02*
X42051047Y29528572D01*
X42051047Y29528572D02*
X42241523Y29528572D01*
X42241523Y29528572D02*
X42317714Y29490477D01*
X42317714Y29490477D02*
X42355809Y29452382D01*
X42355809Y29452382D02*
X42393904Y29376191D01*
X42393904Y29376191D02*
X42393904Y29185715D01*
X42393904Y29185715D02*
X42355809Y29109525D01*
X42355809Y29109525D02*
X42317714Y29071429D01*
%TO.C,C4*%
X31866667Y27582286D02*
X31828571Y27544191D01*
X31828571Y27544191D02*
X31714286Y27506096D01*
X31714286Y27506096D02*
X31638095Y27506096D01*
X31638095Y27506096D02*
X31523809Y27544191D01*
X31523809Y27544191D02*
X31447619Y27620381D01*
X31447619Y27620381D02*
X31409524Y27696572D01*
X31409524Y27696572D02*
X31371428Y27848953D01*
X31371428Y27848953D02*
X31371428Y27963239D01*
X31371428Y27963239D02*
X31409524Y28115620D01*
X31409524Y28115620D02*
X31447619Y28191810D01*
X31447619Y28191810D02*
X31523809Y28268000D01*
X31523809Y28268000D02*
X31638095Y28306096D01*
X31638095Y28306096D02*
X31714286Y28306096D01*
X31714286Y28306096D02*
X31828571Y28268000D01*
X31828571Y28268000D02*
X31866667Y28229905D01*
X32552381Y28039429D02*
X32552381Y27506096D01*
X32361905Y28344191D02*
X32171428Y27772762D01*
X32171428Y27772762D02*
X32666667Y27772762D01*
%TO.C,C18*%
X46885714Y18982286D02*
X46847618Y18944191D01*
X46847618Y18944191D02*
X46733333Y18906096D01*
X46733333Y18906096D02*
X46657142Y18906096D01*
X46657142Y18906096D02*
X46542856Y18944191D01*
X46542856Y18944191D02*
X46466666Y19020381D01*
X46466666Y19020381D02*
X46428571Y19096572D01*
X46428571Y19096572D02*
X46390475Y19248953D01*
X46390475Y19248953D02*
X46390475Y19363239D01*
X46390475Y19363239D02*
X46428571Y19515620D01*
X46428571Y19515620D02*
X46466666Y19591810D01*
X46466666Y19591810D02*
X46542856Y19668000D01*
X46542856Y19668000D02*
X46657142Y19706096D01*
X46657142Y19706096D02*
X46733333Y19706096D01*
X46733333Y19706096D02*
X46847618Y19668000D01*
X46847618Y19668000D02*
X46885714Y19629905D01*
X47647618Y18906096D02*
X47190475Y18906096D01*
X47419047Y18906096D02*
X47419047Y19706096D01*
X47419047Y19706096D02*
X47342856Y19591810D01*
X47342856Y19591810D02*
X47266666Y19515620D01*
X47266666Y19515620D02*
X47190475Y19477524D01*
X48104761Y19363239D02*
X48028571Y19401334D01*
X48028571Y19401334D02*
X47990476Y19439429D01*
X47990476Y19439429D02*
X47952380Y19515620D01*
X47952380Y19515620D02*
X47952380Y19553715D01*
X47952380Y19553715D02*
X47990476Y19629905D01*
X47990476Y19629905D02*
X48028571Y19668000D01*
X48028571Y19668000D02*
X48104761Y19706096D01*
X48104761Y19706096D02*
X48257142Y19706096D01*
X48257142Y19706096D02*
X48333333Y19668000D01*
X48333333Y19668000D02*
X48371428Y19629905D01*
X48371428Y19629905D02*
X48409523Y19553715D01*
X48409523Y19553715D02*
X48409523Y19515620D01*
X48409523Y19515620D02*
X48371428Y19439429D01*
X48371428Y19439429D02*
X48333333Y19401334D01*
X48333333Y19401334D02*
X48257142Y19363239D01*
X48257142Y19363239D02*
X48104761Y19363239D01*
X48104761Y19363239D02*
X48028571Y19325143D01*
X48028571Y19325143D02*
X47990476Y19287048D01*
X47990476Y19287048D02*
X47952380Y19210858D01*
X47952380Y19210858D02*
X47952380Y19058477D01*
X47952380Y19058477D02*
X47990476Y18982286D01*
X47990476Y18982286D02*
X48028571Y18944191D01*
X48028571Y18944191D02*
X48104761Y18906096D01*
X48104761Y18906096D02*
X48257142Y18906096D01*
X48257142Y18906096D02*
X48333333Y18944191D01*
X48333333Y18944191D02*
X48371428Y18982286D01*
X48371428Y18982286D02*
X48409523Y19058477D01*
X48409523Y19058477D02*
X48409523Y19210858D01*
X48409523Y19210858D02*
X48371428Y19287048D01*
X48371428Y19287048D02*
X48333333Y19325143D01*
X48333333Y19325143D02*
X48257142Y19363239D01*
%TO.C,R4*%
X47793904Y26866668D02*
X47412952Y26600001D01*
X47793904Y26409525D02*
X46993904Y26409525D01*
X46993904Y26409525D02*
X46993904Y26714287D01*
X46993904Y26714287D02*
X47032000Y26790477D01*
X47032000Y26790477D02*
X47070095Y26828572D01*
X47070095Y26828572D02*
X47146285Y26866668D01*
X47146285Y26866668D02*
X47260571Y26866668D01*
X47260571Y26866668D02*
X47336761Y26828572D01*
X47336761Y26828572D02*
X47374857Y26790477D01*
X47374857Y26790477D02*
X47412952Y26714287D01*
X47412952Y26714287D02*
X47412952Y26409525D01*
X47260571Y27552382D02*
X47793904Y27552382D01*
X46955809Y27361906D02*
X47527238Y27171429D01*
X47527238Y27171429D02*
X47527238Y27666668D01*
%TO.C,JP1*%
X35833333Y19006096D02*
X35833333Y18434667D01*
X35833333Y18434667D02*
X35795238Y18320381D01*
X35795238Y18320381D02*
X35719047Y18244191D01*
X35719047Y18244191D02*
X35604762Y18206096D01*
X35604762Y18206096D02*
X35528571Y18206096D01*
X36214286Y18206096D02*
X36214286Y19006096D01*
X36214286Y19006096D02*
X36519048Y19006096D01*
X36519048Y19006096D02*
X36595238Y18968000D01*
X36595238Y18968000D02*
X36633333Y18929905D01*
X36633333Y18929905D02*
X36671429Y18853715D01*
X36671429Y18853715D02*
X36671429Y18739429D01*
X36671429Y18739429D02*
X36633333Y18663239D01*
X36633333Y18663239D02*
X36595238Y18625143D01*
X36595238Y18625143D02*
X36519048Y18587048D01*
X36519048Y18587048D02*
X36214286Y18587048D01*
X37433333Y18206096D02*
X36976190Y18206096D01*
X37204762Y18206096D02*
X37204762Y19006096D01*
X37204762Y19006096D02*
X37128571Y18891810D01*
X37128571Y18891810D02*
X37052381Y18815620D01*
X37052381Y18815620D02*
X36976190Y18777524D01*
%TO.C,C12*%
X57985714Y19882286D02*
X57947618Y19844191D01*
X57947618Y19844191D02*
X57833333Y19806096D01*
X57833333Y19806096D02*
X57757142Y19806096D01*
X57757142Y19806096D02*
X57642856Y19844191D01*
X57642856Y19844191D02*
X57566666Y19920381D01*
X57566666Y19920381D02*
X57528571Y19996572D01*
X57528571Y19996572D02*
X57490475Y20148953D01*
X57490475Y20148953D02*
X57490475Y20263239D01*
X57490475Y20263239D02*
X57528571Y20415620D01*
X57528571Y20415620D02*
X57566666Y20491810D01*
X57566666Y20491810D02*
X57642856Y20568000D01*
X57642856Y20568000D02*
X57757142Y20606096D01*
X57757142Y20606096D02*
X57833333Y20606096D01*
X57833333Y20606096D02*
X57947618Y20568000D01*
X57947618Y20568000D02*
X57985714Y20529905D01*
X58747618Y19806096D02*
X58290475Y19806096D01*
X58519047Y19806096D02*
X58519047Y20606096D01*
X58519047Y20606096D02*
X58442856Y20491810D01*
X58442856Y20491810D02*
X58366666Y20415620D01*
X58366666Y20415620D02*
X58290475Y20377524D01*
X59052380Y20529905D02*
X59090476Y20568000D01*
X59090476Y20568000D02*
X59166666Y20606096D01*
X59166666Y20606096D02*
X59357142Y20606096D01*
X59357142Y20606096D02*
X59433333Y20568000D01*
X59433333Y20568000D02*
X59471428Y20529905D01*
X59471428Y20529905D02*
X59509523Y20453715D01*
X59509523Y20453715D02*
X59509523Y20377524D01*
X59509523Y20377524D02*
X59471428Y20263239D01*
X59471428Y20263239D02*
X59014285Y19806096D01*
X59014285Y19806096D02*
X59509523Y19806096D01*
%TO.C,U2*%
X33290476Y23706096D02*
X33290476Y23058477D01*
X33290476Y23058477D02*
X33328571Y22982286D01*
X33328571Y22982286D02*
X33366666Y22944191D01*
X33366666Y22944191D02*
X33442857Y22906096D01*
X33442857Y22906096D02*
X33595238Y22906096D01*
X33595238Y22906096D02*
X33671428Y22944191D01*
X33671428Y22944191D02*
X33709523Y22982286D01*
X33709523Y22982286D02*
X33747619Y23058477D01*
X33747619Y23058477D02*
X33747619Y23706096D01*
X34090475Y23629905D02*
X34128571Y23668000D01*
X34128571Y23668000D02*
X34204761Y23706096D01*
X34204761Y23706096D02*
X34395237Y23706096D01*
X34395237Y23706096D02*
X34471428Y23668000D01*
X34471428Y23668000D02*
X34509523Y23629905D01*
X34509523Y23629905D02*
X34547618Y23553715D01*
X34547618Y23553715D02*
X34547618Y23477524D01*
X34547618Y23477524D02*
X34509523Y23363239D01*
X34509523Y23363239D02*
X34052380Y22906096D01*
X34052380Y22906096D02*
X34547618Y22906096D01*
%TO.C,C11*%
X48785714Y19882286D02*
X48747618Y19844191D01*
X48747618Y19844191D02*
X48633333Y19806096D01*
X48633333Y19806096D02*
X48557142Y19806096D01*
X48557142Y19806096D02*
X48442856Y19844191D01*
X48442856Y19844191D02*
X48366666Y19920381D01*
X48366666Y19920381D02*
X48328571Y19996572D01*
X48328571Y19996572D02*
X48290475Y20148953D01*
X48290475Y20148953D02*
X48290475Y20263239D01*
X48290475Y20263239D02*
X48328571Y20415620D01*
X48328571Y20415620D02*
X48366666Y20491810D01*
X48366666Y20491810D02*
X48442856Y20568000D01*
X48442856Y20568000D02*
X48557142Y20606096D01*
X48557142Y20606096D02*
X48633333Y20606096D01*
X48633333Y20606096D02*
X48747618Y20568000D01*
X48747618Y20568000D02*
X48785714Y20529905D01*
X49547618Y19806096D02*
X49090475Y19806096D01*
X49319047Y19806096D02*
X49319047Y20606096D01*
X49319047Y20606096D02*
X49242856Y20491810D01*
X49242856Y20491810D02*
X49166666Y20415620D01*
X49166666Y20415620D02*
X49090475Y20377524D01*
X50309523Y19806096D02*
X49852380Y19806096D01*
X50080952Y19806096D02*
X50080952Y20606096D01*
X50080952Y20606096D02*
X50004761Y20491810D01*
X50004761Y20491810D02*
X49928571Y20415620D01*
X49928571Y20415620D02*
X49852380Y20377524D01*
%TO.C,U12*%
X14909524Y17906096D02*
X14909524Y17258477D01*
X14909524Y17258477D02*
X14947619Y17182286D01*
X14947619Y17182286D02*
X14985714Y17144191D01*
X14985714Y17144191D02*
X15061905Y17106096D01*
X15061905Y17106096D02*
X15214286Y17106096D01*
X15214286Y17106096D02*
X15290476Y17144191D01*
X15290476Y17144191D02*
X15328571Y17182286D01*
X15328571Y17182286D02*
X15366667Y17258477D01*
X15366667Y17258477D02*
X15366667Y17906096D01*
X16166666Y17106096D02*
X15709523Y17106096D01*
X15938095Y17106096D02*
X15938095Y17906096D01*
X15938095Y17906096D02*
X15861904Y17791810D01*
X15861904Y17791810D02*
X15785714Y17715620D01*
X15785714Y17715620D02*
X15709523Y17677524D01*
X16471428Y17829905D02*
X16509524Y17868000D01*
X16509524Y17868000D02*
X16585714Y17906096D01*
X16585714Y17906096D02*
X16776190Y17906096D01*
X16776190Y17906096D02*
X16852381Y17868000D01*
X16852381Y17868000D02*
X16890476Y17829905D01*
X16890476Y17829905D02*
X16928571Y17753715D01*
X16928571Y17753715D02*
X16928571Y17677524D01*
X16928571Y17677524D02*
X16890476Y17563239D01*
X16890476Y17563239D02*
X16433333Y17106096D01*
X16433333Y17106096D02*
X16928571Y17106096D01*
%TO.C,Q3*%
X50423809Y18329905D02*
X50347619Y18368000D01*
X50347619Y18368000D02*
X50271428Y18444191D01*
X50271428Y18444191D02*
X50157142Y18558477D01*
X50157142Y18558477D02*
X50080952Y18596572D01*
X50080952Y18596572D02*
X50004761Y18596572D01*
X50042857Y18406096D02*
X49966666Y18444191D01*
X49966666Y18444191D02*
X49890476Y18520381D01*
X49890476Y18520381D02*
X49852380Y18672762D01*
X49852380Y18672762D02*
X49852380Y18939429D01*
X49852380Y18939429D02*
X49890476Y19091810D01*
X49890476Y19091810D02*
X49966666Y19168000D01*
X49966666Y19168000D02*
X50042857Y19206096D01*
X50042857Y19206096D02*
X50195238Y19206096D01*
X50195238Y19206096D02*
X50271428Y19168000D01*
X50271428Y19168000D02*
X50347619Y19091810D01*
X50347619Y19091810D02*
X50385714Y18939429D01*
X50385714Y18939429D02*
X50385714Y18672762D01*
X50385714Y18672762D02*
X50347619Y18520381D01*
X50347619Y18520381D02*
X50271428Y18444191D01*
X50271428Y18444191D02*
X50195238Y18406096D01*
X50195238Y18406096D02*
X50042857Y18406096D01*
X50652380Y19206096D02*
X51147618Y19206096D01*
X51147618Y19206096D02*
X50880952Y18901334D01*
X50880952Y18901334D02*
X50995237Y18901334D01*
X50995237Y18901334D02*
X51071428Y18863239D01*
X51071428Y18863239D02*
X51109523Y18825143D01*
X51109523Y18825143D02*
X51147618Y18748953D01*
X51147618Y18748953D02*
X51147618Y18558477D01*
X51147618Y18558477D02*
X51109523Y18482286D01*
X51109523Y18482286D02*
X51071428Y18444191D01*
X51071428Y18444191D02*
X50995237Y18406096D01*
X50995237Y18406096D02*
X50766666Y18406096D01*
X50766666Y18406096D02*
X50690475Y18444191D01*
X50690475Y18444191D02*
X50652380Y18482286D01*
%TO.C,C23*%
X40885714Y9682286D02*
X40847618Y9644191D01*
X40847618Y9644191D02*
X40733333Y9606096D01*
X40733333Y9606096D02*
X40657142Y9606096D01*
X40657142Y9606096D02*
X40542856Y9644191D01*
X40542856Y9644191D02*
X40466666Y9720381D01*
X40466666Y9720381D02*
X40428571Y9796572D01*
X40428571Y9796572D02*
X40390475Y9948953D01*
X40390475Y9948953D02*
X40390475Y10063239D01*
X40390475Y10063239D02*
X40428571Y10215620D01*
X40428571Y10215620D02*
X40466666Y10291810D01*
X40466666Y10291810D02*
X40542856Y10368000D01*
X40542856Y10368000D02*
X40657142Y10406096D01*
X40657142Y10406096D02*
X40733333Y10406096D01*
X40733333Y10406096D02*
X40847618Y10368000D01*
X40847618Y10368000D02*
X40885714Y10329905D01*
X41190475Y10329905D02*
X41228571Y10368000D01*
X41228571Y10368000D02*
X41304761Y10406096D01*
X41304761Y10406096D02*
X41495237Y10406096D01*
X41495237Y10406096D02*
X41571428Y10368000D01*
X41571428Y10368000D02*
X41609523Y10329905D01*
X41609523Y10329905D02*
X41647618Y10253715D01*
X41647618Y10253715D02*
X41647618Y10177524D01*
X41647618Y10177524D02*
X41609523Y10063239D01*
X41609523Y10063239D02*
X41152380Y9606096D01*
X41152380Y9606096D02*
X41647618Y9606096D01*
X41914285Y10406096D02*
X42409523Y10406096D01*
X42409523Y10406096D02*
X42142857Y10101334D01*
X42142857Y10101334D02*
X42257142Y10101334D01*
X42257142Y10101334D02*
X42333333Y10063239D01*
X42333333Y10063239D02*
X42371428Y10025143D01*
X42371428Y10025143D02*
X42409523Y9948953D01*
X42409523Y9948953D02*
X42409523Y9758477D01*
X42409523Y9758477D02*
X42371428Y9682286D01*
X42371428Y9682286D02*
X42333333Y9644191D01*
X42333333Y9644191D02*
X42257142Y9606096D01*
X42257142Y9606096D02*
X42028571Y9606096D01*
X42028571Y9606096D02*
X41952380Y9644191D01*
X41952380Y9644191D02*
X41914285Y9682286D01*
%TO.C,R13*%
X45293904Y6285715D02*
X44912952Y6019048D01*
X45293904Y5828572D02*
X44493904Y5828572D01*
X44493904Y5828572D02*
X44493904Y6133334D01*
X44493904Y6133334D02*
X44532000Y6209524D01*
X44532000Y6209524D02*
X44570095Y6247619D01*
X44570095Y6247619D02*
X44646285Y6285715D01*
X44646285Y6285715D02*
X44760571Y6285715D01*
X44760571Y6285715D02*
X44836761Y6247619D01*
X44836761Y6247619D02*
X44874857Y6209524D01*
X44874857Y6209524D02*
X44912952Y6133334D01*
X44912952Y6133334D02*
X44912952Y5828572D01*
X45293904Y7047619D02*
X45293904Y6590476D01*
X45293904Y6819048D02*
X44493904Y6819048D01*
X44493904Y6819048D02*
X44608190Y6742857D01*
X44608190Y6742857D02*
X44684380Y6666667D01*
X44684380Y6666667D02*
X44722476Y6590476D01*
X44493904Y7314286D02*
X44493904Y7809524D01*
X44493904Y7809524D02*
X44798666Y7542858D01*
X44798666Y7542858D02*
X44798666Y7657143D01*
X44798666Y7657143D02*
X44836761Y7733334D01*
X44836761Y7733334D02*
X44874857Y7771429D01*
X44874857Y7771429D02*
X44951047Y7809524D01*
X44951047Y7809524D02*
X45141523Y7809524D01*
X45141523Y7809524D02*
X45217714Y7771429D01*
X45217714Y7771429D02*
X45255809Y7733334D01*
X45255809Y7733334D02*
X45293904Y7657143D01*
X45293904Y7657143D02*
X45293904Y7428572D01*
X45293904Y7428572D02*
X45255809Y7352381D01*
X45255809Y7352381D02*
X45217714Y7314286D01*
%TO.C,JP2*%
X1933333Y7506096D02*
X1933333Y6934667D01*
X1933333Y6934667D02*
X1895238Y6820381D01*
X1895238Y6820381D02*
X1819047Y6744191D01*
X1819047Y6744191D02*
X1704762Y6706096D01*
X1704762Y6706096D02*
X1628571Y6706096D01*
X2314286Y6706096D02*
X2314286Y7506096D01*
X2314286Y7506096D02*
X2619048Y7506096D01*
X2619048Y7506096D02*
X2695238Y7468000D01*
X2695238Y7468000D02*
X2733333Y7429905D01*
X2733333Y7429905D02*
X2771429Y7353715D01*
X2771429Y7353715D02*
X2771429Y7239429D01*
X2771429Y7239429D02*
X2733333Y7163239D01*
X2733333Y7163239D02*
X2695238Y7125143D01*
X2695238Y7125143D02*
X2619048Y7087048D01*
X2619048Y7087048D02*
X2314286Y7087048D01*
X3076190Y7429905D02*
X3114286Y7468000D01*
X3114286Y7468000D02*
X3190476Y7506096D01*
X3190476Y7506096D02*
X3380952Y7506096D01*
X3380952Y7506096D02*
X3457143Y7468000D01*
X3457143Y7468000D02*
X3495238Y7429905D01*
X3495238Y7429905D02*
X3533333Y7353715D01*
X3533333Y7353715D02*
X3533333Y7277524D01*
X3533333Y7277524D02*
X3495238Y7163239D01*
X3495238Y7163239D02*
X3038095Y6706096D01*
X3038095Y6706096D02*
X3533333Y6706096D01*
D10*
%TO.C,D2*%
X27461905Y22132620D02*
X27461905Y23132620D01*
X27461905Y23132620D02*
X27700000Y23132620D01*
X27700000Y23132620D02*
X27842857Y23085000D01*
X27842857Y23085000D02*
X27938095Y22989762D01*
X27938095Y22989762D02*
X27985714Y22894524D01*
X27985714Y22894524D02*
X28033333Y22704048D01*
X28033333Y22704048D02*
X28033333Y22561191D01*
X28033333Y22561191D02*
X27985714Y22370715D01*
X27985714Y22370715D02*
X27938095Y22275477D01*
X27938095Y22275477D02*
X27842857Y22180239D01*
X27842857Y22180239D02*
X27700000Y22132620D01*
X27700000Y22132620D02*
X27461905Y22132620D01*
X28414286Y23037381D02*
X28461905Y23085000D01*
X28461905Y23085000D02*
X28557143Y23132620D01*
X28557143Y23132620D02*
X28795238Y23132620D01*
X28795238Y23132620D02*
X28890476Y23085000D01*
X28890476Y23085000D02*
X28938095Y23037381D01*
X28938095Y23037381D02*
X28985714Y22942143D01*
X28985714Y22942143D02*
X28985714Y22846905D01*
X28985714Y22846905D02*
X28938095Y22704048D01*
X28938095Y22704048D02*
X28366667Y22132620D01*
X28366667Y22132620D02*
X28985714Y22132620D01*
D11*
%TO.C,R3*%
X43893904Y28766668D02*
X43512952Y28500001D01*
X43893904Y28309525D02*
X43093904Y28309525D01*
X43093904Y28309525D02*
X43093904Y28614287D01*
X43093904Y28614287D02*
X43132000Y28690477D01*
X43132000Y28690477D02*
X43170095Y28728572D01*
X43170095Y28728572D02*
X43246285Y28766668D01*
X43246285Y28766668D02*
X43360571Y28766668D01*
X43360571Y28766668D02*
X43436761Y28728572D01*
X43436761Y28728572D02*
X43474857Y28690477D01*
X43474857Y28690477D02*
X43512952Y28614287D01*
X43512952Y28614287D02*
X43512952Y28309525D01*
X43093904Y29033334D02*
X43093904Y29528572D01*
X43093904Y29528572D02*
X43398666Y29261906D01*
X43398666Y29261906D02*
X43398666Y29376191D01*
X43398666Y29376191D02*
X43436761Y29452382D01*
X43436761Y29452382D02*
X43474857Y29490477D01*
X43474857Y29490477D02*
X43551047Y29528572D01*
X43551047Y29528572D02*
X43741523Y29528572D01*
X43741523Y29528572D02*
X43817714Y29490477D01*
X43817714Y29490477D02*
X43855809Y29452382D01*
X43855809Y29452382D02*
X43893904Y29376191D01*
X43893904Y29376191D02*
X43893904Y29147620D01*
X43893904Y29147620D02*
X43855809Y29071429D01*
X43855809Y29071429D02*
X43817714Y29033334D01*
%TO.C,U5*%
X68243904Y25140477D02*
X68891523Y25140477D01*
X68891523Y25140477D02*
X68967714Y25178572D01*
X68967714Y25178572D02*
X69005809Y25216667D01*
X69005809Y25216667D02*
X69043904Y25292858D01*
X69043904Y25292858D02*
X69043904Y25445239D01*
X69043904Y25445239D02*
X69005809Y25521429D01*
X69005809Y25521429D02*
X68967714Y25559524D01*
X68967714Y25559524D02*
X68891523Y25597620D01*
X68891523Y25597620D02*
X68243904Y25597620D01*
X68243904Y26359524D02*
X68243904Y25978572D01*
X68243904Y25978572D02*
X68624857Y25940476D01*
X68624857Y25940476D02*
X68586761Y25978572D01*
X68586761Y25978572D02*
X68548666Y26054762D01*
X68548666Y26054762D02*
X68548666Y26245238D01*
X68548666Y26245238D02*
X68586761Y26321429D01*
X68586761Y26321429D02*
X68624857Y26359524D01*
X68624857Y26359524D02*
X68701047Y26397619D01*
X68701047Y26397619D02*
X68891523Y26397619D01*
X68891523Y26397619D02*
X68967714Y26359524D01*
X68967714Y26359524D02*
X69005809Y26321429D01*
X69005809Y26321429D02*
X69043904Y26245238D01*
X69043904Y26245238D02*
X69043904Y26054762D01*
X69043904Y26054762D02*
X69005809Y25978572D01*
X69005809Y25978572D02*
X68967714Y25940476D01*
D10*
%TO.C,RN1*%
X14667380Y1509524D02*
X14191190Y1176191D01*
X14667380Y938096D02*
X13667380Y938096D01*
X13667380Y938096D02*
X13667380Y1319048D01*
X13667380Y1319048D02*
X13715000Y1414286D01*
X13715000Y1414286D02*
X13762619Y1461905D01*
X13762619Y1461905D02*
X13857857Y1509524D01*
X13857857Y1509524D02*
X14000714Y1509524D01*
X14000714Y1509524D02*
X14095952Y1461905D01*
X14095952Y1461905D02*
X14143571Y1414286D01*
X14143571Y1414286D02*
X14191190Y1319048D01*
X14191190Y1319048D02*
X14191190Y938096D01*
X14667380Y1938096D02*
X13667380Y1938096D01*
X13667380Y1938096D02*
X14667380Y2509524D01*
X14667380Y2509524D02*
X13667380Y2509524D01*
X14667380Y3509524D02*
X14667380Y2938096D01*
X14667380Y3223810D02*
X13667380Y3223810D01*
X13667380Y3223810D02*
X13810238Y3128572D01*
X13810238Y3128572D02*
X13905476Y3033334D01*
X13905476Y3033334D02*
X13953095Y2938096D01*
D11*
%TO.C,Y1*%
X15192178Y6430926D02*
X14922804Y6161552D01*
X15299927Y6915799D02*
X15192178Y6430926D01*
X15192178Y6430926D02*
X15677051Y6538676D01*
X15596239Y5488117D02*
X15272990Y5811366D01*
X15434614Y5649742D02*
X16000300Y6215427D01*
X16000300Y6215427D02*
X15865613Y6188490D01*
X15865613Y6188490D02*
X15757863Y6188490D01*
X15757863Y6188490D02*
X15677051Y6215427D01*
%TO.C,C22*%
X33917714Y1785715D02*
X33955809Y1747619D01*
X33955809Y1747619D02*
X33993904Y1633334D01*
X33993904Y1633334D02*
X33993904Y1557143D01*
X33993904Y1557143D02*
X33955809Y1442857D01*
X33955809Y1442857D02*
X33879619Y1366667D01*
X33879619Y1366667D02*
X33803428Y1328572D01*
X33803428Y1328572D02*
X33651047Y1290476D01*
X33651047Y1290476D02*
X33536761Y1290476D01*
X33536761Y1290476D02*
X33384380Y1328572D01*
X33384380Y1328572D02*
X33308190Y1366667D01*
X33308190Y1366667D02*
X33232000Y1442857D01*
X33232000Y1442857D02*
X33193904Y1557143D01*
X33193904Y1557143D02*
X33193904Y1633334D01*
X33193904Y1633334D02*
X33232000Y1747619D01*
X33232000Y1747619D02*
X33270095Y1785715D01*
X33270095Y2090476D02*
X33232000Y2128572D01*
X33232000Y2128572D02*
X33193904Y2204762D01*
X33193904Y2204762D02*
X33193904Y2395238D01*
X33193904Y2395238D02*
X33232000Y2471429D01*
X33232000Y2471429D02*
X33270095Y2509524D01*
X33270095Y2509524D02*
X33346285Y2547619D01*
X33346285Y2547619D02*
X33422476Y2547619D01*
X33422476Y2547619D02*
X33536761Y2509524D01*
X33536761Y2509524D02*
X33993904Y2052381D01*
X33993904Y2052381D02*
X33993904Y2547619D01*
X33270095Y2852381D02*
X33232000Y2890477D01*
X33232000Y2890477D02*
X33193904Y2966667D01*
X33193904Y2966667D02*
X33193904Y3157143D01*
X33193904Y3157143D02*
X33232000Y3233334D01*
X33232000Y3233334D02*
X33270095Y3271429D01*
X33270095Y3271429D02*
X33346285Y3309524D01*
X33346285Y3309524D02*
X33422476Y3309524D01*
X33422476Y3309524D02*
X33536761Y3271429D01*
X33536761Y3271429D02*
X33993904Y2814286D01*
X33993904Y2814286D02*
X33993904Y3309524D01*
%TO.C,C1*%
X37766667Y11682286D02*
X37728571Y11644191D01*
X37728571Y11644191D02*
X37614286Y11606096D01*
X37614286Y11606096D02*
X37538095Y11606096D01*
X37538095Y11606096D02*
X37423809Y11644191D01*
X37423809Y11644191D02*
X37347619Y11720381D01*
X37347619Y11720381D02*
X37309524Y11796572D01*
X37309524Y11796572D02*
X37271428Y11948953D01*
X37271428Y11948953D02*
X37271428Y12063239D01*
X37271428Y12063239D02*
X37309524Y12215620D01*
X37309524Y12215620D02*
X37347619Y12291810D01*
X37347619Y12291810D02*
X37423809Y12368000D01*
X37423809Y12368000D02*
X37538095Y12406096D01*
X37538095Y12406096D02*
X37614286Y12406096D01*
X37614286Y12406096D02*
X37728571Y12368000D01*
X37728571Y12368000D02*
X37766667Y12329905D01*
X38528571Y11606096D02*
X38071428Y11606096D01*
X38300000Y11606096D02*
X38300000Y12406096D01*
X38300000Y12406096D02*
X38223809Y12291810D01*
X38223809Y12291810D02*
X38147619Y12215620D01*
X38147619Y12215620D02*
X38071428Y12177524D01*
%TO.C,U7*%
X46490476Y16106096D02*
X46490476Y15458477D01*
X46490476Y15458477D02*
X46528571Y15382286D01*
X46528571Y15382286D02*
X46566666Y15344191D01*
X46566666Y15344191D02*
X46642857Y15306096D01*
X46642857Y15306096D02*
X46795238Y15306096D01*
X46795238Y15306096D02*
X46871428Y15344191D01*
X46871428Y15344191D02*
X46909523Y15382286D01*
X46909523Y15382286D02*
X46947619Y15458477D01*
X46947619Y15458477D02*
X46947619Y16106096D01*
X47252380Y16106096D02*
X47785714Y16106096D01*
X47785714Y16106096D02*
X47442856Y15306096D01*
%TO.C,C2*%
X39166667Y24282286D02*
X39128571Y24244191D01*
X39128571Y24244191D02*
X39014286Y24206096D01*
X39014286Y24206096D02*
X38938095Y24206096D01*
X38938095Y24206096D02*
X38823809Y24244191D01*
X38823809Y24244191D02*
X38747619Y24320381D01*
X38747619Y24320381D02*
X38709524Y24396572D01*
X38709524Y24396572D02*
X38671428Y24548953D01*
X38671428Y24548953D02*
X38671428Y24663239D01*
X38671428Y24663239D02*
X38709524Y24815620D01*
X38709524Y24815620D02*
X38747619Y24891810D01*
X38747619Y24891810D02*
X38823809Y24968000D01*
X38823809Y24968000D02*
X38938095Y25006096D01*
X38938095Y25006096D02*
X39014286Y25006096D01*
X39014286Y25006096D02*
X39128571Y24968000D01*
X39128571Y24968000D02*
X39166667Y24929905D01*
X39471428Y24929905D02*
X39509524Y24968000D01*
X39509524Y24968000D02*
X39585714Y25006096D01*
X39585714Y25006096D02*
X39776190Y25006096D01*
X39776190Y25006096D02*
X39852381Y24968000D01*
X39852381Y24968000D02*
X39890476Y24929905D01*
X39890476Y24929905D02*
X39928571Y24853715D01*
X39928571Y24853715D02*
X39928571Y24777524D01*
X39928571Y24777524D02*
X39890476Y24663239D01*
X39890476Y24663239D02*
X39433333Y24206096D01*
X39433333Y24206096D02*
X39928571Y24206096D01*
%TO.C,R9*%
X47793904Y17466668D02*
X47412952Y17200001D01*
X47793904Y17009525D02*
X46993904Y17009525D01*
X46993904Y17009525D02*
X46993904Y17314287D01*
X46993904Y17314287D02*
X47032000Y17390477D01*
X47032000Y17390477D02*
X47070095Y17428572D01*
X47070095Y17428572D02*
X47146285Y17466668D01*
X47146285Y17466668D02*
X47260571Y17466668D01*
X47260571Y17466668D02*
X47336761Y17428572D01*
X47336761Y17428572D02*
X47374857Y17390477D01*
X47374857Y17390477D02*
X47412952Y17314287D01*
X47412952Y17314287D02*
X47412952Y17009525D01*
X47793904Y17847620D02*
X47793904Y18000001D01*
X47793904Y18000001D02*
X47755809Y18076191D01*
X47755809Y18076191D02*
X47717714Y18114287D01*
X47717714Y18114287D02*
X47603428Y18190477D01*
X47603428Y18190477D02*
X47451047Y18228572D01*
X47451047Y18228572D02*
X47146285Y18228572D01*
X47146285Y18228572D02*
X47070095Y18190477D01*
X47070095Y18190477D02*
X47032000Y18152382D01*
X47032000Y18152382D02*
X46993904Y18076191D01*
X46993904Y18076191D02*
X46993904Y17923810D01*
X46993904Y17923810D02*
X47032000Y17847620D01*
X47032000Y17847620D02*
X47070095Y17809525D01*
X47070095Y17809525D02*
X47146285Y17771429D01*
X47146285Y17771429D02*
X47336761Y17771429D01*
X47336761Y17771429D02*
X47412952Y17809525D01*
X47412952Y17809525D02*
X47451047Y17847620D01*
X47451047Y17847620D02*
X47489142Y17923810D01*
X47489142Y17923810D02*
X47489142Y18076191D01*
X47489142Y18076191D02*
X47451047Y18152382D01*
X47451047Y18152382D02*
X47412952Y18190477D01*
X47412952Y18190477D02*
X47336761Y18228572D01*
%TO.C,C13*%
X63185714Y8382286D02*
X63147618Y8344191D01*
X63147618Y8344191D02*
X63033333Y8306096D01*
X63033333Y8306096D02*
X62957142Y8306096D01*
X62957142Y8306096D02*
X62842856Y8344191D01*
X62842856Y8344191D02*
X62766666Y8420381D01*
X62766666Y8420381D02*
X62728571Y8496572D01*
X62728571Y8496572D02*
X62690475Y8648953D01*
X62690475Y8648953D02*
X62690475Y8763239D01*
X62690475Y8763239D02*
X62728571Y8915620D01*
X62728571Y8915620D02*
X62766666Y8991810D01*
X62766666Y8991810D02*
X62842856Y9068000D01*
X62842856Y9068000D02*
X62957142Y9106096D01*
X62957142Y9106096D02*
X63033333Y9106096D01*
X63033333Y9106096D02*
X63147618Y9068000D01*
X63147618Y9068000D02*
X63185714Y9029905D01*
X63947618Y8306096D02*
X63490475Y8306096D01*
X63719047Y8306096D02*
X63719047Y9106096D01*
X63719047Y9106096D02*
X63642856Y8991810D01*
X63642856Y8991810D02*
X63566666Y8915620D01*
X63566666Y8915620D02*
X63490475Y8877524D01*
X64214285Y9106096D02*
X64709523Y9106096D01*
X64709523Y9106096D02*
X64442857Y8801334D01*
X64442857Y8801334D02*
X64557142Y8801334D01*
X64557142Y8801334D02*
X64633333Y8763239D01*
X64633333Y8763239D02*
X64671428Y8725143D01*
X64671428Y8725143D02*
X64709523Y8648953D01*
X64709523Y8648953D02*
X64709523Y8458477D01*
X64709523Y8458477D02*
X64671428Y8382286D01*
X64671428Y8382286D02*
X64633333Y8344191D01*
X64633333Y8344191D02*
X64557142Y8306096D01*
X64557142Y8306096D02*
X64328571Y8306096D01*
X64328571Y8306096D02*
X64252380Y8344191D01*
X64252380Y8344191D02*
X64214285Y8382286D01*
%TO.C,C29*%
X11685714Y16982286D02*
X11647618Y16944191D01*
X11647618Y16944191D02*
X11533333Y16906096D01*
X11533333Y16906096D02*
X11457142Y16906096D01*
X11457142Y16906096D02*
X11342856Y16944191D01*
X11342856Y16944191D02*
X11266666Y17020381D01*
X11266666Y17020381D02*
X11228571Y17096572D01*
X11228571Y17096572D02*
X11190475Y17248953D01*
X11190475Y17248953D02*
X11190475Y17363239D01*
X11190475Y17363239D02*
X11228571Y17515620D01*
X11228571Y17515620D02*
X11266666Y17591810D01*
X11266666Y17591810D02*
X11342856Y17668000D01*
X11342856Y17668000D02*
X11457142Y17706096D01*
X11457142Y17706096D02*
X11533333Y17706096D01*
X11533333Y17706096D02*
X11647618Y17668000D01*
X11647618Y17668000D02*
X11685714Y17629905D01*
X11990475Y17629905D02*
X12028571Y17668000D01*
X12028571Y17668000D02*
X12104761Y17706096D01*
X12104761Y17706096D02*
X12295237Y17706096D01*
X12295237Y17706096D02*
X12371428Y17668000D01*
X12371428Y17668000D02*
X12409523Y17629905D01*
X12409523Y17629905D02*
X12447618Y17553715D01*
X12447618Y17553715D02*
X12447618Y17477524D01*
X12447618Y17477524D02*
X12409523Y17363239D01*
X12409523Y17363239D02*
X11952380Y16906096D01*
X11952380Y16906096D02*
X12447618Y16906096D01*
X12828571Y16906096D02*
X12980952Y16906096D01*
X12980952Y16906096D02*
X13057142Y16944191D01*
X13057142Y16944191D02*
X13095238Y16982286D01*
X13095238Y16982286D02*
X13171428Y17096572D01*
X13171428Y17096572D02*
X13209523Y17248953D01*
X13209523Y17248953D02*
X13209523Y17553715D01*
X13209523Y17553715D02*
X13171428Y17629905D01*
X13171428Y17629905D02*
X13133333Y17668000D01*
X13133333Y17668000D02*
X13057142Y17706096D01*
X13057142Y17706096D02*
X12904761Y17706096D01*
X12904761Y17706096D02*
X12828571Y17668000D01*
X12828571Y17668000D02*
X12790476Y17629905D01*
X12790476Y17629905D02*
X12752380Y17553715D01*
X12752380Y17553715D02*
X12752380Y17363239D01*
X12752380Y17363239D02*
X12790476Y17287048D01*
X12790476Y17287048D02*
X12828571Y17248953D01*
X12828571Y17248953D02*
X12904761Y17210858D01*
X12904761Y17210858D02*
X13057142Y17210858D01*
X13057142Y17210858D02*
X13133333Y17248953D01*
X13133333Y17248953D02*
X13171428Y17287048D01*
X13171428Y17287048D02*
X13209523Y17363239D01*
%TO.C,R1*%
X27893904Y4166668D02*
X27512952Y3900001D01*
X27893904Y3709525D02*
X27093904Y3709525D01*
X27093904Y3709525D02*
X27093904Y4014287D01*
X27093904Y4014287D02*
X27132000Y4090477D01*
X27132000Y4090477D02*
X27170095Y4128572D01*
X27170095Y4128572D02*
X27246285Y4166668D01*
X27246285Y4166668D02*
X27360571Y4166668D01*
X27360571Y4166668D02*
X27436761Y4128572D01*
X27436761Y4128572D02*
X27474857Y4090477D01*
X27474857Y4090477D02*
X27512952Y4014287D01*
X27512952Y4014287D02*
X27512952Y3709525D01*
X27893904Y4928572D02*
X27893904Y4471429D01*
X27893904Y4700001D02*
X27093904Y4700001D01*
X27093904Y4700001D02*
X27208190Y4623810D01*
X27208190Y4623810D02*
X27284380Y4547620D01*
X27284380Y4547620D02*
X27322476Y4471429D01*
%TO.C,C19*%
X48985714Y10582286D02*
X48947618Y10544191D01*
X48947618Y10544191D02*
X48833333Y10506096D01*
X48833333Y10506096D02*
X48757142Y10506096D01*
X48757142Y10506096D02*
X48642856Y10544191D01*
X48642856Y10544191D02*
X48566666Y10620381D01*
X48566666Y10620381D02*
X48528571Y10696572D01*
X48528571Y10696572D02*
X48490475Y10848953D01*
X48490475Y10848953D02*
X48490475Y10963239D01*
X48490475Y10963239D02*
X48528571Y11115620D01*
X48528571Y11115620D02*
X48566666Y11191810D01*
X48566666Y11191810D02*
X48642856Y11268000D01*
X48642856Y11268000D02*
X48757142Y11306096D01*
X48757142Y11306096D02*
X48833333Y11306096D01*
X48833333Y11306096D02*
X48947618Y11268000D01*
X48947618Y11268000D02*
X48985714Y11229905D01*
X49747618Y10506096D02*
X49290475Y10506096D01*
X49519047Y10506096D02*
X49519047Y11306096D01*
X49519047Y11306096D02*
X49442856Y11191810D01*
X49442856Y11191810D02*
X49366666Y11115620D01*
X49366666Y11115620D02*
X49290475Y11077524D01*
X50128571Y10506096D02*
X50280952Y10506096D01*
X50280952Y10506096D02*
X50357142Y10544191D01*
X50357142Y10544191D02*
X50395238Y10582286D01*
X50395238Y10582286D02*
X50471428Y10696572D01*
X50471428Y10696572D02*
X50509523Y10848953D01*
X50509523Y10848953D02*
X50509523Y11153715D01*
X50509523Y11153715D02*
X50471428Y11229905D01*
X50471428Y11229905D02*
X50433333Y11268000D01*
X50433333Y11268000D02*
X50357142Y11306096D01*
X50357142Y11306096D02*
X50204761Y11306096D01*
X50204761Y11306096D02*
X50128571Y11268000D01*
X50128571Y11268000D02*
X50090476Y11229905D01*
X50090476Y11229905D02*
X50052380Y11153715D01*
X50052380Y11153715D02*
X50052380Y10963239D01*
X50052380Y10963239D02*
X50090476Y10887048D01*
X50090476Y10887048D02*
X50128571Y10848953D01*
X50128571Y10848953D02*
X50204761Y10810858D01*
X50204761Y10810858D02*
X50357142Y10810858D01*
X50357142Y10810858D02*
X50433333Y10848953D01*
X50433333Y10848953D02*
X50471428Y10887048D01*
X50471428Y10887048D02*
X50509523Y10963239D01*
%TO.C,C7*%
X30397714Y666668D02*
X30435809Y628572D01*
X30435809Y628572D02*
X30473904Y514287D01*
X30473904Y514287D02*
X30473904Y438096D01*
X30473904Y438096D02*
X30435809Y323810D01*
X30435809Y323810D02*
X30359619Y247620D01*
X30359619Y247620D02*
X30283428Y209525D01*
X30283428Y209525D02*
X30131047Y171429D01*
X30131047Y171429D02*
X30016761Y171429D01*
X30016761Y171429D02*
X29864380Y209525D01*
X29864380Y209525D02*
X29788190Y247620D01*
X29788190Y247620D02*
X29712000Y323810D01*
X29712000Y323810D02*
X29673904Y438096D01*
X29673904Y438096D02*
X29673904Y514287D01*
X29673904Y514287D02*
X29712000Y628572D01*
X29712000Y628572D02*
X29750095Y666668D01*
X29673904Y933334D02*
X29673904Y1466668D01*
X29673904Y1466668D02*
X30473904Y1123810D01*
%TO.C,C27*%
X35717714Y1785715D02*
X35755809Y1747619D01*
X35755809Y1747619D02*
X35793904Y1633334D01*
X35793904Y1633334D02*
X35793904Y1557143D01*
X35793904Y1557143D02*
X35755809Y1442857D01*
X35755809Y1442857D02*
X35679619Y1366667D01*
X35679619Y1366667D02*
X35603428Y1328572D01*
X35603428Y1328572D02*
X35451047Y1290476D01*
X35451047Y1290476D02*
X35336761Y1290476D01*
X35336761Y1290476D02*
X35184380Y1328572D01*
X35184380Y1328572D02*
X35108190Y1366667D01*
X35108190Y1366667D02*
X35032000Y1442857D01*
X35032000Y1442857D02*
X34993904Y1557143D01*
X34993904Y1557143D02*
X34993904Y1633334D01*
X34993904Y1633334D02*
X35032000Y1747619D01*
X35032000Y1747619D02*
X35070095Y1785715D01*
X35070095Y2090476D02*
X35032000Y2128572D01*
X35032000Y2128572D02*
X34993904Y2204762D01*
X34993904Y2204762D02*
X34993904Y2395238D01*
X34993904Y2395238D02*
X35032000Y2471429D01*
X35032000Y2471429D02*
X35070095Y2509524D01*
X35070095Y2509524D02*
X35146285Y2547619D01*
X35146285Y2547619D02*
X35222476Y2547619D01*
X35222476Y2547619D02*
X35336761Y2509524D01*
X35336761Y2509524D02*
X35793904Y2052381D01*
X35793904Y2052381D02*
X35793904Y2547619D01*
X34993904Y2814286D02*
X34993904Y3347620D01*
X34993904Y3347620D02*
X35793904Y3004762D01*
%TO.C,Q5*%
X50523809Y8029905D02*
X50447619Y8068000D01*
X50447619Y8068000D02*
X50371428Y8144191D01*
X50371428Y8144191D02*
X50257142Y8258477D01*
X50257142Y8258477D02*
X50180952Y8296572D01*
X50180952Y8296572D02*
X50104761Y8296572D01*
X50142857Y8106096D02*
X50066666Y8144191D01*
X50066666Y8144191D02*
X49990476Y8220381D01*
X49990476Y8220381D02*
X49952380Y8372762D01*
X49952380Y8372762D02*
X49952380Y8639429D01*
X49952380Y8639429D02*
X49990476Y8791810D01*
X49990476Y8791810D02*
X50066666Y8868000D01*
X50066666Y8868000D02*
X50142857Y8906096D01*
X50142857Y8906096D02*
X50295238Y8906096D01*
X50295238Y8906096D02*
X50371428Y8868000D01*
X50371428Y8868000D02*
X50447619Y8791810D01*
X50447619Y8791810D02*
X50485714Y8639429D01*
X50485714Y8639429D02*
X50485714Y8372762D01*
X50485714Y8372762D02*
X50447619Y8220381D01*
X50447619Y8220381D02*
X50371428Y8144191D01*
X50371428Y8144191D02*
X50295238Y8106096D01*
X50295238Y8106096D02*
X50142857Y8106096D01*
X51209523Y8906096D02*
X50828571Y8906096D01*
X50828571Y8906096D02*
X50790475Y8525143D01*
X50790475Y8525143D02*
X50828571Y8563239D01*
X50828571Y8563239D02*
X50904761Y8601334D01*
X50904761Y8601334D02*
X51095237Y8601334D01*
X51095237Y8601334D02*
X51171428Y8563239D01*
X51171428Y8563239D02*
X51209523Y8525143D01*
X51209523Y8525143D02*
X51247618Y8448953D01*
X51247618Y8448953D02*
X51247618Y8258477D01*
X51247618Y8258477D02*
X51209523Y8182286D01*
X51209523Y8182286D02*
X51171428Y8144191D01*
X51171428Y8144191D02*
X51095237Y8106096D01*
X51095237Y8106096D02*
X50904761Y8106096D01*
X50904761Y8106096D02*
X50828571Y8144191D01*
X50828571Y8144191D02*
X50790475Y8182286D01*
%TO.C,R20*%
X18478778Y26710589D02*
X18097826Y26443922D01*
X18478778Y26253446D02*
X17678778Y26253446D01*
X17678778Y26253446D02*
X17678778Y26558208D01*
X17678778Y26558208D02*
X17716874Y26634398D01*
X17716874Y26634398D02*
X17754969Y26672493D01*
X17754969Y26672493D02*
X17831159Y26710589D01*
X17831159Y26710589D02*
X17945445Y26710589D01*
X17945445Y26710589D02*
X18021635Y26672493D01*
X18021635Y26672493D02*
X18059731Y26634398D01*
X18059731Y26634398D02*
X18097826Y26558208D01*
X18097826Y26558208D02*
X18097826Y26253446D01*
X17754969Y27015350D02*
X17716874Y27053446D01*
X17716874Y27053446D02*
X17678778Y27129636D01*
X17678778Y27129636D02*
X17678778Y27320112D01*
X17678778Y27320112D02*
X17716874Y27396303D01*
X17716874Y27396303D02*
X17754969Y27434398D01*
X17754969Y27434398D02*
X17831159Y27472493D01*
X17831159Y27472493D02*
X17907350Y27472493D01*
X17907350Y27472493D02*
X18021635Y27434398D01*
X18021635Y27434398D02*
X18478778Y26977255D01*
X18478778Y26977255D02*
X18478778Y27472493D01*
X17678778Y27967732D02*
X17678778Y28043922D01*
X17678778Y28043922D02*
X17716874Y28120113D01*
X17716874Y28120113D02*
X17754969Y28158208D01*
X17754969Y28158208D02*
X17831159Y28196303D01*
X17831159Y28196303D02*
X17983540Y28234398D01*
X17983540Y28234398D02*
X18174016Y28234398D01*
X18174016Y28234398D02*
X18326397Y28196303D01*
X18326397Y28196303D02*
X18402588Y28158208D01*
X18402588Y28158208D02*
X18440683Y28120113D01*
X18440683Y28120113D02*
X18478778Y28043922D01*
X18478778Y28043922D02*
X18478778Y27967732D01*
X18478778Y27967732D02*
X18440683Y27891541D01*
X18440683Y27891541D02*
X18402588Y27853446D01*
X18402588Y27853446D02*
X18326397Y27815351D01*
X18326397Y27815351D02*
X18174016Y27777255D01*
X18174016Y27777255D02*
X17983540Y27777255D01*
X17983540Y27777255D02*
X17831159Y27815351D01*
X17831159Y27815351D02*
X17754969Y27853446D01*
X17754969Y27853446D02*
X17716874Y27891541D01*
X17716874Y27891541D02*
X17678778Y27967732D01*
%TO.C,R10*%
X40993904Y16585715D02*
X40612952Y16319048D01*
X40993904Y16128572D02*
X40193904Y16128572D01*
X40193904Y16128572D02*
X40193904Y16433334D01*
X40193904Y16433334D02*
X40232000Y16509524D01*
X40232000Y16509524D02*
X40270095Y16547619D01*
X40270095Y16547619D02*
X40346285Y16585715D01*
X40346285Y16585715D02*
X40460571Y16585715D01*
X40460571Y16585715D02*
X40536761Y16547619D01*
X40536761Y16547619D02*
X40574857Y16509524D01*
X40574857Y16509524D02*
X40612952Y16433334D01*
X40612952Y16433334D02*
X40612952Y16128572D01*
X40993904Y17347619D02*
X40993904Y16890476D01*
X40993904Y17119048D02*
X40193904Y17119048D01*
X40193904Y17119048D02*
X40308190Y17042857D01*
X40308190Y17042857D02*
X40384380Y16966667D01*
X40384380Y16966667D02*
X40422476Y16890476D01*
X40193904Y17842858D02*
X40193904Y17919048D01*
X40193904Y17919048D02*
X40232000Y17995239D01*
X40232000Y17995239D02*
X40270095Y18033334D01*
X40270095Y18033334D02*
X40346285Y18071429D01*
X40346285Y18071429D02*
X40498666Y18109524D01*
X40498666Y18109524D02*
X40689142Y18109524D01*
X40689142Y18109524D02*
X40841523Y18071429D01*
X40841523Y18071429D02*
X40917714Y18033334D01*
X40917714Y18033334D02*
X40955809Y17995239D01*
X40955809Y17995239D02*
X40993904Y17919048D01*
X40993904Y17919048D02*
X40993904Y17842858D01*
X40993904Y17842858D02*
X40955809Y17766667D01*
X40955809Y17766667D02*
X40917714Y17728572D01*
X40917714Y17728572D02*
X40841523Y17690477D01*
X40841523Y17690477D02*
X40689142Y17652381D01*
X40689142Y17652381D02*
X40498666Y17652381D01*
X40498666Y17652381D02*
X40346285Y17690477D01*
X40346285Y17690477D02*
X40270095Y17728572D01*
X40270095Y17728572D02*
X40232000Y17766667D01*
X40232000Y17766667D02*
X40193904Y17842858D01*
D10*
%TO.C,U13*%
X20961905Y23132620D02*
X20961905Y22323096D01*
X20961905Y22323096D02*
X21009524Y22227858D01*
X21009524Y22227858D02*
X21057143Y22180239D01*
X21057143Y22180239D02*
X21152381Y22132620D01*
X21152381Y22132620D02*
X21342857Y22132620D01*
X21342857Y22132620D02*
X21438095Y22180239D01*
X21438095Y22180239D02*
X21485714Y22227858D01*
X21485714Y22227858D02*
X21533333Y22323096D01*
X21533333Y22323096D02*
X21533333Y23132620D01*
X22533333Y22132620D02*
X21961905Y22132620D01*
X22247619Y22132620D02*
X22247619Y23132620D01*
X22247619Y23132620D02*
X22152381Y22989762D01*
X22152381Y22989762D02*
X22057143Y22894524D01*
X22057143Y22894524D02*
X21961905Y22846905D01*
X22866667Y23132620D02*
X23485714Y23132620D01*
X23485714Y23132620D02*
X23152381Y22751667D01*
X23152381Y22751667D02*
X23295238Y22751667D01*
X23295238Y22751667D02*
X23390476Y22704048D01*
X23390476Y22704048D02*
X23438095Y22656429D01*
X23438095Y22656429D02*
X23485714Y22561191D01*
X23485714Y22561191D02*
X23485714Y22323096D01*
X23485714Y22323096D02*
X23438095Y22227858D01*
X23438095Y22227858D02*
X23390476Y22180239D01*
X23390476Y22180239D02*
X23295238Y22132620D01*
X23295238Y22132620D02*
X23009524Y22132620D01*
X23009524Y22132620D02*
X22914286Y22180239D01*
X22914286Y22180239D02*
X22866667Y22227858D01*
D11*
%TO.C,C20*%
X57785714Y10382286D02*
X57747618Y10344191D01*
X57747618Y10344191D02*
X57633333Y10306096D01*
X57633333Y10306096D02*
X57557142Y10306096D01*
X57557142Y10306096D02*
X57442856Y10344191D01*
X57442856Y10344191D02*
X57366666Y10420381D01*
X57366666Y10420381D02*
X57328571Y10496572D01*
X57328571Y10496572D02*
X57290475Y10648953D01*
X57290475Y10648953D02*
X57290475Y10763239D01*
X57290475Y10763239D02*
X57328571Y10915620D01*
X57328571Y10915620D02*
X57366666Y10991810D01*
X57366666Y10991810D02*
X57442856Y11068000D01*
X57442856Y11068000D02*
X57557142Y11106096D01*
X57557142Y11106096D02*
X57633333Y11106096D01*
X57633333Y11106096D02*
X57747618Y11068000D01*
X57747618Y11068000D02*
X57785714Y11029905D01*
X58090475Y11029905D02*
X58128571Y11068000D01*
X58128571Y11068000D02*
X58204761Y11106096D01*
X58204761Y11106096D02*
X58395237Y11106096D01*
X58395237Y11106096D02*
X58471428Y11068000D01*
X58471428Y11068000D02*
X58509523Y11029905D01*
X58509523Y11029905D02*
X58547618Y10953715D01*
X58547618Y10953715D02*
X58547618Y10877524D01*
X58547618Y10877524D02*
X58509523Y10763239D01*
X58509523Y10763239D02*
X58052380Y10306096D01*
X58052380Y10306096D02*
X58547618Y10306096D01*
X59042857Y11106096D02*
X59119047Y11106096D01*
X59119047Y11106096D02*
X59195238Y11068000D01*
X59195238Y11068000D02*
X59233333Y11029905D01*
X59233333Y11029905D02*
X59271428Y10953715D01*
X59271428Y10953715D02*
X59309523Y10801334D01*
X59309523Y10801334D02*
X59309523Y10610858D01*
X59309523Y10610858D02*
X59271428Y10458477D01*
X59271428Y10458477D02*
X59233333Y10382286D01*
X59233333Y10382286D02*
X59195238Y10344191D01*
X59195238Y10344191D02*
X59119047Y10306096D01*
X59119047Y10306096D02*
X59042857Y10306096D01*
X59042857Y10306096D02*
X58966666Y10344191D01*
X58966666Y10344191D02*
X58928571Y10382286D01*
X58928571Y10382286D02*
X58890476Y10458477D01*
X58890476Y10458477D02*
X58852380Y10610858D01*
X58852380Y10610858D02*
X58852380Y10801334D01*
X58852380Y10801334D02*
X58890476Y10953715D01*
X58890476Y10953715D02*
X58928571Y11029905D01*
X58928571Y11029905D02*
X58966666Y11068000D01*
X58966666Y11068000D02*
X59042857Y11106096D01*
%TO.C,C10*%
X37785714Y682286D02*
X37747618Y644191D01*
X37747618Y644191D02*
X37633333Y606096D01*
X37633333Y606096D02*
X37557142Y606096D01*
X37557142Y606096D02*
X37442856Y644191D01*
X37442856Y644191D02*
X37366666Y720381D01*
X37366666Y720381D02*
X37328571Y796572D01*
X37328571Y796572D02*
X37290475Y948953D01*
X37290475Y948953D02*
X37290475Y1063239D01*
X37290475Y1063239D02*
X37328571Y1215620D01*
X37328571Y1215620D02*
X37366666Y1291810D01*
X37366666Y1291810D02*
X37442856Y1368000D01*
X37442856Y1368000D02*
X37557142Y1406096D01*
X37557142Y1406096D02*
X37633333Y1406096D01*
X37633333Y1406096D02*
X37747618Y1368000D01*
X37747618Y1368000D02*
X37785714Y1329905D01*
X38547618Y606096D02*
X38090475Y606096D01*
X38319047Y606096D02*
X38319047Y1406096D01*
X38319047Y1406096D02*
X38242856Y1291810D01*
X38242856Y1291810D02*
X38166666Y1215620D01*
X38166666Y1215620D02*
X38090475Y1177524D01*
X39042857Y1406096D02*
X39119047Y1406096D01*
X39119047Y1406096D02*
X39195238Y1368000D01*
X39195238Y1368000D02*
X39233333Y1329905D01*
X39233333Y1329905D02*
X39271428Y1253715D01*
X39271428Y1253715D02*
X39309523Y1101334D01*
X39309523Y1101334D02*
X39309523Y910858D01*
X39309523Y910858D02*
X39271428Y758477D01*
X39271428Y758477D02*
X39233333Y682286D01*
X39233333Y682286D02*
X39195238Y644191D01*
X39195238Y644191D02*
X39119047Y606096D01*
X39119047Y606096D02*
X39042857Y606096D01*
X39042857Y606096D02*
X38966666Y644191D01*
X38966666Y644191D02*
X38928571Y682286D01*
X38928571Y682286D02*
X38890476Y758477D01*
X38890476Y758477D02*
X38852380Y910858D01*
X38852380Y910858D02*
X38852380Y1101334D01*
X38852380Y1101334D02*
X38890476Y1253715D01*
X38890476Y1253715D02*
X38928571Y1329905D01*
X38928571Y1329905D02*
X38966666Y1368000D01*
X38966666Y1368000D02*
X39042857Y1406096D01*
%TO.C,R15*%
X41093904Y6285715D02*
X40712952Y6019048D01*
X41093904Y5828572D02*
X40293904Y5828572D01*
X40293904Y5828572D02*
X40293904Y6133334D01*
X40293904Y6133334D02*
X40332000Y6209524D01*
X40332000Y6209524D02*
X40370095Y6247619D01*
X40370095Y6247619D02*
X40446285Y6285715D01*
X40446285Y6285715D02*
X40560571Y6285715D01*
X40560571Y6285715D02*
X40636761Y6247619D01*
X40636761Y6247619D02*
X40674857Y6209524D01*
X40674857Y6209524D02*
X40712952Y6133334D01*
X40712952Y6133334D02*
X40712952Y5828572D01*
X41093904Y7047619D02*
X41093904Y6590476D01*
X41093904Y6819048D02*
X40293904Y6819048D01*
X40293904Y6819048D02*
X40408190Y6742857D01*
X40408190Y6742857D02*
X40484380Y6666667D01*
X40484380Y6666667D02*
X40522476Y6590476D01*
X40293904Y7771429D02*
X40293904Y7390477D01*
X40293904Y7390477D02*
X40674857Y7352381D01*
X40674857Y7352381D02*
X40636761Y7390477D01*
X40636761Y7390477D02*
X40598666Y7466667D01*
X40598666Y7466667D02*
X40598666Y7657143D01*
X40598666Y7657143D02*
X40636761Y7733334D01*
X40636761Y7733334D02*
X40674857Y7771429D01*
X40674857Y7771429D02*
X40751047Y7809524D01*
X40751047Y7809524D02*
X40941523Y7809524D01*
X40941523Y7809524D02*
X41017714Y7771429D01*
X41017714Y7771429D02*
X41055809Y7733334D01*
X41055809Y7733334D02*
X41093904Y7657143D01*
X41093904Y7657143D02*
X41093904Y7466667D01*
X41093904Y7466667D02*
X41055809Y7390477D01*
X41055809Y7390477D02*
X41017714Y7352381D01*
%TO.C,R8*%
X45393904Y16666668D02*
X45012952Y16400001D01*
X45393904Y16209525D02*
X44593904Y16209525D01*
X44593904Y16209525D02*
X44593904Y16514287D01*
X44593904Y16514287D02*
X44632000Y16590477D01*
X44632000Y16590477D02*
X44670095Y16628572D01*
X44670095Y16628572D02*
X44746285Y16666668D01*
X44746285Y16666668D02*
X44860571Y16666668D01*
X44860571Y16666668D02*
X44936761Y16628572D01*
X44936761Y16628572D02*
X44974857Y16590477D01*
X44974857Y16590477D02*
X45012952Y16514287D01*
X45012952Y16514287D02*
X45012952Y16209525D01*
X44936761Y17123810D02*
X44898666Y17047620D01*
X44898666Y17047620D02*
X44860571Y17009525D01*
X44860571Y17009525D02*
X44784380Y16971429D01*
X44784380Y16971429D02*
X44746285Y16971429D01*
X44746285Y16971429D02*
X44670095Y17009525D01*
X44670095Y17009525D02*
X44632000Y17047620D01*
X44632000Y17047620D02*
X44593904Y17123810D01*
X44593904Y17123810D02*
X44593904Y17276191D01*
X44593904Y17276191D02*
X44632000Y17352382D01*
X44632000Y17352382D02*
X44670095Y17390477D01*
X44670095Y17390477D02*
X44746285Y17428572D01*
X44746285Y17428572D02*
X44784380Y17428572D01*
X44784380Y17428572D02*
X44860571Y17390477D01*
X44860571Y17390477D02*
X44898666Y17352382D01*
X44898666Y17352382D02*
X44936761Y17276191D01*
X44936761Y17276191D02*
X44936761Y17123810D01*
X44936761Y17123810D02*
X44974857Y17047620D01*
X44974857Y17047620D02*
X45012952Y17009525D01*
X45012952Y17009525D02*
X45089142Y16971429D01*
X45089142Y16971429D02*
X45241523Y16971429D01*
X45241523Y16971429D02*
X45317714Y17009525D01*
X45317714Y17009525D02*
X45355809Y17047620D01*
X45355809Y17047620D02*
X45393904Y17123810D01*
X45393904Y17123810D02*
X45393904Y17276191D01*
X45393904Y17276191D02*
X45355809Y17352382D01*
X45355809Y17352382D02*
X45317714Y17390477D01*
X45317714Y17390477D02*
X45241523Y17428572D01*
X45241523Y17428572D02*
X45089142Y17428572D01*
X45089142Y17428572D02*
X45012952Y17390477D01*
X45012952Y17390477D02*
X44974857Y17352382D01*
X44974857Y17352382D02*
X44936761Y17276191D01*
%TO.C,C25*%
X57785714Y182286D02*
X57747618Y144191D01*
X57747618Y144191D02*
X57633333Y106096D01*
X57633333Y106096D02*
X57557142Y106096D01*
X57557142Y106096D02*
X57442856Y144191D01*
X57442856Y144191D02*
X57366666Y220381D01*
X57366666Y220381D02*
X57328571Y296572D01*
X57328571Y296572D02*
X57290475Y448953D01*
X57290475Y448953D02*
X57290475Y563239D01*
X57290475Y563239D02*
X57328571Y715620D01*
X57328571Y715620D02*
X57366666Y791810D01*
X57366666Y791810D02*
X57442856Y868000D01*
X57442856Y868000D02*
X57557142Y906096D01*
X57557142Y906096D02*
X57633333Y906096D01*
X57633333Y906096D02*
X57747618Y868000D01*
X57747618Y868000D02*
X57785714Y829905D01*
X58090475Y829905D02*
X58128571Y868000D01*
X58128571Y868000D02*
X58204761Y906096D01*
X58204761Y906096D02*
X58395237Y906096D01*
X58395237Y906096D02*
X58471428Y868000D01*
X58471428Y868000D02*
X58509523Y829905D01*
X58509523Y829905D02*
X58547618Y753715D01*
X58547618Y753715D02*
X58547618Y677524D01*
X58547618Y677524D02*
X58509523Y563239D01*
X58509523Y563239D02*
X58052380Y106096D01*
X58052380Y106096D02*
X58547618Y106096D01*
X59271428Y906096D02*
X58890476Y906096D01*
X58890476Y906096D02*
X58852380Y525143D01*
X58852380Y525143D02*
X58890476Y563239D01*
X58890476Y563239D02*
X58966666Y601334D01*
X58966666Y601334D02*
X59157142Y601334D01*
X59157142Y601334D02*
X59233333Y563239D01*
X59233333Y563239D02*
X59271428Y525143D01*
X59271428Y525143D02*
X59309523Y448953D01*
X59309523Y448953D02*
X59309523Y258477D01*
X59309523Y258477D02*
X59271428Y182286D01*
X59271428Y182286D02*
X59233333Y144191D01*
X59233333Y144191D02*
X59157142Y106096D01*
X59157142Y106096D02*
X58966666Y106096D01*
X58966666Y106096D02*
X58890476Y144191D01*
X58890476Y144191D02*
X58852380Y182286D01*
%TO.C,R2*%
X26093904Y666668D02*
X25712952Y400001D01*
X26093904Y209525D02*
X25293904Y209525D01*
X25293904Y209525D02*
X25293904Y514287D01*
X25293904Y514287D02*
X25332000Y590477D01*
X25332000Y590477D02*
X25370095Y628572D01*
X25370095Y628572D02*
X25446285Y666668D01*
X25446285Y666668D02*
X25560571Y666668D01*
X25560571Y666668D02*
X25636761Y628572D01*
X25636761Y628572D02*
X25674857Y590477D01*
X25674857Y590477D02*
X25712952Y514287D01*
X25712952Y514287D02*
X25712952Y209525D01*
X25370095Y971429D02*
X25332000Y1009525D01*
X25332000Y1009525D02*
X25293904Y1085715D01*
X25293904Y1085715D02*
X25293904Y1276191D01*
X25293904Y1276191D02*
X25332000Y1352382D01*
X25332000Y1352382D02*
X25370095Y1390477D01*
X25370095Y1390477D02*
X25446285Y1428572D01*
X25446285Y1428572D02*
X25522476Y1428572D01*
X25522476Y1428572D02*
X25636761Y1390477D01*
X25636761Y1390477D02*
X26093904Y933334D01*
X26093904Y933334D02*
X26093904Y1428572D01*
%TO.C,C15*%
X16863516Y2659175D02*
X16863516Y2605300D01*
X16863516Y2605300D02*
X16809641Y2497551D01*
X16809641Y2497551D02*
X16755766Y2443676D01*
X16755766Y2443676D02*
X16648016Y2389801D01*
X16648016Y2389801D02*
X16540267Y2389801D01*
X16540267Y2389801D02*
X16459455Y2416739D01*
X16459455Y2416739D02*
X16324768Y2497551D01*
X16324768Y2497551D02*
X16243955Y2578363D01*
X16243955Y2578363D02*
X16163143Y2713050D01*
X16163143Y2713050D02*
X16136206Y2793862D01*
X16136206Y2793862D02*
X16136206Y2901612D01*
X16136206Y2901612D02*
X16190081Y3009361D01*
X16190081Y3009361D02*
X16243955Y3063236D01*
X16243955Y3063236D02*
X16351705Y3117111D01*
X16351705Y3117111D02*
X16405580Y3117111D01*
X17456138Y3144048D02*
X17132890Y2820800D01*
X17294514Y2982424D02*
X16728829Y3548109D01*
X16728829Y3548109D02*
X16755766Y3413422D01*
X16755766Y3413422D02*
X16755766Y3305673D01*
X16755766Y3305673D02*
X16728829Y3224861D01*
X17402264Y4221545D02*
X17132890Y3952171D01*
X17132890Y3952171D02*
X17375326Y3655859D01*
X17375326Y3655859D02*
X17375326Y3709734D01*
X17375326Y3709734D02*
X17402264Y3790546D01*
X17402264Y3790546D02*
X17536951Y3925233D01*
X17536951Y3925233D02*
X17617763Y3952171D01*
X17617763Y3952171D02*
X17671638Y3952171D01*
X17671638Y3952171D02*
X17752450Y3925233D01*
X17752450Y3925233D02*
X17887137Y3790546D01*
X17887137Y3790546D02*
X17914074Y3709734D01*
X17914074Y3709734D02*
X17914074Y3655859D01*
X17914074Y3655859D02*
X17887137Y3575047D01*
X17887137Y3575047D02*
X17752450Y3440360D01*
X17752450Y3440360D02*
X17671638Y3413423D01*
X17671638Y3413423D02*
X17617763Y3413423D01*
%TO.C,C5*%
X25666667Y23082286D02*
X25628571Y23044191D01*
X25628571Y23044191D02*
X25514286Y23006096D01*
X25514286Y23006096D02*
X25438095Y23006096D01*
X25438095Y23006096D02*
X25323809Y23044191D01*
X25323809Y23044191D02*
X25247619Y23120381D01*
X25247619Y23120381D02*
X25209524Y23196572D01*
X25209524Y23196572D02*
X25171428Y23348953D01*
X25171428Y23348953D02*
X25171428Y23463239D01*
X25171428Y23463239D02*
X25209524Y23615620D01*
X25209524Y23615620D02*
X25247619Y23691810D01*
X25247619Y23691810D02*
X25323809Y23768000D01*
X25323809Y23768000D02*
X25438095Y23806096D01*
X25438095Y23806096D02*
X25514286Y23806096D01*
X25514286Y23806096D02*
X25628571Y23768000D01*
X25628571Y23768000D02*
X25666667Y23729905D01*
X26390476Y23806096D02*
X26009524Y23806096D01*
X26009524Y23806096D02*
X25971428Y23425143D01*
X25971428Y23425143D02*
X26009524Y23463239D01*
X26009524Y23463239D02*
X26085714Y23501334D01*
X26085714Y23501334D02*
X26276190Y23501334D01*
X26276190Y23501334D02*
X26352381Y23463239D01*
X26352381Y23463239D02*
X26390476Y23425143D01*
X26390476Y23425143D02*
X26428571Y23348953D01*
X26428571Y23348953D02*
X26428571Y23158477D01*
X26428571Y23158477D02*
X26390476Y23082286D01*
X26390476Y23082286D02*
X26352381Y23044191D01*
X26352381Y23044191D02*
X26276190Y23006096D01*
X26276190Y23006096D02*
X26085714Y23006096D01*
X26085714Y23006096D02*
X26009524Y23044191D01*
X26009524Y23044191D02*
X25971428Y23082286D01*
D12*
%TO.C,D1*%
X7161905Y4532620D02*
X7161905Y5532620D01*
X7161905Y5532620D02*
X7400000Y5532620D01*
X7400000Y5532620D02*
X7542857Y5485000D01*
X7542857Y5485000D02*
X7638095Y5389762D01*
X7638095Y5389762D02*
X7685714Y5294524D01*
X7685714Y5294524D02*
X7733333Y5104048D01*
X7733333Y5104048D02*
X7733333Y4961191D01*
X7733333Y4961191D02*
X7685714Y4770715D01*
X7685714Y4770715D02*
X7638095Y4675477D01*
X7638095Y4675477D02*
X7542857Y4580239D01*
X7542857Y4580239D02*
X7400000Y4532620D01*
X7400000Y4532620D02*
X7161905Y4532620D01*
X8685714Y4532620D02*
X8114286Y4532620D01*
X8400000Y4532620D02*
X8400000Y5532620D01*
X8400000Y5532620D02*
X8304762Y5389762D01*
X8304762Y5389762D02*
X8209524Y5294524D01*
X8209524Y5294524D02*
X8114286Y5246905D01*
D11*
%TO.C,R7*%
X31093904Y7566668D02*
X30712952Y7300001D01*
X31093904Y7109525D02*
X30293904Y7109525D01*
X30293904Y7109525D02*
X30293904Y7414287D01*
X30293904Y7414287D02*
X30332000Y7490477D01*
X30332000Y7490477D02*
X30370095Y7528572D01*
X30370095Y7528572D02*
X30446285Y7566668D01*
X30446285Y7566668D02*
X30560571Y7566668D01*
X30560571Y7566668D02*
X30636761Y7528572D01*
X30636761Y7528572D02*
X30674857Y7490477D01*
X30674857Y7490477D02*
X30712952Y7414287D01*
X30712952Y7414287D02*
X30712952Y7109525D01*
X30293904Y7833334D02*
X30293904Y8366668D01*
X30293904Y8366668D02*
X31093904Y8023810D01*
%TO.C,Q2*%
X57823809Y27429905D02*
X57747619Y27468000D01*
X57747619Y27468000D02*
X57671428Y27544191D01*
X57671428Y27544191D02*
X57557142Y27658477D01*
X57557142Y27658477D02*
X57480952Y27696572D01*
X57480952Y27696572D02*
X57404761Y27696572D01*
X57442857Y27506096D02*
X57366666Y27544191D01*
X57366666Y27544191D02*
X57290476Y27620381D01*
X57290476Y27620381D02*
X57252380Y27772762D01*
X57252380Y27772762D02*
X57252380Y28039429D01*
X57252380Y28039429D02*
X57290476Y28191810D01*
X57290476Y28191810D02*
X57366666Y28268000D01*
X57366666Y28268000D02*
X57442857Y28306096D01*
X57442857Y28306096D02*
X57595238Y28306096D01*
X57595238Y28306096D02*
X57671428Y28268000D01*
X57671428Y28268000D02*
X57747619Y28191810D01*
X57747619Y28191810D02*
X57785714Y28039429D01*
X57785714Y28039429D02*
X57785714Y27772762D01*
X57785714Y27772762D02*
X57747619Y27620381D01*
X57747619Y27620381D02*
X57671428Y27544191D01*
X57671428Y27544191D02*
X57595238Y27506096D01*
X57595238Y27506096D02*
X57442857Y27506096D01*
X58090475Y28229905D02*
X58128571Y28268000D01*
X58128571Y28268000D02*
X58204761Y28306096D01*
X58204761Y28306096D02*
X58395237Y28306096D01*
X58395237Y28306096D02*
X58471428Y28268000D01*
X58471428Y28268000D02*
X58509523Y28229905D01*
X58509523Y28229905D02*
X58547618Y28153715D01*
X58547618Y28153715D02*
X58547618Y28077524D01*
X58547618Y28077524D02*
X58509523Y27963239D01*
X58509523Y27963239D02*
X58052380Y27506096D01*
X58052380Y27506096D02*
X58547618Y27506096D01*
%TO.C,FB1*%
X18293660Y1470640D02*
X18105098Y1282078D01*
X18401410Y985766D02*
X17835724Y1551452D01*
X17835724Y1551452D02*
X18105098Y1820826D01*
X18778533Y1955513D02*
X18886283Y2009388D01*
X18886283Y2009388D02*
X18940157Y2009388D01*
X18940157Y2009388D02*
X19020970Y1982450D01*
X19020970Y1982450D02*
X19101782Y1901638D01*
X19101782Y1901638D02*
X19128719Y1820826D01*
X19128719Y1820826D02*
X19128719Y1766951D01*
X19128719Y1766951D02*
X19101782Y1686139D01*
X19101782Y1686139D02*
X18886283Y1470640D01*
X18886283Y1470640D02*
X18320597Y2036325D01*
X18320597Y2036325D02*
X18509159Y2224887D01*
X18509159Y2224887D02*
X18589971Y2251824D01*
X18589971Y2251824D02*
X18643846Y2251824D01*
X18643846Y2251824D02*
X18724658Y2224887D01*
X18724658Y2224887D02*
X18778533Y2171012D01*
X18778533Y2171012D02*
X18805470Y2090200D01*
X18805470Y2090200D02*
X18805470Y2036325D01*
X18805470Y2036325D02*
X18778533Y1955513D01*
X18778533Y1955513D02*
X18589971Y1766951D01*
X19748279Y2332636D02*
X19425031Y2009388D01*
X19586655Y2171012D02*
X19020970Y2736697D01*
X19020970Y2736697D02*
X19047907Y2602010D01*
X19047907Y2602010D02*
X19047907Y2494261D01*
X19047907Y2494261D02*
X19020970Y2413449D01*
%TO.C,R12*%
X34093904Y10985715D02*
X33712952Y10719048D01*
X34093904Y10528572D02*
X33293904Y10528572D01*
X33293904Y10528572D02*
X33293904Y10833334D01*
X33293904Y10833334D02*
X33332000Y10909524D01*
X33332000Y10909524D02*
X33370095Y10947619D01*
X33370095Y10947619D02*
X33446285Y10985715D01*
X33446285Y10985715D02*
X33560571Y10985715D01*
X33560571Y10985715D02*
X33636761Y10947619D01*
X33636761Y10947619D02*
X33674857Y10909524D01*
X33674857Y10909524D02*
X33712952Y10833334D01*
X33712952Y10833334D02*
X33712952Y10528572D01*
X34093904Y11747619D02*
X34093904Y11290476D01*
X34093904Y11519048D02*
X33293904Y11519048D01*
X33293904Y11519048D02*
X33408190Y11442857D01*
X33408190Y11442857D02*
X33484380Y11366667D01*
X33484380Y11366667D02*
X33522476Y11290476D01*
X33370095Y12052381D02*
X33332000Y12090477D01*
X33332000Y12090477D02*
X33293904Y12166667D01*
X33293904Y12166667D02*
X33293904Y12357143D01*
X33293904Y12357143D02*
X33332000Y12433334D01*
X33332000Y12433334D02*
X33370095Y12471429D01*
X33370095Y12471429D02*
X33446285Y12509524D01*
X33446285Y12509524D02*
X33522476Y12509524D01*
X33522476Y12509524D02*
X33636761Y12471429D01*
X33636761Y12471429D02*
X34093904Y12014286D01*
X34093904Y12014286D02*
X34093904Y12509524D01*
%TO.C,R6*%
X64966667Y20706096D02*
X64700000Y21087048D01*
X64509524Y20706096D02*
X64509524Y21506096D01*
X64509524Y21506096D02*
X64814286Y21506096D01*
X64814286Y21506096D02*
X64890476Y21468000D01*
X64890476Y21468000D02*
X64928571Y21429905D01*
X64928571Y21429905D02*
X64966667Y21353715D01*
X64966667Y21353715D02*
X64966667Y21239429D01*
X64966667Y21239429D02*
X64928571Y21163239D01*
X64928571Y21163239D02*
X64890476Y21125143D01*
X64890476Y21125143D02*
X64814286Y21087048D01*
X64814286Y21087048D02*
X64509524Y21087048D01*
X65652381Y21506096D02*
X65500000Y21506096D01*
X65500000Y21506096D02*
X65423809Y21468000D01*
X65423809Y21468000D02*
X65385714Y21429905D01*
X65385714Y21429905D02*
X65309524Y21315620D01*
X65309524Y21315620D02*
X65271428Y21163239D01*
X65271428Y21163239D02*
X65271428Y20858477D01*
X65271428Y20858477D02*
X65309524Y20782286D01*
X65309524Y20782286D02*
X65347619Y20744191D01*
X65347619Y20744191D02*
X65423809Y20706096D01*
X65423809Y20706096D02*
X65576190Y20706096D01*
X65576190Y20706096D02*
X65652381Y20744191D01*
X65652381Y20744191D02*
X65690476Y20782286D01*
X65690476Y20782286D02*
X65728571Y20858477D01*
X65728571Y20858477D02*
X65728571Y21048953D01*
X65728571Y21048953D02*
X65690476Y21125143D01*
X65690476Y21125143D02*
X65652381Y21163239D01*
X65652381Y21163239D02*
X65576190Y21201334D01*
X65576190Y21201334D02*
X65423809Y21201334D01*
X65423809Y21201334D02*
X65347619Y21163239D01*
X65347619Y21163239D02*
X65309524Y21125143D01*
X65309524Y21125143D02*
X65271428Y21048953D01*
%TO.C,C24*%
X48785714Y582286D02*
X48747618Y544191D01*
X48747618Y544191D02*
X48633333Y506096D01*
X48633333Y506096D02*
X48557142Y506096D01*
X48557142Y506096D02*
X48442856Y544191D01*
X48442856Y544191D02*
X48366666Y620381D01*
X48366666Y620381D02*
X48328571Y696572D01*
X48328571Y696572D02*
X48290475Y848953D01*
X48290475Y848953D02*
X48290475Y963239D01*
X48290475Y963239D02*
X48328571Y1115620D01*
X48328571Y1115620D02*
X48366666Y1191810D01*
X48366666Y1191810D02*
X48442856Y1268000D01*
X48442856Y1268000D02*
X48557142Y1306096D01*
X48557142Y1306096D02*
X48633333Y1306096D01*
X48633333Y1306096D02*
X48747618Y1268000D01*
X48747618Y1268000D02*
X48785714Y1229905D01*
X49090475Y1229905D02*
X49128571Y1268000D01*
X49128571Y1268000D02*
X49204761Y1306096D01*
X49204761Y1306096D02*
X49395237Y1306096D01*
X49395237Y1306096D02*
X49471428Y1268000D01*
X49471428Y1268000D02*
X49509523Y1229905D01*
X49509523Y1229905D02*
X49547618Y1153715D01*
X49547618Y1153715D02*
X49547618Y1077524D01*
X49547618Y1077524D02*
X49509523Y963239D01*
X49509523Y963239D02*
X49052380Y506096D01*
X49052380Y506096D02*
X49547618Y506096D01*
X50233333Y1039429D02*
X50233333Y506096D01*
X50042857Y1344191D02*
X49852380Y772762D01*
X49852380Y772762D02*
X50347619Y772762D01*
%TO.C,Q6*%
X57723809Y8029905D02*
X57647619Y8068000D01*
X57647619Y8068000D02*
X57571428Y8144191D01*
X57571428Y8144191D02*
X57457142Y8258477D01*
X57457142Y8258477D02*
X57380952Y8296572D01*
X57380952Y8296572D02*
X57304761Y8296572D01*
X57342857Y8106096D02*
X57266666Y8144191D01*
X57266666Y8144191D02*
X57190476Y8220381D01*
X57190476Y8220381D02*
X57152380Y8372762D01*
X57152380Y8372762D02*
X57152380Y8639429D01*
X57152380Y8639429D02*
X57190476Y8791810D01*
X57190476Y8791810D02*
X57266666Y8868000D01*
X57266666Y8868000D02*
X57342857Y8906096D01*
X57342857Y8906096D02*
X57495238Y8906096D01*
X57495238Y8906096D02*
X57571428Y8868000D01*
X57571428Y8868000D02*
X57647619Y8791810D01*
X57647619Y8791810D02*
X57685714Y8639429D01*
X57685714Y8639429D02*
X57685714Y8372762D01*
X57685714Y8372762D02*
X57647619Y8220381D01*
X57647619Y8220381D02*
X57571428Y8144191D01*
X57571428Y8144191D02*
X57495238Y8106096D01*
X57495238Y8106096D02*
X57342857Y8106096D01*
X58371428Y8906096D02*
X58219047Y8906096D01*
X58219047Y8906096D02*
X58142856Y8868000D01*
X58142856Y8868000D02*
X58104761Y8829905D01*
X58104761Y8829905D02*
X58028571Y8715620D01*
X58028571Y8715620D02*
X57990475Y8563239D01*
X57990475Y8563239D02*
X57990475Y8258477D01*
X57990475Y8258477D02*
X58028571Y8182286D01*
X58028571Y8182286D02*
X58066666Y8144191D01*
X58066666Y8144191D02*
X58142856Y8106096D01*
X58142856Y8106096D02*
X58295237Y8106096D01*
X58295237Y8106096D02*
X58371428Y8144191D01*
X58371428Y8144191D02*
X58409523Y8182286D01*
X58409523Y8182286D02*
X58447618Y8258477D01*
X58447618Y8258477D02*
X58447618Y8448953D01*
X58447618Y8448953D02*
X58409523Y8525143D01*
X58409523Y8525143D02*
X58371428Y8563239D01*
X58371428Y8563239D02*
X58295237Y8601334D01*
X58295237Y8601334D02*
X58142856Y8601334D01*
X58142856Y8601334D02*
X58066666Y8563239D01*
X58066666Y8563239D02*
X58028571Y8525143D01*
X58028571Y8525143D02*
X57990475Y8448953D01*
%TO.C,U4*%
X46390476Y25406096D02*
X46390476Y24758477D01*
X46390476Y24758477D02*
X46428571Y24682286D01*
X46428571Y24682286D02*
X46466666Y24644191D01*
X46466666Y24644191D02*
X46542857Y24606096D01*
X46542857Y24606096D02*
X46695238Y24606096D01*
X46695238Y24606096D02*
X46771428Y24644191D01*
X46771428Y24644191D02*
X46809523Y24682286D01*
X46809523Y24682286D02*
X46847619Y24758477D01*
X46847619Y24758477D02*
X46847619Y25406096D01*
X47571428Y25139429D02*
X47571428Y24606096D01*
X47380952Y25444191D02*
X47190475Y24872762D01*
X47190475Y24872762D02*
X47685714Y24872762D01*
%TO.C,R14*%
X47693904Y6985715D02*
X47312952Y6719048D01*
X47693904Y6528572D02*
X46893904Y6528572D01*
X46893904Y6528572D02*
X46893904Y6833334D01*
X46893904Y6833334D02*
X46932000Y6909524D01*
X46932000Y6909524D02*
X46970095Y6947619D01*
X46970095Y6947619D02*
X47046285Y6985715D01*
X47046285Y6985715D02*
X47160571Y6985715D01*
X47160571Y6985715D02*
X47236761Y6947619D01*
X47236761Y6947619D02*
X47274857Y6909524D01*
X47274857Y6909524D02*
X47312952Y6833334D01*
X47312952Y6833334D02*
X47312952Y6528572D01*
X47693904Y7747619D02*
X47693904Y7290476D01*
X47693904Y7519048D02*
X46893904Y7519048D01*
X46893904Y7519048D02*
X47008190Y7442857D01*
X47008190Y7442857D02*
X47084380Y7366667D01*
X47084380Y7366667D02*
X47122476Y7290476D01*
X47160571Y8433334D02*
X47693904Y8433334D01*
X46855809Y8242858D02*
X47427238Y8052381D01*
X47427238Y8052381D02*
X47427238Y8547620D01*
%TO.C,R11*%
X65185714Y11206096D02*
X64919047Y11587048D01*
X64728571Y11206096D02*
X64728571Y12006096D01*
X64728571Y12006096D02*
X65033333Y12006096D01*
X65033333Y12006096D02*
X65109523Y11968000D01*
X65109523Y11968000D02*
X65147618Y11929905D01*
X65147618Y11929905D02*
X65185714Y11853715D01*
X65185714Y11853715D02*
X65185714Y11739429D01*
X65185714Y11739429D02*
X65147618Y11663239D01*
X65147618Y11663239D02*
X65109523Y11625143D01*
X65109523Y11625143D02*
X65033333Y11587048D01*
X65033333Y11587048D02*
X64728571Y11587048D01*
X65947618Y11206096D02*
X65490475Y11206096D01*
X65719047Y11206096D02*
X65719047Y12006096D01*
X65719047Y12006096D02*
X65642856Y11891810D01*
X65642856Y11891810D02*
X65566666Y11815620D01*
X65566666Y11815620D02*
X65490475Y11777524D01*
X66709523Y11206096D02*
X66252380Y11206096D01*
X66480952Y11206096D02*
X66480952Y12006096D01*
X66480952Y12006096D02*
X66404761Y11891810D01*
X66404761Y11891810D02*
X66328571Y11815620D01*
X66328571Y11815620D02*
X66252380Y11777524D01*
%TO.C,U9*%
X46490476Y6106096D02*
X46490476Y5458477D01*
X46490476Y5458477D02*
X46528571Y5382286D01*
X46528571Y5382286D02*
X46566666Y5344191D01*
X46566666Y5344191D02*
X46642857Y5306096D01*
X46642857Y5306096D02*
X46795238Y5306096D01*
X46795238Y5306096D02*
X46871428Y5344191D01*
X46871428Y5344191D02*
X46909523Y5382286D01*
X46909523Y5382286D02*
X46947619Y5458477D01*
X46947619Y5458477D02*
X46947619Y6106096D01*
X47366666Y5306096D02*
X47519047Y5306096D01*
X47519047Y5306096D02*
X47595237Y5344191D01*
X47595237Y5344191D02*
X47633333Y5382286D01*
X47633333Y5382286D02*
X47709523Y5496572D01*
X47709523Y5496572D02*
X47747618Y5648953D01*
X47747618Y5648953D02*
X47747618Y5953715D01*
X47747618Y5953715D02*
X47709523Y6029905D01*
X47709523Y6029905D02*
X47671428Y6068000D01*
X47671428Y6068000D02*
X47595237Y6106096D01*
X47595237Y6106096D02*
X47442856Y6106096D01*
X47442856Y6106096D02*
X47366666Y6068000D01*
X47366666Y6068000D02*
X47328571Y6029905D01*
X47328571Y6029905D02*
X47290475Y5953715D01*
X47290475Y5953715D02*
X47290475Y5763239D01*
X47290475Y5763239D02*
X47328571Y5687048D01*
X47328571Y5687048D02*
X47366666Y5648953D01*
X47366666Y5648953D02*
X47442856Y5610858D01*
X47442856Y5610858D02*
X47595237Y5610858D01*
X47595237Y5610858D02*
X47671428Y5648953D01*
X47671428Y5648953D02*
X47709523Y5687048D01*
X47709523Y5687048D02*
X47747618Y5763239D01*
D10*
%TO.C,D3*%
X17661905Y18757494D02*
X17661905Y19757494D01*
X17661905Y19757494D02*
X17900000Y19757494D01*
X17900000Y19757494D02*
X18042857Y19709874D01*
X18042857Y19709874D02*
X18138095Y19614636D01*
X18138095Y19614636D02*
X18185714Y19519398D01*
X18185714Y19519398D02*
X18233333Y19328922D01*
X18233333Y19328922D02*
X18233333Y19186065D01*
X18233333Y19186065D02*
X18185714Y18995589D01*
X18185714Y18995589D02*
X18138095Y18900351D01*
X18138095Y18900351D02*
X18042857Y18805113D01*
X18042857Y18805113D02*
X17900000Y18757494D01*
X17900000Y18757494D02*
X17661905Y18757494D01*
X18566667Y19757494D02*
X19185714Y19757494D01*
X19185714Y19757494D02*
X18852381Y19376541D01*
X18852381Y19376541D02*
X18995238Y19376541D01*
X18995238Y19376541D02*
X19090476Y19328922D01*
X19090476Y19328922D02*
X19138095Y19281303D01*
X19138095Y19281303D02*
X19185714Y19186065D01*
X19185714Y19186065D02*
X19185714Y18947970D01*
X19185714Y18947970D02*
X19138095Y18852732D01*
X19138095Y18852732D02*
X19090476Y18805113D01*
X19090476Y18805113D02*
X18995238Y18757494D01*
X18995238Y18757494D02*
X18709524Y18757494D01*
X18709524Y18757494D02*
X18614286Y18805113D01*
X18614286Y18805113D02*
X18566667Y18852732D01*
D11*
%TO.C,R16*%
X65085714Y1206096D02*
X64819047Y1587048D01*
X64628571Y1206096D02*
X64628571Y2006096D01*
X64628571Y2006096D02*
X64933333Y2006096D01*
X64933333Y2006096D02*
X65009523Y1968000D01*
X65009523Y1968000D02*
X65047618Y1929905D01*
X65047618Y1929905D02*
X65085714Y1853715D01*
X65085714Y1853715D02*
X65085714Y1739429D01*
X65085714Y1739429D02*
X65047618Y1663239D01*
X65047618Y1663239D02*
X65009523Y1625143D01*
X65009523Y1625143D02*
X64933333Y1587048D01*
X64933333Y1587048D02*
X64628571Y1587048D01*
X65847618Y1206096D02*
X65390475Y1206096D01*
X65619047Y1206096D02*
X65619047Y2006096D01*
X65619047Y2006096D02*
X65542856Y1891810D01*
X65542856Y1891810D02*
X65466666Y1815620D01*
X65466666Y1815620D02*
X65390475Y1777524D01*
X66533333Y2006096D02*
X66380952Y2006096D01*
X66380952Y2006096D02*
X66304761Y1968000D01*
X66304761Y1968000D02*
X66266666Y1929905D01*
X66266666Y1929905D02*
X66190476Y1815620D01*
X66190476Y1815620D02*
X66152380Y1663239D01*
X66152380Y1663239D02*
X66152380Y1358477D01*
X66152380Y1358477D02*
X66190476Y1282286D01*
X66190476Y1282286D02*
X66228571Y1244191D01*
X66228571Y1244191D02*
X66304761Y1206096D01*
X66304761Y1206096D02*
X66457142Y1206096D01*
X66457142Y1206096D02*
X66533333Y1244191D01*
X66533333Y1244191D02*
X66571428Y1282286D01*
X66571428Y1282286D02*
X66609523Y1358477D01*
X66609523Y1358477D02*
X66609523Y1548953D01*
X66609523Y1548953D02*
X66571428Y1625143D01*
X66571428Y1625143D02*
X66533333Y1663239D01*
X66533333Y1663239D02*
X66457142Y1701334D01*
X66457142Y1701334D02*
X66304761Y1701334D01*
X66304761Y1701334D02*
X66228571Y1663239D01*
X66228571Y1663239D02*
X66190476Y1625143D01*
X66190476Y1625143D02*
X66152380Y1548953D01*
%TO.C,R18*%
X3497374Y14485848D02*
X3497374Y13976400D01*
X2452374Y14485848D02*
X2452374Y13976400D01*
%TO.C,C16*%
X31734874Y12621141D02*
X31734874Y12328607D01*
X30714874Y12621141D02*
X30714874Y12328607D01*
%TO.C,C14*%
X32510000Y5308767D02*
X32510000Y5016233D01*
X31490000Y5308767D02*
X31490000Y5016233D01*
%TO.C,C6*%
X23023626Y27564874D02*
X22501122Y27564874D01*
X23023626Y29034874D02*
X22501122Y29034874D01*
%TO.C,C28*%
X7236141Y7990000D02*
X6943607Y7990000D01*
X7236141Y9010000D02*
X6943607Y9010000D01*
%TO.C,U10*%
X65590000Y6950000D02*
X65590000Y5550000D01*
X67910000Y5550000D02*
X67910000Y7450000D01*
%TO.C,U8*%
X65590000Y16950000D02*
X65590000Y15550000D01*
X67910000Y15550000D02*
X67910000Y17450000D01*
%TO.C,U6*%
X18869563Y12474874D02*
X19081695Y12262742D01*
X19081695Y12262742D02*
X18151850Y11332897D01*
X23974874Y7369563D02*
X23762742Y7581695D01*
X19081695Y12687006D02*
X18869563Y12474874D01*
X24187006Y7581695D02*
X23974874Y7369563D01*
X23762742Y17368053D02*
X23974874Y17580185D01*
X28868053Y12262742D02*
X29080185Y12474874D01*
X23974874Y17580185D02*
X24187006Y17368053D01*
X29080185Y12474874D02*
X28868053Y12687006D01*
%TO.C,Q4*%
X63615000Y17335000D02*
X63615000Y17685000D01*
X57495000Y12315000D02*
X63615000Y12315000D01*
X57495000Y12615000D02*
X57495000Y12315000D01*
X57495000Y17385000D02*
X57495000Y17685000D01*
X57495000Y17685000D02*
X63615000Y17685000D01*
%TO.C,U11*%
X4529874Y13206124D02*
X4529874Y9756124D01*
X4529874Y13206124D02*
X4529874Y15156124D01*
X9649874Y13206124D02*
X9649874Y11256124D01*
X9649874Y13206124D02*
X9649874Y15156124D01*
%TO.C,C21*%
X66603733Y19260000D02*
X66896267Y19260000D01*
X66603733Y18240000D02*
X66896267Y18240000D01*
%TO.C,C17*%
X16464874Y12078607D02*
X16464874Y12371141D01*
X17484874Y12078607D02*
X17484874Y12371141D01*
%TO.C,R19*%
X13662374Y26970150D02*
X13662374Y27479598D01*
X14707374Y26970150D02*
X14707374Y27479598D01*
%TO.C,C26*%
X66603733Y28760000D02*
X66896267Y28760000D01*
X66603733Y27740000D02*
X66896267Y27740000D01*
%TO.C,Q1*%
X56415000Y26735000D02*
X56415000Y27085000D01*
X50295000Y21715000D02*
X56415000Y21715000D01*
X50295000Y22015000D02*
X50295000Y21715000D01*
X50295000Y26785000D02*
X50295000Y27085000D01*
X50295000Y27085000D02*
X56415000Y27085000D01*
%TO.C,C3*%
X38511252Y5765000D02*
X37988748Y5765000D01*
X38511252Y7235000D02*
X37988748Y7235000D01*
%TO.C,R17*%
X36022500Y8892224D02*
X36022500Y8382776D01*
X34977500Y8892224D02*
X34977500Y8382776D01*
%TO.C,R5*%
X41477500Y26082776D02*
X41477500Y26592224D01*
X42522500Y26082776D02*
X42522500Y26592224D01*
%TO.C,C4*%
X31265000Y25238748D02*
X31265000Y25761252D01*
X32735000Y25238748D02*
X32735000Y25761252D01*
%TO.C,C18*%
X44453733Y20010000D02*
X44746267Y20010000D01*
X44453733Y18990000D02*
X44746267Y18990000D01*
%TO.C,R4*%
X48177500Y25745276D02*
X48177500Y26254724D01*
X49222500Y25745276D02*
X49222500Y26254724D01*
%TO.C,JP1*%
X37500000Y23599874D02*
X37500000Y19499874D01*
X35500000Y23599874D02*
X37500000Y23599874D01*
X35000000Y23149874D02*
X35000000Y22549874D01*
X35300000Y22849874D02*
X35000000Y23149874D01*
X35300000Y22849874D02*
X35000000Y22549874D01*
X37500000Y19499874D02*
X35500000Y19499874D01*
X35500000Y19499874D02*
X35500000Y23599874D01*
%TO.C,C12*%
X54938748Y21235000D02*
X55461252Y21235000D01*
X54938748Y19765000D02*
X55461252Y19765000D01*
%TO.C,U2*%
X37800000Y24419874D02*
X36660000Y24419874D01*
X36660000Y24189874D02*
X36660000Y24419874D01*
X36660000Y24189874D02*
X33940000Y24189874D01*
X36660000Y28909874D02*
X36660000Y28679874D01*
X33940000Y24189874D02*
X33940000Y25499874D01*
X33940000Y27599874D02*
X33940000Y28909874D01*
X33940000Y28909874D02*
X36660000Y28909874D01*
%TO.C,C11*%
X49210000Y22646267D02*
X49210000Y22353733D01*
X48190000Y22646267D02*
X48190000Y22353733D01*
D10*
%TO.C,U12*%
X16859874Y22849874D02*
X16634874Y22849874D01*
X16859874Y22849874D02*
X16859874Y19499874D01*
X16634874Y22849874D02*
X16634874Y24074874D01*
X13509874Y22849874D02*
X13809874Y22849874D01*
X13509874Y22849874D02*
X13509874Y19499874D01*
X16859874Y19499874D02*
X16559874Y19499874D01*
X13509874Y19499874D02*
X13809874Y19499874D01*
D11*
%TO.C,Q3*%
X56365000Y17335000D02*
X56365000Y17685000D01*
X50245000Y12315000D02*
X56365000Y12315000D01*
X50245000Y12615000D02*
X50245000Y12315000D01*
X50245000Y17385000D02*
X50245000Y17685000D01*
X50245000Y17685000D02*
X56365000Y17685000D01*
%TO.C,C23*%
X44416233Y10510000D02*
X44708767Y10510000D01*
X44416233Y9490000D02*
X44708767Y9490000D01*
%TO.C,R13*%
X42977500Y6745276D02*
X42977500Y7254724D01*
X44022500Y6745276D02*
X44022500Y7254724D01*
%TO.C,JP2*%
X3750000Y12300000D02*
X3750000Y8200000D01*
X1750000Y12300000D02*
X3750000Y12300000D01*
X1250000Y11850000D02*
X1250000Y11250000D01*
X1550000Y11550000D02*
X1250000Y11850000D01*
X1550000Y11550000D02*
X1250000Y11250000D01*
X3750000Y8200000D02*
X1750000Y8200000D01*
X1750000Y8200000D02*
X1750000Y12300000D01*
%TO.C,D2*%
X27402374Y25149874D02*
X27402374Y23449874D01*
X27402374Y25149874D02*
X30062374Y25149874D01*
X27402374Y23449874D02*
X30062374Y23449874D01*
%TO.C,R3*%
X42977500Y26082776D02*
X42977500Y26592224D01*
X44022500Y26082776D02*
X44022500Y26592224D01*
%TO.C,U5*%
X65590000Y26450000D02*
X65590000Y25050000D01*
X67910000Y25050000D02*
X67910000Y26950000D01*
%TO.C,RN1*%
X11400000Y920000D02*
X12400000Y920000D01*
X11400000Y4280000D02*
X12400000Y4280000D01*
%TO.C,Y1*%
X16659189Y10237616D02*
X15244975Y8823402D01*
X15244975Y8823402D02*
X14962132Y8540559D01*
X16800610Y10096194D02*
X16906676Y9990128D01*
X15386396Y8681981D02*
X16800610Y10096194D01*
X15386396Y8681981D02*
X15103554Y8399138D01*
X15103554Y8399138D02*
X15209620Y8293072D01*
X15846016Y7656676D02*
X15810660Y7692031D01*
X15846016Y7656676D02*
X15563173Y7373833D01*
X19346194Y7550610D02*
X19240128Y7656676D01*
X19346194Y7550610D02*
X17931981Y6136396D01*
X17931981Y6136396D02*
X17649138Y5853554D01*
X17649138Y5853554D02*
X17543072Y5959620D01*
%TO.C,C22*%
X34260000Y5308767D02*
X34260000Y5016233D01*
X33240000Y5308767D02*
X33240000Y5016233D01*
%TO.C,C1*%
X38235000Y9761252D02*
X38235000Y9238748D01*
X36765000Y9761252D02*
X36765000Y9238748D01*
D10*
%TO.C,U7*%
X46375000Y11575000D02*
X46375000Y11800000D01*
X46375000Y11575000D02*
X43025000Y11575000D01*
X46375000Y11800000D02*
X47600000Y11800000D01*
X46375000Y14925000D02*
X46375000Y14625000D01*
X46375000Y14925000D02*
X43025000Y14925000D01*
X43025000Y11575000D02*
X43025000Y11875000D01*
X43025000Y14925000D02*
X43025000Y14625000D01*
D11*
%TO.C,C2*%
X39985000Y27511252D02*
X39985000Y26988748D01*
X38515000Y27511252D02*
X38515000Y26988748D01*
%TO.C,R9*%
X48177500Y16495276D02*
X48177500Y17004724D01*
X49222500Y16495276D02*
X49222500Y17004724D01*
%TO.C,C13*%
X66603733Y9260000D02*
X66896267Y9260000D01*
X66603733Y8240000D02*
X66896267Y8240000D01*
%TO.C,C29*%
X12694874Y19871141D02*
X12694874Y19578607D01*
X11674874Y19871141D02*
X11674874Y19578607D01*
%TO.C,R1*%
X29272500Y5504724D02*
X29272500Y4995276D01*
X28227500Y5504724D02*
X28227500Y4995276D01*
%TO.C,C19*%
X49210000Y13396267D02*
X49210000Y13103733D01*
X48190000Y13396267D02*
X48190000Y13103733D01*
%TO.C,C7*%
X29260000Y1896267D02*
X29260000Y1603733D01*
X28240000Y1896267D02*
X28240000Y1603733D01*
%TO.C,C27*%
X36010000Y5283767D02*
X36010000Y4991233D01*
X34990000Y5283767D02*
X34990000Y4991233D01*
%TO.C,Q5*%
X56365000Y7185000D02*
X56365000Y7535000D01*
X50245000Y2165000D02*
X56365000Y2165000D01*
X50245000Y2465000D02*
X50245000Y2165000D01*
X50245000Y7235000D02*
X50245000Y7535000D01*
X50245000Y7535000D02*
X56365000Y7535000D01*
%TO.C,R20*%
X15912374Y26970150D02*
X15912374Y27479598D01*
X16957374Y26970150D02*
X16957374Y27479598D01*
%TO.C,R10*%
X41477500Y16745276D02*
X41477500Y17254724D01*
X42522500Y16745276D02*
X42522500Y17254724D01*
%TO.C,U13*%
X22600000Y26760000D02*
X20800000Y26760000D01*
X22600000Y26760000D02*
X23400000Y26760000D01*
X22600000Y23640000D02*
X21800000Y23640000D01*
X22600000Y23640000D02*
X23400000Y23640000D01*
%TO.C,C20*%
X54938748Y11835000D02*
X55461252Y11835000D01*
X54938748Y10365000D02*
X55461252Y10365000D01*
%TO.C,C10*%
X37516233Y2810000D02*
X37808767Y2810000D01*
X37516233Y1790000D02*
X37808767Y1790000D01*
%TO.C,R15*%
X41477500Y6745276D02*
X41477500Y7254724D01*
X42522500Y6745276D02*
X42522500Y7254724D01*
%TO.C,R8*%
X42977500Y16745276D02*
X42977500Y17254724D01*
X44022500Y16745276D02*
X44022500Y17254724D01*
%TO.C,C25*%
X54938748Y1735000D02*
X55461252Y1735000D01*
X54938748Y265000D02*
X55461252Y265000D01*
%TO.C,R2*%
X27522500Y2004724D02*
X27522500Y1495276D01*
X26477500Y2004724D02*
X26477500Y1495276D01*
%TO.C,C15*%
X20429331Y5139884D02*
X20059864Y4770417D01*
X19389884Y6179331D02*
X19020417Y5809864D01*
%TO.C,C5*%
X25027374Y25788622D02*
X25027374Y26311126D01*
X26497374Y25788622D02*
X26497374Y26311126D01*
D12*
%TO.C,D1*%
X7050000Y700000D02*
X8050000Y700000D01*
X7050000Y800000D02*
X7050000Y700000D01*
X7050000Y1500000D02*
X7050000Y800000D01*
X7050000Y1500000D02*
X7050000Y2100000D01*
D11*
%TO.C,R7*%
X32522500Y8917224D02*
X32522500Y8407776D01*
X31477500Y8917224D02*
X31477500Y8407776D01*
%TO.C,Q2*%
X63665000Y26685000D02*
X63665000Y27035000D01*
X57545000Y21665000D02*
X63665000Y21665000D01*
X57545000Y21965000D02*
X57545000Y21665000D01*
X57545000Y26735000D02*
X57545000Y27035000D01*
X57545000Y27035000D02*
X63665000Y27035000D01*
%TO.C,FB1*%
X20493145Y4214394D02*
X20735354Y4456603D01*
X21214394Y3493145D02*
X21456603Y3735354D01*
%TO.C,R12*%
X34272500Y8917224D02*
X34272500Y8407776D01*
X33227500Y8917224D02*
X33227500Y8407776D01*
%TO.C,R6*%
X65972936Y23660000D02*
X67427064Y23660000D01*
X65972936Y21840000D02*
X67427064Y21840000D01*
%TO.C,C24*%
X49210000Y3258767D02*
X49210000Y2966233D01*
X48190000Y3258767D02*
X48190000Y2966233D01*
%TO.C,Q6*%
X63665000Y7235000D02*
X63665000Y7585000D01*
X57545000Y2215000D02*
X63665000Y2215000D01*
X57545000Y2515000D02*
X57545000Y2215000D01*
X57545000Y7285000D02*
X57545000Y7585000D01*
X57545000Y7585000D02*
X63665000Y7585000D01*
D10*
%TO.C,U4*%
X46375000Y20825000D02*
X46375000Y21050000D01*
X46375000Y20825000D02*
X43025000Y20825000D01*
X46375000Y21050000D02*
X47600000Y21050000D01*
X46375000Y24175000D02*
X46375000Y23875000D01*
X46375000Y24175000D02*
X43025000Y24175000D01*
X43025000Y20825000D02*
X43025000Y21125000D01*
X43025000Y24175000D02*
X43025000Y23875000D01*
D11*
%TO.C,R14*%
X48227500Y6245276D02*
X48227500Y6754724D01*
X49272500Y6245276D02*
X49272500Y6754724D01*
%TO.C,R11*%
X65972936Y14160000D02*
X67427064Y14160000D01*
X65972936Y12340000D02*
X67427064Y12340000D01*
D10*
%TO.C,U9*%
X46425000Y1575000D02*
X46425000Y1800000D01*
X46425000Y1575000D02*
X43075000Y1575000D01*
X46425000Y1800000D02*
X47650000Y1800000D01*
X46425000Y4925000D02*
X46425000Y4625000D01*
X46425000Y4925000D02*
X43075000Y4925000D01*
X43075000Y1575000D02*
X43075000Y1875000D01*
X43075000Y4925000D02*
X43075000Y4625000D01*
D11*
%TO.C,D3*%
X20794874Y20124874D02*
X20794874Y21824874D01*
X20794874Y20124874D02*
X18134874Y20124874D01*
X20794874Y21824874D02*
X18134874Y21824874D01*
%TO.C,R16*%
X65972936Y4160000D02*
X67427064Y4160000D01*
X65972936Y2340000D02*
X67427064Y2340000D01*
%TD*%
%LPC*%
D13*
%TO.C,R18*%
X2974874Y15143624D03*
X2974874Y13318624D03*
%TD*%
D14*
%TO.C,C16*%
X31224874Y13337374D03*
X31224874Y11612374D03*
%TD*%
%TO.C,C14*%
X32000000Y6025000D03*
X32000000Y4300000D03*
%TD*%
D15*
%TO.C,C6*%
X23799874Y28299874D03*
X21724874Y28299874D03*
%TD*%
D16*
%TO.C,C28*%
X7952374Y8500000D03*
X6227374Y8500000D03*
%TD*%
D17*
%TO.C,U10*%
X67399999Y7199999D03*
X66749999Y7199999D03*
X66099999Y7199999D03*
X66099999Y5299999D03*
X66749999Y5299999D03*
X67399999Y5299999D03*
%TD*%
%TO.C,U8*%
X67399999Y17199999D03*
X66749999Y17199999D03*
X66099999Y17199999D03*
X66099999Y15299999D03*
X66749999Y15299999D03*
X67399999Y15299999D03*
%TD*%
D18*
%TO.C,U6*%
X19042804Y11502602D03*
X19608490Y10936917D03*
X20174175Y10371231D03*
X20739860Y9805546D03*
X21305546Y9239860D03*
X21871231Y8674175D03*
X22436917Y8108490D03*
X23002602Y7542804D03*
D19*
X24947146Y7542804D03*
X25512831Y8108490D03*
X26078517Y8674175D03*
X26644202Y9239860D03*
X27209888Y9805546D03*
X27775573Y10371231D03*
X28341258Y10936917D03*
X28906944Y11502602D03*
D18*
X28906944Y13447146D03*
X28341258Y14012831D03*
X27775573Y14578517D03*
X27209888Y15144202D03*
X26644202Y15709888D03*
X26078517Y16275573D03*
X25512831Y16841258D03*
X24947146Y17406944D03*
D19*
X23002602Y17406944D03*
X22436917Y16841258D03*
X21871231Y16275573D03*
X21305546Y15709888D03*
X20739860Y15144202D03*
X20174175Y14578517D03*
X19608490Y14012831D03*
X19042804Y13447146D03*
%TD*%
D20*
%TO.C,Q4*%
X59905000Y15000000D03*
D21*
X63454999Y13094999D03*
X63454999Y14364999D03*
X63454999Y15634999D03*
X63454999Y16904999D03*
%TD*%
D22*
%TO.C,U11*%
X5184874Y10731124D03*
X6454874Y10731124D03*
X7724874Y10731124D03*
X8994874Y10731124D03*
X8994874Y15681124D03*
X7724874Y15681124D03*
X6454874Y15681124D03*
X5184874Y15681124D03*
%TD*%
D23*
%TO.C,C21*%
X65887500Y18750000D03*
X67612500Y18750000D03*
%TD*%
D24*
%TO.C,C17*%
X16974874Y11362374D03*
X16974874Y13087374D03*
%TD*%
D25*
%TO.C,R19*%
X14184874Y26312374D03*
X14184874Y28137374D03*
%TD*%
D23*
%TO.C,C26*%
X65887500Y28250000D03*
X67612500Y28250000D03*
%TD*%
D20*
%TO.C,Q1*%
X52705000Y24400000D03*
D21*
X56254999Y22494999D03*
X56254999Y23764999D03*
X56254999Y25034999D03*
X56254999Y26304999D03*
%TD*%
D15*
%TO.C,C3*%
X39287500Y6500000D03*
X37212500Y6500000D03*
%TD*%
D13*
%TO.C,R17*%
X35500000Y9550000D03*
X35500000Y7725000D03*
%TD*%
D25*
%TO.C,R5*%
X42000000Y25425000D03*
X42000000Y27250000D03*
%TD*%
D26*
%TO.C,C4*%
X32000000Y24462500D03*
X32000000Y26537500D03*
%TD*%
D23*
%TO.C,C18*%
X43737500Y19500000D03*
X45462500Y19500000D03*
%TD*%
D25*
%TO.C,R4*%
X48700000Y25087500D03*
X48700000Y26912500D03*
%TD*%
D27*
%TO.C,JP1*%
X36499999Y22849873D03*
X36499999Y21549873D03*
X36499999Y20249873D03*
%TD*%
D28*
%TO.C,C12*%
X54162500Y20500000D03*
X56237500Y20500000D03*
%TD*%
D29*
%TO.C,U2*%
X37249999Y25049873D03*
D30*
X37162500Y26549874D03*
D29*
X37249999Y28049873D03*
%TD*%
D14*
%TO.C,C11*%
X48700000Y23362500D03*
X48700000Y21637500D03*
%TD*%
D31*
%TO.C,U12*%
X16184873Y23374873D03*
X15684873Y23374873D03*
X15184873Y23374873D03*
X14684873Y23374873D03*
X14184873Y23374873D03*
X14184873Y18974873D03*
X14684873Y18974873D03*
X15184873Y18974873D03*
X15684873Y18974873D03*
X16184873Y18974873D03*
%TD*%
D20*
%TO.C,Q3*%
X52655000Y15000000D03*
D21*
X56204999Y13094999D03*
X56204999Y14364999D03*
X56204999Y15634999D03*
X56204999Y16904999D03*
%TD*%
D23*
%TO.C,C23*%
X43700000Y10000000D03*
X45425000Y10000000D03*
%TD*%
D32*
%TO.C,H2*%
X2974874Y26974874D03*
%TD*%
D25*
%TO.C,R13*%
X43500000Y6087500D03*
X43500000Y7912500D03*
%TD*%
D27*
%TO.C,JP2*%
X2749999Y11549999D03*
X2749999Y10249999D03*
X2749999Y8949999D03*
%TD*%
D33*
%TO.C,D2*%
X27962374Y24299874D03*
X30062374Y24299874D03*
%TD*%
D25*
%TO.C,R3*%
X43500000Y25425000D03*
X43500000Y27250000D03*
%TD*%
D32*
%TO.C,H1*%
X74500000Y2974874D03*
%TD*%
D17*
%TO.C,U5*%
X67399999Y26699999D03*
X66749999Y26699999D03*
X66099999Y26699999D03*
X66099999Y24799999D03*
X66749999Y24799999D03*
X67399999Y24799999D03*
%TD*%
D34*
%TO.C,RN1*%
X12799999Y1399999D03*
D35*
X12799999Y2199999D03*
X12799999Y2999999D03*
D34*
X12799999Y3799999D03*
X10999999Y3799999D03*
D35*
X10999999Y2999999D03*
X10999999Y2199999D03*
D34*
X10999999Y1399999D03*
%TD*%
D36*
%TO.C,Y1*%
X16376345Y8823401D03*
X17224873Y7974873D03*
X18073401Y7126345D03*
%TD*%
D14*
%TO.C,C22*%
X33750000Y6025000D03*
X33750000Y4300000D03*
%TD*%
D37*
%TO.C,C1*%
X37500000Y10537500D03*
X37500000Y8462500D03*
%TD*%
D38*
%TO.C,U7*%
X46899999Y12249999D03*
X46899999Y12749999D03*
X46899999Y13249999D03*
X46899999Y13749999D03*
X46899999Y14249999D03*
X42499999Y14249999D03*
X42499999Y13749999D03*
X42499999Y13249999D03*
X42499999Y12749999D03*
X42499999Y12249999D03*
%TD*%
D37*
%TO.C,C2*%
X39250000Y28287500D03*
X39250000Y26212500D03*
%TD*%
D25*
%TO.C,R9*%
X48700000Y15837500D03*
X48700000Y17662500D03*
%TD*%
D23*
%TO.C,C13*%
X65887500Y8750000D03*
X67612500Y8750000D03*
%TD*%
D14*
%TO.C,C29*%
X12184874Y20587374D03*
X12184874Y18862374D03*
%TD*%
D13*
%TO.C,R1*%
X28750000Y6162500D03*
X28750000Y4337500D03*
%TD*%
D14*
%TO.C,C19*%
X48700000Y14112500D03*
X48700000Y12387500D03*
%TD*%
%TO.C,C7*%
X28750000Y2612500D03*
X28750000Y887500D03*
%TD*%
%TO.C,C27*%
X35500000Y6000000D03*
X35500000Y4275000D03*
%TD*%
D20*
%TO.C,Q5*%
X52655000Y4850000D03*
D21*
X56204999Y2944999D03*
X56204999Y4214999D03*
X56204999Y5484999D03*
X56204999Y6754999D03*
%TD*%
D25*
%TO.C,R20*%
X16434874Y26312374D03*
X16434874Y28137374D03*
%TD*%
%TO.C,R10*%
X42000000Y16087500D03*
X42000000Y17912500D03*
%TD*%
D39*
%TO.C,U13*%
X21462500Y26150000D03*
X21462500Y24250000D03*
X23737500Y25200000D03*
%TD*%
D28*
%TO.C,C20*%
X54162500Y11100000D03*
X56237500Y11100000D03*
%TD*%
D23*
%TO.C,C10*%
X36800000Y2300000D03*
X38525000Y2300000D03*
%TD*%
D25*
%TO.C,R15*%
X42000000Y6087500D03*
X42000000Y7912500D03*
%TD*%
%TO.C,R8*%
X43500000Y16087500D03*
X43500000Y17912500D03*
%TD*%
D28*
%TO.C,C25*%
X54162500Y1000000D03*
X56237500Y1000000D03*
%TD*%
D13*
%TO.C,R2*%
X27000000Y2662500D03*
X27000000Y837500D03*
%TD*%
D32*
%TO.C,H4*%
X74500000Y26974874D03*
%TD*%
D40*
%TO.C,C15*%
X20458497Y6208497D03*
X18991251Y4741251D03*
%TD*%
D26*
%TO.C,C5*%
X25762374Y25012374D03*
X25762374Y27087374D03*
%TD*%
D41*
%TO.C,D1*%
X7650000Y1500000D03*
X7650000Y3500000D03*
X8900000Y3500000D03*
X8900000Y1500000D03*
%TD*%
D13*
%TO.C,R7*%
X32000000Y9575000D03*
X32000000Y7750000D03*
%TD*%
D20*
%TO.C,Q2*%
X59955000Y24350000D03*
D21*
X63504999Y22444999D03*
X63504999Y23714999D03*
X63504999Y24984999D03*
X63504999Y26254999D03*
%TD*%
D42*
%TO.C,FB1*%
X20356156Y3356156D03*
X21593592Y4593592D03*
%TD*%
D13*
%TO.C,R12*%
X33750000Y9575000D03*
X33750000Y7750000D03*
%TD*%
D43*
%TO.C,R6*%
X65150000Y22750000D03*
X68250000Y22750000D03*
%TD*%
D14*
%TO.C,C24*%
X48700000Y3975000D03*
X48700000Y2250000D03*
%TD*%
D20*
%TO.C,Q6*%
X59955000Y4900000D03*
D21*
X63504999Y2994999D03*
X63504999Y4264999D03*
X63504999Y5534999D03*
X63504999Y6804999D03*
%TD*%
D38*
%TO.C,U4*%
X46899999Y21499999D03*
X46899999Y21999999D03*
X46899999Y22499999D03*
X46899999Y22999999D03*
X46899999Y23499999D03*
X42499999Y23499999D03*
X42499999Y22999999D03*
X42499999Y22499999D03*
X42499999Y21999999D03*
X42499999Y21499999D03*
%TD*%
D25*
%TO.C,R14*%
X48750000Y5587500D03*
X48750000Y7412500D03*
%TD*%
D43*
%TO.C,R11*%
X65150000Y13250000D03*
X68250000Y13250000D03*
%TD*%
D38*
%TO.C,U9*%
X46949999Y2249999D03*
X46949999Y2749999D03*
X46949999Y3249999D03*
X46949999Y3749999D03*
X46949999Y4249999D03*
X42549999Y4249999D03*
X42549999Y3749999D03*
X42549999Y3249999D03*
X42549999Y2749999D03*
X42549999Y2249999D03*
%TD*%
D44*
%TO.C,D3*%
X20234874Y20974874D03*
X18134874Y20974874D03*
%TD*%
D43*
%TO.C,R16*%
X65150000Y3250000D03*
X68250000Y3250000D03*
%TD*%
D32*
%TO.C,H3*%
X2974874Y2974874D03*
%TD*%
D45*
%TO.C,ENC1*%
X29012373Y26899873D03*
D46*
X24012374Y20399874D03*
D47*
X26512373Y20399873D03*
X29012373Y20399873D03*
X31512373Y20399873D03*
X34012373Y20399873D03*
%TD*%
D48*
%TO.C,OUT1*%
X76375000Y8250000D03*
X76375000Y21250000D03*
D49*
X71374999Y18249999D03*
D50*
X71375000Y14750000D03*
X71375000Y11250000D03*
%TD*%
D51*
%TO.C,J2*%
X12404874Y23724874D03*
X18184874Y23724874D03*
D52*
X10974873Y27404873D03*
D53*
X10974873Y23224873D03*
D52*
X19614873Y27404873D03*
D53*
X19614873Y23224873D03*
%TD*%
D54*
%TO.C,IN1*%
X11474874Y9481124D03*
X11474874Y14481124D03*
D55*
X8224874Y18331124D03*
X10224874Y18331124D03*
%TD*%
M02*
