%TF.GenerationSoftware,KiCad,Pcbnew,(7.0.0)*%
%TF.CreationDate,2023-06-11T18:09:50+09:00*%
%TF.ProjectId,rMDU,724d4455-2e6b-4696-9361-645f70636258,rev?*%
%TF.SameCoordinates,Original*%
%TF.FileFunction,Soldermask,Bot*%
%TF.FilePolarity,Negative*%
%FSLAX46Y46*%
G04 Gerber Fmt 4.6, Leading zero omitted, Abs format (unit mm)*
G04 Created by KiCad (PCBNEW (7.0.0)) date 2023-06-11 18:09:50*
%MOMM*%
%LPD*%
G01*
G04 APERTURE LIST*
G04 Aperture macros list*
%AMRoundRect*
0 Rectangle with rounded corners*
0 $1 Rounding radius*
0 $2 $3 $4 $5 $6 $7 $8 $9 X,Y pos of 4 corners*
0 Add a 4 corners polygon primitive as box body*
4,1,4,$2,$3,$4,$5,$6,$7,$8,$9,$2,$3,0*
0 Add four circle primitives for the rounded corners*
1,1,$1+$1,$2,$3*
1,1,$1+$1,$4,$5*
1,1,$1+$1,$6,$7*
1,1,$1+$1,$8,$9*
0 Add four rect primitives between the rounded corners*
20,1,$1+$1,$2,$3,$4,$5,0*
20,1,$1+$1,$4,$5,$6,$7,0*
20,1,$1+$1,$6,$7,$8,$9,0*
20,1,$1+$1,$8,$9,$2,$3,0*%
G04 Aperture macros list end*
%ADD10C,0.200000*%
%ADD11C,5.500000*%
%ADD12RoundRect,0.250000X-0.350000X0.850000X-0.350000X-0.850000X0.350000X-0.850000X0.350000X0.850000X0*%
%ADD13RoundRect,0.249997X-2.650003X2.950003X-2.650003X-2.950003X2.650003X-2.950003X2.650003X2.950003X0*%
%ADD14O,2.800000X2.000000*%
%ADD15RoundRect,0.250000X-0.600000X-0.725000X0.600000X-0.725000X0.600000X0.725000X-0.600000X0.725000X0*%
%ADD16O,1.700000X1.950000*%
%ADD17RoundRect,0.150000X-0.150000X-0.625000X0.150000X-0.625000X0.150000X0.625000X-0.150000X0.625000X0*%
%ADD18RoundRect,0.250000X-0.350000X-0.650000X0.350000X-0.650000X0.350000X0.650000X-0.350000X0.650000X0*%
%ADD19C,1.400000*%
%ADD20R,3.000000X3.000000*%
%ADD21C,3.000000*%
%ADD22C,0.650000*%
%ADD23R,0.300000X1.150000*%
%ADD24O,1.000000X1.600000*%
%ADD25O,1.000000X2.100000*%
%ADD26RoundRect,0.250000X-1.000000X1.750000X-1.000000X-1.750000X1.000000X-1.750000X1.000000X1.750000X0*%
%ADD27C,2.400000*%
%ADD28C,1.200000*%
G04 APERTURE END LIST*
D10*
%TO.C,TP1*%
X44077500Y24483000D02*
X44839500Y24483000D01*
X44077500Y23721000D02*
X44077500Y24483000D01*
X49411500Y17752000D02*
X49411500Y17117000D01*
X48776500Y17117000D02*
X49411500Y17117000D01*
G36*
X46088532Y23688733D02*
G01*
X46123270Y23673771D01*
X46190505Y23645351D01*
X46238574Y23625722D01*
X46252809Y23619077D01*
X46279535Y23588538D01*
X46286802Y23531326D01*
X46286616Y23521037D01*
X46279978Y23474631D01*
X46266780Y23455775D01*
X46240477Y23462955D01*
X46186161Y23483288D01*
X46116738Y23512163D01*
X46090331Y23523683D01*
X46031645Y23551839D01*
X46000750Y23576072D01*
X45988742Y23605872D01*
X45986718Y23650726D01*
X45986718Y23732901D01*
X46088532Y23688733D01*
G37*
G36*
X45996267Y23512670D02*
G01*
X46046489Y23492366D01*
X46113913Y23463690D01*
X46126619Y23458160D01*
X46191369Y23427841D01*
X46226538Y23403124D01*
X46241076Y23375156D01*
X46243933Y23335082D01*
X46243853Y23327697D01*
X46238927Y23281673D01*
X46228703Y23262863D01*
X46207715Y23268286D01*
X46156831Y23285712D01*
X46089378Y23310982D01*
X46074503Y23316768D01*
X46012713Y23342906D01*
X45980138Y23365638D01*
X45967441Y23394640D01*
X45965283Y23439589D01*
X45965436Y23454104D01*
X45968606Y23501118D01*
X45974588Y23520078D01*
X45996267Y23512670D01*
G37*
G36*
X45236507Y22062526D02*
G01*
X45065030Y22062526D01*
X45065030Y22576956D01*
X44936422Y22576956D01*
X44936422Y22191133D01*
X44764946Y22191133D01*
X44764946Y22576956D01*
X44636338Y22576956D01*
X44636338Y22148264D01*
X44443427Y22148264D01*
X44443427Y22576956D01*
X44271950Y22576956D01*
X44271950Y22791302D01*
X44443427Y22791302D01*
X44443427Y23219994D01*
X44636338Y23219994D01*
X44636338Y22791302D01*
X44764946Y22791302D01*
X44764946Y23177125D01*
X44936422Y23177125D01*
X44936422Y22791302D01*
X45065030Y22791302D01*
X45065030Y23305732D01*
X45236507Y23305732D01*
X45236507Y22062526D01*
G37*
G36*
X45643764Y23134256D02*
G01*
X45965283Y23134256D01*
X46479714Y23134256D01*
X46479714Y22962779D01*
X46158195Y22962779D01*
X46158195Y22405479D01*
X46479714Y22405479D01*
X46479714Y22234002D01*
X45322245Y22234002D01*
X45322245Y22416196D01*
X45504439Y22416196D01*
X45574102Y22409480D01*
X45643764Y22402763D01*
X45643764Y22405479D01*
X45836676Y22405479D01*
X45965283Y22405479D01*
X45965283Y22962779D01*
X45836676Y22962779D01*
X45836676Y22405479D01*
X45643764Y22405479D01*
X45643764Y22965495D01*
X45574102Y22958778D01*
X45504439Y22952061D01*
X45504439Y22416196D01*
X45322245Y22416196D01*
X45322245Y23134256D01*
X45643764Y23134256D01*
G37*
G36*
X46425131Y24224002D02*
G01*
X46433514Y24191369D01*
X46436844Y24135382D01*
X46436844Y24043345D01*
X46249292Y23981793D01*
X46061739Y23920242D01*
X46195705Y23859414D01*
X46230840Y23843337D01*
X46287067Y23814714D01*
X46316509Y23789918D01*
X46327824Y23759567D01*
X46329671Y23714282D01*
X46329671Y23629977D01*
X46168912Y23697079D01*
X46109702Y23722198D01*
X46053164Y23749479D01*
X46022775Y23772672D01*
X46010463Y23798670D01*
X46008152Y23834368D01*
X46007521Y23857235D01*
X45998634Y23890637D01*
X45976001Y23892218D01*
X45957126Y23891930D01*
X45946655Y23917129D01*
X45943849Y23976857D01*
X45943849Y24073834D01*
X46174311Y24150627D01*
X46257394Y24177960D01*
X46337750Y24203603D01*
X46395166Y24221007D01*
X46420809Y24227420D01*
X46425131Y24224002D01*
G37*
G36*
X47514538Y21689000D02*
G01*
X48154855Y21689000D01*
X48215161Y21801532D01*
X48218214Y21807224D01*
X48252902Y21867772D01*
X48282231Y21900428D01*
X48319319Y21914825D01*
X48377281Y21920597D01*
X48411995Y21922194D01*
X48459601Y21917542D01*
X48476120Y21896871D01*
X48463730Y21853808D01*
X48424605Y21781981D01*
X48370115Y21689000D01*
X49057829Y21689000D01*
X49057829Y21496089D01*
X48267222Y21496089D01*
X48207040Y21388938D01*
X48200971Y21378140D01*
X48167350Y21322461D01*
X48138195Y21293850D01*
X48099078Y21283291D01*
X48035570Y21281765D01*
X47924281Y21281743D01*
X47976367Y21372840D01*
X47993588Y21403842D01*
X48018718Y21453423D01*
X48028710Y21480013D01*
X48028699Y21480181D01*
X48007763Y21486365D01*
X47952446Y21491422D01*
X47871019Y21494836D01*
X47771753Y21496089D01*
X47514538Y21496089D01*
X47514538Y21260308D01*
X47321627Y21260308D01*
X47321627Y21496089D01*
X46871500Y21496089D01*
X46871500Y21689000D01*
X47321627Y21689000D01*
X47321627Y21924781D01*
X47514538Y21924781D01*
X47514538Y21689000D01*
G37*
G36*
X49059535Y20992376D02*
G01*
X48807934Y20753777D01*
X48556333Y20515179D01*
X48807081Y20259030D01*
X49057829Y20002880D01*
X49056750Y19865307D01*
X49055670Y19727734D01*
X48749625Y20043895D01*
X48725809Y20068447D01*
X48634916Y20161186D01*
X48554937Y20241306D01*
X48490551Y20304218D01*
X48446437Y20345331D01*
X48427277Y20360055D01*
X48412375Y20350175D01*
X48370513Y20315006D01*
X48307532Y20258913D01*
X48228776Y20186672D01*
X48139592Y20103060D01*
X48052857Y20021257D01*
X47976082Y19950573D01*
X47919374Y19901960D01*
X47876927Y19871300D01*
X47842937Y19854473D01*
X47811601Y19847361D01*
X47777112Y19845844D01*
X47686015Y19845625D01*
X47686015Y20402924D01*
X47343061Y20402924D01*
X47343061Y19738452D01*
X47150150Y19738452D01*
X47150150Y20402924D01*
X46871500Y20402924D01*
X46871500Y20595836D01*
X47150150Y20595836D01*
X47150150Y21241339D01*
X47241247Y21234748D01*
X47332344Y21228156D01*
X47338276Y20911996D01*
X47344207Y20595836D01*
X47686015Y20595836D01*
X47686015Y21177035D01*
X47868209Y21163853D01*
X47878926Y20649422D01*
X47889644Y20134992D01*
X48294706Y20526028D01*
X48129686Y20705367D01*
X47964665Y20884705D01*
X47964665Y21141687D01*
X48199011Y20908067D01*
X48433358Y20674447D01*
X48600910Y20825632D01*
X48649960Y20870258D01*
X48720632Y20935850D01*
X48777452Y20990124D01*
X48811331Y21024493D01*
X48838354Y21052018D01*
X48893412Y21103122D01*
X48956015Y21157518D01*
X49057829Y21242866D01*
X49059535Y20992376D01*
G37*
G36*
X44786380Y24227378D02*
G01*
X44818532Y24247445D01*
X44831966Y24120247D01*
X45236507Y24120247D01*
X45729503Y24120247D01*
X45900979Y24120247D01*
X45900979Y23348602D01*
X44786380Y23348602D01*
X44786380Y23487926D01*
X44785662Y23520078D01*
X44957857Y23520078D01*
X45236507Y23520078D01*
X45407984Y23520078D01*
X45729503Y23520078D01*
X45729503Y23648686D01*
X45407984Y23648686D01*
X45407984Y23520078D01*
X45236507Y23520078D01*
X45236507Y23648686D01*
X44957857Y23648686D01*
X44957857Y23520078D01*
X44785662Y23520078D01*
X44784847Y23556532D01*
X44780616Y23607696D01*
X44774633Y23627251D01*
X44754459Y23617966D01*
X44707991Y23591057D01*
X44646340Y23552697D01*
X44592267Y23518169D01*
X44510770Y23466299D01*
X44443741Y23423821D01*
X44357688Y23369498D01*
X44357688Y23775176D01*
X44529165Y23775176D01*
X44532134Y23731605D01*
X44539466Y23712990D01*
X44559767Y23722749D01*
X44606206Y23750023D01*
X44668074Y23788669D01*
X44715273Y23820009D01*
X44715460Y23820163D01*
X44957857Y23820163D01*
X45236507Y23820163D01*
X45407984Y23820163D01*
X45729503Y23820163D01*
X45729503Y23948770D01*
X45407984Y23948770D01*
X45407984Y23820163D01*
X45236507Y23820163D01*
X45236507Y23948770D01*
X44957857Y23948770D01*
X44957857Y23820163D01*
X44715460Y23820163D01*
X44760307Y23857023D01*
X44781245Y23890526D01*
X44786380Y23930460D01*
X44786380Y23996570D01*
X44729286Y23959160D01*
X44726116Y23957090D01*
X44665662Y23918926D01*
X44600678Y23879557D01*
X44578953Y23865752D01*
X44539919Y23825932D01*
X44529165Y23775176D01*
X44357688Y23775176D01*
X44357688Y23959812D01*
X44588110Y24103629D01*
X44786380Y24227378D01*
G37*
%TD*%
D11*
%TO.C,H2*%
X2974874Y26974874D03*
%TD*%
%TO.C,H1*%
X74500000Y2974874D03*
%TD*%
%TO.C,H4*%
X74500000Y26974874D03*
%TD*%
%TO.C,H3*%
X2974874Y2974874D03*
%TD*%
D12*
%TO.C,U1*%
X36250000Y9750000D03*
D13*
X38530000Y3450000D03*
D12*
X40810000Y9750000D03*
%TD*%
D14*
%TO.C,ENC1*%
X29012373Y26899873D03*
D15*
X24012374Y20399874D03*
D16*
X26512373Y20399873D03*
X29012373Y20399873D03*
X31512373Y20399873D03*
X34012373Y20399873D03*
%TD*%
D17*
%TO.C,J1*%
X39700000Y24725000D03*
X40700000Y24725000D03*
X41700000Y24725000D03*
X42700000Y24725000D03*
D18*
X38400000Y28600000D03*
X44000000Y28600000D03*
%TD*%
D19*
%TO.C,OUT1*%
X76375000Y8250000D03*
X76375000Y21250000D03*
D20*
X71374999Y18249999D03*
D21*
X71375000Y14750000D03*
X71375000Y11250000D03*
%TD*%
D22*
%TO.C,J2*%
X12404874Y23724874D03*
X18184874Y23724874D03*
D23*
X11944873Y22659873D03*
X12744873Y22659873D03*
X14044873Y22659873D03*
X15044873Y22659873D03*
X15544873Y22659873D03*
X16544873Y22659873D03*
X17844873Y22659873D03*
X18644873Y22659873D03*
X18344873Y22659873D03*
X17544873Y22659873D03*
X17044873Y22659873D03*
X16044873Y22659873D03*
X14544873Y22659873D03*
X13544873Y22659873D03*
X13044873Y22659873D03*
X12244873Y22659873D03*
D24*
X10974873Y27404873D03*
D25*
X10974873Y23224873D03*
D24*
X19614873Y27404873D03*
D25*
X19614873Y23224873D03*
%TD*%
D26*
%TO.C,C9*%
X18500000Y10500000D03*
X18500000Y2500000D03*
%TD*%
D27*
%TO.C,IN1*%
X11474874Y9481124D03*
X11474874Y14481124D03*
D28*
X8224874Y18331124D03*
X10224874Y18331124D03*
%TD*%
D26*
%TO.C,C8*%
X29500000Y10500000D03*
X29500000Y2500000D03*
%TD*%
M02*
