%TF.GenerationSoftware,KiCad,Pcbnew,(7.0.0)*%
%TF.CreationDate,2023-06-11T18:09:49+09:00*%
%TF.ProjectId,rMDU,724d4455-2e6b-4696-9361-645f70636258,rev?*%
%TF.SameCoordinates,Original*%
%TF.FileFunction,Copper,L1,Top*%
%TF.FilePolarity,Positive*%
%FSLAX46Y46*%
G04 Gerber Fmt 4.6, Leading zero omitted, Abs format (unit mm)*
G04 Created by KiCad (PCBNEW (7.0.0)) date 2023-06-11 18:09:49*
%MOMM*%
%LPD*%
G01*
G04 APERTURE LIST*
G04 Aperture macros list*
%AMRoundRect*
0 Rectangle with rounded corners*
0 $1 Rounding radius*
0 $2 $3 $4 $5 $6 $7 $8 $9 X,Y pos of 4 corners*
0 Add a 4 corners polygon primitive as box body*
4,1,4,$2,$3,$4,$5,$6,$7,$8,$9,$2,$3,0*
0 Add four circle primitives for the rounded corners*
1,1,$1+$1,$2,$3*
1,1,$1+$1,$4,$5*
1,1,$1+$1,$6,$7*
1,1,$1+$1,$8,$9*
0 Add four rect primitives between the rounded corners*
20,1,$1+$1,$2,$3,$4,$5,0*
20,1,$1+$1,$4,$5,$6,$7,0*
20,1,$1+$1,$6,$7,$8,$9,0*
20,1,$1+$1,$8,$9,$2,$3,0*%
%AMRotRect*
0 Rectangle, with rotation*
0 The origin of the aperture is its center*
0 $1 length*
0 $2 width*
0 $3 Rotation angle, in degrees counterclockwise*
0 Add horizontal line*
21,1,$1,$2,0,0,$3*%
%AMFreePoly0*
4,1,9,3.862500,-0.866500,0.737500,-0.866500,0.737500,-0.450000,-0.737500,-0.450000,-0.737500,0.450000,0.737500,0.450000,0.737500,0.866500,3.862500,0.866500,3.862500,-0.866500,3.862500,-0.866500,$1*%
G04 Aperture macros list end*
%TA.AperFunction,SMDPad,CuDef*%
%ADD10RoundRect,0.237500X-0.237500X0.250000X-0.237500X-0.250000X0.237500X-0.250000X0.237500X0.250000X0*%
%TD*%
%TA.AperFunction,SMDPad,CuDef*%
%ADD11RoundRect,0.237500X-0.237500X0.300000X-0.237500X-0.300000X0.237500X-0.300000X0.237500X0.300000X0*%
%TD*%
%TA.AperFunction,SMDPad,CuDef*%
%ADD12RoundRect,0.250000X0.337500X0.475000X-0.337500X0.475000X-0.337500X-0.475000X0.337500X-0.475000X0*%
%TD*%
%TA.AperFunction,SMDPad,CuDef*%
%ADD13RoundRect,0.237500X0.300000X0.237500X-0.300000X0.237500X-0.300000X-0.237500X0.300000X-0.237500X0*%
%TD*%
%TA.AperFunction,SMDPad,CuDef*%
%ADD14R,0.400000X0.650000*%
%TD*%
%TA.AperFunction,SMDPad,CuDef*%
%ADD15RoundRect,0.125000X-0.353553X-0.530330X0.530330X0.353553X0.353553X0.530330X-0.530330X-0.353553X0*%
%TD*%
%TA.AperFunction,SMDPad,CuDef*%
%ADD16RoundRect,0.125000X0.353553X-0.530330X0.530330X-0.353553X-0.353553X0.530330X-0.530330X0.353553X0*%
%TD*%
%TA.AperFunction,SMDPad,CuDef*%
%ADD17R,0.850000X0.500000*%
%TD*%
%TA.AperFunction,SMDPad,CuDef*%
%ADD18R,4.550000X4.410000*%
%TD*%
%TA.AperFunction,SMDPad,CuDef*%
%ADD19RoundRect,0.150000X0.150000X-0.825000X0.150000X0.825000X-0.150000X0.825000X-0.150000X-0.825000X0*%
%TD*%
%TA.AperFunction,SMDPad,CuDef*%
%ADD20RoundRect,0.237500X-0.300000X-0.237500X0.300000X-0.237500X0.300000X0.237500X-0.300000X0.237500X0*%
%TD*%
%TA.AperFunction,SMDPad,CuDef*%
%ADD21RoundRect,0.237500X0.237500X-0.300000X0.237500X0.300000X-0.237500X0.300000X-0.237500X-0.300000X0*%
%TD*%
%TA.AperFunction,SMDPad,CuDef*%
%ADD22RoundRect,0.237500X0.237500X-0.250000X0.237500X0.250000X-0.237500X0.250000X-0.237500X-0.250000X0*%
%TD*%
%TA.AperFunction,SMDPad,CuDef*%
%ADD23RoundRect,0.250000X0.475000X-0.337500X0.475000X0.337500X-0.475000X0.337500X-0.475000X-0.337500X0*%
%TD*%
%TA.AperFunction,SMDPad,CuDef*%
%ADD24R,1.500000X1.000000*%
%TD*%
%TA.AperFunction,SMDPad,CuDef*%
%ADD25RoundRect,0.250000X-0.337500X-0.475000X0.337500X-0.475000X0.337500X0.475000X-0.337500X0.475000X0*%
%TD*%
%TA.AperFunction,SMDPad,CuDef*%
%ADD26R,1.300000X0.900000*%
%TD*%
%TA.AperFunction,SMDPad,CuDef*%
%ADD27FreePoly0,180.000000*%
%TD*%
%TA.AperFunction,SMDPad,CuDef*%
%ADD28R,0.300000X1.400000*%
%TD*%
%TA.AperFunction,ComponentPad*%
%ADD29C,5.500000*%
%TD*%
%TA.AperFunction,SMDPad,CuDef*%
%ADD30RoundRect,0.112500X-0.187500X-0.112500X0.187500X-0.112500X0.187500X0.112500X-0.187500X0.112500X0*%
%TD*%
%TA.AperFunction,SMDPad,CuDef*%
%ADD31R,0.800000X0.500000*%
%TD*%
%TA.AperFunction,SMDPad,CuDef*%
%ADD32R,0.800000X0.400000*%
%TD*%
%TA.AperFunction,SMDPad,CuDef*%
%ADD33RotRect,0.400000X3.200000X315.000000*%
%TD*%
%TA.AperFunction,SMDPad,CuDef*%
%ADD34RoundRect,0.250000X-0.475000X0.337500X-0.475000X-0.337500X0.475000X-0.337500X0.475000X0.337500X0*%
%TD*%
%TA.AperFunction,SMDPad,CuDef*%
%ADD35R,1.400000X0.300000*%
%TD*%
%TA.AperFunction,SMDPad,CuDef*%
%ADD36RoundRect,0.150000X-0.512500X-0.150000X0.512500X-0.150000X0.512500X0.150000X-0.512500X0.150000X0*%
%TD*%
%TA.AperFunction,SMDPad,CuDef*%
%ADD37RoundRect,0.250000X-0.097227X0.574524X-0.574524X0.097227X0.097227X-0.574524X0.574524X-0.097227X0*%
%TD*%
%TA.AperFunction,SMDPad,CuDef*%
%ADD38RoundRect,0.225000X0.225000X-0.375000X0.225000X0.375000X-0.225000X0.375000X-0.225000X-0.375000X0*%
%TD*%
%TA.AperFunction,SMDPad,CuDef*%
%ADD39RoundRect,0.237500X-0.035355X-0.371231X0.371231X0.035355X0.035355X0.371231X-0.371231X-0.035355X0*%
%TD*%
%TA.AperFunction,SMDPad,CuDef*%
%ADD40RoundRect,0.250000X-0.400000X-0.625000X0.400000X-0.625000X0.400000X0.625000X-0.400000X0.625000X0*%
%TD*%
%TA.AperFunction,SMDPad,CuDef*%
%ADD41RoundRect,0.112500X0.187500X0.112500X-0.187500X0.112500X-0.187500X-0.112500X0.187500X-0.112500X0*%
%TD*%
%TA.AperFunction,ComponentPad*%
%ADD42RoundRect,0.250000X-0.600000X-0.725000X0.600000X-0.725000X0.600000X0.725000X-0.600000X0.725000X0*%
%TD*%
%TA.AperFunction,ComponentPad*%
%ADD43O,1.700000X1.950000*%
%TD*%
%TA.AperFunction,ComponentPad*%
%ADD44C,1.400000*%
%TD*%
%TA.AperFunction,ComponentPad*%
%ADD45R,3.000000X3.000000*%
%TD*%
%TA.AperFunction,ComponentPad*%
%ADD46C,3.000000*%
%TD*%
%TA.AperFunction,ComponentPad*%
%ADD47O,1.000000X1.600000*%
%TD*%
%TA.AperFunction,ComponentPad*%
%ADD48O,1.000000X2.100000*%
%TD*%
%TA.AperFunction,ComponentPad*%
%ADD49C,2.400000*%
%TD*%
%TA.AperFunction,ComponentPad*%
%ADD50C,1.200000*%
%TD*%
%TA.AperFunction,ViaPad*%
%ADD51C,0.800000*%
%TD*%
%TA.AperFunction,ViaPad*%
%ADD52C,0.600000*%
%TD*%
%TA.AperFunction,Conductor*%
%ADD53C,0.250000*%
%TD*%
%TA.AperFunction,Conductor*%
%ADD54C,0.500000*%
%TD*%
%TA.AperFunction,Conductor*%
%ADD55C,1.000000*%
%TD*%
G04 APERTURE END LIST*
D10*
%TO.P,R18,1*%
%TO.N,/CAN/CAN-H*%
X2974874Y15143624D03*
%TO.P,R18,2*%
%TO.N,/CAN/CAN-L*%
X2974874Y13318624D03*
%TD*%
D11*
%TO.P,C16,1*%
%TO.N,+3.3V*%
X31224874Y13337374D03*
%TO.P,C16,2*%
%TO.N,GND*%
X31224874Y11612374D03*
%TD*%
%TO.P,C14,1*%
%TO.N,/BRIDGE/I*%
X32000000Y6025000D03*
%TO.P,C14,2*%
%TO.N,GND*%
X32000000Y4300000D03*
%TD*%
D12*
%TO.P,C6,1*%
%TO.N,+3.3V*%
X23799874Y28299874D03*
%TO.P,C6,2*%
%TO.N,GND*%
X21724874Y28299874D03*
%TD*%
D13*
%TO.P,C28,1*%
%TO.N,+5V*%
X7952374Y8500000D03*
%TO.P,C28,2*%
%TO.N,GND*%
X6227374Y8500000D03*
%TD*%
D14*
%TO.P,U10,1,REF*%
%TO.N,GND*%
X67399999Y7199999D03*
%TO.P,U10,2,GND*%
X66749999Y7199999D03*
%TO.P,U10,3,V+*%
%TO.N,+3.3V*%
X66099999Y7199999D03*
%TO.P,U10,4,+*%
%TO.N,Net-(U10-+)*%
X66099999Y5299999D03*
%TO.P,U10,5,-*%
%TO.N,GND*%
X66749999Y5299999D03*
%TO.P,U10,6*%
%TO.N,Net-(R17-Pad1)*%
X67399999Y5299999D03*
%TD*%
%TO.P,U8,1,REF*%
%TO.N,GND*%
X67399999Y17199999D03*
%TO.P,U8,2,GND*%
X66749999Y17199999D03*
%TO.P,U8,3,V+*%
%TO.N,+3.3V*%
X66099999Y17199999D03*
%TO.P,U8,4,+*%
%TO.N,Net-(U8-+)*%
X66099999Y15299999D03*
%TO.P,U8,5,-*%
%TO.N,GND*%
X66749999Y15299999D03*
%TO.P,U8,6*%
%TO.N,Net-(R12-Pad1)*%
X67399999Y15299999D03*
%TD*%
D15*
%TO.P,U6,1,VDD*%
%TO.N,+3.3V*%
X19042804Y11502602D03*
%TO.P,U6,2,PF0*%
%TO.N,Net-(U6-PF0)*%
X19608490Y10936917D03*
%TO.P,U6,3,PF1*%
%TO.N,Net-(U6-PF1)*%
X20174175Y10371231D03*
%TO.P,U6,4,NRST*%
%TO.N,/MCU/NRST*%
X20739860Y9805546D03*
%TO.P,U6,5,VDDA*%
%TO.N,Net-(U6-VDDA)*%
X21305546Y9239860D03*
%TO.P,U6,6,PA0*%
%TO.N,/MCU/LED_B*%
X21871231Y8674175D03*
%TO.P,U6,7,PA1*%
%TO.N,/MCU/LED_G*%
X22436917Y8108490D03*
%TO.P,U6,8,PA2*%
%TO.N,/MCU/LED_R*%
X23002602Y7542804D03*
D16*
%TO.P,U6,9,PA3*%
%TO.N,unconnected-(U6-PA3-Pad9)*%
X24947146Y7542804D03*
%TO.P,U6,10,PA4*%
%TO.N,unconnected-(U6-PA4-Pad10)*%
X25512831Y8108490D03*
%TO.P,U6,11,PA5*%
%TO.N,/MCU/POWER_V*%
X26078517Y8674175D03*
%TO.P,U6,12,PA6*%
%TO.N,/BRIDGE2/I*%
X26644202Y9239860D03*
%TO.P,U6,13,PA7*%
%TO.N,/BRIDGE/I*%
X27209888Y9805546D03*
%TO.P,U6,14,PB0*%
%TO.N,/BRIDGE1/I*%
X27775573Y10371231D03*
%TO.P,U6,15,PB1*%
%TO.N,/BRIDGE/EN*%
X28341258Y10936917D03*
%TO.P,U6,16,VSS*%
%TO.N,GND*%
X28906944Y11502602D03*
D15*
%TO.P,U6,17,VDD*%
%TO.N,+3.3V*%
X28906944Y13447146D03*
%TO.P,U6,18,PA8*%
%TO.N,/BRIDGE2/PWM*%
X28341258Y14012831D03*
%TO.P,U6,19,PA9*%
%TO.N,/BRIDGE1/PWM*%
X27775573Y14578517D03*
%TO.P,U6,20,PA10*%
%TO.N,/BRIDGE/PWM*%
X27209888Y15144202D03*
%TO.P,U6,21,PA11*%
%TO.N,/CAN/CAN_RX*%
X26644202Y15709888D03*
%TO.P,U6,22,PA12*%
%TO.N,/CAN/CAN_TX*%
X26078517Y16275573D03*
%TO.P,U6,23,PA13*%
%TO.N,/MCU/SWDIO*%
X25512831Y16841258D03*
%TO.P,U6,24,PA14*%
%TO.N,/MCU/SWCLK*%
X24947146Y17406944D03*
D16*
%TO.P,U6,25,PA15*%
%TO.N,unconnected-(U6-PA15-Pad25)*%
X23002602Y17406944D03*
%TO.P,U6,26,PB3*%
%TO.N,/MCU/PB3*%
X22436917Y16841258D03*
%TO.P,U6,27,PB4*%
%TO.N,/MCU/PB4*%
X21871231Y16275573D03*
%TO.P,U6,28,PB5*%
%TO.N,/MCU/PB5*%
X21305546Y15709888D03*
%TO.P,U6,29,PB6*%
%TO.N,/MCU/UART_TX*%
X20739860Y15144202D03*
%TO.P,U6,30,PB7*%
%TO.N,/MCU/UART_RX*%
X20174175Y14578517D03*
%TO.P,U6,31,BOOT0*%
%TO.N,GND*%
X19608490Y14012831D03*
%TO.P,U6,32,VSS*%
X19042804Y13447146D03*
%TD*%
D17*
%TO.P,Q4,1,S*%
%TO.N,Net-(U8-+)*%
X63454999Y13094999D03*
%TO.P,Q4,2,S*%
X63454999Y14364999D03*
%TO.P,Q4,3,S*%
X63454999Y15634999D03*
%TO.P,Q4,4,G*%
%TO.N,Net-(Q4-G)*%
X63454999Y16904999D03*
D18*
%TO.P,Q4,5,D*%
%TO.N,/BRIDGE1/OUT*%
X59504999Y14999999D03*
%TD*%
D19*
%TO.P,U11,1,TXD*%
%TO.N,/CAN/CAN_TX*%
X5184874Y10731124D03*
%TO.P,U11,2,VSS*%
%TO.N,GND*%
X6454874Y10731124D03*
%TO.P,U11,3,VDD*%
%TO.N,+5V*%
X7724874Y10731124D03*
%TO.P,U11,4,RXD*%
%TO.N,/CAN/CAN_RX*%
X8994874Y10731124D03*
%TO.P,U11,5,Vref*%
%TO.N,Net-(JP2-C)*%
X8994874Y15681124D03*
%TO.P,U11,6,CANL*%
%TO.N,/CAN/CAN-L*%
X7724874Y15681124D03*
%TO.P,U11,7,CANH*%
%TO.N,/CAN/CAN-H*%
X6454874Y15681124D03*
%TO.P,U11,8,Rs*%
%TO.N,GND*%
X5184874Y15681124D03*
%TD*%
D20*
%TO.P,C21,1*%
%TO.N,+3.3V*%
X65887500Y18750000D03*
%TO.P,C21,2*%
%TO.N,GND*%
X67612500Y18750000D03*
%TD*%
D21*
%TO.P,C17,1*%
%TO.N,+3.3V*%
X16974874Y11362374D03*
%TO.P,C17,2*%
%TO.N,GND*%
X16974874Y13087374D03*
%TD*%
D22*
%TO.P,R19,1*%
%TO.N,Net-(J2-CC1)*%
X14184874Y26312374D03*
%TO.P,R19,2*%
%TO.N,GND*%
X14184874Y28137374D03*
%TD*%
D20*
%TO.P,C26,1*%
%TO.N,+3.3V*%
X65887500Y28250000D03*
%TO.P,C26,2*%
%TO.N,GND*%
X67612500Y28250000D03*
%TD*%
D17*
%TO.P,Q1,1,S*%
%TO.N,/BRIDGE/OUT*%
X56254999Y22494999D03*
%TO.P,Q1,2,S*%
X56254999Y23764999D03*
%TO.P,Q1,3,S*%
X56254999Y25034999D03*
%TO.P,Q1,4,G*%
%TO.N,Net-(Q1-G)*%
X56254999Y26304999D03*
D18*
%TO.P,Q1,5,D*%
%TO.N,+BATT*%
X52304999Y24399999D03*
%TD*%
D12*
%TO.P,C3,1*%
%TO.N,+9V*%
X39287500Y6500000D03*
%TO.P,C3,2*%
%TO.N,GND*%
X37212500Y6500000D03*
%TD*%
D10*
%TO.P,R17,1*%
%TO.N,Net-(R17-Pad1)*%
X35500000Y9550000D03*
%TO.P,R17,2*%
%TO.N,/BRIDGE2/I*%
X35500000Y7725000D03*
%TD*%
D22*
%TO.P,R5,1*%
%TO.N,Net-(U4-LO)*%
X42000000Y25425000D03*
%TO.P,R5,2*%
%TO.N,Net-(Q2-G)*%
X42000000Y27250000D03*
%TD*%
D23*
%TO.P,C4,1*%
%TO.N,Net-(D2-A)*%
X32000000Y24462500D03*
%TO.P,C4,2*%
%TO.N,GND*%
X32000000Y26537500D03*
%TD*%
D20*
%TO.P,C18,1*%
%TO.N,GND*%
X43737500Y19500000D03*
%TO.P,C18,2*%
%TO.N,+9V*%
X45462500Y19500000D03*
%TD*%
D22*
%TO.P,R4,1*%
%TO.N,Net-(U4-HO)*%
X48700000Y25087500D03*
%TO.P,R4,2*%
%TO.N,Net-(Q1-G)*%
X48700000Y26912500D03*
%TD*%
D24*
%TO.P,JP1,1,A*%
%TO.N,+5V*%
X36499999Y22849873D03*
%TO.P,JP1,2,C*%
%TO.N,Net-(ENC1-Pin_2)*%
X36499999Y21549873D03*
%TO.P,JP1,3,B*%
%TO.N,+3.3V*%
X36499999Y20249873D03*
%TD*%
D25*
%TO.P,C12,1*%
%TO.N,+BATT*%
X54162500Y20500000D03*
%TO.P,C12,2*%
%TO.N,Net-(U5-+)*%
X56237500Y20500000D03*
%TD*%
D26*
%TO.P,U2,1,OUT*%
%TO.N,Net-(D2-A)*%
X37249999Y25049873D03*
D27*
%TO.P,U2,2,GND*%
%TO.N,GND*%
X37162500Y26549874D03*
D26*
%TO.P,U2,3,IN*%
%TO.N,+9V*%
X37249999Y28049873D03*
%TD*%
D11*
%TO.P,C11,1*%
%TO.N,/BRIDGE/OUT*%
X48700000Y23362500D03*
%TO.P,C11,2*%
%TO.N,Net-(U4-Vboot)*%
X48700000Y21637500D03*
%TD*%
D28*
%TO.P,U12,1,UD+*%
%TO.N,Net-(U12-UD+)*%
X16184873Y23374873D03*
%TO.P,U12,2,UD-*%
%TO.N,Net-(U12-UD-)*%
X15684873Y23374873D03*
%TO.P,U12,3,GND*%
%TO.N,GND*%
X15184873Y23374873D03*
%TO.P,U12,4,~{RTS}*%
%TO.N,unconnected-(U12-~{RTS}-Pad4)*%
X14684873Y23374873D03*
%TO.P,U12,5,~{CTS}*%
%TO.N,unconnected-(U12-~{CTS}-Pad5)*%
X14184873Y23374873D03*
%TO.P,U12,6,TNOW*%
%TO.N,unconnected-(U12-TNOW-Pad6)*%
X14184873Y18974873D03*
%TO.P,U12,7,VCC*%
%TO.N,+3.3V*%
X14684873Y18974873D03*
%TO.P,U12,8,TXD*%
%TO.N,/MCU/UART_RX*%
X15184873Y18974873D03*
%TO.P,U12,9,RXD*%
%TO.N,/MCU/UART_TX*%
X15684873Y18974873D03*
%TO.P,U12,10,V3*%
%TO.N,+3.3V*%
X16184873Y18974873D03*
%TD*%
D17*
%TO.P,Q3,1,S*%
%TO.N,/BRIDGE1/OUT*%
X56204999Y13094999D03*
%TO.P,Q3,2,S*%
X56204999Y14364999D03*
%TO.P,Q3,3,S*%
X56204999Y15634999D03*
%TO.P,Q3,4,G*%
%TO.N,Net-(Q3-G)*%
X56204999Y16904999D03*
D18*
%TO.P,Q3,5,D*%
%TO.N,+BATT*%
X52254999Y14999999D03*
%TD*%
D20*
%TO.P,C23,1*%
%TO.N,GND*%
X43700000Y10000000D03*
%TO.P,C23,2*%
%TO.N,+9V*%
X45425000Y10000000D03*
%TD*%
D29*
%TO.P,H2,1,1*%
%TO.N,GND*%
X2974874Y26974874D03*
%TD*%
D22*
%TO.P,R13,1*%
%TO.N,Net-(U9-DT)*%
X43500000Y6087500D03*
%TO.P,R13,2*%
%TO.N,GND*%
X43500000Y7912500D03*
%TD*%
D24*
%TO.P,JP2,1,A*%
%TO.N,GND*%
X2749999Y11549999D03*
%TO.P,JP2,2,C*%
%TO.N,Net-(JP2-C)*%
X2749999Y10249999D03*
%TO.P,JP2,3,B*%
%TO.N,+5V*%
X2749999Y8949999D03*
%TD*%
D30*
%TO.P,D2,1,K*%
%TO.N,+5V*%
X27962374Y24299874D03*
%TO.P,D2,2,A*%
%TO.N,Net-(D2-A)*%
X30062374Y24299874D03*
%TD*%
D22*
%TO.P,R3,1*%
%TO.N,Net-(U4-DT)*%
X43500000Y25425000D03*
%TO.P,R3,2*%
%TO.N,GND*%
X43500000Y27250000D03*
%TD*%
D29*
%TO.P,H1,1,1*%
%TO.N,GND*%
X74500000Y2974874D03*
%TD*%
D14*
%TO.P,U5,1,REF*%
%TO.N,GND*%
X67399999Y26699999D03*
%TO.P,U5,2,GND*%
X66749999Y26699999D03*
%TO.P,U5,3,V+*%
%TO.N,+3.3V*%
X66099999Y26699999D03*
%TO.P,U5,4,+*%
%TO.N,Net-(U5-+)*%
X66099999Y24799999D03*
%TO.P,U5,5,-*%
%TO.N,GND*%
X66749999Y24799999D03*
%TO.P,U5,6*%
%TO.N,Net-(R7-Pad1)*%
X67399999Y24799999D03*
%TD*%
D31*
%TO.P,RN1,1,R1.1*%
%TO.N,/MCU/LED_R*%
X12799999Y1399999D03*
D32*
%TO.P,RN1,2,R2.1*%
%TO.N,/MCU/LED_G*%
X12799999Y2199999D03*
%TO.P,RN1,3,R3.1*%
%TO.N,/MCU/LED_B*%
X12799999Y2999999D03*
D31*
%TO.P,RN1,4,R4.1*%
%TO.N,unconnected-(RN1-R4.1-Pad4)*%
X12799999Y3799999D03*
%TO.P,RN1,5,R4.2*%
%TO.N,unconnected-(RN1-R4.2-Pad5)*%
X10999999Y3799999D03*
D32*
%TO.P,RN1,6,R3.2*%
%TO.N,Net-(D1-RK)*%
X10999999Y2999999D03*
%TO.P,RN1,7,R2.2*%
%TO.N,Net-(D1-GK)*%
X10999999Y2199999D03*
D31*
%TO.P,RN1,8,R1.2*%
%TO.N,Net-(D1-BK)*%
X10999999Y1399999D03*
%TD*%
D33*
%TO.P,Y1,1,1*%
%TO.N,Net-(U6-PF0)*%
X16376345Y8823401D03*
%TO.P,Y1,2,2*%
%TO.N,GND*%
X17224873Y7974873D03*
%TO.P,Y1,3,3*%
%TO.N,Net-(U6-PF1)*%
X18073401Y7126345D03*
%TD*%
D11*
%TO.P,C22,1*%
%TO.N,/BRIDGE1/I*%
X33750000Y6025000D03*
%TO.P,C22,2*%
%TO.N,GND*%
X33750000Y4300000D03*
%TD*%
D34*
%TO.P,C1,1*%
%TO.N,+BATT*%
X37500000Y10537500D03*
%TO.P,C1,2*%
%TO.N,GND*%
X37500000Y8462500D03*
%TD*%
D35*
%TO.P,U7,1,VCC*%
%TO.N,+9V*%
X46899999Y12249999D03*
%TO.P,U7,2,Vboot*%
%TO.N,Net-(U7-Vboot)*%
X46899999Y12749999D03*
%TO.P,U7,3,HO*%
%TO.N,Net-(U7-HO)*%
X46899999Y13249999D03*
%TO.P,U7,4,VS*%
%TO.N,/BRIDGE1/OUT*%
X46899999Y13749999D03*
%TO.P,U7,5,NC*%
%TO.N,unconnected-(U7-NC-Pad5)*%
X46899999Y14249999D03*
%TO.P,U7,6,DT*%
%TO.N,Net-(U7-DT)*%
X42499999Y14249999D03*
%TO.P,U7,7,EN*%
%TO.N,/BRIDGE/EN*%
X42499999Y13749999D03*
%TO.P,U7,8,IN*%
%TO.N,/BRIDGE1/PWM*%
X42499999Y13249999D03*
%TO.P,U7,9,COM*%
%TO.N,GND*%
X42499999Y12749999D03*
%TO.P,U7,10,LO*%
%TO.N,Net-(U7-LO)*%
X42499999Y12249999D03*
%TD*%
D34*
%TO.P,C2,1*%
%TO.N,+9V*%
X39250000Y28287500D03*
%TO.P,C2,2*%
%TO.N,GND*%
X39250000Y26212500D03*
%TD*%
D22*
%TO.P,R9,1*%
%TO.N,Net-(U7-HO)*%
X48700000Y15837500D03*
%TO.P,R9,2*%
%TO.N,Net-(Q3-G)*%
X48700000Y17662500D03*
%TD*%
D20*
%TO.P,C13,1*%
%TO.N,+3.3V*%
X65887500Y8750000D03*
%TO.P,C13,2*%
%TO.N,GND*%
X67612500Y8750000D03*
%TD*%
D11*
%TO.P,C29,1*%
%TO.N,GND*%
X12184874Y20587374D03*
%TO.P,C29,2*%
%TO.N,+3.3V*%
X12184874Y18862374D03*
%TD*%
D10*
%TO.P,R1,1*%
%TO.N,+BATT*%
X28750000Y6162500D03*
%TO.P,R1,2*%
%TO.N,/MCU/POWER_V*%
X28750000Y4337500D03*
%TD*%
D11*
%TO.P,C19,1*%
%TO.N,/BRIDGE1/OUT*%
X48700000Y14112500D03*
%TO.P,C19,2*%
%TO.N,Net-(U7-Vboot)*%
X48700000Y12387500D03*
%TD*%
%TO.P,C7,1*%
%TO.N,/MCU/POWER_V*%
X28750000Y2612500D03*
%TO.P,C7,2*%
%TO.N,GND*%
X28750000Y887500D03*
%TD*%
%TO.P,C27,1*%
%TO.N,/BRIDGE2/I*%
X35500000Y6000000D03*
%TO.P,C27,2*%
%TO.N,GND*%
X35500000Y4275000D03*
%TD*%
D17*
%TO.P,Q5,1,S*%
%TO.N,/BRIDGE2/OUT*%
X56204999Y2944999D03*
%TO.P,Q5,2,S*%
X56204999Y4214999D03*
%TO.P,Q5,3,S*%
X56204999Y5484999D03*
%TO.P,Q5,4,G*%
%TO.N,Net-(Q5-G)*%
X56204999Y6754999D03*
D18*
%TO.P,Q5,5,D*%
%TO.N,+BATT*%
X52254999Y4849999D03*
%TD*%
D22*
%TO.P,R20,1*%
%TO.N,Net-(J2-CC2)*%
X16434874Y26312374D03*
%TO.P,R20,2*%
%TO.N,GND*%
X16434874Y28137374D03*
%TD*%
%TO.P,R10,1*%
%TO.N,Net-(U7-LO)*%
X42000000Y16087500D03*
%TO.P,R10,2*%
%TO.N,Net-(Q4-G)*%
X42000000Y17912500D03*
%TD*%
D36*
%TO.P,U13,1,GND*%
%TO.N,GND*%
X21462500Y26150000D03*
%TO.P,U13,2,VO*%
%TO.N,+3.3V*%
X21462500Y24250000D03*
%TO.P,U13,3,VI*%
%TO.N,+5V*%
X23737500Y25200000D03*
%TD*%
D25*
%TO.P,C20,1*%
%TO.N,+BATT*%
X54162500Y11100000D03*
%TO.P,C20,2*%
%TO.N,Net-(U8-+)*%
X56237500Y11100000D03*
%TD*%
D20*
%TO.P,C10,1*%
%TO.N,GND*%
X36800000Y2300000D03*
%TO.P,C10,2*%
%TO.N,+9V*%
X38525000Y2300000D03*
%TD*%
D22*
%TO.P,R15,1*%
%TO.N,Net-(U9-LO)*%
X42000000Y6087500D03*
%TO.P,R15,2*%
%TO.N,Net-(Q6-G)*%
X42000000Y7912500D03*
%TD*%
%TO.P,R8,1*%
%TO.N,Net-(U7-DT)*%
X43500000Y16087500D03*
%TO.P,R8,2*%
%TO.N,GND*%
X43500000Y17912500D03*
%TD*%
D25*
%TO.P,C25,1*%
%TO.N,+BATT*%
X54162500Y1000000D03*
%TO.P,C25,2*%
%TO.N,Net-(U10-+)*%
X56237500Y1000000D03*
%TD*%
D10*
%TO.P,R2,1*%
%TO.N,/MCU/POWER_V*%
X27000000Y2662500D03*
%TO.P,R2,2*%
%TO.N,GND*%
X27000000Y837500D03*
%TD*%
D29*
%TO.P,H4,1,1*%
%TO.N,GND*%
X74500000Y26974874D03*
%TD*%
D37*
%TO.P,C15,1*%
%TO.N,Net-(U6-VDDA)*%
X20458497Y6208497D03*
%TO.P,C15,2*%
%TO.N,GND*%
X18991251Y4741251D03*
%TD*%
D23*
%TO.P,C5,1*%
%TO.N,+5V*%
X25762374Y25012374D03*
%TO.P,C5,2*%
%TO.N,GND*%
X25762374Y27087374D03*
%TD*%
D38*
%TO.P,D1,1,BK*%
%TO.N,Net-(D1-BK)*%
X7650000Y1500000D03*
%TO.P,D1,2,A*%
%TO.N,+3.3V*%
X7650000Y3500000D03*
%TO.P,D1,3,RK*%
%TO.N,Net-(D1-RK)*%
X8900000Y3500000D03*
%TO.P,D1,4,GK*%
%TO.N,Net-(D1-GK)*%
X8900000Y1500000D03*
%TD*%
D10*
%TO.P,R7,1*%
%TO.N,Net-(R7-Pad1)*%
X32000000Y9575000D03*
%TO.P,R7,2*%
%TO.N,/BRIDGE/I*%
X32000000Y7750000D03*
%TD*%
D17*
%TO.P,Q2,1,S*%
%TO.N,Net-(U5-+)*%
X63504999Y22444999D03*
%TO.P,Q2,2,S*%
X63504999Y23714999D03*
%TO.P,Q2,3,S*%
X63504999Y24984999D03*
%TO.P,Q2,4,G*%
%TO.N,Net-(Q2-G)*%
X63504999Y26254999D03*
D18*
%TO.P,Q2,5,D*%
%TO.N,/BRIDGE/OUT*%
X59554999Y24349999D03*
%TD*%
D39*
%TO.P,FB1,1*%
%TO.N,+3.3V*%
X20356156Y3356156D03*
%TO.P,FB1,2*%
%TO.N,Net-(U6-VDDA)*%
X21593592Y4593592D03*
%TD*%
D10*
%TO.P,R12,1*%
%TO.N,Net-(R12-Pad1)*%
X33750000Y9575000D03*
%TO.P,R12,2*%
%TO.N,/BRIDGE1/I*%
X33750000Y7750000D03*
%TD*%
D40*
%TO.P,R6,1*%
%TO.N,Net-(U5-+)*%
X65150000Y22750000D03*
%TO.P,R6,2*%
%TO.N,GND*%
X68250000Y22750000D03*
%TD*%
D11*
%TO.P,C24,1*%
%TO.N,/BRIDGE2/OUT*%
X48700000Y3975000D03*
%TO.P,C24,2*%
%TO.N,Net-(U9-Vboot)*%
X48700000Y2250000D03*
%TD*%
D17*
%TO.P,Q6,1,S*%
%TO.N,Net-(U10-+)*%
X63504999Y2994999D03*
%TO.P,Q6,2,S*%
X63504999Y4264999D03*
%TO.P,Q6,3,S*%
X63504999Y5534999D03*
%TO.P,Q6,4,G*%
%TO.N,Net-(Q6-G)*%
X63504999Y6804999D03*
D18*
%TO.P,Q6,5,D*%
%TO.N,/BRIDGE2/OUT*%
X59554999Y4899999D03*
%TD*%
D35*
%TO.P,U4,1,VCC*%
%TO.N,+9V*%
X46899999Y21499999D03*
%TO.P,U4,2,Vboot*%
%TO.N,Net-(U4-Vboot)*%
X46899999Y21999999D03*
%TO.P,U4,3,HO*%
%TO.N,Net-(U4-HO)*%
X46899999Y22499999D03*
%TO.P,U4,4,VS*%
%TO.N,/BRIDGE/OUT*%
X46899999Y22999999D03*
%TO.P,U4,5,NC*%
%TO.N,unconnected-(U4-NC-Pad5)*%
X46899999Y23499999D03*
%TO.P,U4,6,DT*%
%TO.N,Net-(U4-DT)*%
X42499999Y23499999D03*
%TO.P,U4,7,EN*%
%TO.N,/BRIDGE/EN*%
X42499999Y22999999D03*
%TO.P,U4,8,IN*%
%TO.N,/BRIDGE/PWM*%
X42499999Y22499999D03*
%TO.P,U4,9,COM*%
%TO.N,GND*%
X42499999Y21999999D03*
%TO.P,U4,10,LO*%
%TO.N,Net-(U4-LO)*%
X42499999Y21499999D03*
%TD*%
D22*
%TO.P,R14,1*%
%TO.N,Net-(U9-HO)*%
X48750000Y5587500D03*
%TO.P,R14,2*%
%TO.N,Net-(Q5-G)*%
X48750000Y7412500D03*
%TD*%
D40*
%TO.P,R11,1*%
%TO.N,Net-(U8-+)*%
X65150000Y13250000D03*
%TO.P,R11,2*%
%TO.N,GND*%
X68250000Y13250000D03*
%TD*%
D35*
%TO.P,U9,1,VCC*%
%TO.N,+9V*%
X46949999Y2249999D03*
%TO.P,U9,2,Vboot*%
%TO.N,Net-(U9-Vboot)*%
X46949999Y2749999D03*
%TO.P,U9,3,HO*%
%TO.N,Net-(U9-HO)*%
X46949999Y3249999D03*
%TO.P,U9,4,VS*%
%TO.N,/BRIDGE2/OUT*%
X46949999Y3749999D03*
%TO.P,U9,5,NC*%
%TO.N,unconnected-(U9-NC-Pad5)*%
X46949999Y4249999D03*
%TO.P,U9,6,DT*%
%TO.N,Net-(U9-DT)*%
X42549999Y4249999D03*
%TO.P,U9,7,EN*%
%TO.N,/BRIDGE/EN*%
X42549999Y3749999D03*
%TO.P,U9,8,IN*%
%TO.N,/BRIDGE2/PWM*%
X42549999Y3249999D03*
%TO.P,U9,9,COM*%
%TO.N,GND*%
X42549999Y2749999D03*
%TO.P,U9,10,LO*%
%TO.N,Net-(U9-LO)*%
X42549999Y2249999D03*
%TD*%
D41*
%TO.P,D3,1,K*%
%TO.N,+5V*%
X20234874Y20974874D03*
%TO.P,D3,2,A*%
%TO.N,Net-(D3-A)*%
X18134874Y20974874D03*
%TD*%
D40*
%TO.P,R16,1*%
%TO.N,Net-(U10-+)*%
X65150000Y3250000D03*
%TO.P,R16,2*%
%TO.N,GND*%
X68250000Y3250000D03*
%TD*%
D29*
%TO.P,H3,1,1*%
%TO.N,GND*%
X2974874Y2974874D03*
%TD*%
D42*
%TO.P,ENC1,1,Pin_1*%
%TO.N,/MCU/PB5*%
X24012374Y20399874D03*
D43*
%TO.P,ENC1,2,Pin_2*%
%TO.N,Net-(ENC1-Pin_2)*%
X26512373Y20399873D03*
%TO.P,ENC1,3,Pin_3*%
%TO.N,/MCU/PB4*%
X29012373Y20399873D03*
%TO.P,ENC1,4,Pin_4*%
%TO.N,/MCU/PB3*%
X31512373Y20399873D03*
%TO.P,ENC1,5,Pin_5*%
%TO.N,GND*%
X34012373Y20399873D03*
%TD*%
D44*
%TO.P,OUT1,*%
%TO.N,*%
X76375000Y8250000D03*
X76375000Y21250000D03*
D45*
%TO.P,OUT1,1,Pin_1*%
%TO.N,/BRIDGE/OUT*%
X71374999Y18249999D03*
D46*
%TO.P,OUT1,2,Pin_2*%
%TO.N,/BRIDGE1/OUT*%
X71375000Y14750000D03*
%TO.P,OUT1,3,Pin_3*%
%TO.N,/BRIDGE2/OUT*%
X71375000Y11250000D03*
%TD*%
D47*
%TO.P,J2,S1,SHIELD*%
%TO.N,GND*%
X10974873Y27404873D03*
D48*
X10974873Y23224873D03*
D47*
X19614873Y27404873D03*
D48*
X19614873Y23224873D03*
%TD*%
D49*
%TO.P,IN1,1,+*%
%TO.N,+BATT*%
X11474874Y9481124D03*
%TO.P,IN1,2,-*%
%TO.N,GND*%
X11474874Y14481124D03*
D50*
%TO.P,IN1,3,S1*%
%TO.N,/CAN/CAN-H*%
X8224874Y18331124D03*
%TO.P,IN1,4,S2*%
%TO.N,/CAN/CAN-L*%
X10224874Y18331124D03*
%TD*%
D51*
%TO.N,GND*%
X36250000Y5000000D03*
D52*
X17400000Y15700000D03*
D51*
X25750000Y1000000D03*
X4750000Y8750000D03*
X16800000Y4700000D03*
X4000000Y12250000D03*
X34600000Y27900000D03*
X42500000Y10000000D03*
X35800000Y27900000D03*
X42900000Y11500000D03*
X31000000Y3250000D03*
X39200000Y19612962D03*
X41255923Y3019533D03*
X33600000Y27900000D03*
X26800000Y28100000D03*
X40200000Y21500000D03*
%TO.N,+3.3V*%
X15502507Y15248546D03*
X64800000Y19600000D03*
X64800000Y9400000D03*
X30181538Y15818462D03*
X65000000Y29100000D03*
X25500000Y29000000D03*
X36500000Y20249874D03*
X10750000Y20250000D03*
D52*
%TO.N,/BRIDGE/OUT*%
X61100000Y26000000D03*
X58700000Y25400000D03*
X58700000Y26000000D03*
X61700000Y26000000D03*
X60500000Y26600000D03*
X59900000Y26600000D03*
X58100000Y25400000D03*
X58700000Y26600000D03*
X61700000Y23600000D03*
X57500000Y26000000D03*
X59300000Y23600000D03*
X61700000Y22400000D03*
X61700000Y25400000D03*
X61700000Y23000000D03*
X57500000Y25400000D03*
X59300000Y24200000D03*
X58100000Y26600000D03*
X58100000Y23000000D03*
X59300000Y22400000D03*
X61700000Y24800000D03*
X61100000Y24800000D03*
X58100000Y23600000D03*
X60500000Y24200000D03*
X60500000Y23000000D03*
X60500000Y22400000D03*
X58100000Y24800000D03*
X57500000Y24200000D03*
X61100000Y24200000D03*
X59300000Y26600000D03*
X61100000Y22400000D03*
X59300000Y26000000D03*
X61100000Y23000000D03*
X61700000Y26600000D03*
X57500000Y23600000D03*
X58700000Y24200000D03*
X61100000Y23600000D03*
X58100000Y22400000D03*
X59900000Y24200000D03*
X59900000Y25400000D03*
X61700000Y24200000D03*
X57500000Y22400000D03*
X60500000Y25400000D03*
X59300000Y25400000D03*
X59900000Y22400000D03*
X58700000Y22400000D03*
X60500000Y26000000D03*
X59300000Y23000000D03*
X58700000Y24800000D03*
X60500000Y23600000D03*
X57500000Y24800000D03*
X58100000Y26000000D03*
X59900000Y26000000D03*
X61100000Y25400000D03*
X58100000Y24200000D03*
X58700000Y23000000D03*
X59900000Y24800000D03*
X59900000Y23600000D03*
X60500000Y24800000D03*
X58700000Y23600000D03*
X57500000Y23000000D03*
X59300000Y24800000D03*
X59900000Y23000000D03*
X57500000Y26600000D03*
X61100000Y26600000D03*
D51*
%TO.N,+9V*%
X39500000Y8250000D03*
D52*
%TO.N,+BATT*%
X51500000Y4300000D03*
X50900000Y17300000D03*
X52700000Y24800000D03*
X50300000Y24200000D03*
X52100000Y24800000D03*
X53900000Y13100000D03*
X50300000Y26000000D03*
X53300000Y26600000D03*
X53300000Y23600000D03*
X53900000Y16700000D03*
X52100000Y23600000D03*
X53900000Y14900000D03*
X53900000Y16100000D03*
X53300000Y16700000D03*
X53900000Y23000000D03*
X54500000Y23600000D03*
X50900000Y23000000D03*
X53900000Y15500000D03*
X52700000Y13700000D03*
X51500000Y24800000D03*
X50900000Y4900000D03*
X50300000Y13100000D03*
X53300000Y14300000D03*
X51500000Y6100000D03*
X51500000Y26600000D03*
X52100000Y14300000D03*
D51*
X38500000Y9500000D03*
D52*
X52700000Y17300000D03*
X52700000Y6100000D03*
X52700000Y5500000D03*
X54500000Y6700000D03*
X51500000Y22400000D03*
X53900000Y26000000D03*
X53900000Y5500000D03*
X54500000Y23000000D03*
X53300000Y25400000D03*
X52700000Y26000000D03*
X52100000Y13100000D03*
X54500000Y15500000D03*
X53900000Y13700000D03*
X53900000Y24800000D03*
X50900000Y24200000D03*
X50300000Y24800000D03*
X52100000Y16700000D03*
X53300000Y5500000D03*
X54500000Y14900000D03*
X53300000Y4900000D03*
X52700000Y14300000D03*
X51500000Y14900000D03*
X54500000Y13100000D03*
X51500000Y24200000D03*
X50300000Y15500000D03*
X50900000Y4300000D03*
X52700000Y14900000D03*
X53900000Y6100000D03*
X51500000Y16700000D03*
X53900000Y26600000D03*
X51500000Y17300000D03*
X53300000Y6100000D03*
X53300000Y23000000D03*
X52700000Y3100000D03*
X52100000Y3700000D03*
X50300000Y17300000D03*
X54500000Y4900000D03*
X51500000Y13700000D03*
X53300000Y22400000D03*
X54500000Y24800000D03*
X50900000Y6700000D03*
X50900000Y16100000D03*
X50300000Y5500000D03*
X50300000Y6100000D03*
X52100000Y26600000D03*
X53300000Y24800000D03*
X53900000Y24200000D03*
X50300000Y14900000D03*
X51500000Y23000000D03*
X52100000Y16100000D03*
X50900000Y3100000D03*
X54500000Y24200000D03*
X53900000Y2500000D03*
X51500000Y5500000D03*
X51500000Y16100000D03*
X53900000Y17300000D03*
X52100000Y23000000D03*
X54500000Y16700000D03*
X52700000Y16700000D03*
X50900000Y25400000D03*
X52100000Y5500000D03*
X50900000Y24800000D03*
X54500000Y5500000D03*
X50300000Y3100000D03*
X52100000Y26000000D03*
X50900000Y5500000D03*
X52700000Y13100000D03*
X52100000Y3100000D03*
X53300000Y17300000D03*
X50300000Y22400000D03*
X52100000Y22400000D03*
X52700000Y23000000D03*
X53900000Y4900000D03*
X53300000Y15500000D03*
X52100000Y14900000D03*
X52100000Y15500000D03*
X51500000Y4900000D03*
X51500000Y3700000D03*
X50900000Y6100000D03*
X54500000Y22400000D03*
X50300000Y23600000D03*
X50900000Y14900000D03*
X50900000Y13700000D03*
X51500000Y13100000D03*
X51500000Y3100000D03*
X53900000Y14300000D03*
X52100000Y6100000D03*
X53900000Y23600000D03*
X54500000Y26000000D03*
X53300000Y24200000D03*
X50300000Y3700000D03*
X54500000Y2500000D03*
X53300000Y13700000D03*
X51500000Y2500000D03*
X52700000Y16100000D03*
X50300000Y6700000D03*
X50900000Y23600000D03*
X50900000Y2500000D03*
X53900000Y25400000D03*
X50300000Y26600000D03*
X52100000Y4300000D03*
X51500000Y14300000D03*
X52700000Y4900000D03*
X52100000Y13700000D03*
X54500000Y14300000D03*
X53300000Y2500000D03*
X51500000Y6700000D03*
X50900000Y22400000D03*
X50300000Y16100000D03*
X50300000Y23000000D03*
X52700000Y24200000D03*
X52700000Y4300000D03*
X54500000Y3100000D03*
X52100000Y24200000D03*
X50300000Y2500000D03*
X53300000Y3100000D03*
X52700000Y22400000D03*
X54500000Y26600000D03*
X54500000Y4300000D03*
X52100000Y4900000D03*
X51500000Y25400000D03*
X52700000Y6700000D03*
D51*
X27750000Y7000000D03*
D52*
X53900000Y3100000D03*
X53900000Y6700000D03*
X54500000Y25400000D03*
X52100000Y17300000D03*
X53300000Y4300000D03*
X54500000Y6100000D03*
X51500000Y26000000D03*
X52700000Y26600000D03*
X53300000Y6700000D03*
X52700000Y15500000D03*
X50900000Y26000000D03*
X53300000Y14900000D03*
X50900000Y3700000D03*
X51500000Y23600000D03*
X50300000Y4900000D03*
X50900000Y13100000D03*
X53900000Y3700000D03*
X50300000Y13700000D03*
X50900000Y16700000D03*
X50300000Y25400000D03*
X53900000Y22400000D03*
X54500000Y17300000D03*
X54500000Y3700000D03*
X53300000Y3700000D03*
X50900000Y14300000D03*
X51500000Y15500000D03*
X53300000Y26000000D03*
X50300000Y4300000D03*
X52100000Y6700000D03*
X50300000Y14300000D03*
X54500000Y16100000D03*
X52700000Y2500000D03*
X52700000Y23600000D03*
X52100000Y25400000D03*
X52700000Y3700000D03*
X52700000Y25400000D03*
X50300000Y16700000D03*
X53300000Y13100000D03*
X50900000Y26600000D03*
X54500000Y13700000D03*
X52100000Y2500000D03*
X50900000Y15500000D03*
X53300000Y16100000D03*
X53900000Y4300000D03*
%TO.N,/BRIDGE1/OUT*%
X58700000Y16100000D03*
X58700000Y17300000D03*
X58700000Y14300000D03*
X58100000Y17300000D03*
X61700000Y17300000D03*
X59900000Y17300000D03*
X57500000Y17300000D03*
X61700000Y13700000D03*
X57500000Y14300000D03*
X61100000Y13100000D03*
X60500000Y17300000D03*
X61100000Y14300000D03*
X58100000Y13100000D03*
X59300000Y15500000D03*
X61700000Y16100000D03*
X57500000Y15500000D03*
X57500000Y14900000D03*
X61100000Y15500000D03*
X57500000Y16100000D03*
X60500000Y13700000D03*
X61700000Y16700000D03*
X58700000Y16700000D03*
X59300000Y13100000D03*
X59900000Y13700000D03*
X61700000Y14300000D03*
X61700000Y13100000D03*
X58700000Y14900000D03*
X58100000Y14300000D03*
X61100000Y16100000D03*
X59300000Y16100000D03*
X59900000Y16100000D03*
X61100000Y17300000D03*
X59900000Y15500000D03*
X59900000Y14300000D03*
X61100000Y13700000D03*
X58700000Y13700000D03*
X61100000Y14900000D03*
X58100000Y16100000D03*
X58100000Y16700000D03*
X59900000Y14900000D03*
X57500000Y13700000D03*
X60500000Y16100000D03*
X59300000Y13700000D03*
X60500000Y16700000D03*
X61100000Y16700000D03*
X57500000Y13100000D03*
X58700000Y15500000D03*
X61700000Y14900000D03*
X61700000Y15500000D03*
X58700000Y13100000D03*
X59300000Y14900000D03*
X59300000Y16700000D03*
X58100000Y15500000D03*
X59300000Y17300000D03*
X60500000Y15500000D03*
X59900000Y16700000D03*
X59900000Y13100000D03*
X58100000Y14900000D03*
X60500000Y13100000D03*
X59300000Y14300000D03*
X60500000Y14900000D03*
X60500000Y14300000D03*
X57500000Y16700000D03*
X58100000Y13700000D03*
%TO.N,/BRIDGE2/OUT*%
X59900000Y2500000D03*
X58700000Y4300000D03*
X61100000Y6700000D03*
X59304328Y3704932D03*
X57500000Y6100000D03*
X58100000Y6700000D03*
X57500000Y5500000D03*
X57500000Y2500000D03*
X58100000Y3100000D03*
X58700000Y2500000D03*
X60500000Y4900000D03*
X59304328Y6704932D03*
X60500000Y5500000D03*
X59900000Y3700000D03*
X58700000Y3100000D03*
X58100000Y2500000D03*
X61704328Y6104932D03*
X61704328Y2504932D03*
X60500000Y6100000D03*
X58700000Y3700000D03*
X61100000Y2500000D03*
X59304328Y4904932D03*
X60500000Y6700000D03*
X59900000Y4900000D03*
X61100000Y5500000D03*
X59900000Y4300000D03*
X60500000Y4300000D03*
X61704328Y6704932D03*
X61704328Y4904932D03*
X58100000Y4300000D03*
X58100000Y4900000D03*
X58700000Y5500000D03*
X60500000Y3700000D03*
X61100000Y3100000D03*
X57500000Y4300000D03*
X57500000Y3700000D03*
X61100000Y4300000D03*
X61100000Y6100000D03*
X57500000Y6700000D03*
X58700000Y4900000D03*
X61704328Y4304932D03*
X61704328Y3704932D03*
X61704328Y5504932D03*
X61704328Y3104932D03*
X61100000Y4900000D03*
X58100000Y6100000D03*
X60500000Y2500000D03*
X59304328Y2504932D03*
X59900000Y5500000D03*
X58100000Y5500000D03*
X61100000Y3700000D03*
X58100000Y3700000D03*
X60500000Y3100000D03*
X59900000Y6100000D03*
X57500000Y3100000D03*
X59304328Y5504932D03*
X59900000Y6700000D03*
X58700000Y6100000D03*
X59304328Y3104932D03*
X57500000Y4900000D03*
X58700000Y6700000D03*
X59304328Y6104932D03*
X59304328Y4304932D03*
X59900000Y3100000D03*
%TO.N,+5V*%
X8200000Y7500000D03*
X19133620Y17633620D03*
%TO.N,/MCU/NRST*%
X26800000Y11292747D03*
X37749502Y21175500D03*
D51*
%TO.N,Net-(Q2-G)*%
X46200000Y28051000D03*
X42000000Y28300000D03*
X63025613Y28050500D03*
%TO.N,Net-(Q4-G)*%
X62778530Y19550500D03*
X41250000Y17000000D03*
%TO.N,Net-(Q6-G)*%
X42750969Y7000000D03*
X62159500Y9440312D03*
D52*
%TO.N,Net-(D3-A)*%
X17600000Y20200000D03*
%TO.N,Net-(J2-CC1)*%
X13684874Y21224874D03*
%TO.N,Net-(J2-CC2)*%
X16943349Y20972049D03*
%TO.N,Net-(U12-UD+)*%
X16184874Y21224874D03*
%TO.N,Net-(U12-UD-)*%
X15385371Y21224874D03*
%TO.N,/MCU/SWCLK*%
X24000000Y17725500D03*
%TO.N,/MCU/SWDIO*%
X26200000Y17925500D03*
%TO.N,/CAN/CAN_RX*%
X14724500Y15700000D03*
X23166472Y15812305D03*
%TO.N,/CAN/CAN_TX*%
X14000000Y16200000D03*
X23800000Y16300000D03*
%TO.N,Net-(R7-Pad1)*%
X34050500Y12000000D03*
D51*
X63881728Y28750500D03*
%TO.N,Net-(R12-Pad1)*%
X63800497Y19600000D03*
D52*
X34850003Y12000000D03*
D51*
%TO.N,Net-(R17-Pad1)*%
X63300000Y9400000D03*
D52*
X35649007Y12028225D03*
%TD*%
D53*
%TO.N,GND*%
X66950000Y23050000D02*
X67250000Y22750000D01*
D54*
X37500000Y6787500D02*
X37212500Y6500000D01*
D53*
X43500000Y22000000D02*
X42500000Y22000000D01*
X43274312Y20949312D02*
X43525000Y21200000D01*
D54*
X16758749Y4741251D02*
X16708497Y4741251D01*
X35500000Y4275000D02*
X36225000Y5000000D01*
D53*
X43500000Y12750000D02*
X42500000Y12750000D01*
D54*
X31112500Y3250000D02*
X31000000Y3250000D01*
X31000000Y3250000D02*
X31000000Y3137500D01*
X15974874Y6724874D02*
X17224874Y7974874D01*
X28750000Y887500D02*
X27050000Y887500D01*
D55*
X37162500Y26549874D02*
X35950126Y26549874D01*
D54*
X37500000Y8462500D02*
X37500000Y6787500D01*
D55*
X37162500Y26549874D02*
X38912626Y26549874D01*
D53*
X66950000Y3550000D02*
X67250000Y3250000D01*
D54*
X31224874Y11612374D02*
X29016716Y11612374D01*
D55*
X35950126Y26549874D02*
X34600000Y27900000D01*
D54*
X67612500Y7412500D02*
X67400000Y7200000D01*
X35500000Y4275000D02*
X32025000Y4275000D01*
D53*
X43525000Y11775000D02*
X43525000Y12725000D01*
D54*
X16841251Y4741251D02*
X16800000Y4700000D01*
D53*
X66750000Y24800000D02*
X66750000Y24136396D01*
D54*
X15974874Y5474874D02*
X15974874Y6724874D01*
X10974874Y21797374D02*
X12184874Y20587374D01*
X67612500Y28250000D02*
X67612500Y26912500D01*
D53*
X39475000Y26437500D02*
X39250000Y26212500D01*
X41280467Y3019533D02*
X41550000Y2750000D01*
X66750000Y5300000D02*
X66750000Y4886396D01*
D54*
X43500000Y17912500D02*
X43500000Y19162500D01*
X43500000Y7912500D02*
X43500000Y9800000D01*
X21724874Y26412374D02*
X21462500Y26150000D01*
X19042804Y14057196D02*
X19042804Y13447146D01*
D53*
X66750000Y15300000D02*
X66750000Y14636396D01*
X43525000Y21200000D02*
X43525000Y21975000D01*
D54*
X42500000Y10000000D02*
X42600000Y10000000D01*
D53*
X13931258Y20587374D02*
X12184874Y20587374D01*
X15184874Y22184874D02*
X14309874Y21309874D01*
D54*
X67612500Y8750000D02*
X67612500Y7412500D01*
X2750000Y11550000D02*
X3300000Y11550000D01*
D53*
X42900000Y11500000D02*
X43250000Y11500000D01*
D54*
X19608489Y14012831D02*
X19042804Y13447146D01*
X21724874Y28299874D02*
X20509874Y28299874D01*
X3300000Y11550000D02*
X4000000Y12250000D01*
X16800000Y4700000D02*
X16758749Y4741251D01*
X18991251Y4741251D02*
X16841251Y4741251D01*
X67612500Y17412500D02*
X67400000Y17200000D01*
D53*
X40750688Y20949312D02*
X40300000Y21400000D01*
D54*
X42500000Y19400000D02*
X39412962Y19400000D01*
X28906944Y11502602D02*
X28367299Y12042247D01*
X31000000Y3137500D02*
X28750000Y887500D01*
D55*
X32012374Y26549874D02*
X32000000Y26537500D01*
D54*
X16708497Y4741251D02*
X15974874Y5474874D01*
D55*
X37162500Y26549874D02*
X32012374Y26549874D01*
D53*
X67250000Y3250000D02*
X68250000Y3250000D01*
D54*
X10974874Y23224874D02*
X10974874Y21797374D01*
X43500000Y9800000D02*
X43700000Y10000000D01*
D53*
X67000000Y14386396D02*
X67000000Y13500000D01*
D54*
X67612500Y26912500D02*
X67400000Y26700000D01*
X17167374Y27404874D02*
X16434874Y28137374D01*
D53*
X40750688Y20949312D02*
X43274312Y20949312D01*
D54*
X28367299Y12042247D02*
X21579074Y12042247D01*
X36250000Y5025000D02*
X37212500Y5987500D01*
X21724874Y28299874D02*
X21724874Y26412374D01*
D53*
X6454874Y10731124D02*
X6454874Y8208624D01*
D55*
X26775000Y28100000D02*
X25762374Y27087374D01*
D53*
X66750000Y24136396D02*
X66950000Y23936396D01*
D54*
X32000000Y4137500D02*
X31112500Y3250000D01*
D53*
X67000000Y13500000D02*
X67250000Y13250000D01*
X67250000Y22750000D02*
X68250000Y22750000D01*
D54*
X36250000Y5000000D02*
X36250000Y5025000D01*
X32025000Y4275000D02*
X32000000Y4300000D01*
D53*
X66950000Y4686396D02*
X66950000Y3550000D01*
D54*
X67400000Y26700000D02*
X66800000Y26700000D01*
X32000000Y4300000D02*
X32000000Y4137500D01*
X43500000Y19162500D02*
X43837500Y19500000D01*
X42600000Y19500000D02*
X42500000Y19400000D01*
D53*
X15184874Y23374874D02*
X15184874Y22184874D01*
D54*
X25912500Y837500D02*
X25750000Y1000000D01*
X36225000Y5000000D02*
X36250000Y5000000D01*
D53*
X14309874Y20965990D02*
X13931258Y20587374D01*
D55*
X26800000Y28100000D02*
X26775000Y28100000D01*
D54*
X5000000Y8500000D02*
X4750000Y8750000D01*
X19614874Y27404874D02*
X17167374Y27404874D01*
D53*
X42687500Y26437500D02*
X39475000Y26437500D01*
D54*
X43837500Y19500000D02*
X42600000Y19500000D01*
X37212500Y5987500D02*
X37212500Y6500000D01*
D55*
X35800000Y27900000D02*
X33600000Y27900000D01*
D53*
X66950000Y23936396D02*
X66950000Y23050000D01*
D54*
X29016716Y11612374D02*
X28906944Y11502602D01*
D53*
X14309874Y21309874D02*
X14309874Y20965990D01*
D54*
X6227374Y8500000D02*
X5000000Y8500000D01*
X67400000Y17200000D02*
X66800000Y17200000D01*
D53*
X43500000Y27250000D02*
X42687500Y26437500D01*
D54*
X20509874Y28299874D02*
X19614874Y27404874D01*
X21579074Y12042247D02*
X19608490Y14012831D01*
D53*
X66750000Y14636396D02*
X67000000Y14386396D01*
D54*
X39412962Y19400000D02*
X39200000Y19612962D01*
X27050000Y887500D02*
X27000000Y837500D01*
X67612500Y18750000D02*
X67612500Y17412500D01*
X14184874Y28137374D02*
X16434874Y28137374D01*
D55*
X38912626Y26549874D02*
X39250000Y26212500D01*
D53*
X43525000Y21975000D02*
X43500000Y22000000D01*
X66750000Y4886396D02*
X66950000Y4686396D01*
D55*
X26800000Y28125000D02*
X26800000Y28100000D01*
D54*
X19608490Y14012831D02*
X19608489Y14012831D01*
D53*
X43250000Y11500000D02*
X43525000Y11775000D01*
D54*
X43700000Y10000000D02*
X42500000Y10000000D01*
X17400000Y15700000D02*
X19042804Y14057196D01*
X27000000Y837500D02*
X25912500Y837500D01*
X67400000Y7200000D02*
X66800000Y7200000D01*
D53*
X67250000Y13250000D02*
X68250000Y13250000D01*
X41550000Y2750000D02*
X42550000Y2750000D01*
X40200000Y21500000D02*
X40300000Y21400000D01*
X43525000Y12725000D02*
X43500000Y12750000D01*
%TO.N,+3.3V*%
X16184874Y18974874D02*
X16184874Y19974874D01*
X12137626Y18862374D02*
X10750000Y20250000D01*
D54*
X24799874Y28299874D02*
X25500000Y29000000D01*
X65850000Y28250000D02*
X65887500Y28250000D01*
X14612374Y11362374D02*
X16974874Y11362374D01*
D53*
X7650000Y3627817D02*
X9700000Y5677817D01*
D54*
X30181538Y14721740D02*
X30181538Y15818462D01*
X21462500Y24487500D02*
X21462500Y24250000D01*
D53*
X10762374Y11362374D02*
X16974874Y11362374D01*
D54*
X13474874Y5974874D02*
X13474874Y10224874D01*
D53*
X12184874Y18862374D02*
X12137626Y18862374D01*
D54*
X19042804Y11502602D02*
X17115102Y11502602D01*
X65650000Y18750000D02*
X65887500Y18750000D01*
X65887500Y17412500D02*
X66100000Y17200000D01*
X64800000Y19600000D02*
X65650000Y18750000D01*
X65887500Y8750000D02*
X65887500Y7412500D01*
X13474874Y10224874D02*
X14612374Y11362374D01*
X28906944Y13447146D02*
X30181538Y14721740D01*
X65000000Y29100000D02*
X65850000Y28250000D01*
D53*
X14709874Y19999874D02*
X14684874Y19974874D01*
D54*
X17115102Y11502602D02*
X16974874Y11362374D01*
X15502507Y15248546D02*
X16049874Y14701179D01*
X66100000Y26700000D02*
X66100000Y28037500D01*
D53*
X9700000Y5677817D02*
X9700000Y10300000D01*
X16184874Y19974874D02*
X16159874Y19999874D01*
D54*
X65887500Y7412500D02*
X66100000Y7200000D01*
X23799874Y26824874D02*
X21462500Y24487500D01*
X31224874Y13337374D02*
X29016716Y13337374D01*
X65450000Y8750000D02*
X65887500Y8750000D01*
X65887500Y18750000D02*
X65887500Y17412500D01*
X23799874Y28299874D02*
X23799874Y26824874D01*
D53*
X14709874Y19999874D02*
X13322374Y19999874D01*
X13322374Y19999874D02*
X12184874Y18862374D01*
D54*
X20356156Y3356156D02*
X16093592Y3356156D01*
X64800000Y9400000D02*
X65450000Y8750000D01*
D53*
X7650000Y3500000D02*
X7650000Y3627817D01*
D54*
X29016716Y13337374D02*
X28906944Y13447146D01*
D53*
X14684874Y19974874D02*
X14684874Y18974874D01*
X16159874Y19999874D02*
X14709874Y19999874D01*
D54*
X16093592Y3356156D02*
X13474874Y5974874D01*
X23799874Y28299874D02*
X24799874Y28299874D01*
X16049874Y14701179D02*
X16049874Y12287374D01*
X16049874Y12287374D02*
X16974874Y11362374D01*
X66100000Y28037500D02*
X65887500Y28250000D01*
D53*
X9700000Y10300000D02*
X10762374Y11362374D01*
%TO.N,/BRIDGE/OUT*%
X48337500Y23000000D02*
X48700000Y23362500D01*
D54*
X47250000Y26922272D02*
X47250000Y24812500D01*
X48527728Y28200000D02*
X47250000Y26922272D01*
X47250000Y24812500D02*
X48700000Y23362500D01*
X59555000Y24350000D02*
X58650000Y24350000D01*
X57130000Y27005000D02*
X55935000Y28200000D01*
X58650000Y24350000D02*
X57130000Y25870000D01*
X57130000Y25870000D02*
X57130000Y27005000D01*
D53*
X46900000Y23000000D02*
X48337500Y23000000D01*
D54*
X55935000Y28200000D02*
X48527728Y28200000D01*
D55*
%TO.N,+9V*%
X45500000Y12250000D02*
X45500000Y21500000D01*
D53*
X46000000Y2250000D02*
X46950000Y2250000D01*
D55*
X43807690Y28755635D02*
X43100000Y28755635D01*
X40310633Y500000D02*
X38805923Y2004710D01*
X39287500Y8037500D02*
X39500000Y8250000D01*
X45500000Y21500000D02*
X45500000Y27063325D01*
X42355635Y29500000D02*
X40462500Y29500000D01*
X45500000Y1750000D02*
X45500000Y12250000D01*
X37487626Y28287500D02*
X37250000Y28049874D01*
X45500000Y1750000D02*
X45303122Y1750000D01*
X38805923Y6018423D02*
X39287500Y6500000D01*
X38805923Y2004710D02*
X38805923Y6018423D01*
D53*
X45500000Y1750000D02*
X46000000Y2250000D01*
D55*
X44053122Y500000D02*
X40310633Y500000D01*
X45500000Y27063325D02*
X43807690Y28755635D01*
D53*
X46900000Y12250000D02*
X45500000Y12250000D01*
X46900000Y21500000D02*
X45500000Y21500000D01*
D55*
X43100000Y28755635D02*
X42355635Y29500000D01*
X39250000Y28287500D02*
X37487626Y28287500D01*
X39287500Y6500000D02*
X39287500Y8037500D01*
X45303122Y1750000D02*
X44053122Y500000D01*
X40462500Y29500000D02*
X39250000Y28287500D01*
D54*
%TO.N,+BATT*%
X37500000Y10500000D02*
X38500000Y9500000D01*
X28587500Y6162500D02*
X28750000Y6162500D01*
X37500000Y10537500D02*
X37500000Y10500000D01*
X27750000Y7000000D02*
X28587500Y6162500D01*
D55*
%TO.N,Net-(D2-A)*%
X31837374Y24299874D02*
X32000000Y24462500D01*
X36662626Y24462500D02*
X32000000Y24462500D01*
X30262374Y24299874D02*
X31837374Y24299874D01*
X37250000Y25049874D02*
X36662626Y24462500D01*
D54*
%TO.N,/BRIDGE1/OUT*%
X59505000Y15000000D02*
X55755000Y18750000D01*
X47750000Y15062500D02*
X48700000Y14112500D01*
X55755000Y18750000D02*
X48327728Y18750000D01*
D53*
X46900000Y13750000D02*
X48337500Y13750000D01*
X48337500Y13750000D02*
X48700000Y14112500D01*
D54*
X48327728Y18750000D02*
X47750000Y18172272D01*
X47750000Y18172272D02*
X47750000Y15062500D01*
%TO.N,/BRIDGE2/OUT*%
X48700000Y4050000D02*
X47825000Y4925000D01*
X48327728Y8450000D02*
X56005000Y8450000D01*
D53*
X46950000Y3750000D02*
X48475000Y3750000D01*
D54*
X56005000Y8450000D02*
X59555000Y4900000D01*
D53*
X48475000Y3750000D02*
X48700000Y3975000D01*
D54*
X47825000Y4925000D02*
X47825000Y7947272D01*
X47825000Y7947272D02*
X48327728Y8450000D01*
D53*
%TO.N,Net-(U4-Vboot)*%
X46900000Y22000000D02*
X48337500Y22000000D01*
X48337500Y22000000D02*
X48700000Y21637500D01*
D54*
%TO.N,+5V*%
X2750000Y8950000D02*
X4175000Y7525000D01*
X20234874Y20974874D02*
X19133620Y19873620D01*
X19133620Y19873620D02*
X19133620Y17633620D01*
D55*
X25762374Y25012374D02*
X27649874Y25012374D01*
D53*
X7724874Y10731124D02*
X7724874Y8208624D01*
D54*
X7952374Y8500000D02*
X7952374Y7747626D01*
D55*
X27112374Y23049874D02*
X28362374Y24299874D01*
X27649874Y25012374D02*
X28362374Y24299874D01*
X25762374Y25012374D02*
X23925126Y25012374D01*
D54*
X7952374Y7747626D02*
X8200000Y7500000D01*
D55*
X22309874Y23049874D02*
X27112374Y23049874D01*
D54*
X36500000Y22849874D02*
X29812374Y22849874D01*
X6977374Y7525000D02*
X7952374Y8500000D01*
X4175000Y7525000D02*
X6977374Y7525000D01*
D55*
X23925126Y25012374D02*
X23737500Y25200000D01*
X20234874Y20974874D02*
X22309874Y23049874D01*
D54*
X29812374Y22849874D02*
X28362374Y24299874D01*
D53*
%TO.N,/BRIDGE/I*%
X29265434Y7750000D02*
X27209888Y9805546D01*
X32000000Y7750000D02*
X32000000Y6025000D01*
X32000000Y7750000D02*
X29265434Y7750000D01*
%TO.N,/MCU/NRST*%
X26800000Y11292747D02*
X26455473Y10948220D01*
X21882534Y10948220D02*
X20739860Y9805546D01*
X26455473Y10948220D02*
X21882534Y10948220D01*
%TO.N,Net-(U6-VDDA)*%
X20458497Y8392811D02*
X20458497Y6208497D01*
X21305546Y9239860D02*
X20458497Y8392811D01*
X21593592Y5073402D02*
X20458497Y6208497D01*
X21593592Y4593592D02*
X21593592Y5073402D01*
%TO.N,Net-(U7-Vboot)*%
X46900000Y12750000D02*
X48337500Y12750000D01*
X48337500Y12750000D02*
X48700000Y12387500D01*
%TO.N,/BRIDGE1/I*%
X29584304Y8562500D02*
X32937500Y8562500D01*
X27775573Y10371231D02*
X29584304Y8562500D01*
X32937500Y8562500D02*
X33750000Y7750000D01*
X33750000Y7750000D02*
X33750000Y6025000D01*
%TO.N,Net-(U9-Vboot)*%
X48225000Y2475000D02*
X47950000Y2750000D01*
X47950000Y2750000D02*
X46950000Y2750000D01*
X48475000Y2475000D02*
X48700000Y2250000D01*
X48225000Y2475000D02*
X48475000Y2475000D01*
%TO.N,/BRIDGE2/I*%
X34662500Y5162500D02*
X31337500Y5162500D01*
X29200000Y7300000D02*
X28584062Y7300000D01*
X35500000Y7725000D02*
X35500000Y6000000D01*
X28584062Y7300000D02*
X26644202Y9239860D01*
X35500000Y6000000D02*
X34662500Y5162500D01*
X31337500Y5162500D02*
X29200000Y7300000D01*
D54*
%TO.N,Net-(Q1-G)*%
X49287500Y27500000D02*
X48700000Y26912500D01*
X55060000Y27500000D02*
X49287500Y27500000D01*
X56255000Y26305000D02*
X55060000Y27500000D01*
%TO.N,Net-(Q2-G)*%
X42000000Y28300000D02*
X42000000Y27250000D01*
X63025613Y28050500D02*
X63025613Y26734387D01*
X63025613Y26734387D02*
X63505000Y26255000D01*
%TO.N,Net-(Q3-G)*%
X55060000Y18050000D02*
X49087500Y18050000D01*
X56205000Y16905000D02*
X55060000Y18050000D01*
X49087500Y18050000D02*
X48700000Y17662500D01*
%TO.N,Net-(Q4-G)*%
X42000000Y17750000D02*
X42000000Y17912500D01*
X41250000Y17000000D02*
X42000000Y17750000D01*
X62778530Y17581470D02*
X63455000Y16905000D01*
X62778530Y19550500D02*
X62778530Y17581470D01*
%TO.N,Net-(Q5-G)*%
X56205000Y6755000D02*
X55210000Y7750000D01*
X49087500Y7750000D02*
X48750000Y7412500D01*
X55210000Y7750000D02*
X49087500Y7750000D01*
%TO.N,Net-(Q6-G)*%
X42750969Y7000000D02*
X42750969Y7161531D01*
X62159500Y9440312D02*
X62159500Y8150500D01*
X42750969Y7161531D02*
X42000000Y7912500D01*
X62159500Y8150500D02*
X63505000Y6805000D01*
D53*
%TO.N,Net-(U4-HO)*%
X49500000Y24287500D02*
X48700000Y25087500D01*
X46900000Y22500000D02*
X49170495Y22500000D01*
X49170495Y22500000D02*
X49500000Y22829505D01*
X49500000Y22829505D02*
X49500000Y24287500D01*
%TO.N,Net-(U4-LO)*%
X41475000Y21525000D02*
X41475000Y24900000D01*
X41475000Y24900000D02*
X42000000Y25425000D01*
X42500000Y21500000D02*
X41500000Y21500000D01*
X41500000Y21500000D02*
X41475000Y21525000D01*
D54*
%TO.N,/MCU/POWER_V*%
X28750000Y2612500D02*
X27050000Y2612500D01*
X26750000Y8002692D02*
X26078517Y8674175D01*
X26750000Y4750000D02*
X26750000Y8002692D01*
X27050000Y2612500D02*
X27000000Y2662500D01*
X28750000Y4337500D02*
X28750000Y2612500D01*
X27000000Y2662500D02*
X27000000Y4500000D01*
X27000000Y4500000D02*
X26750000Y4750000D01*
D53*
%TO.N,Net-(D1-RK)*%
X11000000Y3000000D02*
X9400000Y3000000D01*
X9400000Y3000000D02*
X8900000Y3500000D01*
%TO.N,Net-(D1-GK)*%
X11000000Y2200000D02*
X9600000Y2200000D01*
X9600000Y2200000D02*
X8900000Y1500000D01*
%TO.N,Net-(D1-BK)*%
X11000000Y1400000D02*
X10175000Y575000D01*
X8025000Y575000D02*
X7650000Y950000D01*
X7650000Y950000D02*
X7650000Y1500000D01*
X10175000Y575000D02*
X8025000Y575000D01*
%TO.N,Net-(D3-A)*%
X18134874Y20734874D02*
X17600000Y20200000D01*
X18134874Y20974874D02*
X18134874Y20734874D01*
%TO.N,/MCU/PB3*%
X22022272Y18022272D02*
X22550000Y18550000D01*
X22436917Y16841258D02*
X22022272Y17255903D01*
X22550000Y18550000D02*
X29662500Y18550000D01*
X29662500Y18550000D02*
X31512374Y20399874D01*
X22022272Y17255903D02*
X22022272Y18022272D01*
%TO.N,/MCU/PB4*%
X21456587Y18092983D02*
X22363604Y19000000D01*
X21871231Y16275573D02*
X21456587Y16690217D01*
X21456587Y16690217D02*
X21456587Y18092983D01*
X27612248Y19000000D02*
X27612374Y18999874D01*
X22363604Y19000000D02*
X27612248Y19000000D01*
X27612374Y18999874D02*
X29012374Y20399874D01*
%TO.N,/MCU/PB5*%
X21305546Y15709888D02*
X20890901Y16124533D01*
X20890901Y18163693D02*
X23127082Y20399874D01*
X20890901Y16124533D02*
X20890901Y18163693D01*
X23127082Y20399874D02*
X24012374Y20399874D01*
D54*
%TO.N,Net-(ENC1-Pin_2)*%
X27937374Y21824874D02*
X36225000Y21824874D01*
X36225000Y21824874D02*
X36500000Y21549874D01*
X27937374Y21824874D02*
X26512374Y20399874D01*
D53*
%TO.N,/CAN/CAN-H*%
X6454874Y14670769D02*
X6015229Y14231124D01*
X6454874Y16561124D02*
X6454874Y15681124D01*
X3887374Y14231124D02*
X2974874Y15143624D01*
X8224874Y18331124D02*
X6454874Y16561124D01*
X6454874Y15681124D02*
X6454874Y14670769D01*
X6015229Y14231124D02*
X3887374Y14231124D01*
%TO.N,Net-(J2-CC1)*%
X13684874Y21224874D02*
X13684874Y25812374D01*
X13684874Y25812374D02*
X14184874Y26312374D01*
%TO.N,/CAN/CAN-L*%
X9998123Y18331124D02*
X7724874Y16057875D01*
X7724874Y15304373D02*
X7724874Y15681124D01*
X7724874Y16057875D02*
X7724874Y15681124D01*
X6170501Y13750000D02*
X7724874Y15304373D01*
X3406250Y13750000D02*
X6170501Y13750000D01*
X10224874Y18331124D02*
X9998123Y18331124D01*
X2974874Y13318624D02*
X3406250Y13750000D01*
%TO.N,Net-(J2-CC2)*%
X16934874Y20980524D02*
X16934874Y25812374D01*
X16934874Y25812374D02*
X16434874Y26312374D01*
X16943349Y20972049D02*
X16934874Y20980524D01*
%TO.N,Net-(U5-+)*%
X66500000Y23750000D02*
X66100000Y24150000D01*
D54*
X56237500Y20500000D02*
X63200000Y20500000D01*
X63505000Y20805000D02*
X63505000Y22445000D01*
D53*
X66250000Y22750000D02*
X66500000Y23000000D01*
X66100000Y24150000D02*
X66100000Y24800000D01*
X65150000Y22750000D02*
X66250000Y22750000D01*
D54*
X63200000Y20500000D02*
X63505000Y20805000D01*
D53*
X66500000Y23000000D02*
X66500000Y23750000D01*
%TO.N,Net-(JP2-C)*%
X4000000Y10900000D02*
X3350000Y10250000D01*
X8994874Y15681124D02*
X8994874Y15304373D01*
X3350000Y10250000D02*
X2750000Y10250000D01*
X8994874Y15304373D02*
X6440501Y12750000D01*
X6440501Y12750000D02*
X5556999Y12750000D01*
X4000000Y11193001D02*
X4000000Y10900000D01*
X5556999Y12750000D02*
X4000000Y11193001D01*
%TO.N,Net-(U12-UD+)*%
X16184874Y23374874D02*
X16184874Y21224874D01*
%TO.N,Net-(U12-UD-)*%
X15385371Y21224874D02*
X15385371Y21309255D01*
X15684874Y21608758D02*
X15684874Y23374874D01*
X15385371Y21309255D02*
X15684874Y21608758D01*
%TO.N,/MCU/LED_R*%
X23624874Y4220710D02*
X23624874Y6036649D01*
X23002602Y6658921D02*
X23002602Y7542804D01*
X23624874Y6036649D02*
X23002602Y6658921D01*
X12800000Y1400000D02*
X20804164Y1400000D01*
X20804164Y1400000D02*
X23624874Y4220710D01*
%TO.N,/MCU/LED_G*%
X20652082Y1884314D02*
X15679290Y1884314D01*
X15363604Y2200000D02*
X12800000Y2200000D01*
X15679290Y1884314D02*
X15363604Y2200000D01*
X23174874Y5850253D02*
X23174874Y4407106D01*
X23174874Y4407106D02*
X20652082Y1884314D01*
X22436917Y8108490D02*
X22022272Y7693845D01*
X22022272Y7002855D02*
X23174874Y5850253D01*
X22022272Y7693845D02*
X22022272Y7002855D01*
%TO.N,/MCU/LED_B*%
X15200000Y3000000D02*
X12800000Y3000000D01*
X15865686Y2334314D02*
X15200000Y3000000D01*
X21456587Y8259531D02*
X21456587Y6932144D01*
X21871231Y8674175D02*
X21456587Y8259531D01*
X21456587Y6932144D02*
X22724874Y5663857D01*
X20465686Y2334314D02*
X15865686Y2334314D01*
X22724874Y4593502D02*
X20465686Y2334314D01*
X22724874Y5663857D02*
X22724874Y4593502D01*
%TO.N,Net-(U4-DT)*%
X42500000Y24425000D02*
X43500000Y25425000D01*
X42500000Y23500000D02*
X42500000Y24425000D01*
%TO.N,Net-(U8-+)*%
X66500000Y13500000D02*
X66500000Y14250000D01*
D54*
X56237500Y11100000D02*
X62800000Y11100000D01*
D53*
X66250000Y13250000D02*
X66500000Y13500000D01*
X66500000Y14250000D02*
X66100000Y14650000D01*
D54*
X62800000Y11100000D02*
X63455000Y11755000D01*
D53*
X65150000Y13250000D02*
X66250000Y13250000D01*
D54*
X63455000Y11755000D02*
X63455000Y13095000D01*
D53*
X66100000Y14650000D02*
X66100000Y15300000D01*
%TO.N,Net-(U7-DT)*%
X42500000Y15087500D02*
X43500000Y16087500D01*
X42500000Y14250000D02*
X42500000Y15087500D01*
%TO.N,Net-(U7-HO)*%
X49500000Y13500000D02*
X49500000Y15037500D01*
X46900000Y13250000D02*
X49250000Y13250000D01*
X49500000Y15037500D02*
X48700000Y15837500D01*
X49250000Y13250000D02*
X49500000Y13500000D01*
%TO.N,Net-(U7-LO)*%
X42500000Y12250000D02*
X41386396Y12250000D01*
X41386396Y12250000D02*
X41000000Y12636396D01*
X41000000Y15087500D02*
X42000000Y16087500D01*
X41000000Y12636396D02*
X41000000Y15087500D01*
D54*
%TO.N,Net-(U10-+)*%
X63100000Y1000000D02*
X63505000Y1405000D01*
X63505000Y1405000D02*
X63505000Y2995000D01*
D53*
X66250000Y3250000D02*
X66500000Y3500000D01*
X65150000Y3250000D02*
X66250000Y3250000D01*
D54*
X56237500Y1000000D02*
X63100000Y1000000D01*
D53*
X66500000Y3500000D02*
X66500000Y4500000D01*
X66100000Y4900000D02*
X66100000Y5300000D01*
X66500000Y4500000D02*
X66100000Y4900000D01*
%TO.N,Net-(U9-DT)*%
X42550000Y4250000D02*
X42550000Y5137500D01*
X42550000Y5137500D02*
X43500000Y6087500D01*
%TO.N,Net-(U9-HO)*%
X46950000Y3250000D02*
X48092005Y3250000D01*
X49500000Y3345000D02*
X49500000Y4837500D01*
X48229505Y3112500D02*
X49267500Y3112500D01*
X49267500Y3112500D02*
X49500000Y3345000D01*
X48092005Y3250000D02*
X48229505Y3112500D01*
X49500000Y4837500D02*
X48750000Y5587500D01*
%TO.N,Net-(U9-LO)*%
X41000151Y2250000D02*
X40530923Y2719228D01*
X40530923Y4618423D02*
X42000000Y6087500D01*
X42550000Y2250000D02*
X41000151Y2250000D01*
X40530923Y2719228D02*
X40530923Y4618423D01*
%TO.N,/MCU/SWCLK*%
X24318556Y17406944D02*
X24947146Y17406944D01*
X24000000Y17725500D02*
X24318556Y17406944D01*
%TO.N,/MCU/SWDIO*%
X26200000Y17528427D02*
X25512831Y16841258D01*
X26200000Y17925500D02*
X26200000Y17528427D01*
%TO.N,/BRIDGE/EN*%
X43500000Y13750000D02*
X42500000Y13750000D01*
X42550000Y3750000D02*
X43550000Y3750000D01*
X31467767Y10522272D02*
X28755903Y10522272D01*
X37518361Y14208847D02*
X34708847Y14208847D01*
X40750000Y10977208D02*
X37518361Y14208847D01*
X42500000Y23000000D02*
X43900000Y23000000D01*
X44675000Y2288604D02*
X43711396Y1325000D01*
X44675000Y5000000D02*
X44675000Y2288604D01*
X44675000Y4875000D02*
X44675000Y5000000D01*
X44600000Y15000000D02*
X44675000Y14925000D01*
X43900000Y23000000D02*
X44600000Y22300000D01*
X43711396Y1325000D02*
X40652359Y1325000D01*
X39630923Y2346436D02*
X39630923Y5017319D01*
X44600000Y22300000D02*
X44600000Y15000000D01*
X40750000Y6136396D02*
X40750000Y10977208D01*
X44675000Y13075000D02*
X44675000Y10582995D01*
X32250000Y11304505D02*
X31467767Y10522272D01*
X43550000Y3750000D02*
X44675000Y4875000D01*
X34708847Y14208847D02*
X32250000Y11750000D01*
X44562500Y10470495D02*
X44562500Y5112500D01*
X44675000Y14925000D02*
X43500000Y13750000D01*
X44000000Y13750000D02*
X44675000Y13075000D01*
X28755903Y10522272D02*
X28341258Y10936917D01*
X43500000Y13750000D02*
X44000000Y13750000D01*
X32250000Y11750000D02*
X32250000Y11304505D01*
X40652359Y1325000D02*
X39630923Y2346436D01*
X44562500Y5112500D02*
X44675000Y5000000D01*
X39630923Y5017319D02*
X40750000Y6136396D01*
X44675000Y10582995D02*
X44562500Y10470495D01*
%TO.N,/BRIDGE/PWM*%
X36000000Y17500000D02*
X38837462Y20337462D01*
X43975000Y22161396D02*
X43636396Y22500000D01*
X43636396Y22500000D02*
X42500000Y22500000D01*
X29565686Y17500000D02*
X36000000Y17500000D01*
X27209888Y15144202D02*
X29565686Y17500000D01*
X38837462Y20337462D02*
X43298858Y20337462D01*
X43975000Y21013604D02*
X43975000Y22161396D01*
X43298858Y20337462D02*
X43975000Y21013604D01*
%TO.N,Net-(U6-PF0)*%
X17125610Y9572666D02*
X18244239Y9572666D01*
X18244239Y9572666D02*
X19608490Y10936917D01*
X16376346Y8823402D02*
X17125610Y9572666D01*
%TO.N,Net-(U6-PF1)*%
X18822666Y9019722D02*
X20174175Y10371231D01*
X18822666Y7875610D02*
X18822666Y9019722D01*
X18073402Y7126346D02*
X18822666Y7875610D01*
%TO.N,/BRIDGE2/PWM*%
X44000000Y2800000D02*
X44000000Y2250000D01*
X40080923Y2532832D02*
X40080923Y4830923D01*
X28755903Y14427476D02*
X28341258Y14012831D01*
X40080923Y4830923D02*
X41200000Y5950000D01*
X41200000Y11163604D02*
X35763604Y16600000D01*
X40838755Y1775000D02*
X40080923Y2532832D01*
X28755903Y15417425D02*
X28755903Y14427476D01*
X35763604Y16600000D02*
X29938478Y16600000D01*
X42550000Y3250000D02*
X43550000Y3250000D01*
X44000000Y2250000D02*
X43525000Y1775000D01*
X43550000Y3250000D02*
X44000000Y2800000D01*
X43525000Y1775000D02*
X40838755Y1775000D01*
X29938478Y16600000D02*
X28755903Y15417425D01*
X41200000Y5950000D02*
X41200000Y11163604D01*
%TO.N,/BRIDGE1/PWM*%
X27775573Y14578517D02*
X28250000Y15052944D01*
X29752082Y17050000D02*
X35950000Y17050000D01*
X43636396Y13250000D02*
X42500000Y13250000D01*
X28250000Y15052944D02*
X28250000Y15547918D01*
X43200305Y10775000D02*
X43225305Y10800000D01*
X43712903Y10800000D02*
X44225000Y11312097D01*
X28250000Y15547918D02*
X29752082Y17050000D01*
X42225000Y10775000D02*
X43200305Y10775000D01*
X44225000Y12661396D02*
X43636396Y13250000D01*
X43225305Y10800000D02*
X43712903Y10800000D01*
X44225000Y11312097D02*
X44225000Y12661396D01*
X35950000Y17050000D02*
X42225000Y10775000D01*
%TO.N,/CAN/CAN_RX*%
X14150000Y15125500D02*
X14150000Y13513604D01*
X8994874Y11744874D02*
X8994874Y10731124D01*
X14724500Y15700000D02*
X14150000Y15125500D01*
X26229557Y15295243D02*
X26644202Y15709888D01*
X23166472Y15812305D02*
X23683534Y15295243D01*
X23683534Y15295243D02*
X26229557Y15295243D01*
X13142520Y12506124D02*
X9756124Y12506124D01*
X9756124Y12506124D02*
X8994874Y11744874D01*
X14150000Y13513604D02*
X13142520Y12506124D01*
%TO.N,/CAN/CAN_TX*%
X5788500Y12250000D02*
X5184874Y11646374D01*
X12956124Y12956124D02*
X9569728Y12956124D01*
X9569728Y12956124D02*
X8863604Y12250000D01*
X14000000Y16200000D02*
X13700000Y15900000D01*
X13700000Y15900000D02*
X13700000Y13700000D01*
X5184874Y11646374D02*
X5184874Y10731124D01*
X24824532Y15860928D02*
X25663872Y15860928D01*
X23800000Y16300000D02*
X24385460Y16300000D01*
X13700000Y13700000D02*
X12956124Y12956124D01*
X25663872Y15860928D02*
X26078517Y16275573D01*
X8863604Y12250000D02*
X5788500Y12250000D01*
X24385460Y16300000D02*
X24824532Y15860928D01*
%TO.N,/MCU/UART_TX*%
X15684874Y18974874D02*
X15659874Y18949874D01*
X15659874Y18136270D02*
X16046144Y17750000D01*
X15659874Y18949874D02*
X15659874Y18136270D01*
X16046144Y17750000D02*
X18134062Y17750000D01*
X18134062Y17750000D02*
X20739860Y15144202D01*
%TO.N,/MCU/UART_RX*%
X15859748Y17300000D02*
X17452692Y17300000D01*
X17452692Y17300000D02*
X20174175Y14578517D01*
X15184874Y18974874D02*
X15184874Y17974874D01*
X15184874Y17974874D02*
X15859748Y17300000D01*
D54*
%TO.N,Net-(R7-Pad1)*%
X67400000Y25575000D02*
X67400000Y24800000D01*
X67225000Y25750000D02*
X67400000Y25575000D01*
X34050500Y12000000D02*
X34050500Y11625500D01*
X63881728Y27493272D02*
X65625000Y25750000D01*
X34050500Y11625500D02*
X32000000Y9575000D01*
X65625000Y25750000D02*
X67225000Y25750000D01*
X63881728Y28750500D02*
X63881728Y27493272D01*
%TO.N,Net-(R12-Pad1)*%
X63950000Y17925000D02*
X65800000Y16075000D01*
X63800497Y19600000D02*
X63950000Y19450497D01*
X67400000Y16075000D02*
X67400000Y15300000D01*
X34800000Y10625000D02*
X33750000Y9575000D01*
X65800000Y16075000D02*
X67400000Y16075000D01*
X63950000Y19450497D02*
X63950000Y17925000D01*
X34850003Y12000000D02*
X34800000Y11949997D01*
X34800000Y11949997D02*
X34800000Y10625000D01*
%TO.N,Net-(R17-Pad1)*%
X65750000Y6250000D02*
X67275000Y6250000D01*
X67400000Y6125000D02*
X67400000Y5300000D01*
X35649007Y12028225D02*
X35600003Y11979221D01*
X35500000Y11589336D02*
X35500000Y9550000D01*
X35600003Y11979221D02*
X35600003Y11689339D01*
X63300000Y8700000D02*
X65750000Y6250000D01*
X35600003Y11689339D02*
X35500000Y11589336D01*
X63300000Y9400000D02*
X63300000Y8700000D01*
X67275000Y6250000D02*
X67400000Y6125000D01*
%TD*%
%TA.AperFunction,Conductor*%
%TO.N,Net-(U5-+)*%
G36*
X62783731Y25593654D02*
G01*
X62818882Y25575267D01*
X62830564Y25566522D01*
X62830567Y25566520D01*
X62837669Y25561204D01*
X62972517Y25510909D01*
X63032127Y25504500D01*
X63417812Y25504501D01*
X63428624Y25504029D01*
X63432066Y25503728D01*
X63439145Y25502266D01*
X63514148Y25504450D01*
X63517756Y25504501D01*
X63974561Y25504501D01*
X63977872Y25504501D01*
X64037483Y25510909D01*
X64172331Y25561204D01*
X64179435Y25566522D01*
X64191118Y25575267D01*
X64226269Y25593654D01*
X64265428Y25600000D01*
X64648638Y25600000D01*
X64696091Y25590561D01*
X64736319Y25563681D01*
X65163681Y25136319D01*
X65190561Y25096091D01*
X65200000Y25048638D01*
X65200000Y24200000D01*
X65208638Y24191362D01*
X65763681Y23636319D01*
X65790561Y23596091D01*
X65800000Y23548638D01*
X65800000Y21851362D01*
X65790561Y21803909D01*
X65763681Y21763681D01*
X65036319Y21036319D01*
X64996091Y21009439D01*
X64948638Y21000000D01*
X62724000Y21000000D01*
X62662000Y21016613D01*
X62616613Y21062000D01*
X62600000Y21124000D01*
X62600000Y25476000D01*
X62616613Y25538000D01*
X62662000Y25583387D01*
X62724000Y25600000D01*
X62744572Y25600000D01*
X62783731Y25593654D01*
G37*
%TD.AperFunction*%
%TD*%
%TA.AperFunction,Conductor*%
%TO.N,+BATT*%
G36*
X54838000Y6982887D02*
G01*
X54883387Y6937500D01*
X54900000Y6875500D01*
X54900000Y124000D01*
X54883387Y62000D01*
X54838000Y16613D01*
X54776000Y0D01*
X51851362Y0D01*
X51803909Y9439D01*
X51763681Y36319D01*
X49936319Y1863681D01*
X49909439Y1903909D01*
X49900000Y1951362D01*
X49900000Y2808121D01*
X49908706Y2853765D01*
X49933601Y2892998D01*
X49947967Y2908296D01*
X49950549Y2910961D01*
X49970120Y2930530D01*
X49972565Y2933684D01*
X49980155Y2942572D01*
X50010062Y2974418D01*
X50019709Y2991968D01*
X50030393Y3008234D01*
X50042674Y3024064D01*
X50060018Y3064149D01*
X50065160Y3074644D01*
X50086197Y3112908D01*
X50091179Y3132311D01*
X50097480Y3150717D01*
X50105438Y3169105D01*
X50112269Y3212244D01*
X50114639Y3223685D01*
X50123560Y3258426D01*
X50123559Y3258426D01*
X50125500Y3265981D01*
X50125500Y3286017D01*
X50127025Y3305403D01*
X50130160Y3325196D01*
X50126050Y3368676D01*
X50125500Y3380345D01*
X50125500Y4759728D01*
X50126020Y4770781D01*
X50127672Y4778167D01*
X50125561Y4845355D01*
X50125500Y4849249D01*
X50125500Y4872955D01*
X50125500Y4876850D01*
X50124998Y4880819D01*
X50124080Y4892476D01*
X50122954Y4928327D01*
X50122709Y4936127D01*
X50117120Y4955360D01*
X50113174Y4974417D01*
X50111641Y4986556D01*
X50110664Y4994292D01*
X50094582Y5034909D01*
X50090803Y5045949D01*
X50080795Y5080398D01*
X50080793Y5080401D01*
X50078618Y5087890D01*
X50074647Y5094604D01*
X50074645Y5094609D01*
X50068421Y5105132D01*
X50059858Y5122610D01*
X50052486Y5141232D01*
X50047902Y5147541D01*
X50047899Y5147547D01*
X50026817Y5176563D01*
X50020401Y5186330D01*
X50002143Y5217204D01*
X50002140Y5217208D01*
X49998170Y5223921D01*
X49984006Y5238085D01*
X49971368Y5252882D01*
X49964184Y5262771D01*
X49964178Y5262777D01*
X49959594Y5269087D01*
X49944960Y5281194D01*
X49911802Y5323940D01*
X49900000Y5376737D01*
X49900000Y6875500D01*
X49916613Y6937500D01*
X49962000Y6982887D01*
X50024000Y6999500D01*
X54776000Y6999500D01*
X54838000Y6982887D01*
G37*
%TD.AperFunction*%
%TD*%
%TA.AperFunction,Conductor*%
%TO.N,Net-(U8-+)*%
G36*
X64696091Y16090561D02*
G01*
X64736319Y16063681D01*
X65163681Y15636319D01*
X65190561Y15596091D01*
X65200000Y15548638D01*
X65200000Y14700000D01*
X65208638Y14691363D01*
X65208638Y14691362D01*
X65763681Y14136319D01*
X65790561Y14096091D01*
X65800000Y14048638D01*
X65800000Y12351362D01*
X65790561Y12303909D01*
X65763681Y12263681D01*
X65036319Y11536319D01*
X64996091Y11509439D01*
X64948638Y11500000D01*
X62724000Y11500000D01*
X62662000Y11516613D01*
X62616613Y11562000D01*
X62600000Y11624000D01*
X62600000Y15976000D01*
X62616613Y16038000D01*
X62662000Y16083387D01*
X62724000Y16100000D01*
X64648638Y16100000D01*
X64696091Y16090561D01*
G37*
%TD.AperFunction*%
%TD*%
%TA.AperFunction,Conductor*%
%TO.N,/BRIDGE/OUT*%
G36*
X61938000Y26983387D02*
G01*
X61983387Y26938000D01*
X62000000Y26876000D01*
X62000000Y21874000D01*
X61983387Y21812000D01*
X61938000Y21766613D01*
X61876000Y21750000D01*
X55624000Y21750000D01*
X55562000Y21766613D01*
X55516613Y21812000D01*
X55500000Y21874000D01*
X55500000Y25376000D01*
X55516613Y25438000D01*
X55562000Y25483387D01*
X55624000Y25500000D01*
X56737789Y25500000D01*
X56750000Y25500000D01*
X56805773Y25555774D01*
X56850112Y25584269D01*
X56922331Y25611204D01*
X57037546Y25697454D01*
X57123796Y25812669D01*
X57150731Y25884888D01*
X57179228Y25929229D01*
X57250000Y26000000D01*
X57250000Y26876000D01*
X57266613Y26938000D01*
X57312000Y26983387D01*
X57374000Y27000000D01*
X61876000Y27000000D01*
X61938000Y26983387D01*
G37*
%TD.AperFunction*%
%TD*%
%TA.AperFunction,Conductor*%
%TO.N,/BRIDGE1/OUT*%
G36*
X61938000Y17483387D02*
G01*
X61983387Y17438000D01*
X62000000Y17376000D01*
X62000000Y12374000D01*
X61983387Y12312000D01*
X61938000Y12266613D01*
X61876000Y12250000D01*
X56940887Y12250000D01*
X56894490Y12260286D01*
X56894334Y12259814D01*
X56889719Y12261344D01*
X56889712Y12261346D01*
X56887482Y12262085D01*
X56887479Y12262086D01*
X56734225Y12312869D01*
X56734224Y12312870D01*
X56727797Y12314999D01*
X56721064Y12315687D01*
X56721059Y12315688D01*
X56628140Y12325181D01*
X56628123Y12325182D01*
X56625009Y12325500D01*
X56621860Y12325500D01*
X55853141Y12325500D01*
X55853121Y12325500D01*
X55849992Y12325499D01*
X55846860Y12325180D01*
X55846858Y12325179D01*
X55753938Y12315688D01*
X55753928Y12315687D01*
X55747203Y12314999D01*
X55740781Y12312872D01*
X55740776Y12312870D01*
X55663004Y12287098D01*
X55605137Y12282247D01*
X55551407Y12304274D01*
X55513597Y12348348D01*
X55500000Y12404804D01*
X55500000Y15876000D01*
X55516613Y15938000D01*
X55562000Y15983387D01*
X55624000Y16000000D01*
X56737789Y16000000D01*
X56750000Y16000000D01*
X57250000Y16500000D01*
X57250000Y17376000D01*
X57266613Y17438000D01*
X57312000Y17483387D01*
X57374000Y17500000D01*
X61876000Y17500000D01*
X61938000Y17483387D01*
G37*
%TD.AperFunction*%
%TD*%
%TA.AperFunction,Conductor*%
%TO.N,+BATT*%
G36*
X54745223Y26740061D02*
G01*
X54785451Y26713181D01*
X54963681Y26534951D01*
X54990561Y26494723D01*
X55000000Y26447270D01*
X55000000Y19724000D01*
X54983387Y19662000D01*
X54938000Y19616613D01*
X54876000Y19600000D01*
X51951362Y19600000D01*
X51903909Y19609439D01*
X51863681Y19636319D01*
X50036319Y21463681D01*
X50009439Y21503909D01*
X50000000Y21551362D01*
X50000000Y22408783D01*
X50015329Y22468504D01*
X50015889Y22469524D01*
X50019710Y22476476D01*
X50030390Y22492735D01*
X50042673Y22508569D01*
X50060018Y22548653D01*
X50065151Y22559134D01*
X50086197Y22597413D01*
X50091179Y22616821D01*
X50097482Y22635229D01*
X50105437Y22653609D01*
X50112271Y22696761D01*
X50114633Y22708167D01*
X50125500Y22750486D01*
X50125500Y22770522D01*
X50127027Y22789920D01*
X50128939Y22801992D01*
X50128938Y22801992D01*
X50130160Y22809701D01*
X50126050Y22853181D01*
X50125500Y22864850D01*
X50125500Y24209725D01*
X50126021Y24220781D01*
X50127673Y24228167D01*
X50125561Y24295373D01*
X50125500Y24299268D01*
X50125500Y24322959D01*
X50125500Y24326850D01*
X50124998Y24330823D01*
X50124080Y24342482D01*
X50122954Y24378327D01*
X50122709Y24386127D01*
X50117120Y24405360D01*
X50113174Y24424417D01*
X50111641Y24436556D01*
X50110664Y24444292D01*
X50094582Y24484909D01*
X50090803Y24495949D01*
X50080795Y24530398D01*
X50080793Y24530401D01*
X50078618Y24537890D01*
X50068417Y24555140D01*
X50059863Y24572599D01*
X50052486Y24591232D01*
X50026804Y24626580D01*
X50020396Y24636337D01*
X50017266Y24641630D01*
X50000000Y24704747D01*
X50000000Y26625500D01*
X50016613Y26687500D01*
X50062000Y26732887D01*
X50124000Y26749500D01*
X54697770Y26749500D01*
X54745223Y26740061D01*
G37*
%TD.AperFunction*%
%TD*%
%TA.AperFunction,Conductor*%
%TO.N,/BRIDGE2/OUT*%
G36*
X61744723Y7490561D02*
G01*
X61784951Y7463681D01*
X61963681Y7284951D01*
X61990561Y7244723D01*
X62000000Y7197270D01*
X62000000Y1874500D01*
X61983387Y1812500D01*
X61938000Y1767113D01*
X61876000Y1750500D01*
X57356058Y1750500D01*
X57295626Y1766223D01*
X57250519Y1809403D01*
X57248609Y1812500D01*
X57167712Y1943656D01*
X57043656Y2067712D01*
X57037515Y2071500D01*
X57037511Y2071503D01*
X56900479Y2156024D01*
X56900477Y2156025D01*
X56894334Y2159814D01*
X56887481Y2162085D01*
X56834511Y2179638D01*
X56806514Y2193486D01*
X56800000Y2200000D01*
X56788400Y2200447D01*
X56788392Y2200448D01*
X56787074Y2200498D01*
X56752851Y2206699D01*
X56734228Y2212870D01*
X56734210Y2212874D01*
X56727797Y2214999D01*
X56721067Y2215687D01*
X56721065Y2215687D01*
X56628140Y2225181D01*
X56628123Y2225182D01*
X56625009Y2225500D01*
X56621860Y2225500D01*
X56139390Y2225500D01*
X56134624Y2225592D01*
X55676499Y2243212D01*
X55619233Y2245415D01*
X55559269Y2263559D01*
X55515827Y2308703D01*
X55500000Y2369322D01*
X55500000Y5876000D01*
X55516613Y5938000D01*
X55562000Y5983387D01*
X55624000Y6000000D01*
X56737789Y6000000D01*
X56750000Y6000000D01*
X56758639Y6008640D01*
X56768789Y6015421D01*
X56769390Y6014522D01*
X56800110Y6034268D01*
X56872331Y6061204D01*
X56987546Y6147454D01*
X57073796Y6262669D01*
X57100731Y6334888D01*
X57129225Y6379226D01*
X57250000Y6500000D01*
X57250000Y7376000D01*
X57266613Y7438000D01*
X57312000Y7483387D01*
X57374000Y7500000D01*
X61697270Y7500000D01*
X61744723Y7490561D01*
G37*
%TD.AperFunction*%
%TD*%
%TA.AperFunction,Conductor*%
%TO.N,Net-(U10-+)*%
G36*
X62888669Y6092183D02*
G01*
X62972517Y6060909D01*
X63032127Y6054500D01*
X63417822Y6054501D01*
X63428634Y6054029D01*
X63432066Y6053729D01*
X63439144Y6052267D01*
X63514128Y6054450D01*
X63517735Y6054501D01*
X63974561Y6054501D01*
X63977872Y6054501D01*
X64037483Y6060909D01*
X64121330Y6092183D01*
X64164663Y6100000D01*
X64648638Y6100000D01*
X64696091Y6090561D01*
X64736319Y6063681D01*
X65163681Y5636319D01*
X65190561Y5596091D01*
X65200000Y5548638D01*
X65200000Y4700000D01*
X65208637Y4691363D01*
X65208638Y4691362D01*
X65763681Y4136319D01*
X65790561Y4096091D01*
X65800000Y4048638D01*
X65800000Y2351362D01*
X65790561Y2303909D01*
X65763681Y2263681D01*
X65036319Y1536319D01*
X64996091Y1509439D01*
X64948638Y1500000D01*
X62724000Y1500000D01*
X62662000Y1516613D01*
X62616613Y1562000D01*
X62600000Y1624000D01*
X62600000Y5976000D01*
X62616613Y6038000D01*
X62662000Y6083387D01*
X62724000Y6100000D01*
X62845337Y6100000D01*
X62888669Y6092183D01*
G37*
%TD.AperFunction*%
%TD*%
%TA.AperFunction,Conductor*%
%TO.N,+BATT*%
G36*
X54745223Y17290061D02*
G01*
X54785451Y17263181D01*
X54963681Y17084951D01*
X54990561Y17044723D01*
X55000000Y16997270D01*
X55000000Y10224000D01*
X54983387Y10162000D01*
X54938000Y10116613D01*
X54876000Y10100000D01*
X51951362Y10100000D01*
X51903909Y10109439D01*
X51863681Y10136319D01*
X50036319Y11963681D01*
X50009439Y12003909D01*
X50000000Y12051362D01*
X50000000Y13079278D01*
X50015329Y13138999D01*
X50015889Y13140019D01*
X50019710Y13146971D01*
X50030390Y13163230D01*
X50042673Y13179064D01*
X50060018Y13219148D01*
X50065151Y13229629D01*
X50086197Y13267908D01*
X50091179Y13287316D01*
X50097482Y13305724D01*
X50105437Y13324104D01*
X50112271Y13367256D01*
X50114633Y13378662D01*
X50125500Y13420981D01*
X50125500Y13441017D01*
X50127027Y13460415D01*
X50128939Y13472487D01*
X50128938Y13472487D01*
X50130160Y13480196D01*
X50126050Y13523676D01*
X50125500Y13535345D01*
X50125500Y14959725D01*
X50126021Y14970781D01*
X50127673Y14978167D01*
X50125561Y15045373D01*
X50125500Y15049268D01*
X50125500Y15072959D01*
X50125500Y15076850D01*
X50124998Y15080823D01*
X50124080Y15092482D01*
X50122954Y15128327D01*
X50122709Y15136127D01*
X50117120Y15155360D01*
X50113174Y15174417D01*
X50111641Y15186556D01*
X50110664Y15194292D01*
X50094582Y15234909D01*
X50090803Y15245949D01*
X50080795Y15280398D01*
X50080793Y15280401D01*
X50078618Y15287890D01*
X50068417Y15305140D01*
X50059863Y15322599D01*
X50052486Y15341232D01*
X50026804Y15376580D01*
X50020396Y15386337D01*
X50017266Y15391630D01*
X50000000Y15454747D01*
X50000000Y17175500D01*
X50016613Y17237500D01*
X50062000Y17282887D01*
X50124000Y17299500D01*
X54697770Y17299500D01*
X54745223Y17290061D01*
G37*
%TD.AperFunction*%
%TD*%
%TA.AperFunction,Conductor*%
%TO.N,GND*%
G36*
X74496781Y29999501D02*
G01*
X74503224Y29999332D01*
X74633379Y29992510D01*
X74813908Y29982372D01*
X74826309Y29981045D01*
X74974990Y29957496D01*
X74976245Y29957291D01*
X75135324Y29930262D01*
X75146606Y29927798D01*
X75295635Y29887866D01*
X75297761Y29887275D01*
X75449174Y29843653D01*
X75459260Y29840271D01*
X75604710Y29784438D01*
X75607599Y29783286D01*
X75751768Y29723570D01*
X75760589Y29719503D01*
X75769082Y29715175D01*
X75900064Y29648435D01*
X75903748Y29646479D01*
X75972945Y29608236D01*
X76039548Y29571426D01*
X76047061Y29566919D01*
X76178754Y29481396D01*
X76182947Y29478548D01*
X76309147Y29389004D01*
X76315426Y29384243D01*
X76434226Y29288040D01*
X76437567Y29285335D01*
X76442154Y29281433D01*
X76539503Y29194436D01*
X76557424Y29178421D01*
X76562478Y29173642D01*
X76673640Y29062480D01*
X76678419Y29057426D01*
X76781427Y28942160D01*
X76785333Y28937569D01*
X76884239Y28815430D01*
X76889002Y28809149D01*
X76978546Y28682949D01*
X76981409Y28678734D01*
X77066907Y28547079D01*
X77071430Y28539540D01*
X77146477Y28403750D01*
X77148433Y28400066D01*
X77219498Y28260596D01*
X77223575Y28251753D01*
X77283259Y28107663D01*
X77284462Y28104647D01*
X77340265Y27959273D01*
X77343655Y27949164D01*
X77387258Y27797815D01*
X77387879Y27795581D01*
X77427791Y27646630D01*
X77430264Y27635306D01*
X77457282Y27476285D01*
X77457507Y27474913D01*
X77481040Y27326334D01*
X77482372Y27313889D01*
X77492498Y27133579D01*
X77492523Y27133116D01*
X77499333Y27003171D01*
X77499503Y26996811D01*
X77500000Y26522791D01*
X77500000Y22122311D01*
X77484882Y22062976D01*
X77443215Y22018109D01*
X77385159Y21998650D01*
X77324869Y22009344D01*
X77277047Y22047583D01*
X77269440Y22057656D01*
X77269437Y22057659D01*
X77265981Y22062236D01*
X77261744Y22066099D01*
X77261740Y22066103D01*
X77105796Y22208264D01*
X77105797Y22208264D01*
X77101562Y22212124D01*
X77096692Y22215139D01*
X77096690Y22215141D01*
X76917275Y22326229D01*
X76917276Y22326229D01*
X76912401Y22329247D01*
X76704940Y22409618D01*
X76699302Y22410672D01*
X76491872Y22449448D01*
X76491869Y22449449D01*
X76486243Y22450500D01*
X76263757Y22450500D01*
X76258131Y22449449D01*
X76258127Y22449448D01*
X76050697Y22410672D01*
X76050694Y22410672D01*
X76045060Y22409618D01*
X76039717Y22407549D01*
X76039713Y22407547D01*
X75842941Y22331317D01*
X75842936Y22331315D01*
X75837599Y22329247D01*
X75832727Y22326231D01*
X75832724Y22326229D01*
X75653309Y22215141D01*
X75653301Y22215136D01*
X75648438Y22212124D01*
X75644207Y22208268D01*
X75644203Y22208264D01*
X75488259Y22066103D01*
X75488249Y22066093D01*
X75484019Y22062236D01*
X75480570Y22057670D01*
X75480561Y22057659D01*
X75353394Y21889262D01*
X75353387Y21889252D01*
X75349942Y21884689D01*
X75347392Y21879569D01*
X75347387Y21879560D01*
X75253325Y21690659D01*
X75253321Y21690651D01*
X75250771Y21685528D01*
X75249205Y21680025D01*
X75249201Y21680014D01*
X75191454Y21477051D01*
X75189885Y21471536D01*
X75189356Y21465831D01*
X75189356Y21465829D01*
X75178431Y21347923D01*
X75169357Y21250000D01*
X75169886Y21244291D01*
X75186971Y21059906D01*
X75189885Y21028464D01*
X75191454Y21022950D01*
X75249201Y20819987D01*
X75249204Y20819979D01*
X75250771Y20814472D01*
X75253323Y20809347D01*
X75253325Y20809342D01*
X75347387Y20620441D01*
X75347389Y20620437D01*
X75349942Y20615311D01*
X75353391Y20610744D01*
X75353394Y20610739D01*
X75480561Y20442342D01*
X75480566Y20442337D01*
X75484019Y20437764D01*
X75488255Y20433903D01*
X75488259Y20433898D01*
X75580303Y20349989D01*
X75648438Y20287876D01*
X75837599Y20170753D01*
X76045060Y20090382D01*
X76263757Y20049500D01*
X76480514Y20049500D01*
X76486243Y20049500D01*
X76704940Y20090382D01*
X76912401Y20170753D01*
X77101562Y20287876D01*
X77265981Y20437764D01*
X77272528Y20446435D01*
X77277047Y20452417D01*
X77324869Y20490656D01*
X77385159Y20501350D01*
X77443215Y20481891D01*
X77484882Y20437024D01*
X77500000Y20377689D01*
X77500000Y9122311D01*
X77484882Y9062976D01*
X77443215Y9018109D01*
X77385159Y8998650D01*
X77324869Y9009344D01*
X77277047Y9047583D01*
X77269440Y9057656D01*
X77269437Y9057659D01*
X77265981Y9062236D01*
X77261744Y9066099D01*
X77261740Y9066103D01*
X77116137Y9198837D01*
X77101562Y9212124D01*
X77096692Y9215139D01*
X77096690Y9215141D01*
X76918241Y9325631D01*
X76912401Y9329247D01*
X76760631Y9388043D01*
X76710286Y9407547D01*
X76710285Y9407548D01*
X76704940Y9409618D01*
X76699302Y9410672D01*
X76491872Y9449448D01*
X76491869Y9449449D01*
X76486243Y9450500D01*
X76263757Y9450500D01*
X76258131Y9449449D01*
X76258127Y9449448D01*
X76050697Y9410672D01*
X76050694Y9410672D01*
X76045060Y9409618D01*
X76039717Y9407549D01*
X76039713Y9407547D01*
X75842941Y9331317D01*
X75842936Y9331315D01*
X75837599Y9329247D01*
X75832727Y9326231D01*
X75832724Y9326229D01*
X75653309Y9215141D01*
X75653301Y9215136D01*
X75648438Y9212124D01*
X75644207Y9208268D01*
X75644203Y9208264D01*
X75488259Y9066103D01*
X75488249Y9066093D01*
X75484019Y9062236D01*
X75480570Y9057670D01*
X75480561Y9057659D01*
X75353394Y8889262D01*
X75353387Y8889252D01*
X75349942Y8884689D01*
X75347392Y8879569D01*
X75347387Y8879560D01*
X75253325Y8690659D01*
X75253321Y8690651D01*
X75250771Y8685528D01*
X75249205Y8680025D01*
X75249201Y8680014D01*
X75194826Y8488901D01*
X75189885Y8471536D01*
X75189356Y8465831D01*
X75189356Y8465829D01*
X75172337Y8282162D01*
X75169357Y8250000D01*
X75169886Y8244291D01*
X75188209Y8046545D01*
X75189885Y8028464D01*
X75194563Y8012024D01*
X75249201Y7819987D01*
X75249204Y7819979D01*
X75250771Y7814472D01*
X75253323Y7809347D01*
X75253325Y7809342D01*
X75347387Y7620441D01*
X75347389Y7620437D01*
X75349942Y7615311D01*
X75353391Y7610744D01*
X75353394Y7610739D01*
X75480561Y7442342D01*
X75480566Y7442337D01*
X75484019Y7437764D01*
X75488255Y7433903D01*
X75488259Y7433898D01*
X75600601Y7331485D01*
X75648438Y7287876D01*
X75837599Y7170753D01*
X76045060Y7090382D01*
X76263757Y7049500D01*
X76480514Y7049500D01*
X76486243Y7049500D01*
X76704940Y7090382D01*
X76912401Y7170753D01*
X77101562Y7287876D01*
X77265981Y7437764D01*
X77272528Y7446435D01*
X77277047Y7452417D01*
X77324869Y7490656D01*
X77385159Y7501350D01*
X77443215Y7481891D01*
X77484882Y7437024D01*
X77500000Y7377689D01*
X77500000Y2642728D01*
X77498473Y2623328D01*
X77482342Y2521491D01*
X77482117Y2520121D01*
X77454790Y2359282D01*
X77452317Y2347958D01*
X77412121Y2197947D01*
X77411500Y2195714D01*
X77367449Y2042809D01*
X77364059Y2032698D01*
X77307821Y1886196D01*
X77306618Y1883182D01*
X77246353Y1737687D01*
X77242277Y1728844D01*
X77170673Y1588314D01*
X77168716Y1584628D01*
X77092913Y1447472D01*
X77088380Y1439918D01*
X77002255Y1307297D01*
X76999390Y1303077D01*
X76908952Y1175615D01*
X76904187Y1169333D01*
X76804510Y1046245D01*
X76800605Y1041656D01*
X76696599Y925272D01*
X76691820Y920217D01*
X76579783Y808180D01*
X76574728Y803401D01*
X76458344Y699395D01*
X76453755Y695490D01*
X76330667Y595813D01*
X76324385Y591048D01*
X76196923Y500610D01*
X76192703Y497745D01*
X76060082Y411620D01*
X76052528Y407087D01*
X75915372Y331284D01*
X75911686Y329327D01*
X75771156Y257723D01*
X75762313Y253647D01*
X75616818Y193382D01*
X75613804Y192179D01*
X75467302Y135941D01*
X75457191Y132551D01*
X75304286Y88500D01*
X75302053Y87879D01*
X75152042Y47683D01*
X75140718Y45210D01*
X74979879Y17883D01*
X74978509Y17658D01*
X74886462Y3078D01*
X74876670Y1527D01*
X74857272Y0D01*
X63121030Y0D01*
X63084155Y9594D01*
X63046534Y0D01*
X57355133Y0D01*
X57292356Y17065D01*
X57246859Y63563D01*
X57231162Y126695D01*
X57249588Y189086D01*
X57250513Y190586D01*
X57295621Y233774D01*
X57356058Y249500D01*
X63036293Y249500D01*
X63054264Y248191D01*
X63064505Y246691D01*
X63084467Y238366D01*
X63110223Y247528D01*
X63127369Y249028D01*
X63138176Y249500D01*
X63140100Y249500D01*
X63143709Y249500D01*
X63174550Y253106D01*
X63178031Y253461D01*
X63252797Y260001D01*
X63259653Y262274D01*
X63263043Y262973D01*
X63263375Y263027D01*
X63263728Y263127D01*
X63267071Y263920D01*
X63274255Y264759D01*
X63344760Y290421D01*
X63348118Y291588D01*
X63419334Y315186D01*
X63425486Y318982D01*
X63428607Y320436D01*
X63428929Y320570D01*
X63429238Y320742D01*
X63432315Y322288D01*
X63439117Y324763D01*
X63501837Y366016D01*
X63504732Y367860D01*
X63568656Y407288D01*
X63573763Y412397D01*
X63576476Y414541D01*
X63576758Y414746D01*
X63577029Y414993D01*
X63579658Y417200D01*
X63585696Y421170D01*
X63637219Y475783D01*
X63639632Y478266D01*
X63990641Y829276D01*
X64004260Y841046D01*
X64023530Y855390D01*
X64055385Y893355D01*
X64062681Y901315D01*
X64066590Y905223D01*
X64085833Y929562D01*
X64088033Y932264D01*
X64103094Y950212D01*
X64145676Y982883D01*
X64198078Y994500D01*
X64945588Y994500D01*
X64948638Y994500D01*
X65047256Y1004213D01*
X65094709Y1013652D01*
X65189540Y1042419D01*
X65276935Y1089134D01*
X65317163Y1116014D01*
X65393761Y1178877D01*
X66121123Y1906239D01*
X66183986Y1982837D01*
X66210866Y2023065D01*
X66257581Y2110460D01*
X66286348Y2205291D01*
X66295787Y2252744D01*
X66299274Y2288156D01*
X66319576Y2344892D01*
X66364225Y2385358D01*
X66422678Y2400000D01*
X67583674Y2400000D01*
X67600000Y2400000D01*
X67600000Y4358390D01*
X67612143Y4411906D01*
X67646193Y4454941D01*
X67695483Y4479066D01*
X67699775Y4480081D01*
X67707483Y4480909D01*
X67842331Y4531204D01*
X67957546Y4617454D01*
X68043796Y4732669D01*
X68094091Y4867517D01*
X68100500Y4927127D01*
X68100499Y4995944D01*
X68107735Y5036979D01*
X68110040Y5041567D01*
X68150500Y5212279D01*
X68150500Y6061293D01*
X68151809Y6079264D01*
X68153619Y6091623D01*
X68155289Y6103023D01*
X68150972Y6152369D01*
X68150500Y6163176D01*
X68150500Y6165099D01*
X68150500Y6168709D01*
X68146903Y6199480D01*
X68146536Y6203071D01*
X68143826Y6234049D01*
X68139999Y6277797D01*
X68137726Y6284655D01*
X68137027Y6288043D01*
X68136972Y6288381D01*
X68136878Y6288714D01*
X68136079Y6292085D01*
X68135241Y6299255D01*
X68127879Y6319481D01*
X68109592Y6369726D01*
X68108408Y6373132D01*
X68104334Y6385426D01*
X68084814Y6444334D01*
X68081019Y6450487D01*
X68079564Y6453607D01*
X68079430Y6453931D01*
X68079259Y6454237D01*
X68077710Y6457320D01*
X68075237Y6464117D01*
X68034001Y6526812D01*
X68032086Y6529819D01*
X67996504Y6587508D01*
X67996501Y6587511D01*
X67992712Y6593655D01*
X67987605Y6598762D01*
X67985463Y6601471D01*
X67985258Y6601755D01*
X67985025Y6602009D01*
X67982797Y6604665D01*
X67978830Y6610696D01*
X67973582Y6615647D01*
X67973579Y6615651D01*
X67924261Y6662180D01*
X67921675Y6664693D01*
X67850729Y6735639D01*
X67838947Y6749273D01*
X67828925Y6762735D01*
X67828921Y6762739D01*
X67824610Y6768530D01*
X67800838Y6788477D01*
X67786665Y6800370D01*
X67778690Y6807678D01*
X67777329Y6809039D01*
X67774777Y6811591D01*
X67771953Y6813824D01*
X67771944Y6813832D01*
X67750445Y6830830D01*
X67747674Y6833087D01*
X67690214Y6881302D01*
X67683760Y6884544D01*
X67680859Y6886452D01*
X67680588Y6886648D01*
X67680292Y6886813D01*
X67677339Y6888634D01*
X67671677Y6893111D01*
X67665134Y6896162D01*
X67665131Y6896164D01*
X67603692Y6924814D01*
X67600446Y6926385D01*
X67565011Y6944181D01*
X67533433Y6960040D01*
X67526409Y6961705D01*
X67523151Y6962891D01*
X67522832Y6963023D01*
X67522504Y6963116D01*
X67519218Y6964205D01*
X67512673Y6967257D01*
X67505604Y6968717D01*
X67505600Y6968718D01*
X67439212Y6982426D01*
X67435691Y6983206D01*
X67369741Y6998837D01*
X67369734Y6998838D01*
X67362721Y7000500D01*
X67355510Y7000500D01*
X67352061Y7000903D01*
X67351727Y7000957D01*
X67351374Y7000972D01*
X67347929Y7001274D01*
X67340856Y7002734D01*
X67333638Y7002524D01*
X67265870Y7000552D01*
X67262263Y7000500D01*
X66972773Y7000500D01*
X66921187Y7011740D01*
X66878953Y7043421D01*
X66853727Y7089800D01*
X66850082Y7142470D01*
X66853411Y7165201D01*
X66855289Y7178023D01*
X66839998Y7352798D01*
X66806793Y7453006D01*
X66800499Y7492009D01*
X66800499Y7569561D01*
X66800499Y7572872D01*
X66794091Y7632483D01*
X66743796Y7767331D01*
X66738481Y7774431D01*
X66738480Y7774433D01*
X66715609Y7804983D01*
X66697829Y7828735D01*
X66674813Y7882481D01*
X66678984Y7940801D01*
X66709411Y7990722D01*
X66770340Y8051650D01*
X66860908Y8198484D01*
X66915174Y8362247D01*
X66925500Y8463323D01*
X66925499Y9036676D01*
X66915174Y9137753D01*
X66860908Y9301516D01*
X66770340Y9448350D01*
X66648350Y9570340D01*
X66501516Y9660908D01*
X66494664Y9663179D01*
X66494661Y9663180D01*
X66367128Y9705440D01*
X66337753Y9715174D01*
X66331020Y9715862D01*
X66331015Y9715863D01*
X66239808Y9725181D01*
X66239791Y9725182D01*
X66236677Y9725500D01*
X66233528Y9725500D01*
X65723472Y9725500D01*
X65661472Y9742113D01*
X65616085Y9787500D01*
X65552997Y9896772D01*
X65532533Y9932216D01*
X65527402Y9937914D01*
X65410220Y10068058D01*
X65410216Y10068062D01*
X65405871Y10072888D01*
X65400613Y10076708D01*
X65400611Y10076710D01*
X65257988Y10180331D01*
X65257987Y10180332D01*
X65252730Y10184151D01*
X65241911Y10188968D01*
X65085745Y10258499D01*
X65085740Y10258501D01*
X65079803Y10261144D01*
X65073444Y10262496D01*
X65073440Y10262497D01*
X64901008Y10299148D01*
X64901005Y10299149D01*
X64894646Y10300500D01*
X64705354Y10300500D01*
X64698995Y10299149D01*
X64698991Y10299148D01*
X64526559Y10262497D01*
X64526552Y10262495D01*
X64520197Y10261144D01*
X64514262Y10258502D01*
X64514254Y10258499D01*
X64353207Y10186795D01*
X64353202Y10186793D01*
X64347270Y10184151D01*
X64342016Y10180335D01*
X64342011Y10180331D01*
X64199388Y10076710D01*
X64199381Y10076705D01*
X64194129Y10072888D01*
X64142148Y10015159D01*
X64084179Y9978935D01*
X64015821Y9978935D01*
X63957851Y10015159D01*
X63905871Y10072888D01*
X63900613Y10076708D01*
X63900611Y10076710D01*
X63757988Y10180331D01*
X63757987Y10180332D01*
X63752730Y10184151D01*
X63741911Y10188968D01*
X63585745Y10258499D01*
X63585740Y10258501D01*
X63579803Y10261144D01*
X63573444Y10262496D01*
X63573440Y10262497D01*
X63401008Y10299148D01*
X63401005Y10299149D01*
X63394646Y10300500D01*
X63362094Y10300500D01*
X63303879Y10315015D01*
X63259293Y10355160D01*
X63238773Y10411539D01*
X63247123Y10470951D01*
X63281700Y10518543D01*
X63285696Y10521170D01*
X63337185Y10575747D01*
X63339629Y10578263D01*
X63719548Y10958181D01*
X63759777Y10985061D01*
X63807230Y10994500D01*
X64945588Y10994500D01*
X64948638Y10994500D01*
X65047256Y11004213D01*
X65094709Y11013652D01*
X65189540Y11042419D01*
X65276935Y11089134D01*
X65317163Y11116014D01*
X65393761Y11178877D01*
X65464884Y11250000D01*
X69369390Y11250000D01*
X69369706Y11245582D01*
X69389487Y10968995D01*
X69389488Y10968986D01*
X69389804Y10964572D01*
X69390744Y10960247D01*
X69390746Y10960239D01*
X69439444Y10736380D01*
X69450631Y10684954D01*
X69452175Y10680815D01*
X69452176Y10680811D01*
X69532353Y10465848D01*
X69550633Y10416839D01*
X69552753Y10412957D01*
X69552756Y10412950D01*
X69682994Y10174439D01*
X69687774Y10165685D01*
X69859261Y9936605D01*
X70061605Y9734261D01*
X70290685Y9562774D01*
X70415607Y9494561D01*
X70514956Y9440312D01*
X70541839Y9425633D01*
X70809954Y9325631D01*
X71089572Y9264804D01*
X71375000Y9244390D01*
X71660428Y9264804D01*
X71940046Y9325631D01*
X72208161Y9425633D01*
X72459315Y9562774D01*
X72688395Y9734261D01*
X72890739Y9936605D01*
X73062226Y10165685D01*
X73199367Y10416839D01*
X73299369Y10684954D01*
X73360196Y10964572D01*
X73380610Y11250000D01*
X73360196Y11535428D01*
X73299369Y11815046D01*
X73199367Y12083161D01*
X73191474Y12097615D01*
X73111725Y12243665D01*
X73062226Y12334315D01*
X72890739Y12563395D01*
X72688395Y12765739D01*
X72508061Y12900735D01*
X72471489Y12944495D01*
X72458373Y13000000D01*
X72471489Y13055505D01*
X72508061Y13099266D01*
X72688395Y13234261D01*
X72890739Y13436605D01*
X73062226Y13665685D01*
X73199367Y13916839D01*
X73299369Y14184954D01*
X73360196Y14464572D01*
X73380610Y14750000D01*
X73360196Y15035428D01*
X73299369Y15315046D01*
X73199367Y15583161D01*
X73062226Y15834315D01*
X72894688Y16058119D01*
X72870789Y16118079D01*
X72880265Y16181930D01*
X72920550Y16232366D01*
X72967829Y16250716D01*
X72967220Y16253296D01*
X72974767Y16255080D01*
X72982483Y16255909D01*
X73117331Y16306204D01*
X73232546Y16392454D01*
X73318796Y16507669D01*
X73369091Y16642517D01*
X73375500Y16702127D01*
X73375499Y19797872D01*
X73369091Y19857483D01*
X73318796Y19992331D01*
X73232546Y20107546D01*
X73204536Y20128514D01*
X73124431Y20188481D01*
X73124430Y20188482D01*
X73117331Y20193796D01*
X72982483Y20244091D01*
X72974770Y20244921D01*
X72974767Y20244921D01*
X72926180Y20250145D01*
X72926169Y20250146D01*
X72922873Y20250500D01*
X72919550Y20250500D01*
X69830439Y20250500D01*
X69830420Y20250500D01*
X69827128Y20250499D01*
X69823850Y20250147D01*
X69823838Y20250146D01*
X69775231Y20244921D01*
X69775225Y20244920D01*
X69767517Y20244091D01*
X69760252Y20241382D01*
X69760246Y20241380D01*
X69640980Y20196896D01*
X69640978Y20196896D01*
X69632669Y20193796D01*
X69625572Y20188484D01*
X69625568Y20188481D01*
X69524550Y20112859D01*
X69524546Y20112856D01*
X69517454Y20107546D01*
X69512144Y20100454D01*
X69512141Y20100450D01*
X69436519Y19999432D01*
X69436516Y19999428D01*
X69431204Y19992331D01*
X69428104Y19984022D01*
X69428104Y19984020D01*
X69383620Y19864753D01*
X69383619Y19864750D01*
X69380909Y19857483D01*
X69380079Y19849773D01*
X69380079Y19849768D01*
X69374855Y19801181D01*
X69374854Y19801169D01*
X69374500Y19797873D01*
X69374500Y19794552D01*
X69374500Y19794551D01*
X69374500Y16705440D01*
X69374500Y16705422D01*
X69374501Y16702128D01*
X69374853Y16698850D01*
X69374854Y16698839D01*
X69380079Y16650232D01*
X69380080Y16650227D01*
X69380909Y16642517D01*
X69383619Y16635251D01*
X69383620Y16635247D01*
X69401341Y16587736D01*
X69431204Y16507669D01*
X69436518Y16500570D01*
X69436519Y16500569D01*
X69456849Y16473411D01*
X69517454Y16392454D01*
X69632669Y16306204D01*
X69767517Y16255909D01*
X69775234Y16255080D01*
X69782776Y16253297D01*
X69782165Y16250715D01*
X69829440Y16232373D01*
X69869731Y16181938D01*
X69879211Y16118085D01*
X69855310Y16058119D01*
X69690434Y15837869D01*
X69687774Y15834315D01*
X69685651Y15830429D01*
X69685647Y15830421D01*
X69552756Y15587051D01*
X69552750Y15587039D01*
X69550633Y15583161D01*
X69549089Y15579024D01*
X69549085Y15579013D01*
X69452176Y15319190D01*
X69452173Y15319182D01*
X69450631Y15315046D01*
X69449690Y15310724D01*
X69449690Y15310721D01*
X69390746Y15039762D01*
X69390744Y15039752D01*
X69389804Y15035428D01*
X69389488Y15031017D01*
X69389487Y15031006D01*
X69371906Y14785181D01*
X69369390Y14750000D01*
X69369706Y14745582D01*
X69389487Y14468995D01*
X69389488Y14468986D01*
X69389804Y14464572D01*
X69390744Y14460247D01*
X69390746Y14460239D01*
X69423258Y14310784D01*
X69450631Y14184954D01*
X69452175Y14180815D01*
X69452176Y14180811D01*
X69540302Y13944536D01*
X69550633Y13916839D01*
X69552753Y13912957D01*
X69552756Y13912950D01*
X69676381Y13686550D01*
X69687774Y13665685D01*
X69859261Y13436605D01*
X70061605Y13234261D01*
X70174348Y13149863D01*
X70241936Y13099267D01*
X70278510Y13055505D01*
X70291626Y13000000D01*
X70278510Y12944495D01*
X70241936Y12900733D01*
X70065156Y12768398D01*
X70065149Y12768393D01*
X70061605Y12765739D01*
X70058474Y12762609D01*
X70058467Y12762602D01*
X69862398Y12566533D01*
X69862391Y12566526D01*
X69859261Y12563395D01*
X69856607Y12559851D01*
X69856602Y12559844D01*
X69690434Y12337869D01*
X69687774Y12334315D01*
X69685651Y12330429D01*
X69685647Y12330421D01*
X69552756Y12087051D01*
X69552750Y12087039D01*
X69550633Y12083161D01*
X69549089Y12079024D01*
X69549085Y12079013D01*
X69452176Y11819190D01*
X69452173Y11819182D01*
X69450631Y11815046D01*
X69449690Y11810724D01*
X69449690Y11810721D01*
X69390746Y11539762D01*
X69390744Y11539752D01*
X69389804Y11535428D01*
X69389488Y11531017D01*
X69389487Y11531006D01*
X69376088Y11343656D01*
X69369390Y11250000D01*
X65464884Y11250000D01*
X66121123Y11906239D01*
X66183986Y11982837D01*
X66210866Y12023065D01*
X66257581Y12110460D01*
X66286348Y12205291D01*
X66295787Y12252744D01*
X66299274Y12288156D01*
X66319576Y12344892D01*
X66364225Y12385358D01*
X66422678Y12400000D01*
X67583674Y12400000D01*
X67600000Y12400000D01*
X67600000Y14358390D01*
X67612143Y14411906D01*
X67646193Y14454941D01*
X67695483Y14479066D01*
X67699775Y14480081D01*
X67707483Y14480909D01*
X67842331Y14531204D01*
X67957546Y14617454D01*
X68043796Y14732669D01*
X68094091Y14867517D01*
X68100500Y14927127D01*
X68100499Y14995944D01*
X68107735Y15036979D01*
X68110040Y15041567D01*
X68150500Y15212279D01*
X68150500Y16049555D01*
X68150710Y16056765D01*
X68152241Y16083052D01*
X68154331Y16118935D01*
X68143513Y16180277D01*
X68142469Y16187409D01*
X68136079Y16242084D01*
X68135241Y16249255D01*
X68131406Y16259789D01*
X68125811Y16280674D01*
X68125119Y16284600D01*
X68125118Y16284603D01*
X68123865Y16291711D01*
X68099198Y16348896D01*
X68096535Y16355600D01*
X68085533Y16385828D01*
X68075237Y16414117D01*
X68069074Y16423487D01*
X68058816Y16442513D01*
X68057239Y16446169D01*
X68054377Y16452804D01*
X68017192Y16502751D01*
X68013054Y16508661D01*
X67982798Y16554663D01*
X67982797Y16554664D01*
X67978830Y16560696D01*
X67970666Y16568399D01*
X67956304Y16584539D01*
X67953924Y16587736D01*
X67953921Y16587739D01*
X67949610Y16593530D01*
X67904102Y16631716D01*
X67901906Y16633559D01*
X67896528Y16638344D01*
X67851218Y16681092D01*
X67844968Y16684701D01*
X67844962Y16684705D01*
X67841500Y16686704D01*
X67823803Y16699096D01*
X67820750Y16701657D01*
X67820748Y16701658D01*
X67815214Y16706302D01*
X67808762Y16709543D01*
X67808758Y16709545D01*
X67759551Y16734258D01*
X67753204Y16737680D01*
X67738242Y16746318D01*
X67699281Y16768812D01*
X67692367Y16770883D01*
X67692363Y16770884D01*
X67688537Y16772029D01*
X67668462Y16780004D01*
X67658433Y16785040D01*
X67637768Y16789938D01*
X67597840Y16799402D01*
X67590878Y16801268D01*
X67538127Y16817060D01*
X67538120Y16817062D01*
X67531210Y16819130D01*
X67524004Y16819550D01*
X67524003Y16819550D01*
X67520017Y16819782D01*
X67498631Y16822915D01*
X67494754Y16823834D01*
X67494747Y16823835D01*
X67487721Y16825500D01*
X67480497Y16825500D01*
X67425445Y16825500D01*
X67418235Y16825710D01*
X67363274Y16828912D01*
X67363266Y16828912D01*
X67356065Y16829331D01*
X67348954Y16828078D01*
X67348951Y16828077D01*
X67345022Y16827384D01*
X67323490Y16825500D01*
X66941465Y16825500D01*
X66883410Y16839930D01*
X66838867Y16879861D01*
X66818202Y16936000D01*
X66825602Y16990673D01*
X66825326Y16990747D01*
X66825904Y16992906D01*
X66826226Y16995281D01*
X66826589Y16996198D01*
X66829862Y17004434D01*
X66855289Y17178023D01*
X66839998Y17352798D01*
X66806793Y17453006D01*
X66800499Y17492009D01*
X66800499Y17569561D01*
X66800499Y17572872D01*
X66794091Y17632483D01*
X66743796Y17767331D01*
X66738481Y17774431D01*
X66738480Y17774433D01*
X66704444Y17819898D01*
X66697829Y17828735D01*
X66674813Y17882481D01*
X66678984Y17940801D01*
X66709411Y17990722D01*
X66770340Y18051650D01*
X66860908Y18198484D01*
X66915174Y18362247D01*
X66925500Y18463323D01*
X66925499Y19036676D01*
X66915174Y19137753D01*
X66860908Y19301516D01*
X66770340Y19448350D01*
X66648350Y19570340D01*
X66501516Y19660908D01*
X66494664Y19663179D01*
X66494661Y19663180D01*
X66366446Y19705666D01*
X66337753Y19715174D01*
X66331020Y19715862D01*
X66331015Y19715863D01*
X66239808Y19725181D01*
X66239791Y19725182D01*
X66236677Y19725500D01*
X66233528Y19725500D01*
X65796156Y19725500D01*
X65745721Y19736220D01*
X65704006Y19766528D01*
X65678225Y19811182D01*
X65639146Y19931453D01*
X65627179Y19968284D01*
X65532533Y20132216D01*
X65459605Y20213210D01*
X65410220Y20268058D01*
X65410219Y20268059D01*
X65405871Y20272888D01*
X65260592Y20378439D01*
X65221123Y20426294D01*
X65209772Y20487281D01*
X65229383Y20546134D01*
X65272080Y20585397D01*
X65271639Y20586133D01*
X65274259Y20587704D01*
X65276935Y20589134D01*
X65317163Y20616014D01*
X65393761Y20678877D01*
X66121123Y21406239D01*
X66183986Y21482837D01*
X66210866Y21523065D01*
X66257581Y21610460D01*
X66286348Y21705291D01*
X66295787Y21752744D01*
X66299274Y21788156D01*
X66319576Y21844892D01*
X66364225Y21885358D01*
X66422678Y21900000D01*
X67583674Y21900000D01*
X67600000Y21900000D01*
X67600000Y23858390D01*
X67612143Y23911906D01*
X67646193Y23954941D01*
X67695483Y23979066D01*
X67699775Y23980081D01*
X67707483Y23980909D01*
X67842331Y24031204D01*
X67957546Y24117454D01*
X68043796Y24232669D01*
X68094091Y24367517D01*
X68100500Y24427127D01*
X68100499Y24495944D01*
X68107735Y24536979D01*
X68110040Y24541567D01*
X68150500Y24712279D01*
X68150500Y25511293D01*
X68151809Y25529264D01*
X68153482Y25540688D01*
X68155289Y25553023D01*
X68150971Y25602367D01*
X68150500Y25613173D01*
X68150500Y25615099D01*
X68150500Y25618709D01*
X68146898Y25649522D01*
X68146534Y25653085D01*
X68139998Y25727798D01*
X68137724Y25734660D01*
X68137027Y25738036D01*
X68136970Y25738386D01*
X68136875Y25738723D01*
X68136079Y25742080D01*
X68135241Y25749255D01*
X68109579Y25819762D01*
X68108403Y25823146D01*
X68107984Y25824410D01*
X68084814Y25894335D01*
X68081022Y25900482D01*
X68079559Y25903621D01*
X68079431Y25903931D01*
X68079257Y25904242D01*
X68077710Y25907322D01*
X68075237Y25914117D01*
X68034014Y25976793D01*
X68032082Y25979826D01*
X68019994Y25999423D01*
X67992711Y26043656D01*
X67987601Y26048766D01*
X67985463Y26051470D01*
X67985254Y26051759D01*
X67985027Y26052007D01*
X67982796Y26054665D01*
X67978830Y26060696D01*
X67924294Y26112148D01*
X67921706Y26114661D01*
X67800726Y26235642D01*
X67788945Y26249275D01*
X67788540Y26249819D01*
X67774610Y26268530D01*
X67766585Y26275264D01*
X67736665Y26300370D01*
X67728690Y26307678D01*
X67727329Y26309039D01*
X67724777Y26311591D01*
X67721953Y26313824D01*
X67721944Y26313832D01*
X67700445Y26330830D01*
X67697674Y26333087D01*
X67640214Y26381302D01*
X67633760Y26384544D01*
X67630859Y26386452D01*
X67630588Y26386648D01*
X67630292Y26386813D01*
X67627339Y26388634D01*
X67621677Y26393111D01*
X67615134Y26396162D01*
X67615131Y26396164D01*
X67553692Y26424814D01*
X67550446Y26426385D01*
X67483433Y26460040D01*
X67476409Y26461705D01*
X67473151Y26462891D01*
X67472832Y26463023D01*
X67472504Y26463116D01*
X67469218Y26464205D01*
X67462673Y26467257D01*
X67455604Y26468717D01*
X67455600Y26468718D01*
X67389212Y26482426D01*
X67385691Y26483206D01*
X67319741Y26498837D01*
X67319734Y26498838D01*
X67312721Y26500500D01*
X67305510Y26500500D01*
X67302061Y26500903D01*
X67301727Y26500957D01*
X67301374Y26500972D01*
X67297929Y26501274D01*
X67290856Y26502734D01*
X67283638Y26502524D01*
X67215870Y26500552D01*
X67212263Y26500500D01*
X66974500Y26500500D01*
X66912500Y26517113D01*
X66867113Y26562500D01*
X66850500Y26624500D01*
X66850500Y27650657D01*
X66861089Y27698424D01*
X66860908Y27698484D01*
X66860908Y27698485D01*
X66915174Y27862247D01*
X66925500Y27963323D01*
X66925499Y28536676D01*
X66915174Y28637753D01*
X66860908Y28801516D01*
X66770340Y28948350D01*
X66648350Y29070340D01*
X66501516Y29160908D01*
X66494664Y29163179D01*
X66494661Y29163180D01*
X66400336Y29194436D01*
X66337753Y29215174D01*
X66331020Y29215862D01*
X66331015Y29215863D01*
X66239808Y29225181D01*
X66239791Y29225182D01*
X66236677Y29225500D01*
X66233528Y29225500D01*
X65996156Y29225500D01*
X65945721Y29236220D01*
X65904006Y29266528D01*
X65878225Y29311182D01*
X65857327Y29375499D01*
X65827179Y29468284D01*
X65732533Y29632216D01*
X65705506Y29662232D01*
X65610220Y29768058D01*
X65610219Y29768059D01*
X65605871Y29772888D01*
X65600611Y29776709D01*
X65595785Y29781055D01*
X65596720Y29782095D01*
X65562713Y29823199D01*
X65551154Y29883782D01*
X65570212Y29942441D01*
X65615171Y29984661D01*
X65674910Y30000000D01*
X73076810Y30000000D01*
X74496781Y29999501D01*
G37*
%TD.AperFunction*%
%TA.AperFunction,Conductor*%
G36*
X36664596Y9540518D02*
G01*
X36699516Y9518979D01*
X36699518Y9518978D01*
X36705666Y9515186D01*
X36872203Y9460001D01*
X36974991Y9449500D01*
X37437770Y9449501D01*
X37485223Y9440062D01*
X37525451Y9413182D01*
X37587228Y9351405D01*
X37617478Y9302043D01*
X37669050Y9143320D01*
X37672821Y9131716D01*
X37676068Y9126092D01*
X37676069Y9126090D01*
X37755152Y8989113D01*
X37767467Y8967784D01*
X37771811Y8962959D01*
X37771813Y8962957D01*
X37889779Y8831943D01*
X37894129Y8827112D01*
X38047270Y8715849D01*
X38220197Y8638856D01*
X38287866Y8624473D01*
X38339094Y8600369D01*
X38374270Y8556001D01*
X38386055Y8500621D01*
X38371991Y8445775D01*
X38356501Y8416122D01*
X38356497Y8416114D01*
X38353591Y8410549D01*
X38351863Y8404511D01*
X38351860Y8404503D01*
X38345220Y8381299D01*
X38339959Y8366522D01*
X38330442Y8344343D01*
X38327960Y8338558D01*
X38326694Y8332403D01*
X38326692Y8332393D01*
X38316087Y8280788D01*
X38313842Y8271641D01*
X38299342Y8220966D01*
X38299339Y8220953D01*
X38297613Y8214918D01*
X38297136Y8208658D01*
X38297135Y8208651D01*
X38295301Y8184571D01*
X38293122Y8169037D01*
X38288266Y8145403D01*
X38287000Y8139241D01*
X38287000Y8132950D01*
X38287000Y8080259D01*
X38286642Y8070844D01*
X38282640Y8018295D01*
X38282640Y8018290D01*
X38282163Y8012024D01*
X38282956Y8005791D01*
X38282957Y8005785D01*
X38286006Y7981849D01*
X38287000Y7966183D01*
X38287000Y7364867D01*
X38270763Y7307619D01*
X38272030Y7307028D01*
X38268974Y7300477D01*
X38265186Y7294334D01*
X38262916Y7287486D01*
X38262914Y7287480D01*
X38215124Y7143257D01*
X38210001Y7127797D01*
X38209313Y7121067D01*
X38209312Y7121060D01*
X38199819Y7028141D01*
X38199818Y7028123D01*
X38199500Y7025009D01*
X38199500Y7021860D01*
X38199500Y6878283D01*
X38190061Y6830830D01*
X38163180Y6790601D01*
X38108568Y6735990D01*
X38106321Y6733799D01*
X38042870Y6673482D01*
X38039282Y6668328D01*
X38039275Y6668319D01*
X38009167Y6625062D01*
X38003497Y6617542D01*
X37970197Y6576702D01*
X37970194Y6576699D01*
X37966225Y6571830D01*
X37963319Y6566268D01*
X37963311Y6566255D01*
X37952133Y6544857D01*
X37944005Y6531441D01*
X37930223Y6511639D01*
X37930218Y6511631D01*
X37926628Y6506472D01*
X37924151Y6500702D01*
X37924148Y6500695D01*
X37903362Y6452258D01*
X37899322Y6443752D01*
X37876716Y6400473D01*
X37872014Y6391472D01*
X37870286Y6385434D01*
X37870283Y6385426D01*
X37863643Y6362222D01*
X37858382Y6347445D01*
X37853945Y6337104D01*
X37846383Y6319481D01*
X37845117Y6313326D01*
X37845115Y6313316D01*
X37834510Y6261711D01*
X37832265Y6252564D01*
X37817765Y6201889D01*
X37817762Y6201876D01*
X37816036Y6195841D01*
X37815559Y6189581D01*
X37815558Y6189574D01*
X37813724Y6165494D01*
X37811545Y6149960D01*
X37808528Y6135276D01*
X37805423Y6120164D01*
X37805423Y6113873D01*
X37805423Y6061182D01*
X37805065Y6051767D01*
X37801063Y5999218D01*
X37801063Y5999213D01*
X37800586Y5992947D01*
X37801379Y5986714D01*
X37801380Y5986708D01*
X37804429Y5962772D01*
X37805423Y5947106D01*
X37805423Y3211938D01*
X37793031Y3157904D01*
X37763446Y3121044D01*
X37764150Y3120340D01*
X37647271Y3003462D01*
X37647267Y3003458D01*
X37642160Y2998350D01*
X37638368Y2992203D01*
X37638367Y2992201D01*
X37621472Y2964809D01*
X37551592Y2851516D01*
X37549322Y2844668D01*
X37549320Y2844662D01*
X37542195Y2823159D01*
X37497326Y2687753D01*
X37496638Y2681023D01*
X37496637Y2681016D01*
X37487319Y2589809D01*
X37487318Y2589791D01*
X37487000Y2586677D01*
X37487000Y2583530D01*
X37487000Y2583529D01*
X37487000Y2016474D01*
X37487000Y2016455D01*
X37487001Y2013324D01*
X37487320Y2010192D01*
X37487321Y2010191D01*
X37496637Y1918983D01*
X37496638Y1918975D01*
X37497326Y1912247D01*
X37499454Y1905825D01*
X37499455Y1905821D01*
X37526236Y1825001D01*
X37551592Y1748484D01*
X37642160Y1601650D01*
X37764150Y1479660D01*
X37910984Y1389092D01*
X37917838Y1386821D01*
X37917840Y1386820D01*
X38024819Y1351371D01*
X38079902Y1314435D01*
X38108958Y1280588D01*
X38108966Y1280581D01*
X38113057Y1275815D01*
X38137121Y1257188D01*
X38148891Y1246821D01*
X39184031Y211681D01*
X39214281Y162318D01*
X39218823Y104602D01*
X39196668Y51115D01*
X39152645Y13515D01*
X39096350Y0D01*
X10783951Y0D01*
X10727656Y13515D01*
X10683633Y51115D01*
X10661478Y104602D01*
X10666020Y162318D01*
X10696270Y211681D01*
X10888088Y403498D01*
X11097771Y613182D01*
X11138000Y640062D01*
X11185453Y649501D01*
X11444561Y649501D01*
X11447872Y649501D01*
X11507483Y655909D01*
X11642331Y706204D01*
X11757546Y792454D01*
X11794280Y841524D01*
X11800733Y850144D01*
X11844496Y886718D01*
X11900000Y899834D01*
X11955504Y886718D01*
X11999267Y850144D01*
X12037138Y799554D01*
X12037141Y799551D01*
X12042454Y792454D01*
X12157669Y706204D01*
X12292517Y655909D01*
X12352127Y649500D01*
X13247872Y649501D01*
X13307483Y655909D01*
X13442331Y706204D01*
X13500523Y749767D01*
X13535676Y768154D01*
X13574835Y774500D01*
X20726389Y774500D01*
X20737444Y773979D01*
X20744831Y772327D01*
X20812036Y774439D01*
X20815932Y774500D01*
X20839612Y774500D01*
X20843514Y774500D01*
X20847477Y775001D01*
X20859127Y775920D01*
X20902791Y777291D01*
X20922025Y782881D01*
X20941081Y786826D01*
X20960956Y789336D01*
X20996479Y803401D01*
X21001561Y805413D01*
X21012614Y809198D01*
X21054554Y821382D01*
X21071793Y831578D01*
X21089267Y840138D01*
X21100638Y844640D01*
X21100640Y844642D01*
X21107896Y847514D01*
X21143233Y873189D01*
X21152988Y879597D01*
X21190584Y901830D01*
X21204748Y915995D01*
X21219543Y928632D01*
X21235751Y940406D01*
X21263592Y974062D01*
X21271443Y982691D01*
X24012185Y3723432D01*
X24020355Y3730866D01*
X24026751Y3734924D01*
X24072792Y3783954D01*
X24075409Y3786656D01*
X24094994Y3806239D01*
X24097459Y3809418D01*
X24105041Y3818294D01*
X24134936Y3850128D01*
X24144587Y3867687D01*
X24155264Y3883940D01*
X24167547Y3899774D01*
X24184892Y3939858D01*
X24190025Y3950339D01*
X24211071Y3988618D01*
X24216053Y4008026D01*
X24222356Y4026434D01*
X24230311Y4044814D01*
X24237145Y4087966D01*
X24239507Y4099372D01*
X24250374Y4141691D01*
X24250374Y4161727D01*
X24251901Y4181125D01*
X24253813Y4193197D01*
X24253812Y4193197D01*
X24255034Y4200906D01*
X24250924Y4244386D01*
X24250374Y4256055D01*
X24250374Y5958874D01*
X24250895Y5969930D01*
X24252547Y5977316D01*
X24250435Y6044536D01*
X24250374Y6048430D01*
X24250374Y6072107D01*
X24250374Y6075999D01*
X24249872Y6079966D01*
X24248955Y6091623D01*
X24247584Y6135276D01*
X24241992Y6154521D01*
X24238048Y6173566D01*
X24235538Y6193441D01*
X24219453Y6234066D01*
X24215680Y6245087D01*
X24203492Y6287039D01*
X24199520Y6293754D01*
X24199519Y6293758D01*
X24193294Y6304283D01*
X24184733Y6321757D01*
X24177360Y6340381D01*
X24151682Y6375723D01*
X24145279Y6385473D01*
X24143243Y6388915D01*
X24123045Y6423069D01*
X24108880Y6437234D01*
X24096242Y6452031D01*
X24089058Y6461920D01*
X24089052Y6461926D01*
X24084468Y6468236D01*
X24057949Y6490174D01*
X24050820Y6496072D01*
X24042179Y6503935D01*
X23664421Y6881693D01*
X23637541Y6921921D01*
X23628102Y6969374D01*
X23628102Y7055576D01*
X23637541Y7103029D01*
X23664421Y7143257D01*
X23729669Y7208506D01*
X23887192Y7366030D01*
X23942779Y7398123D01*
X24006966Y7398123D01*
X24062554Y7366029D01*
X24482414Y6946170D01*
X24903067Y6525517D01*
X24930117Y6502412D01*
X25068607Y6426277D01*
X25221680Y6386974D01*
X25371918Y6386974D01*
X25379719Y6386974D01*
X25532792Y6426277D01*
X25671281Y6502412D01*
X25698332Y6525516D01*
X25787818Y6615003D01*
X25837182Y6645253D01*
X25894898Y6649795D01*
X25948385Y6627640D01*
X25985985Y6583617D01*
X25999500Y6527322D01*
X25999500Y4813707D01*
X25998191Y4795736D01*
X25997928Y4793936D01*
X25994711Y4771977D01*
X25995340Y4764786D01*
X25995340Y4764779D01*
X25999028Y4722631D01*
X25999500Y4711824D01*
X25999500Y4706291D01*
X25999916Y4702728D01*
X25999917Y4702718D01*
X26003098Y4675504D01*
X26003464Y4671918D01*
X26009371Y4604396D01*
X26009372Y4604391D01*
X26010001Y4597203D01*
X26012271Y4590351D01*
X26012976Y4586937D01*
X26013028Y4586616D01*
X26013120Y4586291D01*
X26013920Y4582915D01*
X26014759Y4575745D01*
X26040413Y4505258D01*
X26041582Y4501892D01*
X26062913Y4437521D01*
X26062917Y4437511D01*
X26065186Y4430666D01*
X26068971Y4424528D01*
X26070443Y4421372D01*
X26070570Y4421065D01*
X26070729Y4420780D01*
X26072295Y4417662D01*
X26074763Y4410883D01*
X26078727Y4404856D01*
X26078729Y4404852D01*
X26115979Y4348216D01*
X26117900Y4345201D01*
X26157288Y4281344D01*
X26162392Y4276240D01*
X26164542Y4273521D01*
X26164739Y4273248D01*
X26164973Y4272993D01*
X26167202Y4270337D01*
X26171170Y4264304D01*
X26176423Y4259348D01*
X26176424Y4259347D01*
X26210594Y4227109D01*
X26239359Y4186029D01*
X26249500Y4136915D01*
X26249500Y3494552D01*
X26240061Y3447099D01*
X26213181Y3406871D01*
X26184771Y3378462D01*
X26184767Y3378458D01*
X26179660Y3373350D01*
X26089092Y3226516D01*
X26086822Y3219668D01*
X26086820Y3219662D01*
X26040477Y3079806D01*
X26034826Y3062753D01*
X26034138Y3056023D01*
X26034137Y3056016D01*
X26024819Y2964809D01*
X26024818Y2964791D01*
X26024500Y2961677D01*
X26024500Y2958530D01*
X26024500Y2958529D01*
X26024500Y2366474D01*
X26024500Y2366455D01*
X26024501Y2363324D01*
X26024820Y2360192D01*
X26024821Y2360191D01*
X26034137Y2268983D01*
X26034138Y2268975D01*
X26034826Y2262247D01*
X26036954Y2255825D01*
X26036955Y2255821D01*
X26085123Y2110460D01*
X26089092Y2098484D01*
X26179660Y1951650D01*
X26301650Y1829660D01*
X26448484Y1739092D01*
X26612247Y1684826D01*
X26713323Y1674500D01*
X27286676Y1674501D01*
X27387753Y1684826D01*
X27551516Y1739092D01*
X27698350Y1829660D01*
X27703461Y1834772D01*
X27704087Y1835266D01*
X27740286Y1855126D01*
X27780999Y1862000D01*
X27867948Y1862000D01*
X27915401Y1852561D01*
X27955628Y1825682D01*
X28051650Y1729660D01*
X28198484Y1639092D01*
X28362247Y1584826D01*
X28463323Y1574500D01*
X29036676Y1574501D01*
X29137753Y1584826D01*
X29301516Y1639092D01*
X29448350Y1729660D01*
X29570340Y1851650D01*
X29660908Y1998484D01*
X29715174Y2162247D01*
X29725500Y2263323D01*
X29725499Y2961676D01*
X29715174Y3062753D01*
X29660908Y3226516D01*
X29570340Y3373350D01*
X29536819Y3406871D01*
X29509939Y3447099D01*
X29500500Y3494552D01*
X29500500Y3505448D01*
X29509939Y3552901D01*
X29536819Y3593129D01*
X29536819Y3593130D01*
X29570340Y3626650D01*
X29660908Y3773484D01*
X29715174Y3937247D01*
X29725500Y4038323D01*
X29725499Y4636676D01*
X29715174Y4737753D01*
X29660908Y4901516D01*
X29570340Y5048350D01*
X29456371Y5162319D01*
X29424277Y5217906D01*
X29424277Y5282094D01*
X29456371Y5337681D01*
X29504674Y5385984D01*
X29570340Y5451650D01*
X29660908Y5598484D01*
X29686283Y5675062D01*
X29720216Y5727480D01*
X29775393Y5756716D01*
X29837821Y5755353D01*
X29891670Y5723739D01*
X30840207Y4775202D01*
X30847659Y4767013D01*
X30851714Y4760623D01*
X30892171Y4722631D01*
X30900723Y4714600D01*
X30903519Y4711890D01*
X30923029Y4692380D01*
X30926209Y4689913D01*
X30935071Y4682345D01*
X30942355Y4675504D01*
X30961232Y4657777D01*
X30961234Y4657776D01*
X30966918Y4652438D01*
X30973751Y4648682D01*
X30973752Y4648681D01*
X30984473Y4642787D01*
X31000734Y4632106D01*
X31016564Y4619827D01*
X31056655Y4602479D01*
X31067133Y4597345D01*
X31073081Y4594075D01*
X31105408Y4576303D01*
X31124816Y4571320D01*
X31143219Y4565019D01*
X31154444Y4560161D01*
X31154446Y4560161D01*
X31161604Y4557063D01*
X31204758Y4550229D01*
X31216144Y4547871D01*
X31258481Y4537000D01*
X31278517Y4537000D01*
X31297915Y4535473D01*
X31317696Y4532340D01*
X31361171Y4536451D01*
X31372842Y4537000D01*
X34584725Y4537000D01*
X34595780Y4536479D01*
X34603167Y4534827D01*
X34670372Y4536939D01*
X34674268Y4537000D01*
X34697948Y4537000D01*
X34701850Y4537000D01*
X34705813Y4537501D01*
X34717463Y4538420D01*
X34761127Y4539791D01*
X34780361Y4545381D01*
X34799417Y4549326D01*
X34819292Y4551836D01*
X34859895Y4567913D01*
X34870950Y4571698D01*
X34912890Y4583882D01*
X34930129Y4594078D01*
X34947603Y4602638D01*
X34958974Y4607140D01*
X34958976Y4607142D01*
X34966232Y4610014D01*
X35001569Y4635689D01*
X35011324Y4642097D01*
X35048920Y4664330D01*
X35063084Y4678495D01*
X35077879Y4691132D01*
X35094087Y4702906D01*
X35121928Y4736562D01*
X35129779Y4745191D01*
X35310271Y4925683D01*
X35350499Y4952562D01*
X35397952Y4962001D01*
X35783527Y4962001D01*
X35786676Y4962001D01*
X35887753Y4972326D01*
X36051516Y5026592D01*
X36198350Y5117160D01*
X36320340Y5239150D01*
X36410908Y5385984D01*
X36465174Y5549747D01*
X36475500Y5650823D01*
X36475499Y6349176D01*
X36465174Y6450253D01*
X36410908Y6614016D01*
X36320340Y6760850D01*
X36281371Y6799819D01*
X36249277Y6855406D01*
X36249277Y6919594D01*
X36281371Y6975181D01*
X36289396Y6983206D01*
X36320340Y7014150D01*
X36410908Y7160984D01*
X36465174Y7324747D01*
X36475500Y7425823D01*
X36475499Y8024176D01*
X36465174Y8125253D01*
X36410908Y8289016D01*
X36320340Y8435850D01*
X36206371Y8549819D01*
X36174277Y8605406D01*
X36174277Y8669594D01*
X36206371Y8725181D01*
X36255488Y8774298D01*
X36320340Y8839150D01*
X36410908Y8985984D01*
X36465174Y9149747D01*
X36475500Y9250823D01*
X36475499Y9434982D01*
X36492565Y9497759D01*
X36539067Y9543257D01*
X36602204Y9558950D01*
X36664596Y9540518D01*
G37*
%TD.AperFunction*%
%TA.AperFunction,Conductor*%
G36*
X25022465Y29984662D02*
G01*
X25067425Y29942442D01*
X25086483Y29883786D01*
X25074927Y29823203D01*
X25035613Y29775682D01*
X24899388Y29676710D01*
X24899381Y29676705D01*
X24894129Y29672888D01*
X24889784Y29668063D01*
X24889779Y29668058D01*
X24771813Y29537044D01*
X24771808Y29537038D01*
X24767467Y29532216D01*
X24764221Y29526595D01*
X24764221Y29526594D01*
X24718814Y29447947D01*
X24672383Y29401965D01*
X24609023Y29385971D01*
X24546331Y29404409D01*
X24462855Y29455897D01*
X24462851Y29455899D01*
X24456708Y29459688D01*
X24399792Y29478548D01*
X24296599Y29512743D01*
X24296598Y29512744D01*
X24290171Y29514873D01*
X24283438Y29515561D01*
X24283433Y29515562D01*
X24190514Y29525055D01*
X24190497Y29525056D01*
X24187383Y29525374D01*
X24184234Y29525374D01*
X23415515Y29525374D01*
X23415495Y29525374D01*
X23412366Y29525373D01*
X23409234Y29525054D01*
X23409232Y29525053D01*
X23316312Y29515562D01*
X23316302Y29515561D01*
X23309577Y29514873D01*
X23303155Y29512746D01*
X23303150Y29512744D01*
X23149895Y29461960D01*
X23149891Y29461959D01*
X23143040Y29459688D01*
X23136896Y29455899D01*
X23136893Y29455897D01*
X22999862Y29371377D01*
X22999854Y29371371D01*
X22993718Y29367586D01*
X22988616Y29362485D01*
X22988612Y29362481D01*
X22874767Y29248636D01*
X22874763Y29248632D01*
X22869662Y29243530D01*
X22865877Y29237394D01*
X22865871Y29237386D01*
X22788907Y29112605D01*
X22777560Y29094208D01*
X22775289Y29087357D01*
X22775288Y29087353D01*
X22724883Y28935241D01*
X22722375Y28927671D01*
X22721687Y28920941D01*
X22721686Y28920934D01*
X22712193Y28828015D01*
X22712192Y28827997D01*
X22711874Y28824883D01*
X22711874Y28821736D01*
X22711874Y28821735D01*
X22711874Y27778015D01*
X22711874Y27777996D01*
X22711875Y27774866D01*
X22712194Y27771734D01*
X22712195Y27771733D01*
X22721686Y27678813D01*
X22721687Y27678805D01*
X22722375Y27672077D01*
X22724503Y27665655D01*
X22724504Y27665651D01*
X22774670Y27514260D01*
X22777560Y27505540D01*
X22792484Y27481344D01*
X22865871Y27362363D01*
X22865874Y27362359D01*
X22869662Y27356218D01*
X22874767Y27351113D01*
X22982074Y27243806D01*
X23014168Y27188219D01*
X23014168Y27124031D01*
X22982074Y27068444D01*
X21000450Y25086819D01*
X20960222Y25059939D01*
X20912769Y25050500D01*
X20884306Y25050500D01*
X20881886Y25050310D01*
X20881871Y25050309D01*
X20853748Y25048096D01*
X20853739Y25048095D01*
X20847431Y25047598D01*
X20841351Y25045832D01*
X20841342Y25045830D01*
X20697094Y25003921D01*
X20697091Y25003920D01*
X20689602Y25001744D01*
X20682891Y24997776D01*
X20682886Y24997773D01*
X20554851Y24922054D01*
X20554844Y24922050D01*
X20548135Y24918081D01*
X20542620Y24912567D01*
X20542616Y24912563D01*
X20437437Y24807384D01*
X20437433Y24807380D01*
X20431919Y24801865D01*
X20427950Y24795156D01*
X20427946Y24795149D01*
X20352227Y24667114D01*
X20352224Y24667109D01*
X20348256Y24660398D01*
X20346080Y24652909D01*
X20346079Y24652906D01*
X20304170Y24508658D01*
X20304168Y24508649D01*
X20302402Y24502569D01*
X20301905Y24496261D01*
X20301904Y24496252D01*
X20299691Y24468129D01*
X20299690Y24468114D01*
X20299500Y24465694D01*
X20299500Y24034306D01*
X20299690Y24031886D01*
X20299691Y24031872D01*
X20301904Y24003749D01*
X20301905Y24003742D01*
X20302402Y23997431D01*
X20304168Y23991350D01*
X20304170Y23991343D01*
X20346079Y23847095D01*
X20348256Y23839602D01*
X20352226Y23832889D01*
X20352227Y23832887D01*
X20427946Y23704852D01*
X20427948Y23704849D01*
X20431919Y23698135D01*
X20548135Y23581919D01*
X20554849Y23577948D01*
X20554851Y23577947D01*
X20576475Y23565159D01*
X20689602Y23498256D01*
X20847431Y23452402D01*
X20884306Y23449500D01*
X20995217Y23449500D01*
X21051512Y23435985D01*
X21095535Y23398385D01*
X21117690Y23344898D01*
X21113148Y23287182D01*
X21082898Y23237819D01*
X19493751Y21648672D01*
X19493741Y21648662D01*
X19491534Y21646454D01*
X19489563Y21644038D01*
X19489555Y21644028D01*
X19399150Y21533156D01*
X19399145Y21533150D01*
X19395176Y21528281D01*
X19392267Y21522713D01*
X19392263Y21522706D01*
X19307771Y21360952D01*
X19300965Y21347923D01*
X19299235Y21341879D01*
X19299234Y21341875D01*
X19251451Y21174883D01*
X19244987Y21152292D01*
X19244510Y21146036D01*
X19244509Y21146027D01*
X19239742Y21083416D01*
X19228775Y21041061D01*
X19203781Y21005151D01*
X19147054Y20948424D01*
X19097691Y20918174D01*
X19039975Y20913632D01*
X18986488Y20935787D01*
X18948888Y20979810D01*
X18935373Y21036105D01*
X18935373Y21146855D01*
X18935373Y21149278D01*
X18932639Y21184030D01*
X18889429Y21332761D01*
X18810589Y21466072D01*
X18701072Y21575589D01*
X18567761Y21654429D01*
X18560268Y21656606D01*
X18425118Y21695871D01*
X18425111Y21695873D01*
X18419030Y21697639D01*
X18412719Y21698136D01*
X18412712Y21698137D01*
X18386713Y21700183D01*
X18386698Y21700184D01*
X18384279Y21700374D01*
X18381833Y21700374D01*
X17887893Y21700374D01*
X17887867Y21700374D01*
X17885470Y21700373D01*
X17883056Y21700184D01*
X17883053Y21700183D01*
X17857033Y21698136D01*
X17857031Y21698136D01*
X17850718Y21697639D01*
X17844639Y21695874D01*
X17844639Y21695873D01*
X17826692Y21690659D01*
X17718966Y21659362D01*
X17662096Y21656457D01*
X17609922Y21679278D01*
X17573450Y21723014D01*
X17560374Y21778439D01*
X17560374Y23230609D01*
X17573889Y23286904D01*
X17611489Y23330927D01*
X17664976Y23353082D01*
X17722692Y23348540D01*
X17770923Y23318984D01*
X17774423Y23314423D01*
X17780865Y23309480D01*
X17888193Y23227123D01*
X17888196Y23227121D01*
X17894641Y23222176D01*
X18034638Y23164187D01*
X18147154Y23149374D01*
X18218541Y23149374D01*
X18222594Y23149374D01*
X18335110Y23164187D01*
X18475107Y23222176D01*
X18595325Y23314423D01*
X18687572Y23434641D01*
X18745561Y23574638D01*
X18765340Y23724874D01*
X18745561Y23875110D01*
X18687572Y24015107D01*
X18682627Y24021552D01*
X18682625Y24021555D01*
X18600268Y24128883D01*
X18595325Y24135325D01*
X18572138Y24153117D01*
X18481554Y24222626D01*
X18481548Y24222629D01*
X18475107Y24227572D01*
X18467598Y24230683D01*
X18467597Y24230683D01*
X18342619Y24282451D01*
X18342616Y24282452D01*
X18335110Y24285561D01*
X18327056Y24286622D01*
X18327050Y24286623D01*
X18226613Y24299845D01*
X18226611Y24299846D01*
X18222594Y24300374D01*
X18147154Y24300374D01*
X18143137Y24299846D01*
X18143134Y24299845D01*
X18042697Y24286623D01*
X18042689Y24286622D01*
X18034638Y24285561D01*
X18027133Y24282453D01*
X18027128Y24282451D01*
X17902150Y24230683D01*
X17902146Y24230681D01*
X17894641Y24227572D01*
X17888202Y24222632D01*
X17888193Y24222626D01*
X17780865Y24140269D01*
X17780861Y24140266D01*
X17774423Y24135325D01*
X17770923Y24130765D01*
X17722692Y24101208D01*
X17664976Y24096666D01*
X17611489Y24118821D01*
X17573889Y24162844D01*
X17560374Y24219139D01*
X17560374Y25734599D01*
X17560895Y25745655D01*
X17562547Y25753041D01*
X17560435Y25820247D01*
X17560374Y25824142D01*
X17560374Y25847833D01*
X17560374Y25851724D01*
X17559872Y25855697D01*
X17558954Y25867356D01*
X17557828Y25903201D01*
X17557583Y25911001D01*
X17551994Y25930234D01*
X17548048Y25949291D01*
X17546515Y25961430D01*
X17545538Y25969166D01*
X17529456Y26009783D01*
X17525677Y26020823D01*
X17515669Y26055272D01*
X17515667Y26055275D01*
X17513492Y26062764D01*
X17503291Y26080014D01*
X17494737Y26097473D01*
X17487360Y26116106D01*
X17461682Y26151449D01*
X17455275Y26161203D01*
X17451036Y26168371D01*
X17433044Y26198794D01*
X17433043Y26198795D01*
X17433164Y26198866D01*
X17417059Y26228712D01*
X17410373Y26268880D01*
X17410373Y26608401D01*
X17410373Y26608403D01*
X17410373Y26611550D01*
X17400048Y26712627D01*
X17345782Y26876390D01*
X17255214Y27023224D01*
X17133224Y27145214D01*
X16986390Y27235782D01*
X16979538Y27238053D01*
X16979535Y27238054D01*
X16860313Y27277560D01*
X16822627Y27290048D01*
X16815894Y27290736D01*
X16815889Y27290737D01*
X16724682Y27300055D01*
X16724665Y27300056D01*
X16721551Y27300374D01*
X16718402Y27300374D01*
X16151347Y27300374D01*
X16151327Y27300374D01*
X16148198Y27300373D01*
X16145066Y27300054D01*
X16145064Y27300053D01*
X16053856Y27290737D01*
X16053846Y27290736D01*
X16047121Y27290048D01*
X16040700Y27287921D01*
X16040694Y27287919D01*
X15890212Y27238054D01*
X15890206Y27238052D01*
X15883358Y27235782D01*
X15877214Y27231993D01*
X15877213Y27231992D01*
X15758171Y27158566D01*
X15736524Y27145214D01*
X15731416Y27140107D01*
X15731412Y27140103D01*
X15619645Y27028336D01*
X15619641Y27028332D01*
X15614534Y27023224D01*
X15610742Y27017077D01*
X15610741Y27017075D01*
X15569877Y26950823D01*
X15523966Y26876390D01*
X15521696Y26869542D01*
X15521694Y26869536D01*
X15477827Y26737153D01*
X15469700Y26712627D01*
X15469012Y26705897D01*
X15469011Y26705890D01*
X15459693Y26614683D01*
X15459692Y26614665D01*
X15459374Y26611551D01*
X15459374Y26608404D01*
X15459374Y26608403D01*
X15459374Y26016348D01*
X15459374Y26016329D01*
X15459375Y26013198D01*
X15459694Y26010066D01*
X15459695Y26010065D01*
X15469011Y25918857D01*
X15469012Y25918849D01*
X15469700Y25912121D01*
X15471828Y25905699D01*
X15471829Y25905695D01*
X15510598Y25788698D01*
X15523966Y25748358D01*
X15614534Y25601524D01*
X15736524Y25479534D01*
X15883358Y25388966D01*
X16047121Y25334700D01*
X16148197Y25324374D01*
X16185374Y25324374D01*
X16247374Y25307761D01*
X16292761Y25262374D01*
X16309374Y25200374D01*
X16309374Y24699374D01*
X16292761Y24637374D01*
X16247374Y24591987D01*
X16185375Y24575374D01*
X15990313Y24575374D01*
X15990294Y24575374D01*
X15987002Y24575373D01*
X15983727Y24575022D01*
X15983708Y24575020D01*
X15948127Y24571195D01*
X15921623Y24571195D01*
X15886037Y24575021D01*
X15886024Y24575022D01*
X15882747Y24575374D01*
X15879436Y24575374D01*
X15490313Y24575374D01*
X15490294Y24575374D01*
X15487002Y24575373D01*
X15483724Y24575021D01*
X15483712Y24575020D01*
X15435105Y24569795D01*
X15435099Y24569794D01*
X15427391Y24568965D01*
X15420126Y24566256D01*
X15420120Y24566254D01*
X15300854Y24521770D01*
X15300852Y24521770D01*
X15292543Y24518670D01*
X15285446Y24513358D01*
X15285438Y24513353D01*
X15259183Y24493698D01*
X15211231Y24471799D01*
X15158514Y24471799D01*
X15110564Y24493697D01*
X15077205Y24518670D01*
X15068895Y24521770D01*
X15068894Y24521770D01*
X14949626Y24566254D01*
X14949624Y24566255D01*
X14942357Y24568965D01*
X14934644Y24569795D01*
X14934641Y24569795D01*
X14886054Y24575019D01*
X14886043Y24575020D01*
X14882747Y24575374D01*
X14879424Y24575374D01*
X14490313Y24575374D01*
X14490294Y24575374D01*
X14487002Y24575373D01*
X14483727Y24575022D01*
X14483708Y24575020D01*
X14448127Y24571195D01*
X14421614Y24571196D01*
X14421112Y24571250D01*
X14364867Y24591851D01*
X14324841Y24636414D01*
X14310374Y24694539D01*
X14310374Y25200375D01*
X14326987Y25262375D01*
X14372374Y25307762D01*
X14434374Y25324375D01*
X14468401Y25324375D01*
X14471550Y25324375D01*
X14572627Y25334700D01*
X14736390Y25388966D01*
X14883224Y25479534D01*
X15005214Y25601524D01*
X15095782Y25748358D01*
X15150048Y25912121D01*
X15160374Y26013197D01*
X15160373Y26611550D01*
X15150048Y26712627D01*
X15095782Y26876390D01*
X15005214Y27023224D01*
X14883224Y27145214D01*
X14736390Y27235782D01*
X14729538Y27238053D01*
X14729535Y27238054D01*
X14610313Y27277560D01*
X14572627Y27290048D01*
X14565894Y27290736D01*
X14565889Y27290737D01*
X14474682Y27300055D01*
X14474665Y27300056D01*
X14471551Y27300374D01*
X14468402Y27300374D01*
X13901347Y27300374D01*
X13901327Y27300374D01*
X13898198Y27300373D01*
X13895066Y27300054D01*
X13895064Y27300053D01*
X13803856Y27290737D01*
X13803846Y27290736D01*
X13797121Y27290048D01*
X13790700Y27287921D01*
X13790694Y27287919D01*
X13640212Y27238054D01*
X13640206Y27238052D01*
X13633358Y27235782D01*
X13627214Y27231993D01*
X13627213Y27231992D01*
X13508171Y27158566D01*
X13486524Y27145214D01*
X13481416Y27140107D01*
X13481412Y27140103D01*
X13369645Y27028336D01*
X13369641Y27028332D01*
X13364534Y27023224D01*
X13360742Y27017077D01*
X13360741Y27017075D01*
X13319877Y26950823D01*
X13273966Y26876390D01*
X13271696Y26869542D01*
X13271694Y26869536D01*
X13227827Y26737153D01*
X13219700Y26712627D01*
X13219012Y26705897D01*
X13219011Y26705890D01*
X13209693Y26614683D01*
X13209692Y26614665D01*
X13209374Y26611551D01*
X13209374Y26608403D01*
X13209374Y26608402D01*
X13209374Y26268856D01*
X13200666Y26223208D01*
X13183366Y26195950D01*
X13184737Y26194954D01*
X13180149Y26188641D01*
X13174812Y26182956D01*
X13171056Y26176125D01*
X13171053Y26176120D01*
X13165159Y26165399D01*
X13154483Y26149147D01*
X13146983Y26139478D01*
X13146975Y26139467D01*
X13142201Y26133310D01*
X13139108Y26126166D01*
X13139103Y26126155D01*
X13124848Y26093214D01*
X13119712Y26082731D01*
X13102434Y26051301D01*
X13098677Y26044466D01*
X13096738Y26036918D01*
X13096737Y26036913D01*
X13093696Y26025067D01*
X13087395Y26006663D01*
X13082532Y25995426D01*
X13082530Y25995422D01*
X13079436Y25988270D01*
X13078216Y25980571D01*
X13078216Y25980569D01*
X13072603Y25945133D01*
X13070235Y25933698D01*
X13061312Y25898946D01*
X13061310Y25898938D01*
X13059374Y25891393D01*
X13059374Y25883597D01*
X13059374Y25871357D01*
X13057848Y25851972D01*
X13054714Y25832178D01*
X13055448Y25824413D01*
X13055448Y25824410D01*
X13058824Y25788698D01*
X13059374Y25777029D01*
X13059374Y24182567D01*
X13044347Y24123399D01*
X13002909Y24078572D01*
X12945103Y24058949D01*
X12884938Y24069287D01*
X12836998Y24107081D01*
X12820271Y24128880D01*
X12820268Y24128883D01*
X12815325Y24135325D01*
X12792138Y24153117D01*
X12701554Y24222626D01*
X12701548Y24222629D01*
X12695107Y24227572D01*
X12687598Y24230683D01*
X12687597Y24230683D01*
X12562619Y24282451D01*
X12562616Y24282452D01*
X12555110Y24285561D01*
X12547056Y24286622D01*
X12547050Y24286623D01*
X12446613Y24299845D01*
X12446611Y24299846D01*
X12442594Y24300374D01*
X12367154Y24300374D01*
X12363137Y24299846D01*
X12363134Y24299845D01*
X12262697Y24286623D01*
X12262689Y24286622D01*
X12254638Y24285561D01*
X12247133Y24282453D01*
X12247128Y24282451D01*
X12122150Y24230683D01*
X12122146Y24230681D01*
X12114641Y24227572D01*
X12108202Y24222632D01*
X12108193Y24222626D01*
X12000865Y24140269D01*
X12000861Y24140266D01*
X11994423Y24135325D01*
X11989482Y24128887D01*
X11989479Y24128883D01*
X11907122Y24021555D01*
X11907116Y24021546D01*
X11902176Y24015107D01*
X11899067Y24007602D01*
X11899065Y24007598D01*
X11847297Y23882620D01*
X11847295Y23882615D01*
X11844187Y23875110D01*
X11843126Y23867059D01*
X11843125Y23867051D01*
X11825905Y23736246D01*
X11824408Y23724874D01*
X11825469Y23716815D01*
X11843125Y23582698D01*
X11843126Y23582692D01*
X11844187Y23574638D01*
X11847296Y23567132D01*
X11847297Y23567129D01*
X11895962Y23449643D01*
X11902176Y23434641D01*
X11907119Y23428200D01*
X11907122Y23428194D01*
X11981759Y23330927D01*
X11994423Y23314423D01*
X12000865Y23309480D01*
X12108193Y23227123D01*
X12108196Y23227121D01*
X12114641Y23222176D01*
X12254638Y23164187D01*
X12367154Y23149374D01*
X12438541Y23149374D01*
X12442594Y23149374D01*
X12555110Y23164187D01*
X12695107Y23222176D01*
X12815325Y23314423D01*
X12827989Y23330927D01*
X12836998Y23342667D01*
X12884938Y23380461D01*
X12945103Y23390799D01*
X13002909Y23371176D01*
X13044347Y23326349D01*
X13059374Y23267181D01*
X13059374Y21769729D01*
X13040368Y21703757D01*
X12962786Y21580287D01*
X12962784Y21580284D01*
X12959085Y21574396D01*
X12956789Y21567838D01*
X12956787Y21567831D01*
X12901804Y21410699D01*
X12901802Y21410692D01*
X12899506Y21404129D01*
X12898726Y21397212D01*
X12898726Y21397209D01*
X12893173Y21347923D01*
X12879309Y21224874D01*
X12880089Y21217951D01*
X12888099Y21146855D01*
X12899506Y21045619D01*
X12901802Y21039055D01*
X12901804Y21039050D01*
X12956787Y20881918D01*
X12959085Y20875352D01*
X13000562Y20809342D01*
X13055058Y20722612D01*
X13053412Y20721579D01*
X13071452Y20684766D01*
X13072541Y20631224D01*
X13050950Y20582216D01*
X13017979Y20553269D01*
X13018640Y20552359D01*
X12983306Y20526689D01*
X12973548Y20520279D01*
X12942670Y20502017D01*
X12942664Y20502013D01*
X12935954Y20498044D01*
X12930441Y20492533D01*
X12930434Y20492526D01*
X12921784Y20483876D01*
X12907001Y20471250D01*
X12897100Y20464057D01*
X12897090Y20464048D01*
X12890787Y20459468D01*
X12885818Y20453463D01*
X12885815Y20453459D01*
X12862946Y20425815D01*
X12855085Y20417177D01*
X12374602Y19936693D01*
X12334374Y19909813D01*
X12286921Y19900374D01*
X12035579Y19900374D01*
X11988126Y19909813D01*
X11947898Y19936693D01*
X11688961Y20195630D01*
X11664721Y20229928D01*
X11653321Y20270350D01*
X11641360Y20384151D01*
X11635674Y20438256D01*
X11577179Y20618284D01*
X11482533Y20782216D01*
X11453489Y20814472D01*
X11360220Y20918058D01*
X11360219Y20918059D01*
X11355871Y20922888D01*
X11350613Y20926708D01*
X11350611Y20926710D01*
X11207988Y21030331D01*
X11207987Y21030332D01*
X11202730Y21034151D01*
X11191727Y21039050D01*
X11035745Y21108499D01*
X11035740Y21108501D01*
X11029803Y21111144D01*
X11023444Y21112496D01*
X11023440Y21112497D01*
X10851008Y21149148D01*
X10851005Y21149149D01*
X10844646Y21150500D01*
X10655354Y21150500D01*
X10648995Y21149149D01*
X10648991Y21149148D01*
X10476559Y21112497D01*
X10476552Y21112495D01*
X10470197Y21111144D01*
X10464262Y21108502D01*
X10464254Y21108499D01*
X10303207Y21036795D01*
X10303202Y21036793D01*
X10297270Y21034151D01*
X10292016Y21030335D01*
X10292011Y21030331D01*
X10149388Y20926710D01*
X10149381Y20926705D01*
X10144129Y20922888D01*
X10139784Y20918063D01*
X10139779Y20918058D01*
X10021813Y20787044D01*
X10021808Y20787038D01*
X10017467Y20782216D01*
X10014222Y20776596D01*
X10014218Y20776590D01*
X9926069Y20623911D01*
X9926066Y20623906D01*
X9922821Y20618284D01*
X9920815Y20612112D01*
X9920813Y20612106D01*
X9866333Y20444436D01*
X9866331Y20444427D01*
X9864326Y20438256D01*
X9863648Y20431806D01*
X9863646Y20431796D01*
X9848521Y20287876D01*
X9844540Y20250000D01*
X9845219Y20243540D01*
X9863646Y20068205D01*
X9863647Y20068197D01*
X9864326Y20061744D01*
X9866331Y20055572D01*
X9866333Y20055565D01*
X9920813Y19887895D01*
X9922821Y19881716D01*
X9926068Y19876092D01*
X9926069Y19876090D01*
X10002980Y19742875D01*
X10017467Y19717784D01*
X10066633Y19663180D01*
X10105305Y19620230D01*
X10134602Y19562291D01*
X10130605Y19497490D01*
X10094410Y19443591D01*
X10035940Y19415369D01*
X9928055Y19395202D01*
X9928052Y19395202D01*
X9922418Y19394148D01*
X9917077Y19392080D01*
X9917070Y19392077D01*
X9737579Y19322542D01*
X9737574Y19322540D01*
X9732237Y19320472D01*
X9727365Y19317456D01*
X9727362Y19317454D01*
X9563704Y19216122D01*
X9563696Y19216117D01*
X9558833Y19213105D01*
X9554602Y19209249D01*
X9554598Y19209245D01*
X9412350Y19079570D01*
X9412340Y19079560D01*
X9408110Y19075703D01*
X9404661Y19071137D01*
X9404652Y19071126D01*
X9323828Y18964096D01*
X9280145Y18927823D01*
X9224874Y18914823D01*
X9169603Y18927823D01*
X9125920Y18964096D01*
X9045095Y19071126D01*
X9045091Y19071130D01*
X9041638Y19075703D01*
X9037401Y19079566D01*
X9037397Y19079570D01*
X8895149Y19209245D01*
X8895150Y19209245D01*
X8890915Y19213105D01*
X8886045Y19216120D01*
X8886043Y19216122D01*
X8740758Y19306078D01*
X8717511Y19320472D01*
X8712168Y19322542D01*
X8532677Y19392077D01*
X8532672Y19392079D01*
X8527330Y19394148D01*
X8521622Y19395215D01*
X8332479Y19430572D01*
X8332476Y19430573D01*
X8326850Y19431624D01*
X8122898Y19431624D01*
X8117272Y19430573D01*
X8117268Y19430572D01*
X7928055Y19395202D01*
X7928052Y19395202D01*
X7922418Y19394148D01*
X7917077Y19392080D01*
X7917070Y19392077D01*
X7737579Y19322542D01*
X7737574Y19322540D01*
X7732237Y19320472D01*
X7727365Y19317456D01*
X7727362Y19317454D01*
X7563704Y19216122D01*
X7563696Y19216117D01*
X7558833Y19213105D01*
X7554602Y19209249D01*
X7554598Y19209245D01*
X7412350Y19079570D01*
X7412340Y19079560D01*
X7408110Y19075703D01*
X7404661Y19071137D01*
X7404652Y19071126D01*
X7288653Y18917517D01*
X7288650Y18917513D01*
X7285201Y18912945D01*
X7282648Y18907820D01*
X7282646Y18907815D01*
X7201744Y18745340D01*
X7194292Y18730374D01*
X7192724Y18724866D01*
X7192721Y18724856D01*
X7140047Y18539729D01*
X7140044Y18539718D01*
X7138477Y18534207D01*
X7137947Y18528497D01*
X7137947Y18528492D01*
X7120443Y18339589D01*
X7119659Y18331124D01*
X7120188Y18325415D01*
X7120188Y18325414D01*
X7132997Y18187171D01*
X7126156Y18133619D01*
X7097207Y18088050D01*
X6169248Y17160091D01*
X6116163Y17128696D01*
X6051966Y17110045D01*
X6051959Y17110043D01*
X6044476Y17107868D01*
X6037765Y17103900D01*
X6037762Y17103898D01*
X5909725Y17028178D01*
X5909718Y17028174D01*
X5903009Y17024205D01*
X5897494Y17018691D01*
X5897490Y17018687D01*
X5792311Y16913508D01*
X5792307Y16913504D01*
X5786793Y16907989D01*
X5782824Y16901280D01*
X5782820Y16901273D01*
X5707101Y16773238D01*
X5707098Y16773233D01*
X5703130Y16766522D01*
X5700954Y16759033D01*
X5700953Y16759030D01*
X5659044Y16614782D01*
X5659042Y16614773D01*
X5657276Y16608693D01*
X5656779Y16602385D01*
X5656778Y16602376D01*
X5654565Y16574253D01*
X5654564Y16574238D01*
X5654374Y16571818D01*
X5654374Y16569373D01*
X5654374Y14980624D01*
X5637761Y14918624D01*
X5592374Y14873237D01*
X5530374Y14856624D01*
X4197826Y14856624D01*
X4150373Y14866063D01*
X4110145Y14892943D01*
X3986692Y15016396D01*
X3959812Y15056624D01*
X3950373Y15104077D01*
X3950373Y15439651D01*
X3950373Y15439653D01*
X3950373Y15442800D01*
X3940048Y15543877D01*
X3885782Y15707640D01*
X3795214Y15854474D01*
X3673224Y15976464D01*
X3526390Y16067032D01*
X3519538Y16069303D01*
X3519535Y16069304D01*
X3391513Y16111726D01*
X3362627Y16121298D01*
X3355894Y16121986D01*
X3355889Y16121987D01*
X3264682Y16131305D01*
X3264665Y16131306D01*
X3261551Y16131624D01*
X3258402Y16131624D01*
X2691347Y16131624D01*
X2691327Y16131624D01*
X2688198Y16131623D01*
X2685066Y16131304D01*
X2685064Y16131303D01*
X2593856Y16121987D01*
X2593846Y16121986D01*
X2587121Y16121298D01*
X2580700Y16119171D01*
X2580694Y16119169D01*
X2430212Y16069304D01*
X2430206Y16069302D01*
X2423358Y16067032D01*
X2417214Y16063243D01*
X2417213Y16063242D01*
X2282673Y15980257D01*
X2276524Y15976464D01*
X2271416Y15971357D01*
X2271412Y15971353D01*
X2159645Y15859586D01*
X2159641Y15859582D01*
X2154534Y15854474D01*
X2150742Y15848327D01*
X2150741Y15848325D01*
X2132322Y15818462D01*
X2063966Y15707640D01*
X2061696Y15700792D01*
X2061694Y15700786D01*
X2021343Y15579013D01*
X2009700Y15543877D01*
X2009012Y15537147D01*
X2009011Y15537140D01*
X1999693Y15445933D01*
X1999692Y15445915D01*
X1999374Y15442801D01*
X1999374Y15439654D01*
X1999374Y15439653D01*
X1999374Y14847598D01*
X1999374Y14847579D01*
X1999375Y14844448D01*
X1999694Y14841316D01*
X1999695Y14841315D01*
X2009011Y14750107D01*
X2009012Y14750099D01*
X2009700Y14743371D01*
X2011828Y14736949D01*
X2011829Y14736945D01*
X2059408Y14593361D01*
X2063966Y14579608D01*
X2154534Y14432774D01*
X2159644Y14427664D01*
X2159645Y14427663D01*
X2268503Y14318805D01*
X2300597Y14263218D01*
X2300597Y14199030D01*
X2268503Y14143443D01*
X2159645Y14034586D01*
X2159641Y14034582D01*
X2154534Y14029474D01*
X2150742Y14023327D01*
X2150741Y14023325D01*
X2110162Y13957535D01*
X2063966Y13882640D01*
X2061696Y13875792D01*
X2061694Y13875786D01*
X2030250Y13780892D01*
X2009700Y13718877D01*
X2009012Y13712147D01*
X2009011Y13712140D01*
X1999693Y13620933D01*
X1999692Y13620915D01*
X1999374Y13617801D01*
X1999374Y13614654D01*
X1999374Y13614653D01*
X1999374Y13022598D01*
X1999374Y13022579D01*
X1999375Y13019448D01*
X1999694Y13016316D01*
X1999695Y13016315D01*
X2009011Y12925107D01*
X2009012Y12925099D01*
X2009700Y12918371D01*
X2011828Y12911949D01*
X2011829Y12911945D01*
X2060277Y12765739D01*
X2063966Y12754608D01*
X2154534Y12607774D01*
X2276524Y12485784D01*
X2423358Y12395216D01*
X2587121Y12340950D01*
X2688197Y12330624D01*
X3261550Y12330625D01*
X3362627Y12340950D01*
X3526390Y12395216D01*
X3673224Y12485784D01*
X3795214Y12607774D01*
X3885782Y12754608D01*
X3940048Y12918371D01*
X3949725Y13013103D01*
X3970149Y13069640D01*
X4014763Y13109929D01*
X4073084Y13124500D01*
X4747547Y13124500D01*
X4803842Y13110985D01*
X4847865Y13073385D01*
X4870020Y13019898D01*
X4865478Y12962182D01*
X4835228Y12912820D01*
X4630905Y12708497D01*
X3612696Y11690290D01*
X3604511Y11682842D01*
X3598123Y11678787D01*
X3592788Y11673107D01*
X3592783Y11673102D01*
X3552096Y11629776D01*
X3549392Y11626985D01*
X3532628Y11610221D01*
X3532621Y11610214D01*
X3529880Y11607472D01*
X3527500Y11604405D01*
X3527489Y11604392D01*
X3527400Y11604276D01*
X3519842Y11595431D01*
X3495280Y11569274D01*
X3495273Y11569265D01*
X3489938Y11563583D01*
X3486182Y11556752D01*
X3486179Y11556747D01*
X3480285Y11546026D01*
X3469609Y11529774D01*
X3462109Y11520105D01*
X3462101Y11520094D01*
X3457327Y11513937D01*
X3454234Y11506793D01*
X3454229Y11506782D01*
X3439974Y11473841D01*
X3434838Y11463358D01*
X3422906Y11441652D01*
X3413803Y11425093D01*
X3411864Y11417545D01*
X3411863Y11417540D01*
X3408822Y11405694D01*
X3402521Y11387290D01*
X3397658Y11376053D01*
X3397656Y11376049D01*
X3394562Y11368897D01*
X3393343Y11361204D01*
X3393340Y11361192D01*
X3392375Y11355095D01*
X3370218Y11301611D01*
X3326196Y11264014D01*
X3269903Y11250500D01*
X1955439Y11250500D01*
X1955420Y11250500D01*
X1952128Y11250499D01*
X1948850Y11250147D01*
X1948838Y11250146D01*
X1900231Y11244921D01*
X1900225Y11244920D01*
X1892517Y11244091D01*
X1885252Y11241382D01*
X1885246Y11241380D01*
X1765980Y11196896D01*
X1765978Y11196896D01*
X1757669Y11193796D01*
X1750572Y11188484D01*
X1750568Y11188481D01*
X1649550Y11112859D01*
X1649546Y11112856D01*
X1642454Y11107546D01*
X1637144Y11100454D01*
X1637141Y11100450D01*
X1561519Y10999432D01*
X1561516Y10999428D01*
X1556204Y10992331D01*
X1553104Y10984022D01*
X1553104Y10984020D01*
X1508620Y10864753D01*
X1508619Y10864750D01*
X1505909Y10857483D01*
X1505079Y10849773D01*
X1505079Y10849768D01*
X1499855Y10801181D01*
X1499854Y10801169D01*
X1499500Y10797873D01*
X1499500Y10794552D01*
X1499500Y10794551D01*
X1499500Y9705440D01*
X1499500Y9705422D01*
X1499501Y9702128D01*
X1499853Y9698850D01*
X1499854Y9698839D01*
X1505079Y9650230D01*
X1505080Y9650224D01*
X1505909Y9642517D01*
X1508617Y9635254D01*
X1510211Y9628512D01*
X1510211Y9571489D01*
X1508617Y9564746D01*
X1505909Y9557483D01*
X1505080Y9549776D01*
X1505079Y9549770D01*
X1499855Y9501181D01*
X1499854Y9501169D01*
X1499500Y9497873D01*
X1499500Y9494552D01*
X1499500Y9494551D01*
X1499500Y8405440D01*
X1499500Y8405422D01*
X1499501Y8402128D01*
X1499853Y8398850D01*
X1499854Y8398839D01*
X1505079Y8350232D01*
X1505080Y8350227D01*
X1505909Y8342517D01*
X1508619Y8335251D01*
X1508620Y8335247D01*
X1532344Y8271641D01*
X1556204Y8207669D01*
X1642454Y8092454D01*
X1757669Y8006204D01*
X1892517Y7955909D01*
X1952127Y7949500D01*
X2637769Y7949501D01*
X2685222Y7940062D01*
X2725450Y7913182D01*
X3599267Y7039366D01*
X3611049Y7025733D01*
X3621077Y7012262D01*
X3621081Y7012258D01*
X3625390Y7006470D01*
X3663352Y6974616D01*
X3671313Y6967320D01*
X3675223Y6963410D01*
X3678055Y6961171D01*
X3678065Y6961162D01*
X3699542Y6944181D01*
X3702298Y6941937D01*
X3759786Y6893698D01*
X3766245Y6890454D01*
X3769134Y6888554D01*
X3769417Y6888350D01*
X3769710Y6888186D01*
X3772659Y6886368D01*
X3778323Y6881889D01*
X3846357Y6850165D01*
X3849483Y6848652D01*
X3916567Y6814960D01*
X3923597Y6813295D01*
X3926831Y6812117D01*
X3927163Y6811980D01*
X3927493Y6811886D01*
X3930781Y6810797D01*
X3937327Y6807744D01*
X4010862Y6792561D01*
X4014223Y6791816D01*
X4087279Y6774500D01*
X4094509Y6774500D01*
X4097949Y6774098D01*
X4098286Y6774044D01*
X4098640Y6774028D01*
X4102066Y6773729D01*
X4109144Y6772267D01*
X4184110Y6774448D01*
X4187717Y6774500D01*
X6913667Y6774500D01*
X6931638Y6773191D01*
X6935534Y6772621D01*
X6955397Y6769711D01*
X7004742Y6774028D01*
X7015550Y6774500D01*
X7017474Y6774500D01*
X7021083Y6774500D01*
X7051924Y6778106D01*
X7055405Y6778461D01*
X7130171Y6785001D01*
X7137027Y6787274D01*
X7140417Y6787973D01*
X7140749Y6788027D01*
X7141102Y6788127D01*
X7144445Y6788920D01*
X7151629Y6789759D01*
X7222134Y6815421D01*
X7225492Y6816588D01*
X7296708Y6840186D01*
X7302860Y6843982D01*
X7305981Y6845436D01*
X7306303Y6845570D01*
X7306612Y6845742D01*
X7309689Y6847288D01*
X7316491Y6849763D01*
X7379211Y6891016D01*
X7382106Y6892860D01*
X7446030Y6932288D01*
X7451137Y6937397D01*
X7453850Y6939541D01*
X7454131Y6939745D01*
X7454406Y6939996D01*
X7457032Y6942200D01*
X7463070Y6946170D01*
X7464140Y6947305D01*
X7516352Y6972578D01*
X7576987Y6969929D01*
X7629102Y6938820D01*
X7697738Y6870184D01*
X7850478Y6774211D01*
X8020745Y6714632D01*
X8200000Y6694435D01*
X8379255Y6714632D01*
X8549522Y6774211D01*
X8702262Y6870184D01*
X8829816Y6997738D01*
X8838942Y7012262D01*
X8845507Y7022709D01*
X8891741Y7065930D01*
X8953283Y7080705D01*
X9014100Y7063183D01*
X9058348Y7017931D01*
X9074500Y6956736D01*
X9074500Y5988269D01*
X9065061Y5940816D01*
X9038181Y5900588D01*
X7774409Y4636819D01*
X7734181Y4609939D01*
X7686728Y4600500D01*
X7379805Y4600500D01*
X7379785Y4600500D01*
X7376656Y4600499D01*
X7373524Y4600180D01*
X7373522Y4600179D01*
X7284027Y4591038D01*
X7284017Y4591037D01*
X7277292Y4590349D01*
X7270870Y4588222D01*
X7270865Y4588220D01*
X7123158Y4539275D01*
X7123154Y4539274D01*
X7116303Y4537003D01*
X7110159Y4533214D01*
X7110154Y4533211D01*
X6978107Y4451763D01*
X6978101Y4451759D01*
X6971956Y4447968D01*
X6966849Y4442862D01*
X6966845Y4442858D01*
X6857142Y4333155D01*
X6857138Y4333151D01*
X6852032Y4328044D01*
X6848241Y4321899D01*
X6848237Y4321893D01*
X6766789Y4189846D01*
X6766786Y4189841D01*
X6762997Y4183697D01*
X6760726Y4176846D01*
X6760725Y4176842D01*
X6711781Y4029137D01*
X6709651Y4022708D01*
X6708963Y4015978D01*
X6708962Y4015971D01*
X6699819Y3926477D01*
X6699818Y3926459D01*
X6699500Y3923345D01*
X6699500Y3920198D01*
X6699500Y3920197D01*
X6699500Y3079806D01*
X6699500Y3079787D01*
X6699501Y3076656D01*
X6699820Y3073524D01*
X6699821Y3073523D01*
X6708962Y2984028D01*
X6708963Y2984020D01*
X6709651Y2977292D01*
X6711779Y2970869D01*
X6711780Y2970866D01*
X6753600Y2844662D01*
X6762997Y2816303D01*
X6766788Y2810157D01*
X6766789Y2810155D01*
X6846443Y2681016D01*
X6852032Y2671956D01*
X6857142Y2666846D01*
X6936307Y2587681D01*
X6968401Y2532094D01*
X6968401Y2467906D01*
X6936307Y2412319D01*
X6857142Y2333155D01*
X6857138Y2333151D01*
X6852032Y2328044D01*
X6848241Y2321899D01*
X6848237Y2321893D01*
X6766789Y2189846D01*
X6766786Y2189841D01*
X6762997Y2183697D01*
X6760726Y2176846D01*
X6760725Y2176842D01*
X6716306Y2042792D01*
X6709651Y2022708D01*
X6708963Y2015978D01*
X6708962Y2015971D01*
X6699819Y1926477D01*
X6699818Y1926459D01*
X6699500Y1923345D01*
X6699500Y1920198D01*
X6699500Y1920197D01*
X6699500Y1079806D01*
X6699500Y1079787D01*
X6699501Y1076656D01*
X6699820Y1073524D01*
X6699821Y1073523D01*
X6708962Y984028D01*
X6708963Y984020D01*
X6709651Y977292D01*
X6711779Y970869D01*
X6711780Y970866D01*
X6758826Y828891D01*
X6762997Y816303D01*
X6766788Y810157D01*
X6766789Y810155D01*
X6802164Y752803D01*
X6852032Y671956D01*
X6971956Y552032D01*
X7116303Y462997D01*
X7277292Y409651D01*
X7279778Y409397D01*
X7310021Y398203D01*
X7338452Y376957D01*
X7503730Y211680D01*
X7533979Y162318D01*
X7538521Y104602D01*
X7516366Y51115D01*
X7472343Y13515D01*
X7416048Y0D01*
X2642728Y0D01*
X2623329Y1527D01*
X2521490Y17658D01*
X2520119Y17883D01*
X2359280Y45210D01*
X2347956Y47683D01*
X2197945Y87879D01*
X2195712Y88500D01*
X2042807Y132551D01*
X2032696Y135941D01*
X1886194Y192179D01*
X1883180Y193382D01*
X1737685Y253647D01*
X1728842Y257723D01*
X1588312Y329327D01*
X1584626Y331284D01*
X1447470Y407087D01*
X1439916Y411620D01*
X1307295Y497745D01*
X1303075Y500610D01*
X1235949Y548238D01*
X1175601Y591057D01*
X1169340Y595806D01*
X1114689Y640062D01*
X1046243Y695490D01*
X1041654Y699395D01*
X925270Y803401D01*
X920215Y808180D01*
X808178Y920217D01*
X803399Y925272D01*
X699393Y1041656D01*
X695488Y1046245D01*
X637424Y1117946D01*
X595798Y1169350D01*
X591063Y1175592D01*
X500601Y1303087D01*
X497743Y1307297D01*
X493108Y1314435D01*
X411612Y1439928D01*
X407092Y1447461D01*
X331279Y1584632D01*
X329325Y1588314D01*
X257713Y1728861D01*
X253653Y1737669D01*
X193380Y1883182D01*
X192177Y1886196D01*
X155983Y1980483D01*
X135933Y2032714D01*
X132554Y2042792D01*
X88482Y2195771D01*
X87892Y2197892D01*
X47676Y2347978D01*
X45212Y2359264D01*
X17879Y2520134D01*
X17658Y2521477D01*
X1527Y2623329D01*
X0Y2642727D01*
X0Y27357273D01*
X1527Y27376670D01*
X17654Y27478495D01*
X17879Y27479868D01*
X45213Y27640746D01*
X47674Y27652014D01*
X87907Y27802167D01*
X88466Y27804175D01*
X132558Y27957223D01*
X135928Y27967274D01*
X192189Y28113837D01*
X193380Y28116820D01*
X253661Y28262351D01*
X257703Y28271121D01*
X329354Y28411745D01*
X331252Y28415320D01*
X407106Y28552566D01*
X411596Y28560048D01*
X497781Y28692762D01*
X500569Y28696869D01*
X591085Y28824440D01*
X595774Y28830621D01*
X695497Y28953769D01*
X699393Y28958346D01*
X728801Y28991254D01*
X803417Y29074750D01*
X808143Y29079749D01*
X920251Y29191857D01*
X925250Y29196583D01*
X1041654Y29300607D01*
X1046231Y29304503D01*
X1169379Y29404226D01*
X1175560Y29408915D01*
X1303131Y29499431D01*
X1307238Y29502219D01*
X1439952Y29588404D01*
X1447434Y29592894D01*
X1584680Y29668748D01*
X1588255Y29670646D01*
X1728879Y29742297D01*
X1737649Y29746339D01*
X1883211Y29806633D01*
X1886163Y29807811D01*
X2032726Y29864072D01*
X2042777Y29867442D01*
X2195825Y29911534D01*
X2197833Y29912093D01*
X2347986Y29952326D01*
X2359254Y29954787D01*
X2520186Y29982130D01*
X2521444Y29982337D01*
X2589571Y29993127D01*
X2623330Y29998473D01*
X2642727Y30000000D01*
X24962728Y30000000D01*
X25022465Y29984662D01*
G37*
%TD.AperFunction*%
%TA.AperFunction,Conductor*%
G36*
X16140275Y10602435D02*
G01*
X16180502Y10575556D01*
X16276524Y10479534D01*
X16423358Y10388966D01*
X16587121Y10334700D01*
X16608666Y10332499D01*
X16672619Y10306688D01*
X16712892Y10250704D01*
X16717027Y10181863D01*
X16683746Y10121460D01*
X14718144Y8155856D01*
X14718135Y8155847D01*
X14715797Y8153508D01*
X14713726Y8150940D01*
X14713715Y8150926D01*
X14683046Y8112869D01*
X14683042Y8112865D01*
X14678177Y8106826D01*
X14674955Y8099773D01*
X14674953Y8099768D01*
X14622074Y7983980D01*
X14618389Y7975910D01*
X14617127Y7967137D01*
X14617126Y7967131D01*
X14605930Y7889258D01*
X14597907Y7833453D01*
X14599169Y7824675D01*
X14617126Y7699775D01*
X14617127Y7699771D01*
X14618389Y7690995D01*
X14622073Y7682927D01*
X14622074Y7682926D01*
X14672334Y7572872D01*
X14678177Y7560079D01*
X14715796Y7513397D01*
X15066341Y7162853D01*
X15113023Y7125233D01*
X15243939Y7065445D01*
X15386397Y7044963D01*
X15528854Y7065445D01*
X15659770Y7125233D01*
X15706452Y7162852D01*
X17454446Y8910848D01*
X17494674Y8937727D01*
X17542127Y8947166D01*
X18073166Y8947166D01*
X18135166Y8930553D01*
X18180553Y8885166D01*
X18197166Y8823166D01*
X18197166Y8292128D01*
X18187727Y8244675D01*
X18160847Y8204447D01*
X16415200Y6458800D01*
X16415191Y6458791D01*
X16412853Y6456452D01*
X16410782Y6453884D01*
X16410771Y6453870D01*
X16380102Y6415813D01*
X16380098Y6415809D01*
X16375233Y6409770D01*
X16372011Y6402717D01*
X16372009Y6402712D01*
X16319183Y6287039D01*
X16315445Y6278854D01*
X16314183Y6270081D01*
X16314182Y6270075D01*
X16302052Y6185703D01*
X16294963Y6136397D01*
X16296225Y6127619D01*
X16314182Y6002719D01*
X16314183Y6002715D01*
X16315445Y5993939D01*
X16319129Y5985871D01*
X16319130Y5985870D01*
X16363474Y5888770D01*
X16375233Y5863023D01*
X16412852Y5816341D01*
X16763397Y5465797D01*
X16765976Y5463719D01*
X16765979Y5463716D01*
X16780952Y5451650D01*
X16810079Y5428177D01*
X16940995Y5368389D01*
X17083453Y5347907D01*
X17225910Y5368389D01*
X17356826Y5428177D01*
X17403508Y5465796D01*
X19621316Y7683606D01*
X19670679Y7713855D01*
X19728395Y7718397D01*
X19781882Y7696242D01*
X19819482Y7652219D01*
X19832997Y7595924D01*
X19832997Y7367478D01*
X19823558Y7320025D01*
X19796678Y7279797D01*
X19320165Y6803283D01*
X19320155Y6803273D01*
X19317929Y6801046D01*
X19315950Y6798617D01*
X19315934Y6798599D01*
X19256947Y6726189D01*
X19256943Y6726185D01*
X19252671Y6720939D01*
X19249636Y6714898D01*
X19249632Y6714890D01*
X19177172Y6570609D01*
X19177169Y6570604D01*
X19173933Y6564158D01*
X19172268Y6557136D01*
X19172267Y6557131D01*
X19135137Y6400473D01*
X19135136Y6400468D01*
X19133472Y6393445D01*
X19133472Y6218003D01*
X19135136Y6210981D01*
X19135137Y6210976D01*
X19171758Y6056468D01*
X19173933Y6047291D01*
X19177171Y6040844D01*
X19177172Y6040841D01*
X19249633Y5896558D01*
X19249635Y5896554D01*
X19252671Y5890510D01*
X19317927Y5810402D01*
X20060402Y5067929D01*
X20140510Y5002671D01*
X20297291Y4923933D01*
X20416462Y4895688D01*
X20472957Y4865226D01*
X20506654Y4810596D01*
X20508521Y4746436D01*
X20507248Y4741063D01*
X20484361Y4644497D01*
X20484361Y4637276D01*
X20484361Y4589387D01*
X20467748Y4527387D01*
X20422361Y4482000D01*
X20360361Y4465387D01*
X20305251Y4465387D01*
X20298229Y4463723D01*
X20298222Y4463722D01*
X20144416Y4427269D01*
X20144407Y4427266D01*
X20137383Y4425601D01*
X20130929Y4422361D01*
X20130924Y4422358D01*
X19989267Y4351216D01*
X19989262Y4351214D01*
X19983213Y4348175D01*
X19977965Y4343900D01*
X19977959Y4343896D01*
X19906889Y4286001D01*
X19906877Y4285991D01*
X19904440Y4284005D01*
X19902216Y4281782D01*
X19902206Y4281772D01*
X19763410Y4142975D01*
X19723182Y4116095D01*
X19675729Y4106656D01*
X16455821Y4106656D01*
X16408368Y4116095D01*
X16368140Y4142975D01*
X14261693Y6249423D01*
X14234813Y6289651D01*
X14225374Y6337104D01*
X14225374Y9862644D01*
X14234813Y9910097D01*
X14261693Y9950325D01*
X14886923Y10575555D01*
X14927151Y10602435D01*
X14974604Y10611874D01*
X16092822Y10611874D01*
X16140275Y10602435D01*
G37*
%TD.AperFunction*%
%TA.AperFunction,Conductor*%
G36*
X41991786Y10189420D02*
G01*
X41992908Y10188803D01*
X42012316Y10183820D01*
X42030719Y10177519D01*
X42041944Y10172661D01*
X42041946Y10172661D01*
X42049104Y10169563D01*
X42092258Y10162729D01*
X42103644Y10160371D01*
X42145981Y10149500D01*
X42166017Y10149500D01*
X42185415Y10147973D01*
X42197486Y10146061D01*
X42197487Y10146061D01*
X42205196Y10144840D01*
X42243276Y10148440D01*
X42248676Y10148950D01*
X42260345Y10149500D01*
X43122530Y10149500D01*
X43133585Y10148979D01*
X43140972Y10147327D01*
X43208177Y10149439D01*
X43212073Y10149500D01*
X43235753Y10149500D01*
X43239655Y10149500D01*
X43243618Y10150001D01*
X43255268Y10150920D01*
X43298932Y10152291D01*
X43318166Y10157881D01*
X43337222Y10161826D01*
X43342448Y10162486D01*
X43357097Y10164336D01*
X43364348Y10167208D01*
X43371908Y10169148D01*
X43372209Y10167973D01*
X43406422Y10174500D01*
X43635128Y10174500D01*
X43646183Y10173979D01*
X43653570Y10172327D01*
X43720775Y10174439D01*
X43724671Y10174500D01*
X43748351Y10174500D01*
X43752253Y10174500D01*
X43756216Y10175001D01*
X43767865Y10175920D01*
X43809107Y10177215D01*
X43872739Y10161937D01*
X43919732Y10116396D01*
X43937000Y10053276D01*
X43937000Y7197456D01*
X43918221Y7131847D01*
X43867573Y7086111D01*
X43800396Y7074099D01*
X43792045Y7074952D01*
X43789801Y7075181D01*
X43789798Y7075182D01*
X43786677Y7075500D01*
X43783528Y7075500D01*
X43760144Y7075500D01*
X43701922Y7090019D01*
X43657334Y7130174D01*
X43640711Y7175869D01*
X43638674Y7175435D01*
X43637322Y7181795D01*
X43636643Y7188256D01*
X43578148Y7368284D01*
X43483502Y7532216D01*
X43356840Y7672888D01*
X43351582Y7676708D01*
X43351580Y7676710D01*
X43208961Y7780328D01*
X43208960Y7780329D01*
X43203699Y7784151D01*
X43197758Y7786797D01*
X43192135Y7790043D01*
X43192563Y7790785D01*
X43162244Y7811624D01*
X43011818Y7962050D01*
X42984938Y8002278D01*
X42975499Y8049731D01*
X42975499Y8208527D01*
X42975499Y8211676D01*
X42965174Y8312753D01*
X42910908Y8476516D01*
X42820340Y8623350D01*
X42698350Y8745340D01*
X42551516Y8835908D01*
X42544664Y8838179D01*
X42544661Y8838180D01*
X42437631Y8873646D01*
X42387753Y8890174D01*
X42381020Y8890862D01*
X42381015Y8890863D01*
X42289808Y8900181D01*
X42289791Y8900182D01*
X42286677Y8900500D01*
X42283528Y8900500D01*
X42275255Y8900500D01*
X41949498Y8900500D01*
X41887500Y8917112D01*
X41842113Y8962499D01*
X41825500Y9024499D01*
X41825500Y10073676D01*
X41839913Y10131700D01*
X41879802Y10176234D01*
X41935894Y10196927D01*
X41991786Y10189420D01*
G37*
%TD.AperFunction*%
%TA.AperFunction,Conductor*%
G36*
X6862374Y11607887D02*
G01*
X6907761Y11562500D01*
X6924374Y11500500D01*
X6924374Y9840430D01*
X6924564Y9838010D01*
X6924565Y9837996D01*
X6926778Y9809873D01*
X6926779Y9809866D01*
X6927276Y9803555D01*
X6929042Y9797474D01*
X6929044Y9797467D01*
X6963510Y9678837D01*
X6973130Y9645726D01*
X6977100Y9639013D01*
X6977101Y9639011D01*
X7052820Y9510976D01*
X7052822Y9510973D01*
X7056793Y9504259D01*
X7062311Y9498741D01*
X7063055Y9497997D01*
X7064091Y9496447D01*
X7067091Y9492579D01*
X7066817Y9492367D01*
X7089935Y9457769D01*
X7099374Y9410316D01*
X7099374Y9277837D01*
X7092500Y9237124D01*
X7073284Y9202101D01*
X7069534Y9198350D01*
X7065745Y9192208D01*
X7065741Y9192202D01*
X6985578Y9062236D01*
X6978966Y9051516D01*
X6976696Y9044668D01*
X6976694Y9044662D01*
X6928924Y8900500D01*
X6924700Y8887753D01*
X6924012Y8881023D01*
X6924011Y8881016D01*
X6914693Y8789809D01*
X6914692Y8789791D01*
X6914374Y8786677D01*
X6914374Y8783528D01*
X6914374Y8574731D01*
X6904935Y8527278D01*
X6878055Y8487050D01*
X6702825Y8311819D01*
X6662597Y8284939D01*
X6615144Y8275500D01*
X4537230Y8275500D01*
X4489777Y8284939D01*
X4449549Y8311819D01*
X4036818Y8724550D01*
X4009938Y8764778D01*
X4000499Y8812231D01*
X4000499Y9494561D01*
X4000499Y9497872D01*
X3994091Y9557483D01*
X3991380Y9564749D01*
X3989789Y9571486D01*
X3989789Y9628516D01*
X3991379Y9635247D01*
X3994091Y9642517D01*
X4000500Y9702127D01*
X4000499Y9964549D01*
X4009938Y10012001D01*
X4036815Y10052227D01*
X4172695Y10188106D01*
X4222056Y10218353D01*
X4279772Y10222895D01*
X4333260Y10200740D01*
X4370859Y10156717D01*
X4384374Y10100422D01*
X4384374Y9840430D01*
X4384564Y9838010D01*
X4384565Y9837996D01*
X4386778Y9809873D01*
X4386779Y9809866D01*
X4387276Y9803555D01*
X4389042Y9797474D01*
X4389044Y9797467D01*
X4423510Y9678837D01*
X4433130Y9645726D01*
X4437100Y9639013D01*
X4437101Y9639011D01*
X4512820Y9510976D01*
X4512822Y9510973D01*
X4516793Y9504259D01*
X4633009Y9388043D01*
X4774476Y9304380D01*
X4932305Y9258526D01*
X4969180Y9255624D01*
X5398123Y9255624D01*
X5400568Y9255624D01*
X5437443Y9258526D01*
X5595272Y9304380D01*
X5736739Y9388043D01*
X5852955Y9504259D01*
X5936618Y9645726D01*
X5982472Y9803555D01*
X5985374Y9840430D01*
X5985374Y11500500D01*
X6001987Y11562500D01*
X6047374Y11607887D01*
X6109374Y11624500D01*
X6800374Y11624500D01*
X6862374Y11607887D01*
G37*
%TD.AperFunction*%
%TA.AperFunction,Conductor*%
G36*
X13483259Y19128241D02*
G01*
X13520859Y19084218D01*
X13534374Y19027923D01*
X13534374Y18230314D01*
X13534374Y18230296D01*
X13534375Y18227002D01*
X13534727Y18223724D01*
X13534728Y18223713D01*
X13539953Y18175106D01*
X13539954Y18175101D01*
X13540783Y18167391D01*
X13543493Y18160125D01*
X13543494Y18160121D01*
X13571434Y18085211D01*
X13591078Y18032543D01*
X13596392Y18025444D01*
X13596393Y18025443D01*
X13630760Y17979534D01*
X13677328Y17917328D01*
X13792543Y17831078D01*
X13927391Y17780783D01*
X13987001Y17774374D01*
X14382746Y17774375D01*
X14421618Y17778554D01*
X14448126Y17778554D01*
X14487001Y17774374D01*
X14506018Y17774375D01*
X14567460Y17758085D01*
X14612758Y17713489D01*
X14614868Y17709921D01*
X14616457Y17707234D01*
X14625010Y17689775D01*
X14629516Y17678394D01*
X14629517Y17678391D01*
X14632388Y17671142D01*
X14654314Y17640962D01*
X14658055Y17635814D01*
X14664467Y17626052D01*
X14682730Y17595172D01*
X14682733Y17595167D01*
X14686704Y17588454D01*
X14692218Y17582940D01*
X14692219Y17582939D01*
X14700864Y17574294D01*
X14713500Y17559500D01*
X14720693Y17549599D01*
X14720697Y17549595D01*
X14725280Y17543287D01*
X14731289Y17538316D01*
X14731290Y17538315D01*
X14758932Y17515448D01*
X14767573Y17507585D01*
X15362455Y16912702D01*
X15369907Y16904513D01*
X15373962Y16898123D01*
X15422971Y16852100D01*
X15425768Y16849389D01*
X15445277Y16829880D01*
X15448457Y16827413D01*
X15457319Y16819845D01*
X15459065Y16818205D01*
X15483480Y16795277D01*
X15483482Y16795276D01*
X15489166Y16789938D01*
X15495999Y16786182D01*
X15496000Y16786181D01*
X15506721Y16780287D01*
X15522982Y16769606D01*
X15538812Y16757327D01*
X15545972Y16754229D01*
X15545973Y16754228D01*
X15555097Y16750280D01*
X15578902Y16739979D01*
X15589379Y16734846D01*
X15627656Y16713803D01*
X15644241Y16709545D01*
X15647053Y16708823D01*
X15665467Y16702519D01*
X15683852Y16694562D01*
X15727013Y16687727D01*
X15738412Y16685366D01*
X15780729Y16674500D01*
X15800765Y16674500D01*
X15820150Y16672975D01*
X15839944Y16669840D01*
X15878024Y16673440D01*
X15883424Y16673950D01*
X15895093Y16674500D01*
X17142240Y16674500D01*
X17189693Y16665061D01*
X17229921Y16638181D01*
X18995496Y14872606D01*
X19027919Y14815763D01*
X19055319Y14709046D01*
X19057648Y14699978D01*
X19061404Y14693146D01*
X19061406Y14693141D01*
X19123822Y14579608D01*
X19133783Y14561488D01*
X19156887Y14534438D01*
X20130096Y13561230D01*
X20157146Y13538125D01*
X20251782Y13486099D01*
X20286522Y13467000D01*
X20295636Y13461990D01*
X20448709Y13422687D01*
X20598947Y13422687D01*
X20606748Y13422687D01*
X20759821Y13461990D01*
X20898310Y13538125D01*
X20925361Y13561229D01*
X21191462Y13827331D01*
X21214567Y13854382D01*
X21285694Y13983763D01*
X21334614Y14032683D01*
X21463995Y14103810D01*
X21491046Y14126914D01*
X21757147Y14393016D01*
X21780252Y14420067D01*
X21851378Y14549446D01*
X21900303Y14598370D01*
X22029681Y14669496D01*
X22056732Y14692600D01*
X22322833Y14958702D01*
X22345938Y14985753D01*
X22417065Y15115134D01*
X22465985Y15164054D01*
X22525320Y15196674D01*
X22571357Y15211251D01*
X22619475Y15207137D01*
X22661075Y15185624D01*
X22664210Y15182489D01*
X22816950Y15086516D01*
X22987217Y15026937D01*
X23032583Y15021826D01*
X23034293Y15021633D01*
X23074211Y15010133D01*
X23108091Y14986095D01*
X23186245Y14907942D01*
X23193693Y14899756D01*
X23197748Y14893366D01*
X23203432Y14888028D01*
X23203434Y14888026D01*
X23246757Y14847343D01*
X23249553Y14844633D01*
X23269063Y14825123D01*
X23272243Y14822656D01*
X23281105Y14815088D01*
X23291293Y14805520D01*
X23307266Y14790520D01*
X23307268Y14790519D01*
X23312952Y14785181D01*
X23319785Y14781425D01*
X23319786Y14781424D01*
X23330507Y14775530D01*
X23346768Y14764849D01*
X23362598Y14752570D01*
X23402689Y14735222D01*
X23413169Y14730088D01*
X23451442Y14709046D01*
X23470850Y14704063D01*
X23489253Y14697762D01*
X23500478Y14692904D01*
X23500480Y14692904D01*
X23507638Y14689806D01*
X23550792Y14682972D01*
X23562178Y14680614D01*
X23604515Y14669743D01*
X23624551Y14669743D01*
X23643949Y14668216D01*
X23656020Y14666304D01*
X23656021Y14666304D01*
X23663730Y14665083D01*
X23701810Y14668683D01*
X23707210Y14669193D01*
X23718879Y14669743D01*
X25887780Y14669743D01*
X25947516Y14654406D01*
X26049445Y14598370D01*
X26098369Y14549446D01*
X26112112Y14524448D01*
X26169496Y14420067D01*
X26192600Y14393016D01*
X26458702Y14126915D01*
X26485753Y14103810D01*
X26615131Y14032684D01*
X26664054Y13983761D01*
X26735181Y13854382D01*
X26758285Y13827331D01*
X27024387Y13561230D01*
X27051438Y13538125D01*
X27132065Y13493800D01*
X27180814Y13467000D01*
X27229738Y13418077D01*
X27243919Y13392283D01*
X27294155Y13300902D01*
X27300866Y13288696D01*
X27323970Y13261645D01*
X27590072Y12995544D01*
X27617123Y12972439D01*
X27746501Y12901313D01*
X27795425Y12852390D01*
X27866552Y12723011D01*
X27889656Y12695960D01*
X28155758Y12429859D01*
X28182809Y12406754D01*
X28260640Y12363966D01*
X28311906Y12335782D01*
X28321298Y12330619D01*
X28474371Y12291316D01*
X28624609Y12291316D01*
X28632410Y12291316D01*
X28785483Y12330619D01*
X28923973Y12406754D01*
X28951023Y12429858D01*
X29071719Y12550555D01*
X29111948Y12577435D01*
X29159401Y12586874D01*
X30342822Y12586874D01*
X30390275Y12577435D01*
X30430503Y12550555D01*
X30526524Y12454534D01*
X30673358Y12363966D01*
X30837121Y12309700D01*
X30938197Y12299374D01*
X31511550Y12299375D01*
X31612627Y12309700D01*
X31614025Y12310164D01*
X31670772Y12308458D01*
X31722371Y12279456D01*
X31754648Y12229839D01*
X31760247Y12170913D01*
X31739757Y12120677D01*
X31739935Y12120579D01*
X31736183Y12113753D01*
X31736180Y12113748D01*
X31730285Y12103025D01*
X31719609Y12086773D01*
X31712109Y12077104D01*
X31712101Y12077093D01*
X31707327Y12070936D01*
X31704234Y12063792D01*
X31704229Y12063781D01*
X31689974Y12030840D01*
X31684838Y12020357D01*
X31678195Y12008273D01*
X31663803Y11982092D01*
X31661864Y11974544D01*
X31661863Y11974539D01*
X31658822Y11962693D01*
X31652521Y11944289D01*
X31647658Y11933052D01*
X31647656Y11933048D01*
X31644562Y11925896D01*
X31643342Y11918197D01*
X31643342Y11918195D01*
X31637729Y11882759D01*
X31635361Y11871324D01*
X31626438Y11836572D01*
X31626436Y11836564D01*
X31624500Y11829019D01*
X31624500Y11821223D01*
X31624500Y11808983D01*
X31622974Y11789598D01*
X31619840Y11769804D01*
X31620574Y11762039D01*
X31620574Y11762036D01*
X31623950Y11726324D01*
X31624500Y11714655D01*
X31624500Y11614958D01*
X31615061Y11567505D01*
X31588181Y11527277D01*
X31244995Y11184091D01*
X31204767Y11157211D01*
X31157314Y11147772D01*
X29243132Y11147772D01*
X29195679Y11157211D01*
X29155451Y11184091D01*
X28387061Y11952480D01*
X28385337Y11954204D01*
X28358287Y11977309D01*
X28283295Y12018536D01*
X28226634Y12049686D01*
X28226629Y12049688D01*
X28219797Y12053444D01*
X28212241Y12055384D01*
X28212239Y12055385D01*
X28074280Y12090807D01*
X28074279Y12090808D01*
X28066724Y12092747D01*
X27908685Y12092747D01*
X27901130Y12090808D01*
X27901128Y12090807D01*
X27763169Y12055385D01*
X27763164Y12055384D01*
X27755612Y12053444D01*
X27748781Y12049690D01*
X27748774Y12049686D01*
X27622677Y11980363D01*
X27622672Y11980360D01*
X27617123Y11977309D01*
X27612309Y11973198D01*
X27612304Y11973194D01*
X27591930Y11955793D01*
X27591914Y11955779D01*
X27590072Y11954205D01*
X27588353Y11952487D01*
X27588340Y11952474D01*
X27518027Y11882160D01*
X27462440Y11850066D01*
X27398252Y11850066D01*
X27342665Y11882160D01*
X27307190Y11917635D01*
X27302262Y11922563D01*
X27254649Y11952480D01*
X27155412Y12014835D01*
X27149522Y12018536D01*
X27142959Y12020833D01*
X27142956Y12020834D01*
X26985824Y12075817D01*
X26985819Y12075819D01*
X26979255Y12078115D01*
X26972335Y12078895D01*
X26972334Y12078895D01*
X26806923Y12097532D01*
X26800000Y12098312D01*
X26793077Y12097532D01*
X26627665Y12078895D01*
X26627662Y12078895D01*
X26620745Y12078115D01*
X26614182Y12075819D01*
X26614175Y12075817D01*
X26457043Y12020834D01*
X26457036Y12020832D01*
X26450478Y12018536D01*
X26444590Y12014837D01*
X26444587Y12014835D01*
X26303638Y11926271D01*
X26303633Y11926268D01*
X26297738Y11922563D01*
X26292813Y11917639D01*
X26292809Y11917635D01*
X26175112Y11799938D01*
X26175108Y11799934D01*
X26170184Y11795009D01*
X26166479Y11789114D01*
X26166476Y11789109D01*
X26082967Y11656204D01*
X26074211Y11642269D01*
X26074090Y11641926D01*
X26030121Y11592725D01*
X25964150Y11573720D01*
X21960306Y11573720D01*
X21949253Y11574241D01*
X21941867Y11575892D01*
X21934069Y11575647D01*
X21874679Y11573781D01*
X21870785Y11573720D01*
X21843184Y11573720D01*
X21839333Y11573234D01*
X21839302Y11573232D01*
X21839174Y11573215D01*
X21827563Y11572302D01*
X21791706Y11571175D01*
X21791699Y11571174D01*
X21783907Y11570929D01*
X21776422Y11568755D01*
X21776406Y11568752D01*
X21764660Y11565339D01*
X21745617Y11561395D01*
X21733483Y11559862D01*
X21733482Y11559862D01*
X21725742Y11558884D01*
X21718492Y11556015D01*
X21718485Y11556012D01*
X21685132Y11542807D01*
X21674088Y11539026D01*
X21639635Y11529016D01*
X21639624Y11529012D01*
X21632144Y11526838D01*
X21625432Y11522869D01*
X21625430Y11522868D01*
X21614898Y11516640D01*
X21597438Y11508086D01*
X21586053Y11503578D01*
X21586047Y11503576D01*
X21578802Y11500706D01*
X21572497Y11496126D01*
X21572489Y11496121D01*
X21543466Y11475035D01*
X21533708Y11468625D01*
X21502830Y11450363D01*
X21502824Y11450359D01*
X21496114Y11446390D01*
X21490601Y11440879D01*
X21490594Y11440872D01*
X21481944Y11432222D01*
X21467161Y11419596D01*
X21457260Y11412403D01*
X21457250Y11412394D01*
X21450947Y11407814D01*
X21445978Y11401809D01*
X21445975Y11401805D01*
X21423106Y11374161D01*
X21415245Y11365523D01*
X21269482Y11219760D01*
X21213895Y11187666D01*
X21149708Y11187666D01*
X21094121Y11219759D01*
X20925361Y11388518D01*
X20898310Y11411623D01*
X20768931Y11482750D01*
X20720008Y11531674D01*
X20717944Y11535428D01*
X20648882Y11661052D01*
X20625778Y11688103D01*
X20359676Y11954204D01*
X20332625Y11977309D01*
X20203244Y12048437D01*
X20154321Y12097361D01*
X20143912Y12116295D01*
X20083196Y12226737D01*
X20060092Y12253788D01*
X19793990Y12519889D01*
X19766939Y12542994D01*
X19724122Y12566533D01*
X19635287Y12615371D01*
X19635282Y12615373D01*
X19628450Y12619129D01*
X19620894Y12621069D01*
X19620892Y12621070D01*
X19482933Y12656492D01*
X19482932Y12656493D01*
X19475377Y12658432D01*
X19317338Y12658432D01*
X19309783Y12656493D01*
X19309781Y12656492D01*
X19171822Y12621070D01*
X19171817Y12621069D01*
X19164265Y12619129D01*
X19157434Y12615375D01*
X19157427Y12615371D01*
X19031333Y12546050D01*
X19031329Y12546048D01*
X19025775Y12542994D01*
X19020958Y12538881D01*
X19020951Y12538875D01*
X19000587Y12521481D01*
X19000578Y12521473D01*
X18998725Y12519890D01*
X18997004Y12518170D01*
X18996991Y12518157D01*
X18768256Y12289421D01*
X18728028Y12262541D01*
X18680575Y12253102D01*
X17695603Y12253102D01*
X17630506Y12271563D01*
X17569791Y12309012D01*
X17526390Y12335782D01*
X17519538Y12338053D01*
X17519535Y12338054D01*
X17419560Y12371182D01*
X17362627Y12390048D01*
X17355894Y12390736D01*
X17355889Y12390737D01*
X17264682Y12400055D01*
X17264665Y12400056D01*
X17261551Y12400374D01*
X17258402Y12400374D01*
X17049604Y12400374D01*
X17002151Y12409813D01*
X16961923Y12436693D01*
X16836693Y12561923D01*
X16809813Y12602151D01*
X16800374Y12649604D01*
X16800374Y14637472D01*
X16801683Y14655443D01*
X16802171Y14658783D01*
X16805163Y14679202D01*
X16800846Y14728548D01*
X16800374Y14739355D01*
X16800374Y14741278D01*
X16800374Y14744888D01*
X16797169Y14772301D01*
X16796777Y14775659D01*
X16796410Y14779250D01*
X16793139Y14816640D01*
X16789873Y14853976D01*
X16787600Y14860834D01*
X16786901Y14864222D01*
X16786846Y14864560D01*
X16786752Y14864893D01*
X16785953Y14868264D01*
X16785115Y14875434D01*
X16780607Y14887819D01*
X16759466Y14945905D01*
X16758282Y14949311D01*
X16751808Y14968848D01*
X16734688Y15020513D01*
X16730893Y15026666D01*
X16729438Y15029786D01*
X16729304Y15030110D01*
X16729133Y15030416D01*
X16727584Y15033499D01*
X16725111Y15040296D01*
X16683875Y15102991D01*
X16681960Y15105998D01*
X16681154Y15107304D01*
X16668953Y15127086D01*
X16646378Y15163687D01*
X16646375Y15163690D01*
X16642586Y15169834D01*
X16637479Y15174941D01*
X16635337Y15177650D01*
X16635131Y15177935D01*
X16634901Y15178186D01*
X16632670Y15180844D01*
X16628704Y15186875D01*
X16574148Y15238346D01*
X16571561Y15240859D01*
X16415278Y15397142D01*
X16385028Y15446505D01*
X16381827Y15456357D01*
X16329686Y15616830D01*
X16235040Y15780762D01*
X16183620Y15837869D01*
X16112727Y15916604D01*
X16112726Y15916605D01*
X16108378Y15921434D01*
X16103120Y15925254D01*
X16103118Y15925256D01*
X15960495Y16028877D01*
X15960494Y16028878D01*
X15955237Y16032697D01*
X15917374Y16049555D01*
X15788252Y16107045D01*
X15788247Y16107047D01*
X15782310Y16109690D01*
X15775951Y16111042D01*
X15775947Y16111043D01*
X15603515Y16147694D01*
X15603512Y16147695D01*
X15597153Y16149046D01*
X15455472Y16149046D01*
X15401671Y16161326D01*
X15358525Y16195733D01*
X15358022Y16196364D01*
X15354316Y16202262D01*
X15226762Y16329816D01*
X15196396Y16348896D01*
X15079912Y16422088D01*
X15074022Y16425789D01*
X15067459Y16428086D01*
X15067456Y16428087D01*
X14910325Y16483069D01*
X14903755Y16485368D01*
X14896833Y16486148D01*
X14814951Y16495374D01*
X14762863Y16513600D01*
X14723841Y16552622D01*
X14722087Y16555413D01*
X14629816Y16702262D01*
X14502262Y16829816D01*
X14452284Y16861219D01*
X14380171Y16906531D01*
X14349522Y16925789D01*
X14342959Y16928086D01*
X14342956Y16928087D01*
X14185824Y16983070D01*
X14185819Y16983072D01*
X14179255Y16985368D01*
X14172335Y16986148D01*
X14172334Y16986148D01*
X14006923Y17004785D01*
X14000000Y17005565D01*
X13993077Y17004785D01*
X13827665Y16986148D01*
X13827662Y16986148D01*
X13820745Y16985368D01*
X13814182Y16983072D01*
X13814175Y16983070D01*
X13657043Y16928087D01*
X13657036Y16928085D01*
X13650478Y16925789D01*
X13644590Y16922090D01*
X13644587Y16922088D01*
X13503638Y16833524D01*
X13503633Y16833521D01*
X13497738Y16829816D01*
X13492813Y16824892D01*
X13492809Y16824888D01*
X13375112Y16707191D01*
X13375108Y16707187D01*
X13370184Y16702262D01*
X13366479Y16696367D01*
X13366476Y16696362D01*
X13277912Y16555413D01*
X13277910Y16555410D01*
X13274211Y16549522D01*
X13271915Y16542964D01*
X13271913Y16542957D01*
X13216931Y16385828D01*
X13216929Y16385820D01*
X13214632Y16379255D01*
X13213852Y16372336D01*
X13213852Y16372334D01*
X13208114Y16321415D01*
X13188657Y16271281D01*
X13189935Y16270579D01*
X13187482Y16266116D01*
X13180285Y16253025D01*
X13169609Y16236773D01*
X13162109Y16227104D01*
X13162101Y16227093D01*
X13157327Y16220936D01*
X13154234Y16213792D01*
X13154229Y16213781D01*
X13139974Y16180840D01*
X13134838Y16170357D01*
X13117560Y16138927D01*
X13113803Y16132092D01*
X13111864Y16124544D01*
X13111863Y16124539D01*
X13108822Y16112693D01*
X13102521Y16094289D01*
X13097658Y16083052D01*
X13097656Y16083048D01*
X13094562Y16075896D01*
X13093342Y16068197D01*
X13093342Y16068195D01*
X13087729Y16032759D01*
X13085361Y16021324D01*
X13076438Y15986572D01*
X13076436Y15986564D01*
X13074500Y15979019D01*
X13074500Y15971223D01*
X13074500Y15958983D01*
X13072974Y15939598D01*
X13069840Y15919804D01*
X13070574Y15912039D01*
X13070574Y15912036D01*
X13073950Y15876324D01*
X13074500Y15864655D01*
X13074500Y14010452D01*
X13065061Y13962999D01*
X13038181Y13922771D01*
X12733352Y13617943D01*
X12693124Y13591063D01*
X12645671Y13581624D01*
X9647500Y13581624D01*
X9636447Y13582145D01*
X9629061Y13583796D01*
X9621263Y13583551D01*
X9561873Y13581685D01*
X9557979Y13581624D01*
X9530378Y13581624D01*
X9526527Y13581138D01*
X9526496Y13581136D01*
X9526368Y13581119D01*
X9514757Y13580206D01*
X9478900Y13579079D01*
X9478893Y13579078D01*
X9471101Y13578833D01*
X9463616Y13576659D01*
X9463600Y13576656D01*
X9451854Y13573243D01*
X9432811Y13569299D01*
X9420677Y13567766D01*
X9420676Y13567766D01*
X9412936Y13566788D01*
X9405686Y13563919D01*
X9405679Y13563916D01*
X9372326Y13550711D01*
X9361282Y13546930D01*
X9326833Y13536921D01*
X9326823Y13536917D01*
X9319338Y13534742D01*
X9312628Y13530775D01*
X9312626Y13530773D01*
X9309233Y13528767D01*
X9302088Y13524541D01*
X9284628Y13515988D01*
X9265996Y13508610D01*
X9259693Y13504032D01*
X9259686Y13504027D01*
X9230667Y13482943D01*
X9220907Y13476532D01*
X9190022Y13458267D01*
X9190012Y13458260D01*
X9183307Y13454294D01*
X9177791Y13448779D01*
X9177788Y13448776D01*
X9169135Y13440124D01*
X9154352Y13427498D01*
X9144455Y13420307D01*
X9144448Y13420301D01*
X9138141Y13415718D01*
X9133174Y13409716D01*
X9133163Y13409704D01*
X9110298Y13382065D01*
X9102438Y13373427D01*
X8640832Y12911819D01*
X8600604Y12884939D01*
X8553151Y12875500D01*
X7749953Y12875500D01*
X7693658Y12889015D01*
X7649635Y12926615D01*
X7627480Y12980102D01*
X7632022Y13037818D01*
X7662272Y13087181D01*
X8117333Y13542241D01*
X8744396Y14169305D01*
X8784625Y14196185D01*
X8832078Y14205624D01*
X9208123Y14205624D01*
X9210568Y14205624D01*
X9247443Y14208526D01*
X9405272Y14254380D01*
X9546739Y14338043D01*
X9662955Y14454259D01*
X9746618Y14595726D01*
X9792472Y14753555D01*
X9795374Y14790430D01*
X9795374Y16571818D01*
X9792472Y16608693D01*
X9746618Y16766522D01*
X9662955Y16907989D01*
X9648947Y16921997D01*
X9616853Y16977584D01*
X9616853Y17041771D01*
X9648944Y17097357D01*
X9791346Y17239759D01*
X9847854Y17272093D01*
X9912959Y17271341D01*
X9917074Y17270171D01*
X9922418Y17268100D01*
X10122898Y17230624D01*
X10321121Y17230624D01*
X10326850Y17230624D01*
X10527330Y17268100D01*
X10717511Y17341776D01*
X10890915Y17449143D01*
X10896644Y17454365D01*
X11023007Y17569561D01*
X11041638Y17586545D01*
X11164547Y17749303D01*
X11255456Y17931874D01*
X11259449Y17945911D01*
X11292049Y18000664D01*
X11347542Y18031997D01*
X11411268Y18031631D01*
X11466397Y17999661D01*
X11486524Y17979534D01*
X11633358Y17888966D01*
X11797121Y17834700D01*
X11898197Y17824374D01*
X12471550Y17824375D01*
X12572627Y17834700D01*
X12736390Y17888966D01*
X12883224Y17979534D01*
X13005214Y18101524D01*
X13095782Y18248358D01*
X13150048Y18412121D01*
X13160374Y18513197D01*
X13160373Y18901923D01*
X13169812Y18949375D01*
X13196689Y18989600D01*
X13322695Y19115606D01*
X13372056Y19145854D01*
X13429772Y19150396D01*
X13483259Y19128241D01*
G37*
%TD.AperFunction*%
%TA.AperFunction,Conductor*%
G36*
X43919552Y19931453D02*
G01*
X43959904Y19886826D01*
X43974500Y19828458D01*
X43974500Y17193625D01*
X43955722Y17128017D01*
X43905074Y17082280D01*
X43837898Y17070268D01*
X43822000Y17071892D01*
X43789806Y17075181D01*
X43789793Y17075182D01*
X43786677Y17075500D01*
X43783528Y17075500D01*
X43216473Y17075500D01*
X43216453Y17075500D01*
X43213324Y17075499D01*
X43210192Y17075180D01*
X43210190Y17075179D01*
X43118982Y17065863D01*
X43118972Y17065862D01*
X43112247Y17065174D01*
X43105826Y17063047D01*
X43105820Y17063045D01*
X42962199Y17015453D01*
X42899533Y17011437D01*
X42842936Y17038637D01*
X42806920Y17090076D01*
X42800723Y17152563D01*
X42821835Y17200728D01*
X42820340Y17201650D01*
X42843844Y17239756D01*
X42910908Y17348484D01*
X42965174Y17512247D01*
X42975500Y17613323D01*
X42975499Y18211676D01*
X42965174Y18312753D01*
X42910908Y18476516D01*
X42820340Y18623350D01*
X42698350Y18745340D01*
X42551516Y18835908D01*
X42544664Y18838179D01*
X42544661Y18838180D01*
X42452088Y18868856D01*
X42387753Y18890174D01*
X42381020Y18890862D01*
X42381015Y18890863D01*
X42289808Y18900181D01*
X42289791Y18900182D01*
X42286677Y18900500D01*
X42283528Y18900500D01*
X41716473Y18900500D01*
X41716453Y18900500D01*
X41713324Y18900499D01*
X41710192Y18900180D01*
X41710190Y18900179D01*
X41618982Y18890863D01*
X41618972Y18890862D01*
X41612247Y18890174D01*
X41605826Y18888047D01*
X41605820Y18888045D01*
X41455338Y18838180D01*
X41455332Y18838178D01*
X41448484Y18835908D01*
X41442340Y18832119D01*
X41442339Y18832118D01*
X41307799Y18749133D01*
X41301650Y18745340D01*
X41296542Y18740233D01*
X41296538Y18740229D01*
X41184771Y18628462D01*
X41184767Y18628458D01*
X41179660Y18623350D01*
X41175868Y18617203D01*
X41175867Y18617201D01*
X41096874Y18489132D01*
X41089092Y18476516D01*
X41086822Y18469668D01*
X41086820Y18469662D01*
X41039504Y18326870D01*
X41034826Y18312753D01*
X41034138Y18306023D01*
X41034137Y18306016D01*
X41024819Y18214809D01*
X41024818Y18214791D01*
X41024500Y18211677D01*
X41024500Y18208528D01*
X41024500Y17965847D01*
X41015471Y17919396D01*
X40989698Y17879710D01*
X40950941Y17852571D01*
X40797270Y17784151D01*
X40792016Y17780335D01*
X40792011Y17780331D01*
X40649388Y17676710D01*
X40649381Y17676705D01*
X40644129Y17672888D01*
X40639784Y17668063D01*
X40639779Y17668058D01*
X40521813Y17537044D01*
X40521808Y17537038D01*
X40517467Y17532216D01*
X40514222Y17526596D01*
X40514218Y17526590D01*
X40426069Y17373911D01*
X40426066Y17373906D01*
X40422821Y17368284D01*
X40420815Y17362112D01*
X40420813Y17362106D01*
X40366333Y17194436D01*
X40366331Y17194427D01*
X40364326Y17188256D01*
X40363648Y17181806D01*
X40363646Y17181796D01*
X40347352Y17026759D01*
X40344540Y17000000D01*
X40345219Y16993540D01*
X40363646Y16818205D01*
X40363647Y16818197D01*
X40364326Y16811744D01*
X40366331Y16805572D01*
X40366333Y16805565D01*
X40420664Y16638353D01*
X40422821Y16631716D01*
X40426068Y16626092D01*
X40426069Y16626090D01*
X40506864Y16486148D01*
X40517467Y16467784D01*
X40521811Y16462959D01*
X40521813Y16462957D01*
X40639779Y16331943D01*
X40644129Y16327112D01*
X40649387Y16323292D01*
X40649388Y16323291D01*
X40677172Y16303105D01*
X40797270Y16215849D01*
X40941390Y16151682D01*
X40988329Y16115172D01*
X41012874Y16061002D01*
X41009372Y16001634D01*
X40978631Y15950724D01*
X40612696Y15584789D01*
X40604511Y15577341D01*
X40598123Y15573286D01*
X40592788Y15567606D01*
X40592783Y15567601D01*
X40552096Y15524275D01*
X40549392Y15521484D01*
X40532628Y15504720D01*
X40532621Y15504713D01*
X40529880Y15501971D01*
X40527500Y15498904D01*
X40527489Y15498891D01*
X40527400Y15498775D01*
X40519842Y15489930D01*
X40495280Y15463773D01*
X40495273Y15463764D01*
X40489938Y15458082D01*
X40486182Y15451251D01*
X40486179Y15451246D01*
X40480285Y15440525D01*
X40469609Y15424273D01*
X40462109Y15414604D01*
X40462101Y15414593D01*
X40457327Y15408436D01*
X40454234Y15401292D01*
X40454229Y15401281D01*
X40439974Y15368340D01*
X40434838Y15357857D01*
X40417560Y15326427D01*
X40413803Y15319592D01*
X40411864Y15312044D01*
X40411863Y15312039D01*
X40408822Y15300193D01*
X40402521Y15281789D01*
X40397658Y15270552D01*
X40397656Y15270548D01*
X40394562Y15263396D01*
X40393342Y15255697D01*
X40393342Y15255695D01*
X40387729Y15220259D01*
X40385361Y15208824D01*
X40376438Y15174072D01*
X40376436Y15174064D01*
X40374500Y15166519D01*
X40374500Y15158723D01*
X40374500Y15146483D01*
X40372974Y15127098D01*
X40369840Y15107304D01*
X40370574Y15099539D01*
X40370574Y15099536D01*
X40373950Y15063824D01*
X40374500Y15052155D01*
X40374500Y13809452D01*
X40360985Y13753157D01*
X40323385Y13709134D01*
X40269898Y13686979D01*
X40212182Y13691521D01*
X40162819Y13721771D01*
X38487448Y15397142D01*
X36722271Y17162320D01*
X36690177Y17217907D01*
X36690177Y17282095D01*
X36722271Y17337682D01*
X37254941Y17870351D01*
X38471647Y19087057D01*
X39060234Y19675643D01*
X39100462Y19702523D01*
X39147915Y19711962D01*
X43221083Y19711962D01*
X43232138Y19711441D01*
X43239525Y19709789D01*
X43306730Y19711901D01*
X43310626Y19711962D01*
X43334306Y19711962D01*
X43338208Y19711962D01*
X43342171Y19712463D01*
X43353821Y19713382D01*
X43397485Y19714753D01*
X43416719Y19720343D01*
X43435775Y19724288D01*
X43455650Y19726798D01*
X43496253Y19742875D01*
X43507308Y19746660D01*
X43549248Y19758844D01*
X43566487Y19769040D01*
X43583961Y19777600D01*
X43595332Y19782102D01*
X43595334Y19782104D01*
X43602590Y19784976D01*
X43637927Y19810651D01*
X43647682Y19817059D01*
X43685278Y19839292D01*
X43699442Y19853457D01*
X43714237Y19866094D01*
X43730445Y19877868D01*
X43754955Y19907497D01*
X43803405Y19943167D01*
X43862943Y19951832D01*
X43919552Y19931453D01*
G37*
%TD.AperFunction*%
%TA.AperFunction,Conductor*%
G36*
X35188464Y21059906D02*
G01*
X35233027Y21019877D01*
X35253626Y20963628D01*
X35255079Y20950104D01*
X35255080Y20950098D01*
X35255909Y20942391D01*
X35258617Y20935128D01*
X35260211Y20928386D01*
X35260211Y20871363D01*
X35258617Y20864620D01*
X35255909Y20857357D01*
X35255080Y20849650D01*
X35255079Y20849644D01*
X35249855Y20801055D01*
X35249854Y20801043D01*
X35249500Y20797747D01*
X35249500Y20794426D01*
X35249500Y20794425D01*
X35249500Y19705314D01*
X35249500Y19705296D01*
X35249501Y19702002D01*
X35249853Y19698724D01*
X35249854Y19698713D01*
X35255079Y19650106D01*
X35255080Y19650101D01*
X35255909Y19642391D01*
X35258619Y19635125D01*
X35258620Y19635121D01*
X35285612Y19562752D01*
X35306204Y19507543D01*
X35311518Y19500444D01*
X35311519Y19500443D01*
X35370786Y19421272D01*
X35392454Y19392328D01*
X35507669Y19306078D01*
X35642517Y19255783D01*
X35702127Y19249374D01*
X36565421Y19249375D01*
X36621715Y19235860D01*
X36665738Y19198260D01*
X36687893Y19144773D01*
X36683351Y19087057D01*
X36653101Y19037694D01*
X35777228Y18161819D01*
X35737000Y18134939D01*
X35689547Y18125500D01*
X30421951Y18125500D01*
X30365656Y18139015D01*
X30321633Y18176615D01*
X30299478Y18230102D01*
X30304020Y18287818D01*
X30334270Y18337181D01*
X30644815Y18647726D01*
X30958142Y18961054D01*
X31013727Y18993146D01*
X31077914Y18993146D01*
X31091137Y18989603D01*
X31276966Y18939811D01*
X31512374Y18919215D01*
X31747782Y18939811D01*
X31976037Y19000971D01*
X32190203Y19100839D01*
X32383775Y19236379D01*
X32550869Y19403473D01*
X32686409Y19597045D01*
X32786277Y19811211D01*
X32847437Y20039466D01*
X32862874Y20215908D01*
X32862874Y20583840D01*
X32847437Y20760282D01*
X32808338Y20906204D01*
X32805102Y20918281D01*
X32803260Y20974566D01*
X32826501Y21025861D01*
X32870033Y21061586D01*
X32924877Y21074374D01*
X35130336Y21074374D01*
X35188464Y21059906D01*
G37*
%TD.AperFunction*%
%TA.AperFunction,Conductor*%
G36*
X39304511Y29986485D02*
G01*
X39348534Y29948885D01*
X39370689Y29895398D01*
X39366147Y29837682D01*
X39335897Y29788319D01*
X38959396Y29411819D01*
X38919168Y29384939D01*
X38871716Y29375500D01*
X38728141Y29375500D01*
X38728121Y29375500D01*
X38724992Y29375499D01*
X38721861Y29375180D01*
X38721857Y29375179D01*
X38628938Y29365688D01*
X38628928Y29365687D01*
X38622203Y29364999D01*
X38615781Y29362872D01*
X38615776Y29362870D01*
X38462520Y29312086D01*
X38462514Y29312084D01*
X38455666Y29309814D01*
X38449523Y29306026D01*
X38442972Y29302970D01*
X38442381Y29304237D01*
X38385133Y29288000D01*
X37501904Y29288000D01*
X37498763Y29288040D01*
X37417550Y29290098D01*
X37417547Y29290098D01*
X37411263Y29290257D01*
X37388240Y29286131D01*
X37353204Y29279852D01*
X37343880Y29278545D01*
X37291447Y29273212D01*
X37291433Y29273210D01*
X37285188Y29272574D01*
X37279194Y29270694D01*
X37279191Y29270693D01*
X37256152Y29263465D01*
X37240918Y29259726D01*
X37217165Y29255468D01*
X37210973Y29254358D01*
X37205140Y29252029D01*
X37205122Y29252023D01*
X37156193Y29232479D01*
X37147323Y29229321D01*
X37097037Y29213543D01*
X37097022Y29213537D01*
X37091038Y29211659D01*
X37085548Y29208613D01*
X37085541Y29208609D01*
X37064435Y29196895D01*
X37050266Y29190166D01*
X37027849Y29181211D01*
X37027839Y29181207D01*
X37022009Y29178877D01*
X37016766Y29175422D01*
X37016757Y29175417D01*
X36972749Y29146414D01*
X36964699Y29141537D01*
X36913124Y29112909D01*
X36908355Y29108816D01*
X36908352Y29108813D01*
X36890040Y29093093D01*
X36877513Y29083648D01*
X36857357Y29070364D01*
X36857345Y29070355D01*
X36852107Y29066902D01*
X36847670Y29062466D01*
X36847666Y29062462D01*
X36832890Y29047686D01*
X36821893Y29036690D01*
X36781668Y29009813D01*
X36734217Y29000374D01*
X36555439Y29000374D01*
X36555420Y29000374D01*
X36552128Y29000373D01*
X36548850Y29000021D01*
X36548838Y29000020D01*
X36500231Y28994795D01*
X36500225Y28994794D01*
X36492517Y28993965D01*
X36485252Y28991256D01*
X36485246Y28991254D01*
X36365980Y28946770D01*
X36365978Y28946770D01*
X36357669Y28943670D01*
X36350572Y28938358D01*
X36350568Y28938355D01*
X36249550Y28862733D01*
X36249546Y28862730D01*
X36242454Y28857420D01*
X36237144Y28850328D01*
X36237141Y28850324D01*
X36161519Y28749306D01*
X36161516Y28749302D01*
X36156204Y28742205D01*
X36153104Y28733896D01*
X36153104Y28733894D01*
X36108620Y28614627D01*
X36108619Y28614624D01*
X36105909Y28607357D01*
X36105079Y28599647D01*
X36105079Y28599642D01*
X36099855Y28551055D01*
X36099854Y28551043D01*
X36099500Y28547747D01*
X36099500Y28544426D01*
X36099500Y28544425D01*
X36099500Y27555314D01*
X36099500Y27555296D01*
X36099501Y27552002D01*
X36099853Y27548724D01*
X36099854Y27548713D01*
X36105079Y27500106D01*
X36105080Y27500101D01*
X36105909Y27492391D01*
X36108619Y27485125D01*
X36108620Y27485121D01*
X36115707Y27466121D01*
X36156204Y27357543D01*
X36161518Y27350444D01*
X36161519Y27350443D01*
X36227042Y27262915D01*
X36242454Y27242328D01*
X36357669Y27156078D01*
X36492517Y27105783D01*
X36552127Y27099374D01*
X36905767Y27099375D01*
X36933798Y27096165D01*
X36956932Y27090797D01*
X37122946Y27052271D01*
X37326363Y27047117D01*
X37526653Y27083016D01*
X37532491Y27085349D01*
X37532494Y27085349D01*
X37545457Y27090527D01*
X37591457Y27099375D01*
X37944561Y27099375D01*
X37947872Y27099375D01*
X38007483Y27105783D01*
X38142331Y27156078D01*
X38257546Y27242328D01*
X38262860Y27249428D01*
X38264112Y27250679D01*
X38304341Y27277560D01*
X38351795Y27287000D01*
X38385133Y27287000D01*
X38442381Y27270764D01*
X38442972Y27272030D01*
X38449521Y27268977D01*
X38455666Y27265186D01*
X38622203Y27210001D01*
X38724991Y27199500D01*
X39775008Y27199501D01*
X39877797Y27210001D01*
X40044334Y27265186D01*
X40193656Y27357288D01*
X40317712Y27481344D01*
X40409814Y27630666D01*
X40464999Y27797203D01*
X40475500Y27899991D01*
X40475499Y28046720D01*
X40484938Y28094172D01*
X40511813Y28134395D01*
X40840603Y28463184D01*
X40880829Y28490061D01*
X40928282Y28499500D01*
X40977792Y28499500D01*
X41043502Y28480658D01*
X41089242Y28429858D01*
X41101112Y28362540D01*
X41094540Y28300000D01*
X41095219Y28293540D01*
X41113646Y28118205D01*
X41113647Y28118197D01*
X41114326Y28111744D01*
X41116331Y28105572D01*
X41116333Y28105565D01*
X41151247Y27998111D01*
X41156435Y27945040D01*
X41138856Y27894698D01*
X41092882Y27820161D01*
X41089092Y27814016D01*
X41086821Y27807165D01*
X41086820Y27807161D01*
X41045217Y27681610D01*
X41034826Y27650253D01*
X41034138Y27643523D01*
X41034137Y27643516D01*
X41024819Y27552309D01*
X41024818Y27552291D01*
X41024500Y27549177D01*
X41024500Y27546030D01*
X41024500Y27546029D01*
X41024500Y26953974D01*
X41024500Y26953955D01*
X41024501Y26950824D01*
X41024820Y26947692D01*
X41024821Y26947691D01*
X41034137Y26856483D01*
X41034138Y26856475D01*
X41034826Y26849747D01*
X41036954Y26843325D01*
X41036955Y26843321D01*
X41082495Y26705890D01*
X41089092Y26685984D01*
X41179660Y26539150D01*
X41184771Y26534039D01*
X41293629Y26425181D01*
X41325723Y26369594D01*
X41325723Y26305406D01*
X41293629Y26249819D01*
X41184771Y26140962D01*
X41184767Y26140958D01*
X41179660Y26135850D01*
X41175868Y26129703D01*
X41175867Y26129701D01*
X41093046Y25995426D01*
X41089092Y25989016D01*
X41086822Y25982168D01*
X41086820Y25982162D01*
X41046839Y25861505D01*
X41034826Y25825253D01*
X41034138Y25818523D01*
X41034137Y25818516D01*
X41024819Y25727309D01*
X41024818Y25727291D01*
X41024500Y25724177D01*
X41024500Y25721028D01*
X41024500Y25383105D01*
X41015793Y25337458D01*
X40990893Y25298222D01*
X40970276Y25276268D01*
X40970271Y25276262D01*
X40964938Y25270582D01*
X40961182Y25263751D01*
X40961179Y25263746D01*
X40955285Y25253025D01*
X40944609Y25236773D01*
X40937109Y25227104D01*
X40937101Y25227093D01*
X40932327Y25220936D01*
X40929234Y25213792D01*
X40929229Y25213781D01*
X40914974Y25180840D01*
X40909838Y25170357D01*
X40888803Y25132092D01*
X40886864Y25124544D01*
X40886863Y25124539D01*
X40883822Y25112693D01*
X40877521Y25094289D01*
X40872658Y25083052D01*
X40872656Y25083048D01*
X40869562Y25075896D01*
X40868342Y25068197D01*
X40868342Y25068195D01*
X40862729Y25032759D01*
X40860361Y25021324D01*
X40851438Y24986572D01*
X40851436Y24986564D01*
X40849500Y24979019D01*
X40849500Y24971223D01*
X40849500Y24958983D01*
X40847974Y24939598D01*
X40844840Y24919804D01*
X40845574Y24912039D01*
X40845574Y24912036D01*
X40848950Y24876324D01*
X40849500Y24864655D01*
X40849500Y21602775D01*
X40848978Y21591720D01*
X40847327Y21584333D01*
X40847571Y21576547D01*
X40847571Y21576539D01*
X40849439Y21517127D01*
X40849500Y21513232D01*
X40849500Y21485650D01*
X40849988Y21481781D01*
X40849989Y21481775D01*
X40850004Y21481657D01*
X40850918Y21470034D01*
X40852045Y21434170D01*
X40852046Y21434163D01*
X40852291Y21426373D01*
X40854467Y21418881D01*
X40854468Y21418879D01*
X40857879Y21407138D01*
X40861825Y21388085D01*
X40864336Y21368208D01*
X40867206Y21360958D01*
X40867208Y21360952D01*
X40880414Y21327596D01*
X40884197Y21316549D01*
X40896382Y21274610D01*
X40900353Y21267895D01*
X40900354Y21267893D01*
X40906581Y21257363D01*
X40915136Y21239901D01*
X40919642Y21228520D01*
X40919643Y21228517D01*
X40922514Y21221268D01*
X40944440Y21191088D01*
X40948181Y21185940D01*
X40954594Y21176177D01*
X40970026Y21150083D01*
X40987290Y21087936D01*
X40971004Y21025525D01*
X40925575Y20979738D01*
X40863294Y20962962D01*
X38915233Y20962962D01*
X38904180Y20963483D01*
X38896794Y20965134D01*
X38888996Y20964889D01*
X38829606Y20963023D01*
X38825712Y20962962D01*
X38798112Y20962962D01*
X38794261Y20962476D01*
X38794230Y20962474D01*
X38794102Y20962457D01*
X38782491Y20961544D01*
X38746634Y20960417D01*
X38746627Y20960416D01*
X38738835Y20960171D01*
X38731350Y20957997D01*
X38731334Y20957994D01*
X38719588Y20954581D01*
X38700545Y20950637D01*
X38695181Y20949960D01*
X38683679Y20948507D01*
X38628369Y20954078D01*
X38581049Y20983257D01*
X38551233Y21030179D01*
X38544916Y21085410D01*
X38555067Y21175500D01*
X38534870Y21354755D01*
X38475291Y21525022D01*
X38379318Y21677762D01*
X38251764Y21805316D01*
X38099024Y21901289D01*
X38092461Y21903586D01*
X38092458Y21903587D01*
X37935327Y21958569D01*
X37928757Y21960868D01*
X37921835Y21961648D01*
X37860615Y21968546D01*
X37804647Y21989313D01*
X37764869Y22033825D01*
X37750499Y22091766D01*
X37750499Y22094435D01*
X37750499Y22097746D01*
X37744091Y22157357D01*
X37741379Y22164628D01*
X37739789Y22171358D01*
X37739789Y22228396D01*
X37741375Y22235112D01*
X37744091Y22242391D01*
X37750500Y22302001D01*
X37750499Y23397746D01*
X37744091Y23457357D01*
X37693796Y23592205D01*
X37607546Y23707420D01*
X37559069Y23743710D01*
X37524550Y23783548D01*
X37509698Y23834129D01*
X37517200Y23886309D01*
X37545697Y23930652D01*
X37678105Y24063060D01*
X37718330Y24089936D01*
X37765783Y24099375D01*
X37944561Y24099375D01*
X37947872Y24099375D01*
X38007483Y24105783D01*
X38142331Y24156078D01*
X38257546Y24242328D01*
X38343796Y24357543D01*
X38394091Y24492391D01*
X38400500Y24552001D01*
X38400499Y25547746D01*
X38394091Y25607357D01*
X38343796Y25742205D01*
X38257546Y25857420D01*
X38202074Y25898946D01*
X38149431Y25938355D01*
X38149430Y25938356D01*
X38142331Y25943670D01*
X38007483Y25993965D01*
X37999770Y25994795D01*
X37999767Y25994795D01*
X37951180Y26000019D01*
X37951169Y26000020D01*
X37947873Y26000374D01*
X37944551Y26000374D01*
X37594227Y26000374D01*
X37566197Y26003584D01*
X37383179Y26046055D01*
X37383173Y26046056D01*
X37377053Y26047476D01*
X37370772Y26047636D01*
X37370766Y26047636D01*
X37179924Y26052471D01*
X37179921Y26052471D01*
X37173637Y26052630D01*
X37167451Y26051522D01*
X37167446Y26051521D01*
X36979534Y26017842D01*
X36979523Y26017840D01*
X36973347Y26016732D01*
X36967516Y26014404D01*
X36967509Y26014401D01*
X36954537Y26009219D01*
X36908544Y26000374D01*
X36555439Y26000374D01*
X36555420Y26000374D01*
X36552128Y26000373D01*
X36548850Y26000021D01*
X36548838Y26000020D01*
X36500231Y25994795D01*
X36500225Y25994794D01*
X36492517Y25993965D01*
X36485252Y25991256D01*
X36485246Y25991254D01*
X36365980Y25946770D01*
X36365978Y25946770D01*
X36357669Y25943670D01*
X36350572Y25938358D01*
X36350568Y25938355D01*
X36249550Y25862733D01*
X36249546Y25862730D01*
X36242454Y25857420D01*
X36237144Y25850328D01*
X36237141Y25850324D01*
X36161519Y25749306D01*
X36161516Y25749302D01*
X36156204Y25742205D01*
X36153104Y25733896D01*
X36153104Y25733894D01*
X36108620Y25614627D01*
X36108619Y25614624D01*
X36105909Y25607357D01*
X36105079Y25599647D01*
X36105079Y25599642D01*
X36102295Y25573744D01*
X36081696Y25517497D01*
X36037133Y25477468D01*
X35979006Y25463000D01*
X32864867Y25463000D01*
X32807618Y25479237D01*
X32807028Y25477970D01*
X32800477Y25481025D01*
X32794334Y25484814D01*
X32787482Y25487085D01*
X32787479Y25487086D01*
X32634225Y25537869D01*
X32634224Y25537870D01*
X32627797Y25539999D01*
X32621064Y25540687D01*
X32621059Y25540688D01*
X32528140Y25550181D01*
X32528123Y25550182D01*
X32525009Y25550500D01*
X32521860Y25550500D01*
X31478140Y25550500D01*
X31478120Y25550500D01*
X31474992Y25550499D01*
X31471860Y25550180D01*
X31471858Y25550179D01*
X31378938Y25540688D01*
X31378928Y25540687D01*
X31372203Y25539999D01*
X31365781Y25537872D01*
X31365776Y25537870D01*
X31212521Y25487086D01*
X31212517Y25487085D01*
X31205666Y25484814D01*
X31199522Y25481025D01*
X31199519Y25481023D01*
X31062488Y25396503D01*
X31062480Y25396497D01*
X31056344Y25392712D01*
X31051242Y25387611D01*
X31051238Y25387607D01*
X31000325Y25336693D01*
X30960097Y25309813D01*
X30912644Y25300374D01*
X30211632Y25300374D01*
X30208521Y25300058D01*
X30208508Y25300057D01*
X30066188Y25285584D01*
X30066185Y25285584D01*
X30059936Y25284948D01*
X30053938Y25283067D01*
X30053937Y25283066D01*
X29871789Y25225917D01*
X29871784Y25225915D01*
X29865786Y25224033D01*
X29860290Y25220983D01*
X29860284Y25220980D01*
X29693371Y25128336D01*
X29693365Y25128332D01*
X29687872Y25125283D01*
X29683107Y25121194D01*
X29683102Y25121189D01*
X29538247Y24996834D01*
X29538242Y24996830D01*
X29533479Y24992740D01*
X29529636Y24987776D01*
X29529629Y24987768D01*
X29408926Y24831832D01*
X29407166Y24833194D01*
X29369568Y24797714D01*
X29308519Y24782546D01*
X29247882Y24799288D01*
X29203264Y24843631D01*
X29176160Y24889674D01*
X29176153Y24889683D01*
X29172964Y24895101D01*
X29162170Y24907048D01*
X29150641Y24921941D01*
X29145235Y24930144D01*
X29141776Y24935393D01*
X29089989Y24987180D01*
X29085661Y24991732D01*
X29084750Y24992740D01*
X29036553Y25046087D01*
X29023567Y25055623D01*
X29009280Y25067889D01*
X28832694Y25244475D01*
X28639474Y25437694D01*
X28609225Y25487056D01*
X28604683Y25544772D01*
X28626838Y25598259D01*
X28670861Y25635859D01*
X28727156Y25649374D01*
X29465752Y25649374D01*
X29468529Y25649374D01*
X29636562Y25664497D01*
X29853544Y25724381D01*
X30056347Y25822045D01*
X30238452Y25954352D01*
X30394006Y26117049D01*
X30518009Y26304906D01*
X30606477Y26511886D01*
X30656565Y26731337D01*
X30666664Y26956204D01*
X30636449Y27179261D01*
X30584517Y27339092D01*
X30568612Y27388042D01*
X30568611Y27388045D01*
X30566891Y27393338D01*
X30500969Y27515842D01*
X30462861Y27586659D01*
X30462859Y27586662D01*
X30460226Y27591555D01*
X30441481Y27615060D01*
X30323351Y27763190D01*
X30319882Y27767540D01*
X30307892Y27778015D01*
X30230769Y27845396D01*
X30150370Y27915639D01*
X30145592Y27918494D01*
X30145589Y27918496D01*
X29961919Y28028233D01*
X29961914Y28028236D01*
X29957138Y28031089D01*
X29904085Y28051000D01*
X29751613Y28108224D01*
X29751610Y28108225D01*
X29746398Y28110181D01*
X29740920Y28111176D01*
X29740917Y28111176D01*
X29530404Y28149379D01*
X29530403Y28149380D01*
X29524921Y28150374D01*
X28556219Y28150374D01*
X28553471Y28150127D01*
X28553455Y28150126D01*
X28393734Y28135751D01*
X28393726Y28135750D01*
X28388186Y28135251D01*
X28382822Y28133771D01*
X28382813Y28133769D01*
X28176575Y28076850D01*
X28176568Y28076848D01*
X28171204Y28075367D01*
X28166186Y28072951D01*
X28166182Y28072949D01*
X27973422Y27980122D01*
X27973413Y27980117D01*
X27968401Y27977703D01*
X27963899Y27974433D01*
X27963892Y27974428D01*
X27790803Y27848671D01*
X27790799Y27848669D01*
X27786296Y27845396D01*
X27782457Y27841382D01*
X27782448Y27841373D01*
X27634592Y27686727D01*
X27634586Y27686720D01*
X27630742Y27682699D01*
X27627673Y27678051D01*
X27627670Y27678046D01*
X27509809Y27499494D01*
X27509805Y27499488D01*
X27506739Y27494842D01*
X27504552Y27489726D01*
X27504547Y27489716D01*
X27420462Y27292990D01*
X27420459Y27292982D01*
X27418271Y27287862D01*
X27417031Y27282433D01*
X27417030Y27282427D01*
X27373231Y27090527D01*
X27368183Y27068411D01*
X27367933Y27062855D01*
X27367932Y27062844D01*
X27363043Y26953972D01*
X27358084Y26843544D01*
X27358829Y26838041D01*
X27358830Y26838030D01*
X27384979Y26644995D01*
X27388299Y26620487D01*
X27390018Y26615194D01*
X27390020Y26615189D01*
X27456135Y26411707D01*
X27456138Y26411699D01*
X27457857Y26406410D01*
X27468403Y26386813D01*
X27558676Y26219055D01*
X27564522Y26208193D01*
X27567233Y26204794D01*
X27587493Y26142437D01*
X27572812Y26078114D01*
X27527217Y26030426D01*
X27463618Y26012874D01*
X26627241Y26012874D01*
X26569992Y26029111D01*
X26569402Y26027844D01*
X26562851Y26030899D01*
X26556708Y26034688D01*
X26549856Y26036959D01*
X26549853Y26036960D01*
X26396599Y26087743D01*
X26396598Y26087744D01*
X26390171Y26089873D01*
X26383438Y26090561D01*
X26383433Y26090562D01*
X26290514Y26100055D01*
X26290497Y26100056D01*
X26287383Y26100374D01*
X26284234Y26100374D01*
X25240514Y26100374D01*
X25240494Y26100374D01*
X25237366Y26100373D01*
X25234234Y26100054D01*
X25234232Y26100053D01*
X25141312Y26090562D01*
X25141302Y26090561D01*
X25134577Y26089873D01*
X25128155Y26087746D01*
X25128150Y26087744D01*
X24974894Y26036960D01*
X24974888Y26036958D01*
X24968040Y26034688D01*
X24961897Y26030900D01*
X24955346Y26027844D01*
X24954755Y26029111D01*
X24897507Y26012874D01*
X24367638Y26012874D01*
X24332019Y26018100D01*
X24299402Y26033337D01*
X24295783Y26035723D01*
X24290907Y26039698D01*
X24287240Y26041614D01*
X24250110Y26080183D01*
X24232800Y26131891D01*
X24239347Y26186025D01*
X24268481Y26232115D01*
X24285516Y26249150D01*
X24299140Y26260924D01*
X24318404Y26275264D01*
X24350240Y26313207D01*
X24357554Y26321186D01*
X24358138Y26321771D01*
X24361465Y26325097D01*
X24380707Y26349435D01*
X24382964Y26352204D01*
X24423527Y26400545D01*
X24431176Y26409660D01*
X24434422Y26416126D01*
X24436310Y26418995D01*
X24436519Y26419285D01*
X24436693Y26419596D01*
X24438498Y26422524D01*
X24442985Y26428197D01*
X24474708Y26496229D01*
X24476223Y26499360D01*
X24509914Y26566441D01*
X24511582Y26573483D01*
X24512752Y26576696D01*
X24512896Y26577044D01*
X24512992Y26577382D01*
X24514073Y26580647D01*
X24517131Y26587201D01*
X24532324Y26660786D01*
X24533060Y26664103D01*
X24550374Y26737153D01*
X24550374Y26744385D01*
X24550774Y26747807D01*
X24550831Y26748160D01*
X24550846Y26748500D01*
X24551147Y26751943D01*
X24552608Y26759018D01*
X24550426Y26834004D01*
X24550374Y26837611D01*
X24550374Y27129191D01*
X24562766Y27183224D01*
X24597464Y27226458D01*
X24599880Y27228370D01*
X24606030Y27232162D01*
X24730086Y27356218D01*
X24817479Y27497907D01*
X24857919Y27538347D01*
X24912209Y27556336D01*
X24952671Y27559875D01*
X24959527Y27562148D01*
X24962917Y27562847D01*
X24963249Y27562901D01*
X24963602Y27563001D01*
X24966945Y27563794D01*
X24974129Y27564633D01*
X25044634Y27590295D01*
X25047992Y27591462D01*
X25119208Y27615060D01*
X25125360Y27618856D01*
X25128481Y27620310D01*
X25128803Y27620444D01*
X25129112Y27620616D01*
X25132189Y27622162D01*
X25138991Y27624637D01*
X25201711Y27665890D01*
X25204606Y27667734D01*
X25268530Y27707162D01*
X25273637Y27712271D01*
X25276350Y27714415D01*
X25276632Y27714620D01*
X25276903Y27714867D01*
X25279532Y27717074D01*
X25285570Y27721044D01*
X25337061Y27775623D01*
X25339506Y27778140D01*
X25652772Y28091407D01*
X25681283Y28112696D01*
X25714667Y28125012D01*
X25779803Y28138856D01*
X25952730Y28215849D01*
X26105871Y28327112D01*
X26232533Y28467784D01*
X26327179Y28631716D01*
X26385674Y28811744D01*
X26405460Y29000000D01*
X26385674Y29188256D01*
X26327179Y29368284D01*
X26232533Y29532216D01*
X26224636Y29540986D01*
X26110220Y29668058D01*
X26110219Y29668059D01*
X26105871Y29672888D01*
X26100613Y29676708D01*
X26100611Y29676710D01*
X25964387Y29775682D01*
X25925073Y29823203D01*
X25913517Y29883786D01*
X25932575Y29942442D01*
X25977535Y29984662D01*
X26037272Y30000000D01*
X39248216Y30000000D01*
X39304511Y29986485D01*
G37*
%TD.AperFunction*%
%TA.AperFunction,Conductor*%
G36*
X14989556Y22166854D02*
G01*
X15040480Y22121111D01*
X15059374Y22055318D01*
X15059374Y22033977D01*
X15043902Y21973996D01*
X15001346Y21928983D01*
X14889009Y21858398D01*
X14889004Y21858395D01*
X14883109Y21854690D01*
X14878184Y21849766D01*
X14878180Y21849762D01*
X14760483Y21732065D01*
X14760479Y21732061D01*
X14755555Y21727136D01*
X14751850Y21721241D01*
X14751847Y21721236D01*
X14663283Y21580287D01*
X14663281Y21580284D01*
X14659582Y21574396D01*
X14657287Y21567838D01*
X14657281Y21567825D01*
X14652162Y21553195D01*
X14618778Y21502625D01*
X14565417Y21473912D01*
X14504822Y21473913D01*
X14451462Y21502628D01*
X14418080Y21553200D01*
X14412961Y21567829D01*
X14412960Y21567831D01*
X14410663Y21574396D01*
X14329379Y21703758D01*
X14310374Y21769729D01*
X14310374Y22055210D01*
X14324799Y22113256D01*
X14364718Y22157796D01*
X14420843Y22178469D01*
X14421344Y22178524D01*
X14448125Y22178554D01*
X14487001Y22174374D01*
X14882746Y22174375D01*
X14922121Y22178608D01*
X14989556Y22166854D01*
G37*
%TD.AperFunction*%
%TA.AperFunction,Conductor*%
G36*
X43389360Y27745696D02*
G01*
X43429588Y27718816D01*
X44463181Y26685223D01*
X44490061Y26644995D01*
X44499500Y26597542D01*
X44499500Y26256052D01*
X44485985Y26199757D01*
X44448385Y26155734D01*
X44394898Y26133579D01*
X44337182Y26138121D01*
X44287819Y26168371D01*
X44203461Y26252729D01*
X44198350Y26257840D01*
X44051516Y26348408D01*
X44044664Y26350679D01*
X44044661Y26350680D01*
X43916612Y26393111D01*
X43887753Y26402674D01*
X43881020Y26403362D01*
X43881015Y26403363D01*
X43789808Y26412681D01*
X43789791Y26412682D01*
X43786677Y26413000D01*
X43783528Y26413000D01*
X43216473Y26413000D01*
X43216453Y26413000D01*
X43213324Y26412999D01*
X43210192Y26412680D01*
X43210190Y26412679D01*
X43118982Y26403363D01*
X43118972Y26403362D01*
X43112247Y26402674D01*
X43105826Y26400547D01*
X43105820Y26400545D01*
X42962199Y26352953D01*
X42899533Y26348937D01*
X42842936Y26376137D01*
X42806920Y26427576D01*
X42800723Y26490063D01*
X42821835Y26538228D01*
X42820340Y26539150D01*
X42837173Y26566441D01*
X42910908Y26685984D01*
X42965174Y26849747D01*
X42975500Y26950823D01*
X42975499Y27549176D01*
X42968684Y27615888D01*
X42974949Y27669293D01*
X43003237Y27715028D01*
X43048227Y27744486D01*
X43101457Y27752127D01*
X43125476Y27750298D01*
X43155651Y27754142D01*
X43171317Y27755135D01*
X43341907Y27755135D01*
X43389360Y27745696D01*
G37*
%TD.AperFunction*%
%TD*%
M02*
