%TF.GenerationSoftware,KiCad,Pcbnew,(7.0.0)*%
%TF.CreationDate,2023-06-11T18:09:49+09:00*%
%TF.ProjectId,rMDU,724d4455-2e6b-4696-9361-645f70636258,rev?*%
%TF.SameCoordinates,Original*%
%TF.FileFunction,Copper,L2,Inr*%
%TF.FilePolarity,Positive*%
%FSLAX46Y46*%
G04 Gerber Fmt 4.6, Leading zero omitted, Abs format (unit mm)*
G04 Created by KiCad (PCBNEW (7.0.0)) date 2023-06-11 18:09:49*
%MOMM*%
%LPD*%
G01*
G04 APERTURE LIST*
G04 Aperture macros list*
%AMRoundRect*
0 Rectangle with rounded corners*
0 $1 Rounding radius*
0 $2 $3 $4 $5 $6 $7 $8 $9 X,Y pos of 4 corners*
0 Add a 4 corners polygon primitive as box body*
4,1,4,$2,$3,$4,$5,$6,$7,$8,$9,$2,$3,0*
0 Add four circle primitives for the rounded corners*
1,1,$1+$1,$2,$3*
1,1,$1+$1,$4,$5*
1,1,$1+$1,$6,$7*
1,1,$1+$1,$8,$9*
0 Add four rect primitives between the rounded corners*
20,1,$1+$1,$2,$3,$4,$5,0*
20,1,$1+$1,$4,$5,$6,$7,0*
20,1,$1+$1,$6,$7,$8,$9,0*
20,1,$1+$1,$8,$9,$2,$3,0*%
G04 Aperture macros list end*
%TA.AperFunction,ComponentPad*%
%ADD10C,5.500000*%
%TD*%
%TA.AperFunction,ComponentPad*%
%ADD11RoundRect,0.250000X-0.600000X-0.725000X0.600000X-0.725000X0.600000X0.725000X-0.600000X0.725000X0*%
%TD*%
%TA.AperFunction,ComponentPad*%
%ADD12O,1.700000X1.950000*%
%TD*%
%TA.AperFunction,ComponentPad*%
%ADD13C,1.400000*%
%TD*%
%TA.AperFunction,ComponentPad*%
%ADD14R,3.000000X3.000000*%
%TD*%
%TA.AperFunction,ComponentPad*%
%ADD15C,3.000000*%
%TD*%
%TA.AperFunction,ComponentPad*%
%ADD16O,1.000000X1.600000*%
%TD*%
%TA.AperFunction,ComponentPad*%
%ADD17O,1.000000X2.100000*%
%TD*%
%TA.AperFunction,ComponentPad*%
%ADD18C,2.400000*%
%TD*%
%TA.AperFunction,ComponentPad*%
%ADD19C,1.200000*%
%TD*%
%TA.AperFunction,ViaPad*%
%ADD20C,0.800000*%
%TD*%
%TA.AperFunction,ViaPad*%
%ADD21C,0.600000*%
%TD*%
%TA.AperFunction,Conductor*%
%ADD22C,0.500000*%
%TD*%
%TA.AperFunction,Conductor*%
%ADD23C,0.250000*%
%TD*%
G04 APERTURE END LIST*
D10*
%TO.N,GND*%
%TO.C,H2*%
X2974874Y26974874D03*
%TD*%
%TO.N,GND*%
%TO.C,H1*%
X74500000Y2974874D03*
%TD*%
%TO.N,GND*%
%TO.C,H4*%
X74500000Y26974874D03*
%TD*%
%TO.N,GND*%
%TO.C,H3*%
X2974874Y2974874D03*
%TD*%
D11*
%TO.N,/MCU/PB5*%
%TO.C,ENC1*%
X24012374Y20399874D03*
D12*
%TO.N,Net-(ENC1-Pin_2)*%
X26512373Y20399873D03*
%TO.N,/MCU/PB4*%
X29012373Y20399873D03*
%TO.N,/MCU/PB3*%
X31512373Y20399873D03*
%TO.N,GND*%
X34012373Y20399873D03*
%TD*%
D13*
%TO.N,*%
%TO.C,OUT1*%
X76375000Y8250000D03*
X76375000Y21250000D03*
D14*
%TO.N,/BRIDGE/OUT*%
X71374999Y18249999D03*
D15*
%TO.N,/BRIDGE1/OUT*%
X71375000Y14750000D03*
%TO.N,/BRIDGE2/OUT*%
X71375000Y11250000D03*
%TD*%
D16*
%TO.N,GND*%
%TO.C,J2*%
X10974873Y27404873D03*
D17*
X10974873Y23224873D03*
D16*
X19614873Y27404873D03*
D17*
X19614873Y23224873D03*
%TD*%
D18*
%TO.N,+BATT*%
%TO.C,IN1*%
X11474874Y9481124D03*
%TO.N,GND*%
X11474874Y14481124D03*
D19*
%TO.N,/CAN/CAN-H*%
X8224874Y18331124D03*
%TO.N,/CAN/CAN-L*%
X10224874Y18331124D03*
%TD*%
D20*
%TO.N,GND*%
X36250000Y5000000D03*
D21*
X17400000Y15700000D03*
D20*
X25750000Y1000000D03*
X4750000Y8750000D03*
X16800000Y4700000D03*
X4000000Y12250000D03*
X34600000Y27900000D03*
X42500000Y10000000D03*
X35800000Y27900000D03*
X42900000Y11500000D03*
X31000000Y3250000D03*
X39200000Y19612962D03*
X41255923Y3019533D03*
X33600000Y27900000D03*
X26800000Y28100000D03*
X40200000Y21500000D03*
%TO.N,+3.3V*%
X15502507Y15248546D03*
X64800000Y19600000D03*
X64800000Y9400000D03*
X30181538Y15818462D03*
X65000000Y29100000D03*
X25500000Y29000000D03*
X36500000Y20249874D03*
X10750000Y20250000D03*
D21*
%TO.N,/BRIDGE/OUT*%
X61100000Y26000000D03*
X58700000Y25400000D03*
X58700000Y26000000D03*
X61700000Y26000000D03*
X60500000Y26600000D03*
X59900000Y26600000D03*
X58100000Y25400000D03*
X58700000Y26600000D03*
X61700000Y23600000D03*
X57500000Y26000000D03*
X59300000Y23600000D03*
X61700000Y22400000D03*
X61700000Y25400000D03*
X61700000Y23000000D03*
X57500000Y25400000D03*
X59300000Y24200000D03*
X58100000Y26600000D03*
X58100000Y23000000D03*
X59300000Y22400000D03*
X61700000Y24800000D03*
X61100000Y24800000D03*
X58100000Y23600000D03*
X60500000Y24200000D03*
X60500000Y23000000D03*
X60500000Y22400000D03*
X58100000Y24800000D03*
X57500000Y24200000D03*
X61100000Y24200000D03*
X59300000Y26600000D03*
X61100000Y22400000D03*
X59300000Y26000000D03*
X61100000Y23000000D03*
X61700000Y26600000D03*
X57500000Y23600000D03*
X58700000Y24200000D03*
X61100000Y23600000D03*
X58100000Y22400000D03*
X59900000Y24200000D03*
X59900000Y25400000D03*
X61700000Y24200000D03*
X57500000Y22400000D03*
X60500000Y25400000D03*
X59300000Y25400000D03*
X59900000Y22400000D03*
X58700000Y22400000D03*
X60500000Y26000000D03*
X59300000Y23000000D03*
X58700000Y24800000D03*
X60500000Y23600000D03*
X57500000Y24800000D03*
X58100000Y26000000D03*
X59900000Y26000000D03*
X61100000Y25400000D03*
X58100000Y24200000D03*
X58700000Y23000000D03*
X59900000Y24800000D03*
X59900000Y23600000D03*
X60500000Y24800000D03*
X58700000Y23600000D03*
X57500000Y23000000D03*
X59300000Y24800000D03*
X59900000Y23000000D03*
X57500000Y26600000D03*
X61100000Y26600000D03*
D20*
%TO.N,+9V*%
X39500000Y8250000D03*
D21*
%TO.N,+BATT*%
X51500000Y4300000D03*
X50900000Y17300000D03*
X52700000Y24800000D03*
X50300000Y24200000D03*
X52100000Y24800000D03*
X53900000Y13100000D03*
X50300000Y26000000D03*
X53300000Y26600000D03*
X53300000Y23600000D03*
X53900000Y16700000D03*
X52100000Y23600000D03*
X53900000Y14900000D03*
X53900000Y16100000D03*
X53300000Y16700000D03*
X53900000Y23000000D03*
X54500000Y23600000D03*
X50900000Y23000000D03*
X53900000Y15500000D03*
X52700000Y13700000D03*
X51500000Y24800000D03*
X50900000Y4900000D03*
X50300000Y13100000D03*
X53300000Y14300000D03*
X51500000Y6100000D03*
X51500000Y26600000D03*
X52100000Y14300000D03*
D20*
X38500000Y9500000D03*
D21*
X52700000Y17300000D03*
X52700000Y6100000D03*
X52700000Y5500000D03*
X54500000Y6700000D03*
X51500000Y22400000D03*
X53900000Y26000000D03*
X53900000Y5500000D03*
X54500000Y23000000D03*
X53300000Y25400000D03*
X52700000Y26000000D03*
X52100000Y13100000D03*
X54500000Y15500000D03*
X53900000Y13700000D03*
X53900000Y24800000D03*
X50900000Y24200000D03*
X50300000Y24800000D03*
X52100000Y16700000D03*
X53300000Y5500000D03*
X54500000Y14900000D03*
X53300000Y4900000D03*
X52700000Y14300000D03*
X51500000Y14900000D03*
X54500000Y13100000D03*
X51500000Y24200000D03*
X50300000Y15500000D03*
X50900000Y4300000D03*
X52700000Y14900000D03*
X53900000Y6100000D03*
X51500000Y16700000D03*
X53900000Y26600000D03*
X51500000Y17300000D03*
X53300000Y6100000D03*
X53300000Y23000000D03*
X52700000Y3100000D03*
X52100000Y3700000D03*
X50300000Y17300000D03*
X54500000Y4900000D03*
X51500000Y13700000D03*
X53300000Y22400000D03*
X54500000Y24800000D03*
X50900000Y6700000D03*
X50900000Y16100000D03*
X50300000Y5500000D03*
X50300000Y6100000D03*
X52100000Y26600000D03*
X53300000Y24800000D03*
X53900000Y24200000D03*
X50300000Y14900000D03*
X51500000Y23000000D03*
X52100000Y16100000D03*
X50900000Y3100000D03*
X54500000Y24200000D03*
X53900000Y2500000D03*
X51500000Y5500000D03*
X51500000Y16100000D03*
X53900000Y17300000D03*
X52100000Y23000000D03*
X54500000Y16700000D03*
X52700000Y16700000D03*
X50900000Y25400000D03*
X52100000Y5500000D03*
X50900000Y24800000D03*
X54500000Y5500000D03*
X50300000Y3100000D03*
X52100000Y26000000D03*
X50900000Y5500000D03*
X52700000Y13100000D03*
X52100000Y3100000D03*
X53300000Y17300000D03*
X50300000Y22400000D03*
X52100000Y22400000D03*
X52700000Y23000000D03*
X53900000Y4900000D03*
X53300000Y15500000D03*
X52100000Y14900000D03*
X52100000Y15500000D03*
X51500000Y4900000D03*
X51500000Y3700000D03*
X50900000Y6100000D03*
X54500000Y22400000D03*
X50300000Y23600000D03*
X50900000Y14900000D03*
X50900000Y13700000D03*
X51500000Y13100000D03*
X51500000Y3100000D03*
X53900000Y14300000D03*
X52100000Y6100000D03*
X53900000Y23600000D03*
X54500000Y26000000D03*
X53300000Y24200000D03*
X50300000Y3700000D03*
X54500000Y2500000D03*
X53300000Y13700000D03*
X51500000Y2500000D03*
X52700000Y16100000D03*
X50300000Y6700000D03*
X50900000Y23600000D03*
X50900000Y2500000D03*
X53900000Y25400000D03*
X50300000Y26600000D03*
X52100000Y4300000D03*
X51500000Y14300000D03*
X52700000Y4900000D03*
X52100000Y13700000D03*
X54500000Y14300000D03*
X53300000Y2500000D03*
X51500000Y6700000D03*
X50900000Y22400000D03*
X50300000Y16100000D03*
X50300000Y23000000D03*
X52700000Y24200000D03*
X52700000Y4300000D03*
X54500000Y3100000D03*
X52100000Y24200000D03*
X50300000Y2500000D03*
X53300000Y3100000D03*
X52700000Y22400000D03*
X54500000Y26600000D03*
X54500000Y4300000D03*
X52100000Y4900000D03*
X51500000Y25400000D03*
X52700000Y6700000D03*
D20*
X27750000Y7000000D03*
D21*
X53900000Y3100000D03*
X53900000Y6700000D03*
X54500000Y25400000D03*
X52100000Y17300000D03*
X53300000Y4300000D03*
X54500000Y6100000D03*
X51500000Y26000000D03*
X52700000Y26600000D03*
X53300000Y6700000D03*
X52700000Y15500000D03*
X50900000Y26000000D03*
X53300000Y14900000D03*
X50900000Y3700000D03*
X51500000Y23600000D03*
X50300000Y4900000D03*
X50900000Y13100000D03*
X53900000Y3700000D03*
X50300000Y13700000D03*
X50900000Y16700000D03*
X50300000Y25400000D03*
X53900000Y22400000D03*
X54500000Y17300000D03*
X54500000Y3700000D03*
X53300000Y3700000D03*
X50900000Y14300000D03*
X51500000Y15500000D03*
X53300000Y26000000D03*
X50300000Y4300000D03*
X52100000Y6700000D03*
X50300000Y14300000D03*
X54500000Y16100000D03*
X52700000Y2500000D03*
X52700000Y23600000D03*
X52100000Y25400000D03*
X52700000Y3700000D03*
X52700000Y25400000D03*
X50300000Y16700000D03*
X53300000Y13100000D03*
X50900000Y26600000D03*
X54500000Y13700000D03*
X52100000Y2500000D03*
X50900000Y15500000D03*
X53300000Y16100000D03*
X53900000Y4300000D03*
%TO.N,/BRIDGE1/OUT*%
X58700000Y16100000D03*
X58700000Y17300000D03*
X58700000Y14300000D03*
X58100000Y17300000D03*
X61700000Y17300000D03*
X59900000Y17300000D03*
X57500000Y17300000D03*
X61700000Y13700000D03*
X57500000Y14300000D03*
X61100000Y13100000D03*
X60500000Y17300000D03*
X61100000Y14300000D03*
X58100000Y13100000D03*
X59300000Y15500000D03*
X61700000Y16100000D03*
X57500000Y15500000D03*
X57500000Y14900000D03*
X61100000Y15500000D03*
X57500000Y16100000D03*
X60500000Y13700000D03*
X61700000Y16700000D03*
X58700000Y16700000D03*
X59300000Y13100000D03*
X59900000Y13700000D03*
X61700000Y14300000D03*
X61700000Y13100000D03*
X58700000Y14900000D03*
X58100000Y14300000D03*
X61100000Y16100000D03*
X59300000Y16100000D03*
X59900000Y16100000D03*
X61100000Y17300000D03*
X59900000Y15500000D03*
X59900000Y14300000D03*
X61100000Y13700000D03*
X58700000Y13700000D03*
X61100000Y14900000D03*
X58100000Y16100000D03*
X58100000Y16700000D03*
X59900000Y14900000D03*
X57500000Y13700000D03*
X60500000Y16100000D03*
X59300000Y13700000D03*
X60500000Y16700000D03*
X61100000Y16700000D03*
X57500000Y13100000D03*
X58700000Y15500000D03*
X61700000Y14900000D03*
X61700000Y15500000D03*
X58700000Y13100000D03*
X59300000Y14900000D03*
X59300000Y16700000D03*
X58100000Y15500000D03*
X59300000Y17300000D03*
X60500000Y15500000D03*
X59900000Y16700000D03*
X59900000Y13100000D03*
X58100000Y14900000D03*
X60500000Y13100000D03*
X59300000Y14300000D03*
X60500000Y14900000D03*
X60500000Y14300000D03*
X57500000Y16700000D03*
X58100000Y13700000D03*
%TO.N,/BRIDGE2/OUT*%
X59900000Y2500000D03*
X58700000Y4300000D03*
X61100000Y6700000D03*
X59304328Y3704932D03*
X57500000Y6100000D03*
X58100000Y6700000D03*
X57500000Y5500000D03*
X57500000Y2500000D03*
X58100000Y3100000D03*
X58700000Y2500000D03*
X60500000Y4900000D03*
X59304328Y6704932D03*
X60500000Y5500000D03*
X59900000Y3700000D03*
X58700000Y3100000D03*
X58100000Y2500000D03*
X61704328Y6104932D03*
X61704328Y2504932D03*
X60500000Y6100000D03*
X58700000Y3700000D03*
X61100000Y2500000D03*
X59304328Y4904932D03*
X60500000Y6700000D03*
X59900000Y4900000D03*
X61100000Y5500000D03*
X59900000Y4300000D03*
X60500000Y4300000D03*
X61704328Y6704932D03*
X61704328Y4904932D03*
X58100000Y4300000D03*
X58100000Y4900000D03*
X58700000Y5500000D03*
X60500000Y3700000D03*
X61100000Y3100000D03*
X57500000Y4300000D03*
X57500000Y3700000D03*
X61100000Y4300000D03*
X61100000Y6100000D03*
X57500000Y6700000D03*
X58700000Y4900000D03*
X61704328Y4304932D03*
X61704328Y3704932D03*
X61704328Y5504932D03*
X61704328Y3104932D03*
X61100000Y4900000D03*
X58100000Y6100000D03*
X60500000Y2500000D03*
X59304328Y2504932D03*
X59900000Y5500000D03*
X58100000Y5500000D03*
X61100000Y3700000D03*
X58100000Y3700000D03*
X60500000Y3100000D03*
X59900000Y6100000D03*
X57500000Y3100000D03*
X59304328Y5504932D03*
X59900000Y6700000D03*
X58700000Y6100000D03*
X59304328Y3104932D03*
X57500000Y4900000D03*
X58700000Y6700000D03*
X59304328Y6104932D03*
X59304328Y4304932D03*
X59900000Y3100000D03*
%TO.N,+5V*%
X8200000Y7500000D03*
X19133620Y17633620D03*
%TO.N,/MCU/NRST*%
X26800000Y11292747D03*
X37749502Y21175500D03*
D20*
%TO.N,Net-(Q2-G)*%
X46200000Y28051000D03*
X42000000Y28300000D03*
X63025613Y28050500D03*
%TO.N,Net-(Q4-G)*%
X62778530Y19550500D03*
X41250000Y17000000D03*
%TO.N,Net-(Q6-G)*%
X42750969Y7000000D03*
X62159500Y9440312D03*
D21*
%TO.N,Net-(D3-A)*%
X17600000Y20200000D03*
%TO.N,Net-(J2-CC1)*%
X13684874Y21224874D03*
%TO.N,Net-(J2-CC2)*%
X16943349Y20972049D03*
%TO.N,Net-(U12-UD+)*%
X16184874Y21224874D03*
%TO.N,Net-(U12-UD-)*%
X15385371Y21224874D03*
%TO.N,/MCU/SWCLK*%
X24000000Y17725500D03*
%TO.N,/MCU/SWDIO*%
X26200000Y17925500D03*
%TO.N,/CAN/CAN_RX*%
X14724500Y15700000D03*
X23166472Y15812305D03*
%TO.N,/CAN/CAN_TX*%
X14000000Y16200000D03*
X23800000Y16300000D03*
%TO.N,Net-(R7-Pad1)*%
X34050500Y12000000D03*
D20*
X63881728Y28750500D03*
%TO.N,Net-(R12-Pad1)*%
X63800497Y19600000D03*
D21*
X34850003Y12000000D03*
D20*
%TO.N,Net-(R17-Pad1)*%
X63300000Y9400000D03*
D21*
X35649007Y12028225D03*
%TD*%
D22*
%TO.N,+3.3V*%
X15502507Y15248546D02*
X15502507Y15982654D01*
X36500000Y20249874D02*
X36500000Y21900000D01*
X64500000Y29600000D02*
X30033568Y29600000D01*
X9750000Y21250000D02*
X10750000Y20250000D01*
X64800000Y9400000D02*
X64800000Y19600000D01*
X30912374Y27521194D02*
X29433568Y29000000D01*
X36500000Y21900000D02*
X30912374Y27487626D01*
X30912374Y27487626D02*
X30912374Y27521194D01*
X65000000Y29100000D02*
X64800000Y28900000D01*
X15502507Y15982654D02*
X11235161Y20250000D01*
X30033568Y29600000D02*
X29433568Y29000000D01*
X25500000Y29000000D02*
X14213503Y29000000D01*
X9750000Y24550000D02*
X9750000Y21250000D01*
X11235161Y20250000D02*
X10750000Y20250000D01*
X29433568Y29000000D02*
X25500000Y29000000D01*
X33068462Y15818462D02*
X30181538Y15818462D01*
X36500000Y19250000D02*
X33068462Y15818462D01*
X11300000Y26100000D02*
X9750000Y24550000D01*
X65000000Y29100000D02*
X64500000Y29600000D01*
X14213503Y29000000D02*
X11313503Y26100000D01*
X11313503Y26100000D02*
X11300000Y26100000D01*
X36500000Y20249874D02*
X36500000Y19250000D01*
X64800000Y28900000D02*
X64800000Y19600000D01*
%TO.N,+5V*%
X10600000Y12200000D02*
X8200000Y9800000D01*
X16550000Y15093957D02*
X13656043Y12200000D01*
X16550000Y16450000D02*
X16550000Y15093957D01*
X17733620Y17633620D02*
X16550000Y16450000D01*
X19133620Y17633620D02*
X17733620Y17633620D01*
X8200000Y9800000D02*
X8200000Y7500000D01*
X13656043Y12200000D02*
X10600000Y12200000D01*
D23*
%TO.N,/MCU/NRST*%
X26800000Y11292747D02*
X26807253Y11300000D01*
X37225000Y18949695D02*
X37225000Y20125000D01*
X37225000Y20125000D02*
X37749502Y20649502D01*
X29575305Y11300000D02*
X37225000Y18949695D01*
X37749502Y20649502D02*
X37749502Y21175500D01*
X26807253Y11300000D02*
X29575305Y11300000D01*
D22*
%TO.N,Net-(Q2-G)*%
X46200000Y28051000D02*
X46349000Y28200000D01*
X46349000Y28200000D02*
X62876113Y28200000D01*
X62876113Y28200000D02*
X63025613Y28050500D01*
%TO.N,Net-(Q4-G)*%
X47539949Y17000000D02*
X41250000Y17000000D01*
X62778530Y19550500D02*
X62629030Y19700000D01*
X62629030Y19700000D02*
X50239949Y19700000D01*
X50239949Y19700000D02*
X47539949Y17000000D01*
%TO.N,Net-(Q6-G)*%
X45350969Y9600000D02*
X42750969Y7000000D01*
X61999812Y9600000D02*
X45350969Y9600000D01*
X62159500Y9440312D02*
X61999812Y9600000D01*
%TO.N,Net-(R7-Pad1)*%
X37800000Y18711522D02*
X37800000Y19886828D01*
X37800000Y19886828D02*
X38499502Y20586330D01*
X38499502Y21099502D02*
X43517991Y26117991D01*
X34050500Y12000000D02*
X34050500Y14962023D01*
X63731728Y28900500D02*
X63881728Y28750500D01*
X34050500Y14962023D02*
X37800000Y18711522D01*
X44015909Y28900500D02*
X63731728Y28900500D01*
X38499502Y20586330D02*
X38499502Y21099502D01*
X43517991Y28402582D02*
X44015909Y28900500D01*
X43517991Y26117991D02*
X43517991Y28402582D01*
%TO.N,Net-(R12-Pad1)*%
X41602082Y17850000D02*
X41752082Y17700000D01*
X47250000Y17700000D02*
X49950000Y20400000D01*
X63400000Y20400000D02*
X63800497Y19999503D01*
X40350000Y17850000D02*
X41602082Y17850000D01*
X41752082Y17700000D02*
X47250000Y17700000D01*
X34850003Y12000000D02*
X34850003Y12350003D01*
X34850003Y12350003D02*
X40350000Y17850000D01*
X63800497Y19999503D02*
X63800497Y19600000D01*
X49950000Y20400000D02*
X63400000Y20400000D01*
%TO.N,Net-(R17-Pad1)*%
X41500000Y10601041D02*
X41500000Y9300000D01*
X44002082Y10300000D02*
X62600000Y10300000D01*
X42852082Y9150000D02*
X44002082Y10300000D01*
X63300000Y9600000D02*
X63300000Y9400000D01*
X41500000Y9300000D02*
X41650000Y9150000D01*
X41650000Y9150000D02*
X42852082Y9150000D01*
X40101041Y12000000D02*
X41500000Y10601041D01*
X35677232Y12000000D02*
X40101041Y12000000D01*
X35649007Y12028225D02*
X35677232Y12000000D01*
X62600000Y10300000D02*
X63300000Y9600000D01*
%TD*%
%TA.AperFunction,Conductor*%
%TO.N,GND*%
G36*
X14229349Y29990407D02*
G01*
X14266969Y30000000D01*
X24962728Y30000000D01*
X25022463Y29984664D01*
X25067421Y29942448D01*
X25086483Y29883796D01*
X25074932Y29823215D01*
X25035627Y29775692D01*
X25033563Y29774192D01*
X24998990Y29756572D01*
X24960664Y29750500D01*
X14277210Y29750500D01*
X14259239Y29751809D01*
X14248998Y29753309D01*
X14229035Y29761635D01*
X14203282Y29752472D01*
X14186137Y29750972D01*
X14175330Y29750500D01*
X14169794Y29750500D01*
X14166233Y29750084D01*
X14166218Y29750083D01*
X14138987Y29746900D01*
X14135403Y29746534D01*
X14067898Y29740628D01*
X14067892Y29740627D01*
X14060705Y29739998D01*
X14053854Y29737729D01*
X14050452Y29737026D01*
X14050122Y29736973D01*
X14049803Y29736882D01*
X14046415Y29736080D01*
X14039248Y29735241D01*
X14032471Y29732775D01*
X14032460Y29732772D01*
X13968773Y29709593D01*
X13965372Y29708411D01*
X13901019Y29687086D01*
X13901006Y29687080D01*
X13894168Y29684814D01*
X13888034Y29681032D01*
X13884859Y29679551D01*
X13884567Y29679431D01*
X13884275Y29679267D01*
X13881165Y29677706D01*
X13874386Y29675237D01*
X13868355Y29671271D01*
X13868356Y29671271D01*
X13811738Y29634034D01*
X13808700Y29632099D01*
X13750990Y29596502D01*
X13750984Y29596498D01*
X13744847Y29592712D01*
X13739749Y29587615D01*
X13737006Y29585446D01*
X13736750Y29585261D01*
X13736500Y29585032D01*
X13733833Y29582795D01*
X13727807Y29578830D01*
X13692102Y29540986D01*
X13676352Y29524292D01*
X13673840Y29521707D01*
X10876830Y26724697D01*
X10854250Y26706842D01*
X10837487Y26696502D01*
X10837482Y26696499D01*
X10831344Y26692712D01*
X10826246Y26687615D01*
X10823503Y26685446D01*
X10823247Y26685261D01*
X10822997Y26685032D01*
X10820330Y26682795D01*
X10814304Y26678830D01*
X10809352Y26673581D01*
X10762849Y26624292D01*
X10760337Y26621707D01*
X9264358Y25125728D01*
X9250730Y25113950D01*
X9237263Y25103924D01*
X9237257Y25103919D01*
X9231470Y25099610D01*
X9226832Y25094084D01*
X9226830Y25094081D01*
X9199633Y25061670D01*
X9192350Y25053720D01*
X9190969Y25052339D01*
X9190955Y25052324D01*
X9188409Y25049777D01*
X9186173Y25046950D01*
X9186171Y25046947D01*
X9169176Y25025454D01*
X9166902Y25022663D01*
X9123339Y24970746D01*
X9123335Y24970742D01*
X9118698Y24965214D01*
X9115460Y24958770D01*
X9113537Y24955845D01*
X9113352Y24955589D01*
X9113192Y24955302D01*
X9111363Y24952337D01*
X9106889Y24946677D01*
X9103839Y24940138D01*
X9103838Y24940135D01*
X9075192Y24878706D01*
X9073623Y24875464D01*
X9043196Y24814878D01*
X9043194Y24814873D01*
X9039960Y24808433D01*
X9038296Y24801416D01*
X9037109Y24798153D01*
X9036977Y24797837D01*
X9036888Y24797520D01*
X9035791Y24794213D01*
X9032743Y24787673D01*
X9031284Y24780610D01*
X9031283Y24780605D01*
X9017574Y24714213D01*
X9016794Y24710694D01*
X9001164Y24644745D01*
X9001163Y24644740D01*
X8999500Y24637721D01*
X8999500Y24630509D01*
X8999097Y24627061D01*
X8999043Y24626727D01*
X8999028Y24626374D01*
X8998726Y24622930D01*
X8997266Y24615856D01*
X8997476Y24608640D01*
X8997476Y24608639D01*
X8999448Y24540870D01*
X8999500Y24537263D01*
X8999500Y21313707D01*
X8998191Y21295736D01*
X8996487Y21284100D01*
X8994711Y21271977D01*
X8995340Y21264786D01*
X8995340Y21264779D01*
X8999028Y21222631D01*
X8999500Y21211824D01*
X8999500Y21206291D01*
X8999916Y21202728D01*
X8999917Y21202718D01*
X9003098Y21175504D01*
X9003464Y21171918D01*
X9009371Y21104396D01*
X9009372Y21104391D01*
X9010001Y21097203D01*
X9012271Y21090351D01*
X9012976Y21086937D01*
X9013028Y21086616D01*
X9013120Y21086291D01*
X9013920Y21082915D01*
X9014759Y21075745D01*
X9040413Y21005258D01*
X9041582Y21001892D01*
X9062913Y20937521D01*
X9062917Y20937511D01*
X9065186Y20930666D01*
X9068971Y20924528D01*
X9070443Y20921372D01*
X9070570Y20921065D01*
X9070729Y20920780D01*
X9072295Y20917662D01*
X9074763Y20910883D01*
X9078727Y20904856D01*
X9078729Y20904852D01*
X9115979Y20848216D01*
X9117900Y20845201D01*
X9157288Y20781344D01*
X9162392Y20776240D01*
X9164542Y20773521D01*
X9164743Y20773243D01*
X9164972Y20772993D01*
X9167205Y20770332D01*
X9171170Y20764304D01*
X9187102Y20749273D01*
X9225710Y20712849D01*
X9228298Y20710335D01*
X9837228Y20101405D01*
X9867478Y20052043D01*
X9896700Y19962106D01*
X9922821Y19881716D01*
X9926068Y19876092D01*
X9926069Y19876090D01*
X9999572Y19748778D01*
X10017467Y19717784D01*
X10035517Y19697738D01*
X10105305Y19620230D01*
X10134602Y19562291D01*
X10130605Y19497490D01*
X10094410Y19443591D01*
X10035940Y19415369D01*
X9928055Y19395202D01*
X9928052Y19395202D01*
X9922418Y19394148D01*
X9917077Y19392080D01*
X9917070Y19392077D01*
X9737579Y19322542D01*
X9737574Y19322540D01*
X9732237Y19320472D01*
X9727365Y19317456D01*
X9727362Y19317454D01*
X9563704Y19216122D01*
X9563696Y19216117D01*
X9558833Y19213105D01*
X9554602Y19209249D01*
X9554598Y19209245D01*
X9412350Y19079570D01*
X9412340Y19079560D01*
X9408110Y19075703D01*
X9404661Y19071137D01*
X9404652Y19071126D01*
X9323828Y18964096D01*
X9280145Y18927823D01*
X9224874Y18914823D01*
X9169603Y18927823D01*
X9125920Y18964096D01*
X9045095Y19071126D01*
X9045091Y19071130D01*
X9041638Y19075703D01*
X9037401Y19079566D01*
X9037397Y19079570D01*
X8923394Y19183497D01*
X8890915Y19213105D01*
X8886045Y19216120D01*
X8886043Y19216122D01*
X8722385Y19317454D01*
X8722386Y19317454D01*
X8717511Y19320472D01*
X8712168Y19322542D01*
X8532677Y19392077D01*
X8532672Y19392079D01*
X8527330Y19394148D01*
X8497929Y19399644D01*
X8332479Y19430572D01*
X8332476Y19430573D01*
X8326850Y19431624D01*
X8122898Y19431624D01*
X8117272Y19430573D01*
X8117268Y19430572D01*
X7928055Y19395202D01*
X7928052Y19395202D01*
X7922418Y19394148D01*
X7917077Y19392080D01*
X7917070Y19392077D01*
X7737579Y19322542D01*
X7737574Y19322540D01*
X7732237Y19320472D01*
X7727365Y19317456D01*
X7727362Y19317454D01*
X7563704Y19216122D01*
X7563696Y19216117D01*
X7558833Y19213105D01*
X7554602Y19209249D01*
X7554598Y19209245D01*
X7412350Y19079570D01*
X7412340Y19079560D01*
X7408110Y19075703D01*
X7404661Y19071137D01*
X7404652Y19071126D01*
X7288653Y18917517D01*
X7288650Y18917513D01*
X7285201Y18912945D01*
X7282648Y18907820D01*
X7282646Y18907815D01*
X7197842Y18737504D01*
X7194292Y18730374D01*
X7192724Y18724866D01*
X7192721Y18724856D01*
X7140047Y18539729D01*
X7140044Y18539718D01*
X7138477Y18534207D01*
X7137947Y18528497D01*
X7137947Y18528492D01*
X7123538Y18372983D01*
X7119659Y18331124D01*
X7120188Y18325415D01*
X7137293Y18140811D01*
X7138477Y18128041D01*
X7140045Y18122530D01*
X7140047Y18122520D01*
X7192721Y17937393D01*
X7192723Y17937387D01*
X7194292Y17931874D01*
X7196850Y17926737D01*
X7280484Y17758775D01*
X7285201Y17749303D01*
X7288653Y17744732D01*
X7404652Y17591123D01*
X7404657Y17591118D01*
X7408110Y17586545D01*
X7412346Y17582684D01*
X7412350Y17582679D01*
X7514101Y17489921D01*
X7558833Y17449143D01*
X7732237Y17341776D01*
X7922418Y17268100D01*
X8122898Y17230624D01*
X8321121Y17230624D01*
X8326850Y17230624D01*
X8527330Y17268100D01*
X8717511Y17341776D01*
X8890915Y17449143D01*
X9041638Y17586545D01*
X9045099Y17591128D01*
X9125920Y17698152D01*
X9169602Y17734426D01*
X9224874Y17747426D01*
X9280146Y17734426D01*
X9323828Y17698152D01*
X9404648Y17591128D01*
X9404653Y17591123D01*
X9408110Y17586545D01*
X9412346Y17582684D01*
X9412350Y17582679D01*
X9514101Y17489921D01*
X9558833Y17449143D01*
X9732237Y17341776D01*
X9922418Y17268100D01*
X10122898Y17230624D01*
X10321121Y17230624D01*
X10326850Y17230624D01*
X10527330Y17268100D01*
X10717511Y17341776D01*
X10890915Y17449143D01*
X11041638Y17586545D01*
X11164547Y17749303D01*
X11255456Y17931874D01*
X11311271Y18128041D01*
X11330089Y18331124D01*
X11311271Y18534207D01*
X11297329Y18583206D01*
X11257026Y18724856D01*
X11255456Y18730374D01*
X11164547Y18912945D01*
X11162294Y18915928D01*
X11144256Y18971888D01*
X11154524Y19030560D01*
X11190966Y19077675D01*
X11245174Y19102362D01*
X11304638Y19098924D01*
X11355639Y19068154D01*
X13458176Y16965617D01*
X13490270Y16910030D01*
X13490270Y16845843D01*
X13458177Y16790255D01*
X13370184Y16702262D01*
X13366479Y16696367D01*
X13366476Y16696362D01*
X13277912Y16555413D01*
X13277910Y16555410D01*
X13274211Y16549522D01*
X13271915Y16542964D01*
X13271913Y16542957D01*
X13216930Y16385825D01*
X13216928Y16385818D01*
X13214632Y16379255D01*
X13213852Y16372338D01*
X13213852Y16372335D01*
X13198082Y16232366D01*
X13194435Y16200000D01*
X13195215Y16193077D01*
X13209826Y16063395D01*
X13214632Y16020745D01*
X13216928Y16014181D01*
X13216930Y16014176D01*
X13271913Y15857044D01*
X13274211Y15850478D01*
X13370184Y15697738D01*
X13497738Y15570184D01*
X13650478Y15474211D01*
X13820745Y15414632D01*
X13909547Y15404627D01*
X13961636Y15386401D01*
X14000658Y15347379D01*
X14067528Y15240956D01*
X14094684Y15197738D01*
X14222238Y15070184D01*
X14374978Y14974211D01*
X14545245Y14914632D01*
X14600949Y14908356D01*
X14654989Y14888878D01*
X14694453Y14847136D01*
X14753085Y14745582D01*
X14769974Y14716330D01*
X14774318Y14711505D01*
X14774320Y14711503D01*
X14852815Y14624326D01*
X14881487Y14569248D01*
X14879861Y14507175D01*
X14848346Y14453673D01*
X13381494Y12986819D01*
X13341266Y12959939D01*
X13293813Y12950500D01*
X10663707Y12950500D01*
X10645736Y12951809D01*
X10629125Y12954242D01*
X10621977Y12955289D01*
X10614784Y12954660D01*
X10614778Y12954660D01*
X10572631Y12950972D01*
X10561824Y12950500D01*
X10556291Y12950500D01*
X10552730Y12950084D01*
X10552715Y12950083D01*
X10525501Y12946902D01*
X10521916Y12946536D01*
X10454393Y12940629D01*
X10454385Y12940628D01*
X10447203Y12939999D01*
X10440352Y12937730D01*
X10436935Y12937024D01*
X10436619Y12936973D01*
X10436295Y12936881D01*
X10432913Y12936080D01*
X10425745Y12935241D01*
X10418968Y12932775D01*
X10418957Y12932772D01*
X10355231Y12909579D01*
X10351831Y12908397D01*
X10328704Y12900733D01*
X10280666Y12884814D01*
X10274528Y12881029D01*
X10271367Y12879555D01*
X10271061Y12879429D01*
X10270781Y12879272D01*
X10267659Y12877704D01*
X10260883Y12875237D01*
X10254855Y12871273D01*
X10254854Y12871272D01*
X10198220Y12834024D01*
X10195182Y12832089D01*
X10137492Y12796505D01*
X10137483Y12796499D01*
X10131345Y12792712D01*
X10126243Y12787611D01*
X10123504Y12785445D01*
X10123239Y12785255D01*
X10122995Y12785030D01*
X10120331Y12782795D01*
X10114304Y12778830D01*
X10109355Y12773586D01*
X10109353Y12773583D01*
X10062832Y12724274D01*
X10060320Y12721689D01*
X7714358Y10375728D01*
X7700730Y10363950D01*
X7687263Y10353924D01*
X7687257Y10353919D01*
X7681470Y10349610D01*
X7676832Y10344084D01*
X7676830Y10344081D01*
X7649633Y10311670D01*
X7642350Y10303720D01*
X7640969Y10302339D01*
X7640955Y10302324D01*
X7638409Y10299777D01*
X7636173Y10296950D01*
X7636171Y10296947D01*
X7619176Y10275454D01*
X7616902Y10272663D01*
X7573339Y10220746D01*
X7573335Y10220742D01*
X7568698Y10215214D01*
X7565460Y10208770D01*
X7563537Y10205845D01*
X7563352Y10205589D01*
X7563192Y10205302D01*
X7561363Y10202337D01*
X7556889Y10196677D01*
X7553839Y10190138D01*
X7553838Y10190135D01*
X7525192Y10128706D01*
X7523623Y10125464D01*
X7493196Y10064878D01*
X7493194Y10064873D01*
X7489960Y10058433D01*
X7488296Y10051416D01*
X7487109Y10048153D01*
X7486977Y10047837D01*
X7486888Y10047520D01*
X7485791Y10044213D01*
X7482743Y10037673D01*
X7481284Y10030610D01*
X7481283Y10030605D01*
X7467574Y9964213D01*
X7466794Y9960694D01*
X7451164Y9894745D01*
X7451163Y9894740D01*
X7449500Y9887721D01*
X7449500Y9880509D01*
X7449097Y9877061D01*
X7449043Y9876727D01*
X7449028Y9876374D01*
X7448726Y9872930D01*
X7447266Y9865856D01*
X7447476Y9858640D01*
X7447476Y9858639D01*
X7449448Y9790870D01*
X7449500Y9787263D01*
X7449500Y7799972D01*
X7442542Y7759017D01*
X7416930Y7685825D01*
X7416928Y7685818D01*
X7414632Y7679255D01*
X7394435Y7500000D01*
X7395215Y7493077D01*
X7413609Y7329820D01*
X7414632Y7320745D01*
X7416928Y7314181D01*
X7416930Y7314176D01*
X7463252Y7181796D01*
X7474211Y7150478D01*
X7477912Y7144588D01*
X7564703Y7006460D01*
X7570184Y6997738D01*
X7697738Y6870184D01*
X7850478Y6774211D01*
X8020745Y6714632D01*
X8200000Y6694435D01*
X8379255Y6714632D01*
X8549522Y6774211D01*
X8702262Y6870184D01*
X8829816Y6997738D01*
X8831237Y7000000D01*
X26844540Y7000000D01*
X26845219Y6993540D01*
X26863646Y6818205D01*
X26863647Y6818197D01*
X26864326Y6811744D01*
X26866331Y6805572D01*
X26866333Y6805565D01*
X26902442Y6694435D01*
X26922821Y6631716D01*
X26926068Y6626092D01*
X26926069Y6626090D01*
X26990686Y6514169D01*
X27017467Y6467784D01*
X27021811Y6462959D01*
X27021813Y6462957D01*
X27115377Y6359044D01*
X27144129Y6327112D01*
X27297270Y6215849D01*
X27470197Y6138856D01*
X27655354Y6099500D01*
X27838143Y6099500D01*
X27844646Y6099500D01*
X28029803Y6138856D01*
X28202730Y6215849D01*
X28355871Y6327112D01*
X28482533Y6467784D01*
X28577179Y6631716D01*
X28635674Y6811744D01*
X28655460Y7000000D01*
X28635674Y7188256D01*
X28577179Y7368284D01*
X28482533Y7532216D01*
X28437758Y7581943D01*
X28360220Y7668058D01*
X28360219Y7668059D01*
X28355871Y7672888D01*
X28350613Y7676708D01*
X28350611Y7676710D01*
X28207988Y7780331D01*
X28207987Y7780332D01*
X28202730Y7784151D01*
X28146151Y7809342D01*
X28035745Y7858499D01*
X28035740Y7858501D01*
X28029803Y7861144D01*
X28023444Y7862496D01*
X28023440Y7862497D01*
X27851008Y7899148D01*
X27851005Y7899149D01*
X27844646Y7900500D01*
X27655354Y7900500D01*
X27648995Y7899149D01*
X27648991Y7899148D01*
X27476559Y7862497D01*
X27476552Y7862495D01*
X27470197Y7861144D01*
X27464262Y7858502D01*
X27464254Y7858499D01*
X27303207Y7786795D01*
X27303202Y7786793D01*
X27297270Y7784151D01*
X27292016Y7780335D01*
X27292011Y7780331D01*
X27149388Y7676710D01*
X27149381Y7676705D01*
X27144129Y7672888D01*
X27139784Y7668063D01*
X27139779Y7668058D01*
X27021813Y7537044D01*
X27021808Y7537038D01*
X27017467Y7532216D01*
X27014222Y7526596D01*
X27014218Y7526590D01*
X26926069Y7373911D01*
X26926066Y7373906D01*
X26922821Y7368284D01*
X26920815Y7362112D01*
X26920813Y7362106D01*
X26866333Y7194436D01*
X26866331Y7194427D01*
X26864326Y7188256D01*
X26863648Y7181806D01*
X26863646Y7181796D01*
X26849573Y7047889D01*
X26844540Y7000000D01*
X8831237Y7000000D01*
X8925789Y7150478D01*
X8985368Y7320745D01*
X9005565Y7500000D01*
X8985368Y7679255D01*
X8957457Y7759018D01*
X8950500Y7799972D01*
X8950500Y9437770D01*
X8959939Y9485223D01*
X8986819Y9525451D01*
X9155804Y9694436D01*
X9683698Y10222332D01*
X9741978Y10255113D01*
X9808811Y10252862D01*
X9864757Y10216233D01*
X9893545Y10155876D01*
X9886805Y10089346D01*
X9845366Y9983761D01*
X9844333Y9979240D01*
X9844332Y9979233D01*
X9789683Y9739801D01*
X9789681Y9739793D01*
X9788652Y9735281D01*
X9769606Y9481124D01*
X9769953Y9476494D01*
X9787322Y9244706D01*
X9788652Y9226967D01*
X9789682Y9222454D01*
X9789683Y9222448D01*
X9838323Y9009344D01*
X9845366Y8978487D01*
X9847062Y8974164D01*
X9847063Y8974163D01*
X9929702Y8763603D01*
X9938481Y8741236D01*
X10065915Y8520512D01*
X10224824Y8321247D01*
X10411657Y8147892D01*
X10622240Y8004319D01*
X10851870Y7893735D01*
X10856298Y7892370D01*
X10856301Y7892368D01*
X10912643Y7874989D01*
X11095416Y7818611D01*
X11347439Y7780624D01*
X11597674Y7780624D01*
X11602309Y7780624D01*
X11854332Y7818611D01*
X12097878Y7893735D01*
X12327508Y8004319D01*
X12538091Y8147892D01*
X12724924Y8321247D01*
X12883833Y8520512D01*
X13011267Y8741236D01*
X13104382Y8978487D01*
X13161096Y9226967D01*
X13180142Y9481124D01*
X13178727Y9500000D01*
X37594540Y9500000D01*
X37595219Y9493540D01*
X37613646Y9318205D01*
X37613647Y9318197D01*
X37614326Y9311744D01*
X37616331Y9305572D01*
X37616333Y9305565D01*
X37667157Y9149148D01*
X37672821Y9131716D01*
X37676068Y9126092D01*
X37676069Y9126090D01*
X37761287Y8978487D01*
X37767467Y8967784D01*
X37771811Y8962959D01*
X37771813Y8962957D01*
X37883623Y8838780D01*
X37894129Y8827112D01*
X37899387Y8823292D01*
X37899388Y8823291D01*
X37919785Y8808472D01*
X38047270Y8715849D01*
X38220197Y8638856D01*
X38405354Y8599500D01*
X38411857Y8599500D01*
X38496167Y8599500D01*
X38549551Y8587420D01*
X38592534Y8553535D01*
X38616741Y8504445D01*
X38617457Y8449717D01*
X38616334Y8444438D01*
X38614326Y8438256D01*
X38613647Y8431800D01*
X38613646Y8431793D01*
X38601301Y8314330D01*
X38594540Y8250000D01*
X38595219Y8243540D01*
X38613646Y8068205D01*
X38613647Y8068197D01*
X38614326Y8061744D01*
X38616331Y8055572D01*
X38616333Y8055565D01*
X38669360Y7892368D01*
X38672821Y7881716D01*
X38676068Y7876092D01*
X38676069Y7876090D01*
X38732180Y7778902D01*
X38767467Y7717784D01*
X38771811Y7712959D01*
X38771813Y7712957D01*
X38855115Y7620441D01*
X38894129Y7577112D01*
X39047270Y7465849D01*
X39220197Y7388856D01*
X39405354Y7349500D01*
X39588143Y7349500D01*
X39594646Y7349500D01*
X39779803Y7388856D01*
X39952730Y7465849D01*
X40105871Y7577112D01*
X40232533Y7717784D01*
X40327179Y7881716D01*
X40385674Y8061744D01*
X40405460Y8250000D01*
X40385674Y8438256D01*
X40327179Y8618284D01*
X40232533Y8782216D01*
X40187758Y8831943D01*
X40110220Y8918058D01*
X40110219Y8918059D01*
X40105871Y8922888D01*
X40100613Y8926708D01*
X40100611Y8926710D01*
X39957988Y9030331D01*
X39957987Y9030332D01*
X39952730Y9034151D01*
X39912884Y9051892D01*
X39785745Y9108499D01*
X39785740Y9108501D01*
X39779803Y9111144D01*
X39773444Y9112496D01*
X39773440Y9112497D01*
X39601008Y9149148D01*
X39601005Y9149149D01*
X39594646Y9150500D01*
X39503833Y9150500D01*
X39450449Y9162580D01*
X39407466Y9196465D01*
X39383259Y9245555D01*
X39382543Y9300283D01*
X39383666Y9305565D01*
X39385674Y9311744D01*
X39405460Y9500000D01*
X39385674Y9688256D01*
X39327179Y9868284D01*
X39232533Y10032216D01*
X39227619Y10037673D01*
X39110220Y10168058D01*
X39110219Y10168059D01*
X39105871Y10172888D01*
X39100613Y10176708D01*
X39100611Y10176710D01*
X38957988Y10280331D01*
X38957987Y10280332D01*
X38952730Y10284151D01*
X38939205Y10290173D01*
X38785745Y10358499D01*
X38785740Y10358501D01*
X38779803Y10361144D01*
X38773444Y10362496D01*
X38773440Y10362497D01*
X38601008Y10399148D01*
X38601005Y10399149D01*
X38594646Y10400500D01*
X38405354Y10400500D01*
X38398995Y10399149D01*
X38398991Y10399148D01*
X38226559Y10362497D01*
X38226552Y10362495D01*
X38220197Y10361144D01*
X38214262Y10358502D01*
X38214254Y10358499D01*
X38053207Y10286795D01*
X38053202Y10286793D01*
X38047270Y10284151D01*
X38042016Y10280335D01*
X38042011Y10280331D01*
X37899388Y10176710D01*
X37899381Y10176705D01*
X37894129Y10172888D01*
X37889784Y10168063D01*
X37889779Y10168058D01*
X37771813Y10037044D01*
X37771808Y10037038D01*
X37767467Y10032216D01*
X37764222Y10026596D01*
X37764218Y10026590D01*
X37676069Y9873911D01*
X37676066Y9873906D01*
X37672821Y9868284D01*
X37670815Y9862112D01*
X37670813Y9862106D01*
X37616333Y9694436D01*
X37616331Y9694427D01*
X37614326Y9688256D01*
X37613648Y9681806D01*
X37613646Y9681796D01*
X37600914Y9560648D01*
X37594540Y9500000D01*
X13178727Y9500000D01*
X13161096Y9735281D01*
X13104382Y9983761D01*
X13011267Y10221012D01*
X12883833Y10441736D01*
X12724924Y10641001D01*
X12538091Y10814356D01*
X12327508Y10957929D01*
X12323322Y10959945D01*
X12102057Y11066501D01*
X12102051Y11066504D01*
X12097878Y11068513D01*
X12093456Y11069877D01*
X12093446Y11069881D01*
X11858765Y11142270D01*
X11858760Y11142272D01*
X11854332Y11143637D01*
X11849752Y11144328D01*
X11849745Y11144329D01*
X11606892Y11180934D01*
X11606881Y11180935D01*
X11602309Y11181624D01*
X11347439Y11181624D01*
X11342867Y11180935D01*
X11342855Y11180934D01*
X11100002Y11144329D01*
X11099992Y11144327D01*
X11095416Y11143637D01*
X11090989Y11142272D01*
X11090978Y11142269D01*
X10864034Y11072266D01*
X10798989Y11070076D01*
X10741793Y11101131D01*
X10708204Y11156876D01*
X10707474Y11221954D01*
X10739801Y11278435D01*
X10874551Y11413185D01*
X10914776Y11440061D01*
X10962229Y11449500D01*
X13592336Y11449500D01*
X13610307Y11448191D01*
X13614203Y11447621D01*
X13634066Y11444711D01*
X13683411Y11449028D01*
X13694219Y11449500D01*
X13696143Y11449500D01*
X13699752Y11449500D01*
X13730593Y11453106D01*
X13734074Y11453461D01*
X13808840Y11460001D01*
X13815696Y11462274D01*
X13819086Y11462973D01*
X13819418Y11463027D01*
X13819771Y11463127D01*
X13823114Y11463920D01*
X13830298Y11464759D01*
X13900803Y11490421D01*
X13904161Y11491588D01*
X13975377Y11515186D01*
X13981529Y11518982D01*
X13984650Y11520436D01*
X13984972Y11520570D01*
X13985281Y11520742D01*
X13988358Y11522288D01*
X13995160Y11524763D01*
X14057880Y11566016D01*
X14060775Y11567860D01*
X14124699Y11607288D01*
X14129806Y11612397D01*
X14132519Y11614541D01*
X14132801Y11614746D01*
X14133072Y11614993D01*
X14135701Y11617200D01*
X14141739Y11621170D01*
X14193229Y11675748D01*
X14195674Y11678265D01*
X17035638Y14518230D01*
X17049262Y14530004D01*
X17068530Y14544347D01*
X17100372Y14582296D01*
X17107686Y14590276D01*
X17108267Y14590858D01*
X17111590Y14594180D01*
X17130836Y14618524D01*
X17133058Y14621251D01*
X17181302Y14678743D01*
X17184547Y14685206D01*
X17186440Y14688083D01*
X17186644Y14688366D01*
X17186821Y14688683D01*
X17188623Y14691605D01*
X17193111Y14697280D01*
X17224816Y14765275D01*
X17226355Y14768455D01*
X17260040Y14835524D01*
X17261706Y14842559D01*
X17262881Y14845785D01*
X17263020Y14846121D01*
X17263118Y14846466D01*
X17264200Y14849733D01*
X17267256Y14856284D01*
X17282434Y14929800D01*
X17283186Y14933189D01*
X17300500Y15006236D01*
X17300500Y15013467D01*
X17300902Y15016906D01*
X17300956Y15017243D01*
X17300972Y15017597D01*
X17301271Y15021024D01*
X17302733Y15028101D01*
X17300552Y15103068D01*
X17300500Y15106674D01*
X17300500Y15812305D01*
X22360907Y15812305D01*
X22361687Y15805382D01*
X22373150Y15703639D01*
X22381104Y15633050D01*
X22383400Y15626486D01*
X22383402Y15626481D01*
X22438385Y15469349D01*
X22440683Y15462783D01*
X22444384Y15456893D01*
X22530908Y15319190D01*
X22536656Y15310043D01*
X22664210Y15182489D01*
X22816950Y15086516D01*
X22987217Y15026937D01*
X23166472Y15006740D01*
X23345727Y15026937D01*
X23515994Y15086516D01*
X23668734Y15182489D01*
X23796288Y15310043D01*
X23802036Y15319190D01*
X23861516Y15413853D01*
X23888991Y15457580D01*
X23922231Y15492738D01*
X23966400Y15512499D01*
X23972325Y15513852D01*
X23979255Y15514632D01*
X24149522Y15574211D01*
X24302262Y15670184D01*
X24429816Y15797738D01*
X24525789Y15950478D01*
X24585368Y16120745D01*
X24605565Y16300000D01*
X24585368Y16479255D01*
X24525789Y16649522D01*
X24429816Y16802262D01*
X24387523Y16844555D01*
X24358162Y16891282D01*
X24351984Y16946120D01*
X24370210Y16998208D01*
X24409233Y17037230D01*
X24496358Y17091974D01*
X24496359Y17091976D01*
X24502262Y17095684D01*
X24629816Y17223238D01*
X24725789Y17375978D01*
X24785368Y17546245D01*
X24805565Y17725500D01*
X24785368Y17904755D01*
X24725789Y18075022D01*
X24629816Y18227762D01*
X24502262Y18355316D01*
X24478663Y18370144D01*
X24385265Y18428830D01*
X24349522Y18451289D01*
X24342959Y18453586D01*
X24342956Y18453587D01*
X24185824Y18508570D01*
X24185819Y18508572D01*
X24179255Y18510868D01*
X24172335Y18511648D01*
X24172334Y18511648D01*
X24006923Y18530285D01*
X24000000Y18531065D01*
X23993077Y18530285D01*
X23827665Y18511648D01*
X23827662Y18511648D01*
X23820745Y18510868D01*
X23814182Y18508572D01*
X23814175Y18508570D01*
X23657043Y18453587D01*
X23657036Y18453585D01*
X23650478Y18451289D01*
X23644590Y18447590D01*
X23644587Y18447588D01*
X23503638Y18359024D01*
X23503633Y18359021D01*
X23497738Y18355316D01*
X23492813Y18350392D01*
X23492809Y18350388D01*
X23375112Y18232691D01*
X23375108Y18232687D01*
X23370184Y18227762D01*
X23366479Y18221867D01*
X23366476Y18221862D01*
X23277912Y18080913D01*
X23277910Y18080910D01*
X23274211Y18075022D01*
X23271915Y18068464D01*
X23271913Y18068457D01*
X23216930Y17911325D01*
X23216928Y17911318D01*
X23214632Y17904755D01*
X23213852Y17897838D01*
X23213852Y17897835D01*
X23205020Y17819445D01*
X23194435Y17725500D01*
X23195215Y17718577D01*
X23211945Y17570088D01*
X23214632Y17546245D01*
X23216928Y17539681D01*
X23216930Y17539676D01*
X23255609Y17429139D01*
X23274211Y17375978D01*
X23370184Y17223238D01*
X23375112Y17218310D01*
X23412476Y17180946D01*
X23441836Y17134220D01*
X23448015Y17079382D01*
X23429789Y17027294D01*
X23390768Y16988272D01*
X23303640Y16933526D01*
X23303630Y16933519D01*
X23297738Y16929816D01*
X23292813Y16924892D01*
X23292809Y16924888D01*
X23175112Y16807191D01*
X23175108Y16807187D01*
X23170184Y16802262D01*
X23166479Y16796367D01*
X23166476Y16796362D01*
X23077482Y16654729D01*
X23044243Y16619571D01*
X23000081Y16599810D01*
X22994131Y16598453D01*
X22987217Y16597673D01*
X22980652Y16595377D01*
X22980648Y16595375D01*
X22823515Y16540392D01*
X22823508Y16540390D01*
X22816950Y16538094D01*
X22811062Y16534395D01*
X22811059Y16534393D01*
X22670110Y16445829D01*
X22670105Y16445826D01*
X22664210Y16442121D01*
X22659285Y16437197D01*
X22659281Y16437193D01*
X22541584Y16319496D01*
X22541580Y16319492D01*
X22536656Y16314567D01*
X22532951Y16308672D01*
X22532948Y16308667D01*
X22444384Y16167718D01*
X22444382Y16167715D01*
X22440683Y16161827D01*
X22438387Y16155269D01*
X22438385Y16155262D01*
X22383402Y15998130D01*
X22383400Y15998123D01*
X22381104Y15991560D01*
X22380324Y15984643D01*
X22380324Y15984640D01*
X22373905Y15927669D01*
X22360907Y15812305D01*
X17300500Y15812305D01*
X17300500Y16087770D01*
X17309939Y16135223D01*
X17336819Y16175451D01*
X18008168Y16846801D01*
X18048396Y16873681D01*
X18095849Y16883120D01*
X18833648Y16883120D01*
X18874602Y16876163D01*
X18954365Y16848252D01*
X19133620Y16828055D01*
X19312875Y16848252D01*
X19483142Y16907831D01*
X19635882Y17003804D01*
X19763436Y17131358D01*
X19859409Y17284098D01*
X19918988Y17454365D01*
X19939185Y17633620D01*
X19918988Y17812875D01*
X19859409Y17983142D01*
X19763436Y18135882D01*
X19635882Y18263436D01*
X19483142Y18359409D01*
X19476579Y18361706D01*
X19476576Y18361707D01*
X19319444Y18416690D01*
X19319439Y18416692D01*
X19312875Y18418988D01*
X19305955Y18419768D01*
X19305954Y18419768D01*
X19140543Y18438405D01*
X19133620Y18439185D01*
X19126697Y18438405D01*
X18961285Y18419768D01*
X18961282Y18419768D01*
X18954365Y18418988D01*
X18947802Y18416692D01*
X18947795Y18416690D01*
X18874603Y18391078D01*
X18833648Y18384120D01*
X17797327Y18384120D01*
X17779356Y18385429D01*
X17762746Y18387862D01*
X17762744Y18387863D01*
X17755597Y18388909D01*
X17748405Y18388280D01*
X17748398Y18388280D01*
X17706254Y18384592D01*
X17695447Y18384120D01*
X17689911Y18384120D01*
X17686350Y18383704D01*
X17686335Y18383703D01*
X17659104Y18380520D01*
X17655520Y18380154D01*
X17588015Y18374248D01*
X17588009Y18374247D01*
X17580822Y18373618D01*
X17573971Y18371349D01*
X17570569Y18370646D01*
X17570239Y18370593D01*
X17569920Y18370502D01*
X17566532Y18369700D01*
X17559365Y18368861D01*
X17552588Y18366395D01*
X17552577Y18366392D01*
X17488890Y18343213D01*
X17485489Y18342031D01*
X17421136Y18320706D01*
X17421123Y18320700D01*
X17414285Y18318434D01*
X17408151Y18314652D01*
X17404976Y18313171D01*
X17404684Y18313051D01*
X17404392Y18312887D01*
X17401282Y18311326D01*
X17394503Y18308857D01*
X17388472Y18304891D01*
X17388473Y18304891D01*
X17331856Y18267655D01*
X17328819Y18265720D01*
X17271106Y18230121D01*
X17271097Y18230115D01*
X17264964Y18226331D01*
X17259865Y18221234D01*
X17257126Y18219067D01*
X17256862Y18218877D01*
X17256615Y18218650D01*
X17253951Y18216415D01*
X17247924Y18212450D01*
X17242975Y18207206D01*
X17242973Y18207203D01*
X17196453Y18157895D01*
X17193941Y18155310D01*
X16064358Y17025728D01*
X16050730Y17013950D01*
X16037263Y17003924D01*
X16037257Y17003919D01*
X16031470Y16999610D01*
X16026832Y16994084D01*
X16026830Y16994081D01*
X15999633Y16961670D01*
X15992350Y16953720D01*
X15990969Y16952339D01*
X15990955Y16952324D01*
X15988409Y16949777D01*
X15986173Y16946950D01*
X15986171Y16946947D01*
X15969176Y16925454D01*
X15966902Y16922663D01*
X15923339Y16870746D01*
X15923335Y16870742D01*
X15918698Y16865214D01*
X15915460Y16858770D01*
X15913537Y16855845D01*
X15913353Y16855591D01*
X15913199Y16855314D01*
X15911364Y16852339D01*
X15910128Y16850775D01*
X15909216Y16849849D01*
X15907382Y16847303D01*
X15907053Y16846885D01*
X15906626Y16847221D01*
X15871945Y16812017D01*
X15819712Y16793427D01*
X15764598Y16799458D01*
X15717622Y16828906D01*
X13821672Y18724856D01*
X11810890Y20735639D01*
X11799108Y20749273D01*
X11789086Y20762735D01*
X11789082Y20762739D01*
X11784771Y20768530D01*
X11746828Y20800369D01*
X11738852Y20807677D01*
X11737490Y20809039D01*
X11734938Y20811591D01*
X11732114Y20813824D01*
X11732105Y20813832D01*
X11710606Y20830830D01*
X11707835Y20833087D01*
X11650375Y20881302D01*
X11643921Y20884544D01*
X11641020Y20886452D01*
X11640749Y20886648D01*
X11640453Y20886813D01*
X11637500Y20888634D01*
X11631838Y20893111D01*
X11625295Y20896162D01*
X11625292Y20896164D01*
X11563853Y20924814D01*
X11560607Y20926385D01*
X11500045Y20956800D01*
X11500046Y20956800D01*
X11493594Y20960040D01*
X11486570Y20961705D01*
X11483312Y20962891D01*
X11482993Y20963023D01*
X11482665Y20963116D01*
X11479379Y20964205D01*
X11472834Y20967257D01*
X11465765Y20968717D01*
X11465761Y20968718D01*
X11399373Y20982426D01*
X11395852Y20983206D01*
X11395434Y20983305D01*
X11386405Y20985445D01*
X11329902Y20998837D01*
X11329895Y20998838D01*
X11322882Y21000500D01*
X11315671Y21000500D01*
X11312222Y21000903D01*
X11311888Y21000957D01*
X11311535Y21000972D01*
X11308089Y21001274D01*
X11301017Y21002734D01*
X11293801Y21002525D01*
X11293791Y21002525D01*
X11290356Y21002425D01*
X11250158Y21007898D01*
X11213878Y21026052D01*
X11207985Y21030333D01*
X11207984Y21030334D01*
X11202730Y21034151D01*
X11175749Y21046164D01*
X11035745Y21108499D01*
X11035740Y21108501D01*
X11029803Y21111144D01*
X11011661Y21115000D01*
X10964668Y21124989D01*
X10931282Y21137306D01*
X10902769Y21158598D01*
X10836493Y21224874D01*
X12879309Y21224874D01*
X12880089Y21217951D01*
X12896615Y21071272D01*
X12899506Y21045619D01*
X12901802Y21039055D01*
X12901804Y21039050D01*
X12956785Y20881925D01*
X12959085Y20875352D01*
X12962786Y20869462D01*
X13046872Y20735639D01*
X13055058Y20722612D01*
X13182612Y20595058D01*
X13335352Y20499085D01*
X13505619Y20439506D01*
X13684874Y20419309D01*
X13864129Y20439506D01*
X14034396Y20499085D01*
X14187136Y20595058D01*
X14314690Y20722612D01*
X14410663Y20875352D01*
X14414616Y20886648D01*
X14418080Y20896547D01*
X14451461Y20947120D01*
X14504821Y20975836D01*
X14565418Y20975837D01*
X14618779Y20947124D01*
X14652163Y20896552D01*
X14657282Y20881925D01*
X14659582Y20875352D01*
X14663283Y20869462D01*
X14747369Y20735639D01*
X14755555Y20722612D01*
X14883109Y20595058D01*
X15035849Y20499085D01*
X15206116Y20439506D01*
X15385371Y20419309D01*
X15564626Y20439506D01*
X15734893Y20499085D01*
X15734906Y20499047D01*
X15785119Y20510510D01*
X15835338Y20499048D01*
X15835352Y20499085D01*
X16005619Y20439506D01*
X16184874Y20419309D01*
X16209530Y20422087D01*
X16286531Y20430763D01*
X16341370Y20424585D01*
X16388095Y20395225D01*
X16441087Y20342233D01*
X16593827Y20246260D01*
X16723701Y20200815D01*
X16779693Y20161087D01*
X16805966Y20097658D01*
X16812522Y20039466D01*
X16814632Y20020745D01*
X16816928Y20014181D01*
X16816930Y20014176D01*
X16871913Y19857044D01*
X16874211Y19850478D01*
X16877912Y19844588D01*
X16954052Y19723411D01*
X16970184Y19697738D01*
X17097738Y19570184D01*
X17250478Y19474211D01*
X17420745Y19414632D01*
X17600000Y19394435D01*
X17779255Y19414632D01*
X17949522Y19474211D01*
X18102262Y19570184D01*
X18160074Y19627996D01*
X22661874Y19627996D01*
X22661875Y19624866D01*
X22662194Y19621734D01*
X22662195Y19621733D01*
X22671686Y19528813D01*
X22671687Y19528805D01*
X22672375Y19522077D01*
X22674503Y19515655D01*
X22674504Y19515651D01*
X22715453Y19392077D01*
X22727560Y19355540D01*
X22731351Y19349394D01*
X22815871Y19212363D01*
X22815874Y19212359D01*
X22819662Y19206218D01*
X22943718Y19082162D01*
X22949859Y19078374D01*
X22949862Y19078372D01*
X22970441Y19065679D01*
X23093040Y18990060D01*
X23259577Y18934875D01*
X23362365Y18924374D01*
X24662382Y18924375D01*
X24765171Y18934875D01*
X24931708Y18990060D01*
X25081030Y19082162D01*
X25205086Y19206218D01*
X25297188Y19355540D01*
X25298072Y19354995D01*
X25330036Y19394828D01*
X25383992Y19418574D01*
X25442815Y19414721D01*
X25493212Y19384140D01*
X25640973Y19236379D01*
X25645405Y19233276D01*
X25645407Y19233274D01*
X25675271Y19212363D01*
X25834544Y19100839D01*
X25839444Y19098554D01*
X25839446Y19098553D01*
X25863647Y19087268D01*
X26048711Y19000971D01*
X26053941Y18999570D01*
X26053943Y18999569D01*
X26169590Y18968582D01*
X26227762Y18933826D01*
X26258977Y18873680D01*
X26253913Y18806106D01*
X26214082Y18751284D01*
X26151381Y18725587D01*
X26027664Y18711648D01*
X26027660Y18711648D01*
X26020745Y18710868D01*
X26014182Y18708572D01*
X26014175Y18708570D01*
X25857043Y18653587D01*
X25857036Y18653585D01*
X25850478Y18651289D01*
X25844590Y18647590D01*
X25844587Y18647588D01*
X25703638Y18559024D01*
X25703633Y18559021D01*
X25697738Y18555316D01*
X25692813Y18550392D01*
X25692809Y18550388D01*
X25575112Y18432691D01*
X25575108Y18432687D01*
X25570184Y18427762D01*
X25566479Y18421867D01*
X25566476Y18421862D01*
X25477912Y18280913D01*
X25477910Y18280910D01*
X25474211Y18275022D01*
X25471915Y18268464D01*
X25471913Y18268457D01*
X25416930Y18111325D01*
X25416928Y18111318D01*
X25414632Y18104755D01*
X25413852Y18097838D01*
X25413852Y18097835D01*
X25405840Y18026727D01*
X25394435Y17925500D01*
X25414632Y17746245D01*
X25416928Y17739681D01*
X25416930Y17739676D01*
X25470513Y17586545D01*
X25474211Y17575978D01*
X25477912Y17570088D01*
X25550625Y17454365D01*
X25570184Y17423238D01*
X25697738Y17295684D01*
X25850478Y17199711D01*
X26020745Y17140132D01*
X26200000Y17119935D01*
X26379255Y17140132D01*
X26549522Y17199711D01*
X26702262Y17295684D01*
X26829816Y17423238D01*
X26925789Y17575978D01*
X26985368Y17746245D01*
X27005565Y17925500D01*
X26985368Y18104755D01*
X26925789Y18275022D01*
X26829816Y18427762D01*
X26702262Y18555316D01*
X26690690Y18562587D01*
X26555412Y18647588D01*
X26549522Y18651289D01*
X26542959Y18653586D01*
X26542956Y18653587D01*
X26471343Y18678645D01*
X26415351Y18718374D01*
X26389078Y18781803D01*
X26400578Y18849489D01*
X26446326Y18900681D01*
X26511058Y18919331D01*
X26512374Y18919215D01*
X26747782Y18939811D01*
X26976037Y19000971D01*
X27190203Y19100839D01*
X27383775Y19236379D01*
X27550869Y19403473D01*
X27660799Y19560471D01*
X27705117Y19599336D01*
X27762374Y19613347D01*
X27819631Y19599336D01*
X27863948Y19560471D01*
X27973879Y19403473D01*
X28140973Y19236379D01*
X28145405Y19233276D01*
X28145407Y19233274D01*
X28175271Y19212363D01*
X28334544Y19100839D01*
X28339444Y19098554D01*
X28339446Y19098553D01*
X28363647Y19087268D01*
X28548711Y19000971D01*
X28776966Y18939811D01*
X29012374Y18919215D01*
X29247782Y18939811D01*
X29476037Y19000971D01*
X29690203Y19100839D01*
X29883775Y19236379D01*
X30050869Y19403473D01*
X30160799Y19560471D01*
X30205117Y19599336D01*
X30262374Y19613347D01*
X30319631Y19599336D01*
X30363948Y19560471D01*
X30473879Y19403473D01*
X30640973Y19236379D01*
X30645405Y19233276D01*
X30645407Y19233274D01*
X30675271Y19212363D01*
X30834544Y19100839D01*
X30839444Y19098554D01*
X30839446Y19098553D01*
X30863647Y19087268D01*
X31048711Y19000971D01*
X31276966Y18939811D01*
X31512374Y18919215D01*
X31747782Y18939811D01*
X31976037Y19000971D01*
X32190203Y19100839D01*
X32383775Y19236379D01*
X32550869Y19403473D01*
X32686409Y19597045D01*
X32786277Y19811211D01*
X32847437Y20039466D01*
X32862874Y20215908D01*
X32862874Y20583840D01*
X32847437Y20760282D01*
X32793113Y20963023D01*
X32787679Y20983305D01*
X32787678Y20983307D01*
X32786277Y20988537D01*
X32686409Y21202703D01*
X32550869Y21396275D01*
X32383775Y21563369D01*
X32379344Y21566472D01*
X32379340Y21566475D01*
X32194633Y21695808D01*
X32194631Y21695810D01*
X32190204Y21698909D01*
X32185307Y21701193D01*
X32185301Y21701196D01*
X31980946Y21796488D01*
X31980944Y21796489D01*
X31976037Y21798777D01*
X31970812Y21800177D01*
X31970804Y21800180D01*
X31753008Y21858537D01*
X31753004Y21858538D01*
X31747782Y21859937D01*
X31742394Y21860409D01*
X31742391Y21860409D01*
X31517769Y21880061D01*
X31512374Y21880533D01*
X31506979Y21880061D01*
X31282356Y21860409D01*
X31282351Y21860409D01*
X31276966Y21859937D01*
X31271745Y21858539D01*
X31271739Y21858537D01*
X31053943Y21800180D01*
X31053931Y21800176D01*
X31048711Y21798777D01*
X31043806Y21796491D01*
X31043801Y21796488D01*
X30839455Y21701199D01*
X30839451Y21701197D01*
X30834545Y21698909D01*
X30830112Y21695806D01*
X30830105Y21695801D01*
X30645408Y21566475D01*
X30645403Y21566472D01*
X30640973Y21563369D01*
X30637149Y21559546D01*
X30637143Y21559540D01*
X30477708Y21400105D01*
X30477702Y21400099D01*
X30473879Y21396275D01*
X30470778Y21391847D01*
X30470771Y21391838D01*
X30363947Y21239278D01*
X30319629Y21200412D01*
X30262372Y21186402D01*
X30205116Y21200413D01*
X30160798Y21239279D01*
X30133916Y21277671D01*
X30050869Y21396275D01*
X29883775Y21563369D01*
X29879344Y21566472D01*
X29879340Y21566475D01*
X29694633Y21695808D01*
X29694631Y21695810D01*
X29690204Y21698909D01*
X29685307Y21701193D01*
X29685301Y21701196D01*
X29480946Y21796488D01*
X29480944Y21796489D01*
X29476037Y21798777D01*
X29470812Y21800177D01*
X29470804Y21800180D01*
X29253008Y21858537D01*
X29253004Y21858538D01*
X29247782Y21859937D01*
X29242394Y21860409D01*
X29242391Y21860409D01*
X29017769Y21880061D01*
X29012374Y21880533D01*
X29006979Y21880061D01*
X28782356Y21860409D01*
X28782351Y21860409D01*
X28776966Y21859937D01*
X28771745Y21858539D01*
X28771739Y21858537D01*
X28553943Y21800180D01*
X28553931Y21800176D01*
X28548711Y21798777D01*
X28543806Y21796491D01*
X28543801Y21796488D01*
X28339455Y21701199D01*
X28339451Y21701197D01*
X28334545Y21698909D01*
X28330112Y21695806D01*
X28330105Y21695801D01*
X28145408Y21566475D01*
X28145403Y21566472D01*
X28140973Y21563369D01*
X28137149Y21559546D01*
X28137143Y21559540D01*
X27977708Y21400105D01*
X27977702Y21400099D01*
X27973879Y21396275D01*
X27970778Y21391847D01*
X27970771Y21391838D01*
X27863947Y21239278D01*
X27819629Y21200412D01*
X27762372Y21186402D01*
X27705116Y21200413D01*
X27660798Y21239279D01*
X27633916Y21277671D01*
X27550869Y21396275D01*
X27383775Y21563369D01*
X27379344Y21566472D01*
X27379340Y21566475D01*
X27194633Y21695808D01*
X27194631Y21695810D01*
X27190204Y21698909D01*
X27185307Y21701193D01*
X27185301Y21701196D01*
X26980946Y21796488D01*
X26980944Y21796489D01*
X26976037Y21798777D01*
X26970812Y21800177D01*
X26970804Y21800180D01*
X26753008Y21858537D01*
X26753004Y21858538D01*
X26747782Y21859937D01*
X26742394Y21860409D01*
X26742391Y21860409D01*
X26517769Y21880061D01*
X26512374Y21880533D01*
X26506979Y21880061D01*
X26282356Y21860409D01*
X26282351Y21860409D01*
X26276966Y21859937D01*
X26271745Y21858539D01*
X26271739Y21858537D01*
X26053943Y21800180D01*
X26053931Y21800176D01*
X26048711Y21798777D01*
X26043806Y21796491D01*
X26043801Y21796488D01*
X25839455Y21701199D01*
X25839451Y21701197D01*
X25834545Y21698909D01*
X25830112Y21695806D01*
X25830105Y21695801D01*
X25645408Y21566475D01*
X25645403Y21566472D01*
X25640973Y21563369D01*
X25637148Y21559545D01*
X25637149Y21559545D01*
X25493212Y21415608D01*
X25442817Y21385029D01*
X25383995Y21381174D01*
X25330041Y21404917D01*
X25298071Y21444754D01*
X25297188Y21444208D01*
X25208876Y21587386D01*
X25208874Y21587389D01*
X25205086Y21593530D01*
X25081030Y21717586D01*
X25074889Y21721374D01*
X25074885Y21721377D01*
X24937854Y21805897D01*
X24931708Y21809688D01*
X24819349Y21846920D01*
X24771599Y21862743D01*
X24771598Y21862744D01*
X24765171Y21864873D01*
X24758438Y21865561D01*
X24758433Y21865562D01*
X24665514Y21875055D01*
X24665497Y21875056D01*
X24662383Y21875374D01*
X24659234Y21875374D01*
X23365514Y21875374D01*
X23365494Y21875374D01*
X23362366Y21875373D01*
X23359234Y21875054D01*
X23359232Y21875053D01*
X23266312Y21865562D01*
X23266302Y21865561D01*
X23259577Y21864873D01*
X23253155Y21862746D01*
X23253150Y21862744D01*
X23099895Y21811960D01*
X23099891Y21811959D01*
X23093040Y21809688D01*
X23086896Y21805899D01*
X23086893Y21805897D01*
X22949862Y21721377D01*
X22949854Y21721371D01*
X22943718Y21717586D01*
X22938616Y21712485D01*
X22938612Y21712481D01*
X22824767Y21598636D01*
X22824763Y21598632D01*
X22819662Y21593530D01*
X22815877Y21587394D01*
X22815871Y21587386D01*
X22731351Y21450355D01*
X22727560Y21444208D01*
X22725289Y21437357D01*
X22725288Y21437353D01*
X22684316Y21313707D01*
X22672375Y21277671D01*
X22671687Y21270941D01*
X22671686Y21270934D01*
X22662193Y21178015D01*
X22662192Y21177997D01*
X22661874Y21174883D01*
X22661874Y21171736D01*
X22661874Y21171735D01*
X22661874Y19628015D01*
X22661874Y19627996D01*
X18160074Y19627996D01*
X18229816Y19697738D01*
X18325789Y19850478D01*
X18385368Y20020745D01*
X18405565Y20200000D01*
X18385368Y20379255D01*
X18325789Y20549522D01*
X18229816Y20702262D01*
X18102262Y20829816D01*
X18089081Y20838098D01*
X17955412Y20922088D01*
X17949522Y20925789D01*
X17942960Y20928085D01*
X17942948Y20928091D01*
X17819647Y20971236D01*
X17763654Y21010965D01*
X17737382Y21074394D01*
X17736861Y21079017D01*
X17728717Y21151304D01*
X17669138Y21321571D01*
X17573165Y21474311D01*
X17445611Y21601865D01*
X17425292Y21614632D01*
X17298761Y21694137D01*
X17292871Y21697838D01*
X17286308Y21700135D01*
X17286305Y21700136D01*
X17129173Y21755119D01*
X17129168Y21755121D01*
X17122604Y21757417D01*
X17115684Y21758197D01*
X17115683Y21758197D01*
X16950272Y21776834D01*
X16943349Y21777614D01*
X16936426Y21776834D01*
X16936425Y21776834D01*
X16841689Y21766161D01*
X16786852Y21772340D01*
X16740126Y21801700D01*
X16692064Y21849762D01*
X16692063Y21849763D01*
X16687136Y21854690D01*
X16678785Y21859937D01*
X16540286Y21946962D01*
X16534396Y21950663D01*
X16527833Y21952960D01*
X16527830Y21952961D01*
X16370698Y22007944D01*
X16370693Y22007946D01*
X16364129Y22010242D01*
X16357209Y22011022D01*
X16357208Y22011022D01*
X16191797Y22029659D01*
X16184874Y22030439D01*
X16177951Y22029659D01*
X16012539Y22011022D01*
X16012536Y22011022D01*
X16005619Y22010242D01*
X15999056Y22007946D01*
X15999049Y22007944D01*
X15841918Y21952961D01*
X15841914Y21952960D01*
X15835676Y21950777D01*
X15835674Y21950776D01*
X15835352Y21950663D01*
X15835339Y21950700D01*
X15785119Y21939239D01*
X15734905Y21950700D01*
X15734893Y21950663D01*
X15728327Y21952961D01*
X15728324Y21952962D01*
X15571195Y22007944D01*
X15571190Y22007946D01*
X15564626Y22010242D01*
X15557706Y22011022D01*
X15557705Y22011022D01*
X15392294Y22029659D01*
X15385371Y22030439D01*
X15378448Y22029659D01*
X15213036Y22011022D01*
X15213033Y22011022D01*
X15206116Y22010242D01*
X15199553Y22007946D01*
X15199546Y22007944D01*
X15042414Y21952961D01*
X15042407Y21952959D01*
X15035849Y21950663D01*
X15029961Y21946964D01*
X15029958Y21946962D01*
X14889009Y21858398D01*
X14889004Y21858395D01*
X14883109Y21854690D01*
X14878184Y21849766D01*
X14878180Y21849762D01*
X14760483Y21732065D01*
X14760479Y21732061D01*
X14755555Y21727136D01*
X14751850Y21721241D01*
X14751847Y21721236D01*
X14663283Y21580287D01*
X14663281Y21580284D01*
X14659582Y21574396D01*
X14657287Y21567838D01*
X14657281Y21567825D01*
X14652162Y21553195D01*
X14618778Y21502625D01*
X14565417Y21473912D01*
X14504822Y21473913D01*
X14451462Y21502628D01*
X14418080Y21553200D01*
X14412961Y21567829D01*
X14412960Y21567831D01*
X14410663Y21574396D01*
X14314690Y21727136D01*
X14187136Y21854690D01*
X14178785Y21859937D01*
X14040286Y21946962D01*
X14034396Y21950663D01*
X14027833Y21952960D01*
X14027830Y21952961D01*
X13870698Y22007944D01*
X13870693Y22007946D01*
X13864129Y22010242D01*
X13857209Y22011022D01*
X13857208Y22011022D01*
X13691797Y22029659D01*
X13684874Y22030439D01*
X13677951Y22029659D01*
X13512539Y22011022D01*
X13512536Y22011022D01*
X13505619Y22010242D01*
X13499056Y22007946D01*
X13499049Y22007944D01*
X13341917Y21952961D01*
X13341910Y21952959D01*
X13335352Y21950663D01*
X13329464Y21946964D01*
X13329461Y21946962D01*
X13188512Y21858398D01*
X13188507Y21858395D01*
X13182612Y21854690D01*
X13177687Y21849766D01*
X13177683Y21849762D01*
X13059986Y21732065D01*
X13059982Y21732061D01*
X13055058Y21727136D01*
X13051353Y21721241D01*
X13051350Y21721236D01*
X12962786Y21580287D01*
X12962784Y21580284D01*
X12959085Y21574396D01*
X12956789Y21567838D01*
X12956787Y21567831D01*
X12901804Y21410699D01*
X12901802Y21410692D01*
X12899506Y21404129D01*
X12898726Y21397212D01*
X12898726Y21397209D01*
X12890868Y21327462D01*
X12879309Y21224874D01*
X10836493Y21224874D01*
X10536819Y21524549D01*
X10509939Y21564777D01*
X10500500Y21612230D01*
X10500500Y23724874D01*
X11824408Y23724874D01*
X11825469Y23716815D01*
X11843125Y23582698D01*
X11843126Y23582692D01*
X11844187Y23574638D01*
X11902176Y23434641D01*
X11907119Y23428200D01*
X11907122Y23428194D01*
X11974063Y23340956D01*
X11994423Y23314423D01*
X12000865Y23309480D01*
X12108193Y23227123D01*
X12108196Y23227121D01*
X12114641Y23222176D01*
X12254638Y23164187D01*
X12367154Y23149374D01*
X12438541Y23149374D01*
X12442594Y23149374D01*
X12555110Y23164187D01*
X12695107Y23222176D01*
X12815325Y23314423D01*
X12907572Y23434641D01*
X12965561Y23574638D01*
X12985340Y23724874D01*
X17604408Y23724874D01*
X17605469Y23716815D01*
X17623125Y23582698D01*
X17623126Y23582692D01*
X17624187Y23574638D01*
X17682176Y23434641D01*
X17687119Y23428200D01*
X17687122Y23428194D01*
X17754063Y23340956D01*
X17774423Y23314423D01*
X17780865Y23309480D01*
X17888193Y23227123D01*
X17888196Y23227121D01*
X17894641Y23222176D01*
X18034638Y23164187D01*
X18147154Y23149374D01*
X18218541Y23149374D01*
X18222594Y23149374D01*
X18335110Y23164187D01*
X18475107Y23222176D01*
X18595325Y23314423D01*
X18687572Y23434641D01*
X18745561Y23574638D01*
X18765340Y23724874D01*
X18745561Y23875110D01*
X18687572Y24015107D01*
X18682627Y24021552D01*
X18682625Y24021555D01*
X18600268Y24128883D01*
X18595325Y24135325D01*
X18520062Y24193077D01*
X18481554Y24222626D01*
X18481548Y24222629D01*
X18475107Y24227572D01*
X18467598Y24230683D01*
X18467597Y24230683D01*
X18342619Y24282451D01*
X18342616Y24282452D01*
X18335110Y24285561D01*
X18327056Y24286622D01*
X18327050Y24286623D01*
X18226613Y24299845D01*
X18226611Y24299846D01*
X18222594Y24300374D01*
X18147154Y24300374D01*
X18143137Y24299846D01*
X18143134Y24299845D01*
X18042697Y24286623D01*
X18042689Y24286622D01*
X18034638Y24285561D01*
X18027133Y24282453D01*
X18027128Y24282451D01*
X17902150Y24230683D01*
X17902146Y24230681D01*
X17894641Y24227572D01*
X17888202Y24222632D01*
X17888193Y24222626D01*
X17780865Y24140269D01*
X17780861Y24140266D01*
X17774423Y24135325D01*
X17769482Y24128887D01*
X17769479Y24128883D01*
X17687122Y24021555D01*
X17687116Y24021546D01*
X17682176Y24015107D01*
X17679067Y24007602D01*
X17679065Y24007598D01*
X17627297Y23882620D01*
X17627295Y23882615D01*
X17624187Y23875110D01*
X17623126Y23867059D01*
X17623125Y23867051D01*
X17612433Y23785832D01*
X17604408Y23724874D01*
X12985340Y23724874D01*
X12965561Y23875110D01*
X12907572Y24015107D01*
X12902627Y24021552D01*
X12902625Y24021555D01*
X12820268Y24128883D01*
X12815325Y24135325D01*
X12740062Y24193077D01*
X12701554Y24222626D01*
X12701548Y24222629D01*
X12695107Y24227572D01*
X12687598Y24230683D01*
X12687597Y24230683D01*
X12562619Y24282451D01*
X12562616Y24282452D01*
X12555110Y24285561D01*
X12547056Y24286622D01*
X12547050Y24286623D01*
X12446613Y24299845D01*
X12446611Y24299846D01*
X12442594Y24300374D01*
X12367154Y24300374D01*
X12363137Y24299846D01*
X12363134Y24299845D01*
X12262697Y24286623D01*
X12262689Y24286622D01*
X12254638Y24285561D01*
X12247133Y24282453D01*
X12247128Y24282451D01*
X12122150Y24230683D01*
X12122146Y24230681D01*
X12114641Y24227572D01*
X12108202Y24222632D01*
X12108193Y24222626D01*
X12000865Y24140269D01*
X12000861Y24140266D01*
X11994423Y24135325D01*
X11989482Y24128887D01*
X11989479Y24128883D01*
X11907122Y24021555D01*
X11907116Y24021546D01*
X11902176Y24015107D01*
X11899067Y24007602D01*
X11899065Y24007598D01*
X11847297Y23882620D01*
X11847295Y23882615D01*
X11844187Y23875110D01*
X11843126Y23867059D01*
X11843125Y23867051D01*
X11832433Y23785832D01*
X11824408Y23724874D01*
X10500500Y23724874D01*
X10500500Y24187770D01*
X10509939Y24235223D01*
X10536819Y24275451D01*
X10802324Y24540956D01*
X11736673Y25475307D01*
X11759258Y25493163D01*
X11776009Y25503495D01*
X11776007Y25503495D01*
X11782159Y25507288D01*
X11787266Y25512396D01*
X11789978Y25514540D01*
X11790260Y25514744D01*
X11790532Y25514993D01*
X11793161Y25517200D01*
X11799199Y25521170D01*
X11850689Y25575748D01*
X11853134Y25578265D01*
X14488051Y28213182D01*
X14528279Y28240061D01*
X14575732Y28249500D01*
X24960664Y28249500D01*
X24998982Y28243431D01*
X25033545Y28225821D01*
X25047270Y28215849D01*
X25220197Y28138856D01*
X25405354Y28099500D01*
X25588143Y28099500D01*
X25594646Y28099500D01*
X25779803Y28138856D01*
X25952730Y28215849D01*
X25966454Y28225821D01*
X26001018Y28243431D01*
X26039336Y28249500D01*
X27989515Y28249500D01*
X28053115Y28231948D01*
X28098709Y28184260D01*
X28113390Y28119937D01*
X28093002Y28057189D01*
X28043316Y28013780D01*
X27973422Y27980122D01*
X27973413Y27980117D01*
X27968401Y27977703D01*
X27963899Y27974433D01*
X27963892Y27974428D01*
X27790803Y27848671D01*
X27790799Y27848669D01*
X27786296Y27845396D01*
X27782457Y27841382D01*
X27782448Y27841373D01*
X27634592Y27686727D01*
X27634586Y27686720D01*
X27630742Y27682699D01*
X27627673Y27678051D01*
X27627670Y27678046D01*
X27509809Y27499494D01*
X27509805Y27499488D01*
X27506739Y27494842D01*
X27504552Y27489726D01*
X27504547Y27489716D01*
X27420462Y27292990D01*
X27420459Y27292982D01*
X27418271Y27287862D01*
X27417031Y27282433D01*
X27417030Y27282427D01*
X27369423Y27073845D01*
X27368183Y27068411D01*
X27367933Y27062855D01*
X27367932Y27062844D01*
X27359681Y26879117D01*
X27358084Y26843544D01*
X27358829Y26838041D01*
X27358830Y26838030D01*
X27380396Y26678830D01*
X27388299Y26620487D01*
X27390018Y26615194D01*
X27390020Y26615189D01*
X27456135Y26411707D01*
X27456138Y26411699D01*
X27457857Y26406410D01*
X27460495Y26401508D01*
X27561886Y26213090D01*
X27561890Y26213084D01*
X27564522Y26208193D01*
X27567986Y26203849D01*
X27567989Y26203845D01*
X27697902Y26040940D01*
X27704866Y26032208D01*
X27709053Y26028550D01*
X27709054Y26028549D01*
X27718657Y26020159D01*
X27874378Y25884109D01*
X27879157Y25881254D01*
X27879158Y25881253D01*
X28027621Y25792551D01*
X28067610Y25768659D01*
X28278350Y25689567D01*
X28499827Y25649374D01*
X29465752Y25649374D01*
X29468529Y25649374D01*
X29636562Y25664497D01*
X29853544Y25724381D01*
X30056347Y25822045D01*
X30238452Y25954352D01*
X30394006Y26117049D01*
X30518009Y26304906D01*
X30600377Y26497617D01*
X30636539Y26545387D01*
X30690886Y26570626D01*
X30750723Y26567434D01*
X30802076Y26536556D01*
X35713181Y21625452D01*
X35740061Y21585224D01*
X35749500Y21537771D01*
X35749500Y20784195D01*
X35732887Y20722196D01*
X35724224Y20707191D01*
X35676069Y20623785D01*
X35676066Y20623780D01*
X35672821Y20618158D01*
X35670815Y20611986D01*
X35670813Y20611980D01*
X35616333Y20444310D01*
X35616331Y20444301D01*
X35614326Y20438130D01*
X35613648Y20431680D01*
X35613646Y20431670D01*
X35602740Y20327897D01*
X35594540Y20249874D01*
X35595219Y20243414D01*
X35613646Y20068079D01*
X35613647Y20068071D01*
X35614326Y20061618D01*
X35616331Y20055446D01*
X35616333Y20055439D01*
X35670773Y19887892D01*
X35672821Y19881590D01*
X35676068Y19875966D01*
X35676069Y19875964D01*
X35691193Y19849769D01*
X35726707Y19788256D01*
X35732887Y19777553D01*
X35749500Y19715553D01*
X35749500Y19612229D01*
X35740061Y19564776D01*
X35713181Y19524548D01*
X32793913Y16605281D01*
X32753685Y16578401D01*
X32706232Y16568962D01*
X30720874Y16568962D01*
X30682556Y16575031D01*
X30647992Y16592642D01*
X30634268Y16602613D01*
X30628276Y16605281D01*
X30467283Y16676961D01*
X30467278Y16676963D01*
X30461341Y16679606D01*
X30454982Y16680958D01*
X30454978Y16680959D01*
X30282546Y16717610D01*
X30282543Y16717611D01*
X30276184Y16718962D01*
X30086892Y16718962D01*
X30080533Y16717611D01*
X30080529Y16717610D01*
X29908097Y16680959D01*
X29908090Y16680957D01*
X29901735Y16679606D01*
X29895800Y16676964D01*
X29895792Y16676961D01*
X29734745Y16605257D01*
X29734740Y16605255D01*
X29728808Y16602613D01*
X29723554Y16598797D01*
X29723549Y16598793D01*
X29580926Y16495172D01*
X29580919Y16495167D01*
X29575667Y16491350D01*
X29571322Y16486525D01*
X29571317Y16486520D01*
X29453351Y16355506D01*
X29453346Y16355500D01*
X29449005Y16350678D01*
X29445760Y16345058D01*
X29445756Y16345052D01*
X29357607Y16192373D01*
X29357604Y16192368D01*
X29354359Y16186746D01*
X29352353Y16180574D01*
X29352351Y16180568D01*
X29297871Y16012898D01*
X29297869Y16012889D01*
X29295864Y16006718D01*
X29295186Y16000268D01*
X29295184Y16000258D01*
X29280133Y15857044D01*
X29276078Y15818462D01*
X29276757Y15812002D01*
X29295184Y15636667D01*
X29295185Y15636659D01*
X29295864Y15630206D01*
X29297869Y15624034D01*
X29297871Y15624027D01*
X29348130Y15469349D01*
X29354359Y15450178D01*
X29357606Y15444554D01*
X29357607Y15444552D01*
X29432883Y15314169D01*
X29449005Y15286246D01*
X29453349Y15281421D01*
X29453351Y15281419D01*
X29571317Y15150405D01*
X29575667Y15145574D01*
X29728808Y15034311D01*
X29901735Y14957318D01*
X30086892Y14917962D01*
X30269681Y14917962D01*
X30276184Y14917962D01*
X30461341Y14957318D01*
X30634268Y15034311D01*
X30647992Y15044283D01*
X30682556Y15061893D01*
X30720874Y15067962D01*
X32159314Y15067962D01*
X32215609Y15054447D01*
X32259632Y15016847D01*
X32281787Y14963360D01*
X32277245Y14905644D01*
X32246995Y14856281D01*
X29352533Y11961819D01*
X29312305Y11934939D01*
X29264852Y11925500D01*
X27333312Y11925500D01*
X27267340Y11944506D01*
X27155412Y12014835D01*
X27149522Y12018536D01*
X27142959Y12020833D01*
X27142956Y12020834D01*
X26985824Y12075817D01*
X26985819Y12075819D01*
X26979255Y12078115D01*
X26972335Y12078895D01*
X26972334Y12078895D01*
X26806923Y12097532D01*
X26800000Y12098312D01*
X26793077Y12097532D01*
X26627665Y12078895D01*
X26627662Y12078895D01*
X26620745Y12078115D01*
X26614182Y12075819D01*
X26614175Y12075817D01*
X26457043Y12020834D01*
X26457036Y12020832D01*
X26450478Y12018536D01*
X26444590Y12014837D01*
X26444587Y12014835D01*
X26303638Y11926271D01*
X26303633Y11926268D01*
X26297738Y11922563D01*
X26292813Y11917639D01*
X26292809Y11917635D01*
X26175112Y11799938D01*
X26175108Y11799934D01*
X26170184Y11795009D01*
X26166479Y11789114D01*
X26166476Y11789109D01*
X26077912Y11648160D01*
X26077910Y11648157D01*
X26074211Y11642269D01*
X26071915Y11635711D01*
X26071913Y11635704D01*
X26016930Y11478572D01*
X26016928Y11478565D01*
X26014632Y11472002D01*
X26013852Y11465085D01*
X26013852Y11465082D01*
X26003715Y11375113D01*
X25994435Y11292747D01*
X25995215Y11285824D01*
X26011389Y11142269D01*
X26014632Y11113492D01*
X26016928Y11106928D01*
X26016930Y11106923D01*
X26071913Y10949791D01*
X26074211Y10943225D01*
X26088569Y10920375D01*
X26159589Y10807346D01*
X26170184Y10790485D01*
X26297738Y10662931D01*
X26450478Y10566958D01*
X26620745Y10507379D01*
X26800000Y10487182D01*
X26979255Y10507379D01*
X27149522Y10566958D01*
X27290426Y10655495D01*
X27356398Y10674500D01*
X29497530Y10674500D01*
X29508585Y10673979D01*
X29515972Y10672327D01*
X29583177Y10674439D01*
X29587073Y10674500D01*
X29610753Y10674500D01*
X29614655Y10674500D01*
X29618618Y10675001D01*
X29630268Y10675920D01*
X29673932Y10677291D01*
X29693166Y10682881D01*
X29712222Y10686826D01*
X29732097Y10689336D01*
X29772700Y10705413D01*
X29783755Y10709198D01*
X29825695Y10721382D01*
X29842934Y10731578D01*
X29860408Y10740138D01*
X29871779Y10744640D01*
X29871781Y10744642D01*
X29879037Y10747514D01*
X29914374Y10773189D01*
X29924129Y10779597D01*
X29961725Y10801830D01*
X29975889Y10815995D01*
X29990684Y10828632D01*
X30006892Y10840406D01*
X30034733Y10874062D01*
X30042584Y10882691D01*
X33088318Y13928424D01*
X33137682Y13958674D01*
X33195398Y13963216D01*
X33248885Y13941061D01*
X33286485Y13897038D01*
X33300000Y13840743D01*
X33300000Y12299972D01*
X33293042Y12259017D01*
X33267430Y12185825D01*
X33267428Y12185818D01*
X33265132Y12179255D01*
X33264352Y12172338D01*
X33264352Y12172335D01*
X33253824Y12078895D01*
X33244935Y12000000D01*
X33245715Y11993077D01*
X33252265Y11934939D01*
X33265132Y11820745D01*
X33267428Y11814181D01*
X33267430Y11814176D01*
X33322413Y11657044D01*
X33324711Y11650478D01*
X33328412Y11644588D01*
X33406229Y11520742D01*
X33420684Y11497738D01*
X33548238Y11370184D01*
X33700978Y11274211D01*
X33871245Y11214632D01*
X34050500Y11194435D01*
X34229755Y11214632D01*
X34400022Y11274211D01*
X34400035Y11274173D01*
X34450248Y11285636D01*
X34500467Y11274174D01*
X34500481Y11274211D01*
X34670748Y11214632D01*
X34850003Y11194435D01*
X35029258Y11214632D01*
X35199525Y11274211D01*
X35213564Y11283033D01*
X35265655Y11301262D01*
X35320495Y11295085D01*
X35469752Y11242857D01*
X35649007Y11222660D01*
X35828262Y11242857D01*
X35834834Y11245157D01*
X35840247Y11246392D01*
X35867836Y11249500D01*
X39738811Y11249500D01*
X39786264Y11240061D01*
X39826492Y11213181D01*
X40713181Y10326492D01*
X40740061Y10286264D01*
X40749500Y10238811D01*
X40749500Y9363707D01*
X40748191Y9345736D01*
X40744711Y9321977D01*
X40745340Y9314786D01*
X40745340Y9314779D01*
X40749028Y9272631D01*
X40749500Y9261824D01*
X40749500Y9256291D01*
X40749916Y9252728D01*
X40749917Y9252718D01*
X40753098Y9225504D01*
X40753464Y9221918D01*
X40759371Y9154396D01*
X40759372Y9154391D01*
X40760001Y9147203D01*
X40762271Y9140351D01*
X40762976Y9136937D01*
X40763028Y9136616D01*
X40763120Y9136291D01*
X40763920Y9132915D01*
X40764759Y9125745D01*
X40790413Y9055258D01*
X40791582Y9051892D01*
X40812913Y8987521D01*
X40812917Y8987511D01*
X40815186Y8980666D01*
X40818971Y8974528D01*
X40820443Y8971372D01*
X40820570Y8971065D01*
X40820729Y8970780D01*
X40822295Y8967662D01*
X40824763Y8960883D01*
X40828727Y8954856D01*
X40828729Y8954852D01*
X40865979Y8898216D01*
X40867900Y8895201D01*
X40907288Y8831344D01*
X40912392Y8826240D01*
X40914542Y8823521D01*
X40914739Y8823248D01*
X40914973Y8822993D01*
X40917202Y8820337D01*
X40921170Y8814304D01*
X40926423Y8809348D01*
X40926424Y8809347D01*
X40975708Y8762850D01*
X40978295Y8760337D01*
X41074270Y8664362D01*
X41086052Y8650729D01*
X41100390Y8631470D01*
X41105917Y8626833D01*
X41105922Y8626827D01*
X41138337Y8599628D01*
X41146313Y8592319D01*
X41150223Y8588409D01*
X41174556Y8569169D01*
X41177310Y8566927D01*
X41234786Y8518698D01*
X41241245Y8515454D01*
X41244134Y8513554D01*
X41244413Y8513352D01*
X41244713Y8513185D01*
X41247654Y8511371D01*
X41253323Y8506889D01*
X41317311Y8477051D01*
X41321321Y8475181D01*
X41324534Y8473626D01*
X41391567Y8439960D01*
X41398594Y8438295D01*
X41401835Y8437115D01*
X41402164Y8436979D01*
X41402498Y8436884D01*
X41405778Y8435798D01*
X41412327Y8432743D01*
X41485894Y8417553D01*
X41489257Y8416807D01*
X41562279Y8399500D01*
X41569510Y8399500D01*
X41572933Y8399100D01*
X41573285Y8399043D01*
X41573626Y8399028D01*
X41577069Y8398727D01*
X41584144Y8397266D01*
X41659129Y8399448D01*
X41662737Y8399500D01*
X42788375Y8399500D01*
X42806345Y8398191D01*
X42807533Y8398017D01*
X42869268Y8370316D01*
X42907269Y8314330D01*
X42910221Y8246730D01*
X42877244Y8187645D01*
X42598197Y7908598D01*
X42569684Y7887306D01*
X42536299Y7874989D01*
X42477525Y7862496D01*
X42477521Y7862496D01*
X42471166Y7861144D01*
X42465231Y7858502D01*
X42465223Y7858499D01*
X42304176Y7786795D01*
X42304171Y7786793D01*
X42298239Y7784151D01*
X42292985Y7780335D01*
X42292980Y7780331D01*
X42150357Y7676710D01*
X42150350Y7676705D01*
X42145098Y7672888D01*
X42140753Y7668063D01*
X42140748Y7668058D01*
X42022782Y7537044D01*
X42022777Y7537038D01*
X42018436Y7532216D01*
X42015191Y7526596D01*
X42015187Y7526590D01*
X41927038Y7373911D01*
X41927035Y7373906D01*
X41923790Y7368284D01*
X41921784Y7362112D01*
X41921782Y7362106D01*
X41867302Y7194436D01*
X41867300Y7194427D01*
X41865295Y7188256D01*
X41864617Y7181806D01*
X41864615Y7181796D01*
X41850542Y7047889D01*
X41845509Y7000000D01*
X41846188Y6993540D01*
X41864615Y6818205D01*
X41864616Y6818197D01*
X41865295Y6811744D01*
X41867300Y6805572D01*
X41867302Y6805565D01*
X41903411Y6694435D01*
X41923790Y6631716D01*
X41927037Y6626092D01*
X41927038Y6626090D01*
X41991655Y6514169D01*
X42018436Y6467784D01*
X42022780Y6462959D01*
X42022782Y6462957D01*
X42116346Y6359044D01*
X42145098Y6327112D01*
X42298239Y6215849D01*
X42471166Y6138856D01*
X42656323Y6099500D01*
X42839112Y6099500D01*
X42845615Y6099500D01*
X43030772Y6138856D01*
X43203699Y6215849D01*
X43356840Y6327112D01*
X43483502Y6467784D01*
X43578148Y6631716D01*
X43633491Y6802045D01*
X43663738Y6851403D01*
X45625517Y8813182D01*
X45665745Y8840061D01*
X45713198Y8849500D01*
X61424519Y8849500D01*
X61474954Y8838780D01*
X61516669Y8808472D01*
X61537946Y8784841D01*
X61553629Y8767424D01*
X61558887Y8763604D01*
X61558888Y8763603D01*
X61561624Y8761615D01*
X61706770Y8656161D01*
X61879697Y8579168D01*
X62064854Y8539812D01*
X62247643Y8539812D01*
X62254146Y8539812D01*
X62439303Y8579168D01*
X62612230Y8656161D01*
X62629118Y8668432D01*
X62676223Y8689406D01*
X62727786Y8689407D01*
X62774889Y8668437D01*
X62847270Y8615849D01*
X63020197Y8538856D01*
X63205354Y8499500D01*
X63388143Y8499500D01*
X63394646Y8499500D01*
X63579803Y8538856D01*
X63752730Y8615849D01*
X63905871Y8727112D01*
X63957851Y8784842D01*
X64015821Y8821065D01*
X64084179Y8821065D01*
X64142148Y8784842D01*
X64194129Y8727112D01*
X64347270Y8615849D01*
X64520197Y8538856D01*
X64705354Y8499500D01*
X64888143Y8499500D01*
X64894646Y8499500D01*
X65079803Y8538856D01*
X65252730Y8615849D01*
X65405871Y8727112D01*
X65532533Y8867784D01*
X65627179Y9031716D01*
X65685674Y9211744D01*
X65705460Y9400000D01*
X65685674Y9588256D01*
X65627179Y9768284D01*
X65567112Y9872322D01*
X65550500Y9934321D01*
X65550500Y11250000D01*
X69369390Y11250000D01*
X69369706Y11245582D01*
X69389487Y10968995D01*
X69389488Y10968986D01*
X69389804Y10964572D01*
X69390744Y10960247D01*
X69390746Y10960239D01*
X69427674Y10790485D01*
X69450631Y10684954D01*
X69452175Y10680815D01*
X69452176Y10680811D01*
X69542845Y10437718D01*
X69550633Y10416839D01*
X69552753Y10412957D01*
X69552756Y10412950D01*
X69666141Y10205302D01*
X69687774Y10165685D01*
X69859261Y9936605D01*
X70061605Y9734261D01*
X70290685Y9562774D01*
X70541839Y9425633D01*
X70809954Y9325631D01*
X71089572Y9264804D01*
X71375000Y9244390D01*
X71660428Y9264804D01*
X71940046Y9325631D01*
X72208161Y9425633D01*
X72459315Y9562774D01*
X72688395Y9734261D01*
X72890739Y9936605D01*
X73062226Y10165685D01*
X73199367Y10416839D01*
X73299369Y10684954D01*
X73360196Y10964572D01*
X73380610Y11250000D01*
X73360196Y11535428D01*
X73299369Y11815046D01*
X73199367Y12083161D01*
X73062226Y12334315D01*
X72890739Y12563395D01*
X72688395Y12765739D01*
X72508061Y12900735D01*
X72471489Y12944495D01*
X72458373Y13000000D01*
X72471489Y13055505D01*
X72508061Y13099266D01*
X72688395Y13234261D01*
X72890739Y13436605D01*
X73062226Y13665685D01*
X73199367Y13916839D01*
X73299369Y14184954D01*
X73360196Y14464572D01*
X73380610Y14750000D01*
X73360196Y15035428D01*
X73299369Y15315046D01*
X73199367Y15583161D01*
X73062226Y15834315D01*
X72894688Y16058119D01*
X72870789Y16118079D01*
X72880265Y16181930D01*
X72920550Y16232366D01*
X72967829Y16250716D01*
X72967220Y16253296D01*
X72974767Y16255080D01*
X72982483Y16255909D01*
X73117331Y16306204D01*
X73232546Y16392454D01*
X73318796Y16507669D01*
X73369091Y16642517D01*
X73375500Y16702127D01*
X73375499Y19797872D01*
X73369091Y19857483D01*
X73318796Y19992331D01*
X73232546Y20107546D01*
X73224369Y20113667D01*
X73124431Y20188481D01*
X73124430Y20188482D01*
X73117331Y20193796D01*
X72982483Y20244091D01*
X72974770Y20244921D01*
X72974767Y20244921D01*
X72926180Y20250145D01*
X72926169Y20250146D01*
X72922873Y20250500D01*
X72919550Y20250500D01*
X69830439Y20250500D01*
X69830420Y20250500D01*
X69827128Y20250499D01*
X69823850Y20250147D01*
X69823838Y20250146D01*
X69775231Y20244921D01*
X69775225Y20244920D01*
X69767517Y20244091D01*
X69760252Y20241382D01*
X69760246Y20241380D01*
X69640980Y20196896D01*
X69640978Y20196896D01*
X69632669Y20193796D01*
X69625572Y20188484D01*
X69625568Y20188481D01*
X69524550Y20112859D01*
X69524546Y20112856D01*
X69517454Y20107546D01*
X69512144Y20100454D01*
X69512141Y20100450D01*
X69436519Y19999432D01*
X69436516Y19999428D01*
X69431204Y19992331D01*
X69428104Y19984022D01*
X69428104Y19984020D01*
X69383620Y19864753D01*
X69383619Y19864750D01*
X69380909Y19857483D01*
X69380079Y19849773D01*
X69380079Y19849768D01*
X69374855Y19801181D01*
X69374854Y19801169D01*
X69374500Y19797873D01*
X69374500Y19794552D01*
X69374500Y19794551D01*
X69374500Y16705440D01*
X69374500Y16705422D01*
X69374501Y16702128D01*
X69374853Y16698850D01*
X69374854Y16698839D01*
X69380079Y16650232D01*
X69380080Y16650227D01*
X69380909Y16642517D01*
X69383619Y16635251D01*
X69383620Y16635247D01*
X69408343Y16568962D01*
X69431204Y16507669D01*
X69436518Y16500570D01*
X69436519Y16500569D01*
X69500919Y16414541D01*
X69517454Y16392454D01*
X69632669Y16306204D01*
X69767517Y16255909D01*
X69775234Y16255080D01*
X69782776Y16253297D01*
X69782165Y16250715D01*
X69829440Y16232373D01*
X69869731Y16181938D01*
X69879211Y16118085D01*
X69855310Y16058119D01*
X69692743Y15840953D01*
X69687774Y15834315D01*
X69685651Y15830429D01*
X69685647Y15830421D01*
X69552756Y15587051D01*
X69552750Y15587039D01*
X69550633Y15583161D01*
X69549089Y15579024D01*
X69549085Y15579013D01*
X69452176Y15319190D01*
X69452173Y15319182D01*
X69450631Y15315046D01*
X69449690Y15310724D01*
X69449690Y15310721D01*
X69390746Y15039762D01*
X69390744Y15039752D01*
X69389804Y15035428D01*
X69389488Y15031017D01*
X69389487Y15031006D01*
X69375507Y14835524D01*
X69369390Y14750000D01*
X69369706Y14745582D01*
X69389487Y14468995D01*
X69389488Y14468986D01*
X69389804Y14464572D01*
X69390744Y14460247D01*
X69390746Y14460239D01*
X69424098Y14306923D01*
X69450631Y14184954D01*
X69452175Y14180815D01*
X69452176Y14180811D01*
X69541598Y13941061D01*
X69550633Y13916839D01*
X69552753Y13912957D01*
X69552756Y13912950D01*
X69672817Y13693077D01*
X69687774Y13665685D01*
X69859261Y13436605D01*
X70061605Y13234261D01*
X70065156Y13231603D01*
X70241936Y13099267D01*
X70278510Y13055505D01*
X70291626Y13000000D01*
X70278510Y12944495D01*
X70241936Y12900733D01*
X70065156Y12768398D01*
X70065149Y12768393D01*
X70061605Y12765739D01*
X70058474Y12762609D01*
X70058467Y12762602D01*
X69862398Y12566533D01*
X69862391Y12566526D01*
X69859261Y12563395D01*
X69856607Y12559851D01*
X69856602Y12559844D01*
X69690434Y12337869D01*
X69687774Y12334315D01*
X69685651Y12330429D01*
X69685647Y12330421D01*
X69552756Y12087051D01*
X69552750Y12087039D01*
X69550633Y12083161D01*
X69549089Y12079024D01*
X69549085Y12079013D01*
X69452176Y11819190D01*
X69452173Y11819182D01*
X69450631Y11815046D01*
X69449690Y11810724D01*
X69449690Y11810721D01*
X69390746Y11539762D01*
X69390744Y11539752D01*
X69389804Y11535428D01*
X69389488Y11531017D01*
X69389487Y11531006D01*
X69371424Y11278439D01*
X69369390Y11250000D01*
X65550500Y11250000D01*
X65550500Y19065679D01*
X65567113Y19127679D01*
X65609510Y19201113D01*
X65627179Y19231716D01*
X65685674Y19411744D01*
X65705460Y19600000D01*
X65685674Y19788256D01*
X65627179Y19968284D01*
X65567112Y20072322D01*
X65550500Y20134321D01*
X65550500Y28323702D01*
X65564016Y28379998D01*
X65596552Y28418093D01*
X65595785Y28418945D01*
X65600610Y28423290D01*
X65605871Y28427112D01*
X65732533Y28567784D01*
X65827179Y28731716D01*
X65885674Y28911744D01*
X65905460Y29100000D01*
X65885674Y29288256D01*
X65827179Y29468284D01*
X65732533Y29632216D01*
X65685173Y29684814D01*
X65610220Y29768058D01*
X65610219Y29768059D01*
X65605871Y29772888D01*
X65600611Y29776709D01*
X65595785Y29781055D01*
X65596720Y29782095D01*
X65562713Y29823199D01*
X65551154Y29883782D01*
X65570212Y29942441D01*
X65615171Y29984661D01*
X65674910Y30000000D01*
X73076881Y30000000D01*
X74496781Y29999501D01*
X74503224Y29999332D01*
X74633379Y29992510D01*
X74813908Y29982372D01*
X74826309Y29981045D01*
X74974990Y29957496D01*
X74976245Y29957291D01*
X75135324Y29930262D01*
X75146606Y29927798D01*
X75295635Y29887866D01*
X75297761Y29887275D01*
X75449174Y29843653D01*
X75459260Y29840271D01*
X75604710Y29784438D01*
X75607599Y29783286D01*
X75751768Y29723570D01*
X75760594Y29719500D01*
X75900064Y29648435D01*
X75903748Y29646479D01*
X75993848Y29596684D01*
X76039548Y29571426D01*
X76047061Y29566919D01*
X76178754Y29481396D01*
X76182947Y29478548D01*
X76309147Y29389004D01*
X76315426Y29384243D01*
X76418707Y29300607D01*
X76437567Y29285335D01*
X76442154Y29281433D01*
X76542428Y29191822D01*
X76557424Y29178421D01*
X76562478Y29173642D01*
X76673640Y29062480D01*
X76678419Y29057426D01*
X76781427Y28942160D01*
X76785333Y28937569D01*
X76884239Y28815430D01*
X76889002Y28809149D01*
X76978546Y28682949D01*
X76981409Y28678734D01*
X77066907Y28547079D01*
X77071430Y28539540D01*
X77146477Y28403750D01*
X77148433Y28400066D01*
X77219498Y28260596D01*
X77223575Y28251753D01*
X77283259Y28107663D01*
X77284462Y28104647D01*
X77340265Y27959273D01*
X77343655Y27949164D01*
X77387258Y27797815D01*
X77387879Y27795581D01*
X77427791Y27646630D01*
X77430264Y27635306D01*
X77457282Y27476285D01*
X77457507Y27474913D01*
X77481040Y27326334D01*
X77482372Y27313889D01*
X77492498Y27133579D01*
X77492523Y27133116D01*
X77499333Y27003171D01*
X77499503Y26996811D01*
X77500000Y26522791D01*
X77500000Y22122311D01*
X77484882Y22062976D01*
X77443215Y22018109D01*
X77385159Y21998650D01*
X77324869Y22009344D01*
X77277047Y22047583D01*
X77269440Y22057656D01*
X77269437Y22057659D01*
X77265981Y22062236D01*
X77261744Y22066099D01*
X77261740Y22066103D01*
X77105796Y22208264D01*
X77105797Y22208264D01*
X77101562Y22212124D01*
X77096692Y22215139D01*
X77096690Y22215141D01*
X76917275Y22326229D01*
X76917276Y22326229D01*
X76912401Y22329247D01*
X76790512Y22376467D01*
X76710286Y22407547D01*
X76710285Y22407548D01*
X76704940Y22409618D01*
X76699302Y22410672D01*
X76491872Y22449448D01*
X76491869Y22449449D01*
X76486243Y22450500D01*
X76263757Y22450500D01*
X76258131Y22449449D01*
X76258127Y22449448D01*
X76050697Y22410672D01*
X76050694Y22410672D01*
X76045060Y22409618D01*
X76039717Y22407549D01*
X76039713Y22407547D01*
X75842941Y22331317D01*
X75842936Y22331315D01*
X75837599Y22329247D01*
X75832727Y22326231D01*
X75832724Y22326229D01*
X75653309Y22215141D01*
X75653301Y22215136D01*
X75648438Y22212124D01*
X75644207Y22208268D01*
X75644203Y22208264D01*
X75488259Y22066103D01*
X75488249Y22066093D01*
X75484019Y22062236D01*
X75480570Y22057670D01*
X75480561Y22057659D01*
X75353394Y21889262D01*
X75353387Y21889252D01*
X75349942Y21884689D01*
X75347392Y21879569D01*
X75347387Y21879560D01*
X75253325Y21690659D01*
X75253321Y21690651D01*
X75250771Y21685528D01*
X75249205Y21680025D01*
X75249201Y21680014D01*
X75192077Y21479240D01*
X75189885Y21471536D01*
X75189356Y21465831D01*
X75189356Y21465829D01*
X75184248Y21410699D01*
X75169357Y21250000D01*
X75169886Y21244291D01*
X75189162Y21036261D01*
X75189885Y21028464D01*
X75191454Y21022950D01*
X75249201Y20819987D01*
X75249204Y20819979D01*
X75250771Y20814472D01*
X75253323Y20809347D01*
X75253325Y20809342D01*
X75347387Y20620441D01*
X75347389Y20620437D01*
X75349942Y20615311D01*
X75353391Y20610744D01*
X75353394Y20610739D01*
X75480561Y20442342D01*
X75480566Y20442337D01*
X75484019Y20437764D01*
X75488255Y20433903D01*
X75488259Y20433898D01*
X75583404Y20347162D01*
X75648438Y20287876D01*
X75837599Y20170753D01*
X76045060Y20090382D01*
X76263757Y20049500D01*
X76480514Y20049500D01*
X76486243Y20049500D01*
X76704940Y20090382D01*
X76912401Y20170753D01*
X77101562Y20287876D01*
X77265981Y20437764D01*
X77272528Y20446435D01*
X77277047Y20452417D01*
X77324869Y20490656D01*
X77385159Y20501350D01*
X77443215Y20481891D01*
X77484882Y20437024D01*
X77500000Y20377689D01*
X77500000Y9122311D01*
X77484882Y9062976D01*
X77443215Y9018109D01*
X77385159Y8998650D01*
X77324869Y9009344D01*
X77277047Y9047583D01*
X77269440Y9057656D01*
X77269437Y9057659D01*
X77265981Y9062236D01*
X77261744Y9066099D01*
X77261740Y9066103D01*
X77105796Y9208264D01*
X77105797Y9208264D01*
X77101562Y9212124D01*
X77096692Y9215139D01*
X77096690Y9215141D01*
X76935768Y9314779D01*
X76912401Y9329247D01*
X76704940Y9409618D01*
X76699302Y9410672D01*
X76491872Y9449448D01*
X76491869Y9449449D01*
X76486243Y9450500D01*
X76263757Y9450500D01*
X76258131Y9449449D01*
X76258127Y9449448D01*
X76050697Y9410672D01*
X76050694Y9410672D01*
X76045060Y9409618D01*
X76039717Y9407549D01*
X76039713Y9407547D01*
X75842941Y9331317D01*
X75842936Y9331315D01*
X75837599Y9329247D01*
X75832727Y9326231D01*
X75832724Y9326229D01*
X75653309Y9215141D01*
X75653301Y9215136D01*
X75648438Y9212124D01*
X75644207Y9208268D01*
X75644203Y9208264D01*
X75488259Y9066103D01*
X75488249Y9066093D01*
X75484019Y9062236D01*
X75480570Y9057670D01*
X75480561Y9057659D01*
X75353394Y8889262D01*
X75353387Y8889252D01*
X75349942Y8884689D01*
X75347392Y8879569D01*
X75347387Y8879560D01*
X75253325Y8690659D01*
X75253321Y8690651D01*
X75250771Y8685528D01*
X75249205Y8680025D01*
X75249201Y8680014D01*
X75201735Y8513185D01*
X75189885Y8471536D01*
X75189356Y8465831D01*
X75189356Y8465829D01*
X75175318Y8314330D01*
X75169357Y8250000D01*
X75169886Y8244291D01*
X75186202Y8068205D01*
X75189885Y8028464D01*
X75191454Y8022950D01*
X75249201Y7819987D01*
X75249204Y7819979D01*
X75250771Y7814472D01*
X75253323Y7809347D01*
X75253325Y7809342D01*
X75347387Y7620441D01*
X75347389Y7620437D01*
X75349942Y7615311D01*
X75353391Y7610744D01*
X75353394Y7610739D01*
X75480561Y7442342D01*
X75480566Y7442337D01*
X75484019Y7437764D01*
X75488255Y7433903D01*
X75488259Y7433898D01*
X75580840Y7349500D01*
X75648438Y7287876D01*
X75837599Y7170753D01*
X76045060Y7090382D01*
X76263757Y7049500D01*
X76480514Y7049500D01*
X76486243Y7049500D01*
X76704940Y7090382D01*
X76912401Y7170753D01*
X77101562Y7287876D01*
X77265981Y7437764D01*
X77276883Y7452200D01*
X77277047Y7452417D01*
X77324869Y7490656D01*
X77385159Y7501350D01*
X77443215Y7481891D01*
X77484882Y7437024D01*
X77500000Y7377689D01*
X77500000Y2642728D01*
X77498473Y2623328D01*
X77482342Y2521491D01*
X77482117Y2520121D01*
X77454790Y2359282D01*
X77452317Y2347958D01*
X77412121Y2197947D01*
X77411500Y2195714D01*
X77367449Y2042809D01*
X77364059Y2032698D01*
X77307821Y1886196D01*
X77306618Y1883182D01*
X77246353Y1737687D01*
X77242277Y1728844D01*
X77170673Y1588314D01*
X77168716Y1584628D01*
X77092913Y1447472D01*
X77088380Y1439918D01*
X77002255Y1307297D01*
X76999390Y1303077D01*
X76908952Y1175615D01*
X76904187Y1169333D01*
X76804510Y1046245D01*
X76800605Y1041656D01*
X76696599Y925272D01*
X76691820Y920217D01*
X76579783Y808180D01*
X76574728Y803401D01*
X76458344Y699395D01*
X76453755Y695490D01*
X76330667Y595813D01*
X76324385Y591048D01*
X76196923Y500610D01*
X76192703Y497745D01*
X76060082Y411620D01*
X76052528Y407087D01*
X75915372Y331284D01*
X75911686Y329327D01*
X75771156Y257723D01*
X75762313Y253647D01*
X75616818Y193382D01*
X75613804Y192179D01*
X75467302Y135941D01*
X75457191Y132551D01*
X75304286Y88500D01*
X75302053Y87879D01*
X75152042Y47683D01*
X75140718Y45210D01*
X74979879Y17883D01*
X74978509Y17658D01*
X74886462Y3078D01*
X74876670Y1527D01*
X74857272Y0D01*
X2642728Y0D01*
X2623329Y1527D01*
X2521490Y17658D01*
X2520119Y17883D01*
X2359280Y45210D01*
X2347956Y47683D01*
X2197945Y87879D01*
X2195712Y88500D01*
X2042807Y132551D01*
X2032696Y135941D01*
X1886194Y192179D01*
X1883180Y193382D01*
X1737685Y253647D01*
X1728842Y257723D01*
X1588312Y329327D01*
X1584626Y331284D01*
X1447470Y407087D01*
X1439916Y411620D01*
X1307295Y497745D01*
X1303075Y500610D01*
X1261233Y530299D01*
X1175601Y591057D01*
X1169340Y595806D01*
X1139853Y619684D01*
X1046243Y695490D01*
X1041654Y699395D01*
X925270Y803401D01*
X920215Y808180D01*
X808178Y920217D01*
X803399Y925272D01*
X699393Y1041656D01*
X695488Y1046245D01*
X638364Y1116785D01*
X595798Y1169350D01*
X591063Y1175592D01*
X500601Y1303087D01*
X497743Y1307297D01*
X411618Y1439918D01*
X407092Y1447461D01*
X331279Y1584632D01*
X329325Y1588314D01*
X310882Y1624510D01*
X257713Y1728861D01*
X253653Y1737669D01*
X193380Y1883182D01*
X192177Y1886196D01*
X151251Y1992810D01*
X135933Y2032714D01*
X132554Y2042792D01*
X88482Y2195771D01*
X87892Y2197892D01*
X47676Y2347978D01*
X45212Y2359264D01*
X21300Y2500000D01*
X49494435Y2500000D01*
X49495215Y2493077D01*
X49513296Y2332598D01*
X49514632Y2320745D01*
X49516928Y2314181D01*
X49516930Y2314176D01*
X49571913Y2157044D01*
X49574211Y2150478D01*
X49670184Y1997738D01*
X49797738Y1870184D01*
X49950478Y1774211D01*
X50120745Y1714632D01*
X50300000Y1694435D01*
X50479255Y1714632D01*
X50559051Y1742555D01*
X50600000Y1749512D01*
X50640948Y1742555D01*
X50720745Y1714632D01*
X50900000Y1694435D01*
X51079255Y1714632D01*
X51159051Y1742555D01*
X51200000Y1749512D01*
X51240948Y1742555D01*
X51320745Y1714632D01*
X51500000Y1694435D01*
X51679255Y1714632D01*
X51759051Y1742555D01*
X51800000Y1749512D01*
X51840948Y1742555D01*
X51920745Y1714632D01*
X52100000Y1694435D01*
X52279255Y1714632D01*
X52359051Y1742555D01*
X52400000Y1749512D01*
X52440948Y1742555D01*
X52520745Y1714632D01*
X52700000Y1694435D01*
X52879255Y1714632D01*
X52959051Y1742555D01*
X53000000Y1749512D01*
X53040948Y1742555D01*
X53120745Y1714632D01*
X53300000Y1694435D01*
X53479255Y1714632D01*
X53559051Y1742555D01*
X53600000Y1749512D01*
X53640948Y1742555D01*
X53720745Y1714632D01*
X53900000Y1694435D01*
X54079255Y1714632D01*
X54159051Y1742555D01*
X54200000Y1749512D01*
X54240948Y1742555D01*
X54320745Y1714632D01*
X54500000Y1694435D01*
X54679255Y1714632D01*
X54849522Y1774211D01*
X55002262Y1870184D01*
X55129816Y1997738D01*
X55225789Y2150478D01*
X55285368Y2320745D01*
X55305565Y2500000D01*
X56694435Y2500000D01*
X56695215Y2493077D01*
X56713296Y2332598D01*
X56714632Y2320745D01*
X56716928Y2314181D01*
X56716930Y2314176D01*
X56771913Y2157044D01*
X56774211Y2150478D01*
X56870184Y1997738D01*
X56997738Y1870184D01*
X57150478Y1774211D01*
X57320745Y1714632D01*
X57500000Y1694435D01*
X57679255Y1714632D01*
X57759051Y1742555D01*
X57800000Y1749512D01*
X57840948Y1742555D01*
X57920745Y1714632D01*
X58100000Y1694435D01*
X58279255Y1714632D01*
X58359051Y1742555D01*
X58400000Y1749512D01*
X58440948Y1742555D01*
X58520745Y1714632D01*
X58700000Y1694435D01*
X58879255Y1714632D01*
X58968261Y1745778D01*
X59009211Y1752735D01*
X59050160Y1745778D01*
X59125073Y1719564D01*
X59304328Y1699367D01*
X59483583Y1719564D01*
X59554162Y1744262D01*
X59595116Y1751220D01*
X59636071Y1744261D01*
X59720745Y1714632D01*
X59900000Y1694435D01*
X60079255Y1714632D01*
X60159051Y1742555D01*
X60200000Y1749512D01*
X60240948Y1742555D01*
X60320745Y1714632D01*
X60500000Y1694435D01*
X60679255Y1714632D01*
X60759051Y1742555D01*
X60800000Y1749512D01*
X60840948Y1742555D01*
X60920745Y1714632D01*
X61100000Y1694435D01*
X61279255Y1714632D01*
X61368261Y1745778D01*
X61409211Y1752735D01*
X61450160Y1745778D01*
X61525073Y1719564D01*
X61704328Y1699367D01*
X61883583Y1719564D01*
X62053850Y1779143D01*
X62206590Y1875116D01*
X62334144Y2002670D01*
X62430117Y2155410D01*
X62489696Y2325677D01*
X62509893Y2504932D01*
X62489696Y2684187D01*
X62461773Y2763984D01*
X62454816Y2804933D01*
X62461773Y2845881D01*
X62489696Y2925677D01*
X62509893Y3104932D01*
X62489696Y3284187D01*
X62461773Y3363984D01*
X62454816Y3404932D01*
X62461773Y3445881D01*
X62489696Y3525677D01*
X62509893Y3704932D01*
X62489696Y3884187D01*
X62461773Y3963984D01*
X62454816Y4004932D01*
X62461773Y4045881D01*
X62489696Y4125677D01*
X62509893Y4304932D01*
X62489696Y4484187D01*
X62461773Y4563984D01*
X62454816Y4604932D01*
X62461773Y4645881D01*
X62489696Y4725677D01*
X62509893Y4904932D01*
X62489696Y5084187D01*
X62461773Y5163984D01*
X62454816Y5204932D01*
X62461773Y5245881D01*
X62489696Y5325677D01*
X62509893Y5504932D01*
X62489696Y5684187D01*
X62461774Y5763983D01*
X62454816Y5804933D01*
X62461773Y5845879D01*
X62489696Y5925677D01*
X62509893Y6104932D01*
X62489696Y6284187D01*
X62461773Y6363984D01*
X62454816Y6404933D01*
X62461773Y6445881D01*
X62489696Y6525677D01*
X62509893Y6704932D01*
X62489696Y6884187D01*
X62430117Y7054454D01*
X62334144Y7207194D01*
X62206590Y7334748D01*
X62183112Y7349500D01*
X62059740Y7427020D01*
X62053850Y7430721D01*
X62047287Y7433018D01*
X62047284Y7433019D01*
X61890152Y7488002D01*
X61890147Y7488004D01*
X61883583Y7490300D01*
X61876663Y7491080D01*
X61876662Y7491080D01*
X61711251Y7509717D01*
X61704328Y7510497D01*
X61697405Y7509717D01*
X61531996Y7491081D01*
X61531987Y7491080D01*
X61525073Y7490300D01*
X61518507Y7488003D01*
X61518496Y7488000D01*
X61436069Y7459158D01*
X61395116Y7452200D01*
X61354163Y7459158D01*
X61285831Y7483068D01*
X61285822Y7483070D01*
X61279255Y7485368D01*
X61272338Y7486148D01*
X61272331Y7486149D01*
X61106923Y7504785D01*
X61100000Y7505565D01*
X61093077Y7504785D01*
X60927668Y7486149D01*
X60927659Y7486148D01*
X60920745Y7485368D01*
X60914179Y7483071D01*
X60914168Y7483068D01*
X60840953Y7457449D01*
X60800000Y7450491D01*
X60759047Y7457449D01*
X60685831Y7483068D01*
X60685822Y7483070D01*
X60679255Y7485368D01*
X60672338Y7486148D01*
X60672331Y7486149D01*
X60506923Y7504785D01*
X60500000Y7505565D01*
X60493077Y7504785D01*
X60327668Y7486149D01*
X60327659Y7486148D01*
X60320745Y7485368D01*
X60314179Y7483071D01*
X60314168Y7483068D01*
X60240953Y7457449D01*
X60200000Y7450491D01*
X60159047Y7457449D01*
X60085831Y7483068D01*
X60085822Y7483070D01*
X60079255Y7485368D01*
X60072338Y7486148D01*
X60072331Y7486149D01*
X59906923Y7504785D01*
X59900000Y7505565D01*
X59893077Y7504785D01*
X59727668Y7486149D01*
X59727659Y7486148D01*
X59720745Y7485368D01*
X59714179Y7483071D01*
X59714168Y7483068D01*
X59650164Y7460672D01*
X59609211Y7453714D01*
X59568257Y7460672D01*
X59490156Y7488000D01*
X59483583Y7490300D01*
X59476666Y7491080D01*
X59476659Y7491081D01*
X59311251Y7509717D01*
X59304328Y7510497D01*
X59297405Y7509717D01*
X59131996Y7491081D01*
X59131987Y7491080D01*
X59125073Y7490300D01*
X59118507Y7488003D01*
X59118496Y7488000D01*
X59036069Y7459158D01*
X58995116Y7452200D01*
X58954163Y7459158D01*
X58885831Y7483068D01*
X58885822Y7483070D01*
X58879255Y7485368D01*
X58872338Y7486148D01*
X58872331Y7486149D01*
X58706923Y7504785D01*
X58700000Y7505565D01*
X58693077Y7504785D01*
X58527668Y7486149D01*
X58527659Y7486148D01*
X58520745Y7485368D01*
X58514179Y7483071D01*
X58514168Y7483068D01*
X58440953Y7457449D01*
X58400000Y7450491D01*
X58359047Y7457449D01*
X58285831Y7483068D01*
X58285822Y7483070D01*
X58279255Y7485368D01*
X58272338Y7486148D01*
X58272331Y7486149D01*
X58106923Y7504785D01*
X58100000Y7505565D01*
X58093077Y7504785D01*
X57927668Y7486149D01*
X57927659Y7486148D01*
X57920745Y7485368D01*
X57914179Y7483071D01*
X57914168Y7483068D01*
X57840953Y7457449D01*
X57800000Y7450491D01*
X57759047Y7457449D01*
X57685831Y7483068D01*
X57685822Y7483070D01*
X57679255Y7485368D01*
X57672338Y7486148D01*
X57672331Y7486149D01*
X57506923Y7504785D01*
X57500000Y7505565D01*
X57493077Y7504785D01*
X57327665Y7486148D01*
X57327662Y7486148D01*
X57320745Y7485368D01*
X57314182Y7483072D01*
X57314175Y7483070D01*
X57157043Y7428087D01*
X57157036Y7428085D01*
X57150478Y7425789D01*
X57144590Y7422090D01*
X57144587Y7422088D01*
X57003638Y7333524D01*
X57003633Y7333521D01*
X56997738Y7329816D01*
X56992813Y7324892D01*
X56992809Y7324888D01*
X56875112Y7207191D01*
X56875108Y7207187D01*
X56870184Y7202262D01*
X56866479Y7196367D01*
X56866476Y7196362D01*
X56777912Y7055413D01*
X56777910Y7055410D01*
X56774211Y7049522D01*
X56771915Y7042964D01*
X56771913Y7042957D01*
X56716930Y6885825D01*
X56716928Y6885818D01*
X56714632Y6879255D01*
X56713852Y6872338D01*
X56713852Y6872335D01*
X56702796Y6774211D01*
X56694435Y6700000D01*
X56695215Y6693077D01*
X56713851Y6527669D01*
X56713852Y6527662D01*
X56714632Y6520745D01*
X56716930Y6514178D01*
X56716932Y6514169D01*
X56742551Y6440953D01*
X56749509Y6400000D01*
X56742551Y6359047D01*
X56716932Y6285832D01*
X56716929Y6285821D01*
X56714632Y6279255D01*
X56713852Y6272341D01*
X56713851Y6272332D01*
X56695771Y6111855D01*
X56694435Y6100000D01*
X56695215Y6093077D01*
X56713851Y5927669D01*
X56713852Y5927662D01*
X56714632Y5920745D01*
X56716932Y5914172D01*
X56742551Y5840955D01*
X56749509Y5800001D01*
X56742551Y5759048D01*
X56716932Y5685832D01*
X56716929Y5685821D01*
X56714632Y5679255D01*
X56713852Y5672341D01*
X56713851Y5672332D01*
X56695771Y5511855D01*
X56694435Y5500000D01*
X56695215Y5493077D01*
X56713851Y5327669D01*
X56713852Y5327662D01*
X56714632Y5320745D01*
X56716930Y5314178D01*
X56716932Y5314169D01*
X56742551Y5240953D01*
X56749509Y5200000D01*
X56742551Y5159047D01*
X56716932Y5085832D01*
X56716929Y5085821D01*
X56714632Y5079255D01*
X56713852Y5072341D01*
X56713851Y5072332D01*
X56695771Y4911855D01*
X56694435Y4900000D01*
X56695215Y4893077D01*
X56713851Y4727669D01*
X56713852Y4727662D01*
X56714632Y4720745D01*
X56716930Y4714178D01*
X56716932Y4714169D01*
X56742551Y4640953D01*
X56749509Y4600000D01*
X56742551Y4559047D01*
X56716932Y4485832D01*
X56716929Y4485821D01*
X56714632Y4479255D01*
X56713852Y4472341D01*
X56713851Y4472332D01*
X56695771Y4311855D01*
X56694435Y4300000D01*
X56695215Y4293077D01*
X56713851Y4127669D01*
X56713852Y4127662D01*
X56714632Y4120745D01*
X56716930Y4114178D01*
X56716932Y4114169D01*
X56742551Y4040953D01*
X56749509Y4000000D01*
X56742551Y3959047D01*
X56716932Y3885832D01*
X56716929Y3885821D01*
X56714632Y3879255D01*
X56713852Y3872341D01*
X56713851Y3872332D01*
X56695771Y3711855D01*
X56694435Y3700000D01*
X56695215Y3693077D01*
X56713851Y3527669D01*
X56713852Y3527662D01*
X56714632Y3520745D01*
X56716930Y3514178D01*
X56716932Y3514169D01*
X56742551Y3440953D01*
X56749509Y3400000D01*
X56742551Y3359047D01*
X56716932Y3285832D01*
X56716929Y3285821D01*
X56714632Y3279255D01*
X56713852Y3272341D01*
X56713851Y3272332D01*
X56695771Y3111855D01*
X56694435Y3100000D01*
X56695215Y3093077D01*
X56713851Y2927669D01*
X56713852Y2927662D01*
X56714632Y2920745D01*
X56716931Y2914176D01*
X56716932Y2914172D01*
X56742551Y2840955D01*
X56749509Y2800001D01*
X56742551Y2759048D01*
X56716932Y2685832D01*
X56716929Y2685821D01*
X56714632Y2679255D01*
X56713852Y2672341D01*
X56713851Y2672332D01*
X56696702Y2520121D01*
X56694435Y2500000D01*
X55305565Y2500000D01*
X55285368Y2679255D01*
X55257445Y2759052D01*
X55250488Y2800001D01*
X55257445Y2840949D01*
X55285368Y2920745D01*
X55305565Y3100000D01*
X55285368Y3279255D01*
X55257446Y3359051D01*
X55250488Y3400001D01*
X55257445Y3440947D01*
X55285368Y3520745D01*
X55305565Y3700000D01*
X55285368Y3879255D01*
X55257446Y3959051D01*
X55250488Y4000001D01*
X55257445Y4040947D01*
X55285368Y4120745D01*
X55305565Y4300000D01*
X55285368Y4479255D01*
X55257445Y4559052D01*
X55250488Y4600001D01*
X55257445Y4640949D01*
X55285368Y4720745D01*
X55305565Y4900000D01*
X55285368Y5079255D01*
X55257445Y5159052D01*
X55250488Y5200000D01*
X55257445Y5240949D01*
X55285368Y5320745D01*
X55305565Y5500000D01*
X55285368Y5679255D01*
X55257446Y5759050D01*
X55250489Y5800001D01*
X55257448Y5840956D01*
X55285368Y5920745D01*
X55305565Y6100000D01*
X55285368Y6279255D01*
X55257445Y6359052D01*
X55250488Y6400000D01*
X55257445Y6440949D01*
X55285368Y6520745D01*
X55305565Y6700000D01*
X55285368Y6879255D01*
X55225789Y7049522D01*
X55129816Y7202262D01*
X55002262Y7329816D01*
X54908300Y7388856D01*
X54855412Y7422088D01*
X54849522Y7425789D01*
X54842959Y7428086D01*
X54842956Y7428087D01*
X54685824Y7483070D01*
X54685819Y7483072D01*
X54679255Y7485368D01*
X54672335Y7486148D01*
X54672334Y7486148D01*
X54506923Y7504785D01*
X54500000Y7505565D01*
X54493077Y7504785D01*
X54327668Y7486149D01*
X54327659Y7486148D01*
X54320745Y7485368D01*
X54314179Y7483071D01*
X54314168Y7483068D01*
X54240953Y7457449D01*
X54200000Y7450491D01*
X54159047Y7457449D01*
X54085831Y7483068D01*
X54085822Y7483070D01*
X54079255Y7485368D01*
X54072338Y7486148D01*
X54072331Y7486149D01*
X53906923Y7504785D01*
X53900000Y7505565D01*
X53893077Y7504785D01*
X53727668Y7486149D01*
X53727659Y7486148D01*
X53720745Y7485368D01*
X53714179Y7483071D01*
X53714168Y7483068D01*
X53640953Y7457449D01*
X53600000Y7450491D01*
X53559047Y7457449D01*
X53485831Y7483068D01*
X53485822Y7483070D01*
X53479255Y7485368D01*
X53472338Y7486148D01*
X53472331Y7486149D01*
X53306923Y7504785D01*
X53300000Y7505565D01*
X53293077Y7504785D01*
X53127668Y7486149D01*
X53127659Y7486148D01*
X53120745Y7485368D01*
X53114179Y7483071D01*
X53114168Y7483068D01*
X53040953Y7457449D01*
X53000000Y7450491D01*
X52959047Y7457449D01*
X52885831Y7483068D01*
X52885822Y7483070D01*
X52879255Y7485368D01*
X52872338Y7486148D01*
X52872331Y7486149D01*
X52706923Y7504785D01*
X52700000Y7505565D01*
X52693077Y7504785D01*
X52527668Y7486149D01*
X52527659Y7486148D01*
X52520745Y7485368D01*
X52514179Y7483071D01*
X52514168Y7483068D01*
X52440953Y7457449D01*
X52400000Y7450491D01*
X52359047Y7457449D01*
X52285831Y7483068D01*
X52285822Y7483070D01*
X52279255Y7485368D01*
X52272338Y7486148D01*
X52272331Y7486149D01*
X52106923Y7504785D01*
X52100000Y7505565D01*
X52093077Y7504785D01*
X51927668Y7486149D01*
X51927659Y7486148D01*
X51920745Y7485368D01*
X51914179Y7483071D01*
X51914168Y7483068D01*
X51840953Y7457449D01*
X51800000Y7450491D01*
X51759047Y7457449D01*
X51685831Y7483068D01*
X51685822Y7483070D01*
X51679255Y7485368D01*
X51672338Y7486148D01*
X51672331Y7486149D01*
X51506923Y7504785D01*
X51500000Y7505565D01*
X51493077Y7504785D01*
X51327668Y7486149D01*
X51327659Y7486148D01*
X51320745Y7485368D01*
X51314179Y7483071D01*
X51314168Y7483068D01*
X51240953Y7457449D01*
X51200000Y7450491D01*
X51159047Y7457449D01*
X51085831Y7483068D01*
X51085822Y7483070D01*
X51079255Y7485368D01*
X51072338Y7486148D01*
X51072331Y7486149D01*
X50906923Y7504785D01*
X50900000Y7505565D01*
X50893077Y7504785D01*
X50727668Y7486149D01*
X50727659Y7486148D01*
X50720745Y7485368D01*
X50714179Y7483071D01*
X50714168Y7483068D01*
X50640953Y7457449D01*
X50600000Y7450491D01*
X50559047Y7457449D01*
X50485831Y7483068D01*
X50485822Y7483070D01*
X50479255Y7485368D01*
X50472338Y7486148D01*
X50472331Y7486149D01*
X50306923Y7504785D01*
X50300000Y7505565D01*
X50293077Y7504785D01*
X50127665Y7486148D01*
X50127662Y7486148D01*
X50120745Y7485368D01*
X50114182Y7483072D01*
X50114175Y7483070D01*
X49957043Y7428087D01*
X49957036Y7428085D01*
X49950478Y7425789D01*
X49944590Y7422090D01*
X49944587Y7422088D01*
X49803638Y7333524D01*
X49803633Y7333521D01*
X49797738Y7329816D01*
X49792813Y7324892D01*
X49792809Y7324888D01*
X49675112Y7207191D01*
X49675108Y7207187D01*
X49670184Y7202262D01*
X49666479Y7196367D01*
X49666476Y7196362D01*
X49577912Y7055413D01*
X49577910Y7055410D01*
X49574211Y7049522D01*
X49571915Y7042964D01*
X49571913Y7042957D01*
X49516930Y6885825D01*
X49516928Y6885818D01*
X49514632Y6879255D01*
X49513852Y6872338D01*
X49513852Y6872335D01*
X49502796Y6774211D01*
X49494435Y6700000D01*
X49495215Y6693077D01*
X49513851Y6527669D01*
X49513852Y6527662D01*
X49514632Y6520745D01*
X49516930Y6514178D01*
X49516932Y6514169D01*
X49542551Y6440953D01*
X49549509Y6400000D01*
X49542551Y6359047D01*
X49516932Y6285832D01*
X49516929Y6285821D01*
X49514632Y6279255D01*
X49513852Y6272341D01*
X49513851Y6272332D01*
X49495771Y6111855D01*
X49494435Y6100000D01*
X49495215Y6093077D01*
X49513851Y5927669D01*
X49513852Y5927662D01*
X49514632Y5920745D01*
X49516932Y5914172D01*
X49542551Y5840955D01*
X49549509Y5800001D01*
X49542551Y5759048D01*
X49516932Y5685832D01*
X49516929Y5685821D01*
X49514632Y5679255D01*
X49513852Y5672341D01*
X49513851Y5672332D01*
X49495771Y5511855D01*
X49494435Y5500000D01*
X49495215Y5493077D01*
X49513851Y5327669D01*
X49513852Y5327662D01*
X49514632Y5320745D01*
X49516930Y5314178D01*
X49516932Y5314169D01*
X49542551Y5240953D01*
X49549509Y5200000D01*
X49542551Y5159047D01*
X49516932Y5085832D01*
X49516929Y5085821D01*
X49514632Y5079255D01*
X49513852Y5072341D01*
X49513851Y5072332D01*
X49495771Y4911855D01*
X49494435Y4900000D01*
X49495215Y4893077D01*
X49513851Y4727669D01*
X49513852Y4727662D01*
X49514632Y4720745D01*
X49516930Y4714178D01*
X49516932Y4714169D01*
X49542551Y4640953D01*
X49549509Y4600000D01*
X49542551Y4559047D01*
X49516932Y4485832D01*
X49516929Y4485821D01*
X49514632Y4479255D01*
X49513852Y4472341D01*
X49513851Y4472332D01*
X49495771Y4311855D01*
X49494435Y4300000D01*
X49495215Y4293077D01*
X49513851Y4127669D01*
X49513852Y4127662D01*
X49514632Y4120745D01*
X49516930Y4114178D01*
X49516932Y4114169D01*
X49542551Y4040953D01*
X49549509Y4000000D01*
X49542551Y3959047D01*
X49516932Y3885832D01*
X49516929Y3885821D01*
X49514632Y3879255D01*
X49513852Y3872341D01*
X49513851Y3872332D01*
X49495771Y3711855D01*
X49494435Y3700000D01*
X49495215Y3693077D01*
X49513851Y3527669D01*
X49513852Y3527662D01*
X49514632Y3520745D01*
X49516930Y3514178D01*
X49516932Y3514169D01*
X49542551Y3440953D01*
X49549509Y3400000D01*
X49542551Y3359047D01*
X49516932Y3285832D01*
X49516929Y3285821D01*
X49514632Y3279255D01*
X49513852Y3272341D01*
X49513851Y3272332D01*
X49495771Y3111855D01*
X49494435Y3100000D01*
X49495215Y3093077D01*
X49513851Y2927669D01*
X49513852Y2927662D01*
X49514632Y2920745D01*
X49516931Y2914176D01*
X49516932Y2914172D01*
X49542551Y2840955D01*
X49549509Y2800001D01*
X49542551Y2759048D01*
X49516932Y2685832D01*
X49516929Y2685821D01*
X49514632Y2679255D01*
X49513852Y2672341D01*
X49513851Y2672332D01*
X49496702Y2520121D01*
X49494435Y2500000D01*
X21300Y2500000D01*
X17879Y2520134D01*
X17658Y2521477D01*
X1527Y2623329D01*
X0Y2642727D01*
X0Y27357273D01*
X1527Y27376670D01*
X17654Y27478495D01*
X17879Y27479868D01*
X45213Y27640746D01*
X47674Y27652014D01*
X87907Y27802167D01*
X88466Y27804175D01*
X132558Y27957223D01*
X135928Y27967274D01*
X192189Y28113837D01*
X193380Y28116820D01*
X193954Y28118205D01*
X253661Y28262351D01*
X257703Y28271121D01*
X329354Y28411745D01*
X331252Y28415320D01*
X407106Y28552566D01*
X411596Y28560048D01*
X497781Y28692762D01*
X500569Y28696869D01*
X591085Y28824440D01*
X595774Y28830621D01*
X695497Y28953769D01*
X699393Y28958346D01*
X718665Y28979913D01*
X803417Y29074750D01*
X808143Y29079749D01*
X920251Y29191857D01*
X925250Y29196583D01*
X1024564Y29285335D01*
X1041654Y29300607D01*
X1046231Y29304503D01*
X1169379Y29404226D01*
X1175560Y29408915D01*
X1303131Y29499431D01*
X1307238Y29502219D01*
X1439952Y29588404D01*
X1447434Y29592894D01*
X1584680Y29668748D01*
X1588255Y29670646D01*
X1728879Y29742297D01*
X1737649Y29746339D01*
X1883211Y29806633D01*
X1886163Y29807811D01*
X2032726Y29864072D01*
X2042777Y29867442D01*
X2195825Y29911534D01*
X2197833Y29912093D01*
X2347986Y29952326D01*
X2359254Y29954787D01*
X2520186Y29982130D01*
X2521444Y29982337D01*
X2589571Y29993127D01*
X2623330Y29998473D01*
X2642727Y30000000D01*
X14192475Y30000000D01*
X14229349Y29990407D01*
G37*
%TD.AperFunction*%
%TA.AperFunction,Conductor*%
G36*
X62103159Y18938779D02*
G01*
X62144872Y18908472D01*
X62172659Y18877612D01*
X62325800Y18766349D01*
X62498727Y18689356D01*
X62683884Y18650000D01*
X62866673Y18650000D01*
X62873176Y18650000D01*
X63058333Y18689356D01*
X63231260Y18766349D01*
X63259851Y18787123D01*
X63319777Y18810127D01*
X63383172Y18800086D01*
X63520694Y18738856D01*
X63705851Y18699500D01*
X63888640Y18699500D01*
X63895143Y18699500D01*
X63901505Y18700853D01*
X63907961Y18701531D01*
X63908083Y18700362D01*
X63954441Y18699758D01*
X64003532Y18675552D01*
X64037420Y18632568D01*
X64049500Y18579183D01*
X64049500Y10212142D01*
X64036310Y10156491D01*
X63999547Y10112679D01*
X63947032Y10090026D01*
X63889936Y10093351D01*
X63840405Y10121948D01*
X63824256Y10137184D01*
X63821670Y10139697D01*
X63175729Y10785639D01*
X63163947Y10799273D01*
X63153925Y10812735D01*
X63153921Y10812739D01*
X63149610Y10818530D01*
X63142763Y10824275D01*
X63111666Y10850369D01*
X63103691Y10857677D01*
X63102329Y10859039D01*
X63099777Y10861591D01*
X63096953Y10863824D01*
X63096944Y10863832D01*
X63075445Y10880830D01*
X63072674Y10883087D01*
X63015214Y10931302D01*
X63008760Y10934544D01*
X63005859Y10936452D01*
X63005588Y10936648D01*
X63005292Y10936813D01*
X63002339Y10938634D01*
X62996677Y10943111D01*
X62990134Y10946162D01*
X62990131Y10946164D01*
X62928692Y10974814D01*
X62925446Y10976385D01*
X62920205Y10979017D01*
X62858433Y11010040D01*
X62851409Y11011705D01*
X62848151Y11012891D01*
X62847832Y11013023D01*
X62847504Y11013116D01*
X62844218Y11014205D01*
X62837673Y11017257D01*
X62830604Y11018717D01*
X62830600Y11018718D01*
X62764212Y11032426D01*
X62760691Y11033206D01*
X62694741Y11048837D01*
X62694734Y11048838D01*
X62687721Y11050500D01*
X62680510Y11050500D01*
X62677061Y11050903D01*
X62676727Y11050957D01*
X62676374Y11050972D01*
X62672929Y11051274D01*
X62665856Y11052734D01*
X62658638Y11052524D01*
X62590870Y11050552D01*
X62587263Y11050500D01*
X44065789Y11050500D01*
X44047818Y11051809D01*
X44031208Y11054242D01*
X44031206Y11054243D01*
X44024059Y11055289D01*
X44016866Y11054660D01*
X44016860Y11054660D01*
X43974713Y11050972D01*
X43963906Y11050500D01*
X43958373Y11050500D01*
X43954812Y11050084D01*
X43954797Y11050083D01*
X43927583Y11046902D01*
X43923998Y11046536D01*
X43856475Y11040629D01*
X43856467Y11040628D01*
X43849285Y11039999D01*
X43842434Y11037730D01*
X43839017Y11037024D01*
X43838701Y11036973D01*
X43838377Y11036881D01*
X43834995Y11036080D01*
X43827827Y11035241D01*
X43821050Y11032775D01*
X43821039Y11032772D01*
X43757313Y11009579D01*
X43753913Y11008397D01*
X43737072Y11002816D01*
X43682748Y10984814D01*
X43676610Y10981029D01*
X43673449Y10979555D01*
X43673143Y10979429D01*
X43672863Y10979272D01*
X43669741Y10977704D01*
X43662965Y10975237D01*
X43656937Y10971273D01*
X43656936Y10971272D01*
X43600302Y10934024D01*
X43597264Y10932089D01*
X43539574Y10896505D01*
X43539565Y10896499D01*
X43533427Y10892712D01*
X43528325Y10887611D01*
X43525586Y10885445D01*
X43525321Y10885255D01*
X43525077Y10885030D01*
X43522413Y10882795D01*
X43516386Y10878830D01*
X43511437Y10873586D01*
X43511435Y10873583D01*
X43464915Y10824275D01*
X43462403Y10821690D01*
X42577533Y9936819D01*
X42537305Y9909939D01*
X42489852Y9900500D01*
X42374500Y9900500D01*
X42312500Y9917113D01*
X42267113Y9962500D01*
X42250500Y10024500D01*
X42250500Y10537334D01*
X42251809Y10555305D01*
X42253179Y10564661D01*
X42255289Y10579064D01*
X42250972Y10628410D01*
X42250500Y10639217D01*
X42250500Y10641140D01*
X42250500Y10644750D01*
X42246903Y10675521D01*
X42246536Y10679112D01*
X42243904Y10709199D01*
X42239999Y10753838D01*
X42237726Y10760696D01*
X42237027Y10764084D01*
X42236972Y10764422D01*
X42236878Y10764755D01*
X42236079Y10768126D01*
X42235241Y10775296D01*
X42231506Y10785557D01*
X42209592Y10845767D01*
X42208408Y10849173D01*
X42204293Y10861591D01*
X42184814Y10920375D01*
X42181019Y10926528D01*
X42179564Y10929648D01*
X42179430Y10929972D01*
X42179259Y10930278D01*
X42177710Y10933361D01*
X42175237Y10940158D01*
X42134001Y11002853D01*
X42132086Y11005860D01*
X42096504Y11063549D01*
X42096501Y11063552D01*
X42092712Y11069696D01*
X42087605Y11074803D01*
X42085463Y11077512D01*
X42085257Y11077797D01*
X42085027Y11078048D01*
X42082796Y11080706D01*
X42078830Y11086737D01*
X42024273Y11138209D01*
X42021686Y11140722D01*
X40676770Y12485639D01*
X40664988Y12499273D01*
X40654966Y12512735D01*
X40654962Y12512739D01*
X40650651Y12518530D01*
X40612708Y12550369D01*
X40604732Y12557677D01*
X40603370Y12559039D01*
X40600818Y12561591D01*
X40597994Y12563824D01*
X40597985Y12563832D01*
X40576486Y12580830D01*
X40573715Y12583087D01*
X40516255Y12631302D01*
X40509801Y12634544D01*
X40506900Y12636452D01*
X40506629Y12636648D01*
X40506333Y12636813D01*
X40503380Y12638634D01*
X40497718Y12643111D01*
X40491175Y12646162D01*
X40491172Y12646164D01*
X40429733Y12674814D01*
X40426487Y12676385D01*
X40365925Y12706800D01*
X40365926Y12706800D01*
X40359474Y12710040D01*
X40352450Y12711705D01*
X40349192Y12712891D01*
X40348873Y12713023D01*
X40348545Y12713116D01*
X40345259Y12714205D01*
X40338714Y12717257D01*
X40331645Y12718717D01*
X40331641Y12718718D01*
X40265253Y12732426D01*
X40261732Y12733206D01*
X40195782Y12748837D01*
X40195775Y12748838D01*
X40188762Y12750500D01*
X40181551Y12750500D01*
X40178102Y12750903D01*
X40177768Y12750957D01*
X40177415Y12750972D01*
X40173970Y12751274D01*
X40166897Y12752734D01*
X40159679Y12752524D01*
X40091911Y12750552D01*
X40088304Y12750500D01*
X36611230Y12750500D01*
X36554935Y12764015D01*
X36510912Y12801615D01*
X36488757Y12855102D01*
X36493299Y12912818D01*
X36523549Y12962181D01*
X37135417Y13574049D01*
X40224985Y16663620D01*
X40275892Y16694359D01*
X40335259Y16697861D01*
X40389429Y16673318D01*
X40422108Y16631305D01*
X40422821Y16631716D01*
X40426066Y16626095D01*
X40426069Y16626089D01*
X40507051Y16485825D01*
X40517467Y16467784D01*
X40521811Y16462959D01*
X40521813Y16462957D01*
X40615376Y16359045D01*
X40644129Y16327112D01*
X40649387Y16323292D01*
X40649388Y16323291D01*
X40677172Y16303105D01*
X40797270Y16215849D01*
X40970197Y16138856D01*
X41155354Y16099500D01*
X41338143Y16099500D01*
X41344646Y16099500D01*
X41529803Y16138856D01*
X41702730Y16215849D01*
X41716454Y16225821D01*
X41751018Y16243431D01*
X41789336Y16249500D01*
X47476242Y16249500D01*
X47494213Y16248191D01*
X47498109Y16247621D01*
X47517972Y16244711D01*
X47567317Y16249028D01*
X47578125Y16249500D01*
X47580049Y16249500D01*
X47583658Y16249500D01*
X47614499Y16253106D01*
X47617980Y16253461D01*
X47692746Y16260001D01*
X47699602Y16262274D01*
X47702992Y16262973D01*
X47703324Y16263027D01*
X47703677Y16263127D01*
X47707020Y16263920D01*
X47714204Y16264759D01*
X47784709Y16290421D01*
X47788067Y16291588D01*
X47859283Y16315186D01*
X47865435Y16318982D01*
X47868556Y16320436D01*
X47868878Y16320570D01*
X47869187Y16320742D01*
X47872264Y16322288D01*
X47879066Y16324763D01*
X47941786Y16366016D01*
X47944681Y16367860D01*
X48008605Y16407288D01*
X48013712Y16412397D01*
X48016425Y16414541D01*
X48016707Y16414746D01*
X48016978Y16414993D01*
X48019607Y16417200D01*
X48025645Y16421170D01*
X48077135Y16475748D01*
X48079580Y16478265D01*
X49364114Y17762799D01*
X49421495Y17795357D01*
X49487455Y17793877D01*
X49543319Y17758775D01*
X49573273Y17699990D01*
X49568835Y17634162D01*
X49516931Y17485828D01*
X49516929Y17485820D01*
X49514632Y17479255D01*
X49513852Y17472338D01*
X49513852Y17472335D01*
X49502332Y17370088D01*
X49494435Y17300000D01*
X49495215Y17293077D01*
X49513851Y17127669D01*
X49513852Y17127662D01*
X49514632Y17120745D01*
X49516930Y17114178D01*
X49516932Y17114169D01*
X49542551Y17040953D01*
X49549509Y17000000D01*
X49542551Y16959047D01*
X49516932Y16885832D01*
X49516929Y16885821D01*
X49514632Y16879255D01*
X49513852Y16872341D01*
X49513851Y16872332D01*
X49504604Y16790255D01*
X49494435Y16700000D01*
X49495215Y16693077D01*
X49513851Y16527669D01*
X49513852Y16527662D01*
X49514632Y16520745D01*
X49516931Y16514176D01*
X49516932Y16514172D01*
X49542551Y16440955D01*
X49549509Y16400001D01*
X49542551Y16359048D01*
X49516932Y16285832D01*
X49516929Y16285821D01*
X49514632Y16279255D01*
X49513852Y16272341D01*
X49513851Y16272332D01*
X49497552Y16127666D01*
X49494435Y16100000D01*
X49495215Y16093077D01*
X49513851Y15927669D01*
X49513852Y15927662D01*
X49514632Y15920745D01*
X49516930Y15914178D01*
X49516932Y15914169D01*
X49542551Y15840953D01*
X49549509Y15800000D01*
X49542551Y15759047D01*
X49516932Y15685832D01*
X49516929Y15685821D01*
X49514632Y15679255D01*
X49513852Y15672341D01*
X49513851Y15672332D01*
X49501925Y15566477D01*
X49494435Y15500000D01*
X49495215Y15493077D01*
X49513851Y15327669D01*
X49513852Y15327662D01*
X49514632Y15320745D01*
X49516930Y15314178D01*
X49516932Y15314169D01*
X49542551Y15240953D01*
X49549509Y15200000D01*
X49542551Y15159047D01*
X49516932Y15085832D01*
X49516929Y15085821D01*
X49514632Y15079255D01*
X49513852Y15072341D01*
X49513851Y15072332D01*
X49498180Y14933240D01*
X49494435Y14900000D01*
X49495215Y14893077D01*
X49513851Y14727669D01*
X49513852Y14727662D01*
X49514632Y14720745D01*
X49516930Y14714178D01*
X49516932Y14714169D01*
X49542551Y14640953D01*
X49549509Y14600000D01*
X49542551Y14559047D01*
X49516932Y14485832D01*
X49516929Y14485821D01*
X49514632Y14479255D01*
X49513852Y14472341D01*
X49513851Y14472332D01*
X49495215Y14306923D01*
X49494435Y14300000D01*
X49495215Y14293077D01*
X49513851Y14127669D01*
X49513852Y14127662D01*
X49514632Y14120745D01*
X49516930Y14114178D01*
X49516932Y14114169D01*
X49542551Y14040953D01*
X49549509Y14000000D01*
X49542551Y13959047D01*
X49516932Y13885832D01*
X49516929Y13885821D01*
X49514632Y13879255D01*
X49513852Y13872341D01*
X49513851Y13872332D01*
X49495215Y13706923D01*
X49494435Y13700000D01*
X49495215Y13693077D01*
X49513851Y13527669D01*
X49513852Y13527662D01*
X49514632Y13520745D01*
X49516930Y13514178D01*
X49516932Y13514169D01*
X49542551Y13440953D01*
X49549509Y13400000D01*
X49542551Y13359047D01*
X49516932Y13285832D01*
X49516929Y13285821D01*
X49514632Y13279255D01*
X49513852Y13272341D01*
X49513851Y13272332D01*
X49495215Y13106923D01*
X49494435Y13100000D01*
X49495215Y13093077D01*
X49512803Y12936973D01*
X49514632Y12920745D01*
X49516928Y12914181D01*
X49516930Y12914176D01*
X49571913Y12757044D01*
X49574211Y12750478D01*
X49577912Y12744588D01*
X49645631Y12636813D01*
X49670184Y12597738D01*
X49797738Y12470184D01*
X49950478Y12374211D01*
X50120745Y12314632D01*
X50300000Y12294435D01*
X50479255Y12314632D01*
X50559051Y12342555D01*
X50600000Y12349512D01*
X50640948Y12342555D01*
X50720745Y12314632D01*
X50900000Y12294435D01*
X51079255Y12314632D01*
X51159051Y12342555D01*
X51200000Y12349512D01*
X51240948Y12342555D01*
X51320745Y12314632D01*
X51500000Y12294435D01*
X51679255Y12314632D01*
X51759051Y12342555D01*
X51800000Y12349512D01*
X51840948Y12342555D01*
X51920745Y12314632D01*
X52100000Y12294435D01*
X52279255Y12314632D01*
X52359051Y12342555D01*
X52400000Y12349512D01*
X52440948Y12342555D01*
X52520745Y12314632D01*
X52700000Y12294435D01*
X52879255Y12314632D01*
X52959051Y12342555D01*
X53000000Y12349512D01*
X53040948Y12342555D01*
X53120745Y12314632D01*
X53300000Y12294435D01*
X53479255Y12314632D01*
X53559051Y12342555D01*
X53600000Y12349512D01*
X53640948Y12342555D01*
X53720745Y12314632D01*
X53900000Y12294435D01*
X54079255Y12314632D01*
X54159051Y12342555D01*
X54200000Y12349512D01*
X54240948Y12342555D01*
X54320745Y12314632D01*
X54500000Y12294435D01*
X54679255Y12314632D01*
X54849522Y12374211D01*
X55002262Y12470184D01*
X55129816Y12597738D01*
X55225789Y12750478D01*
X55285368Y12920745D01*
X55305565Y13100000D01*
X56694435Y13100000D01*
X56695215Y13093077D01*
X56712803Y12936973D01*
X56714632Y12920745D01*
X56716928Y12914181D01*
X56716930Y12914176D01*
X56771913Y12757044D01*
X56774211Y12750478D01*
X56777912Y12744588D01*
X56845631Y12636813D01*
X56870184Y12597738D01*
X56997738Y12470184D01*
X57150478Y12374211D01*
X57320745Y12314632D01*
X57500000Y12294435D01*
X57679255Y12314632D01*
X57759051Y12342555D01*
X57800000Y12349512D01*
X57840948Y12342555D01*
X57920745Y12314632D01*
X58100000Y12294435D01*
X58279255Y12314632D01*
X58359051Y12342555D01*
X58400000Y12349512D01*
X58440948Y12342555D01*
X58520745Y12314632D01*
X58700000Y12294435D01*
X58879255Y12314632D01*
X58959051Y12342555D01*
X59000000Y12349512D01*
X59040948Y12342555D01*
X59120745Y12314632D01*
X59300000Y12294435D01*
X59479255Y12314632D01*
X59559051Y12342555D01*
X59600000Y12349512D01*
X59640948Y12342555D01*
X59720745Y12314632D01*
X59900000Y12294435D01*
X60079255Y12314632D01*
X60159051Y12342555D01*
X60200000Y12349512D01*
X60240948Y12342555D01*
X60320745Y12314632D01*
X60500000Y12294435D01*
X60679255Y12314632D01*
X60759051Y12342555D01*
X60800000Y12349512D01*
X60840948Y12342555D01*
X60920745Y12314632D01*
X61100000Y12294435D01*
X61279255Y12314632D01*
X61359051Y12342555D01*
X61400000Y12349512D01*
X61440948Y12342555D01*
X61520745Y12314632D01*
X61700000Y12294435D01*
X61879255Y12314632D01*
X62049522Y12374211D01*
X62202262Y12470184D01*
X62329816Y12597738D01*
X62425789Y12750478D01*
X62485368Y12920745D01*
X62505565Y13100000D01*
X62485368Y13279255D01*
X62457445Y13359052D01*
X62450488Y13400000D01*
X62457445Y13440949D01*
X62485368Y13520745D01*
X62505565Y13700000D01*
X62485368Y13879255D01*
X62457445Y13959052D01*
X62450488Y14000001D01*
X62457445Y14040949D01*
X62485368Y14120745D01*
X62505565Y14300000D01*
X62485368Y14479255D01*
X62457445Y14559052D01*
X62450488Y14600000D01*
X62457445Y14640949D01*
X62485368Y14720745D01*
X62505565Y14900000D01*
X62485368Y15079255D01*
X62457445Y15159052D01*
X62450488Y15200000D01*
X62457445Y15240949D01*
X62485368Y15320745D01*
X62502111Y15469349D01*
X62504785Y15493077D01*
X62505565Y15500000D01*
X62485368Y15679255D01*
X62457445Y15759052D01*
X62450488Y15800001D01*
X62457445Y15840949D01*
X62485368Y15920745D01*
X62505565Y16100000D01*
X62485368Y16279255D01*
X62457446Y16359051D01*
X62450488Y16400001D01*
X62457445Y16440947D01*
X62485368Y16520745D01*
X62505565Y16700000D01*
X62485368Y16879255D01*
X62457446Y16959051D01*
X62450488Y17000001D01*
X62457445Y17040947D01*
X62485368Y17120745D01*
X62505565Y17300000D01*
X62485368Y17479255D01*
X62425789Y17649522D01*
X62329816Y17802262D01*
X62202262Y17929816D01*
X62190203Y17937393D01*
X62055412Y18022088D01*
X62049522Y18025789D01*
X62042959Y18028086D01*
X62042956Y18028087D01*
X61885824Y18083070D01*
X61885819Y18083072D01*
X61879255Y18085368D01*
X61872335Y18086148D01*
X61872334Y18086148D01*
X61706923Y18104785D01*
X61700000Y18105565D01*
X61693077Y18104785D01*
X61527668Y18086149D01*
X61527659Y18086148D01*
X61520745Y18085368D01*
X61514179Y18083071D01*
X61514168Y18083068D01*
X61440953Y18057449D01*
X61400000Y18050491D01*
X61359047Y18057449D01*
X61285831Y18083068D01*
X61285822Y18083070D01*
X61279255Y18085368D01*
X61272338Y18086148D01*
X61272331Y18086149D01*
X61106923Y18104785D01*
X61100000Y18105565D01*
X61093077Y18104785D01*
X60927668Y18086149D01*
X60927659Y18086148D01*
X60920745Y18085368D01*
X60914179Y18083071D01*
X60914168Y18083068D01*
X60840953Y18057449D01*
X60800000Y18050491D01*
X60759047Y18057449D01*
X60685831Y18083068D01*
X60685822Y18083070D01*
X60679255Y18085368D01*
X60672338Y18086148D01*
X60672331Y18086149D01*
X60506923Y18104785D01*
X60500000Y18105565D01*
X60493077Y18104785D01*
X60327668Y18086149D01*
X60327659Y18086148D01*
X60320745Y18085368D01*
X60314179Y18083071D01*
X60314168Y18083068D01*
X60240953Y18057449D01*
X60200000Y18050491D01*
X60159047Y18057449D01*
X60085831Y18083068D01*
X60085822Y18083070D01*
X60079255Y18085368D01*
X60072338Y18086148D01*
X60072331Y18086149D01*
X59906923Y18104785D01*
X59900000Y18105565D01*
X59893077Y18104785D01*
X59727668Y18086149D01*
X59727659Y18086148D01*
X59720745Y18085368D01*
X59714179Y18083071D01*
X59714168Y18083068D01*
X59640953Y18057449D01*
X59600000Y18050491D01*
X59559047Y18057449D01*
X59485831Y18083068D01*
X59485822Y18083070D01*
X59479255Y18085368D01*
X59472338Y18086148D01*
X59472331Y18086149D01*
X59306923Y18104785D01*
X59300000Y18105565D01*
X59293077Y18104785D01*
X59127668Y18086149D01*
X59127659Y18086148D01*
X59120745Y18085368D01*
X59114179Y18083071D01*
X59114168Y18083068D01*
X59040953Y18057449D01*
X59000000Y18050491D01*
X58959047Y18057449D01*
X58885831Y18083068D01*
X58885822Y18083070D01*
X58879255Y18085368D01*
X58872338Y18086148D01*
X58872331Y18086149D01*
X58706923Y18104785D01*
X58700000Y18105565D01*
X58693077Y18104785D01*
X58527668Y18086149D01*
X58527659Y18086148D01*
X58520745Y18085368D01*
X58514179Y18083071D01*
X58514168Y18083068D01*
X58440953Y18057449D01*
X58400000Y18050491D01*
X58359047Y18057449D01*
X58285831Y18083068D01*
X58285822Y18083070D01*
X58279255Y18085368D01*
X58272338Y18086148D01*
X58272331Y18086149D01*
X58106923Y18104785D01*
X58100000Y18105565D01*
X58093077Y18104785D01*
X57927668Y18086149D01*
X57927659Y18086148D01*
X57920745Y18085368D01*
X57914179Y18083071D01*
X57914168Y18083068D01*
X57840953Y18057449D01*
X57800000Y18050491D01*
X57759047Y18057449D01*
X57685831Y18083068D01*
X57685822Y18083070D01*
X57679255Y18085368D01*
X57672338Y18086148D01*
X57672331Y18086149D01*
X57506923Y18104785D01*
X57500000Y18105565D01*
X57493077Y18104785D01*
X57327665Y18086148D01*
X57327662Y18086148D01*
X57320745Y18085368D01*
X57314182Y18083072D01*
X57314175Y18083070D01*
X57157043Y18028087D01*
X57157036Y18028085D01*
X57150478Y18025789D01*
X57144590Y18022090D01*
X57144587Y18022088D01*
X57003638Y17933524D01*
X57003633Y17933521D01*
X56997738Y17929816D01*
X56992813Y17924892D01*
X56992809Y17924888D01*
X56875112Y17807191D01*
X56875108Y17807187D01*
X56870184Y17802262D01*
X56866479Y17796367D01*
X56866476Y17796362D01*
X56777912Y17655413D01*
X56777910Y17655410D01*
X56774211Y17649522D01*
X56771915Y17642964D01*
X56771913Y17642957D01*
X56716930Y17485825D01*
X56716928Y17485818D01*
X56714632Y17479255D01*
X56713852Y17472338D01*
X56713852Y17472335D01*
X56702332Y17370088D01*
X56694435Y17300000D01*
X56695215Y17293077D01*
X56713851Y17127669D01*
X56713852Y17127662D01*
X56714632Y17120745D01*
X56716930Y17114178D01*
X56716932Y17114169D01*
X56742551Y17040953D01*
X56749509Y17000000D01*
X56742551Y16959047D01*
X56716932Y16885832D01*
X56716929Y16885821D01*
X56714632Y16879255D01*
X56713852Y16872341D01*
X56713851Y16872332D01*
X56704604Y16790255D01*
X56694435Y16700000D01*
X56695215Y16693077D01*
X56713851Y16527669D01*
X56713852Y16527662D01*
X56714632Y16520745D01*
X56716931Y16514176D01*
X56716932Y16514172D01*
X56742551Y16440955D01*
X56749509Y16400001D01*
X56742551Y16359048D01*
X56716932Y16285832D01*
X56716929Y16285821D01*
X56714632Y16279255D01*
X56713852Y16272341D01*
X56713851Y16272332D01*
X56697552Y16127666D01*
X56694435Y16100000D01*
X56695215Y16093077D01*
X56713851Y15927669D01*
X56713852Y15927662D01*
X56714632Y15920745D01*
X56716930Y15914178D01*
X56716932Y15914169D01*
X56742551Y15840953D01*
X56749509Y15800000D01*
X56742551Y15759047D01*
X56716932Y15685832D01*
X56716929Y15685821D01*
X56714632Y15679255D01*
X56713852Y15672341D01*
X56713851Y15672332D01*
X56701925Y15566477D01*
X56694435Y15500000D01*
X56695215Y15493077D01*
X56713851Y15327669D01*
X56713852Y15327662D01*
X56714632Y15320745D01*
X56716930Y15314178D01*
X56716932Y15314169D01*
X56742551Y15240953D01*
X56749509Y15200000D01*
X56742551Y15159047D01*
X56716932Y15085832D01*
X56716929Y15085821D01*
X56714632Y15079255D01*
X56713852Y15072341D01*
X56713851Y15072332D01*
X56698180Y14933240D01*
X56694435Y14900000D01*
X56695215Y14893077D01*
X56713851Y14727669D01*
X56713852Y14727662D01*
X56714632Y14720745D01*
X56716930Y14714178D01*
X56716932Y14714169D01*
X56742551Y14640953D01*
X56749509Y14600000D01*
X56742551Y14559047D01*
X56716932Y14485832D01*
X56716929Y14485821D01*
X56714632Y14479255D01*
X56713852Y14472341D01*
X56713851Y14472332D01*
X56695215Y14306923D01*
X56694435Y14300000D01*
X56695215Y14293077D01*
X56713851Y14127669D01*
X56713852Y14127662D01*
X56714632Y14120745D01*
X56716930Y14114178D01*
X56716932Y14114169D01*
X56742551Y14040953D01*
X56749509Y14000000D01*
X56742551Y13959047D01*
X56716932Y13885832D01*
X56716929Y13885821D01*
X56714632Y13879255D01*
X56713852Y13872341D01*
X56713851Y13872332D01*
X56695215Y13706923D01*
X56694435Y13700000D01*
X56695215Y13693077D01*
X56713851Y13527669D01*
X56713852Y13527662D01*
X56714632Y13520745D01*
X56716930Y13514178D01*
X56716932Y13514169D01*
X56742551Y13440953D01*
X56749509Y13400000D01*
X56742551Y13359047D01*
X56716932Y13285832D01*
X56716929Y13285821D01*
X56714632Y13279255D01*
X56713852Y13272341D01*
X56713851Y13272332D01*
X56695215Y13106923D01*
X56694435Y13100000D01*
X55305565Y13100000D01*
X55285368Y13279255D01*
X55257445Y13359052D01*
X55250488Y13400000D01*
X55257445Y13440949D01*
X55285368Y13520745D01*
X55305565Y13700000D01*
X55285368Y13879255D01*
X55257445Y13959052D01*
X55250488Y14000001D01*
X55257445Y14040949D01*
X55285368Y14120745D01*
X55305565Y14300000D01*
X55285368Y14479255D01*
X55257445Y14559052D01*
X55250488Y14600000D01*
X55257445Y14640949D01*
X55285368Y14720745D01*
X55305565Y14900000D01*
X55285368Y15079255D01*
X55257445Y15159052D01*
X55250488Y15200000D01*
X55257445Y15240949D01*
X55285368Y15320745D01*
X55302111Y15469349D01*
X55304785Y15493077D01*
X55305565Y15500000D01*
X55285368Y15679255D01*
X55257445Y15759052D01*
X55250488Y15800001D01*
X55257445Y15840949D01*
X55285368Y15920745D01*
X55305565Y16100000D01*
X55285368Y16279255D01*
X55257446Y16359051D01*
X55250488Y16400001D01*
X55257445Y16440947D01*
X55285368Y16520745D01*
X55305565Y16700000D01*
X55285368Y16879255D01*
X55257446Y16959051D01*
X55250488Y17000001D01*
X55257445Y17040947D01*
X55285368Y17120745D01*
X55305565Y17300000D01*
X55285368Y17479255D01*
X55225789Y17649522D01*
X55129816Y17802262D01*
X55002262Y17929816D01*
X54990203Y17937393D01*
X54855412Y18022088D01*
X54849522Y18025789D01*
X54842959Y18028086D01*
X54842956Y18028087D01*
X54685824Y18083070D01*
X54685819Y18083072D01*
X54679255Y18085368D01*
X54672335Y18086148D01*
X54672334Y18086148D01*
X54506923Y18104785D01*
X54500000Y18105565D01*
X54493077Y18104785D01*
X54327668Y18086149D01*
X54327659Y18086148D01*
X54320745Y18085368D01*
X54314179Y18083071D01*
X54314168Y18083068D01*
X54240953Y18057449D01*
X54200000Y18050491D01*
X54159047Y18057449D01*
X54085831Y18083068D01*
X54085822Y18083070D01*
X54079255Y18085368D01*
X54072338Y18086148D01*
X54072331Y18086149D01*
X53906923Y18104785D01*
X53900000Y18105565D01*
X53893077Y18104785D01*
X53727668Y18086149D01*
X53727659Y18086148D01*
X53720745Y18085368D01*
X53714179Y18083071D01*
X53714168Y18083068D01*
X53640953Y18057449D01*
X53600000Y18050491D01*
X53559047Y18057449D01*
X53485831Y18083068D01*
X53485822Y18083070D01*
X53479255Y18085368D01*
X53472338Y18086148D01*
X53472331Y18086149D01*
X53306923Y18104785D01*
X53300000Y18105565D01*
X53293077Y18104785D01*
X53127668Y18086149D01*
X53127659Y18086148D01*
X53120745Y18085368D01*
X53114179Y18083071D01*
X53114168Y18083068D01*
X53040953Y18057449D01*
X53000000Y18050491D01*
X52959047Y18057449D01*
X52885831Y18083068D01*
X52885822Y18083070D01*
X52879255Y18085368D01*
X52872338Y18086148D01*
X52872331Y18086149D01*
X52706923Y18104785D01*
X52700000Y18105565D01*
X52693077Y18104785D01*
X52527668Y18086149D01*
X52527659Y18086148D01*
X52520745Y18085368D01*
X52514179Y18083071D01*
X52514168Y18083068D01*
X52440953Y18057449D01*
X52400000Y18050491D01*
X52359047Y18057449D01*
X52285831Y18083068D01*
X52285822Y18083070D01*
X52279255Y18085368D01*
X52272338Y18086148D01*
X52272331Y18086149D01*
X52106923Y18104785D01*
X52100000Y18105565D01*
X52093077Y18104785D01*
X51927668Y18086149D01*
X51927659Y18086148D01*
X51920745Y18085368D01*
X51914179Y18083071D01*
X51914168Y18083068D01*
X51840953Y18057449D01*
X51800000Y18050491D01*
X51759047Y18057449D01*
X51685831Y18083068D01*
X51685822Y18083070D01*
X51679255Y18085368D01*
X51672338Y18086148D01*
X51672331Y18086149D01*
X51506923Y18104785D01*
X51500000Y18105565D01*
X51493077Y18104785D01*
X51327668Y18086149D01*
X51327659Y18086148D01*
X51320745Y18085368D01*
X51314179Y18083071D01*
X51314168Y18083068D01*
X51240953Y18057449D01*
X51200000Y18050491D01*
X51159047Y18057449D01*
X51085831Y18083068D01*
X51085822Y18083070D01*
X51079255Y18085368D01*
X51072338Y18086148D01*
X51072331Y18086149D01*
X50906923Y18104785D01*
X50900000Y18105565D01*
X50893077Y18104785D01*
X50727668Y18086149D01*
X50727659Y18086148D01*
X50720745Y18085368D01*
X50714179Y18083071D01*
X50714168Y18083068D01*
X50640953Y18057449D01*
X50600000Y18050491D01*
X50559047Y18057449D01*
X50485831Y18083068D01*
X50485822Y18083070D01*
X50479255Y18085368D01*
X50472338Y18086148D01*
X50472331Y18086149D01*
X50306923Y18104785D01*
X50300000Y18105565D01*
X50293077Y18104785D01*
X50127665Y18086148D01*
X50127662Y18086148D01*
X50120745Y18085368D01*
X50114180Y18083071D01*
X50114172Y18083069D01*
X49965838Y18031165D01*
X49900010Y18026727D01*
X49841225Y18056681D01*
X49806123Y18112545D01*
X49804643Y18178505D01*
X49837201Y18235886D01*
X50514497Y18913182D01*
X50554725Y18940061D01*
X50602178Y18949500D01*
X62052723Y18949500D01*
X62103159Y18938779D01*
G37*
%TD.AperFunction*%
%TA.AperFunction,Conductor*%
G36*
X45230699Y28135485D02*
G01*
X45275285Y28095340D01*
X45295805Y28038961D01*
X45313646Y27869205D01*
X45313647Y27869197D01*
X45314326Y27862744D01*
X45316331Y27856572D01*
X45316333Y27856565D01*
X45370813Y27688895D01*
X45372821Y27682716D01*
X45376068Y27677092D01*
X45376069Y27677090D01*
X45406933Y27623631D01*
X45467467Y27518784D01*
X45471811Y27513959D01*
X45471813Y27513957D01*
X45587596Y27385368D01*
X45594129Y27378112D01*
X45599387Y27374292D01*
X45599388Y27374291D01*
X45642294Y27343118D01*
X45747270Y27266849D01*
X45920197Y27189856D01*
X46105354Y27150500D01*
X46288143Y27150500D01*
X46294646Y27150500D01*
X46479803Y27189856D01*
X46652730Y27266849D01*
X46805871Y27378112D01*
X46833207Y27408473D01*
X46874921Y27438780D01*
X46925357Y27449500D01*
X49720092Y27449500D01*
X49778851Y27434694D01*
X49823578Y27393812D01*
X49843593Y27336617D01*
X49834114Y27276767D01*
X49798944Y27230574D01*
X49797738Y27229816D01*
X49792818Y27224897D01*
X49792814Y27224893D01*
X49675112Y27107191D01*
X49675108Y27107187D01*
X49670184Y27102262D01*
X49666479Y27096367D01*
X49666476Y27096362D01*
X49577912Y26955413D01*
X49577910Y26955410D01*
X49574211Y26949522D01*
X49571915Y26942964D01*
X49571913Y26942957D01*
X49516930Y26785825D01*
X49516928Y26785818D01*
X49514632Y26779255D01*
X49513852Y26772338D01*
X49513852Y26772335D01*
X49496881Y26621707D01*
X49494435Y26600000D01*
X49495215Y26593077D01*
X49513851Y26427669D01*
X49513852Y26427662D01*
X49514632Y26420745D01*
X49516930Y26414178D01*
X49516932Y26414169D01*
X49542551Y26340953D01*
X49549509Y26300000D01*
X49542551Y26259047D01*
X49516932Y26185832D01*
X49516929Y26185821D01*
X49514632Y26179255D01*
X49513852Y26172341D01*
X49513851Y26172332D01*
X49495215Y26006923D01*
X49494435Y26000000D01*
X49495215Y25993077D01*
X49513851Y25827669D01*
X49513852Y25827662D01*
X49514632Y25820745D01*
X49516930Y25814178D01*
X49516932Y25814169D01*
X49542551Y25740953D01*
X49549509Y25700000D01*
X49542551Y25659047D01*
X49516932Y25585832D01*
X49516929Y25585821D01*
X49514632Y25579255D01*
X49513852Y25572341D01*
X49513851Y25572332D01*
X49495215Y25406923D01*
X49494435Y25400000D01*
X49495215Y25393077D01*
X49513851Y25227669D01*
X49513852Y25227662D01*
X49514632Y25220745D01*
X49516932Y25214172D01*
X49542551Y25140955D01*
X49549509Y25100001D01*
X49542551Y25059048D01*
X49516932Y24985832D01*
X49516929Y24985821D01*
X49514632Y24979255D01*
X49513852Y24972341D01*
X49513851Y24972332D01*
X49496111Y24814878D01*
X49494435Y24800000D01*
X49495215Y24793077D01*
X49513851Y24627669D01*
X49513852Y24627662D01*
X49514632Y24620745D01*
X49516930Y24614178D01*
X49516932Y24614169D01*
X49542551Y24540953D01*
X49549509Y24500000D01*
X49542551Y24459047D01*
X49516932Y24385832D01*
X49516929Y24385821D01*
X49514632Y24379255D01*
X49513852Y24372341D01*
X49513851Y24372332D01*
X49496984Y24222626D01*
X49494435Y24200000D01*
X49495215Y24193077D01*
X49513851Y24027669D01*
X49513852Y24027662D01*
X49514632Y24020745D01*
X49516930Y24014178D01*
X49516932Y24014169D01*
X49542551Y23940953D01*
X49549509Y23900000D01*
X49542551Y23859047D01*
X49516932Y23785832D01*
X49516929Y23785821D01*
X49514632Y23779255D01*
X49513852Y23772341D01*
X49513851Y23772332D01*
X49495215Y23606923D01*
X49494435Y23600000D01*
X49495215Y23593077D01*
X49513851Y23427669D01*
X49513852Y23427662D01*
X49514632Y23420745D01*
X49516932Y23414172D01*
X49542551Y23340955D01*
X49549509Y23300001D01*
X49542551Y23259048D01*
X49516932Y23185832D01*
X49516929Y23185821D01*
X49514632Y23179255D01*
X49513852Y23172341D01*
X49513851Y23172332D01*
X49495215Y23006923D01*
X49494435Y23000000D01*
X49495215Y22993077D01*
X49513851Y22827669D01*
X49513852Y22827662D01*
X49514632Y22820745D01*
X49516930Y22814178D01*
X49516932Y22814169D01*
X49542551Y22740953D01*
X49549509Y22700000D01*
X49542551Y22659047D01*
X49516932Y22585832D01*
X49516929Y22585821D01*
X49514632Y22579255D01*
X49513852Y22572341D01*
X49513851Y22572332D01*
X49500125Y22450500D01*
X49494435Y22400000D01*
X49495215Y22393077D01*
X49513709Y22228931D01*
X49514632Y22220745D01*
X49516928Y22214181D01*
X49516930Y22214176D01*
X49571698Y22057659D01*
X49574211Y22050478D01*
X49577912Y22044588D01*
X49666147Y21904162D01*
X49670184Y21897738D01*
X49797738Y21770184D01*
X49950478Y21674211D01*
X50120745Y21614632D01*
X50300000Y21594435D01*
X50479255Y21614632D01*
X50559051Y21642555D01*
X50600000Y21649512D01*
X50640948Y21642555D01*
X50720745Y21614632D01*
X50900000Y21594435D01*
X51079255Y21614632D01*
X51159051Y21642555D01*
X51200000Y21649512D01*
X51240948Y21642555D01*
X51320745Y21614632D01*
X51500000Y21594435D01*
X51679255Y21614632D01*
X51759051Y21642555D01*
X51800000Y21649512D01*
X51840948Y21642555D01*
X51920745Y21614632D01*
X52100000Y21594435D01*
X52279255Y21614632D01*
X52359051Y21642555D01*
X52400000Y21649512D01*
X52440948Y21642555D01*
X52520745Y21614632D01*
X52700000Y21594435D01*
X52879255Y21614632D01*
X52959051Y21642555D01*
X53000000Y21649512D01*
X53040948Y21642555D01*
X53120745Y21614632D01*
X53300000Y21594435D01*
X53479255Y21614632D01*
X53559051Y21642555D01*
X53600000Y21649512D01*
X53640948Y21642555D01*
X53720745Y21614632D01*
X53900000Y21594435D01*
X54079255Y21614632D01*
X54159051Y21642555D01*
X54200000Y21649512D01*
X54240948Y21642555D01*
X54320745Y21614632D01*
X54500000Y21594435D01*
X54679255Y21614632D01*
X54849522Y21674211D01*
X55002262Y21770184D01*
X55129816Y21897738D01*
X55225789Y22050478D01*
X55285368Y22220745D01*
X55305565Y22400000D01*
X55285368Y22579255D01*
X55257445Y22659052D01*
X55250488Y22700000D01*
X55257445Y22740949D01*
X55285368Y22820745D01*
X55305565Y23000000D01*
X55285368Y23179255D01*
X55257446Y23259050D01*
X55250489Y23300001D01*
X55257448Y23340956D01*
X55285368Y23420745D01*
X55305565Y23600000D01*
X55285368Y23779255D01*
X55257445Y23859052D01*
X55250488Y23900000D01*
X55257445Y23940949D01*
X55285368Y24020745D01*
X55305565Y24200000D01*
X55285368Y24379255D01*
X55257445Y24459052D01*
X55250488Y24500000D01*
X55257445Y24540949D01*
X55285368Y24620745D01*
X55305565Y24800000D01*
X55285368Y24979255D01*
X55257446Y25059050D01*
X55250489Y25100001D01*
X55257448Y25140956D01*
X55285368Y25220745D01*
X55305565Y25400000D01*
X55285368Y25579255D01*
X55257446Y25659051D01*
X55250488Y25700001D01*
X55257445Y25740947D01*
X55285368Y25820745D01*
X55305565Y26000000D01*
X55285368Y26179255D01*
X55257446Y26259051D01*
X55250488Y26300001D01*
X55257445Y26340947D01*
X55285368Y26420745D01*
X55305565Y26600000D01*
X55285368Y26779255D01*
X55225789Y26949522D01*
X55129816Y27102262D01*
X55002262Y27229816D01*
X55001055Y27230574D01*
X54965886Y27276767D01*
X54956407Y27336617D01*
X54976422Y27393812D01*
X55021149Y27434694D01*
X55079908Y27449500D01*
X56920092Y27449500D01*
X56978851Y27434694D01*
X57023578Y27393812D01*
X57043593Y27336617D01*
X57034114Y27276767D01*
X56998944Y27230574D01*
X56997738Y27229816D01*
X56992818Y27224897D01*
X56992814Y27224893D01*
X56875112Y27107191D01*
X56875108Y27107187D01*
X56870184Y27102262D01*
X56866479Y27096367D01*
X56866476Y27096362D01*
X56777912Y26955413D01*
X56777910Y26955410D01*
X56774211Y26949522D01*
X56771915Y26942964D01*
X56771913Y26942957D01*
X56716930Y26785825D01*
X56716928Y26785818D01*
X56714632Y26779255D01*
X56713852Y26772338D01*
X56713852Y26772335D01*
X56696881Y26621707D01*
X56694435Y26600000D01*
X56695215Y26593077D01*
X56713851Y26427669D01*
X56713852Y26427662D01*
X56714632Y26420745D01*
X56716930Y26414178D01*
X56716932Y26414169D01*
X56742551Y26340953D01*
X56749509Y26300000D01*
X56742551Y26259047D01*
X56716932Y26185832D01*
X56716929Y26185821D01*
X56714632Y26179255D01*
X56713852Y26172341D01*
X56713851Y26172332D01*
X56695215Y26006923D01*
X56694435Y26000000D01*
X56695215Y25993077D01*
X56713851Y25827669D01*
X56713852Y25827662D01*
X56714632Y25820745D01*
X56716930Y25814178D01*
X56716932Y25814169D01*
X56742551Y25740953D01*
X56749509Y25700000D01*
X56742551Y25659047D01*
X56716932Y25585832D01*
X56716929Y25585821D01*
X56714632Y25579255D01*
X56713852Y25572341D01*
X56713851Y25572332D01*
X56695215Y25406923D01*
X56694435Y25400000D01*
X56695215Y25393077D01*
X56713851Y25227669D01*
X56713852Y25227662D01*
X56714632Y25220745D01*
X56716932Y25214172D01*
X56742551Y25140955D01*
X56749509Y25100001D01*
X56742551Y25059048D01*
X56716932Y24985832D01*
X56716929Y24985821D01*
X56714632Y24979255D01*
X56713852Y24972341D01*
X56713851Y24972332D01*
X56696111Y24814878D01*
X56694435Y24800000D01*
X56695215Y24793077D01*
X56713851Y24627669D01*
X56713852Y24627662D01*
X56714632Y24620745D01*
X56716930Y24614178D01*
X56716932Y24614169D01*
X56742551Y24540953D01*
X56749509Y24500000D01*
X56742551Y24459047D01*
X56716932Y24385832D01*
X56716929Y24385821D01*
X56714632Y24379255D01*
X56713852Y24372341D01*
X56713851Y24372332D01*
X56696984Y24222626D01*
X56694435Y24200000D01*
X56695215Y24193077D01*
X56713851Y24027669D01*
X56713852Y24027662D01*
X56714632Y24020745D01*
X56716930Y24014178D01*
X56716932Y24014169D01*
X56742551Y23940953D01*
X56749509Y23900000D01*
X56742551Y23859047D01*
X56716932Y23785832D01*
X56716929Y23785821D01*
X56714632Y23779255D01*
X56713852Y23772341D01*
X56713851Y23772332D01*
X56695215Y23606923D01*
X56694435Y23600000D01*
X56695215Y23593077D01*
X56713851Y23427669D01*
X56713852Y23427662D01*
X56714632Y23420745D01*
X56716932Y23414172D01*
X56742551Y23340955D01*
X56749509Y23300001D01*
X56742551Y23259048D01*
X56716932Y23185832D01*
X56716929Y23185821D01*
X56714632Y23179255D01*
X56713852Y23172341D01*
X56713851Y23172332D01*
X56695215Y23006923D01*
X56694435Y23000000D01*
X56695215Y22993077D01*
X56713851Y22827669D01*
X56713852Y22827662D01*
X56714632Y22820745D01*
X56716930Y22814178D01*
X56716932Y22814169D01*
X56742551Y22740953D01*
X56749509Y22700000D01*
X56742551Y22659047D01*
X56716932Y22585832D01*
X56716929Y22585821D01*
X56714632Y22579255D01*
X56713852Y22572341D01*
X56713851Y22572332D01*
X56700125Y22450500D01*
X56694435Y22400000D01*
X56695215Y22393077D01*
X56713709Y22228931D01*
X56714632Y22220745D01*
X56716928Y22214181D01*
X56716930Y22214176D01*
X56771698Y22057659D01*
X56774211Y22050478D01*
X56777912Y22044588D01*
X56866147Y21904162D01*
X56870184Y21897738D01*
X56997738Y21770184D01*
X57150478Y21674211D01*
X57320745Y21614632D01*
X57500000Y21594435D01*
X57679255Y21614632D01*
X57759051Y21642555D01*
X57800000Y21649512D01*
X57840948Y21642555D01*
X57920745Y21614632D01*
X58100000Y21594435D01*
X58279255Y21614632D01*
X58359051Y21642555D01*
X58400000Y21649512D01*
X58440948Y21642555D01*
X58520745Y21614632D01*
X58700000Y21594435D01*
X58879255Y21614632D01*
X58959051Y21642555D01*
X59000000Y21649512D01*
X59040948Y21642555D01*
X59120745Y21614632D01*
X59300000Y21594435D01*
X59479255Y21614632D01*
X59559051Y21642555D01*
X59600000Y21649512D01*
X59640948Y21642555D01*
X59720745Y21614632D01*
X59900000Y21594435D01*
X60079255Y21614632D01*
X60159051Y21642555D01*
X60200000Y21649512D01*
X60240948Y21642555D01*
X60320745Y21614632D01*
X60500000Y21594435D01*
X60679255Y21614632D01*
X60759051Y21642555D01*
X60800000Y21649512D01*
X60840948Y21642555D01*
X60920745Y21614632D01*
X61100000Y21594435D01*
X61279255Y21614632D01*
X61359051Y21642555D01*
X61400000Y21649512D01*
X61440948Y21642555D01*
X61520745Y21614632D01*
X61700000Y21594435D01*
X61879255Y21614632D01*
X62049522Y21674211D01*
X62202262Y21770184D01*
X62329816Y21897738D01*
X62425789Y22050478D01*
X62485368Y22220745D01*
X62505565Y22400000D01*
X62485368Y22579255D01*
X62457445Y22659052D01*
X62450488Y22700000D01*
X62457445Y22740949D01*
X62485368Y22820745D01*
X62505565Y23000000D01*
X62485368Y23179255D01*
X62457446Y23259050D01*
X62450489Y23300001D01*
X62457448Y23340956D01*
X62485368Y23420745D01*
X62505565Y23600000D01*
X62485368Y23779255D01*
X62457445Y23859052D01*
X62450488Y23900000D01*
X62457445Y23940949D01*
X62485368Y24020745D01*
X62505565Y24200000D01*
X62485368Y24379255D01*
X62457445Y24459052D01*
X62450488Y24500000D01*
X62457445Y24540949D01*
X62485368Y24620745D01*
X62505565Y24800000D01*
X62485368Y24979255D01*
X62457446Y25059050D01*
X62450489Y25100001D01*
X62457448Y25140956D01*
X62485368Y25220745D01*
X62505565Y25400000D01*
X62485368Y25579255D01*
X62457445Y25659052D01*
X62450488Y25700000D01*
X62457445Y25740949D01*
X62485368Y25820745D01*
X62505565Y26000000D01*
X62485368Y26179255D01*
X62457446Y26259051D01*
X62450488Y26300001D01*
X62457445Y26340947D01*
X62485368Y26420745D01*
X62505565Y26600000D01*
X62485368Y26779255D01*
X62425789Y26949522D01*
X62329816Y27102262D01*
X62202262Y27229816D01*
X62201055Y27230574D01*
X62165886Y27276767D01*
X62156407Y27336617D01*
X62176422Y27393812D01*
X62221149Y27434694D01*
X62279908Y27449500D01*
X62299806Y27449500D01*
X62350242Y27438779D01*
X62391955Y27408472D01*
X62419742Y27377612D01*
X62572883Y27266349D01*
X62745810Y27189356D01*
X62930967Y27150000D01*
X63113756Y27150000D01*
X63120259Y27150000D01*
X63305416Y27189356D01*
X63478343Y27266349D01*
X63631484Y27377612D01*
X63758146Y27518284D01*
X63818112Y27622150D01*
X63863500Y27667537D01*
X63925500Y27684150D01*
X63987500Y27667537D01*
X64032887Y27622150D01*
X64049500Y27560150D01*
X64049500Y21100631D01*
X64030080Y21034006D01*
X63977904Y20988249D01*
X63909314Y20977692D01*
X63845794Y21005642D01*
X63843105Y21007898D01*
X63815214Y21031302D01*
X63808760Y21034544D01*
X63805859Y21036452D01*
X63805588Y21036648D01*
X63805292Y21036813D01*
X63802339Y21038634D01*
X63796677Y21043111D01*
X63790134Y21046162D01*
X63790131Y21046164D01*
X63728692Y21074814D01*
X63725446Y21076385D01*
X63720205Y21079017D01*
X63658433Y21110040D01*
X63651409Y21111705D01*
X63648151Y21112891D01*
X63647832Y21113023D01*
X63647504Y21113116D01*
X63644218Y21114205D01*
X63637673Y21117257D01*
X63630604Y21118717D01*
X63630600Y21118718D01*
X63564212Y21132426D01*
X63560691Y21133206D01*
X63494741Y21148837D01*
X63494734Y21148838D01*
X63487721Y21150500D01*
X63480510Y21150500D01*
X63477061Y21150903D01*
X63476727Y21150957D01*
X63476374Y21150972D01*
X63472929Y21151274D01*
X63465856Y21152734D01*
X63458638Y21152524D01*
X63390870Y21150552D01*
X63387263Y21150500D01*
X50013707Y21150500D01*
X49995736Y21151809D01*
X49979126Y21154242D01*
X49979124Y21154243D01*
X49971977Y21155289D01*
X49964784Y21154660D01*
X49964778Y21154660D01*
X49922631Y21150972D01*
X49911824Y21150500D01*
X49906291Y21150500D01*
X49902730Y21150084D01*
X49902715Y21150083D01*
X49875501Y21146902D01*
X49871916Y21146536D01*
X49804393Y21140629D01*
X49804385Y21140628D01*
X49797203Y21139999D01*
X49790352Y21137730D01*
X49786935Y21137024D01*
X49786619Y21136973D01*
X49786295Y21136881D01*
X49782913Y21136080D01*
X49775745Y21135241D01*
X49768968Y21132775D01*
X49768957Y21132772D01*
X49705231Y21109579D01*
X49701831Y21108397D01*
X49671863Y21098467D01*
X49630666Y21084814D01*
X49624528Y21081029D01*
X49621367Y21079555D01*
X49621061Y21079429D01*
X49620781Y21079272D01*
X49617659Y21077704D01*
X49610883Y21075237D01*
X49604855Y21071273D01*
X49604854Y21071272D01*
X49548220Y21034024D01*
X49545182Y21032089D01*
X49487492Y20996505D01*
X49487483Y20996499D01*
X49481345Y20992712D01*
X49476243Y20987611D01*
X49473504Y20985445D01*
X49473239Y20985255D01*
X49472995Y20985030D01*
X49470331Y20982795D01*
X49464304Y20978830D01*
X49459355Y20973586D01*
X49459353Y20973583D01*
X49412832Y20924274D01*
X49410320Y20921689D01*
X46975451Y18486819D01*
X46935223Y18459939D01*
X46887770Y18450500D01*
X42099136Y18450500D01*
X42056720Y18457980D01*
X42029514Y18473690D01*
X42028859Y18472693D01*
X42022828Y18476660D01*
X42017296Y18481302D01*
X42010842Y18484544D01*
X42007941Y18486452D01*
X42007670Y18486648D01*
X42007374Y18486813D01*
X42004421Y18488634D01*
X41998759Y18493111D01*
X41992216Y18496162D01*
X41992213Y18496164D01*
X41930774Y18524814D01*
X41927528Y18526385D01*
X41922289Y18529016D01*
X41860515Y18560040D01*
X41853491Y18561705D01*
X41850233Y18562891D01*
X41849914Y18563023D01*
X41849586Y18563116D01*
X41846300Y18564205D01*
X41839755Y18567257D01*
X41832686Y18568717D01*
X41832682Y18568718D01*
X41766294Y18582426D01*
X41762773Y18583206D01*
X41696823Y18598837D01*
X41696816Y18598838D01*
X41689803Y18600500D01*
X41682592Y18600500D01*
X41679143Y18600903D01*
X41678809Y18600957D01*
X41678456Y18600972D01*
X41675011Y18601274D01*
X41667938Y18602734D01*
X41660720Y18602524D01*
X41592952Y18600552D01*
X41589345Y18600500D01*
X40413707Y18600500D01*
X40395736Y18601809D01*
X40379126Y18604242D01*
X40379124Y18604243D01*
X40371977Y18605289D01*
X40364785Y18604660D01*
X40364778Y18604660D01*
X40322634Y18600972D01*
X40311827Y18600500D01*
X40306291Y18600500D01*
X40302730Y18600084D01*
X40302715Y18600083D01*
X40275484Y18596900D01*
X40271900Y18596534D01*
X40204395Y18590628D01*
X40204389Y18590627D01*
X40197202Y18589998D01*
X40190351Y18587729D01*
X40186949Y18587026D01*
X40186619Y18586973D01*
X40186300Y18586882D01*
X40182912Y18586080D01*
X40175745Y18585241D01*
X40168968Y18582775D01*
X40168957Y18582772D01*
X40105270Y18559593D01*
X40101869Y18558411D01*
X40037516Y18537086D01*
X40037503Y18537080D01*
X40030665Y18534814D01*
X40024531Y18531032D01*
X40021356Y18529551D01*
X40021064Y18529431D01*
X40020772Y18529267D01*
X40017662Y18527706D01*
X40010883Y18525237D01*
X40004852Y18521271D01*
X40004853Y18521271D01*
X39948235Y18484034D01*
X39945197Y18482099D01*
X39887487Y18446502D01*
X39887481Y18446498D01*
X39881344Y18442712D01*
X39876246Y18437615D01*
X39873503Y18435446D01*
X39873247Y18435261D01*
X39872997Y18435032D01*
X39870330Y18432795D01*
X39864304Y18428830D01*
X39828686Y18391078D01*
X39812849Y18374292D01*
X39810337Y18371707D01*
X35012681Y13574049D01*
X34963318Y13543799D01*
X34905602Y13539257D01*
X34852115Y13561412D01*
X34814515Y13605435D01*
X34801000Y13661730D01*
X34801000Y14599794D01*
X34810439Y14647247D01*
X34837319Y14687475D01*
X36557132Y16407288D01*
X38285638Y18135795D01*
X38299262Y18147569D01*
X38318530Y18161912D01*
X38350372Y18199861D01*
X38357686Y18207841D01*
X38358267Y18208423D01*
X38361590Y18211745D01*
X38380836Y18236089D01*
X38383058Y18238816D01*
X38431302Y18296308D01*
X38434547Y18302771D01*
X38436440Y18305648D01*
X38436644Y18305932D01*
X38436819Y18306244D01*
X38438624Y18309172D01*
X38443111Y18314845D01*
X38474834Y18382877D01*
X38476349Y18386008D01*
X38510040Y18453089D01*
X38511708Y18460131D01*
X38512878Y18463344D01*
X38513022Y18463692D01*
X38513118Y18464030D01*
X38514199Y18467295D01*
X38517257Y18473849D01*
X38532450Y18547434D01*
X38533186Y18550751D01*
X38550500Y18623801D01*
X38550500Y18631033D01*
X38550900Y18634455D01*
X38550957Y18634808D01*
X38550972Y18635148D01*
X38551273Y18638591D01*
X38552734Y18645666D01*
X38550552Y18720652D01*
X38550500Y18724259D01*
X38550500Y19524598D01*
X38559939Y19572051D01*
X38586816Y19612277D01*
X38985149Y20010612D01*
X38998762Y20022376D01*
X39018032Y20036720D01*
X39049874Y20074669D01*
X39057188Y20082649D01*
X39057769Y20083231D01*
X39061092Y20086553D01*
X39080338Y20110897D01*
X39082560Y20113624D01*
X39130804Y20171116D01*
X39134049Y20177579D01*
X39135942Y20180456D01*
X39136146Y20180739D01*
X39136323Y20181056D01*
X39138125Y20183978D01*
X39142613Y20189653D01*
X39174318Y20257648D01*
X39175857Y20260828D01*
X39209542Y20327897D01*
X39211208Y20334932D01*
X39212383Y20338158D01*
X39212522Y20338494D01*
X39212620Y20338839D01*
X39213702Y20342106D01*
X39216758Y20348657D01*
X39231936Y20422173D01*
X39232688Y20425562D01*
X39250002Y20498609D01*
X39250002Y20505840D01*
X39250404Y20509279D01*
X39250458Y20509616D01*
X39250474Y20509970D01*
X39250773Y20513397D01*
X39252235Y20520474D01*
X39250054Y20595441D01*
X39250002Y20599047D01*
X39250002Y20737272D01*
X39259441Y20784725D01*
X39286321Y20824953D01*
X40066941Y21605573D01*
X44003629Y25542264D01*
X44017253Y25554038D01*
X44036521Y25568381D01*
X44068363Y25606330D01*
X44075677Y25614310D01*
X44076258Y25614892D01*
X44079581Y25618214D01*
X44098827Y25642558D01*
X44101049Y25645285D01*
X44149293Y25702777D01*
X44152538Y25709240D01*
X44154431Y25712117D01*
X44154635Y25712400D01*
X44154812Y25712717D01*
X44156614Y25715639D01*
X44161102Y25721314D01*
X44192807Y25789309D01*
X44194346Y25792489D01*
X44228031Y25859558D01*
X44229697Y25866593D01*
X44230872Y25869819D01*
X44231011Y25870155D01*
X44231109Y25870500D01*
X44232191Y25873767D01*
X44235247Y25880318D01*
X44250425Y25953834D01*
X44251177Y25957223D01*
X44268491Y26030270D01*
X44268491Y26037501D01*
X44268893Y26040940D01*
X44268947Y26041277D01*
X44268963Y26041631D01*
X44269262Y26045058D01*
X44270724Y26052135D01*
X44268543Y26127102D01*
X44268491Y26130708D01*
X44268491Y28026000D01*
X44285104Y28088000D01*
X44330491Y28133387D01*
X44392491Y28150000D01*
X45172484Y28150000D01*
X45230699Y28135485D01*
G37*
%TD.AperFunction*%
%TA.AperFunction,Conductor*%
G36*
X41122472Y28834473D02*
G01*
X41167299Y28793035D01*
X41186922Y28735229D01*
X41176583Y28675064D01*
X41176069Y28673910D01*
X41172821Y28668284D01*
X41170815Y28662112D01*
X41170813Y28662106D01*
X41116333Y28494436D01*
X41116331Y28494427D01*
X41114326Y28488256D01*
X41113648Y28481806D01*
X41113646Y28481796D01*
X41097031Y28323702D01*
X41094540Y28300000D01*
X41095219Y28293540D01*
X41113646Y28118205D01*
X41113647Y28118197D01*
X41114326Y28111744D01*
X41116331Y28105572D01*
X41116333Y28105565D01*
X41170813Y27937895D01*
X41172821Y27931716D01*
X41176068Y27926092D01*
X41176069Y27926090D01*
X41261769Y27777652D01*
X41267467Y27767784D01*
X41271811Y27762959D01*
X41271813Y27762957D01*
X41344063Y27682716D01*
X41394129Y27627112D01*
X41399387Y27623292D01*
X41399388Y27623291D01*
X41415400Y27611658D01*
X41547270Y27515849D01*
X41720197Y27438856D01*
X41905354Y27399500D01*
X42088143Y27399500D01*
X42094646Y27399500D01*
X42279803Y27438856D01*
X42452730Y27515849D01*
X42570607Y27601492D01*
X42633762Y27624791D01*
X42699786Y27611658D01*
X42749218Y27565963D01*
X42767491Y27501173D01*
X42767491Y26480221D01*
X42758052Y26432768D01*
X42731172Y26392540D01*
X38255474Y21916844D01*
X38208742Y21887482D01*
X38153898Y21881306D01*
X38111889Y21896011D01*
X38111193Y21894564D01*
X38104913Y21897589D01*
X38099024Y21901289D01*
X38092461Y21903586D01*
X38092458Y21903587D01*
X37935326Y21958570D01*
X37935321Y21958572D01*
X37928757Y21960868D01*
X37921837Y21961648D01*
X37921836Y21961648D01*
X37756425Y21980285D01*
X37749502Y21981065D01*
X37742579Y21980285D01*
X37577167Y21961648D01*
X37577164Y21961648D01*
X37570247Y21960868D01*
X37563682Y21958571D01*
X37563674Y21958569D01*
X37408189Y21904162D01*
X37352583Y21898073D01*
X37299958Y21917041D01*
X37261025Y21957208D01*
X37243707Y22010398D01*
X37239998Y22052798D01*
X37237724Y22059660D01*
X37237027Y22063036D01*
X37236970Y22063388D01*
X37236875Y22063724D01*
X37236079Y22067082D01*
X37235241Y22074255D01*
X37209574Y22144773D01*
X37208421Y22148089D01*
X37184813Y22219335D01*
X37181019Y22225486D01*
X37179570Y22228593D01*
X37179430Y22228931D01*
X37179263Y22229230D01*
X37177708Y22232325D01*
X37175237Y22239117D01*
X37133992Y22301825D01*
X37132108Y22304782D01*
X37092711Y22368656D01*
X37087601Y22373766D01*
X37085463Y22376470D01*
X37085254Y22376759D01*
X37085027Y22377007D01*
X37082796Y22379666D01*
X37078830Y22385696D01*
X37073581Y22390648D01*
X37073578Y22390652D01*
X37024272Y22437169D01*
X37021685Y22439682D01*
X31570732Y27890636D01*
X31554815Y27910174D01*
X31546384Y27922993D01*
X31544460Y27926014D01*
X31508878Y27983702D01*
X31508875Y27983705D01*
X31505086Y27989849D01*
X31499979Y27994956D01*
X31497837Y27997665D01*
X31497631Y27997950D01*
X31497401Y27998201D01*
X31495170Y28000859D01*
X31491204Y28006890D01*
X31436647Y28058362D01*
X31434060Y28060875D01*
X30857117Y28637819D01*
X30826867Y28687182D01*
X30822325Y28744898D01*
X30844480Y28798385D01*
X30888503Y28835985D01*
X30944798Y28849500D01*
X41063304Y28849500D01*
X41122472Y28834473D01*
G37*
%TD.AperFunction*%
%TD*%
M02*
